G04 #@! TF.GenerationSoftware,KiCad,Pcbnew,6.0.11-2627ca5db0~126~ubuntu22.04.1*
G04 #@! TF.CreationDate,2023-02-05T22:44:53+11:00*
G04 #@! TF.ProjectId,panel,70616e65-6c2e-46b6-9963-61645f706362,rev?*
G04 #@! TF.SameCoordinates,Original*
G04 #@! TF.FileFunction,Legend,Top*
G04 #@! TF.FilePolarity,Positive*
%FSLAX46Y46*%
G04 Gerber Fmt 4.6, Leading zero omitted, Abs format (unit mm)*
G04 Created by KiCad (PCBNEW 6.0.11-2627ca5db0~126~ubuntu22.04.1) date 2023-02-05 22:44:53*
%MOMM*%
%LPD*%
G01*
G04 APERTURE LIST*
G04 Aperture macros list*
%AMRoundRect*
0 Rectangle with rounded corners*
0 $1 Rounding radius*
0 $2 $3 $4 $5 $6 $7 $8 $9 X,Y pos of 4 corners*
0 Add a 4 corners polygon primitive as box body*
4,1,4,$2,$3,$4,$5,$6,$7,$8,$9,$2,$3,0*
0 Add four circle primitives for the rounded corners*
1,1,$1+$1,$2,$3*
1,1,$1+$1,$4,$5*
1,1,$1+$1,$6,$7*
1,1,$1+$1,$8,$9*
0 Add four rect primitives between the rounded corners*
20,1,$1+$1,$2,$3,$4,$5,0*
20,1,$1+$1,$4,$5,$6,$7,0*
20,1,$1+$1,$6,$7,$8,$9,0*
20,1,$1+$1,$8,$9,$2,$3,0*%
%AMFreePoly0*
4,1,9,5.362500,-0.866500,1.237500,-0.866500,1.237500,-0.450000,-1.237500,-0.450000,-1.237500,0.450000,1.237500,0.450000,1.237500,0.866500,5.362500,0.866500,5.362500,-0.866500,5.362500,-0.866500,$1*%
G04 Aperture macros list end*
%ADD10C,0.150000*%
%ADD11C,0.120000*%
%ADD12R,1.500000X0.900000*%
%ADD13R,0.900000X1.500000*%
%ADD14R,0.900000X0.900000*%
%ADD15C,1.000000*%
%ADD16RoundRect,0.150000X0.587500X0.150000X-0.587500X0.150000X-0.587500X-0.150000X0.587500X-0.150000X0*%
%ADD17RoundRect,0.237500X0.237500X-0.300000X0.237500X0.300000X-0.237500X0.300000X-0.237500X-0.300000X0*%
%ADD18RoundRect,0.237500X0.250000X0.237500X-0.250000X0.237500X-0.250000X-0.237500X0.250000X-0.237500X0*%
%ADD19R,1.700000X1.700000*%
%ADD20O,1.700000X1.700000*%
%ADD21RoundRect,0.237500X0.300000X0.237500X-0.300000X0.237500X-0.300000X-0.237500X0.300000X-0.237500X0*%
%ADD22C,0.650000*%
%ADD23R,1.450000X0.600000*%
%ADD24R,1.450000X0.300000*%
%ADD25O,2.100000X1.000000*%
%ADD26O,1.600000X1.000000*%
%ADD27RoundRect,0.237500X0.237500X-0.250000X0.237500X0.250000X-0.237500X0.250000X-0.237500X-0.250000X0*%
%ADD28RoundRect,0.237500X-0.250000X-0.237500X0.250000X-0.237500X0.250000X0.237500X-0.250000X0.237500X0*%
%ADD29C,3.000000*%
%ADD30RoundRect,0.237500X-0.300000X-0.237500X0.300000X-0.237500X0.300000X0.237500X-0.300000X0.237500X0*%
%ADD31R,2.300000X0.900000*%
%ADD32FreePoly0,0.000000*%
%ADD33R,1.000000X1.000000*%
%ADD34O,1.000000X1.000000*%
G04 APERTURE END LIST*
D10*
X130703095Y-65377380D02*
X130703095Y-66186904D01*
X130750714Y-66282142D01*
X130798333Y-66329761D01*
X130893571Y-66377380D01*
X131084047Y-66377380D01*
X131179285Y-66329761D01*
X131226904Y-66282142D01*
X131274523Y-66186904D01*
X131274523Y-65377380D01*
X132274523Y-66377380D02*
X131703095Y-66377380D01*
X131988809Y-66377380D02*
X131988809Y-65377380D01*
X131893571Y-65520238D01*
X131798333Y-65615476D01*
X131703095Y-65663095D01*
X126703095Y-70391666D02*
X127179285Y-70391666D01*
X126607857Y-70677380D02*
X126941190Y-69677380D01*
X127274523Y-70677380D01*
X127607857Y-70010714D02*
X127607857Y-70677380D01*
X127607857Y-70105952D02*
X127655476Y-70058333D01*
X127750714Y-70010714D01*
X127893571Y-70010714D01*
X127988809Y-70058333D01*
X128036428Y-70153571D01*
X128036428Y-70677380D01*
X128369761Y-70010714D02*
X128750714Y-70010714D01*
X128512619Y-69677380D02*
X128512619Y-70534523D01*
X128560238Y-70629761D01*
X128655476Y-70677380D01*
X128750714Y-70677380D01*
X129465000Y-70629761D02*
X129369761Y-70677380D01*
X129179285Y-70677380D01*
X129084047Y-70629761D01*
X129036428Y-70534523D01*
X129036428Y-70153571D01*
X129084047Y-70058333D01*
X129179285Y-70010714D01*
X129369761Y-70010714D01*
X129465000Y-70058333D01*
X129512619Y-70153571D01*
X129512619Y-70248809D01*
X129036428Y-70344047D01*
X129941190Y-70010714D02*
X129941190Y-70677380D01*
X129941190Y-70105952D02*
X129988809Y-70058333D01*
X130084047Y-70010714D01*
X130226904Y-70010714D01*
X130322142Y-70058333D01*
X130369761Y-70153571D01*
X130369761Y-70677380D01*
X130845952Y-70010714D02*
X130845952Y-70677380D01*
X130845952Y-70105952D02*
X130893571Y-70058333D01*
X130988809Y-70010714D01*
X131131666Y-70010714D01*
X131226904Y-70058333D01*
X131274523Y-70153571D01*
X131274523Y-70677380D01*
X132179285Y-70677380D02*
X132179285Y-70153571D01*
X132131666Y-70058333D01*
X132036428Y-70010714D01*
X131845952Y-70010714D01*
X131750714Y-70058333D01*
X132179285Y-70629761D02*
X132084047Y-70677380D01*
X131845952Y-70677380D01*
X131750714Y-70629761D01*
X131703095Y-70534523D01*
X131703095Y-70439285D01*
X131750714Y-70344047D01*
X131845952Y-70296428D01*
X132084047Y-70296428D01*
X132179285Y-70248809D01*
X133369761Y-70391666D02*
X133845952Y-70391666D01*
X133274523Y-70677380D02*
X133607857Y-69677380D01*
X133941190Y-70677380D01*
X134274523Y-70677380D02*
X134274523Y-70010714D01*
X134274523Y-70201190D02*
X134322142Y-70105952D01*
X134369761Y-70058333D01*
X134465000Y-70010714D01*
X134560238Y-70010714D01*
X135274523Y-70629761D02*
X135179285Y-70677380D01*
X134988809Y-70677380D01*
X134893571Y-70629761D01*
X134845952Y-70534523D01*
X134845952Y-70153571D01*
X134893571Y-70058333D01*
X134988809Y-70010714D01*
X135179285Y-70010714D01*
X135274523Y-70058333D01*
X135322142Y-70153571D01*
X135322142Y-70248809D01*
X134845952Y-70344047D01*
X136179285Y-70677380D02*
X136179285Y-70153571D01*
X136131666Y-70058333D01*
X136036428Y-70010714D01*
X135845952Y-70010714D01*
X135750714Y-70058333D01*
X136179285Y-70629761D02*
X136084047Y-70677380D01*
X135845952Y-70677380D01*
X135750714Y-70629761D01*
X135703095Y-70534523D01*
X135703095Y-70439285D01*
X135750714Y-70344047D01*
X135845952Y-70296428D01*
X136084047Y-70296428D01*
X136179285Y-70248809D01*
X115847619Y-82775238D02*
X115800000Y-82870476D01*
X115704761Y-82965714D01*
X115561904Y-83108571D01*
X115514285Y-83203809D01*
X115514285Y-83299047D01*
X115752380Y-83251428D02*
X115704761Y-83346666D01*
X115609523Y-83441904D01*
X115419047Y-83489523D01*
X115085714Y-83489523D01*
X114895238Y-83441904D01*
X114800000Y-83346666D01*
X114752380Y-83251428D01*
X114752380Y-83060952D01*
X114800000Y-82965714D01*
X114895238Y-82870476D01*
X115085714Y-82822857D01*
X115419047Y-82822857D01*
X115609523Y-82870476D01*
X115704761Y-82965714D01*
X115752380Y-83060952D01*
X115752380Y-83251428D01*
X115752380Y-81870476D02*
X115752380Y-82441904D01*
X115752380Y-82156190D02*
X114752380Y-82156190D01*
X114895238Y-82251428D01*
X114990476Y-82346666D01*
X115038095Y-82441904D01*
X164753333Y-56827142D02*
X164705714Y-56874761D01*
X164562857Y-56922380D01*
X164467619Y-56922380D01*
X164324761Y-56874761D01*
X164229523Y-56779523D01*
X164181904Y-56684285D01*
X164134285Y-56493809D01*
X164134285Y-56350952D01*
X164181904Y-56160476D01*
X164229523Y-56065238D01*
X164324761Y-55970000D01*
X164467619Y-55922380D01*
X164562857Y-55922380D01*
X164705714Y-55970000D01*
X164753333Y-56017619D01*
X165134285Y-56017619D02*
X165181904Y-55970000D01*
X165277142Y-55922380D01*
X165515238Y-55922380D01*
X165610476Y-55970000D01*
X165658095Y-56017619D01*
X165705714Y-56112857D01*
X165705714Y-56208095D01*
X165658095Y-56350952D01*
X165086666Y-56922380D01*
X165705714Y-56922380D01*
X115857142Y-74166666D02*
X115904761Y-74214285D01*
X115952380Y-74357142D01*
X115952380Y-74452380D01*
X115904761Y-74595238D01*
X115809523Y-74690476D01*
X115714285Y-74738095D01*
X115523809Y-74785714D01*
X115380952Y-74785714D01*
X115190476Y-74738095D01*
X115095238Y-74690476D01*
X115000000Y-74595238D01*
X114952380Y-74452380D01*
X114952380Y-74357142D01*
X115000000Y-74214285D01*
X115047619Y-74166666D01*
X114952380Y-73833333D02*
X114952380Y-73166666D01*
X115952380Y-73595238D01*
X121753333Y-98827142D02*
X121705714Y-98874761D01*
X121562857Y-98922380D01*
X121467619Y-98922380D01*
X121324761Y-98874761D01*
X121229523Y-98779523D01*
X121181904Y-98684285D01*
X121134285Y-98493809D01*
X121134285Y-98350952D01*
X121181904Y-98160476D01*
X121229523Y-98065238D01*
X121324761Y-97970000D01*
X121467619Y-97922380D01*
X121562857Y-97922380D01*
X121705714Y-97970000D01*
X121753333Y-98017619D01*
X122134285Y-98017619D02*
X122181904Y-97970000D01*
X122277142Y-97922380D01*
X122515238Y-97922380D01*
X122610476Y-97970000D01*
X122658095Y-98017619D01*
X122705714Y-98112857D01*
X122705714Y-98208095D01*
X122658095Y-98350952D01*
X122086666Y-98922380D01*
X122705714Y-98922380D01*
X159933333Y-78682380D02*
X159600000Y-78206190D01*
X159361904Y-78682380D02*
X159361904Y-77682380D01*
X159742857Y-77682380D01*
X159838095Y-77730000D01*
X159885714Y-77777619D01*
X159933333Y-77872857D01*
X159933333Y-78015714D01*
X159885714Y-78110952D01*
X159838095Y-78158571D01*
X159742857Y-78206190D01*
X159361904Y-78206190D01*
X160838095Y-77682380D02*
X160361904Y-77682380D01*
X160314285Y-78158571D01*
X160361904Y-78110952D01*
X160457142Y-78063333D01*
X160695238Y-78063333D01*
X160790476Y-78110952D01*
X160838095Y-78158571D01*
X160885714Y-78253809D01*
X160885714Y-78491904D01*
X160838095Y-78587142D01*
X160790476Y-78634761D01*
X160695238Y-78682380D01*
X160457142Y-78682380D01*
X160361904Y-78634761D01*
X160314285Y-78587142D01*
X141752380Y-52983333D02*
X142466666Y-52983333D01*
X142609523Y-53030952D01*
X142704761Y-53126190D01*
X142752380Y-53269047D01*
X142752380Y-53364285D01*
X142752380Y-51983333D02*
X142752380Y-52554761D01*
X142752380Y-52269047D02*
X141752380Y-52269047D01*
X141895238Y-52364285D01*
X141990476Y-52459523D01*
X142038095Y-52554761D01*
X168683333Y-60007142D02*
X168635714Y-60054761D01*
X168492857Y-60102380D01*
X168397619Y-60102380D01*
X168254761Y-60054761D01*
X168159523Y-59959523D01*
X168111904Y-59864285D01*
X168064285Y-59673809D01*
X168064285Y-59530952D01*
X168111904Y-59340476D01*
X168159523Y-59245238D01*
X168254761Y-59150000D01*
X168397619Y-59102380D01*
X168492857Y-59102380D01*
X168635714Y-59150000D01*
X168683333Y-59197619D01*
X169016666Y-59102380D02*
X169635714Y-59102380D01*
X169302380Y-59483333D01*
X169445238Y-59483333D01*
X169540476Y-59530952D01*
X169588095Y-59578571D01*
X169635714Y-59673809D01*
X169635714Y-59911904D01*
X169588095Y-60007142D01*
X169540476Y-60054761D01*
X169445238Y-60102380D01*
X169159523Y-60102380D01*
X169064285Y-60054761D01*
X169016666Y-60007142D01*
X154923333Y-43662380D02*
X154590000Y-43186190D01*
X154351904Y-43662380D02*
X154351904Y-42662380D01*
X154732857Y-42662380D01*
X154828095Y-42710000D01*
X154875714Y-42757619D01*
X154923333Y-42852857D01*
X154923333Y-42995714D01*
X154875714Y-43090952D01*
X154828095Y-43138571D01*
X154732857Y-43186190D01*
X154351904Y-43186190D01*
X155304285Y-42757619D02*
X155351904Y-42710000D01*
X155447142Y-42662380D01*
X155685238Y-42662380D01*
X155780476Y-42710000D01*
X155828095Y-42757619D01*
X155875714Y-42852857D01*
X155875714Y-42948095D01*
X155828095Y-43090952D01*
X155256666Y-43662380D01*
X155875714Y-43662380D01*
X141752380Y-94983333D02*
X142466666Y-94983333D01*
X142609523Y-95030952D01*
X142704761Y-95126190D01*
X142752380Y-95269047D01*
X142752380Y-95364285D01*
X142752380Y-93983333D02*
X142752380Y-94554761D01*
X142752380Y-94269047D02*
X141752380Y-94269047D01*
X141895238Y-94364285D01*
X141990476Y-94459523D01*
X142038095Y-94554761D01*
X158433333Y-85557142D02*
X158385714Y-85604761D01*
X158242857Y-85652380D01*
X158147619Y-85652380D01*
X158004761Y-85604761D01*
X157909523Y-85509523D01*
X157861904Y-85414285D01*
X157814285Y-85223809D01*
X157814285Y-85080952D01*
X157861904Y-84890476D01*
X157909523Y-84795238D01*
X158004761Y-84700000D01*
X158147619Y-84652380D01*
X158242857Y-84652380D01*
X158385714Y-84700000D01*
X158433333Y-84747619D01*
X159004761Y-85080952D02*
X158909523Y-85033333D01*
X158861904Y-84985714D01*
X158814285Y-84890476D01*
X158814285Y-84842857D01*
X158861904Y-84747619D01*
X158909523Y-84700000D01*
X159004761Y-84652380D01*
X159195238Y-84652380D01*
X159290476Y-84700000D01*
X159338095Y-84747619D01*
X159385714Y-84842857D01*
X159385714Y-84890476D01*
X159338095Y-84985714D01*
X159290476Y-85033333D01*
X159195238Y-85080952D01*
X159004761Y-85080952D01*
X158909523Y-85128571D01*
X158861904Y-85176190D01*
X158814285Y-85271428D01*
X158814285Y-85461904D01*
X158861904Y-85557142D01*
X158909523Y-85604761D01*
X159004761Y-85652380D01*
X159195238Y-85652380D01*
X159290476Y-85604761D01*
X159338095Y-85557142D01*
X159385714Y-85461904D01*
X159385714Y-85271428D01*
X159338095Y-85176190D01*
X159290476Y-85128571D01*
X159195238Y-85080952D01*
X158857142Y-74166666D02*
X158904761Y-74214285D01*
X158952380Y-74357142D01*
X158952380Y-74452380D01*
X158904761Y-74595238D01*
X158809523Y-74690476D01*
X158714285Y-74738095D01*
X158523809Y-74785714D01*
X158380952Y-74785714D01*
X158190476Y-74738095D01*
X158095238Y-74690476D01*
X158000000Y-74595238D01*
X157952380Y-74452380D01*
X157952380Y-74357142D01*
X158000000Y-74214285D01*
X158047619Y-74166666D01*
X157952380Y-73833333D02*
X157952380Y-73166666D01*
X158952380Y-73595238D01*
X116052380Y-51133333D02*
X116766666Y-51133333D01*
X116909523Y-51180952D01*
X117004761Y-51276190D01*
X117052380Y-51419047D01*
X117052380Y-51514285D01*
X116147619Y-50704761D02*
X116100000Y-50657142D01*
X116052380Y-50561904D01*
X116052380Y-50323809D01*
X116100000Y-50228571D01*
X116147619Y-50180952D01*
X116242857Y-50133333D01*
X116338095Y-50133333D01*
X116480952Y-50180952D01*
X117052380Y-50752380D01*
X117052380Y-50133333D01*
X142712380Y-101118095D02*
X141712380Y-101118095D01*
X141712380Y-100880000D01*
X141760000Y-100737142D01*
X141855238Y-100641904D01*
X141950476Y-100594285D01*
X142140952Y-100546666D01*
X142283809Y-100546666D01*
X142474285Y-100594285D01*
X142569523Y-100641904D01*
X142664761Y-100737142D01*
X142712380Y-100880000D01*
X142712380Y-101118095D01*
X142712380Y-99594285D02*
X142712380Y-100165714D01*
X142712380Y-99880000D02*
X141712380Y-99880000D01*
X141855238Y-99975238D01*
X141950476Y-100070476D01*
X141998095Y-100165714D01*
X137385714Y-99052380D02*
X136814285Y-99052380D01*
X137100000Y-99052380D02*
X137100000Y-98052380D01*
X137004761Y-98195238D01*
X136909523Y-98290476D01*
X136814285Y-98338095D01*
X164352380Y-85466666D02*
X163876190Y-85800000D01*
X164352380Y-86038095D02*
X163352380Y-86038095D01*
X163352380Y-85657142D01*
X163400000Y-85561904D01*
X163447619Y-85514285D01*
X163542857Y-85466666D01*
X163685714Y-85466666D01*
X163780952Y-85514285D01*
X163828571Y-85561904D01*
X163876190Y-85657142D01*
X163876190Y-86038095D01*
X163352380Y-85133333D02*
X163352380Y-84514285D01*
X163733333Y-84847619D01*
X163733333Y-84704761D01*
X163780952Y-84609523D01*
X163828571Y-84561904D01*
X163923809Y-84514285D01*
X164161904Y-84514285D01*
X164257142Y-84561904D01*
X164304761Y-84609523D01*
X164352380Y-84704761D01*
X164352380Y-84990476D01*
X164304761Y-85085714D01*
X164257142Y-85133333D01*
X125683333Y-60007142D02*
X125635714Y-60054761D01*
X125492857Y-60102380D01*
X125397619Y-60102380D01*
X125254761Y-60054761D01*
X125159523Y-59959523D01*
X125111904Y-59864285D01*
X125064285Y-59673809D01*
X125064285Y-59530952D01*
X125111904Y-59340476D01*
X125159523Y-59245238D01*
X125254761Y-59150000D01*
X125397619Y-59102380D01*
X125492857Y-59102380D01*
X125635714Y-59150000D01*
X125683333Y-59197619D01*
X126016666Y-59102380D02*
X126635714Y-59102380D01*
X126302380Y-59483333D01*
X126445238Y-59483333D01*
X126540476Y-59530952D01*
X126588095Y-59578571D01*
X126635714Y-59673809D01*
X126635714Y-59911904D01*
X126588095Y-60007142D01*
X126540476Y-60054761D01*
X126445238Y-60102380D01*
X126159523Y-60102380D01*
X126064285Y-60054761D01*
X126016666Y-60007142D01*
X116993333Y-80602380D02*
X116660000Y-80126190D01*
X116421904Y-80602380D02*
X116421904Y-79602380D01*
X116802857Y-79602380D01*
X116898095Y-79650000D01*
X116945714Y-79697619D01*
X116993333Y-79792857D01*
X116993333Y-79935714D01*
X116945714Y-80030952D01*
X116898095Y-80078571D01*
X116802857Y-80126190D01*
X116421904Y-80126190D01*
X117850476Y-79602380D02*
X117660000Y-79602380D01*
X117564761Y-79650000D01*
X117517142Y-79697619D01*
X117421904Y-79840476D01*
X117374285Y-80030952D01*
X117374285Y-80411904D01*
X117421904Y-80507142D01*
X117469523Y-80554761D01*
X117564761Y-80602380D01*
X117755238Y-80602380D01*
X117850476Y-80554761D01*
X117898095Y-80507142D01*
X117945714Y-80411904D01*
X117945714Y-80173809D01*
X117898095Y-80078571D01*
X117850476Y-80030952D01*
X117755238Y-79983333D01*
X117564761Y-79983333D01*
X117469523Y-80030952D01*
X117421904Y-80078571D01*
X117374285Y-80173809D01*
X185712380Y-101118095D02*
X184712380Y-101118095D01*
X184712380Y-100880000D01*
X184760000Y-100737142D01*
X184855238Y-100641904D01*
X184950476Y-100594285D01*
X185140952Y-100546666D01*
X185283809Y-100546666D01*
X185474285Y-100594285D01*
X185569523Y-100641904D01*
X185664761Y-100737142D01*
X185712380Y-100880000D01*
X185712380Y-101118095D01*
X185712380Y-99594285D02*
X185712380Y-100165714D01*
X185712380Y-99880000D02*
X184712380Y-99880000D01*
X184855238Y-99975238D01*
X184950476Y-100070476D01*
X184998095Y-100165714D01*
X180385714Y-99052380D02*
X179814285Y-99052380D01*
X180100000Y-99052380D02*
X180100000Y-98052380D01*
X180004761Y-98195238D01*
X179909523Y-98290476D01*
X179814285Y-98338095D01*
X166833333Y-102007142D02*
X166785714Y-102054761D01*
X166642857Y-102102380D01*
X166547619Y-102102380D01*
X166404761Y-102054761D01*
X166309523Y-101959523D01*
X166261904Y-101864285D01*
X166214285Y-101673809D01*
X166214285Y-101530952D01*
X166261904Y-101340476D01*
X166309523Y-101245238D01*
X166404761Y-101150000D01*
X166547619Y-101102380D01*
X166642857Y-101102380D01*
X166785714Y-101150000D01*
X166833333Y-101197619D01*
X167690476Y-101435714D02*
X167690476Y-102102380D01*
X167452380Y-101054761D02*
X167214285Y-101769047D01*
X167833333Y-101769047D01*
X154923333Y-85662380D02*
X154590000Y-85186190D01*
X154351904Y-85662380D02*
X154351904Y-84662380D01*
X154732857Y-84662380D01*
X154828095Y-84710000D01*
X154875714Y-84757619D01*
X154923333Y-84852857D01*
X154923333Y-84995714D01*
X154875714Y-85090952D01*
X154828095Y-85138571D01*
X154732857Y-85186190D01*
X154351904Y-85186190D01*
X155304285Y-84757619D02*
X155351904Y-84710000D01*
X155447142Y-84662380D01*
X155685238Y-84662380D01*
X155780476Y-84710000D01*
X155828095Y-84757619D01*
X155875714Y-84852857D01*
X155875714Y-84948095D01*
X155828095Y-85090952D01*
X155256666Y-85662380D01*
X155875714Y-85662380D01*
X155053333Y-57542380D02*
X154720000Y-57066190D01*
X154481904Y-57542380D02*
X154481904Y-56542380D01*
X154862857Y-56542380D01*
X154958095Y-56590000D01*
X155005714Y-56637619D01*
X155053333Y-56732857D01*
X155053333Y-56875714D01*
X155005714Y-56970952D01*
X154958095Y-57018571D01*
X154862857Y-57066190D01*
X154481904Y-57066190D01*
X156005714Y-57542380D02*
X155434285Y-57542380D01*
X155720000Y-57542380D02*
X155720000Y-56542380D01*
X155624761Y-56685238D01*
X155529523Y-56780476D01*
X155434285Y-56828095D01*
X116933333Y-36682380D02*
X116600000Y-36206190D01*
X116361904Y-36682380D02*
X116361904Y-35682380D01*
X116742857Y-35682380D01*
X116838095Y-35730000D01*
X116885714Y-35777619D01*
X116933333Y-35872857D01*
X116933333Y-36015714D01*
X116885714Y-36110952D01*
X116838095Y-36158571D01*
X116742857Y-36206190D01*
X116361904Y-36206190D01*
X117838095Y-35682380D02*
X117361904Y-35682380D01*
X117314285Y-36158571D01*
X117361904Y-36110952D01*
X117457142Y-36063333D01*
X117695238Y-36063333D01*
X117790476Y-36110952D01*
X117838095Y-36158571D01*
X117885714Y-36253809D01*
X117885714Y-36491904D01*
X117838095Y-36587142D01*
X117790476Y-36634761D01*
X117695238Y-36682380D01*
X117457142Y-36682380D01*
X117361904Y-36634761D01*
X117314285Y-36587142D01*
X117363333Y-59007142D02*
X117315714Y-59054761D01*
X117172857Y-59102380D01*
X117077619Y-59102380D01*
X116934761Y-59054761D01*
X116839523Y-58959523D01*
X116791904Y-58864285D01*
X116744285Y-58673809D01*
X116744285Y-58530952D01*
X116791904Y-58340476D01*
X116839523Y-58245238D01*
X116934761Y-58150000D01*
X117077619Y-58102380D01*
X117172857Y-58102380D01*
X117315714Y-58150000D01*
X117363333Y-58197619D01*
X118315714Y-59102380D02*
X117744285Y-59102380D01*
X118030000Y-59102380D02*
X118030000Y-58102380D01*
X117934761Y-58245238D01*
X117839523Y-58340476D01*
X117744285Y-58388095D01*
X159933333Y-36682380D02*
X159600000Y-36206190D01*
X159361904Y-36682380D02*
X159361904Y-35682380D01*
X159742857Y-35682380D01*
X159838095Y-35730000D01*
X159885714Y-35777619D01*
X159933333Y-35872857D01*
X159933333Y-36015714D01*
X159885714Y-36110952D01*
X159838095Y-36158571D01*
X159742857Y-36206190D01*
X159361904Y-36206190D01*
X160838095Y-35682380D02*
X160361904Y-35682380D01*
X160314285Y-36158571D01*
X160361904Y-36110952D01*
X160457142Y-36063333D01*
X160695238Y-36063333D01*
X160790476Y-36110952D01*
X160838095Y-36158571D01*
X160885714Y-36253809D01*
X160885714Y-36491904D01*
X160838095Y-36587142D01*
X160790476Y-36634761D01*
X160695238Y-36682380D01*
X160457142Y-36682380D01*
X160361904Y-36634761D01*
X160314285Y-36587142D01*
X115473333Y-87102380D02*
X115140000Y-86626190D01*
X114901904Y-87102380D02*
X114901904Y-86102380D01*
X115282857Y-86102380D01*
X115378095Y-86150000D01*
X115425714Y-86197619D01*
X115473333Y-86292857D01*
X115473333Y-86435714D01*
X115425714Y-86530952D01*
X115378095Y-86578571D01*
X115282857Y-86626190D01*
X114901904Y-86626190D01*
X116330476Y-86435714D02*
X116330476Y-87102380D01*
X116092380Y-86054761D02*
X115854285Y-86769047D01*
X116473333Y-86769047D01*
X125683333Y-102007142D02*
X125635714Y-102054761D01*
X125492857Y-102102380D01*
X125397619Y-102102380D01*
X125254761Y-102054761D01*
X125159523Y-101959523D01*
X125111904Y-101864285D01*
X125064285Y-101673809D01*
X125064285Y-101530952D01*
X125111904Y-101340476D01*
X125159523Y-101245238D01*
X125254761Y-101150000D01*
X125397619Y-101102380D01*
X125492857Y-101102380D01*
X125635714Y-101150000D01*
X125683333Y-101197619D01*
X126016666Y-101102380D02*
X126635714Y-101102380D01*
X126302380Y-101483333D01*
X126445238Y-101483333D01*
X126540476Y-101530952D01*
X126588095Y-101578571D01*
X126635714Y-101673809D01*
X126635714Y-101911904D01*
X126588095Y-102007142D01*
X126540476Y-102054761D01*
X126445238Y-102102380D01*
X126159523Y-102102380D01*
X126064285Y-102054761D01*
X126016666Y-102007142D01*
X111923333Y-43662380D02*
X111590000Y-43186190D01*
X111351904Y-43662380D02*
X111351904Y-42662380D01*
X111732857Y-42662380D01*
X111828095Y-42710000D01*
X111875714Y-42757619D01*
X111923333Y-42852857D01*
X111923333Y-42995714D01*
X111875714Y-43090952D01*
X111828095Y-43138571D01*
X111732857Y-43186190D01*
X111351904Y-43186190D01*
X112304285Y-42757619D02*
X112351904Y-42710000D01*
X112447142Y-42662380D01*
X112685238Y-42662380D01*
X112780476Y-42710000D01*
X112828095Y-42757619D01*
X112875714Y-42852857D01*
X112875714Y-42948095D01*
X112828095Y-43090952D01*
X112256666Y-43662380D01*
X112875714Y-43662380D01*
X142712380Y-59118095D02*
X141712380Y-59118095D01*
X141712380Y-58880000D01*
X141760000Y-58737142D01*
X141855238Y-58641904D01*
X141950476Y-58594285D01*
X142140952Y-58546666D01*
X142283809Y-58546666D01*
X142474285Y-58594285D01*
X142569523Y-58641904D01*
X142664761Y-58737142D01*
X142712380Y-58880000D01*
X142712380Y-59118095D01*
X142712380Y-57594285D02*
X142712380Y-58165714D01*
X142712380Y-57880000D02*
X141712380Y-57880000D01*
X141855238Y-57975238D01*
X141950476Y-58070476D01*
X141998095Y-58165714D01*
X137385714Y-57052380D02*
X136814285Y-57052380D01*
X137100000Y-57052380D02*
X137100000Y-56052380D01*
X137004761Y-56195238D01*
X136909523Y-56290476D01*
X136814285Y-56338095D01*
X112053333Y-57542380D02*
X111720000Y-57066190D01*
X111481904Y-57542380D02*
X111481904Y-56542380D01*
X111862857Y-56542380D01*
X111958095Y-56590000D01*
X112005714Y-56637619D01*
X112053333Y-56732857D01*
X112053333Y-56875714D01*
X112005714Y-56970952D01*
X111958095Y-57018571D01*
X111862857Y-57066190D01*
X111481904Y-57066190D01*
X113005714Y-57542380D02*
X112434285Y-57542380D01*
X112720000Y-57542380D02*
X112720000Y-56542380D01*
X112624761Y-56685238D01*
X112529523Y-56780476D01*
X112434285Y-56828095D01*
X111913333Y-40047142D02*
X111865714Y-40094761D01*
X111722857Y-40142380D01*
X111627619Y-40142380D01*
X111484761Y-40094761D01*
X111389523Y-39999523D01*
X111341904Y-39904285D01*
X111294285Y-39713809D01*
X111294285Y-39570952D01*
X111341904Y-39380476D01*
X111389523Y-39285238D01*
X111484761Y-39190000D01*
X111627619Y-39142380D01*
X111722857Y-39142380D01*
X111865714Y-39190000D01*
X111913333Y-39237619D01*
X112818095Y-39142380D02*
X112341904Y-39142380D01*
X112294285Y-39618571D01*
X112341904Y-39570952D01*
X112437142Y-39523333D01*
X112675238Y-39523333D01*
X112770476Y-39570952D01*
X112818095Y-39618571D01*
X112865714Y-39713809D01*
X112865714Y-39951904D01*
X112818095Y-40047142D01*
X112770476Y-40094761D01*
X112675238Y-40142380D01*
X112437142Y-40142380D01*
X112341904Y-40094761D01*
X112294285Y-40047142D01*
X154913333Y-82047142D02*
X154865714Y-82094761D01*
X154722857Y-82142380D01*
X154627619Y-82142380D01*
X154484761Y-82094761D01*
X154389523Y-81999523D01*
X154341904Y-81904285D01*
X154294285Y-81713809D01*
X154294285Y-81570952D01*
X154341904Y-81380476D01*
X154389523Y-81285238D01*
X154484761Y-81190000D01*
X154627619Y-81142380D01*
X154722857Y-81142380D01*
X154865714Y-81190000D01*
X154913333Y-81237619D01*
X155818095Y-81142380D02*
X155341904Y-81142380D01*
X155294285Y-81618571D01*
X155341904Y-81570952D01*
X155437142Y-81523333D01*
X155675238Y-81523333D01*
X155770476Y-81570952D01*
X155818095Y-81618571D01*
X155865714Y-81713809D01*
X155865714Y-81951904D01*
X155818095Y-82047142D01*
X155770476Y-82094761D01*
X155675238Y-82142380D01*
X155437142Y-82142380D01*
X155341904Y-82094761D01*
X155294285Y-82047142D01*
X184752380Y-52983333D02*
X185466666Y-52983333D01*
X185609523Y-53030952D01*
X185704761Y-53126190D01*
X185752380Y-53269047D01*
X185752380Y-53364285D01*
X185752380Y-51983333D02*
X185752380Y-52554761D01*
X185752380Y-52269047D02*
X184752380Y-52269047D01*
X184895238Y-52364285D01*
X184990476Y-52459523D01*
X185038095Y-52554761D01*
X174838095Y-103052380D02*
X174838095Y-103861904D01*
X174885714Y-103957142D01*
X174933333Y-104004761D01*
X175028571Y-104052380D01*
X175219047Y-104052380D01*
X175314285Y-104004761D01*
X175361904Y-103957142D01*
X175409523Y-103861904D01*
X175409523Y-103052380D01*
X175838095Y-103147619D02*
X175885714Y-103100000D01*
X175980952Y-103052380D01*
X176219047Y-103052380D01*
X176314285Y-103100000D01*
X176361904Y-103147619D01*
X176409523Y-103242857D01*
X176409523Y-103338095D01*
X176361904Y-103480952D01*
X175790476Y-104052380D01*
X176409523Y-104052380D01*
X112053333Y-99542380D02*
X111720000Y-99066190D01*
X111481904Y-99542380D02*
X111481904Y-98542380D01*
X111862857Y-98542380D01*
X111958095Y-98590000D01*
X112005714Y-98637619D01*
X112053333Y-98732857D01*
X112053333Y-98875714D01*
X112005714Y-98970952D01*
X111958095Y-99018571D01*
X111862857Y-99066190D01*
X111481904Y-99066190D01*
X113005714Y-99542380D02*
X112434285Y-99542380D01*
X112720000Y-99542380D02*
X112720000Y-98542380D01*
X112624761Y-98685238D01*
X112529523Y-98780476D01*
X112434285Y-98828095D01*
X160363333Y-101007142D02*
X160315714Y-101054761D01*
X160172857Y-101102380D01*
X160077619Y-101102380D01*
X159934761Y-101054761D01*
X159839523Y-100959523D01*
X159791904Y-100864285D01*
X159744285Y-100673809D01*
X159744285Y-100530952D01*
X159791904Y-100340476D01*
X159839523Y-100245238D01*
X159934761Y-100150000D01*
X160077619Y-100102380D01*
X160172857Y-100102380D01*
X160315714Y-100150000D01*
X160363333Y-100197619D01*
X161315714Y-101102380D02*
X160744285Y-101102380D01*
X161030000Y-101102380D02*
X161030000Y-100102380D01*
X160934761Y-100245238D01*
X160839523Y-100340476D01*
X160744285Y-100388095D01*
X123833333Y-60007142D02*
X123785714Y-60054761D01*
X123642857Y-60102380D01*
X123547619Y-60102380D01*
X123404761Y-60054761D01*
X123309523Y-59959523D01*
X123261904Y-59864285D01*
X123214285Y-59673809D01*
X123214285Y-59530952D01*
X123261904Y-59340476D01*
X123309523Y-59245238D01*
X123404761Y-59150000D01*
X123547619Y-59102380D01*
X123642857Y-59102380D01*
X123785714Y-59150000D01*
X123833333Y-59197619D01*
X124690476Y-59435714D02*
X124690476Y-60102380D01*
X124452380Y-59054761D02*
X124214285Y-59769047D01*
X124833333Y-59769047D01*
X160857142Y-74166666D02*
X160904761Y-74214285D01*
X160952380Y-74357142D01*
X160952380Y-74452380D01*
X160904761Y-74595238D01*
X160809523Y-74690476D01*
X160714285Y-74738095D01*
X160523809Y-74785714D01*
X160380952Y-74785714D01*
X160190476Y-74738095D01*
X160095238Y-74690476D01*
X160000000Y-74595238D01*
X159952380Y-74452380D01*
X159952380Y-74357142D01*
X160000000Y-74214285D01*
X160047619Y-74166666D01*
X159952380Y-73309523D02*
X159952380Y-73500000D01*
X160000000Y-73595238D01*
X160047619Y-73642857D01*
X160190476Y-73738095D01*
X160380952Y-73785714D01*
X160761904Y-73785714D01*
X160857142Y-73738095D01*
X160904761Y-73690476D01*
X160952380Y-73595238D01*
X160952380Y-73404761D01*
X160904761Y-73309523D01*
X160857142Y-73261904D01*
X160761904Y-73214285D01*
X160523809Y-73214285D01*
X160428571Y-73261904D01*
X160380952Y-73309523D01*
X160333333Y-73404761D01*
X160333333Y-73595238D01*
X160380952Y-73690476D01*
X160428571Y-73738095D01*
X160523809Y-73785714D01*
X115847619Y-40775238D02*
X115800000Y-40870476D01*
X115704761Y-40965714D01*
X115561904Y-41108571D01*
X115514285Y-41203809D01*
X115514285Y-41299047D01*
X115752380Y-41251428D02*
X115704761Y-41346666D01*
X115609523Y-41441904D01*
X115419047Y-41489523D01*
X115085714Y-41489523D01*
X114895238Y-41441904D01*
X114800000Y-41346666D01*
X114752380Y-41251428D01*
X114752380Y-41060952D01*
X114800000Y-40965714D01*
X114895238Y-40870476D01*
X115085714Y-40822857D01*
X115419047Y-40822857D01*
X115609523Y-40870476D01*
X115704761Y-40965714D01*
X115752380Y-41060952D01*
X115752380Y-41251428D01*
X115752380Y-39870476D02*
X115752380Y-40441904D01*
X115752380Y-40156190D02*
X114752380Y-40156190D01*
X114895238Y-40251428D01*
X114990476Y-40346666D01*
X115038095Y-40441904D01*
X116993333Y-38602380D02*
X116660000Y-38126190D01*
X116421904Y-38602380D02*
X116421904Y-37602380D01*
X116802857Y-37602380D01*
X116898095Y-37650000D01*
X116945714Y-37697619D01*
X116993333Y-37792857D01*
X116993333Y-37935714D01*
X116945714Y-38030952D01*
X116898095Y-38078571D01*
X116802857Y-38126190D01*
X116421904Y-38126190D01*
X117850476Y-37602380D02*
X117660000Y-37602380D01*
X117564761Y-37650000D01*
X117517142Y-37697619D01*
X117421904Y-37840476D01*
X117374285Y-38030952D01*
X117374285Y-38411904D01*
X117421904Y-38507142D01*
X117469523Y-38554761D01*
X117564761Y-38602380D01*
X117755238Y-38602380D01*
X117850476Y-38554761D01*
X117898095Y-38507142D01*
X117945714Y-38411904D01*
X117945714Y-38173809D01*
X117898095Y-38078571D01*
X117850476Y-38030952D01*
X117755238Y-37983333D01*
X117564761Y-37983333D01*
X117469523Y-38030952D01*
X117421904Y-38078571D01*
X117374285Y-38173809D01*
X159993333Y-80602380D02*
X159660000Y-80126190D01*
X159421904Y-80602380D02*
X159421904Y-79602380D01*
X159802857Y-79602380D01*
X159898095Y-79650000D01*
X159945714Y-79697619D01*
X159993333Y-79792857D01*
X159993333Y-79935714D01*
X159945714Y-80030952D01*
X159898095Y-80078571D01*
X159802857Y-80126190D01*
X159421904Y-80126190D01*
X160850476Y-79602380D02*
X160660000Y-79602380D01*
X160564761Y-79650000D01*
X160517142Y-79697619D01*
X160421904Y-79840476D01*
X160374285Y-80030952D01*
X160374285Y-80411904D01*
X160421904Y-80507142D01*
X160469523Y-80554761D01*
X160564761Y-80602380D01*
X160755238Y-80602380D01*
X160850476Y-80554761D01*
X160898095Y-80507142D01*
X160945714Y-80411904D01*
X160945714Y-80173809D01*
X160898095Y-80078571D01*
X160850476Y-80030952D01*
X160755238Y-79983333D01*
X160564761Y-79983333D01*
X160469523Y-80030952D01*
X160421904Y-80078571D01*
X160374285Y-80173809D01*
X168683333Y-102007142D02*
X168635714Y-102054761D01*
X168492857Y-102102380D01*
X168397619Y-102102380D01*
X168254761Y-102054761D01*
X168159523Y-101959523D01*
X168111904Y-101864285D01*
X168064285Y-101673809D01*
X168064285Y-101530952D01*
X168111904Y-101340476D01*
X168159523Y-101245238D01*
X168254761Y-101150000D01*
X168397619Y-101102380D01*
X168492857Y-101102380D01*
X168635714Y-101150000D01*
X168683333Y-101197619D01*
X169016666Y-101102380D02*
X169635714Y-101102380D01*
X169302380Y-101483333D01*
X169445238Y-101483333D01*
X169540476Y-101530952D01*
X169588095Y-101578571D01*
X169635714Y-101673809D01*
X169635714Y-101911904D01*
X169588095Y-102007142D01*
X169540476Y-102054761D01*
X169445238Y-102102380D01*
X169159523Y-102102380D01*
X169064285Y-102054761D01*
X169016666Y-102007142D01*
X131838095Y-103052380D02*
X131838095Y-103861904D01*
X131885714Y-103957142D01*
X131933333Y-104004761D01*
X132028571Y-104052380D01*
X132219047Y-104052380D01*
X132314285Y-104004761D01*
X132361904Y-103957142D01*
X132409523Y-103861904D01*
X132409523Y-103052380D01*
X132838095Y-103147619D02*
X132885714Y-103100000D01*
X132980952Y-103052380D01*
X133219047Y-103052380D01*
X133314285Y-103100000D01*
X133361904Y-103147619D01*
X133409523Y-103242857D01*
X133409523Y-103338095D01*
X133361904Y-103480952D01*
X132790476Y-104052380D01*
X133409523Y-104052380D01*
X158473333Y-45102380D02*
X158140000Y-44626190D01*
X157901904Y-45102380D02*
X157901904Y-44102380D01*
X158282857Y-44102380D01*
X158378095Y-44150000D01*
X158425714Y-44197619D01*
X158473333Y-44292857D01*
X158473333Y-44435714D01*
X158425714Y-44530952D01*
X158378095Y-44578571D01*
X158282857Y-44626190D01*
X157901904Y-44626190D01*
X159330476Y-44435714D02*
X159330476Y-45102380D01*
X159092380Y-44054761D02*
X158854285Y-44769047D01*
X159473333Y-44769047D01*
X164753333Y-98827142D02*
X164705714Y-98874761D01*
X164562857Y-98922380D01*
X164467619Y-98922380D01*
X164324761Y-98874761D01*
X164229523Y-98779523D01*
X164181904Y-98684285D01*
X164134285Y-98493809D01*
X164134285Y-98350952D01*
X164181904Y-98160476D01*
X164229523Y-98065238D01*
X164324761Y-97970000D01*
X164467619Y-97922380D01*
X164562857Y-97922380D01*
X164705714Y-97970000D01*
X164753333Y-98017619D01*
X165134285Y-98017619D02*
X165181904Y-97970000D01*
X165277142Y-97922380D01*
X165515238Y-97922380D01*
X165610476Y-97970000D01*
X165658095Y-98017619D01*
X165705714Y-98112857D01*
X165705714Y-98208095D01*
X165658095Y-98350952D01*
X165086666Y-98922380D01*
X165705714Y-98922380D01*
X111923333Y-85662380D02*
X111590000Y-85186190D01*
X111351904Y-85662380D02*
X111351904Y-84662380D01*
X111732857Y-84662380D01*
X111828095Y-84710000D01*
X111875714Y-84757619D01*
X111923333Y-84852857D01*
X111923333Y-84995714D01*
X111875714Y-85090952D01*
X111828095Y-85138571D01*
X111732857Y-85186190D01*
X111351904Y-85186190D01*
X112304285Y-84757619D02*
X112351904Y-84710000D01*
X112447142Y-84662380D01*
X112685238Y-84662380D01*
X112780476Y-84710000D01*
X112828095Y-84757619D01*
X112875714Y-84852857D01*
X112875714Y-84948095D01*
X112828095Y-85090952D01*
X112256666Y-85662380D01*
X112875714Y-85662380D01*
X158857142Y-32166666D02*
X158904761Y-32214285D01*
X158952380Y-32357142D01*
X158952380Y-32452380D01*
X158904761Y-32595238D01*
X158809523Y-32690476D01*
X158714285Y-32738095D01*
X158523809Y-32785714D01*
X158380952Y-32785714D01*
X158190476Y-32738095D01*
X158095238Y-32690476D01*
X158000000Y-32595238D01*
X157952380Y-32452380D01*
X157952380Y-32357142D01*
X158000000Y-32214285D01*
X158047619Y-32166666D01*
X157952380Y-31833333D02*
X157952380Y-31166666D01*
X158952380Y-31595238D01*
X123833333Y-102007142D02*
X123785714Y-102054761D01*
X123642857Y-102102380D01*
X123547619Y-102102380D01*
X123404761Y-102054761D01*
X123309523Y-101959523D01*
X123261904Y-101864285D01*
X123214285Y-101673809D01*
X123214285Y-101530952D01*
X123261904Y-101340476D01*
X123309523Y-101245238D01*
X123404761Y-101150000D01*
X123547619Y-101102380D01*
X123642857Y-101102380D01*
X123785714Y-101150000D01*
X123833333Y-101197619D01*
X124690476Y-101435714D02*
X124690476Y-102102380D01*
X124452380Y-101054761D02*
X124214285Y-101769047D01*
X124833333Y-101769047D01*
X116933333Y-78682380D02*
X116600000Y-78206190D01*
X116361904Y-78682380D02*
X116361904Y-77682380D01*
X116742857Y-77682380D01*
X116838095Y-77730000D01*
X116885714Y-77777619D01*
X116933333Y-77872857D01*
X116933333Y-78015714D01*
X116885714Y-78110952D01*
X116838095Y-78158571D01*
X116742857Y-78206190D01*
X116361904Y-78206190D01*
X117838095Y-77682380D02*
X117361904Y-77682380D01*
X117314285Y-78158571D01*
X117361904Y-78110952D01*
X117457142Y-78063333D01*
X117695238Y-78063333D01*
X117790476Y-78110952D01*
X117838095Y-78158571D01*
X117885714Y-78253809D01*
X117885714Y-78491904D01*
X117838095Y-78587142D01*
X117790476Y-78634761D01*
X117695238Y-78682380D01*
X117457142Y-78682380D01*
X117361904Y-78634761D01*
X117314285Y-78587142D01*
X160857142Y-32166666D02*
X160904761Y-32214285D01*
X160952380Y-32357142D01*
X160952380Y-32452380D01*
X160904761Y-32595238D01*
X160809523Y-32690476D01*
X160714285Y-32738095D01*
X160523809Y-32785714D01*
X160380952Y-32785714D01*
X160190476Y-32738095D01*
X160095238Y-32690476D01*
X160000000Y-32595238D01*
X159952380Y-32452380D01*
X159952380Y-32357142D01*
X160000000Y-32214285D01*
X160047619Y-32166666D01*
X159952380Y-31309523D02*
X159952380Y-31500000D01*
X160000000Y-31595238D01*
X160047619Y-31642857D01*
X160190476Y-31738095D01*
X160380952Y-31785714D01*
X160761904Y-31785714D01*
X160857142Y-31738095D01*
X160904761Y-31690476D01*
X160952380Y-31595238D01*
X160952380Y-31404761D01*
X160904761Y-31309523D01*
X160857142Y-31261904D01*
X160761904Y-31214285D01*
X160523809Y-31214285D01*
X160428571Y-31261904D01*
X160380952Y-31309523D01*
X160333333Y-31404761D01*
X160333333Y-31595238D01*
X160380952Y-31690476D01*
X160428571Y-31738095D01*
X160523809Y-31785714D01*
X115473333Y-45102380D02*
X115140000Y-44626190D01*
X114901904Y-45102380D02*
X114901904Y-44102380D01*
X115282857Y-44102380D01*
X115378095Y-44150000D01*
X115425714Y-44197619D01*
X115473333Y-44292857D01*
X115473333Y-44435714D01*
X115425714Y-44530952D01*
X115378095Y-44578571D01*
X115282857Y-44626190D01*
X114901904Y-44626190D01*
X116330476Y-44435714D02*
X116330476Y-45102380D01*
X116092380Y-44054761D02*
X115854285Y-44769047D01*
X116473333Y-44769047D01*
X173703095Y-23377380D02*
X173703095Y-24186904D01*
X173750714Y-24282142D01*
X173798333Y-24329761D01*
X173893571Y-24377380D01*
X174084047Y-24377380D01*
X174179285Y-24329761D01*
X174226904Y-24282142D01*
X174274523Y-24186904D01*
X174274523Y-23377380D01*
X175274523Y-24377380D02*
X174703095Y-24377380D01*
X174988809Y-24377380D02*
X174988809Y-23377380D01*
X174893571Y-23520238D01*
X174798333Y-23615476D01*
X174703095Y-23663095D01*
X169703095Y-28391666D02*
X170179285Y-28391666D01*
X169607857Y-28677380D02*
X169941190Y-27677380D01*
X170274523Y-28677380D01*
X170607857Y-28010714D02*
X170607857Y-28677380D01*
X170607857Y-28105952D02*
X170655476Y-28058333D01*
X170750714Y-28010714D01*
X170893571Y-28010714D01*
X170988809Y-28058333D01*
X171036428Y-28153571D01*
X171036428Y-28677380D01*
X171369761Y-28010714D02*
X171750714Y-28010714D01*
X171512619Y-27677380D02*
X171512619Y-28534523D01*
X171560238Y-28629761D01*
X171655476Y-28677380D01*
X171750714Y-28677380D01*
X172465000Y-28629761D02*
X172369761Y-28677380D01*
X172179285Y-28677380D01*
X172084047Y-28629761D01*
X172036428Y-28534523D01*
X172036428Y-28153571D01*
X172084047Y-28058333D01*
X172179285Y-28010714D01*
X172369761Y-28010714D01*
X172465000Y-28058333D01*
X172512619Y-28153571D01*
X172512619Y-28248809D01*
X172036428Y-28344047D01*
X172941190Y-28010714D02*
X172941190Y-28677380D01*
X172941190Y-28105952D02*
X172988809Y-28058333D01*
X173084047Y-28010714D01*
X173226904Y-28010714D01*
X173322142Y-28058333D01*
X173369761Y-28153571D01*
X173369761Y-28677380D01*
X173845952Y-28010714D02*
X173845952Y-28677380D01*
X173845952Y-28105952D02*
X173893571Y-28058333D01*
X173988809Y-28010714D01*
X174131666Y-28010714D01*
X174226904Y-28058333D01*
X174274523Y-28153571D01*
X174274523Y-28677380D01*
X175179285Y-28677380D02*
X175179285Y-28153571D01*
X175131666Y-28058333D01*
X175036428Y-28010714D01*
X174845952Y-28010714D01*
X174750714Y-28058333D01*
X175179285Y-28629761D02*
X175084047Y-28677380D01*
X174845952Y-28677380D01*
X174750714Y-28629761D01*
X174703095Y-28534523D01*
X174703095Y-28439285D01*
X174750714Y-28344047D01*
X174845952Y-28296428D01*
X175084047Y-28296428D01*
X175179285Y-28248809D01*
X176369761Y-28391666D02*
X176845952Y-28391666D01*
X176274523Y-28677380D02*
X176607857Y-27677380D01*
X176941190Y-28677380D01*
X177274523Y-28677380D02*
X177274523Y-28010714D01*
X177274523Y-28201190D02*
X177322142Y-28105952D01*
X177369761Y-28058333D01*
X177465000Y-28010714D01*
X177560238Y-28010714D01*
X178274523Y-28629761D02*
X178179285Y-28677380D01*
X177988809Y-28677380D01*
X177893571Y-28629761D01*
X177845952Y-28534523D01*
X177845952Y-28153571D01*
X177893571Y-28058333D01*
X177988809Y-28010714D01*
X178179285Y-28010714D01*
X178274523Y-28058333D01*
X178322142Y-28153571D01*
X178322142Y-28248809D01*
X177845952Y-28344047D01*
X179179285Y-28677380D02*
X179179285Y-28153571D01*
X179131666Y-28058333D01*
X179036428Y-28010714D01*
X178845952Y-28010714D01*
X178750714Y-28058333D01*
X179179285Y-28629761D02*
X179084047Y-28677380D01*
X178845952Y-28677380D01*
X178750714Y-28629761D01*
X178703095Y-28534523D01*
X178703095Y-28439285D01*
X178750714Y-28344047D01*
X178845952Y-28296428D01*
X179084047Y-28296428D01*
X179179285Y-28248809D01*
X115433333Y-43557142D02*
X115385714Y-43604761D01*
X115242857Y-43652380D01*
X115147619Y-43652380D01*
X115004761Y-43604761D01*
X114909523Y-43509523D01*
X114861904Y-43414285D01*
X114814285Y-43223809D01*
X114814285Y-43080952D01*
X114861904Y-42890476D01*
X114909523Y-42795238D01*
X115004761Y-42700000D01*
X115147619Y-42652380D01*
X115242857Y-42652380D01*
X115385714Y-42700000D01*
X115433333Y-42747619D01*
X116004761Y-43080952D02*
X115909523Y-43033333D01*
X115861904Y-42985714D01*
X115814285Y-42890476D01*
X115814285Y-42842857D01*
X115861904Y-42747619D01*
X115909523Y-42700000D01*
X116004761Y-42652380D01*
X116195238Y-42652380D01*
X116290476Y-42700000D01*
X116338095Y-42747619D01*
X116385714Y-42842857D01*
X116385714Y-42890476D01*
X116338095Y-42985714D01*
X116290476Y-43033333D01*
X116195238Y-43080952D01*
X116004761Y-43080952D01*
X115909523Y-43128571D01*
X115861904Y-43176190D01*
X115814285Y-43271428D01*
X115814285Y-43461904D01*
X115861904Y-43557142D01*
X115909523Y-43604761D01*
X116004761Y-43652380D01*
X116195238Y-43652380D01*
X116290476Y-43604761D01*
X116338095Y-43557142D01*
X116385714Y-43461904D01*
X116385714Y-43271428D01*
X116338095Y-43176190D01*
X116290476Y-43128571D01*
X116195238Y-43080952D01*
X158433333Y-43557142D02*
X158385714Y-43604761D01*
X158242857Y-43652380D01*
X158147619Y-43652380D01*
X158004761Y-43604761D01*
X157909523Y-43509523D01*
X157861904Y-43414285D01*
X157814285Y-43223809D01*
X157814285Y-43080952D01*
X157861904Y-42890476D01*
X157909523Y-42795238D01*
X158004761Y-42700000D01*
X158147619Y-42652380D01*
X158242857Y-42652380D01*
X158385714Y-42700000D01*
X158433333Y-42747619D01*
X159004761Y-43080952D02*
X158909523Y-43033333D01*
X158861904Y-42985714D01*
X158814285Y-42890476D01*
X158814285Y-42842857D01*
X158861904Y-42747619D01*
X158909523Y-42700000D01*
X159004761Y-42652380D01*
X159195238Y-42652380D01*
X159290476Y-42700000D01*
X159338095Y-42747619D01*
X159385714Y-42842857D01*
X159385714Y-42890476D01*
X159338095Y-42985714D01*
X159290476Y-43033333D01*
X159195238Y-43080952D01*
X159004761Y-43080952D01*
X158909523Y-43128571D01*
X158861904Y-43176190D01*
X158814285Y-43271428D01*
X158814285Y-43461904D01*
X158861904Y-43557142D01*
X158909523Y-43604761D01*
X159004761Y-43652380D01*
X159195238Y-43652380D01*
X159290476Y-43604761D01*
X159338095Y-43557142D01*
X159385714Y-43461904D01*
X159385714Y-43271428D01*
X159338095Y-43176190D01*
X159290476Y-43128571D01*
X159195238Y-43080952D01*
X173703095Y-65377380D02*
X173703095Y-66186904D01*
X173750714Y-66282142D01*
X173798333Y-66329761D01*
X173893571Y-66377380D01*
X174084047Y-66377380D01*
X174179285Y-66329761D01*
X174226904Y-66282142D01*
X174274523Y-66186904D01*
X174274523Y-65377380D01*
X175274523Y-66377380D02*
X174703095Y-66377380D01*
X174988809Y-66377380D02*
X174988809Y-65377380D01*
X174893571Y-65520238D01*
X174798333Y-65615476D01*
X174703095Y-65663095D01*
X169703095Y-70391666D02*
X170179285Y-70391666D01*
X169607857Y-70677380D02*
X169941190Y-69677380D01*
X170274523Y-70677380D01*
X170607857Y-70010714D02*
X170607857Y-70677380D01*
X170607857Y-70105952D02*
X170655476Y-70058333D01*
X170750714Y-70010714D01*
X170893571Y-70010714D01*
X170988809Y-70058333D01*
X171036428Y-70153571D01*
X171036428Y-70677380D01*
X171369761Y-70010714D02*
X171750714Y-70010714D01*
X171512619Y-69677380D02*
X171512619Y-70534523D01*
X171560238Y-70629761D01*
X171655476Y-70677380D01*
X171750714Y-70677380D01*
X172465000Y-70629761D02*
X172369761Y-70677380D01*
X172179285Y-70677380D01*
X172084047Y-70629761D01*
X172036428Y-70534523D01*
X172036428Y-70153571D01*
X172084047Y-70058333D01*
X172179285Y-70010714D01*
X172369761Y-70010714D01*
X172465000Y-70058333D01*
X172512619Y-70153571D01*
X172512619Y-70248809D01*
X172036428Y-70344047D01*
X172941190Y-70010714D02*
X172941190Y-70677380D01*
X172941190Y-70105952D02*
X172988809Y-70058333D01*
X173084047Y-70010714D01*
X173226904Y-70010714D01*
X173322142Y-70058333D01*
X173369761Y-70153571D01*
X173369761Y-70677380D01*
X173845952Y-70010714D02*
X173845952Y-70677380D01*
X173845952Y-70105952D02*
X173893571Y-70058333D01*
X173988809Y-70010714D01*
X174131666Y-70010714D01*
X174226904Y-70058333D01*
X174274523Y-70153571D01*
X174274523Y-70677380D01*
X175179285Y-70677380D02*
X175179285Y-70153571D01*
X175131666Y-70058333D01*
X175036428Y-70010714D01*
X174845952Y-70010714D01*
X174750714Y-70058333D01*
X175179285Y-70629761D02*
X175084047Y-70677380D01*
X174845952Y-70677380D01*
X174750714Y-70629761D01*
X174703095Y-70534523D01*
X174703095Y-70439285D01*
X174750714Y-70344047D01*
X174845952Y-70296428D01*
X175084047Y-70296428D01*
X175179285Y-70248809D01*
X176369761Y-70391666D02*
X176845952Y-70391666D01*
X176274523Y-70677380D02*
X176607857Y-69677380D01*
X176941190Y-70677380D01*
X177274523Y-70677380D02*
X177274523Y-70010714D01*
X177274523Y-70201190D02*
X177322142Y-70105952D01*
X177369761Y-70058333D01*
X177465000Y-70010714D01*
X177560238Y-70010714D01*
X178274523Y-70629761D02*
X178179285Y-70677380D01*
X177988809Y-70677380D01*
X177893571Y-70629761D01*
X177845952Y-70534523D01*
X177845952Y-70153571D01*
X177893571Y-70058333D01*
X177988809Y-70010714D01*
X178179285Y-70010714D01*
X178274523Y-70058333D01*
X178322142Y-70153571D01*
X178322142Y-70248809D01*
X177845952Y-70344047D01*
X179179285Y-70677380D02*
X179179285Y-70153571D01*
X179131666Y-70058333D01*
X179036428Y-70010714D01*
X178845952Y-70010714D01*
X178750714Y-70058333D01*
X179179285Y-70629761D02*
X179084047Y-70677380D01*
X178845952Y-70677380D01*
X178750714Y-70629761D01*
X178703095Y-70534523D01*
X178703095Y-70439285D01*
X178750714Y-70344047D01*
X178845952Y-70296428D01*
X179084047Y-70296428D01*
X179179285Y-70248809D01*
X121352380Y-85466666D02*
X120876190Y-85800000D01*
X121352380Y-86038095D02*
X120352380Y-86038095D01*
X120352380Y-85657142D01*
X120400000Y-85561904D01*
X120447619Y-85514285D01*
X120542857Y-85466666D01*
X120685714Y-85466666D01*
X120780952Y-85514285D01*
X120828571Y-85561904D01*
X120876190Y-85657142D01*
X120876190Y-86038095D01*
X120352380Y-85133333D02*
X120352380Y-84514285D01*
X120733333Y-84847619D01*
X120733333Y-84704761D01*
X120780952Y-84609523D01*
X120828571Y-84561904D01*
X120923809Y-84514285D01*
X121161904Y-84514285D01*
X121257142Y-84561904D01*
X121304761Y-84609523D01*
X121352380Y-84704761D01*
X121352380Y-84990476D01*
X121304761Y-85085714D01*
X121257142Y-85133333D01*
X158473333Y-87102380D02*
X158140000Y-86626190D01*
X157901904Y-87102380D02*
X157901904Y-86102380D01*
X158282857Y-86102380D01*
X158378095Y-86150000D01*
X158425714Y-86197619D01*
X158473333Y-86292857D01*
X158473333Y-86435714D01*
X158425714Y-86530952D01*
X158378095Y-86578571D01*
X158282857Y-86626190D01*
X157901904Y-86626190D01*
X159330476Y-86435714D02*
X159330476Y-87102380D01*
X159092380Y-86054761D02*
X158854285Y-86769047D01*
X159473333Y-86769047D01*
X154913333Y-40047142D02*
X154865714Y-40094761D01*
X154722857Y-40142380D01*
X154627619Y-40142380D01*
X154484761Y-40094761D01*
X154389523Y-39999523D01*
X154341904Y-39904285D01*
X154294285Y-39713809D01*
X154294285Y-39570952D01*
X154341904Y-39380476D01*
X154389523Y-39285238D01*
X154484761Y-39190000D01*
X154627619Y-39142380D01*
X154722857Y-39142380D01*
X154865714Y-39190000D01*
X154913333Y-39237619D01*
X155818095Y-39142380D02*
X155341904Y-39142380D01*
X155294285Y-39618571D01*
X155341904Y-39570952D01*
X155437142Y-39523333D01*
X155675238Y-39523333D01*
X155770476Y-39570952D01*
X155818095Y-39618571D01*
X155865714Y-39713809D01*
X155865714Y-39951904D01*
X155818095Y-40047142D01*
X155770476Y-40094761D01*
X155675238Y-40142380D01*
X155437142Y-40142380D01*
X155341904Y-40094761D01*
X155294285Y-40047142D01*
X184752380Y-94983333D02*
X185466666Y-94983333D01*
X185609523Y-95030952D01*
X185704761Y-95126190D01*
X185752380Y-95269047D01*
X185752380Y-95364285D01*
X185752380Y-93983333D02*
X185752380Y-94554761D01*
X185752380Y-94269047D02*
X184752380Y-94269047D01*
X184895238Y-94364285D01*
X184990476Y-94459523D01*
X185038095Y-94554761D01*
X155053333Y-99542380D02*
X154720000Y-99066190D01*
X154481904Y-99542380D02*
X154481904Y-98542380D01*
X154862857Y-98542380D01*
X154958095Y-98590000D01*
X155005714Y-98637619D01*
X155053333Y-98732857D01*
X155053333Y-98875714D01*
X155005714Y-98970952D01*
X154958095Y-99018571D01*
X154862857Y-99066190D01*
X154481904Y-99066190D01*
X156005714Y-99542380D02*
X155434285Y-99542380D01*
X155720000Y-99542380D02*
X155720000Y-98542380D01*
X155624761Y-98685238D01*
X155529523Y-98780476D01*
X155434285Y-98828095D01*
X115433333Y-85557142D02*
X115385714Y-85604761D01*
X115242857Y-85652380D01*
X115147619Y-85652380D01*
X115004761Y-85604761D01*
X114909523Y-85509523D01*
X114861904Y-85414285D01*
X114814285Y-85223809D01*
X114814285Y-85080952D01*
X114861904Y-84890476D01*
X114909523Y-84795238D01*
X115004761Y-84700000D01*
X115147619Y-84652380D01*
X115242857Y-84652380D01*
X115385714Y-84700000D01*
X115433333Y-84747619D01*
X116004761Y-85080952D02*
X115909523Y-85033333D01*
X115861904Y-84985714D01*
X115814285Y-84890476D01*
X115814285Y-84842857D01*
X115861904Y-84747619D01*
X115909523Y-84700000D01*
X116004761Y-84652380D01*
X116195238Y-84652380D01*
X116290476Y-84700000D01*
X116338095Y-84747619D01*
X116385714Y-84842857D01*
X116385714Y-84890476D01*
X116338095Y-84985714D01*
X116290476Y-85033333D01*
X116195238Y-85080952D01*
X116004761Y-85080952D01*
X115909523Y-85128571D01*
X115861904Y-85176190D01*
X115814285Y-85271428D01*
X115814285Y-85461904D01*
X115861904Y-85557142D01*
X115909523Y-85604761D01*
X116004761Y-85652380D01*
X116195238Y-85652380D01*
X116290476Y-85604761D01*
X116338095Y-85557142D01*
X116385714Y-85461904D01*
X116385714Y-85271428D01*
X116338095Y-85176190D01*
X116290476Y-85128571D01*
X116195238Y-85080952D01*
X117857142Y-74166666D02*
X117904761Y-74214285D01*
X117952380Y-74357142D01*
X117952380Y-74452380D01*
X117904761Y-74595238D01*
X117809523Y-74690476D01*
X117714285Y-74738095D01*
X117523809Y-74785714D01*
X117380952Y-74785714D01*
X117190476Y-74738095D01*
X117095238Y-74690476D01*
X117000000Y-74595238D01*
X116952380Y-74452380D01*
X116952380Y-74357142D01*
X117000000Y-74214285D01*
X117047619Y-74166666D01*
X116952380Y-73309523D02*
X116952380Y-73500000D01*
X117000000Y-73595238D01*
X117047619Y-73642857D01*
X117190476Y-73738095D01*
X117380952Y-73785714D01*
X117761904Y-73785714D01*
X117857142Y-73738095D01*
X117904761Y-73690476D01*
X117952380Y-73595238D01*
X117952380Y-73404761D01*
X117904761Y-73309523D01*
X117857142Y-73261904D01*
X117761904Y-73214285D01*
X117523809Y-73214285D01*
X117428571Y-73261904D01*
X117380952Y-73309523D01*
X117333333Y-73404761D01*
X117333333Y-73595238D01*
X117380952Y-73690476D01*
X117428571Y-73738095D01*
X117523809Y-73785714D01*
X130703095Y-23377380D02*
X130703095Y-24186904D01*
X130750714Y-24282142D01*
X130798333Y-24329761D01*
X130893571Y-24377380D01*
X131084047Y-24377380D01*
X131179285Y-24329761D01*
X131226904Y-24282142D01*
X131274523Y-24186904D01*
X131274523Y-23377380D01*
X132274523Y-24377380D02*
X131703095Y-24377380D01*
X131988809Y-24377380D02*
X131988809Y-23377380D01*
X131893571Y-23520238D01*
X131798333Y-23615476D01*
X131703095Y-23663095D01*
X126703095Y-28391666D02*
X127179285Y-28391666D01*
X126607857Y-28677380D02*
X126941190Y-27677380D01*
X127274523Y-28677380D01*
X127607857Y-28010714D02*
X127607857Y-28677380D01*
X127607857Y-28105952D02*
X127655476Y-28058333D01*
X127750714Y-28010714D01*
X127893571Y-28010714D01*
X127988809Y-28058333D01*
X128036428Y-28153571D01*
X128036428Y-28677380D01*
X128369761Y-28010714D02*
X128750714Y-28010714D01*
X128512619Y-27677380D02*
X128512619Y-28534523D01*
X128560238Y-28629761D01*
X128655476Y-28677380D01*
X128750714Y-28677380D01*
X129465000Y-28629761D02*
X129369761Y-28677380D01*
X129179285Y-28677380D01*
X129084047Y-28629761D01*
X129036428Y-28534523D01*
X129036428Y-28153571D01*
X129084047Y-28058333D01*
X129179285Y-28010714D01*
X129369761Y-28010714D01*
X129465000Y-28058333D01*
X129512619Y-28153571D01*
X129512619Y-28248809D01*
X129036428Y-28344047D01*
X129941190Y-28010714D02*
X129941190Y-28677380D01*
X129941190Y-28105952D02*
X129988809Y-28058333D01*
X130084047Y-28010714D01*
X130226904Y-28010714D01*
X130322142Y-28058333D01*
X130369761Y-28153571D01*
X130369761Y-28677380D01*
X130845952Y-28010714D02*
X130845952Y-28677380D01*
X130845952Y-28105952D02*
X130893571Y-28058333D01*
X130988809Y-28010714D01*
X131131666Y-28010714D01*
X131226904Y-28058333D01*
X131274523Y-28153571D01*
X131274523Y-28677380D01*
X132179285Y-28677380D02*
X132179285Y-28153571D01*
X132131666Y-28058333D01*
X132036428Y-28010714D01*
X131845952Y-28010714D01*
X131750714Y-28058333D01*
X132179285Y-28629761D02*
X132084047Y-28677380D01*
X131845952Y-28677380D01*
X131750714Y-28629761D01*
X131703095Y-28534523D01*
X131703095Y-28439285D01*
X131750714Y-28344047D01*
X131845952Y-28296428D01*
X132084047Y-28296428D01*
X132179285Y-28248809D01*
X133369761Y-28391666D02*
X133845952Y-28391666D01*
X133274523Y-28677380D02*
X133607857Y-27677380D01*
X133941190Y-28677380D01*
X134274523Y-28677380D02*
X134274523Y-28010714D01*
X134274523Y-28201190D02*
X134322142Y-28105952D01*
X134369761Y-28058333D01*
X134465000Y-28010714D01*
X134560238Y-28010714D01*
X135274523Y-28629761D02*
X135179285Y-28677380D01*
X134988809Y-28677380D01*
X134893571Y-28629761D01*
X134845952Y-28534523D01*
X134845952Y-28153571D01*
X134893571Y-28058333D01*
X134988809Y-28010714D01*
X135179285Y-28010714D01*
X135274523Y-28058333D01*
X135322142Y-28153571D01*
X135322142Y-28248809D01*
X134845952Y-28344047D01*
X136179285Y-28677380D02*
X136179285Y-28153571D01*
X136131666Y-28058333D01*
X136036428Y-28010714D01*
X135845952Y-28010714D01*
X135750714Y-28058333D01*
X136179285Y-28629761D02*
X136084047Y-28677380D01*
X135845952Y-28677380D01*
X135750714Y-28629761D01*
X135703095Y-28534523D01*
X135703095Y-28439285D01*
X135750714Y-28344047D01*
X135845952Y-28296428D01*
X136084047Y-28296428D01*
X136179285Y-28248809D01*
X159052380Y-51133333D02*
X159766666Y-51133333D01*
X159909523Y-51180952D01*
X160004761Y-51276190D01*
X160052380Y-51419047D01*
X160052380Y-51514285D01*
X159147619Y-50704761D02*
X159100000Y-50657142D01*
X159052380Y-50561904D01*
X159052380Y-50323809D01*
X159100000Y-50228571D01*
X159147619Y-50180952D01*
X159242857Y-50133333D01*
X159338095Y-50133333D01*
X159480952Y-50180952D01*
X160052380Y-50752380D01*
X160052380Y-50133333D01*
X131838095Y-61052380D02*
X131838095Y-61861904D01*
X131885714Y-61957142D01*
X131933333Y-62004761D01*
X132028571Y-62052380D01*
X132219047Y-62052380D01*
X132314285Y-62004761D01*
X132361904Y-61957142D01*
X132409523Y-61861904D01*
X132409523Y-61052380D01*
X132838095Y-61147619D02*
X132885714Y-61100000D01*
X132980952Y-61052380D01*
X133219047Y-61052380D01*
X133314285Y-61100000D01*
X133361904Y-61147619D01*
X133409523Y-61242857D01*
X133409523Y-61338095D01*
X133361904Y-61480952D01*
X132790476Y-62052380D01*
X133409523Y-62052380D01*
X121352380Y-43466666D02*
X120876190Y-43800000D01*
X121352380Y-44038095D02*
X120352380Y-44038095D01*
X120352380Y-43657142D01*
X120400000Y-43561904D01*
X120447619Y-43514285D01*
X120542857Y-43466666D01*
X120685714Y-43466666D01*
X120780952Y-43514285D01*
X120828571Y-43561904D01*
X120876190Y-43657142D01*
X120876190Y-44038095D01*
X120352380Y-43133333D02*
X120352380Y-42514285D01*
X120733333Y-42847619D01*
X120733333Y-42704761D01*
X120780952Y-42609523D01*
X120828571Y-42561904D01*
X120923809Y-42514285D01*
X121161904Y-42514285D01*
X121257142Y-42561904D01*
X121304761Y-42609523D01*
X121352380Y-42704761D01*
X121352380Y-42990476D01*
X121304761Y-43085714D01*
X121257142Y-43133333D01*
X137041666Y-41162380D02*
X137041666Y-41876666D01*
X136994047Y-42019523D01*
X136898809Y-42114761D01*
X136755952Y-42162380D01*
X136660714Y-42162380D01*
X137422619Y-41162380D02*
X138041666Y-41162380D01*
X137708333Y-41543333D01*
X137851190Y-41543333D01*
X137946428Y-41590952D01*
X137994047Y-41638571D01*
X138041666Y-41733809D01*
X138041666Y-41971904D01*
X137994047Y-42067142D01*
X137946428Y-42114761D01*
X137851190Y-42162380D01*
X137565476Y-42162380D01*
X137470238Y-42114761D01*
X137422619Y-42067142D01*
X166833333Y-60007142D02*
X166785714Y-60054761D01*
X166642857Y-60102380D01*
X166547619Y-60102380D01*
X166404761Y-60054761D01*
X166309523Y-59959523D01*
X166261904Y-59864285D01*
X166214285Y-59673809D01*
X166214285Y-59530952D01*
X166261904Y-59340476D01*
X166309523Y-59245238D01*
X166404761Y-59150000D01*
X166547619Y-59102380D01*
X166642857Y-59102380D01*
X166785714Y-59150000D01*
X166833333Y-59197619D01*
X167690476Y-59435714D02*
X167690476Y-60102380D01*
X167452380Y-59054761D02*
X167214285Y-59769047D01*
X167833333Y-59769047D01*
X116052380Y-93133333D02*
X116766666Y-93133333D01*
X116909523Y-93180952D01*
X117004761Y-93276190D01*
X117052380Y-93419047D01*
X117052380Y-93514285D01*
X116147619Y-92704761D02*
X116100000Y-92657142D01*
X116052380Y-92561904D01*
X116052380Y-92323809D01*
X116100000Y-92228571D01*
X116147619Y-92180952D01*
X116242857Y-92133333D01*
X116338095Y-92133333D01*
X116480952Y-92180952D01*
X117052380Y-92752380D01*
X117052380Y-92133333D01*
X185712380Y-59118095D02*
X184712380Y-59118095D01*
X184712380Y-58880000D01*
X184760000Y-58737142D01*
X184855238Y-58641904D01*
X184950476Y-58594285D01*
X185140952Y-58546666D01*
X185283809Y-58546666D01*
X185474285Y-58594285D01*
X185569523Y-58641904D01*
X185664761Y-58737142D01*
X185712380Y-58880000D01*
X185712380Y-59118095D01*
X185712380Y-57594285D02*
X185712380Y-58165714D01*
X185712380Y-57880000D02*
X184712380Y-57880000D01*
X184855238Y-57975238D01*
X184950476Y-58070476D01*
X184998095Y-58165714D01*
X180385714Y-57052380D02*
X179814285Y-57052380D01*
X180100000Y-57052380D02*
X180100000Y-56052380D01*
X180004761Y-56195238D01*
X179909523Y-56290476D01*
X179814285Y-56338095D01*
X111913333Y-82047142D02*
X111865714Y-82094761D01*
X111722857Y-82142380D01*
X111627619Y-82142380D01*
X111484761Y-82094761D01*
X111389523Y-81999523D01*
X111341904Y-81904285D01*
X111294285Y-81713809D01*
X111294285Y-81570952D01*
X111341904Y-81380476D01*
X111389523Y-81285238D01*
X111484761Y-81190000D01*
X111627619Y-81142380D01*
X111722857Y-81142380D01*
X111865714Y-81190000D01*
X111913333Y-81237619D01*
X112818095Y-81142380D02*
X112341904Y-81142380D01*
X112294285Y-81618571D01*
X112341904Y-81570952D01*
X112437142Y-81523333D01*
X112675238Y-81523333D01*
X112770476Y-81570952D01*
X112818095Y-81618571D01*
X112865714Y-81713809D01*
X112865714Y-81951904D01*
X112818095Y-82047142D01*
X112770476Y-82094761D01*
X112675238Y-82142380D01*
X112437142Y-82142380D01*
X112341904Y-82094761D01*
X112294285Y-82047142D01*
X115857142Y-32166666D02*
X115904761Y-32214285D01*
X115952380Y-32357142D01*
X115952380Y-32452380D01*
X115904761Y-32595238D01*
X115809523Y-32690476D01*
X115714285Y-32738095D01*
X115523809Y-32785714D01*
X115380952Y-32785714D01*
X115190476Y-32738095D01*
X115095238Y-32690476D01*
X115000000Y-32595238D01*
X114952380Y-32452380D01*
X114952380Y-32357142D01*
X115000000Y-32214285D01*
X115047619Y-32166666D01*
X114952380Y-31833333D02*
X114952380Y-31166666D01*
X115952380Y-31595238D01*
X117857142Y-32166666D02*
X117904761Y-32214285D01*
X117952380Y-32357142D01*
X117952380Y-32452380D01*
X117904761Y-32595238D01*
X117809523Y-32690476D01*
X117714285Y-32738095D01*
X117523809Y-32785714D01*
X117380952Y-32785714D01*
X117190476Y-32738095D01*
X117095238Y-32690476D01*
X117000000Y-32595238D01*
X116952380Y-32452380D01*
X116952380Y-32357142D01*
X117000000Y-32214285D01*
X117047619Y-32166666D01*
X116952380Y-31309523D02*
X116952380Y-31500000D01*
X117000000Y-31595238D01*
X117047619Y-31642857D01*
X117190476Y-31738095D01*
X117380952Y-31785714D01*
X117761904Y-31785714D01*
X117857142Y-31738095D01*
X117904761Y-31690476D01*
X117952380Y-31595238D01*
X117952380Y-31404761D01*
X117904761Y-31309523D01*
X117857142Y-31261904D01*
X117761904Y-31214285D01*
X117523809Y-31214285D01*
X117428571Y-31261904D01*
X117380952Y-31309523D01*
X117333333Y-31404761D01*
X117333333Y-31595238D01*
X117380952Y-31690476D01*
X117428571Y-31738095D01*
X117523809Y-31785714D01*
X159993333Y-38602380D02*
X159660000Y-38126190D01*
X159421904Y-38602380D02*
X159421904Y-37602380D01*
X159802857Y-37602380D01*
X159898095Y-37650000D01*
X159945714Y-37697619D01*
X159993333Y-37792857D01*
X159993333Y-37935714D01*
X159945714Y-38030952D01*
X159898095Y-38078571D01*
X159802857Y-38126190D01*
X159421904Y-38126190D01*
X160850476Y-37602380D02*
X160660000Y-37602380D01*
X160564761Y-37650000D01*
X160517142Y-37697619D01*
X160421904Y-37840476D01*
X160374285Y-38030952D01*
X160374285Y-38411904D01*
X160421904Y-38507142D01*
X160469523Y-38554761D01*
X160564761Y-38602380D01*
X160755238Y-38602380D01*
X160850476Y-38554761D01*
X160898095Y-38507142D01*
X160945714Y-38411904D01*
X160945714Y-38173809D01*
X160898095Y-38078571D01*
X160850476Y-38030952D01*
X160755238Y-37983333D01*
X160564761Y-37983333D01*
X160469523Y-38030952D01*
X160421904Y-38078571D01*
X160374285Y-38173809D01*
X174838095Y-61052380D02*
X174838095Y-61861904D01*
X174885714Y-61957142D01*
X174933333Y-62004761D01*
X175028571Y-62052380D01*
X175219047Y-62052380D01*
X175314285Y-62004761D01*
X175361904Y-61957142D01*
X175409523Y-61861904D01*
X175409523Y-61052380D01*
X175838095Y-61147619D02*
X175885714Y-61100000D01*
X175980952Y-61052380D01*
X176219047Y-61052380D01*
X176314285Y-61100000D01*
X176361904Y-61147619D01*
X176409523Y-61242857D01*
X176409523Y-61338095D01*
X176361904Y-61480952D01*
X175790476Y-62052380D01*
X176409523Y-62052380D01*
X117363333Y-101007142D02*
X117315714Y-101054761D01*
X117172857Y-101102380D01*
X117077619Y-101102380D01*
X116934761Y-101054761D01*
X116839523Y-100959523D01*
X116791904Y-100864285D01*
X116744285Y-100673809D01*
X116744285Y-100530952D01*
X116791904Y-100340476D01*
X116839523Y-100245238D01*
X116934761Y-100150000D01*
X117077619Y-100102380D01*
X117172857Y-100102380D01*
X117315714Y-100150000D01*
X117363333Y-100197619D01*
X118315714Y-101102380D02*
X117744285Y-101102380D01*
X118030000Y-101102380D02*
X118030000Y-100102380D01*
X117934761Y-100245238D01*
X117839523Y-100340476D01*
X117744285Y-100388095D01*
X158847619Y-40775238D02*
X158800000Y-40870476D01*
X158704761Y-40965714D01*
X158561904Y-41108571D01*
X158514285Y-41203809D01*
X158514285Y-41299047D01*
X158752380Y-41251428D02*
X158704761Y-41346666D01*
X158609523Y-41441904D01*
X158419047Y-41489523D01*
X158085714Y-41489523D01*
X157895238Y-41441904D01*
X157800000Y-41346666D01*
X157752380Y-41251428D01*
X157752380Y-41060952D01*
X157800000Y-40965714D01*
X157895238Y-40870476D01*
X158085714Y-40822857D01*
X158419047Y-40822857D01*
X158609523Y-40870476D01*
X158704761Y-40965714D01*
X158752380Y-41060952D01*
X158752380Y-41251428D01*
X158752380Y-39870476D02*
X158752380Y-40441904D01*
X158752380Y-40156190D02*
X157752380Y-40156190D01*
X157895238Y-40251428D01*
X157990476Y-40346666D01*
X158038095Y-40441904D01*
X121753333Y-56827142D02*
X121705714Y-56874761D01*
X121562857Y-56922380D01*
X121467619Y-56922380D01*
X121324761Y-56874761D01*
X121229523Y-56779523D01*
X121181904Y-56684285D01*
X121134285Y-56493809D01*
X121134285Y-56350952D01*
X121181904Y-56160476D01*
X121229523Y-56065238D01*
X121324761Y-55970000D01*
X121467619Y-55922380D01*
X121562857Y-55922380D01*
X121705714Y-55970000D01*
X121753333Y-56017619D01*
X122134285Y-56017619D02*
X122181904Y-55970000D01*
X122277142Y-55922380D01*
X122515238Y-55922380D01*
X122610476Y-55970000D01*
X122658095Y-56017619D01*
X122705714Y-56112857D01*
X122705714Y-56208095D01*
X122658095Y-56350952D01*
X122086666Y-56922380D01*
X122705714Y-56922380D01*
X160363333Y-59007142D02*
X160315714Y-59054761D01*
X160172857Y-59102380D01*
X160077619Y-59102380D01*
X159934761Y-59054761D01*
X159839523Y-58959523D01*
X159791904Y-58864285D01*
X159744285Y-58673809D01*
X159744285Y-58530952D01*
X159791904Y-58340476D01*
X159839523Y-58245238D01*
X159934761Y-58150000D01*
X160077619Y-58102380D01*
X160172857Y-58102380D01*
X160315714Y-58150000D01*
X160363333Y-58197619D01*
X161315714Y-59102380D02*
X160744285Y-59102380D01*
X161030000Y-59102380D02*
X161030000Y-58102380D01*
X160934761Y-58245238D01*
X160839523Y-58340476D01*
X160744285Y-58388095D01*
X180041666Y-41162380D02*
X180041666Y-41876666D01*
X179994047Y-42019523D01*
X179898809Y-42114761D01*
X179755952Y-42162380D01*
X179660714Y-42162380D01*
X180422619Y-41162380D02*
X181041666Y-41162380D01*
X180708333Y-41543333D01*
X180851190Y-41543333D01*
X180946428Y-41590952D01*
X180994047Y-41638571D01*
X181041666Y-41733809D01*
X181041666Y-41971904D01*
X180994047Y-42067142D01*
X180946428Y-42114761D01*
X180851190Y-42162380D01*
X180565476Y-42162380D01*
X180470238Y-42114761D01*
X180422619Y-42067142D01*
X158847619Y-82775238D02*
X158800000Y-82870476D01*
X158704761Y-82965714D01*
X158561904Y-83108571D01*
X158514285Y-83203809D01*
X158514285Y-83299047D01*
X158752380Y-83251428D02*
X158704761Y-83346666D01*
X158609523Y-83441904D01*
X158419047Y-83489523D01*
X158085714Y-83489523D01*
X157895238Y-83441904D01*
X157800000Y-83346666D01*
X157752380Y-83251428D01*
X157752380Y-83060952D01*
X157800000Y-82965714D01*
X157895238Y-82870476D01*
X158085714Y-82822857D01*
X158419047Y-82822857D01*
X158609523Y-82870476D01*
X158704761Y-82965714D01*
X158752380Y-83060952D01*
X158752380Y-83251428D01*
X158752380Y-81870476D02*
X158752380Y-82441904D01*
X158752380Y-82156190D02*
X157752380Y-82156190D01*
X157895238Y-82251428D01*
X157990476Y-82346666D01*
X158038095Y-82441904D01*
X180041666Y-83162380D02*
X180041666Y-83876666D01*
X179994047Y-84019523D01*
X179898809Y-84114761D01*
X179755952Y-84162380D01*
X179660714Y-84162380D01*
X180422619Y-83162380D02*
X181041666Y-83162380D01*
X180708333Y-83543333D01*
X180851190Y-83543333D01*
X180946428Y-83590952D01*
X180994047Y-83638571D01*
X181041666Y-83733809D01*
X181041666Y-83971904D01*
X180994047Y-84067142D01*
X180946428Y-84114761D01*
X180851190Y-84162380D01*
X180565476Y-84162380D01*
X180470238Y-84114761D01*
X180422619Y-84067142D01*
X164352380Y-43466666D02*
X163876190Y-43800000D01*
X164352380Y-44038095D02*
X163352380Y-44038095D01*
X163352380Y-43657142D01*
X163400000Y-43561904D01*
X163447619Y-43514285D01*
X163542857Y-43466666D01*
X163685714Y-43466666D01*
X163780952Y-43514285D01*
X163828571Y-43561904D01*
X163876190Y-43657142D01*
X163876190Y-44038095D01*
X163352380Y-43133333D02*
X163352380Y-42514285D01*
X163733333Y-42847619D01*
X163733333Y-42704761D01*
X163780952Y-42609523D01*
X163828571Y-42561904D01*
X163923809Y-42514285D01*
X164161904Y-42514285D01*
X164257142Y-42561904D01*
X164304761Y-42609523D01*
X164352380Y-42704761D01*
X164352380Y-42990476D01*
X164304761Y-43085714D01*
X164257142Y-43133333D01*
X137041666Y-83162380D02*
X137041666Y-83876666D01*
X136994047Y-84019523D01*
X136898809Y-84114761D01*
X136755952Y-84162380D01*
X136660714Y-84162380D01*
X137422619Y-83162380D02*
X138041666Y-83162380D01*
X137708333Y-83543333D01*
X137851190Y-83543333D01*
X137946428Y-83590952D01*
X137994047Y-83638571D01*
X138041666Y-83733809D01*
X138041666Y-83971904D01*
X137994047Y-84067142D01*
X137946428Y-84114761D01*
X137851190Y-84162380D01*
X137565476Y-84162380D01*
X137470238Y-84114761D01*
X137422619Y-84067142D01*
X159052380Y-93133333D02*
X159766666Y-93133333D01*
X159909523Y-93180952D01*
X160004761Y-93276190D01*
X160052380Y-93419047D01*
X160052380Y-93514285D01*
X159147619Y-92704761D02*
X159100000Y-92657142D01*
X159052380Y-92561904D01*
X159052380Y-92323809D01*
X159100000Y-92228571D01*
X159147619Y-92180952D01*
X159242857Y-92133333D01*
X159338095Y-92133333D01*
X159480952Y-92180952D01*
X160052380Y-92752380D01*
X160052380Y-92133333D01*
D11*
X140465000Y-92725000D02*
X139465000Y-92725000D01*
X122465000Y-91975000D02*
X122465000Y-92725000D01*
X140465000Y-67225000D02*
X140465000Y-73975000D01*
X140465000Y-91975000D02*
X140465000Y-92725000D01*
X140465000Y-73165000D02*
X122465000Y-73165000D01*
X122465000Y-92725000D02*
X123465000Y-92725000D01*
X122465000Y-67225000D02*
X140465000Y-67225000D01*
X122465000Y-67225000D02*
X122465000Y-73975000D01*
X118000000Y-84160000D02*
X119675000Y-84160000D01*
X118000000Y-81040000D02*
X118650000Y-81040000D01*
X118000000Y-81040000D02*
X117350000Y-81040000D01*
X118000000Y-84160000D02*
X117350000Y-84160000D01*
X165500000Y-59046267D02*
X165500000Y-58753733D01*
X164480000Y-59046267D02*
X164480000Y-58753733D01*
X118590000Y-75446267D02*
X118590000Y-75153733D01*
X119610000Y-75446267D02*
X119610000Y-75153733D01*
X121480000Y-101046267D02*
X121480000Y-100753733D01*
X122500000Y-101046267D02*
X122500000Y-100753733D01*
X163054724Y-77607500D02*
X162545276Y-77607500D01*
X163054724Y-78652500D02*
X162545276Y-78652500D01*
X120795000Y-52345000D02*
X122125000Y-52345000D01*
X123395000Y-52345000D02*
X141235000Y-52345000D01*
X120795000Y-53675000D02*
X120795000Y-52345000D01*
X123395000Y-55005000D02*
X141235000Y-55005000D01*
X123395000Y-55005000D02*
X123395000Y-52345000D01*
X141235000Y-55005000D02*
X141235000Y-52345000D01*
X168390000Y-57396267D02*
X168390000Y-57103733D01*
X169410000Y-57396267D02*
X169410000Y-57103733D01*
X156214724Y-45112500D02*
X155705276Y-45112500D01*
X156214724Y-44067500D02*
X155705276Y-44067500D01*
X120795000Y-95675000D02*
X120795000Y-94345000D01*
X120795000Y-94345000D02*
X122125000Y-94345000D01*
X123395000Y-97005000D02*
X123395000Y-94345000D01*
X123395000Y-97005000D02*
X141235000Y-97005000D01*
X123395000Y-94345000D02*
X141235000Y-94345000D01*
X141235000Y-97005000D02*
X141235000Y-94345000D01*
X161446267Y-85610000D02*
X161153733Y-85610000D01*
X161446267Y-84590000D02*
X161153733Y-84590000D01*
X162610000Y-75446267D02*
X162610000Y-75153733D01*
X161590000Y-75446267D02*
X161590000Y-75153733D01*
X110940000Y-46100000D02*
X110940000Y-55500000D01*
X116740000Y-55500000D02*
X114740000Y-55500000D01*
X112840000Y-55500000D02*
X110940000Y-55500000D01*
X112840000Y-46100000D02*
X110940000Y-46100000D01*
X116740000Y-46100000D02*
X114740000Y-46100000D01*
X134250000Y-103150000D02*
X141550000Y-103150000D01*
X134250000Y-97650000D02*
X141550000Y-97650000D01*
X141550000Y-103150000D02*
X141550000Y-102000000D01*
X164322500Y-82854724D02*
X164322500Y-82345276D01*
X163277500Y-82854724D02*
X163277500Y-82345276D01*
X125390000Y-57396267D02*
X125390000Y-57103733D01*
X126410000Y-57396267D02*
X126410000Y-57103733D01*
X119545276Y-80622500D02*
X120054724Y-80622500D01*
X119545276Y-79577500D02*
X120054724Y-79577500D01*
X177250000Y-103150000D02*
X184550000Y-103150000D01*
X177250000Y-97650000D02*
X184550000Y-97650000D01*
X184550000Y-103150000D02*
X184550000Y-102000000D01*
X167660000Y-99396267D02*
X167660000Y-99103733D01*
X166640000Y-99396267D02*
X166640000Y-99103733D01*
X156214724Y-87112500D02*
X155705276Y-87112500D01*
X156214724Y-86067500D02*
X155705276Y-86067500D01*
X158164724Y-56547500D02*
X157655276Y-56547500D01*
X158164724Y-57592500D02*
X157655276Y-57592500D01*
X120054724Y-35607500D02*
X119545276Y-35607500D01*
X120054724Y-36652500D02*
X119545276Y-36652500D01*
X118576267Y-56580000D02*
X118283733Y-56580000D01*
X118576267Y-57600000D02*
X118283733Y-57600000D01*
X163054724Y-35607500D02*
X162545276Y-35607500D01*
X163054724Y-36652500D02*
X162545276Y-36652500D01*
X118554724Y-87172500D02*
X118045276Y-87172500D01*
X118554724Y-86127500D02*
X118045276Y-86127500D01*
X126410000Y-99396267D02*
X126410000Y-99103733D01*
X125390000Y-99396267D02*
X125390000Y-99103733D01*
X113214724Y-44067500D02*
X112705276Y-44067500D01*
X113214724Y-45112500D02*
X112705276Y-45112500D01*
X134250000Y-61150000D02*
X141550000Y-61150000D01*
X134250000Y-55650000D02*
X141550000Y-55650000D01*
X141550000Y-61150000D02*
X141550000Y-60000000D01*
X115164724Y-56547500D02*
X114655276Y-56547500D01*
X115164724Y-57592500D02*
X114655276Y-57592500D01*
X112693733Y-41730000D02*
X112986267Y-41730000D01*
X112693733Y-40710000D02*
X112986267Y-40710000D01*
X155693733Y-82710000D02*
X155986267Y-82710000D01*
X155693733Y-83730000D02*
X155986267Y-83730000D01*
X166395000Y-52345000D02*
X184235000Y-52345000D01*
X166395000Y-55005000D02*
X166395000Y-52345000D01*
X184235000Y-55005000D02*
X184235000Y-52345000D01*
X166395000Y-55005000D02*
X184235000Y-55005000D01*
X163795000Y-52345000D02*
X165125000Y-52345000D01*
X163795000Y-53675000D02*
X163795000Y-52345000D01*
X172340000Y-97740000D02*
X172340000Y-97970000D01*
X175060000Y-102460000D02*
X172340000Y-102460000D01*
X175060000Y-97740000D02*
X175060000Y-99050000D01*
X172340000Y-102460000D02*
X172340000Y-102230000D01*
X171200000Y-97970000D02*
X172340000Y-97970000D01*
X175060000Y-101150000D02*
X175060000Y-102460000D01*
X172340000Y-97740000D02*
X175060000Y-97740000D01*
X115164724Y-99592500D02*
X114655276Y-99592500D01*
X115164724Y-98547500D02*
X114655276Y-98547500D01*
X161576267Y-98580000D02*
X161283733Y-98580000D01*
X161576267Y-99600000D02*
X161283733Y-99600000D01*
X124660000Y-57396267D02*
X124660000Y-57103733D01*
X123640000Y-57396267D02*
X123640000Y-57103733D01*
X163190000Y-75446267D02*
X163190000Y-75153733D01*
X164210000Y-75446267D02*
X164210000Y-75153733D01*
X118000000Y-42160000D02*
X117350000Y-42160000D01*
X118000000Y-39040000D02*
X117350000Y-39040000D01*
X118000000Y-39040000D02*
X118650000Y-39040000D01*
X118000000Y-42160000D02*
X119675000Y-42160000D01*
X119545276Y-37577500D02*
X120054724Y-37577500D01*
X119545276Y-38622500D02*
X120054724Y-38622500D01*
X162545276Y-79577500D02*
X163054724Y-79577500D01*
X162545276Y-80622500D02*
X163054724Y-80622500D01*
X168390000Y-99396267D02*
X168390000Y-99103733D01*
X169410000Y-99396267D02*
X169410000Y-99103733D01*
X132060000Y-97740000D02*
X132060000Y-99050000D01*
X129340000Y-102460000D02*
X129340000Y-102230000D01*
X132060000Y-102460000D02*
X129340000Y-102460000D01*
X132060000Y-101150000D02*
X132060000Y-102460000D01*
X129340000Y-97740000D02*
X132060000Y-97740000D01*
X129340000Y-97740000D02*
X129340000Y-97970000D01*
X128200000Y-97970000D02*
X129340000Y-97970000D01*
X161554724Y-44127500D02*
X161045276Y-44127500D01*
X161554724Y-45172500D02*
X161045276Y-45172500D01*
X165500000Y-101046267D02*
X165500000Y-100753733D01*
X164480000Y-101046267D02*
X164480000Y-100753733D01*
X113214724Y-87112500D02*
X112705276Y-87112500D01*
X113214724Y-86067500D02*
X112705276Y-86067500D01*
X161590000Y-33446267D02*
X161590000Y-33153733D01*
X162610000Y-33446267D02*
X162610000Y-33153733D01*
X123640000Y-99396267D02*
X123640000Y-99103733D01*
X124660000Y-99396267D02*
X124660000Y-99103733D01*
X120054724Y-78652500D02*
X119545276Y-78652500D01*
X120054724Y-77607500D02*
X119545276Y-77607500D01*
X164210000Y-33446267D02*
X164210000Y-33153733D01*
X163190000Y-33446267D02*
X163190000Y-33153733D01*
X118554724Y-45172500D02*
X118045276Y-45172500D01*
X118554724Y-44127500D02*
X118045276Y-44127500D01*
X165465000Y-25225000D02*
X183465000Y-25225000D01*
X183465000Y-31165000D02*
X165465000Y-31165000D01*
X183465000Y-25225000D02*
X183465000Y-31975000D01*
X183465000Y-49975000D02*
X183465000Y-50725000D01*
X183465000Y-50725000D02*
X182465000Y-50725000D01*
X165465000Y-49975000D02*
X165465000Y-50725000D01*
X165465000Y-25225000D02*
X165465000Y-31975000D01*
X165465000Y-50725000D02*
X166465000Y-50725000D01*
X118446267Y-43610000D02*
X118153733Y-43610000D01*
X118446267Y-42590000D02*
X118153733Y-42590000D01*
X161446267Y-42590000D02*
X161153733Y-42590000D01*
X161446267Y-43610000D02*
X161153733Y-43610000D01*
X165465000Y-92725000D02*
X166465000Y-92725000D01*
X165465000Y-67225000D02*
X165465000Y-73975000D01*
X183465000Y-91975000D02*
X183465000Y-92725000D01*
X165465000Y-67225000D02*
X183465000Y-67225000D01*
X183465000Y-73165000D02*
X165465000Y-73165000D01*
X183465000Y-92725000D02*
X182465000Y-92725000D01*
X183465000Y-67225000D02*
X183465000Y-73975000D01*
X165465000Y-91975000D02*
X165465000Y-92725000D01*
X120277500Y-82854724D02*
X120277500Y-82345276D01*
X121322500Y-82854724D02*
X121322500Y-82345276D01*
X161554724Y-87172500D02*
X161045276Y-87172500D01*
X161554724Y-86127500D02*
X161045276Y-86127500D01*
X155693733Y-41730000D02*
X155986267Y-41730000D01*
X155693733Y-40710000D02*
X155986267Y-40710000D01*
X163795000Y-95675000D02*
X163795000Y-94345000D01*
X163795000Y-94345000D02*
X165125000Y-94345000D01*
X166395000Y-94345000D02*
X184235000Y-94345000D01*
X184235000Y-97005000D02*
X184235000Y-94345000D01*
X166395000Y-97005000D02*
X184235000Y-97005000D01*
X166395000Y-97005000D02*
X166395000Y-94345000D01*
X158164724Y-98547500D02*
X157655276Y-98547500D01*
X158164724Y-99592500D02*
X157655276Y-99592500D01*
X118446267Y-85610000D02*
X118153733Y-85610000D01*
X118446267Y-84590000D02*
X118153733Y-84590000D01*
X121210000Y-75446267D02*
X121210000Y-75153733D01*
X120190000Y-75446267D02*
X120190000Y-75153733D01*
X122465000Y-50725000D02*
X123465000Y-50725000D01*
X140465000Y-25225000D02*
X140465000Y-31975000D01*
X122465000Y-49975000D02*
X122465000Y-50725000D01*
X122465000Y-25225000D02*
X140465000Y-25225000D01*
X140465000Y-31165000D02*
X122465000Y-31165000D01*
X122465000Y-25225000D02*
X122465000Y-31975000D01*
X140465000Y-49975000D02*
X140465000Y-50725000D01*
X140465000Y-50725000D02*
X139465000Y-50725000D01*
X153940000Y-46100000D02*
X153940000Y-55500000D01*
X159740000Y-46100000D02*
X157740000Y-46100000D01*
X155840000Y-46100000D02*
X153940000Y-46100000D01*
X155840000Y-55500000D02*
X153940000Y-55500000D01*
X159740000Y-55500000D02*
X157740000Y-55500000D01*
X132060000Y-59150000D02*
X132060000Y-60460000D01*
X128200000Y-55970000D02*
X129340000Y-55970000D01*
X132060000Y-55740000D02*
X132060000Y-57050000D01*
X132060000Y-60460000D02*
X129340000Y-60460000D01*
X129340000Y-55740000D02*
X129340000Y-55970000D01*
X129340000Y-55740000D02*
X132060000Y-55740000D01*
X129340000Y-60460000D02*
X129340000Y-60230000D01*
X120277500Y-40854724D02*
X120277500Y-40345276D01*
X121322500Y-40854724D02*
X121322500Y-40345276D01*
X138705000Y-32530000D02*
X137682530Y-32530000D01*
X136615000Y-38940000D02*
X136045000Y-38940000D01*
X138705000Y-38940000D02*
X138705000Y-32530000D01*
X136045000Y-40335000D02*
X136045000Y-39575000D01*
X136045000Y-38940000D02*
X136045000Y-32530000D01*
X137067470Y-32530000D02*
X136045000Y-32530000D01*
X137375000Y-40335000D02*
X136045000Y-40335000D01*
X138705000Y-38940000D02*
X138135000Y-38940000D01*
X166640000Y-57396267D02*
X166640000Y-57103733D01*
X167660000Y-57396267D02*
X167660000Y-57103733D01*
X112840000Y-97500000D02*
X110940000Y-97500000D01*
X116740000Y-97500000D02*
X114740000Y-97500000D01*
X116740000Y-88100000D02*
X114740000Y-88100000D01*
X110940000Y-88100000D02*
X110940000Y-97500000D01*
X112840000Y-88100000D02*
X110940000Y-88100000D01*
X177250000Y-55650000D02*
X184550000Y-55650000D01*
X184550000Y-61150000D02*
X184550000Y-60000000D01*
X177250000Y-61150000D02*
X184550000Y-61150000D01*
X112693733Y-83730000D02*
X112986267Y-83730000D01*
X112693733Y-82710000D02*
X112986267Y-82710000D01*
X118590000Y-33446267D02*
X118590000Y-33153733D01*
X119610000Y-33446267D02*
X119610000Y-33153733D01*
X120190000Y-33446267D02*
X120190000Y-33153733D01*
X121210000Y-33446267D02*
X121210000Y-33153733D01*
X162545276Y-38622500D02*
X163054724Y-38622500D01*
X162545276Y-37577500D02*
X163054724Y-37577500D01*
X175060000Y-59150000D02*
X175060000Y-60460000D01*
X172340000Y-60460000D02*
X172340000Y-60230000D01*
X171200000Y-55970000D02*
X172340000Y-55970000D01*
X172340000Y-55740000D02*
X175060000Y-55740000D01*
X175060000Y-60460000D02*
X172340000Y-60460000D01*
X175060000Y-55740000D02*
X175060000Y-57050000D01*
X172340000Y-55740000D02*
X172340000Y-55970000D01*
X118576267Y-99600000D02*
X118283733Y-99600000D01*
X118576267Y-98580000D02*
X118283733Y-98580000D01*
X161000000Y-42160000D02*
X160350000Y-42160000D01*
X161000000Y-42160000D02*
X162675000Y-42160000D01*
X161000000Y-39040000D02*
X161650000Y-39040000D01*
X161000000Y-39040000D02*
X160350000Y-39040000D01*
X121480000Y-59046267D02*
X121480000Y-58753733D01*
X122500000Y-59046267D02*
X122500000Y-58753733D01*
X161576267Y-57600000D02*
X161283733Y-57600000D01*
X161576267Y-56580000D02*
X161283733Y-56580000D01*
X180067470Y-32530000D02*
X179045000Y-32530000D01*
X181705000Y-38940000D02*
X181135000Y-38940000D01*
X179045000Y-40335000D02*
X179045000Y-39575000D01*
X179045000Y-38940000D02*
X179045000Y-32530000D01*
X181705000Y-32530000D02*
X180682530Y-32530000D01*
X179615000Y-38940000D02*
X179045000Y-38940000D01*
X180375000Y-40335000D02*
X179045000Y-40335000D01*
X181705000Y-38940000D02*
X181705000Y-32530000D01*
X161000000Y-84160000D02*
X162675000Y-84160000D01*
X161000000Y-84160000D02*
X160350000Y-84160000D01*
X161000000Y-81040000D02*
X160350000Y-81040000D01*
X161000000Y-81040000D02*
X161650000Y-81040000D01*
X181705000Y-80940000D02*
X181705000Y-74530000D01*
X179045000Y-80940000D02*
X179045000Y-74530000D01*
X179045000Y-82335000D02*
X179045000Y-81575000D01*
X181705000Y-74530000D02*
X180682530Y-74530000D01*
X180067470Y-74530000D02*
X179045000Y-74530000D01*
X180375000Y-82335000D02*
X179045000Y-82335000D01*
X181705000Y-80940000D02*
X181135000Y-80940000D01*
X179615000Y-80940000D02*
X179045000Y-80940000D01*
X164322500Y-40854724D02*
X164322500Y-40345276D01*
X163277500Y-40854724D02*
X163277500Y-40345276D01*
X136045000Y-80940000D02*
X136045000Y-74530000D01*
X138705000Y-80940000D02*
X138135000Y-80940000D01*
X136045000Y-82335000D02*
X136045000Y-81575000D01*
X138705000Y-74530000D02*
X137682530Y-74530000D01*
X136615000Y-80940000D02*
X136045000Y-80940000D01*
X137375000Y-82335000D02*
X136045000Y-82335000D01*
X137067470Y-74530000D02*
X136045000Y-74530000D01*
X138705000Y-80940000D02*
X138705000Y-74530000D01*
X159740000Y-97500000D02*
X157740000Y-97500000D01*
X153940000Y-88100000D02*
X153940000Y-97500000D01*
X155840000Y-97500000D02*
X153940000Y-97500000D01*
X155840000Y-88100000D02*
X153940000Y-88100000D01*
X159740000Y-88100000D02*
X157740000Y-88100000D01*
%LPC*%
D12*
X122715000Y-74715000D03*
X122715000Y-75985000D03*
X122715000Y-77255000D03*
X122715000Y-78525000D03*
X122715000Y-79795000D03*
X122715000Y-81065000D03*
X122715000Y-82335000D03*
X122715000Y-83605000D03*
X122715000Y-84875000D03*
X122715000Y-86145000D03*
X122715000Y-87415000D03*
X122715000Y-88685000D03*
X122715000Y-89955000D03*
X122715000Y-91225000D03*
D13*
X124480000Y-92475000D03*
X125750000Y-92475000D03*
X127020000Y-92475000D03*
X128290000Y-92475000D03*
X129560000Y-92475000D03*
X130830000Y-92475000D03*
X132100000Y-92475000D03*
X133370000Y-92475000D03*
X134640000Y-92475000D03*
X135910000Y-92475000D03*
X137180000Y-92475000D03*
X138450000Y-92475000D03*
D12*
X140215000Y-91225000D03*
X140215000Y-89955000D03*
X140215000Y-88685000D03*
X140215000Y-87415000D03*
X140215000Y-86145000D03*
X140215000Y-84875000D03*
X140215000Y-83605000D03*
X140215000Y-82335000D03*
X140215000Y-81065000D03*
X140215000Y-79795000D03*
X140215000Y-78525000D03*
X140215000Y-77255000D03*
X140215000Y-75985000D03*
X140215000Y-74715000D03*
D14*
X128565000Y-82435000D03*
X129965000Y-82435000D03*
X129965000Y-83835000D03*
X131365000Y-83835000D03*
X128565000Y-83835000D03*
X129965000Y-81035000D03*
X128565000Y-81035000D03*
X131365000Y-81035000D03*
X131365000Y-82435000D03*
D15*
X105500000Y-24000000D03*
D16*
X118937500Y-83550000D03*
X118937500Y-81650000D03*
X117062500Y-82600000D03*
D17*
X164990000Y-59762500D03*
X164990000Y-58037500D03*
X119100000Y-76162500D03*
X119100000Y-74437500D03*
X121990000Y-101762500D03*
X121990000Y-100037500D03*
D18*
X163712500Y-78130000D03*
X161887500Y-78130000D03*
D19*
X122125000Y-53675000D03*
D20*
X124665000Y-53675000D03*
X127205000Y-53675000D03*
X129745000Y-53675000D03*
X132285000Y-53675000D03*
X134825000Y-53675000D03*
X137365000Y-53675000D03*
X139905000Y-53675000D03*
D17*
X168900000Y-58112500D03*
X168900000Y-56387500D03*
D18*
X156872500Y-44590000D03*
X155047500Y-44590000D03*
D19*
X122125000Y-95675000D03*
D20*
X124665000Y-95675000D03*
X127205000Y-95675000D03*
X129745000Y-95675000D03*
X132285000Y-95675000D03*
X134825000Y-95675000D03*
X137365000Y-95675000D03*
X139905000Y-95675000D03*
D21*
X162162500Y-85100000D03*
X160437500Y-85100000D03*
D17*
X162100000Y-76162500D03*
X162100000Y-74437500D03*
D22*
X117440000Y-53690000D03*
X117440000Y-47910000D03*
D23*
X118885000Y-47550000D03*
X118885000Y-48350000D03*
D24*
X118885000Y-49550000D03*
X118885000Y-50550000D03*
X118885000Y-51050000D03*
X118885000Y-52050000D03*
D23*
X118885000Y-53250000D03*
X118885000Y-54050000D03*
X118885000Y-54050000D03*
X118885000Y-53250000D03*
D24*
X118885000Y-52550000D03*
X118885000Y-51550000D03*
X118885000Y-50050000D03*
X118885000Y-49050000D03*
D23*
X118885000Y-48350000D03*
X118885000Y-47550000D03*
D25*
X117970000Y-46480000D03*
X117970000Y-55120000D03*
D26*
X113790000Y-46480000D03*
X113790000Y-55120000D03*
D12*
X135450000Y-98750000D03*
X135450000Y-102050000D03*
X140350000Y-102050000D03*
X140350000Y-98750000D03*
D27*
X163800000Y-83512500D03*
X163800000Y-81687500D03*
D17*
X125900000Y-58112500D03*
X125900000Y-56387500D03*
D28*
X118887500Y-80100000D03*
X120712500Y-80100000D03*
D12*
X178450000Y-98750000D03*
X178450000Y-102050000D03*
X183350000Y-102050000D03*
X183350000Y-98750000D03*
D17*
X167150000Y-100112500D03*
X167150000Y-98387500D03*
D18*
X156872500Y-86590000D03*
X155047500Y-86590000D03*
X158822500Y-57070000D03*
X156997500Y-57070000D03*
X120712500Y-36130000D03*
X118887500Y-36130000D03*
D21*
X119292500Y-57090000D03*
X117567500Y-57090000D03*
D18*
X163712500Y-36130000D03*
X161887500Y-36130000D03*
X119212500Y-86650000D03*
X117387500Y-86650000D03*
D17*
X125900000Y-100112500D03*
X125900000Y-98387500D03*
D18*
X113872500Y-44590000D03*
X112047500Y-44590000D03*
D29*
X102500000Y-25000000D03*
D12*
X135450000Y-56750000D03*
X135450000Y-60050000D03*
X140350000Y-60050000D03*
X140350000Y-56750000D03*
D18*
X115822500Y-57070000D03*
X113997500Y-57070000D03*
D30*
X111977500Y-41220000D03*
X113702500Y-41220000D03*
X154977500Y-83220000D03*
X156702500Y-83220000D03*
D19*
X165125000Y-53675000D03*
D20*
X167665000Y-53675000D03*
X170205000Y-53675000D03*
X172745000Y-53675000D03*
X175285000Y-53675000D03*
X177825000Y-53675000D03*
X180365000Y-53675000D03*
X182905000Y-53675000D03*
D31*
X171250000Y-98600000D03*
D32*
X171337500Y-100100000D03*
D31*
X171250000Y-101600000D03*
D18*
X115822500Y-99070000D03*
X113997500Y-99070000D03*
D21*
X162292500Y-99090000D03*
X160567500Y-99090000D03*
D17*
X124150000Y-58112500D03*
X124150000Y-56387500D03*
X163700000Y-76162500D03*
X163700000Y-74437500D03*
D16*
X118937500Y-41550000D03*
X118937500Y-39650000D03*
X117062500Y-40600000D03*
D28*
X118887500Y-38100000D03*
X120712500Y-38100000D03*
X161887500Y-80100000D03*
X163712500Y-80100000D03*
D17*
X168900000Y-100112500D03*
X168900000Y-98387500D03*
D31*
X128250000Y-98600000D03*
D32*
X128337500Y-100100000D03*
D31*
X128250000Y-101600000D03*
D18*
X162212500Y-44650000D03*
X160387500Y-44650000D03*
D17*
X164990000Y-101762500D03*
X164990000Y-100037500D03*
D18*
X113872500Y-86590000D03*
X112047500Y-86590000D03*
D17*
X162100000Y-34162500D03*
X162100000Y-32437500D03*
X124150000Y-100112500D03*
X124150000Y-98387500D03*
D18*
X120712500Y-78130000D03*
X118887500Y-78130000D03*
D17*
X163700000Y-34162500D03*
X163700000Y-32437500D03*
D18*
X119212500Y-44650000D03*
X117387500Y-44650000D03*
D12*
X165715000Y-32715000D03*
X165715000Y-33985000D03*
X165715000Y-35255000D03*
X165715000Y-36525000D03*
X165715000Y-37795000D03*
X165715000Y-39065000D03*
X165715000Y-40335000D03*
X165715000Y-41605000D03*
X165715000Y-42875000D03*
X165715000Y-44145000D03*
X165715000Y-45415000D03*
X165715000Y-46685000D03*
X165715000Y-47955000D03*
X165715000Y-49225000D03*
D13*
X167480000Y-50475000D03*
X168750000Y-50475000D03*
X170020000Y-50475000D03*
X171290000Y-50475000D03*
X172560000Y-50475000D03*
X173830000Y-50475000D03*
X175100000Y-50475000D03*
X176370000Y-50475000D03*
X177640000Y-50475000D03*
X178910000Y-50475000D03*
X180180000Y-50475000D03*
X181450000Y-50475000D03*
D12*
X183215000Y-49225000D03*
X183215000Y-47955000D03*
X183215000Y-46685000D03*
X183215000Y-45415000D03*
X183215000Y-44145000D03*
X183215000Y-42875000D03*
X183215000Y-41605000D03*
X183215000Y-40335000D03*
X183215000Y-39065000D03*
X183215000Y-37795000D03*
X183215000Y-36525000D03*
X183215000Y-35255000D03*
X183215000Y-33985000D03*
X183215000Y-32715000D03*
D14*
X172965000Y-39035000D03*
X172965000Y-40435000D03*
X174365000Y-39035000D03*
X171565000Y-39035000D03*
X172965000Y-41835000D03*
X171565000Y-41835000D03*
X174365000Y-41835000D03*
X174365000Y-40435000D03*
X171565000Y-40435000D03*
D21*
X119162500Y-43100000D03*
X117437500Y-43100000D03*
X162162500Y-43100000D03*
X160437500Y-43100000D03*
D15*
X191500000Y-112000000D03*
D12*
X165715000Y-74715000D03*
X165715000Y-75985000D03*
X165715000Y-77255000D03*
X165715000Y-78525000D03*
X165715000Y-79795000D03*
X165715000Y-81065000D03*
X165715000Y-82335000D03*
X165715000Y-83605000D03*
X165715000Y-84875000D03*
X165715000Y-86145000D03*
X165715000Y-87415000D03*
X165715000Y-88685000D03*
X165715000Y-89955000D03*
X165715000Y-91225000D03*
D13*
X167480000Y-92475000D03*
X168750000Y-92475000D03*
X170020000Y-92475000D03*
X171290000Y-92475000D03*
X172560000Y-92475000D03*
X173830000Y-92475000D03*
X175100000Y-92475000D03*
X176370000Y-92475000D03*
X177640000Y-92475000D03*
X178910000Y-92475000D03*
X180180000Y-92475000D03*
X181450000Y-92475000D03*
D12*
X183215000Y-91225000D03*
X183215000Y-89955000D03*
X183215000Y-88685000D03*
X183215000Y-87415000D03*
X183215000Y-86145000D03*
X183215000Y-84875000D03*
X183215000Y-83605000D03*
X183215000Y-82335000D03*
X183215000Y-81065000D03*
X183215000Y-79795000D03*
X183215000Y-78525000D03*
X183215000Y-77255000D03*
X183215000Y-75985000D03*
X183215000Y-74715000D03*
D14*
X171565000Y-82435000D03*
X172965000Y-83835000D03*
X174365000Y-83835000D03*
X174365000Y-82435000D03*
X172965000Y-82435000D03*
X171565000Y-81035000D03*
X172965000Y-81035000D03*
X174365000Y-81035000D03*
X171565000Y-83835000D03*
D27*
X120800000Y-83512500D03*
X120800000Y-81687500D03*
D18*
X162212500Y-86650000D03*
X160387500Y-86650000D03*
D29*
X102500000Y-111000000D03*
D30*
X154977500Y-41220000D03*
X156702500Y-41220000D03*
D19*
X165125000Y-95675000D03*
D20*
X167665000Y-95675000D03*
X170205000Y-95675000D03*
X172745000Y-95675000D03*
X175285000Y-95675000D03*
X177825000Y-95675000D03*
X180365000Y-95675000D03*
X182905000Y-95675000D03*
D15*
X191500000Y-24000000D03*
D18*
X158822500Y-99070000D03*
X156997500Y-99070000D03*
D21*
X119162500Y-85100000D03*
X117437500Y-85100000D03*
D17*
X120700000Y-76162500D03*
X120700000Y-74437500D03*
D12*
X122715000Y-32715000D03*
X122715000Y-33985000D03*
X122715000Y-35255000D03*
X122715000Y-36525000D03*
X122715000Y-37795000D03*
X122715000Y-39065000D03*
X122715000Y-40335000D03*
X122715000Y-41605000D03*
X122715000Y-42875000D03*
X122715000Y-44145000D03*
X122715000Y-45415000D03*
X122715000Y-46685000D03*
X122715000Y-47955000D03*
X122715000Y-49225000D03*
D13*
X124480000Y-50475000D03*
X125750000Y-50475000D03*
X127020000Y-50475000D03*
X128290000Y-50475000D03*
X129560000Y-50475000D03*
X130830000Y-50475000D03*
X132100000Y-50475000D03*
X133370000Y-50475000D03*
X134640000Y-50475000D03*
X135910000Y-50475000D03*
X137180000Y-50475000D03*
X138450000Y-50475000D03*
D12*
X140215000Y-49225000D03*
X140215000Y-47955000D03*
X140215000Y-46685000D03*
X140215000Y-45415000D03*
X140215000Y-44145000D03*
X140215000Y-42875000D03*
X140215000Y-41605000D03*
X140215000Y-40335000D03*
X140215000Y-39065000D03*
X140215000Y-37795000D03*
X140215000Y-36525000D03*
X140215000Y-35255000D03*
X140215000Y-33985000D03*
X140215000Y-32715000D03*
D14*
X128565000Y-41835000D03*
X131365000Y-39035000D03*
X128565000Y-39035000D03*
X129965000Y-40435000D03*
X131365000Y-40435000D03*
X128565000Y-40435000D03*
X131365000Y-41835000D03*
X129965000Y-41835000D03*
X129965000Y-39035000D03*
D22*
X160440000Y-53690000D03*
X160440000Y-47910000D03*
D23*
X161885000Y-47550000D03*
X161885000Y-48350000D03*
D24*
X161885000Y-49550000D03*
X161885000Y-50550000D03*
X161885000Y-51050000D03*
X161885000Y-52050000D03*
D23*
X161885000Y-53250000D03*
X161885000Y-54050000D03*
X161885000Y-54050000D03*
X161885000Y-53250000D03*
D24*
X161885000Y-52550000D03*
X161885000Y-51550000D03*
X161885000Y-50050000D03*
X161885000Y-49050000D03*
D23*
X161885000Y-48350000D03*
X161885000Y-47550000D03*
D25*
X160970000Y-46480000D03*
D26*
X156790000Y-55120000D03*
X156790000Y-46480000D03*
D25*
X160970000Y-55120000D03*
D31*
X128250000Y-56600000D03*
D32*
X128337500Y-58100000D03*
D31*
X128250000Y-59600000D03*
D27*
X120800000Y-41512500D03*
X120800000Y-39687500D03*
D33*
X137375000Y-39575000D03*
D34*
X137375000Y-38305000D03*
X137375000Y-37035000D03*
X137375000Y-35765000D03*
X137375000Y-34495000D03*
X137375000Y-33225000D03*
D29*
X194500000Y-25000000D03*
D17*
X167150000Y-58112500D03*
X167150000Y-56387500D03*
D15*
X105500000Y-112000000D03*
D22*
X117440000Y-95690000D03*
X117440000Y-89910000D03*
D23*
X118885000Y-89550000D03*
X118885000Y-90350000D03*
D24*
X118885000Y-91550000D03*
X118885000Y-92550000D03*
X118885000Y-93050000D03*
X118885000Y-94050000D03*
D23*
X118885000Y-95250000D03*
X118885000Y-96050000D03*
X118885000Y-96050000D03*
X118885000Y-95250000D03*
D24*
X118885000Y-94550000D03*
X118885000Y-93550000D03*
X118885000Y-92050000D03*
X118885000Y-91050000D03*
D23*
X118885000Y-90350000D03*
X118885000Y-89550000D03*
D25*
X117970000Y-88480000D03*
D26*
X113790000Y-88480000D03*
D25*
X117970000Y-97120000D03*
D26*
X113790000Y-97120000D03*
D12*
X178450000Y-56750000D03*
X178450000Y-60050000D03*
X183350000Y-60050000D03*
X183350000Y-56750000D03*
D30*
X111977500Y-83220000D03*
X113702500Y-83220000D03*
D17*
X119100000Y-34162500D03*
X119100000Y-32437500D03*
X120700000Y-34162500D03*
X120700000Y-32437500D03*
D28*
X161887500Y-38100000D03*
X163712500Y-38100000D03*
D31*
X171250000Y-56600000D03*
D32*
X171337500Y-58100000D03*
D31*
X171250000Y-59600000D03*
D21*
X119292500Y-99090000D03*
X117567500Y-99090000D03*
D16*
X161937500Y-41550000D03*
X161937500Y-39650000D03*
X160062500Y-40600000D03*
D17*
X121990000Y-59762500D03*
X121990000Y-58037500D03*
D21*
X162292500Y-57090000D03*
X160567500Y-57090000D03*
D33*
X180375000Y-39575000D03*
D34*
X180375000Y-38305000D03*
X180375000Y-37035000D03*
X180375000Y-35765000D03*
X180375000Y-34495000D03*
X180375000Y-33225000D03*
D16*
X161937500Y-83550000D03*
X161937500Y-81650000D03*
X160062500Y-82600000D03*
D33*
X180375000Y-81575000D03*
D34*
X180375000Y-80305000D03*
X180375000Y-79035000D03*
X180375000Y-77765000D03*
X180375000Y-76495000D03*
X180375000Y-75225000D03*
D27*
X163800000Y-41512500D03*
X163800000Y-39687500D03*
D29*
X194500000Y-111000000D03*
D33*
X137375000Y-81575000D03*
D34*
X137375000Y-80305000D03*
X137375000Y-79035000D03*
X137375000Y-77765000D03*
X137375000Y-76495000D03*
X137375000Y-75225000D03*
D22*
X160440000Y-95690000D03*
X160440000Y-89910000D03*
D23*
X161885000Y-89550000D03*
X161885000Y-90350000D03*
D24*
X161885000Y-91550000D03*
X161885000Y-92550000D03*
X161885000Y-93050000D03*
X161885000Y-94050000D03*
D23*
X161885000Y-95250000D03*
X161885000Y-96050000D03*
X161885000Y-96050000D03*
X161885000Y-95250000D03*
D24*
X161885000Y-94550000D03*
X161885000Y-93550000D03*
X161885000Y-92050000D03*
X161885000Y-91050000D03*
D23*
X161885000Y-90350000D03*
X161885000Y-89550000D03*
D25*
X160970000Y-97120000D03*
D26*
X156790000Y-88480000D03*
X156790000Y-97120000D03*
D25*
X160970000Y-88480000D03*
M02*
