G04 #@! TF.GenerationSoftware,KiCad,Pcbnew,6.0.11-2627ca5db0~126~ubuntu22.04.1*
G04 #@! TF.CreationDate,2023-02-05T22:44:53+11:00*
G04 #@! TF.ProjectId,panel,70616e65-6c2e-46b6-9963-61645f706362,rev?*
G04 #@! TF.SameCoordinates,Original*
G04 #@! TF.FileFunction,Legend,Bot*
G04 #@! TF.FilePolarity,Positive*
%FSLAX46Y46*%
G04 Gerber Fmt 4.6, Leading zero omitted, Abs format (unit mm)*
G04 Created by KiCad (PCBNEW 6.0.11-2627ca5db0~126~ubuntu22.04.1) date 2023-02-05 22:44:53*
%MOMM*%
%LPD*%
G01*
G04 APERTURE LIST*
%ADD10C,0.160000*%
%ADD11C,0.150000*%
%ADD12C,0.120000*%
%ADD13C,0.310000*%
%ADD14R,1.700000X1.700000*%
%ADD15O,1.700000X1.700000*%
%ADD16C,0.650000*%
%ADD17O,2.100000X1.000000*%
%ADD18O,1.600000X1.000000*%
%ADD19C,3.000000*%
%ADD20R,1.000000X1.000000*%
%ADD21O,1.000000X1.000000*%
%ADD22R,3.000000X0.350000*%
%ADD23C,1.000000*%
G04 APERTURE END LIST*
D10*
X162497904Y-99097380D02*
X162497904Y-98097380D01*
X162164571Y-98811666D01*
X161831238Y-98097380D01*
X161831238Y-99097380D01*
X161355047Y-99097380D02*
X161355047Y-98430714D01*
X161355047Y-98097380D02*
X161402666Y-98145000D01*
X161355047Y-98192619D01*
X161307428Y-98145000D01*
X161355047Y-98097380D01*
X161355047Y-98192619D01*
X160736000Y-99097380D02*
X160831238Y-99049761D01*
X160878857Y-98954523D01*
X160878857Y-98097380D01*
X160212190Y-99097380D02*
X160307428Y-99049761D01*
X160355047Y-98954523D01*
X160355047Y-98097380D01*
X159831238Y-99097380D02*
X159831238Y-98430714D01*
X159831238Y-98097380D02*
X159878857Y-98145000D01*
X159831238Y-98192619D01*
X159783619Y-98145000D01*
X159831238Y-98097380D01*
X159831238Y-98192619D01*
X159355047Y-99097380D02*
X159355047Y-98097380D01*
X159021714Y-98811666D01*
X158688380Y-98097380D01*
X158688380Y-99097380D01*
X157831238Y-99049761D02*
X157926476Y-99097380D01*
X158116952Y-99097380D01*
X158212190Y-99049761D01*
X158259809Y-98954523D01*
X158259809Y-98573571D01*
X158212190Y-98478333D01*
X158116952Y-98430714D01*
X157926476Y-98430714D01*
X157831238Y-98478333D01*
X157783619Y-98573571D01*
X157783619Y-98668809D01*
X158259809Y-98764047D01*
X157497904Y-98430714D02*
X157116952Y-98430714D01*
X157355047Y-98097380D02*
X157355047Y-98954523D01*
X157307428Y-99049761D01*
X157212190Y-99097380D01*
X157116952Y-99097380D01*
X156402666Y-99049761D02*
X156497904Y-99097380D01*
X156688380Y-99097380D01*
X156783619Y-99049761D01*
X156831238Y-98954523D01*
X156831238Y-98573571D01*
X156783619Y-98478333D01*
X156688380Y-98430714D01*
X156497904Y-98430714D01*
X156402666Y-98478333D01*
X156355047Y-98573571D01*
X156355047Y-98668809D01*
X156831238Y-98764047D01*
X155926476Y-99097380D02*
X155926476Y-98430714D01*
X155926476Y-98621190D02*
X155878857Y-98525952D01*
X155831238Y-98478333D01*
X155736000Y-98430714D01*
X155640761Y-98430714D01*
X162497904Y-100707380D02*
X162497904Y-99707380D01*
X162164571Y-100421666D01*
X161831238Y-99707380D01*
X161831238Y-100707380D01*
X160926476Y-100707380D02*
X160926476Y-100183571D01*
X160974095Y-100088333D01*
X161069333Y-100040714D01*
X161259809Y-100040714D01*
X161355047Y-100088333D01*
X160926476Y-100659761D02*
X161021714Y-100707380D01*
X161259809Y-100707380D01*
X161355047Y-100659761D01*
X161402666Y-100564523D01*
X161402666Y-100469285D01*
X161355047Y-100374047D01*
X161259809Y-100326428D01*
X161021714Y-100326428D01*
X160926476Y-100278809D01*
X160450285Y-100707380D02*
X160450285Y-100040714D01*
X160450285Y-99707380D02*
X160497904Y-99755000D01*
X160450285Y-99802619D01*
X160402666Y-99755000D01*
X160450285Y-99707380D01*
X160450285Y-99802619D01*
X159974095Y-100040714D02*
X159974095Y-100707380D01*
X159974095Y-100135952D02*
X159926476Y-100088333D01*
X159831238Y-100040714D01*
X159688380Y-100040714D01*
X159593142Y-100088333D01*
X159545523Y-100183571D01*
X159545523Y-100707380D01*
X157974095Y-100183571D02*
X157831238Y-100231190D01*
X157783619Y-100278809D01*
X157736000Y-100374047D01*
X157736000Y-100516904D01*
X157783619Y-100612142D01*
X157831238Y-100659761D01*
X157926476Y-100707380D01*
X158307428Y-100707380D01*
X158307428Y-99707380D01*
X157974095Y-99707380D01*
X157878857Y-99755000D01*
X157831238Y-99802619D01*
X157783619Y-99897857D01*
X157783619Y-99993095D01*
X157831238Y-100088333D01*
X157878857Y-100135952D01*
X157974095Y-100183571D01*
X158307428Y-100183571D01*
X157164571Y-100707380D02*
X157259809Y-100659761D01*
X157307428Y-100612142D01*
X157355047Y-100516904D01*
X157355047Y-100231190D01*
X157307428Y-100135952D01*
X157259809Y-100088333D01*
X157164571Y-100040714D01*
X157021714Y-100040714D01*
X156926476Y-100088333D01*
X156878857Y-100135952D01*
X156831238Y-100231190D01*
X156831238Y-100516904D01*
X156878857Y-100612142D01*
X156926476Y-100659761D01*
X157021714Y-100707380D01*
X157164571Y-100707380D01*
X155974095Y-100707380D02*
X155974095Y-100183571D01*
X156021714Y-100088333D01*
X156116952Y-100040714D01*
X156307428Y-100040714D01*
X156402666Y-100088333D01*
X155974095Y-100659761D02*
X156069333Y-100707380D01*
X156307428Y-100707380D01*
X156402666Y-100659761D01*
X156450285Y-100564523D01*
X156450285Y-100469285D01*
X156402666Y-100374047D01*
X156307428Y-100326428D01*
X156069333Y-100326428D01*
X155974095Y-100278809D01*
X155497904Y-100707380D02*
X155497904Y-100040714D01*
X155497904Y-100231190D02*
X155450285Y-100135952D01*
X155402666Y-100088333D01*
X155307428Y-100040714D01*
X155212190Y-100040714D01*
X154450285Y-100707380D02*
X154450285Y-99707380D01*
X154450285Y-100659761D02*
X154545523Y-100707380D01*
X154736000Y-100707380D01*
X154831238Y-100659761D01*
X154878857Y-100612142D01*
X154926476Y-100516904D01*
X154926476Y-100231190D01*
X154878857Y-100135952D01*
X154831238Y-100088333D01*
X154736000Y-100040714D01*
X154545523Y-100040714D01*
X154450285Y-100088333D01*
X119497904Y-99097380D02*
X119497904Y-98097380D01*
X119164571Y-98811666D01*
X118831238Y-98097380D01*
X118831238Y-99097380D01*
X118355047Y-99097380D02*
X118355047Y-98430714D01*
X118355047Y-98097380D02*
X118402666Y-98145000D01*
X118355047Y-98192619D01*
X118307428Y-98145000D01*
X118355047Y-98097380D01*
X118355047Y-98192619D01*
X117736000Y-99097380D02*
X117831238Y-99049761D01*
X117878857Y-98954523D01*
X117878857Y-98097380D01*
X117212190Y-99097380D02*
X117307428Y-99049761D01*
X117355047Y-98954523D01*
X117355047Y-98097380D01*
X116831238Y-99097380D02*
X116831238Y-98430714D01*
X116831238Y-98097380D02*
X116878857Y-98145000D01*
X116831238Y-98192619D01*
X116783619Y-98145000D01*
X116831238Y-98097380D01*
X116831238Y-98192619D01*
X116355047Y-99097380D02*
X116355047Y-98097380D01*
X116021714Y-98811666D01*
X115688380Y-98097380D01*
X115688380Y-99097380D01*
X114831238Y-99049761D02*
X114926476Y-99097380D01*
X115116952Y-99097380D01*
X115212190Y-99049761D01*
X115259809Y-98954523D01*
X115259809Y-98573571D01*
X115212190Y-98478333D01*
X115116952Y-98430714D01*
X114926476Y-98430714D01*
X114831238Y-98478333D01*
X114783619Y-98573571D01*
X114783619Y-98668809D01*
X115259809Y-98764047D01*
X114497904Y-98430714D02*
X114116952Y-98430714D01*
X114355047Y-98097380D02*
X114355047Y-98954523D01*
X114307428Y-99049761D01*
X114212190Y-99097380D01*
X114116952Y-99097380D01*
X113402666Y-99049761D02*
X113497904Y-99097380D01*
X113688380Y-99097380D01*
X113783619Y-99049761D01*
X113831238Y-98954523D01*
X113831238Y-98573571D01*
X113783619Y-98478333D01*
X113688380Y-98430714D01*
X113497904Y-98430714D01*
X113402666Y-98478333D01*
X113355047Y-98573571D01*
X113355047Y-98668809D01*
X113831238Y-98764047D01*
X112926476Y-99097380D02*
X112926476Y-98430714D01*
X112926476Y-98621190D02*
X112878857Y-98525952D01*
X112831238Y-98478333D01*
X112736000Y-98430714D01*
X112640761Y-98430714D01*
X119497904Y-100707380D02*
X119497904Y-99707380D01*
X119164571Y-100421666D01*
X118831238Y-99707380D01*
X118831238Y-100707380D01*
X117926476Y-100707380D02*
X117926476Y-100183571D01*
X117974095Y-100088333D01*
X118069333Y-100040714D01*
X118259809Y-100040714D01*
X118355047Y-100088333D01*
X117926476Y-100659761D02*
X118021714Y-100707380D01*
X118259809Y-100707380D01*
X118355047Y-100659761D01*
X118402666Y-100564523D01*
X118402666Y-100469285D01*
X118355047Y-100374047D01*
X118259809Y-100326428D01*
X118021714Y-100326428D01*
X117926476Y-100278809D01*
X117450285Y-100707380D02*
X117450285Y-100040714D01*
X117450285Y-99707380D02*
X117497904Y-99755000D01*
X117450285Y-99802619D01*
X117402666Y-99755000D01*
X117450285Y-99707380D01*
X117450285Y-99802619D01*
X116974095Y-100040714D02*
X116974095Y-100707380D01*
X116974095Y-100135952D02*
X116926476Y-100088333D01*
X116831238Y-100040714D01*
X116688380Y-100040714D01*
X116593142Y-100088333D01*
X116545523Y-100183571D01*
X116545523Y-100707380D01*
X114974095Y-100183571D02*
X114831238Y-100231190D01*
X114783619Y-100278809D01*
X114736000Y-100374047D01*
X114736000Y-100516904D01*
X114783619Y-100612142D01*
X114831238Y-100659761D01*
X114926476Y-100707380D01*
X115307428Y-100707380D01*
X115307428Y-99707380D01*
X114974095Y-99707380D01*
X114878857Y-99755000D01*
X114831238Y-99802619D01*
X114783619Y-99897857D01*
X114783619Y-99993095D01*
X114831238Y-100088333D01*
X114878857Y-100135952D01*
X114974095Y-100183571D01*
X115307428Y-100183571D01*
X114164571Y-100707380D02*
X114259809Y-100659761D01*
X114307428Y-100612142D01*
X114355047Y-100516904D01*
X114355047Y-100231190D01*
X114307428Y-100135952D01*
X114259809Y-100088333D01*
X114164571Y-100040714D01*
X114021714Y-100040714D01*
X113926476Y-100088333D01*
X113878857Y-100135952D01*
X113831238Y-100231190D01*
X113831238Y-100516904D01*
X113878857Y-100612142D01*
X113926476Y-100659761D01*
X114021714Y-100707380D01*
X114164571Y-100707380D01*
X112974095Y-100707380D02*
X112974095Y-100183571D01*
X113021714Y-100088333D01*
X113116952Y-100040714D01*
X113307428Y-100040714D01*
X113402666Y-100088333D01*
X112974095Y-100659761D02*
X113069333Y-100707380D01*
X113307428Y-100707380D01*
X113402666Y-100659761D01*
X113450285Y-100564523D01*
X113450285Y-100469285D01*
X113402666Y-100374047D01*
X113307428Y-100326428D01*
X113069333Y-100326428D01*
X112974095Y-100278809D01*
X112497904Y-100707380D02*
X112497904Y-100040714D01*
X112497904Y-100231190D02*
X112450285Y-100135952D01*
X112402666Y-100088333D01*
X112307428Y-100040714D01*
X112212190Y-100040714D01*
X111450285Y-100707380D02*
X111450285Y-99707380D01*
X111450285Y-100659761D02*
X111545523Y-100707380D01*
X111736000Y-100707380D01*
X111831238Y-100659761D01*
X111878857Y-100612142D01*
X111926476Y-100516904D01*
X111926476Y-100231190D01*
X111878857Y-100135952D01*
X111831238Y-100088333D01*
X111736000Y-100040714D01*
X111545523Y-100040714D01*
X111450285Y-100088333D01*
X162497904Y-57097380D02*
X162497904Y-56097380D01*
X162164571Y-56811666D01*
X161831238Y-56097380D01*
X161831238Y-57097380D01*
X161355047Y-57097380D02*
X161355047Y-56430714D01*
X161355047Y-56097380D02*
X161402666Y-56145000D01*
X161355047Y-56192619D01*
X161307428Y-56145000D01*
X161355047Y-56097380D01*
X161355047Y-56192619D01*
X160736000Y-57097380D02*
X160831238Y-57049761D01*
X160878857Y-56954523D01*
X160878857Y-56097380D01*
X160212190Y-57097380D02*
X160307428Y-57049761D01*
X160355047Y-56954523D01*
X160355047Y-56097380D01*
X159831238Y-57097380D02*
X159831238Y-56430714D01*
X159831238Y-56097380D02*
X159878857Y-56145000D01*
X159831238Y-56192619D01*
X159783619Y-56145000D01*
X159831238Y-56097380D01*
X159831238Y-56192619D01*
X159355047Y-57097380D02*
X159355047Y-56097380D01*
X159021714Y-56811666D01*
X158688380Y-56097380D01*
X158688380Y-57097380D01*
X157831238Y-57049761D02*
X157926476Y-57097380D01*
X158116952Y-57097380D01*
X158212190Y-57049761D01*
X158259809Y-56954523D01*
X158259809Y-56573571D01*
X158212190Y-56478333D01*
X158116952Y-56430714D01*
X157926476Y-56430714D01*
X157831238Y-56478333D01*
X157783619Y-56573571D01*
X157783619Y-56668809D01*
X158259809Y-56764047D01*
X157497904Y-56430714D02*
X157116952Y-56430714D01*
X157355047Y-56097380D02*
X157355047Y-56954523D01*
X157307428Y-57049761D01*
X157212190Y-57097380D01*
X157116952Y-57097380D01*
X156402666Y-57049761D02*
X156497904Y-57097380D01*
X156688380Y-57097380D01*
X156783619Y-57049761D01*
X156831238Y-56954523D01*
X156831238Y-56573571D01*
X156783619Y-56478333D01*
X156688380Y-56430714D01*
X156497904Y-56430714D01*
X156402666Y-56478333D01*
X156355047Y-56573571D01*
X156355047Y-56668809D01*
X156831238Y-56764047D01*
X155926476Y-57097380D02*
X155926476Y-56430714D01*
X155926476Y-56621190D02*
X155878857Y-56525952D01*
X155831238Y-56478333D01*
X155736000Y-56430714D01*
X155640761Y-56430714D01*
X162497904Y-58707380D02*
X162497904Y-57707380D01*
X162164571Y-58421666D01*
X161831238Y-57707380D01*
X161831238Y-58707380D01*
X160926476Y-58707380D02*
X160926476Y-58183571D01*
X160974095Y-58088333D01*
X161069333Y-58040714D01*
X161259809Y-58040714D01*
X161355047Y-58088333D01*
X160926476Y-58659761D02*
X161021714Y-58707380D01*
X161259809Y-58707380D01*
X161355047Y-58659761D01*
X161402666Y-58564523D01*
X161402666Y-58469285D01*
X161355047Y-58374047D01*
X161259809Y-58326428D01*
X161021714Y-58326428D01*
X160926476Y-58278809D01*
X160450285Y-58707380D02*
X160450285Y-58040714D01*
X160450285Y-57707380D02*
X160497904Y-57755000D01*
X160450285Y-57802619D01*
X160402666Y-57755000D01*
X160450285Y-57707380D01*
X160450285Y-57802619D01*
X159974095Y-58040714D02*
X159974095Y-58707380D01*
X159974095Y-58135952D02*
X159926476Y-58088333D01*
X159831238Y-58040714D01*
X159688380Y-58040714D01*
X159593142Y-58088333D01*
X159545523Y-58183571D01*
X159545523Y-58707380D01*
X157974095Y-58183571D02*
X157831238Y-58231190D01*
X157783619Y-58278809D01*
X157736000Y-58374047D01*
X157736000Y-58516904D01*
X157783619Y-58612142D01*
X157831238Y-58659761D01*
X157926476Y-58707380D01*
X158307428Y-58707380D01*
X158307428Y-57707380D01*
X157974095Y-57707380D01*
X157878857Y-57755000D01*
X157831238Y-57802619D01*
X157783619Y-57897857D01*
X157783619Y-57993095D01*
X157831238Y-58088333D01*
X157878857Y-58135952D01*
X157974095Y-58183571D01*
X158307428Y-58183571D01*
X157164571Y-58707380D02*
X157259809Y-58659761D01*
X157307428Y-58612142D01*
X157355047Y-58516904D01*
X157355047Y-58231190D01*
X157307428Y-58135952D01*
X157259809Y-58088333D01*
X157164571Y-58040714D01*
X157021714Y-58040714D01*
X156926476Y-58088333D01*
X156878857Y-58135952D01*
X156831238Y-58231190D01*
X156831238Y-58516904D01*
X156878857Y-58612142D01*
X156926476Y-58659761D01*
X157021714Y-58707380D01*
X157164571Y-58707380D01*
X155974095Y-58707380D02*
X155974095Y-58183571D01*
X156021714Y-58088333D01*
X156116952Y-58040714D01*
X156307428Y-58040714D01*
X156402666Y-58088333D01*
X155974095Y-58659761D02*
X156069333Y-58707380D01*
X156307428Y-58707380D01*
X156402666Y-58659761D01*
X156450285Y-58564523D01*
X156450285Y-58469285D01*
X156402666Y-58374047D01*
X156307428Y-58326428D01*
X156069333Y-58326428D01*
X155974095Y-58278809D01*
X155497904Y-58707380D02*
X155497904Y-58040714D01*
X155497904Y-58231190D02*
X155450285Y-58135952D01*
X155402666Y-58088333D01*
X155307428Y-58040714D01*
X155212190Y-58040714D01*
X154450285Y-58707380D02*
X154450285Y-57707380D01*
X154450285Y-58659761D02*
X154545523Y-58707380D01*
X154736000Y-58707380D01*
X154831238Y-58659761D01*
X154878857Y-58612142D01*
X154926476Y-58516904D01*
X154926476Y-58231190D01*
X154878857Y-58135952D01*
X154831238Y-58088333D01*
X154736000Y-58040714D01*
X154545523Y-58040714D01*
X154450285Y-58088333D01*
X119497904Y-57097380D02*
X119497904Y-56097380D01*
X119164571Y-56811666D01*
X118831238Y-56097380D01*
X118831238Y-57097380D01*
X118355047Y-57097380D02*
X118355047Y-56430714D01*
X118355047Y-56097380D02*
X118402666Y-56145000D01*
X118355047Y-56192619D01*
X118307428Y-56145000D01*
X118355047Y-56097380D01*
X118355047Y-56192619D01*
X117736000Y-57097380D02*
X117831238Y-57049761D01*
X117878857Y-56954523D01*
X117878857Y-56097380D01*
X117212190Y-57097380D02*
X117307428Y-57049761D01*
X117355047Y-56954523D01*
X117355047Y-56097380D01*
X116831238Y-57097380D02*
X116831238Y-56430714D01*
X116831238Y-56097380D02*
X116878857Y-56145000D01*
X116831238Y-56192619D01*
X116783619Y-56145000D01*
X116831238Y-56097380D01*
X116831238Y-56192619D01*
X116355047Y-57097380D02*
X116355047Y-56097380D01*
X116021714Y-56811666D01*
X115688380Y-56097380D01*
X115688380Y-57097380D01*
X114831238Y-57049761D02*
X114926476Y-57097380D01*
X115116952Y-57097380D01*
X115212190Y-57049761D01*
X115259809Y-56954523D01*
X115259809Y-56573571D01*
X115212190Y-56478333D01*
X115116952Y-56430714D01*
X114926476Y-56430714D01*
X114831238Y-56478333D01*
X114783619Y-56573571D01*
X114783619Y-56668809D01*
X115259809Y-56764047D01*
X114497904Y-56430714D02*
X114116952Y-56430714D01*
X114355047Y-56097380D02*
X114355047Y-56954523D01*
X114307428Y-57049761D01*
X114212190Y-57097380D01*
X114116952Y-57097380D01*
X113402666Y-57049761D02*
X113497904Y-57097380D01*
X113688380Y-57097380D01*
X113783619Y-57049761D01*
X113831238Y-56954523D01*
X113831238Y-56573571D01*
X113783619Y-56478333D01*
X113688380Y-56430714D01*
X113497904Y-56430714D01*
X113402666Y-56478333D01*
X113355047Y-56573571D01*
X113355047Y-56668809D01*
X113831238Y-56764047D01*
X112926476Y-57097380D02*
X112926476Y-56430714D01*
X112926476Y-56621190D02*
X112878857Y-56525952D01*
X112831238Y-56478333D01*
X112736000Y-56430714D01*
X112640761Y-56430714D01*
X119497904Y-58707380D02*
X119497904Y-57707380D01*
X119164571Y-58421666D01*
X118831238Y-57707380D01*
X118831238Y-58707380D01*
X117926476Y-58707380D02*
X117926476Y-58183571D01*
X117974095Y-58088333D01*
X118069333Y-58040714D01*
X118259809Y-58040714D01*
X118355047Y-58088333D01*
X117926476Y-58659761D02*
X118021714Y-58707380D01*
X118259809Y-58707380D01*
X118355047Y-58659761D01*
X118402666Y-58564523D01*
X118402666Y-58469285D01*
X118355047Y-58374047D01*
X118259809Y-58326428D01*
X118021714Y-58326428D01*
X117926476Y-58278809D01*
X117450285Y-58707380D02*
X117450285Y-58040714D01*
X117450285Y-57707380D02*
X117497904Y-57755000D01*
X117450285Y-57802619D01*
X117402666Y-57755000D01*
X117450285Y-57707380D01*
X117450285Y-57802619D01*
X116974095Y-58040714D02*
X116974095Y-58707380D01*
X116974095Y-58135952D02*
X116926476Y-58088333D01*
X116831238Y-58040714D01*
X116688380Y-58040714D01*
X116593142Y-58088333D01*
X116545523Y-58183571D01*
X116545523Y-58707380D01*
X114974095Y-58183571D02*
X114831238Y-58231190D01*
X114783619Y-58278809D01*
X114736000Y-58374047D01*
X114736000Y-58516904D01*
X114783619Y-58612142D01*
X114831238Y-58659761D01*
X114926476Y-58707380D01*
X115307428Y-58707380D01*
X115307428Y-57707380D01*
X114974095Y-57707380D01*
X114878857Y-57755000D01*
X114831238Y-57802619D01*
X114783619Y-57897857D01*
X114783619Y-57993095D01*
X114831238Y-58088333D01*
X114878857Y-58135952D01*
X114974095Y-58183571D01*
X115307428Y-58183571D01*
X114164571Y-58707380D02*
X114259809Y-58659761D01*
X114307428Y-58612142D01*
X114355047Y-58516904D01*
X114355047Y-58231190D01*
X114307428Y-58135952D01*
X114259809Y-58088333D01*
X114164571Y-58040714D01*
X114021714Y-58040714D01*
X113926476Y-58088333D01*
X113878857Y-58135952D01*
X113831238Y-58231190D01*
X113831238Y-58516904D01*
X113878857Y-58612142D01*
X113926476Y-58659761D01*
X114021714Y-58707380D01*
X114164571Y-58707380D01*
X112974095Y-58707380D02*
X112974095Y-58183571D01*
X113021714Y-58088333D01*
X113116952Y-58040714D01*
X113307428Y-58040714D01*
X113402666Y-58088333D01*
X112974095Y-58659761D02*
X113069333Y-58707380D01*
X113307428Y-58707380D01*
X113402666Y-58659761D01*
X113450285Y-58564523D01*
X113450285Y-58469285D01*
X113402666Y-58374047D01*
X113307428Y-58326428D01*
X113069333Y-58326428D01*
X112974095Y-58278809D01*
X112497904Y-58707380D02*
X112497904Y-58040714D01*
X112497904Y-58231190D02*
X112450285Y-58135952D01*
X112402666Y-58088333D01*
X112307428Y-58040714D01*
X112212190Y-58040714D01*
X111450285Y-58707380D02*
X111450285Y-57707380D01*
X111450285Y-58659761D02*
X111545523Y-58707380D01*
X111736000Y-58707380D01*
X111831238Y-58659761D01*
X111878857Y-58612142D01*
X111926476Y-58516904D01*
X111926476Y-58231190D01*
X111878857Y-58135952D01*
X111831238Y-58088333D01*
X111736000Y-58040714D01*
X111545523Y-58040714D01*
X111450285Y-58088333D01*
X184112142Y-38173523D02*
X184159761Y-38125904D01*
X184207380Y-37983047D01*
X184207380Y-37887809D01*
X184159761Y-37744952D01*
X184064523Y-37649714D01*
X183969285Y-37602095D01*
X183778809Y-37554476D01*
X183635952Y-37554476D01*
X183445476Y-37602095D01*
X183350238Y-37649714D01*
X183255000Y-37744952D01*
X183207380Y-37887809D01*
X183207380Y-37983047D01*
X183255000Y-38125904D01*
X183302619Y-38173523D01*
X184207380Y-38744952D02*
X184159761Y-38649714D01*
X184112142Y-38602095D01*
X184016904Y-38554476D01*
X183731190Y-38554476D01*
X183635952Y-38602095D01*
X183588333Y-38649714D01*
X183540714Y-38744952D01*
X183540714Y-38887809D01*
X183588333Y-38983047D01*
X183635952Y-39030666D01*
X183731190Y-39078285D01*
X184016904Y-39078285D01*
X184112142Y-39030666D01*
X184159761Y-38983047D01*
X184207380Y-38887809D01*
X184207380Y-38744952D01*
X183540714Y-39506857D02*
X184540714Y-39506857D01*
X183588333Y-39506857D02*
X183540714Y-39602095D01*
X183540714Y-39792571D01*
X183588333Y-39887809D01*
X183635952Y-39935428D01*
X183731190Y-39983047D01*
X184016904Y-39983047D01*
X184112142Y-39935428D01*
X184159761Y-39887809D01*
X184207380Y-39792571D01*
X184207380Y-39602095D01*
X184159761Y-39506857D01*
X183540714Y-40316380D02*
X184207380Y-40554476D01*
X183540714Y-40792571D02*
X184207380Y-40554476D01*
X184445476Y-40459238D01*
X184493095Y-40411619D01*
X184540714Y-40316380D01*
X184207380Y-41173523D02*
X183540714Y-41173523D01*
X183731190Y-41173523D02*
X183635952Y-41221142D01*
X183588333Y-41268761D01*
X183540714Y-41364000D01*
X183540714Y-41459238D01*
X184207380Y-41792571D02*
X183540714Y-41792571D01*
X183207380Y-41792571D02*
X183255000Y-41744952D01*
X183302619Y-41792571D01*
X183255000Y-41840190D01*
X183207380Y-41792571D01*
X183302619Y-41792571D01*
X183540714Y-42697333D02*
X184350238Y-42697333D01*
X184445476Y-42649714D01*
X184493095Y-42602095D01*
X184540714Y-42506857D01*
X184540714Y-42364000D01*
X184493095Y-42268761D01*
X184159761Y-42697333D02*
X184207380Y-42602095D01*
X184207380Y-42411619D01*
X184159761Y-42316380D01*
X184112142Y-42268761D01*
X184016904Y-42221142D01*
X183731190Y-42221142D01*
X183635952Y-42268761D01*
X183588333Y-42316380D01*
X183540714Y-42411619D01*
X183540714Y-42602095D01*
X183588333Y-42697333D01*
X184207380Y-43173523D02*
X183207380Y-43173523D01*
X184207380Y-43602095D02*
X183683571Y-43602095D01*
X183588333Y-43554476D01*
X183540714Y-43459238D01*
X183540714Y-43316380D01*
X183588333Y-43221142D01*
X183635952Y-43173523D01*
X183540714Y-43935428D02*
X183540714Y-44316380D01*
X183207380Y-44078285D02*
X184064523Y-44078285D01*
X184159761Y-44125904D01*
X184207380Y-44221142D01*
X184207380Y-44316380D01*
X184588333Y-45697333D02*
X184540714Y-45649714D01*
X184397857Y-45554476D01*
X184302619Y-45506857D01*
X184159761Y-45459238D01*
X183921666Y-45411619D01*
X183731190Y-45411619D01*
X183493095Y-45459238D01*
X183350238Y-45506857D01*
X183255000Y-45554476D01*
X183112142Y-45649714D01*
X183064523Y-45697333D01*
X184112142Y-46649714D02*
X184159761Y-46602095D01*
X184207380Y-46459238D01*
X184207380Y-46364000D01*
X184159761Y-46221142D01*
X184064523Y-46125904D01*
X183969285Y-46078285D01*
X183778809Y-46030666D01*
X183635952Y-46030666D01*
X183445476Y-46078285D01*
X183350238Y-46125904D01*
X183255000Y-46221142D01*
X183207380Y-46364000D01*
X183207380Y-46459238D01*
X183255000Y-46602095D01*
X183302619Y-46649714D01*
X184588333Y-46983047D02*
X184540714Y-47030666D01*
X184397857Y-47125904D01*
X184302619Y-47173523D01*
X184159761Y-47221142D01*
X183921666Y-47268761D01*
X183731190Y-47268761D01*
X183493095Y-47221142D01*
X183350238Y-47173523D01*
X183255000Y-47125904D01*
X183112142Y-47030666D01*
X183064523Y-46983047D01*
X183302619Y-48459238D02*
X183255000Y-48506857D01*
X183207380Y-48602095D01*
X183207380Y-48840190D01*
X183255000Y-48935428D01*
X183302619Y-48983047D01*
X183397857Y-49030666D01*
X183493095Y-49030666D01*
X183635952Y-48983047D01*
X184207380Y-48411619D01*
X184207380Y-49030666D01*
X183207380Y-49649714D02*
X183207380Y-49744952D01*
X183255000Y-49840190D01*
X183302619Y-49887809D01*
X183397857Y-49935428D01*
X183588333Y-49983047D01*
X183826428Y-49983047D01*
X184016904Y-49935428D01*
X184112142Y-49887809D01*
X184159761Y-49840190D01*
X184207380Y-49744952D01*
X184207380Y-49649714D01*
X184159761Y-49554476D01*
X184112142Y-49506857D01*
X184016904Y-49459238D01*
X183826428Y-49411619D01*
X183588333Y-49411619D01*
X183397857Y-49459238D01*
X183302619Y-49506857D01*
X183255000Y-49554476D01*
X183207380Y-49649714D01*
X183302619Y-50364000D02*
X183255000Y-50411619D01*
X183207380Y-50506857D01*
X183207380Y-50744952D01*
X183255000Y-50840190D01*
X183302619Y-50887809D01*
X183397857Y-50935428D01*
X183493095Y-50935428D01*
X183635952Y-50887809D01*
X184207380Y-50316380D01*
X184207380Y-50935428D01*
X183207380Y-51268761D02*
X183207380Y-51887809D01*
X183588333Y-51554476D01*
X183588333Y-51697333D01*
X183635952Y-51792571D01*
X183683571Y-51840190D01*
X183778809Y-51887809D01*
X184016904Y-51887809D01*
X184112142Y-51840190D01*
X184159761Y-51792571D01*
X184207380Y-51697333D01*
X184207380Y-51411619D01*
X184159761Y-51316380D01*
X184112142Y-51268761D01*
X185293571Y-37935428D02*
X185341190Y-38078285D01*
X185388809Y-38125904D01*
X185484047Y-38173523D01*
X185626904Y-38173523D01*
X185722142Y-38125904D01*
X185769761Y-38078285D01*
X185817380Y-37983047D01*
X185817380Y-37602095D01*
X184817380Y-37602095D01*
X184817380Y-37935428D01*
X184865000Y-38030666D01*
X184912619Y-38078285D01*
X185007857Y-38125904D01*
X185103095Y-38125904D01*
X185198333Y-38078285D01*
X185245952Y-38030666D01*
X185293571Y-37935428D01*
X185293571Y-37602095D01*
X185150714Y-38506857D02*
X185817380Y-38744952D01*
X185150714Y-38983047D02*
X185817380Y-38744952D01*
X186055476Y-38649714D01*
X186103095Y-38602095D01*
X186150714Y-38506857D01*
X184817380Y-40411619D02*
X185531666Y-40411619D01*
X185674523Y-40364000D01*
X185769761Y-40268761D01*
X185817380Y-40125904D01*
X185817380Y-40030666D01*
X185817380Y-41316380D02*
X185293571Y-41316380D01*
X185198333Y-41268761D01*
X185150714Y-41173523D01*
X185150714Y-40983047D01*
X185198333Y-40887809D01*
X185769761Y-41316380D02*
X185817380Y-41221142D01*
X185817380Y-40983047D01*
X185769761Y-40887809D01*
X185674523Y-40840190D01*
X185579285Y-40840190D01*
X185484047Y-40887809D01*
X185436428Y-40983047D01*
X185436428Y-41221142D01*
X185388809Y-41316380D01*
X185769761Y-42221142D02*
X185817380Y-42125904D01*
X185817380Y-41935428D01*
X185769761Y-41840190D01*
X185722142Y-41792571D01*
X185626904Y-41744952D01*
X185341190Y-41744952D01*
X185245952Y-41792571D01*
X185198333Y-41840190D01*
X185150714Y-41935428D01*
X185150714Y-42125904D01*
X185198333Y-42221142D01*
X185817380Y-42649714D02*
X184817380Y-42649714D01*
X185436428Y-42744952D02*
X185817380Y-43030666D01*
X185150714Y-43030666D02*
X185531666Y-42649714D01*
X185769761Y-43411619D02*
X185817380Y-43506857D01*
X185817380Y-43697333D01*
X185769761Y-43792571D01*
X185674523Y-43840190D01*
X185626904Y-43840190D01*
X185531666Y-43792571D01*
X185484047Y-43697333D01*
X185484047Y-43554476D01*
X185436428Y-43459238D01*
X185341190Y-43411619D01*
X185293571Y-43411619D01*
X185198333Y-43459238D01*
X185150714Y-43554476D01*
X185150714Y-43697333D01*
X185198333Y-43792571D01*
X185817380Y-44411619D02*
X185769761Y-44316380D01*
X185722142Y-44268761D01*
X185626904Y-44221142D01*
X185341190Y-44221142D01*
X185245952Y-44268761D01*
X185198333Y-44316380D01*
X185150714Y-44411619D01*
X185150714Y-44554476D01*
X185198333Y-44649714D01*
X185245952Y-44697333D01*
X185341190Y-44744952D01*
X185626904Y-44744952D01*
X185722142Y-44697333D01*
X185769761Y-44649714D01*
X185817380Y-44554476D01*
X185817380Y-44411619D01*
X185150714Y-45173523D02*
X185817380Y-45173523D01*
X185245952Y-45173523D02*
X185198333Y-45221142D01*
X185150714Y-45316380D01*
X185150714Y-45459238D01*
X185198333Y-45554476D01*
X185293571Y-45602095D01*
X185817380Y-45602095D01*
X185817380Y-46840190D02*
X184817380Y-46840190D01*
X185531666Y-47173523D01*
X184817380Y-47506857D01*
X185817380Y-47506857D01*
X185817380Y-48744952D02*
X184817380Y-48744952D01*
X185293571Y-48744952D02*
X185293571Y-49316380D01*
X185817380Y-49316380D02*
X184817380Y-49316380D01*
X185150714Y-50221142D02*
X185817380Y-50221142D01*
X185150714Y-49792571D02*
X185674523Y-49792571D01*
X185769761Y-49840190D01*
X185817380Y-49935428D01*
X185817380Y-50078285D01*
X185769761Y-50173523D01*
X185722142Y-50221142D01*
X185817380Y-53554476D02*
X185341190Y-53221142D01*
X185817380Y-52983047D02*
X184817380Y-52983047D01*
X184817380Y-53363999D01*
X184865000Y-53459238D01*
X184912619Y-53506857D01*
X185007857Y-53554476D01*
X185150714Y-53554476D01*
X185245952Y-53506857D01*
X185293571Y-53459238D01*
X185341190Y-53363999D01*
X185341190Y-52983047D01*
X185769761Y-54363999D02*
X185817380Y-54268761D01*
X185817380Y-54078285D01*
X185769761Y-53983047D01*
X185674523Y-53935428D01*
X185293571Y-53935428D01*
X185198333Y-53983047D01*
X185150714Y-54078285D01*
X185150714Y-54268761D01*
X185198333Y-54363999D01*
X185293571Y-54411619D01*
X185388809Y-54411619D01*
X185484047Y-53935428D01*
X185150714Y-54744952D02*
X185817380Y-54983047D01*
X185150714Y-55221142D01*
X185722142Y-55602095D02*
X185769761Y-55649714D01*
X185817380Y-55602095D01*
X185769761Y-55554476D01*
X185722142Y-55602095D01*
X185817380Y-55602095D01*
X185817380Y-57363999D02*
X185817380Y-56792571D01*
X185817380Y-57078285D02*
X184817380Y-57078285D01*
X184960238Y-56983047D01*
X185055476Y-56887809D01*
X185103095Y-56792571D01*
X141112142Y-38173523D02*
X141159761Y-38125904D01*
X141207380Y-37983047D01*
X141207380Y-37887809D01*
X141159761Y-37744952D01*
X141064523Y-37649714D01*
X140969285Y-37602095D01*
X140778809Y-37554476D01*
X140635952Y-37554476D01*
X140445476Y-37602095D01*
X140350238Y-37649714D01*
X140255000Y-37744952D01*
X140207380Y-37887809D01*
X140207380Y-37983047D01*
X140255000Y-38125904D01*
X140302619Y-38173523D01*
X141207380Y-38744952D02*
X141159761Y-38649714D01*
X141112142Y-38602095D01*
X141016904Y-38554476D01*
X140731190Y-38554476D01*
X140635952Y-38602095D01*
X140588333Y-38649714D01*
X140540714Y-38744952D01*
X140540714Y-38887809D01*
X140588333Y-38983047D01*
X140635952Y-39030666D01*
X140731190Y-39078285D01*
X141016904Y-39078285D01*
X141112142Y-39030666D01*
X141159761Y-38983047D01*
X141207380Y-38887809D01*
X141207380Y-38744952D01*
X140540714Y-39506857D02*
X141540714Y-39506857D01*
X140588333Y-39506857D02*
X140540714Y-39602095D01*
X140540714Y-39792571D01*
X140588333Y-39887809D01*
X140635952Y-39935428D01*
X140731190Y-39983047D01*
X141016904Y-39983047D01*
X141112142Y-39935428D01*
X141159761Y-39887809D01*
X141207380Y-39792571D01*
X141207380Y-39602095D01*
X141159761Y-39506857D01*
X140540714Y-40316380D02*
X141207380Y-40554476D01*
X140540714Y-40792571D02*
X141207380Y-40554476D01*
X141445476Y-40459238D01*
X141493095Y-40411619D01*
X141540714Y-40316380D01*
X141207380Y-41173523D02*
X140540714Y-41173523D01*
X140731190Y-41173523D02*
X140635952Y-41221142D01*
X140588333Y-41268761D01*
X140540714Y-41364000D01*
X140540714Y-41459238D01*
X141207380Y-41792571D02*
X140540714Y-41792571D01*
X140207380Y-41792571D02*
X140255000Y-41744952D01*
X140302619Y-41792571D01*
X140255000Y-41840190D01*
X140207380Y-41792571D01*
X140302619Y-41792571D01*
X140540714Y-42697333D02*
X141350238Y-42697333D01*
X141445476Y-42649714D01*
X141493095Y-42602095D01*
X141540714Y-42506857D01*
X141540714Y-42364000D01*
X141493095Y-42268761D01*
X141159761Y-42697333D02*
X141207380Y-42602095D01*
X141207380Y-42411619D01*
X141159761Y-42316380D01*
X141112142Y-42268761D01*
X141016904Y-42221142D01*
X140731190Y-42221142D01*
X140635952Y-42268761D01*
X140588333Y-42316380D01*
X140540714Y-42411619D01*
X140540714Y-42602095D01*
X140588333Y-42697333D01*
X141207380Y-43173523D02*
X140207380Y-43173523D01*
X141207380Y-43602095D02*
X140683571Y-43602095D01*
X140588333Y-43554476D01*
X140540714Y-43459238D01*
X140540714Y-43316380D01*
X140588333Y-43221142D01*
X140635952Y-43173523D01*
X140540714Y-43935428D02*
X140540714Y-44316380D01*
X140207380Y-44078285D02*
X141064523Y-44078285D01*
X141159761Y-44125904D01*
X141207380Y-44221142D01*
X141207380Y-44316380D01*
X141588333Y-45697333D02*
X141540714Y-45649714D01*
X141397857Y-45554476D01*
X141302619Y-45506857D01*
X141159761Y-45459238D01*
X140921666Y-45411619D01*
X140731190Y-45411619D01*
X140493095Y-45459238D01*
X140350238Y-45506857D01*
X140255000Y-45554476D01*
X140112142Y-45649714D01*
X140064523Y-45697333D01*
X141112142Y-46649714D02*
X141159761Y-46602095D01*
X141207380Y-46459238D01*
X141207380Y-46364000D01*
X141159761Y-46221142D01*
X141064523Y-46125904D01*
X140969285Y-46078285D01*
X140778809Y-46030666D01*
X140635952Y-46030666D01*
X140445476Y-46078285D01*
X140350238Y-46125904D01*
X140255000Y-46221142D01*
X140207380Y-46364000D01*
X140207380Y-46459238D01*
X140255000Y-46602095D01*
X140302619Y-46649714D01*
X141588333Y-46983047D02*
X141540714Y-47030666D01*
X141397857Y-47125904D01*
X141302619Y-47173523D01*
X141159761Y-47221142D01*
X140921666Y-47268761D01*
X140731190Y-47268761D01*
X140493095Y-47221142D01*
X140350238Y-47173523D01*
X140255000Y-47125904D01*
X140112142Y-47030666D01*
X140064523Y-46983047D01*
X140302619Y-48459238D02*
X140255000Y-48506857D01*
X140207380Y-48602095D01*
X140207380Y-48840190D01*
X140255000Y-48935428D01*
X140302619Y-48983047D01*
X140397857Y-49030666D01*
X140493095Y-49030666D01*
X140635952Y-48983047D01*
X141207380Y-48411619D01*
X141207380Y-49030666D01*
X140207380Y-49649714D02*
X140207380Y-49744952D01*
X140255000Y-49840190D01*
X140302619Y-49887809D01*
X140397857Y-49935428D01*
X140588333Y-49983047D01*
X140826428Y-49983047D01*
X141016904Y-49935428D01*
X141112142Y-49887809D01*
X141159761Y-49840190D01*
X141207380Y-49744952D01*
X141207380Y-49649714D01*
X141159761Y-49554476D01*
X141112142Y-49506857D01*
X141016904Y-49459238D01*
X140826428Y-49411619D01*
X140588333Y-49411619D01*
X140397857Y-49459238D01*
X140302619Y-49506857D01*
X140255000Y-49554476D01*
X140207380Y-49649714D01*
X140302619Y-50364000D02*
X140255000Y-50411619D01*
X140207380Y-50506857D01*
X140207380Y-50744952D01*
X140255000Y-50840190D01*
X140302619Y-50887809D01*
X140397857Y-50935428D01*
X140493095Y-50935428D01*
X140635952Y-50887809D01*
X141207380Y-50316380D01*
X141207380Y-50935428D01*
X140207380Y-51268761D02*
X140207380Y-51887809D01*
X140588333Y-51554476D01*
X140588333Y-51697333D01*
X140635952Y-51792571D01*
X140683571Y-51840190D01*
X140778809Y-51887809D01*
X141016904Y-51887809D01*
X141112142Y-51840190D01*
X141159761Y-51792571D01*
X141207380Y-51697333D01*
X141207380Y-51411619D01*
X141159761Y-51316380D01*
X141112142Y-51268761D01*
X142293571Y-37935428D02*
X142341190Y-38078285D01*
X142388809Y-38125904D01*
X142484047Y-38173523D01*
X142626904Y-38173523D01*
X142722142Y-38125904D01*
X142769761Y-38078285D01*
X142817380Y-37983047D01*
X142817380Y-37602095D01*
X141817380Y-37602095D01*
X141817380Y-37935428D01*
X141865000Y-38030666D01*
X141912619Y-38078285D01*
X142007857Y-38125904D01*
X142103095Y-38125904D01*
X142198333Y-38078285D01*
X142245952Y-38030666D01*
X142293571Y-37935428D01*
X142293571Y-37602095D01*
X142150714Y-38506857D02*
X142817380Y-38744952D01*
X142150714Y-38983047D02*
X142817380Y-38744952D01*
X143055476Y-38649714D01*
X143103095Y-38602095D01*
X143150714Y-38506857D01*
X141817380Y-40411619D02*
X142531666Y-40411619D01*
X142674523Y-40364000D01*
X142769761Y-40268761D01*
X142817380Y-40125904D01*
X142817380Y-40030666D01*
X142817380Y-41316380D02*
X142293571Y-41316380D01*
X142198333Y-41268761D01*
X142150714Y-41173523D01*
X142150714Y-40983047D01*
X142198333Y-40887809D01*
X142769761Y-41316380D02*
X142817380Y-41221142D01*
X142817380Y-40983047D01*
X142769761Y-40887809D01*
X142674523Y-40840190D01*
X142579285Y-40840190D01*
X142484047Y-40887809D01*
X142436428Y-40983047D01*
X142436428Y-41221142D01*
X142388809Y-41316380D01*
X142769761Y-42221142D02*
X142817380Y-42125904D01*
X142817380Y-41935428D01*
X142769761Y-41840190D01*
X142722142Y-41792571D01*
X142626904Y-41744952D01*
X142341190Y-41744952D01*
X142245952Y-41792571D01*
X142198333Y-41840190D01*
X142150714Y-41935428D01*
X142150714Y-42125904D01*
X142198333Y-42221142D01*
X142817380Y-42649714D02*
X141817380Y-42649714D01*
X142436428Y-42744952D02*
X142817380Y-43030666D01*
X142150714Y-43030666D02*
X142531666Y-42649714D01*
X142769761Y-43411619D02*
X142817380Y-43506857D01*
X142817380Y-43697333D01*
X142769761Y-43792571D01*
X142674523Y-43840190D01*
X142626904Y-43840190D01*
X142531666Y-43792571D01*
X142484047Y-43697333D01*
X142484047Y-43554476D01*
X142436428Y-43459238D01*
X142341190Y-43411619D01*
X142293571Y-43411619D01*
X142198333Y-43459238D01*
X142150714Y-43554476D01*
X142150714Y-43697333D01*
X142198333Y-43792571D01*
X142817380Y-44411619D02*
X142769761Y-44316380D01*
X142722142Y-44268761D01*
X142626904Y-44221142D01*
X142341190Y-44221142D01*
X142245952Y-44268761D01*
X142198333Y-44316380D01*
X142150714Y-44411619D01*
X142150714Y-44554476D01*
X142198333Y-44649714D01*
X142245952Y-44697333D01*
X142341190Y-44744952D01*
X142626904Y-44744952D01*
X142722142Y-44697333D01*
X142769761Y-44649714D01*
X142817380Y-44554476D01*
X142817380Y-44411619D01*
X142150714Y-45173523D02*
X142817380Y-45173523D01*
X142245952Y-45173523D02*
X142198333Y-45221142D01*
X142150714Y-45316380D01*
X142150714Y-45459238D01*
X142198333Y-45554476D01*
X142293571Y-45602095D01*
X142817380Y-45602095D01*
X142817380Y-46840190D02*
X141817380Y-46840190D01*
X142531666Y-47173523D01*
X141817380Y-47506857D01*
X142817380Y-47506857D01*
X142817380Y-48744952D02*
X141817380Y-48744952D01*
X142293571Y-48744952D02*
X142293571Y-49316380D01*
X142817380Y-49316380D02*
X141817380Y-49316380D01*
X142150714Y-50221142D02*
X142817380Y-50221142D01*
X142150714Y-49792571D02*
X142674523Y-49792571D01*
X142769761Y-49840190D01*
X142817380Y-49935428D01*
X142817380Y-50078285D01*
X142769761Y-50173523D01*
X142722142Y-50221142D01*
X142817380Y-53554476D02*
X142341190Y-53221142D01*
X142817380Y-52983047D02*
X141817380Y-52983047D01*
X141817380Y-53364000D01*
X141865000Y-53459238D01*
X141912619Y-53506857D01*
X142007857Y-53554476D01*
X142150714Y-53554476D01*
X142245952Y-53506857D01*
X142293571Y-53459238D01*
X142341190Y-53364000D01*
X142341190Y-52983047D01*
X142769761Y-54364000D02*
X142817380Y-54268761D01*
X142817380Y-54078285D01*
X142769761Y-53983047D01*
X142674523Y-53935428D01*
X142293571Y-53935428D01*
X142198333Y-53983047D01*
X142150714Y-54078285D01*
X142150714Y-54268761D01*
X142198333Y-54364000D01*
X142293571Y-54411619D01*
X142388809Y-54411619D01*
X142484047Y-53935428D01*
X142150714Y-54744952D02*
X142817380Y-54983047D01*
X142150714Y-55221142D01*
X142722142Y-55602095D02*
X142769761Y-55649714D01*
X142817380Y-55602095D01*
X142769761Y-55554476D01*
X142722142Y-55602095D01*
X142817380Y-55602095D01*
X142817380Y-57364000D02*
X142817380Y-56792571D01*
X142817380Y-57078285D02*
X141817380Y-57078285D01*
X141960238Y-56983047D01*
X142055476Y-56887809D01*
X142103095Y-56792571D01*
X141112142Y-80173523D02*
X141159761Y-80125904D01*
X141207380Y-79983047D01*
X141207380Y-79887809D01*
X141159761Y-79744952D01*
X141064523Y-79649714D01*
X140969285Y-79602095D01*
X140778809Y-79554476D01*
X140635952Y-79554476D01*
X140445476Y-79602095D01*
X140350238Y-79649714D01*
X140255000Y-79744952D01*
X140207380Y-79887809D01*
X140207380Y-79983047D01*
X140255000Y-80125904D01*
X140302619Y-80173523D01*
X141207380Y-80744952D02*
X141159761Y-80649714D01*
X141112142Y-80602095D01*
X141016904Y-80554476D01*
X140731190Y-80554476D01*
X140635952Y-80602095D01*
X140588333Y-80649714D01*
X140540714Y-80744952D01*
X140540714Y-80887809D01*
X140588333Y-80983047D01*
X140635952Y-81030666D01*
X140731190Y-81078285D01*
X141016904Y-81078285D01*
X141112142Y-81030666D01*
X141159761Y-80983047D01*
X141207380Y-80887809D01*
X141207380Y-80744952D01*
X140540714Y-81506857D02*
X141540714Y-81506857D01*
X140588333Y-81506857D02*
X140540714Y-81602095D01*
X140540714Y-81792571D01*
X140588333Y-81887809D01*
X140635952Y-81935428D01*
X140731190Y-81983047D01*
X141016904Y-81983047D01*
X141112142Y-81935428D01*
X141159761Y-81887809D01*
X141207380Y-81792571D01*
X141207380Y-81602095D01*
X141159761Y-81506857D01*
X140540714Y-82316380D02*
X141207380Y-82554476D01*
X140540714Y-82792571D02*
X141207380Y-82554476D01*
X141445476Y-82459238D01*
X141493095Y-82411619D01*
X141540714Y-82316380D01*
X141207380Y-83173523D02*
X140540714Y-83173523D01*
X140731190Y-83173523D02*
X140635952Y-83221142D01*
X140588333Y-83268761D01*
X140540714Y-83364000D01*
X140540714Y-83459238D01*
X141207380Y-83792571D02*
X140540714Y-83792571D01*
X140207380Y-83792571D02*
X140255000Y-83744952D01*
X140302619Y-83792571D01*
X140255000Y-83840190D01*
X140207380Y-83792571D01*
X140302619Y-83792571D01*
X140540714Y-84697333D02*
X141350238Y-84697333D01*
X141445476Y-84649714D01*
X141493095Y-84602095D01*
X141540714Y-84506857D01*
X141540714Y-84364000D01*
X141493095Y-84268761D01*
X141159761Y-84697333D02*
X141207380Y-84602095D01*
X141207380Y-84411619D01*
X141159761Y-84316380D01*
X141112142Y-84268761D01*
X141016904Y-84221142D01*
X140731190Y-84221142D01*
X140635952Y-84268761D01*
X140588333Y-84316380D01*
X140540714Y-84411619D01*
X140540714Y-84602095D01*
X140588333Y-84697333D01*
X141207380Y-85173523D02*
X140207380Y-85173523D01*
X141207380Y-85602095D02*
X140683571Y-85602095D01*
X140588333Y-85554476D01*
X140540714Y-85459238D01*
X140540714Y-85316380D01*
X140588333Y-85221142D01*
X140635952Y-85173523D01*
X140540714Y-85935428D02*
X140540714Y-86316380D01*
X140207380Y-86078285D02*
X141064523Y-86078285D01*
X141159761Y-86125904D01*
X141207380Y-86221142D01*
X141207380Y-86316380D01*
X141588333Y-87697333D02*
X141540714Y-87649714D01*
X141397857Y-87554476D01*
X141302619Y-87506857D01*
X141159761Y-87459238D01*
X140921666Y-87411619D01*
X140731190Y-87411619D01*
X140493095Y-87459238D01*
X140350238Y-87506857D01*
X140255000Y-87554476D01*
X140112142Y-87649714D01*
X140064523Y-87697333D01*
X141112142Y-88649714D02*
X141159761Y-88602095D01*
X141207380Y-88459238D01*
X141207380Y-88364000D01*
X141159761Y-88221142D01*
X141064523Y-88125904D01*
X140969285Y-88078285D01*
X140778809Y-88030666D01*
X140635952Y-88030666D01*
X140445476Y-88078285D01*
X140350238Y-88125904D01*
X140255000Y-88221142D01*
X140207380Y-88364000D01*
X140207380Y-88459238D01*
X140255000Y-88602095D01*
X140302619Y-88649714D01*
X141588333Y-88983047D02*
X141540714Y-89030666D01*
X141397857Y-89125904D01*
X141302619Y-89173523D01*
X141159761Y-89221142D01*
X140921666Y-89268761D01*
X140731190Y-89268761D01*
X140493095Y-89221142D01*
X140350238Y-89173523D01*
X140255000Y-89125904D01*
X140112142Y-89030666D01*
X140064523Y-88983047D01*
X140302619Y-90459238D02*
X140255000Y-90506857D01*
X140207380Y-90602095D01*
X140207380Y-90840190D01*
X140255000Y-90935428D01*
X140302619Y-90983047D01*
X140397857Y-91030666D01*
X140493095Y-91030666D01*
X140635952Y-90983047D01*
X141207380Y-90411619D01*
X141207380Y-91030666D01*
X140207380Y-91649714D02*
X140207380Y-91744952D01*
X140255000Y-91840190D01*
X140302619Y-91887809D01*
X140397857Y-91935428D01*
X140588333Y-91983047D01*
X140826428Y-91983047D01*
X141016904Y-91935428D01*
X141112142Y-91887809D01*
X141159761Y-91840190D01*
X141207380Y-91744952D01*
X141207380Y-91649714D01*
X141159761Y-91554476D01*
X141112142Y-91506857D01*
X141016904Y-91459238D01*
X140826428Y-91411619D01*
X140588333Y-91411619D01*
X140397857Y-91459238D01*
X140302619Y-91506857D01*
X140255000Y-91554476D01*
X140207380Y-91649714D01*
X140302619Y-92364000D02*
X140255000Y-92411619D01*
X140207380Y-92506857D01*
X140207380Y-92744952D01*
X140255000Y-92840190D01*
X140302619Y-92887809D01*
X140397857Y-92935428D01*
X140493095Y-92935428D01*
X140635952Y-92887809D01*
X141207380Y-92316380D01*
X141207380Y-92935428D01*
X140207380Y-93268761D02*
X140207380Y-93887809D01*
X140588333Y-93554476D01*
X140588333Y-93697333D01*
X140635952Y-93792571D01*
X140683571Y-93840190D01*
X140778809Y-93887809D01*
X141016904Y-93887809D01*
X141112142Y-93840190D01*
X141159761Y-93792571D01*
X141207380Y-93697333D01*
X141207380Y-93411619D01*
X141159761Y-93316380D01*
X141112142Y-93268761D01*
X142293571Y-79935428D02*
X142341190Y-80078285D01*
X142388809Y-80125904D01*
X142484047Y-80173523D01*
X142626904Y-80173523D01*
X142722142Y-80125904D01*
X142769761Y-80078285D01*
X142817380Y-79983047D01*
X142817380Y-79602095D01*
X141817380Y-79602095D01*
X141817380Y-79935428D01*
X141865000Y-80030666D01*
X141912619Y-80078285D01*
X142007857Y-80125904D01*
X142103095Y-80125904D01*
X142198333Y-80078285D01*
X142245952Y-80030666D01*
X142293571Y-79935428D01*
X142293571Y-79602095D01*
X142150714Y-80506857D02*
X142817380Y-80744952D01*
X142150714Y-80983047D02*
X142817380Y-80744952D01*
X143055476Y-80649714D01*
X143103095Y-80602095D01*
X143150714Y-80506857D01*
X141817380Y-82411619D02*
X142531666Y-82411619D01*
X142674523Y-82364000D01*
X142769761Y-82268761D01*
X142817380Y-82125904D01*
X142817380Y-82030666D01*
X142817380Y-83316380D02*
X142293571Y-83316380D01*
X142198333Y-83268761D01*
X142150714Y-83173523D01*
X142150714Y-82983047D01*
X142198333Y-82887809D01*
X142769761Y-83316380D02*
X142817380Y-83221142D01*
X142817380Y-82983047D01*
X142769761Y-82887809D01*
X142674523Y-82840190D01*
X142579285Y-82840190D01*
X142484047Y-82887809D01*
X142436428Y-82983047D01*
X142436428Y-83221142D01*
X142388809Y-83316380D01*
X142769761Y-84221142D02*
X142817380Y-84125904D01*
X142817380Y-83935428D01*
X142769761Y-83840190D01*
X142722142Y-83792571D01*
X142626904Y-83744952D01*
X142341190Y-83744952D01*
X142245952Y-83792571D01*
X142198333Y-83840190D01*
X142150714Y-83935428D01*
X142150714Y-84125904D01*
X142198333Y-84221142D01*
X142817380Y-84649714D02*
X141817380Y-84649714D01*
X142436428Y-84744952D02*
X142817380Y-85030666D01*
X142150714Y-85030666D02*
X142531666Y-84649714D01*
X142769761Y-85411619D02*
X142817380Y-85506857D01*
X142817380Y-85697333D01*
X142769761Y-85792571D01*
X142674523Y-85840190D01*
X142626904Y-85840190D01*
X142531666Y-85792571D01*
X142484047Y-85697333D01*
X142484047Y-85554476D01*
X142436428Y-85459238D01*
X142341190Y-85411619D01*
X142293571Y-85411619D01*
X142198333Y-85459238D01*
X142150714Y-85554476D01*
X142150714Y-85697333D01*
X142198333Y-85792571D01*
X142817380Y-86411619D02*
X142769761Y-86316380D01*
X142722142Y-86268761D01*
X142626904Y-86221142D01*
X142341190Y-86221142D01*
X142245952Y-86268761D01*
X142198333Y-86316380D01*
X142150714Y-86411619D01*
X142150714Y-86554476D01*
X142198333Y-86649714D01*
X142245952Y-86697333D01*
X142341190Y-86744952D01*
X142626904Y-86744952D01*
X142722142Y-86697333D01*
X142769761Y-86649714D01*
X142817380Y-86554476D01*
X142817380Y-86411619D01*
X142150714Y-87173523D02*
X142817380Y-87173523D01*
X142245952Y-87173523D02*
X142198333Y-87221142D01*
X142150714Y-87316380D01*
X142150714Y-87459238D01*
X142198333Y-87554476D01*
X142293571Y-87602095D01*
X142817380Y-87602095D01*
X142817380Y-88840190D02*
X141817380Y-88840190D01*
X142531666Y-89173523D01*
X141817380Y-89506857D01*
X142817380Y-89506857D01*
X142817380Y-90744952D02*
X141817380Y-90744952D01*
X142293571Y-90744952D02*
X142293571Y-91316380D01*
X142817380Y-91316380D02*
X141817380Y-91316380D01*
X142150714Y-92221142D02*
X142817380Y-92221142D01*
X142150714Y-91792571D02*
X142674523Y-91792571D01*
X142769761Y-91840190D01*
X142817380Y-91935428D01*
X142817380Y-92078285D01*
X142769761Y-92173523D01*
X142722142Y-92221142D01*
X142817380Y-95554476D02*
X142341190Y-95221142D01*
X142817380Y-94983047D02*
X141817380Y-94983047D01*
X141817380Y-95364000D01*
X141865000Y-95459238D01*
X141912619Y-95506857D01*
X142007857Y-95554476D01*
X142150714Y-95554476D01*
X142245952Y-95506857D01*
X142293571Y-95459238D01*
X142341190Y-95364000D01*
X142341190Y-94983047D01*
X142769761Y-96364000D02*
X142817380Y-96268761D01*
X142817380Y-96078285D01*
X142769761Y-95983047D01*
X142674523Y-95935428D01*
X142293571Y-95935428D01*
X142198333Y-95983047D01*
X142150714Y-96078285D01*
X142150714Y-96268761D01*
X142198333Y-96364000D01*
X142293571Y-96411619D01*
X142388809Y-96411619D01*
X142484047Y-95935428D01*
X142150714Y-96744952D02*
X142817380Y-96983047D01*
X142150714Y-97221142D01*
X142722142Y-97602095D02*
X142769761Y-97649714D01*
X142817380Y-97602095D01*
X142769761Y-97554476D01*
X142722142Y-97602095D01*
X142817380Y-97602095D01*
X142817380Y-99364000D02*
X142817380Y-98792571D01*
X142817380Y-99078285D02*
X141817380Y-99078285D01*
X141960238Y-98983047D01*
X142055476Y-98887809D01*
X142103095Y-98792571D01*
X184112142Y-80173523D02*
X184159761Y-80125904D01*
X184207380Y-79983047D01*
X184207380Y-79887809D01*
X184159761Y-79744952D01*
X184064523Y-79649714D01*
X183969285Y-79602095D01*
X183778809Y-79554476D01*
X183635952Y-79554476D01*
X183445476Y-79602095D01*
X183350238Y-79649714D01*
X183255000Y-79744952D01*
X183207380Y-79887809D01*
X183207380Y-79983047D01*
X183255000Y-80125904D01*
X183302619Y-80173523D01*
X184207380Y-80744952D02*
X184159761Y-80649714D01*
X184112142Y-80602095D01*
X184016904Y-80554476D01*
X183731190Y-80554476D01*
X183635952Y-80602095D01*
X183588333Y-80649714D01*
X183540714Y-80744952D01*
X183540714Y-80887809D01*
X183588333Y-80983047D01*
X183635952Y-81030666D01*
X183731190Y-81078285D01*
X184016904Y-81078285D01*
X184112142Y-81030666D01*
X184159761Y-80983047D01*
X184207380Y-80887809D01*
X184207380Y-80744952D01*
X183540714Y-81506857D02*
X184540714Y-81506857D01*
X183588333Y-81506857D02*
X183540714Y-81602095D01*
X183540714Y-81792571D01*
X183588333Y-81887809D01*
X183635952Y-81935428D01*
X183731190Y-81983047D01*
X184016904Y-81983047D01*
X184112142Y-81935428D01*
X184159761Y-81887809D01*
X184207380Y-81792571D01*
X184207380Y-81602095D01*
X184159761Y-81506857D01*
X183540714Y-82316380D02*
X184207380Y-82554476D01*
X183540714Y-82792571D02*
X184207380Y-82554476D01*
X184445476Y-82459238D01*
X184493095Y-82411619D01*
X184540714Y-82316380D01*
X184207380Y-83173523D02*
X183540714Y-83173523D01*
X183731190Y-83173523D02*
X183635952Y-83221142D01*
X183588333Y-83268761D01*
X183540714Y-83364000D01*
X183540714Y-83459238D01*
X184207380Y-83792571D02*
X183540714Y-83792571D01*
X183207380Y-83792571D02*
X183255000Y-83744952D01*
X183302619Y-83792571D01*
X183255000Y-83840190D01*
X183207380Y-83792571D01*
X183302619Y-83792571D01*
X183540714Y-84697333D02*
X184350238Y-84697333D01*
X184445476Y-84649714D01*
X184493095Y-84602095D01*
X184540714Y-84506857D01*
X184540714Y-84364000D01*
X184493095Y-84268761D01*
X184159761Y-84697333D02*
X184207380Y-84602095D01*
X184207380Y-84411619D01*
X184159761Y-84316380D01*
X184112142Y-84268761D01*
X184016904Y-84221142D01*
X183731190Y-84221142D01*
X183635952Y-84268761D01*
X183588333Y-84316380D01*
X183540714Y-84411619D01*
X183540714Y-84602095D01*
X183588333Y-84697333D01*
X184207380Y-85173523D02*
X183207380Y-85173523D01*
X184207380Y-85602095D02*
X183683571Y-85602095D01*
X183588333Y-85554476D01*
X183540714Y-85459238D01*
X183540714Y-85316380D01*
X183588333Y-85221142D01*
X183635952Y-85173523D01*
X183540714Y-85935428D02*
X183540714Y-86316380D01*
X183207380Y-86078285D02*
X184064523Y-86078285D01*
X184159761Y-86125904D01*
X184207380Y-86221142D01*
X184207380Y-86316380D01*
X184588333Y-87697333D02*
X184540714Y-87649714D01*
X184397857Y-87554476D01*
X184302619Y-87506857D01*
X184159761Y-87459238D01*
X183921666Y-87411619D01*
X183731190Y-87411619D01*
X183493095Y-87459238D01*
X183350238Y-87506857D01*
X183255000Y-87554476D01*
X183112142Y-87649714D01*
X183064523Y-87697333D01*
X184112142Y-88649714D02*
X184159761Y-88602095D01*
X184207380Y-88459238D01*
X184207380Y-88364000D01*
X184159761Y-88221142D01*
X184064523Y-88125904D01*
X183969285Y-88078285D01*
X183778809Y-88030666D01*
X183635952Y-88030666D01*
X183445476Y-88078285D01*
X183350238Y-88125904D01*
X183255000Y-88221142D01*
X183207380Y-88364000D01*
X183207380Y-88459238D01*
X183255000Y-88602095D01*
X183302619Y-88649714D01*
X184588333Y-88983047D02*
X184540714Y-89030666D01*
X184397857Y-89125904D01*
X184302619Y-89173523D01*
X184159761Y-89221142D01*
X183921666Y-89268761D01*
X183731190Y-89268761D01*
X183493095Y-89221142D01*
X183350238Y-89173523D01*
X183255000Y-89125904D01*
X183112142Y-89030666D01*
X183064523Y-88983047D01*
X183302619Y-90459238D02*
X183255000Y-90506857D01*
X183207380Y-90602095D01*
X183207380Y-90840190D01*
X183255000Y-90935428D01*
X183302619Y-90983047D01*
X183397857Y-91030666D01*
X183493095Y-91030666D01*
X183635952Y-90983047D01*
X184207380Y-90411619D01*
X184207380Y-91030666D01*
X183207380Y-91649714D02*
X183207380Y-91744952D01*
X183255000Y-91840190D01*
X183302619Y-91887809D01*
X183397857Y-91935428D01*
X183588333Y-91983047D01*
X183826428Y-91983047D01*
X184016904Y-91935428D01*
X184112142Y-91887809D01*
X184159761Y-91840190D01*
X184207380Y-91744952D01*
X184207380Y-91649714D01*
X184159761Y-91554476D01*
X184112142Y-91506857D01*
X184016904Y-91459238D01*
X183826428Y-91411619D01*
X183588333Y-91411619D01*
X183397857Y-91459238D01*
X183302619Y-91506857D01*
X183255000Y-91554476D01*
X183207380Y-91649714D01*
X183302619Y-92364000D02*
X183255000Y-92411619D01*
X183207380Y-92506857D01*
X183207380Y-92744952D01*
X183255000Y-92840190D01*
X183302619Y-92887809D01*
X183397857Y-92935428D01*
X183493095Y-92935428D01*
X183635952Y-92887809D01*
X184207380Y-92316380D01*
X184207380Y-92935428D01*
X183207380Y-93268761D02*
X183207380Y-93887809D01*
X183588333Y-93554476D01*
X183588333Y-93697333D01*
X183635952Y-93792571D01*
X183683571Y-93840190D01*
X183778809Y-93887809D01*
X184016904Y-93887809D01*
X184112142Y-93840190D01*
X184159761Y-93792571D01*
X184207380Y-93697333D01*
X184207380Y-93411619D01*
X184159761Y-93316380D01*
X184112142Y-93268761D01*
X185293571Y-79935428D02*
X185341190Y-80078285D01*
X185388809Y-80125904D01*
X185484047Y-80173523D01*
X185626904Y-80173523D01*
X185722142Y-80125904D01*
X185769761Y-80078285D01*
X185817380Y-79983047D01*
X185817380Y-79602095D01*
X184817380Y-79602095D01*
X184817380Y-79935428D01*
X184865000Y-80030666D01*
X184912619Y-80078285D01*
X185007857Y-80125904D01*
X185103095Y-80125904D01*
X185198333Y-80078285D01*
X185245952Y-80030666D01*
X185293571Y-79935428D01*
X185293571Y-79602095D01*
X185150714Y-80506857D02*
X185817380Y-80744952D01*
X185150714Y-80983047D02*
X185817380Y-80744952D01*
X186055476Y-80649714D01*
X186103095Y-80602095D01*
X186150714Y-80506857D01*
X184817380Y-82411619D02*
X185531666Y-82411619D01*
X185674523Y-82364000D01*
X185769761Y-82268761D01*
X185817380Y-82125904D01*
X185817380Y-82030666D01*
X185817380Y-83316380D02*
X185293571Y-83316380D01*
X185198333Y-83268761D01*
X185150714Y-83173523D01*
X185150714Y-82983047D01*
X185198333Y-82887809D01*
X185769761Y-83316380D02*
X185817380Y-83221142D01*
X185817380Y-82983047D01*
X185769761Y-82887809D01*
X185674523Y-82840190D01*
X185579285Y-82840190D01*
X185484047Y-82887809D01*
X185436428Y-82983047D01*
X185436428Y-83221142D01*
X185388809Y-83316380D01*
X185769761Y-84221142D02*
X185817380Y-84125904D01*
X185817380Y-83935428D01*
X185769761Y-83840190D01*
X185722142Y-83792571D01*
X185626904Y-83744952D01*
X185341190Y-83744952D01*
X185245952Y-83792571D01*
X185198333Y-83840190D01*
X185150714Y-83935428D01*
X185150714Y-84125904D01*
X185198333Y-84221142D01*
X185817380Y-84649714D02*
X184817380Y-84649714D01*
X185436428Y-84744952D02*
X185817380Y-85030666D01*
X185150714Y-85030666D02*
X185531666Y-84649714D01*
X185769761Y-85411619D02*
X185817380Y-85506857D01*
X185817380Y-85697333D01*
X185769761Y-85792571D01*
X185674523Y-85840190D01*
X185626904Y-85840190D01*
X185531666Y-85792571D01*
X185484047Y-85697333D01*
X185484047Y-85554476D01*
X185436428Y-85459238D01*
X185341190Y-85411619D01*
X185293571Y-85411619D01*
X185198333Y-85459238D01*
X185150714Y-85554476D01*
X185150714Y-85697333D01*
X185198333Y-85792571D01*
X185817380Y-86411619D02*
X185769761Y-86316380D01*
X185722142Y-86268761D01*
X185626904Y-86221142D01*
X185341190Y-86221142D01*
X185245952Y-86268761D01*
X185198333Y-86316380D01*
X185150714Y-86411619D01*
X185150714Y-86554476D01*
X185198333Y-86649714D01*
X185245952Y-86697333D01*
X185341190Y-86744952D01*
X185626904Y-86744952D01*
X185722142Y-86697333D01*
X185769761Y-86649714D01*
X185817380Y-86554476D01*
X185817380Y-86411619D01*
X185150714Y-87173523D02*
X185817380Y-87173523D01*
X185245952Y-87173523D02*
X185198333Y-87221142D01*
X185150714Y-87316380D01*
X185150714Y-87459238D01*
X185198333Y-87554476D01*
X185293571Y-87602095D01*
X185817380Y-87602095D01*
X185817380Y-88840190D02*
X184817380Y-88840190D01*
X185531666Y-89173523D01*
X184817380Y-89506857D01*
X185817380Y-89506857D01*
X185817380Y-90744952D02*
X184817380Y-90744952D01*
X185293571Y-90744952D02*
X185293571Y-91316380D01*
X185817380Y-91316380D02*
X184817380Y-91316380D01*
X185150714Y-92221142D02*
X185817380Y-92221142D01*
X185150714Y-91792571D02*
X185674523Y-91792571D01*
X185769761Y-91840190D01*
X185817380Y-91935428D01*
X185817380Y-92078285D01*
X185769761Y-92173523D01*
X185722142Y-92221142D01*
X185817380Y-95554476D02*
X185341190Y-95221142D01*
X185817380Y-94983047D02*
X184817380Y-94983047D01*
X184817380Y-95363999D01*
X184865000Y-95459238D01*
X184912619Y-95506857D01*
X185007857Y-95554476D01*
X185150714Y-95554476D01*
X185245952Y-95506857D01*
X185293571Y-95459238D01*
X185341190Y-95363999D01*
X185341190Y-94983047D01*
X185769761Y-96363999D02*
X185817380Y-96268761D01*
X185817380Y-96078285D01*
X185769761Y-95983047D01*
X185674523Y-95935428D01*
X185293571Y-95935428D01*
X185198333Y-95983047D01*
X185150714Y-96078285D01*
X185150714Y-96268761D01*
X185198333Y-96363999D01*
X185293571Y-96411619D01*
X185388809Y-96411619D01*
X185484047Y-95935428D01*
X185150714Y-96744952D02*
X185817380Y-96983047D01*
X185150714Y-97221142D01*
X185722142Y-97602095D02*
X185769761Y-97649714D01*
X185817380Y-97602095D01*
X185769761Y-97554476D01*
X185722142Y-97602095D01*
X185817380Y-97602095D01*
X185817380Y-99363999D02*
X185817380Y-98792571D01*
X185817380Y-99078285D02*
X184817380Y-99078285D01*
X184960238Y-98983047D01*
X185055476Y-98887809D01*
X185103095Y-98792571D01*
X122258285Y-55933523D02*
X122258285Y-56924000D01*
X122867809Y-56428761D02*
X121648761Y-56428761D01*
X121267809Y-58162095D02*
X121267809Y-57543047D01*
X122029714Y-57481142D01*
X121953523Y-57543047D01*
X121877333Y-57666857D01*
X121877333Y-57976380D01*
X121953523Y-58100190D01*
X122029714Y-58162095D01*
X122182095Y-58224000D01*
X122563047Y-58224000D01*
X122715428Y-58162095D01*
X122791619Y-58100190D01*
X122867809Y-57976380D01*
X122867809Y-57666857D01*
X122791619Y-57543047D01*
X122715428Y-57481142D01*
X121801142Y-58657333D02*
X122867809Y-58966857D01*
X121801142Y-59276380D01*
X123843809Y-55809714D02*
X123843809Y-56614476D01*
X124453333Y-56181142D01*
X124453333Y-56366857D01*
X124529523Y-56490666D01*
X124605714Y-56552571D01*
X124758095Y-56614476D01*
X125139047Y-56614476D01*
X125291428Y-56552571D01*
X125367619Y-56490666D01*
X125443809Y-56366857D01*
X125443809Y-55995428D01*
X125367619Y-55871619D01*
X125291428Y-55809714D01*
X124377142Y-57047809D02*
X125443809Y-57357333D01*
X124377142Y-57666857D01*
X123843809Y-58038285D02*
X123843809Y-58843047D01*
X124453333Y-58409714D01*
X124453333Y-58595428D01*
X124529523Y-58719238D01*
X124605714Y-58781142D01*
X124758095Y-58843047D01*
X125139047Y-58843047D01*
X125291428Y-58781142D01*
X125367619Y-58719238D01*
X125443809Y-58595428D01*
X125443809Y-58224000D01*
X125367619Y-58100190D01*
X125291428Y-58038285D01*
X128019809Y-55933523D02*
X126419809Y-55933523D01*
X128019809Y-56676380D01*
X126419809Y-56676380D01*
X127867428Y-58038285D02*
X127943619Y-57976380D01*
X128019809Y-57790666D01*
X128019809Y-57666857D01*
X127943619Y-57481142D01*
X127791238Y-57357333D01*
X127638857Y-57295428D01*
X127334095Y-57233523D01*
X127105523Y-57233523D01*
X126800761Y-57295428D01*
X126648380Y-57357333D01*
X126496000Y-57481142D01*
X126419809Y-57666857D01*
X126419809Y-57790666D01*
X126496000Y-57976380D01*
X126572190Y-58038285D01*
X130595809Y-55933523D02*
X128995809Y-55933523D01*
X130595809Y-56676380D01*
X128995809Y-56676380D01*
X130443428Y-58038285D02*
X130519619Y-57976380D01*
X130595809Y-57790666D01*
X130595809Y-57666857D01*
X130519619Y-57481142D01*
X130367238Y-57357333D01*
X130214857Y-57295428D01*
X129910095Y-57233523D01*
X129681523Y-57233523D01*
X129376761Y-57295428D01*
X129224380Y-57357333D01*
X129072000Y-57481142D01*
X128995809Y-57666857D01*
X128995809Y-57790666D01*
X129072000Y-57976380D01*
X129148190Y-58038285D01*
X132714666Y-55871619D02*
X132714666Y-56490666D01*
X133171809Y-55747809D02*
X131571809Y-56181142D01*
X133171809Y-56614476D01*
X133171809Y-57666857D02*
X133171809Y-57047809D01*
X131571809Y-57047809D01*
X132333714Y-58100190D02*
X132333714Y-58533523D01*
X133171809Y-58719238D02*
X133171809Y-58100190D01*
X131571809Y-58100190D01*
X131571809Y-58719238D01*
X133171809Y-60019238D02*
X132409904Y-59585904D01*
X133171809Y-59276380D02*
X131571809Y-59276380D01*
X131571809Y-59771619D01*
X131648000Y-59895428D01*
X131724190Y-59957333D01*
X131876571Y-60019238D01*
X132105142Y-60019238D01*
X132257523Y-59957333D01*
X132333714Y-59895428D01*
X132409904Y-59771619D01*
X132409904Y-59276380D01*
X131571809Y-60390666D02*
X131571809Y-61133523D01*
X133171809Y-60762095D02*
X131571809Y-60762095D01*
X135671619Y-55871619D02*
X135747809Y-56057333D01*
X135747809Y-56366857D01*
X135671619Y-56490666D01*
X135595428Y-56552571D01*
X135443047Y-56614476D01*
X135290666Y-56614476D01*
X135138285Y-56552571D01*
X135062095Y-56490666D01*
X134985904Y-56366857D01*
X134909714Y-56119238D01*
X134833523Y-55995428D01*
X134757333Y-55933523D01*
X134604952Y-55871619D01*
X134452571Y-55871619D01*
X134300190Y-55933523D01*
X134224000Y-55995428D01*
X134147809Y-56119238D01*
X134147809Y-56428761D01*
X134224000Y-56614476D01*
X135747809Y-57171619D02*
X134147809Y-57171619D01*
X134147809Y-57481142D01*
X134224000Y-57666857D01*
X134376380Y-57790666D01*
X134528761Y-57852571D01*
X134833523Y-57914476D01*
X135062095Y-57914476D01*
X135366857Y-57852571D01*
X135519238Y-57790666D01*
X135671619Y-57666857D01*
X135747809Y-57481142D01*
X135747809Y-57171619D01*
X135290666Y-58409714D02*
X135290666Y-59028761D01*
X135747809Y-58285904D02*
X134147809Y-58719238D01*
X135747809Y-59152571D01*
X138247619Y-55871619D02*
X138323809Y-56057333D01*
X138323809Y-56366857D01*
X138247619Y-56490666D01*
X138171428Y-56552571D01*
X138019047Y-56614476D01*
X137866666Y-56614476D01*
X137714285Y-56552571D01*
X137638095Y-56490666D01*
X137561904Y-56366857D01*
X137485714Y-56119238D01*
X137409523Y-55995428D01*
X137333333Y-55933523D01*
X137180952Y-55871619D01*
X137028571Y-55871619D01*
X136876190Y-55933523D01*
X136800000Y-55995428D01*
X136723809Y-56119238D01*
X136723809Y-56428761D01*
X136800000Y-56614476D01*
X138171428Y-57914476D02*
X138247619Y-57852571D01*
X138323809Y-57666857D01*
X138323809Y-57543047D01*
X138247619Y-57357333D01*
X138095238Y-57233523D01*
X137942857Y-57171619D01*
X137638095Y-57109714D01*
X137409523Y-57109714D01*
X137104761Y-57171619D01*
X136952380Y-57233523D01*
X136800000Y-57357333D01*
X136723809Y-57543047D01*
X136723809Y-57666857D01*
X136800000Y-57852571D01*
X136876190Y-57914476D01*
X138323809Y-59090666D02*
X138323809Y-58471619D01*
X136723809Y-58471619D01*
X139376000Y-56614476D02*
X139299809Y-56490666D01*
X139299809Y-56304952D01*
X139376000Y-56119238D01*
X139528380Y-55995428D01*
X139680761Y-55933523D01*
X139985523Y-55871619D01*
X140214095Y-55871619D01*
X140518857Y-55933523D01*
X140671238Y-55995428D01*
X140823619Y-56119238D01*
X140899809Y-56304952D01*
X140899809Y-56428761D01*
X140823619Y-56614476D01*
X140747428Y-56676380D01*
X140214095Y-56676380D01*
X140214095Y-56428761D01*
X140899809Y-57233523D02*
X139299809Y-57233523D01*
X140899809Y-57976380D01*
X139299809Y-57976380D01*
X140899809Y-58595428D02*
X139299809Y-58595428D01*
X139299809Y-58904952D01*
X139376000Y-59090666D01*
X139528380Y-59214476D01*
X139680761Y-59276380D01*
X139985523Y-59338285D01*
X140214095Y-59338285D01*
X140518857Y-59276380D01*
X140671238Y-59214476D01*
X140823619Y-59090666D01*
X140899809Y-58904952D01*
X140899809Y-58595428D01*
X165258285Y-55933523D02*
X165258285Y-56924000D01*
X165867809Y-56428761D02*
X164648761Y-56428761D01*
X164267809Y-58162095D02*
X164267809Y-57543047D01*
X165029714Y-57481142D01*
X164953523Y-57543047D01*
X164877333Y-57666857D01*
X164877333Y-57976380D01*
X164953523Y-58100190D01*
X165029714Y-58162095D01*
X165182095Y-58224000D01*
X165563047Y-58224000D01*
X165715428Y-58162095D01*
X165791619Y-58100190D01*
X165867809Y-57976380D01*
X165867809Y-57666857D01*
X165791619Y-57543047D01*
X165715428Y-57481142D01*
X164801142Y-58657333D02*
X165867809Y-58966857D01*
X164801142Y-59276380D01*
X166843809Y-55809714D02*
X166843809Y-56614476D01*
X167453333Y-56181142D01*
X167453333Y-56366857D01*
X167529523Y-56490666D01*
X167605714Y-56552571D01*
X167758095Y-56614476D01*
X168139047Y-56614476D01*
X168291428Y-56552571D01*
X168367619Y-56490666D01*
X168443809Y-56366857D01*
X168443809Y-55995428D01*
X168367619Y-55871619D01*
X168291428Y-55809714D01*
X167377142Y-57047809D02*
X168443809Y-57357333D01*
X167377142Y-57666857D01*
X166843809Y-58038285D02*
X166843809Y-58843047D01*
X167453333Y-58409714D01*
X167453333Y-58595428D01*
X167529523Y-58719238D01*
X167605714Y-58781142D01*
X167758095Y-58843047D01*
X168139047Y-58843047D01*
X168291428Y-58781142D01*
X168367619Y-58719238D01*
X168443809Y-58595428D01*
X168443809Y-58224000D01*
X168367619Y-58100190D01*
X168291428Y-58038285D01*
X171019809Y-55933523D02*
X169419809Y-55933523D01*
X171019809Y-56676380D01*
X169419809Y-56676380D01*
X170867428Y-58038285D02*
X170943619Y-57976380D01*
X171019809Y-57790666D01*
X171019809Y-57666857D01*
X170943619Y-57481142D01*
X170791238Y-57357333D01*
X170638857Y-57295428D01*
X170334095Y-57233523D01*
X170105523Y-57233523D01*
X169800761Y-57295428D01*
X169648380Y-57357333D01*
X169496000Y-57481142D01*
X169419809Y-57666857D01*
X169419809Y-57790666D01*
X169496000Y-57976380D01*
X169572190Y-58038285D01*
X173595809Y-55933523D02*
X171995809Y-55933523D01*
X173595809Y-56676380D01*
X171995809Y-56676380D01*
X173443428Y-58038285D02*
X173519619Y-57976380D01*
X173595809Y-57790666D01*
X173595809Y-57666857D01*
X173519619Y-57481142D01*
X173367238Y-57357333D01*
X173214857Y-57295428D01*
X172910095Y-57233523D01*
X172681523Y-57233523D01*
X172376761Y-57295428D01*
X172224380Y-57357333D01*
X172072000Y-57481142D01*
X171995809Y-57666857D01*
X171995809Y-57790666D01*
X172072000Y-57976380D01*
X172148190Y-58038285D01*
X175714666Y-55871619D02*
X175714666Y-56490666D01*
X176171809Y-55747809D02*
X174571809Y-56181142D01*
X176171809Y-56614476D01*
X176171809Y-57666857D02*
X176171809Y-57047809D01*
X174571809Y-57047809D01*
X175333714Y-58100190D02*
X175333714Y-58533523D01*
X176171809Y-58719238D02*
X176171809Y-58100190D01*
X174571809Y-58100190D01*
X174571809Y-58719238D01*
X176171809Y-60019238D02*
X175409904Y-59585904D01*
X176171809Y-59276380D02*
X174571809Y-59276380D01*
X174571809Y-59771619D01*
X174648000Y-59895428D01*
X174724190Y-59957333D01*
X174876571Y-60019238D01*
X175105142Y-60019238D01*
X175257523Y-59957333D01*
X175333714Y-59895428D01*
X175409904Y-59771619D01*
X175409904Y-59276380D01*
X174571809Y-60390666D02*
X174571809Y-61133523D01*
X176171809Y-60762095D02*
X174571809Y-60762095D01*
X178671619Y-55871619D02*
X178747809Y-56057333D01*
X178747809Y-56366857D01*
X178671619Y-56490666D01*
X178595428Y-56552571D01*
X178443047Y-56614476D01*
X178290666Y-56614476D01*
X178138285Y-56552571D01*
X178062095Y-56490666D01*
X177985904Y-56366857D01*
X177909714Y-56119238D01*
X177833523Y-55995428D01*
X177757333Y-55933523D01*
X177604952Y-55871619D01*
X177452571Y-55871619D01*
X177300190Y-55933523D01*
X177224000Y-55995428D01*
X177147809Y-56119238D01*
X177147809Y-56428761D01*
X177224000Y-56614476D01*
X178747809Y-57171619D02*
X177147809Y-57171619D01*
X177147809Y-57481142D01*
X177224000Y-57666857D01*
X177376380Y-57790666D01*
X177528761Y-57852571D01*
X177833523Y-57914476D01*
X178062095Y-57914476D01*
X178366857Y-57852571D01*
X178519238Y-57790666D01*
X178671619Y-57666857D01*
X178747809Y-57481142D01*
X178747809Y-57171619D01*
X178290666Y-58409714D02*
X178290666Y-59028761D01*
X178747809Y-58285904D02*
X177147809Y-58719238D01*
X178747809Y-59152571D01*
X181247619Y-55871619D02*
X181323809Y-56057333D01*
X181323809Y-56366857D01*
X181247619Y-56490666D01*
X181171428Y-56552571D01*
X181019047Y-56614476D01*
X180866666Y-56614476D01*
X180714285Y-56552571D01*
X180638095Y-56490666D01*
X180561904Y-56366857D01*
X180485714Y-56119238D01*
X180409523Y-55995428D01*
X180333333Y-55933523D01*
X180180952Y-55871619D01*
X180028571Y-55871619D01*
X179876190Y-55933523D01*
X179800000Y-55995428D01*
X179723809Y-56119238D01*
X179723809Y-56428761D01*
X179800000Y-56614476D01*
X181171428Y-57914476D02*
X181247619Y-57852571D01*
X181323809Y-57666857D01*
X181323809Y-57543047D01*
X181247619Y-57357333D01*
X181095238Y-57233523D01*
X180942857Y-57171619D01*
X180638095Y-57109714D01*
X180409523Y-57109714D01*
X180104761Y-57171619D01*
X179952380Y-57233523D01*
X179800000Y-57357333D01*
X179723809Y-57543047D01*
X179723809Y-57666857D01*
X179800000Y-57852571D01*
X179876190Y-57914476D01*
X181323809Y-59090666D02*
X181323809Y-58471619D01*
X179723809Y-58471619D01*
X182376000Y-56614476D02*
X182299809Y-56490666D01*
X182299809Y-56304952D01*
X182376000Y-56119238D01*
X182528380Y-55995428D01*
X182680761Y-55933523D01*
X182985523Y-55871619D01*
X183214095Y-55871619D01*
X183518857Y-55933523D01*
X183671238Y-55995428D01*
X183823619Y-56119238D01*
X183899809Y-56304952D01*
X183899809Y-56428761D01*
X183823619Y-56614476D01*
X183747428Y-56676380D01*
X183214095Y-56676380D01*
X183214095Y-56428761D01*
X183899809Y-57233523D02*
X182299809Y-57233523D01*
X183899809Y-57976380D01*
X182299809Y-57976380D01*
X183899809Y-58595428D02*
X182299809Y-58595428D01*
X182299809Y-58904952D01*
X182376000Y-59090666D01*
X182528380Y-59214476D01*
X182680761Y-59276380D01*
X182985523Y-59338285D01*
X183214095Y-59338285D01*
X183518857Y-59276380D01*
X183671238Y-59214476D01*
X183823619Y-59090666D01*
X183899809Y-58904952D01*
X183899809Y-58595428D01*
X122258285Y-97933523D02*
X122258285Y-98924000D01*
X122867809Y-98428761D02*
X121648761Y-98428761D01*
X121267809Y-100162095D02*
X121267809Y-99543047D01*
X122029714Y-99481142D01*
X121953523Y-99543047D01*
X121877333Y-99666857D01*
X121877333Y-99976380D01*
X121953523Y-100100190D01*
X122029714Y-100162095D01*
X122182095Y-100224000D01*
X122563047Y-100224000D01*
X122715428Y-100162095D01*
X122791619Y-100100190D01*
X122867809Y-99976380D01*
X122867809Y-99666857D01*
X122791619Y-99543047D01*
X122715428Y-99481142D01*
X121801142Y-100657333D02*
X122867809Y-100966857D01*
X121801142Y-101276380D01*
X123843809Y-97809714D02*
X123843809Y-98614476D01*
X124453333Y-98181142D01*
X124453333Y-98366857D01*
X124529523Y-98490666D01*
X124605714Y-98552571D01*
X124758095Y-98614476D01*
X125139047Y-98614476D01*
X125291428Y-98552571D01*
X125367619Y-98490666D01*
X125443809Y-98366857D01*
X125443809Y-97995428D01*
X125367619Y-97871619D01*
X125291428Y-97809714D01*
X124377142Y-99047809D02*
X125443809Y-99357333D01*
X124377142Y-99666857D01*
X123843809Y-100038285D02*
X123843809Y-100843047D01*
X124453333Y-100409714D01*
X124453333Y-100595428D01*
X124529523Y-100719238D01*
X124605714Y-100781142D01*
X124758095Y-100843047D01*
X125139047Y-100843047D01*
X125291428Y-100781142D01*
X125367619Y-100719238D01*
X125443809Y-100595428D01*
X125443809Y-100224000D01*
X125367619Y-100100190D01*
X125291428Y-100038285D01*
X128019809Y-97933523D02*
X126419809Y-97933523D01*
X128019809Y-98676380D01*
X126419809Y-98676380D01*
X127867428Y-100038285D02*
X127943619Y-99976380D01*
X128019809Y-99790666D01*
X128019809Y-99666857D01*
X127943619Y-99481142D01*
X127791238Y-99357333D01*
X127638857Y-99295428D01*
X127334095Y-99233523D01*
X127105523Y-99233523D01*
X126800761Y-99295428D01*
X126648380Y-99357333D01*
X126496000Y-99481142D01*
X126419809Y-99666857D01*
X126419809Y-99790666D01*
X126496000Y-99976380D01*
X126572190Y-100038285D01*
X130595809Y-97933523D02*
X128995809Y-97933523D01*
X130595809Y-98676380D01*
X128995809Y-98676380D01*
X130443428Y-100038285D02*
X130519619Y-99976380D01*
X130595809Y-99790666D01*
X130595809Y-99666857D01*
X130519619Y-99481142D01*
X130367238Y-99357333D01*
X130214857Y-99295428D01*
X129910095Y-99233523D01*
X129681523Y-99233523D01*
X129376761Y-99295428D01*
X129224380Y-99357333D01*
X129072000Y-99481142D01*
X128995809Y-99666857D01*
X128995809Y-99790666D01*
X129072000Y-99976380D01*
X129148190Y-100038285D01*
X132714666Y-97871619D02*
X132714666Y-98490666D01*
X133171809Y-97747809D02*
X131571809Y-98181142D01*
X133171809Y-98614476D01*
X133171809Y-99666857D02*
X133171809Y-99047809D01*
X131571809Y-99047809D01*
X132333714Y-100100190D02*
X132333714Y-100533523D01*
X133171809Y-100719238D02*
X133171809Y-100100190D01*
X131571809Y-100100190D01*
X131571809Y-100719238D01*
X133171809Y-102019238D02*
X132409904Y-101585904D01*
X133171809Y-101276380D02*
X131571809Y-101276380D01*
X131571809Y-101771619D01*
X131648000Y-101895428D01*
X131724190Y-101957333D01*
X131876571Y-102019238D01*
X132105142Y-102019238D01*
X132257523Y-101957333D01*
X132333714Y-101895428D01*
X132409904Y-101771619D01*
X132409904Y-101276380D01*
X131571809Y-102390666D02*
X131571809Y-103133523D01*
X133171809Y-102762095D02*
X131571809Y-102762095D01*
X135671619Y-97871619D02*
X135747809Y-98057333D01*
X135747809Y-98366857D01*
X135671619Y-98490666D01*
X135595428Y-98552571D01*
X135443047Y-98614476D01*
X135290666Y-98614476D01*
X135138285Y-98552571D01*
X135062095Y-98490666D01*
X134985904Y-98366857D01*
X134909714Y-98119238D01*
X134833523Y-97995428D01*
X134757333Y-97933523D01*
X134604952Y-97871619D01*
X134452571Y-97871619D01*
X134300190Y-97933523D01*
X134224000Y-97995428D01*
X134147809Y-98119238D01*
X134147809Y-98428761D01*
X134224000Y-98614476D01*
X135747809Y-99171619D02*
X134147809Y-99171619D01*
X134147809Y-99481142D01*
X134224000Y-99666857D01*
X134376380Y-99790666D01*
X134528761Y-99852571D01*
X134833523Y-99914476D01*
X135062095Y-99914476D01*
X135366857Y-99852571D01*
X135519238Y-99790666D01*
X135671619Y-99666857D01*
X135747809Y-99481142D01*
X135747809Y-99171619D01*
X135290666Y-100409714D02*
X135290666Y-101028761D01*
X135747809Y-100285904D02*
X134147809Y-100719238D01*
X135747809Y-101152571D01*
X138247619Y-97871619D02*
X138323809Y-98057333D01*
X138323809Y-98366857D01*
X138247619Y-98490666D01*
X138171428Y-98552571D01*
X138019047Y-98614476D01*
X137866666Y-98614476D01*
X137714285Y-98552571D01*
X137638095Y-98490666D01*
X137561904Y-98366857D01*
X137485714Y-98119238D01*
X137409523Y-97995428D01*
X137333333Y-97933523D01*
X137180952Y-97871619D01*
X137028571Y-97871619D01*
X136876190Y-97933523D01*
X136800000Y-97995428D01*
X136723809Y-98119238D01*
X136723809Y-98428761D01*
X136800000Y-98614476D01*
X138171428Y-99914476D02*
X138247619Y-99852571D01*
X138323809Y-99666857D01*
X138323809Y-99543047D01*
X138247619Y-99357333D01*
X138095238Y-99233523D01*
X137942857Y-99171619D01*
X137638095Y-99109714D01*
X137409523Y-99109714D01*
X137104761Y-99171619D01*
X136952380Y-99233523D01*
X136800000Y-99357333D01*
X136723809Y-99543047D01*
X136723809Y-99666857D01*
X136800000Y-99852571D01*
X136876190Y-99914476D01*
X138323809Y-101090666D02*
X138323809Y-100471619D01*
X136723809Y-100471619D01*
X139376000Y-98614476D02*
X139299809Y-98490666D01*
X139299809Y-98304952D01*
X139376000Y-98119238D01*
X139528380Y-97995428D01*
X139680761Y-97933523D01*
X139985523Y-97871619D01*
X140214095Y-97871619D01*
X140518857Y-97933523D01*
X140671238Y-97995428D01*
X140823619Y-98119238D01*
X140899809Y-98304952D01*
X140899809Y-98428761D01*
X140823619Y-98614476D01*
X140747428Y-98676380D01*
X140214095Y-98676380D01*
X140214095Y-98428761D01*
X140899809Y-99233523D02*
X139299809Y-99233523D01*
X140899809Y-99976380D01*
X139299809Y-99976380D01*
X140899809Y-100595428D02*
X139299809Y-100595428D01*
X139299809Y-100904952D01*
X139376000Y-101090666D01*
X139528380Y-101214476D01*
X139680761Y-101276380D01*
X139985523Y-101338285D01*
X140214095Y-101338285D01*
X140518857Y-101276380D01*
X140671238Y-101214476D01*
X140823619Y-101090666D01*
X140899809Y-100904952D01*
X140899809Y-100595428D01*
X165258285Y-97933523D02*
X165258285Y-98924000D01*
X165867809Y-98428761D02*
X164648761Y-98428761D01*
X164267809Y-100162095D02*
X164267809Y-99543047D01*
X165029714Y-99481142D01*
X164953523Y-99543047D01*
X164877333Y-99666857D01*
X164877333Y-99976380D01*
X164953523Y-100100190D01*
X165029714Y-100162095D01*
X165182095Y-100224000D01*
X165563047Y-100224000D01*
X165715428Y-100162095D01*
X165791619Y-100100190D01*
X165867809Y-99976380D01*
X165867809Y-99666857D01*
X165791619Y-99543047D01*
X165715428Y-99481142D01*
X164801142Y-100657333D02*
X165867809Y-100966857D01*
X164801142Y-101276380D01*
X166843809Y-97809714D02*
X166843809Y-98614476D01*
X167453333Y-98181142D01*
X167453333Y-98366857D01*
X167529523Y-98490666D01*
X167605714Y-98552571D01*
X167758095Y-98614476D01*
X168139047Y-98614476D01*
X168291428Y-98552571D01*
X168367619Y-98490666D01*
X168443809Y-98366857D01*
X168443809Y-97995428D01*
X168367619Y-97871619D01*
X168291428Y-97809714D01*
X167377142Y-99047809D02*
X168443809Y-99357333D01*
X167377142Y-99666857D01*
X166843809Y-100038285D02*
X166843809Y-100843047D01*
X167453333Y-100409714D01*
X167453333Y-100595428D01*
X167529523Y-100719238D01*
X167605714Y-100781142D01*
X167758095Y-100843047D01*
X168139047Y-100843047D01*
X168291428Y-100781142D01*
X168367619Y-100719238D01*
X168443809Y-100595428D01*
X168443809Y-100224000D01*
X168367619Y-100100190D01*
X168291428Y-100038285D01*
X171019809Y-97933523D02*
X169419809Y-97933523D01*
X171019809Y-98676380D01*
X169419809Y-98676380D01*
X170867428Y-100038285D02*
X170943619Y-99976380D01*
X171019809Y-99790666D01*
X171019809Y-99666857D01*
X170943619Y-99481142D01*
X170791238Y-99357333D01*
X170638857Y-99295428D01*
X170334095Y-99233523D01*
X170105523Y-99233523D01*
X169800761Y-99295428D01*
X169648380Y-99357333D01*
X169496000Y-99481142D01*
X169419809Y-99666857D01*
X169419809Y-99790666D01*
X169496000Y-99976380D01*
X169572190Y-100038285D01*
X173595809Y-97933523D02*
X171995809Y-97933523D01*
X173595809Y-98676380D01*
X171995809Y-98676380D01*
X173443428Y-100038285D02*
X173519619Y-99976380D01*
X173595809Y-99790666D01*
X173595809Y-99666857D01*
X173519619Y-99481142D01*
X173367238Y-99357333D01*
X173214857Y-99295428D01*
X172910095Y-99233523D01*
X172681523Y-99233523D01*
X172376761Y-99295428D01*
X172224380Y-99357333D01*
X172072000Y-99481142D01*
X171995809Y-99666857D01*
X171995809Y-99790666D01*
X172072000Y-99976380D01*
X172148190Y-100038285D01*
X175714666Y-97871619D02*
X175714666Y-98490666D01*
X176171809Y-97747809D02*
X174571809Y-98181142D01*
X176171809Y-98614476D01*
X176171809Y-99666857D02*
X176171809Y-99047809D01*
X174571809Y-99047809D01*
X175333714Y-100100190D02*
X175333714Y-100533523D01*
X176171809Y-100719238D02*
X176171809Y-100100190D01*
X174571809Y-100100190D01*
X174571809Y-100719238D01*
X176171809Y-102019238D02*
X175409904Y-101585904D01*
X176171809Y-101276380D02*
X174571809Y-101276380D01*
X174571809Y-101771619D01*
X174648000Y-101895428D01*
X174724190Y-101957333D01*
X174876571Y-102019238D01*
X175105142Y-102019238D01*
X175257523Y-101957333D01*
X175333714Y-101895428D01*
X175409904Y-101771619D01*
X175409904Y-101276380D01*
X174571809Y-102390666D02*
X174571809Y-103133523D01*
X176171809Y-102762095D02*
X174571809Y-102762095D01*
X178671619Y-97871619D02*
X178747809Y-98057333D01*
X178747809Y-98366857D01*
X178671619Y-98490666D01*
X178595428Y-98552571D01*
X178443047Y-98614476D01*
X178290666Y-98614476D01*
X178138285Y-98552571D01*
X178062095Y-98490666D01*
X177985904Y-98366857D01*
X177909714Y-98119238D01*
X177833523Y-97995428D01*
X177757333Y-97933523D01*
X177604952Y-97871619D01*
X177452571Y-97871619D01*
X177300190Y-97933523D01*
X177224000Y-97995428D01*
X177147809Y-98119238D01*
X177147809Y-98428761D01*
X177224000Y-98614476D01*
X178747809Y-99171619D02*
X177147809Y-99171619D01*
X177147809Y-99481142D01*
X177224000Y-99666857D01*
X177376380Y-99790666D01*
X177528761Y-99852571D01*
X177833523Y-99914476D01*
X178062095Y-99914476D01*
X178366857Y-99852571D01*
X178519238Y-99790666D01*
X178671619Y-99666857D01*
X178747809Y-99481142D01*
X178747809Y-99171619D01*
X178290666Y-100409714D02*
X178290666Y-101028761D01*
X178747809Y-100285904D02*
X177147809Y-100719238D01*
X178747809Y-101152571D01*
X181247619Y-97871619D02*
X181323809Y-98057333D01*
X181323809Y-98366857D01*
X181247619Y-98490666D01*
X181171428Y-98552571D01*
X181019047Y-98614476D01*
X180866666Y-98614476D01*
X180714285Y-98552571D01*
X180638095Y-98490666D01*
X180561904Y-98366857D01*
X180485714Y-98119238D01*
X180409523Y-97995428D01*
X180333333Y-97933523D01*
X180180952Y-97871619D01*
X180028571Y-97871619D01*
X179876190Y-97933523D01*
X179800000Y-97995428D01*
X179723809Y-98119238D01*
X179723809Y-98428761D01*
X179800000Y-98614476D01*
X181171428Y-99914476D02*
X181247619Y-99852571D01*
X181323809Y-99666857D01*
X181323809Y-99543047D01*
X181247619Y-99357333D01*
X181095238Y-99233523D01*
X180942857Y-99171619D01*
X180638095Y-99109714D01*
X180409523Y-99109714D01*
X180104761Y-99171619D01*
X179952380Y-99233523D01*
X179800000Y-99357333D01*
X179723809Y-99543047D01*
X179723809Y-99666857D01*
X179800000Y-99852571D01*
X179876190Y-99914476D01*
X181323809Y-101090666D02*
X181323809Y-100471619D01*
X179723809Y-100471619D01*
X182376000Y-98614476D02*
X182299809Y-98490666D01*
X182299809Y-98304952D01*
X182376000Y-98119238D01*
X182528380Y-97995428D01*
X182680761Y-97933523D01*
X182985523Y-97871619D01*
X183214095Y-97871619D01*
X183518857Y-97933523D01*
X183671238Y-97995428D01*
X183823619Y-98119238D01*
X183899809Y-98304952D01*
X183899809Y-98428761D01*
X183823619Y-98614476D01*
X183747428Y-98676380D01*
X183214095Y-98676380D01*
X183214095Y-98428761D01*
X183899809Y-99233523D02*
X182299809Y-99233523D01*
X183899809Y-99976380D01*
X182299809Y-99976380D01*
X183899809Y-100595428D02*
X182299809Y-100595428D01*
X182299809Y-100904952D01*
X182376000Y-101090666D01*
X182528380Y-101214476D01*
X182680761Y-101276380D01*
X182985523Y-101338285D01*
X183214095Y-101338285D01*
X183518857Y-101276380D01*
X183671238Y-101214476D01*
X183823619Y-101090666D01*
X183899809Y-100904952D01*
X183899809Y-100595428D01*
D11*
X164123333Y-45497619D02*
X163647142Y-45497619D01*
X163647142Y-46497619D01*
X165028095Y-45592857D02*
X164980476Y-45545238D01*
X164837619Y-45497619D01*
X164742380Y-45497619D01*
X164599523Y-45545238D01*
X164504285Y-45640476D01*
X164456666Y-45735714D01*
X164409047Y-45926190D01*
X164409047Y-46069047D01*
X164456666Y-46259523D01*
X164504285Y-46354761D01*
X164599523Y-46450000D01*
X164742380Y-46497619D01*
X164837619Y-46497619D01*
X164980476Y-46450000D01*
X165028095Y-46402380D01*
X165456666Y-45497619D02*
X165456666Y-46497619D01*
X165694761Y-46497619D01*
X165837619Y-46450000D01*
X165932857Y-46354761D01*
X165980476Y-46259523D01*
X166028095Y-46069047D01*
X166028095Y-45926190D01*
X165980476Y-45735714D01*
X165932857Y-45640476D01*
X165837619Y-45545238D01*
X165694761Y-45497619D01*
X165456666Y-45497619D01*
X166980476Y-45497619D02*
X166409047Y-45497619D01*
X166694761Y-45497619D02*
X166694761Y-46497619D01*
X166599523Y-46354761D01*
X166504285Y-46259523D01*
X166409047Y-46211904D01*
X164123333Y-87497619D02*
X163647142Y-87497619D01*
X163647142Y-88497619D01*
X165028095Y-87592857D02*
X164980476Y-87545238D01*
X164837619Y-87497619D01*
X164742380Y-87497619D01*
X164599523Y-87545238D01*
X164504285Y-87640476D01*
X164456666Y-87735714D01*
X164409047Y-87926190D01*
X164409047Y-88069047D01*
X164456666Y-88259523D01*
X164504285Y-88354761D01*
X164599523Y-88450000D01*
X164742380Y-88497619D01*
X164837619Y-88497619D01*
X164980476Y-88450000D01*
X165028095Y-88402380D01*
X165456666Y-87497619D02*
X165456666Y-88497619D01*
X165694761Y-88497619D01*
X165837619Y-88450000D01*
X165932857Y-88354761D01*
X165980476Y-88259523D01*
X166028095Y-88069047D01*
X166028095Y-87926190D01*
X165980476Y-87735714D01*
X165932857Y-87640476D01*
X165837619Y-87545238D01*
X165694761Y-87497619D01*
X165456666Y-87497619D01*
X166980476Y-87497619D02*
X166409047Y-87497619D01*
X166694761Y-87497619D02*
X166694761Y-88497619D01*
X166599523Y-88354761D01*
X166504285Y-88259523D01*
X166409047Y-88211904D01*
X121123333Y-45497619D02*
X120647142Y-45497619D01*
X120647142Y-46497619D01*
X122028095Y-45592857D02*
X121980476Y-45545238D01*
X121837619Y-45497619D01*
X121742380Y-45497619D01*
X121599523Y-45545238D01*
X121504285Y-45640476D01*
X121456666Y-45735714D01*
X121409047Y-45926190D01*
X121409047Y-46069047D01*
X121456666Y-46259523D01*
X121504285Y-46354761D01*
X121599523Y-46450000D01*
X121742380Y-46497619D01*
X121837619Y-46497619D01*
X121980476Y-46450000D01*
X122028095Y-46402380D01*
X122456666Y-45497619D02*
X122456666Y-46497619D01*
X122694761Y-46497619D01*
X122837619Y-46450000D01*
X122932857Y-46354761D01*
X122980476Y-46259523D01*
X123028095Y-46069047D01*
X123028095Y-45926190D01*
X122980476Y-45735714D01*
X122932857Y-45640476D01*
X122837619Y-45545238D01*
X122694761Y-45497619D01*
X122456666Y-45497619D01*
X123980476Y-45497619D02*
X123409047Y-45497619D01*
X123694761Y-45497619D02*
X123694761Y-46497619D01*
X123599523Y-46354761D01*
X123504285Y-46259523D01*
X123409047Y-46211904D01*
X121123333Y-87497619D02*
X120647142Y-87497619D01*
X120647142Y-88497619D01*
X122028095Y-87592857D02*
X121980476Y-87545238D01*
X121837619Y-87497619D01*
X121742380Y-87497619D01*
X121599523Y-87545238D01*
X121504285Y-87640476D01*
X121456666Y-87735714D01*
X121409047Y-87926190D01*
X121409047Y-88069047D01*
X121456666Y-88259523D01*
X121504285Y-88354761D01*
X121599523Y-88450000D01*
X121742380Y-88497619D01*
X121837619Y-88497619D01*
X121980476Y-88450000D01*
X122028095Y-88402380D01*
X122456666Y-87497619D02*
X122456666Y-88497619D01*
X122694761Y-88497619D01*
X122837619Y-88450000D01*
X122932857Y-88354761D01*
X122980476Y-88259523D01*
X123028095Y-88069047D01*
X123028095Y-87926190D01*
X122980476Y-87735714D01*
X122932857Y-87640476D01*
X122837619Y-87545238D01*
X122694761Y-87497619D01*
X122456666Y-87497619D01*
X123980476Y-87497619D02*
X123409047Y-87497619D01*
X123694761Y-87497619D02*
X123694761Y-88497619D01*
X123599523Y-88354761D01*
X123504285Y-88259523D01*
X123409047Y-88211904D01*
D12*
X163550000Y-35800000D02*
X163550000Y-44200000D01*
X167050000Y-44200000D02*
X167050000Y-35800000D01*
X167050000Y-35800000D02*
X163550000Y-35800000D01*
X163550000Y-44200000D02*
X167050000Y-44200000D01*
D13*
X167905000Y-43850000D02*
G75*
G03*
X167905000Y-43850000I-155000J0D01*
G01*
D12*
X163550000Y-77800000D02*
X163550000Y-86200000D01*
X167050000Y-86200000D02*
X167050000Y-77800000D01*
X163550000Y-86200000D02*
X167050000Y-86200000D01*
X167050000Y-77800000D02*
X163550000Y-77800000D01*
D13*
X167905000Y-85850000D02*
G75*
G03*
X167905000Y-85850000I-155000J0D01*
G01*
D12*
X124050000Y-35800000D02*
X120550000Y-35800000D01*
X124050000Y-44200000D02*
X124050000Y-35800000D01*
X120550000Y-44200000D02*
X124050000Y-44200000D01*
X120550000Y-35800000D02*
X120550000Y-44200000D01*
D13*
X124905000Y-43850000D02*
G75*
G03*
X124905000Y-43850000I-155000J0D01*
G01*
D12*
X124050000Y-86200000D02*
X124050000Y-77800000D01*
X120550000Y-86200000D02*
X124050000Y-86200000D01*
X120550000Y-77800000D02*
X120550000Y-86200000D01*
X124050000Y-77800000D02*
X120550000Y-77800000D01*
D13*
X124905000Y-85850000D02*
G75*
G03*
X124905000Y-85850000I-155000J0D01*
G01*
%LPC*%
D14*
X122125000Y-53675000D03*
D15*
X124665000Y-53675000D03*
X127205000Y-53675000D03*
X129745000Y-53675000D03*
X132285000Y-53675000D03*
X134825000Y-53675000D03*
X137365000Y-53675000D03*
X139905000Y-53675000D03*
D14*
X122125000Y-95675000D03*
D15*
X124665000Y-95675000D03*
X127205000Y-95675000D03*
X129745000Y-95675000D03*
X132285000Y-95675000D03*
X134825000Y-95675000D03*
X137365000Y-95675000D03*
X139905000Y-95675000D03*
D16*
X117440000Y-53690000D03*
X117440000Y-47910000D03*
D17*
X117970000Y-46480000D03*
X117970000Y-55120000D03*
D18*
X113790000Y-46480000D03*
X113790000Y-55120000D03*
D19*
X102500000Y-25000000D03*
D14*
X165125000Y-53675000D03*
D15*
X167665000Y-53675000D03*
X170205000Y-53675000D03*
X172745000Y-53675000D03*
X175285000Y-53675000D03*
X177825000Y-53675000D03*
X180365000Y-53675000D03*
X182905000Y-53675000D03*
D19*
X102500000Y-111000000D03*
D14*
X165125000Y-95675000D03*
D15*
X167665000Y-95675000D03*
X170205000Y-95675000D03*
X172745000Y-95675000D03*
X175285000Y-95675000D03*
X177825000Y-95675000D03*
X180365000Y-95675000D03*
X182905000Y-95675000D03*
D16*
X160440000Y-53690000D03*
X160440000Y-47910000D03*
D17*
X160970000Y-46480000D03*
D18*
X156790000Y-55120000D03*
X156790000Y-46480000D03*
D17*
X160970000Y-55120000D03*
D20*
X137375000Y-39575000D03*
D21*
X137375000Y-38305000D03*
X137375000Y-37035000D03*
X137375000Y-35765000D03*
X137375000Y-34495000D03*
X137375000Y-33225000D03*
D19*
X194500000Y-25000000D03*
D16*
X117440000Y-95690000D03*
X117440000Y-89910000D03*
D17*
X117970000Y-88480000D03*
D18*
X113790000Y-88480000D03*
D17*
X117970000Y-97120000D03*
D18*
X113790000Y-97120000D03*
D20*
X180375000Y-39575000D03*
D21*
X180375000Y-38305000D03*
X180375000Y-37035000D03*
X180375000Y-35765000D03*
X180375000Y-34495000D03*
X180375000Y-33225000D03*
D20*
X180375000Y-81575000D03*
D21*
X180375000Y-80305000D03*
X180375000Y-79035000D03*
X180375000Y-77765000D03*
X180375000Y-76495000D03*
X180375000Y-75225000D03*
D19*
X194500000Y-111000000D03*
D20*
X137375000Y-81575000D03*
D21*
X137375000Y-80305000D03*
X137375000Y-79035000D03*
X137375000Y-77765000D03*
X137375000Y-76495000D03*
X137375000Y-75225000D03*
D16*
X160440000Y-95690000D03*
X160440000Y-89910000D03*
D17*
X160970000Y-97120000D03*
D18*
X156790000Y-88480000D03*
X156790000Y-97120000D03*
D17*
X160970000Y-88480000D03*
D22*
X165300000Y-43850000D03*
X165300000Y-43150000D03*
X165300000Y-42450000D03*
X165300000Y-41750000D03*
X165300000Y-41050000D03*
X165300000Y-40350000D03*
X165300000Y-39650000D03*
X165300000Y-38950000D03*
X165300000Y-38250000D03*
X165300000Y-37550000D03*
X165300000Y-36850000D03*
X165300000Y-36150000D03*
X165300000Y-85850000D03*
X165300000Y-85150000D03*
X165300000Y-84450000D03*
X165300000Y-83750000D03*
X165300000Y-83050000D03*
X165300000Y-82350000D03*
X165300000Y-81650000D03*
X165300000Y-80950000D03*
X165300000Y-80250000D03*
X165300000Y-79550000D03*
X165300000Y-78850000D03*
X165300000Y-78150000D03*
D23*
X191500000Y-24000000D03*
X105500000Y-112000000D03*
D22*
X122300000Y-43850000D03*
X122300000Y-43150000D03*
X122300000Y-42450000D03*
X122300000Y-41750000D03*
X122300000Y-41050000D03*
X122300000Y-40350000D03*
X122300000Y-39650000D03*
X122300000Y-38950000D03*
X122300000Y-38250000D03*
X122300000Y-37550000D03*
X122300000Y-36850000D03*
X122300000Y-36150000D03*
D23*
X105500000Y-24000000D03*
D22*
X122300000Y-85850000D03*
X122300000Y-85150000D03*
X122300000Y-84450000D03*
X122300000Y-83750000D03*
X122300000Y-83050000D03*
X122300000Y-82350000D03*
X122300000Y-81650000D03*
X122300000Y-80950000D03*
X122300000Y-80250000D03*
X122300000Y-79550000D03*
X122300000Y-78850000D03*
X122300000Y-78150000D03*
D23*
X191500000Y-112000000D03*
M02*
