M48
; DRILL file {KiCad 6.0.11-2627ca5db0~126~ubuntu22.04.1} date Sun 05 Feb 2023 22:44:56
; FORMAT={-:-/ absolute / metric / decimal}
; #@! TF.CreationDate,2023-02-05T22:44:56+11:00
; #@! TF.GenerationSoftware,Kicad,Pcbnew,6.0.11-2627ca5db0~126~ubuntu22.04.1
; #@! TF.FileFunction,Plated,1,2,PTH
FMAT,2
METRIC
; #@! TA.AperFunction,Plated,PTH,ViaDrill
T1C0.300
; #@! TA.AperFunction,Plated,PTH,ComponentDrill
T2C0.600
; #@! TA.AperFunction,Plated,PTH,ComponentDrill
T3C0.700
; #@! TA.AperFunction,Plated,PTH,ComponentDrill
T4C1.000
%
G90
G05
T1
X111.67Y-62.0
X111.67Y-104.0
X111.76Y-54.93
X111.76Y-96.93
X111.82Y-35.73
X111.82Y-77.73
X111.94Y-33.37
X111.94Y-75.37
X111.977Y-41.22
X111.977Y-83.22
X112.11Y-32.34
X112.11Y-34.29
X112.11Y-74.34
X112.11Y-76.29
X112.17Y-61.07
X112.17Y-103.07
X112.36Y-54.1
X112.36Y-96.1
X112.37Y-52.18
X112.37Y-94.18
X112.41Y-49.71
X112.41Y-91.71
X112.43Y-48.79
X112.43Y-90.79
X112.71Y-62.0
X112.71Y-104.0
X113.0Y-37.0
X113.0Y-38.0
X113.0Y-79.0
X113.0Y-80.0
X113.04Y-50.29
X113.04Y-92.29
X113.13Y-49.44
X113.13Y-91.44
X113.2Y-33.32
X113.2Y-75.32
X113.37Y-31.94
X113.37Y-73.94
X113.5Y-42.5
X113.5Y-84.5
X113.71Y-50.82
X113.71Y-92.82
X113.8Y-50.04
X113.8Y-92.04
X113.81Y-53.14
X113.81Y-95.14
X113.98Y-43.36
X113.98Y-85.36
X114.0Y-36.0
X114.0Y-37.0
X114.0Y-78.0
X114.0Y-79.0
X114.16Y-60.16
X114.16Y-102.16
X114.41Y-51.37
X114.41Y-93.37
X114.5Y-42.5
X114.5Y-84.5
X114.59Y-47.56
X114.59Y-89.56
X115.0Y-35.0
X115.0Y-36.0
X115.0Y-77.0
X115.0Y-78.0
X115.09Y-33.36
X115.09Y-75.36
X115.13Y-51.94
X115.13Y-93.94
X115.5Y-39.5
X115.5Y-42.0
X115.5Y-81.5
X115.5Y-84.0
X115.67Y-61.75
X115.67Y-103.75
X115.77Y-52.44
X115.77Y-94.44
X116.0Y-34.0
X116.0Y-35.0
X116.0Y-76.0
X116.0Y-77.0
X116.03Y-58.46
X116.03Y-100.46
X116.29Y-60.23
X116.29Y-102.23
X116.48Y-32.05
X116.48Y-33.0
X116.48Y-74.05
X116.48Y-75.0
X116.5Y-41.5
X116.5Y-47.0
X116.5Y-83.5
X116.5Y-89.0
X117.0Y-34.0
X117.0Y-76.0
X117.38Y-41.5
X117.38Y-83.5
X117.51Y-48.87
X117.51Y-90.87
X117.6Y-39.68
X117.6Y-81.68
X117.74Y-33.3
X117.74Y-75.3
X117.81Y-60.92
X117.81Y-102.92
X118.11Y-37.13
X118.11Y-79.13
X118.15Y-38.91
X118.15Y-80.91
X119.15Y-43.1
X119.15Y-85.1
X119.5Y-46.0
X119.5Y-88.0
X119.73Y-61.54
X119.73Y-103.54
X119.81Y-38.91
X119.81Y-80.91
X119.86Y-35.34
X119.86Y-77.34
X119.95Y-40.84
X119.95Y-82.84
X120.0Y-46.75
X120.0Y-88.75
X120.5Y-45.0
X120.5Y-57.5
X120.5Y-87.0
X120.5Y-99.5
X120.73Y-48.36
X120.73Y-90.36
X120.82Y-34.17
X120.82Y-76.17
X120.87Y-47.25
X120.87Y-89.25
X120.9Y-52.12
X120.9Y-94.12
X121.0Y-58.5
X121.0Y-100.5
X121.06Y-49.97
X121.06Y-91.97
X121.12Y-46.51
X121.12Y-88.51
X121.25Y-44.75
X121.25Y-86.75
X121.642Y-32.438
X121.642Y-74.438
X121.73Y-61.68
X121.73Y-103.68
X122.25Y-55.25
X122.25Y-97.25
X122.32Y-31.59
X122.32Y-73.59
X123.0Y-55.25
X123.0Y-97.25
X123.06Y-57.58
X123.06Y-58.55
X123.06Y-99.58
X123.06Y-100.55
X123.27Y-50.26
X123.27Y-92.26
X123.28Y-31.63
X123.28Y-73.63
X123.31Y-52.04
X123.31Y-94.04
X123.32Y-51.2
X123.32Y-93.2
X123.5Y-54.75
X123.5Y-96.75
X123.915Y-35.335
X123.915Y-77.335
X124.14Y-47.3
X124.14Y-61.33
X124.14Y-89.3
X124.14Y-103.33
X124.15Y-33.5
X124.15Y-75.5
X124.19Y-58.14
X124.19Y-100.14
X124.21Y-48.2
X124.21Y-90.2
X124.3Y-37.55
X124.3Y-79.55
X124.357Y-38.347
X124.357Y-80.347
X124.378Y-39.932
X124.378Y-81.932
X124.4Y-40.85
X124.4Y-82.85
X124.413Y-36.759
X124.413Y-78.759
X124.43Y-32.48
X124.43Y-74.48
X124.5Y-49.0
X124.5Y-91.0
X124.52Y-34.6
X124.52Y-76.6
X124.586Y-39.113
X124.586Y-81.113
X124.66Y-42.24
X124.66Y-84.24
X124.88Y-33.9
X124.88Y-75.9
X125.31Y-41.73
X125.31Y-83.73
X125.34Y-32.99
X125.34Y-74.99
X125.39Y-34.89
X125.39Y-76.89
X125.42Y-40.82
X125.42Y-82.82
X125.47Y-48.95
X125.47Y-90.95
X125.51Y-39.8
X125.51Y-81.8
X125.54Y-37.81
X125.54Y-79.81
X125.59Y-36.88
X125.59Y-38.81
X125.59Y-78.88
X125.59Y-80.81
X126.0Y-52.5
X126.0Y-55.0
X126.0Y-94.5
X126.0Y-97.0
X126.1Y-33.9
X126.1Y-75.9
X126.14Y-61.75
X126.14Y-103.75
X126.25Y-48.75
X126.25Y-90.75
X126.33Y-32.99
X126.33Y-74.99
X126.36Y-34.83
X126.36Y-76.83
X126.5Y-51.75
X126.5Y-93.75
X126.98Y-36.73
X126.98Y-78.73
X127.0Y-47.92
X127.0Y-89.92
X127.25Y-41.0
X127.25Y-42.0
X127.25Y-83.0
X127.25Y-84.0
X127.32Y-34.83
X127.32Y-76.83
X127.5Y-39.5
X127.5Y-40.25
X127.5Y-55.25
X127.5Y-81.5
X127.5Y-82.25
X127.5Y-97.25
X127.597Y-38.728
X127.597Y-80.728
X127.75Y-42.75
X127.75Y-84.75
X128.0Y-61.76
X128.0Y-103.76
X128.06Y-36.73
X128.06Y-78.73
X128.25Y-47.5
X128.25Y-89.5
X128.46Y-34.83
X128.46Y-76.83
X128.5Y-38.0
X128.5Y-55.0
X128.5Y-80.0
X128.5Y-97.0
X128.75Y-43.25
X128.75Y-85.25
X129.11Y-36.71
X129.11Y-78.71
X129.2Y-32.4
X129.2Y-74.4
X129.25Y-38.0
X129.25Y-80.0
X129.54Y-34.81
X129.54Y-76.81
X129.66Y-61.83
X129.66Y-103.83
X129.75Y-43.0
X129.75Y-47.5
X129.75Y-85.0
X129.75Y-89.5
X130.0Y-38.0
X130.0Y-43.75
X130.0Y-80.0
X130.0Y-85.75
X130.25Y-36.71
X130.25Y-56.5
X130.25Y-78.71
X130.25Y-98.5
X130.42Y-34.83
X130.42Y-76.83
X130.75Y-38.0
X130.75Y-43.25
X130.75Y-80.0
X130.75Y-85.25
X131.0Y-55.75
X131.0Y-97.75
X131.1Y-32.34
X131.1Y-74.34
X131.15Y-36.76
X131.15Y-78.76
X131.25Y-47.5
X131.25Y-89.5
X131.27Y-34.81
X131.27Y-76.81
X131.5Y-38.0
X131.5Y-80.0
X131.75Y-43.0
X131.75Y-85.0
X132.0Y-56.5
X132.0Y-98.5
X132.03Y-36.76
X132.03Y-78.76
X132.17Y-34.81
X132.17Y-76.81
X132.5Y-38.5
X132.5Y-39.25
X132.5Y-40.0
X132.5Y-41.0
X132.5Y-41.75
X132.5Y-42.5
X132.5Y-80.5
X132.5Y-81.25
X132.5Y-82.0
X132.5Y-83.0
X132.5Y-83.75
X132.5Y-84.5
X132.75Y-47.5
X132.75Y-89.5
X132.91Y-36.79
X132.91Y-78.79
X133.11Y-34.75
X133.11Y-76.75
X133.45Y-32.34
X133.45Y-74.34
X133.5Y-53.0
X133.5Y-56.5
X133.5Y-95.0
X133.5Y-98.5
X133.75Y-55.0
X133.75Y-97.0
X133.99Y-34.78
X133.99Y-76.78
X134.05Y-36.79
X134.05Y-78.79
X134.19Y-47.41
X134.19Y-89.41
X134.25Y-60.75
X134.25Y-61.5
X134.25Y-102.75
X134.25Y-103.5
X134.94Y-34.83
X134.94Y-76.83
X135.14Y-46.81
X135.14Y-88.81
X135.25Y-55.25
X135.25Y-97.25
X135.5Y-61.5
X135.5Y-103.5
X135.81Y-46.12
X135.81Y-88.12
X135.82Y-34.84
X135.82Y-76.84
X136.25Y-45.25
X136.25Y-49.0
X136.25Y-54.75
X136.25Y-61.5
X136.25Y-87.25
X136.25Y-91.0
X136.25Y-96.75
X136.25Y-103.5
X136.32Y-33.26
X136.32Y-75.26
X136.5Y-59.0
X136.5Y-101.0
X137.0Y-48.25
X137.0Y-90.25
X137.25Y-49.0
X137.25Y-55.25
X137.25Y-60.25
X137.25Y-91.0
X137.25Y-97.25
X137.25Y-102.25
X137.38Y-31.93
X137.38Y-73.93
X137.5Y-59.25
X137.5Y-61.25
X137.5Y-101.25
X137.5Y-103.25
X137.75Y-48.25
X137.75Y-58.0
X137.75Y-90.25
X137.75Y-100.0
X138.0Y-47.5
X138.0Y-89.5
X138.25Y-49.0
X138.25Y-51.75
X138.25Y-91.0
X138.25Y-93.75
X138.5Y-32.5
X138.5Y-33.5
X138.5Y-34.5
X138.5Y-60.25
X138.5Y-74.5
X138.5Y-75.5
X138.5Y-76.5
X138.5Y-102.25
X138.56Y-42.69
X138.56Y-84.69
X138.75Y-56.5
X138.75Y-61.25
X138.75Y-98.5
X138.75Y-103.25
X139.0Y-52.25
X139.0Y-57.5
X139.0Y-58.75
X139.0Y-94.25
X139.0Y-99.5
X139.0Y-100.75
X139.5Y-31.75
X139.5Y-50.75
X139.5Y-51.5
X139.5Y-73.75
X139.5Y-92.75
X139.5Y-93.5
X140.0Y-61.5
X140.0Y-103.5
X140.25Y-31.5
X140.25Y-73.5
X140.5Y-58.25
X140.5Y-100.25
X141.0Y-31.75
X141.0Y-61.5
X141.0Y-73.75
X141.0Y-103.5
X142.0Y-32.5
X142.0Y-33.5
X142.0Y-34.5
X142.0Y-60.0
X142.0Y-61.0
X142.0Y-74.5
X142.0Y-75.5
X142.0Y-76.5
X142.0Y-102.0
X142.0Y-103.0
X142.25Y-56.0
X142.25Y-98.0
X154.67Y-62.0
X154.67Y-104.0
X154.76Y-54.93
X154.76Y-96.93
X154.82Y-35.73
X154.82Y-77.73
X154.94Y-33.37
X154.94Y-75.37
X154.977Y-41.22
X154.977Y-83.22
X155.11Y-32.34
X155.11Y-34.29
X155.11Y-74.34
X155.11Y-76.29
X155.17Y-61.07
X155.17Y-103.07
X155.36Y-54.1
X155.36Y-96.1
X155.37Y-52.18
X155.37Y-94.18
X155.41Y-49.71
X155.41Y-91.71
X155.43Y-48.79
X155.43Y-90.79
X155.71Y-62.0
X155.71Y-104.0
X156.0Y-37.0
X156.0Y-38.0
X156.0Y-79.0
X156.0Y-80.0
X156.04Y-50.29
X156.04Y-92.29
X156.13Y-49.44
X156.13Y-91.44
X156.2Y-33.32
X156.2Y-75.32
X156.37Y-31.94
X156.37Y-73.94
X156.5Y-42.5
X156.5Y-84.5
X156.71Y-50.82
X156.71Y-92.82
X156.8Y-50.04
X156.8Y-92.04
X156.81Y-53.14
X156.81Y-95.14
X156.98Y-43.36
X156.98Y-85.36
X157.0Y-36.0
X157.0Y-37.0
X157.0Y-78.0
X157.0Y-79.0
X157.16Y-60.16
X157.16Y-102.16
X157.41Y-51.37
X157.41Y-93.37
X157.5Y-42.5
X157.5Y-84.5
X157.59Y-47.56
X157.59Y-89.56
X158.0Y-35.0
X158.0Y-36.0
X158.0Y-77.0
X158.0Y-78.0
X158.09Y-33.36
X158.09Y-75.36
X158.13Y-51.94
X158.13Y-93.94
X158.5Y-39.5
X158.5Y-42.0
X158.5Y-81.5
X158.5Y-84.0
X158.67Y-61.75
X158.67Y-103.75
X158.77Y-52.44
X158.77Y-94.44
X159.0Y-34.0
X159.0Y-35.0
X159.0Y-76.0
X159.0Y-77.0
X159.03Y-58.46
X159.03Y-100.46
X159.29Y-60.23
X159.29Y-102.23
X159.48Y-32.05
X159.48Y-33.0
X159.48Y-74.05
X159.48Y-75.0
X159.5Y-41.5
X159.5Y-47.0
X159.5Y-83.5
X159.5Y-89.0
X160.0Y-34.0
X160.0Y-76.0
X160.38Y-41.5
X160.38Y-83.5
X160.51Y-48.87
X160.51Y-90.87
X160.6Y-39.68
X160.6Y-81.68
X160.74Y-33.3
X160.74Y-75.3
X160.81Y-60.92
X160.81Y-102.92
X161.11Y-37.13
X161.11Y-79.13
X161.15Y-38.91
X161.15Y-80.91
X162.15Y-43.1
X162.15Y-85.1
X162.5Y-46.0
X162.5Y-88.0
X162.73Y-61.54
X162.73Y-103.54
X162.81Y-38.91
X162.81Y-80.91
X162.86Y-35.34
X162.86Y-77.34
X162.95Y-40.84
X162.95Y-82.84
X163.0Y-46.75
X163.0Y-88.75
X163.5Y-45.0
X163.5Y-57.5
X163.5Y-87.0
X163.5Y-99.5
X163.73Y-48.36
X163.73Y-90.36
X163.82Y-34.17
X163.82Y-76.17
X163.87Y-47.25
X163.87Y-89.25
X163.9Y-52.12
X163.9Y-94.12
X164.0Y-58.5
X164.0Y-100.5
X164.06Y-49.97
X164.06Y-91.97
X164.12Y-46.51
X164.12Y-88.51
X164.25Y-44.75
X164.25Y-86.75
X164.642Y-32.438
X164.642Y-74.438
X164.73Y-61.68
X164.73Y-103.68
X165.25Y-55.25
X165.25Y-97.25
X165.32Y-31.59
X165.32Y-73.59
X166.0Y-55.25
X166.0Y-97.25
X166.06Y-57.58
X166.06Y-58.55
X166.06Y-99.58
X166.06Y-100.55
X166.27Y-50.26
X166.27Y-92.26
X166.28Y-31.63
X166.28Y-73.63
X166.31Y-52.04
X166.31Y-94.04
X166.32Y-51.2
X166.32Y-93.2
X166.5Y-54.75
X166.5Y-96.75
X166.915Y-35.335
X166.915Y-77.335
X167.14Y-47.3
X167.14Y-61.33
X167.14Y-89.3
X167.14Y-103.33
X167.15Y-33.5
X167.15Y-75.5
X167.19Y-58.14
X167.19Y-100.14
X167.21Y-48.2
X167.21Y-90.2
X167.3Y-37.55
X167.3Y-79.55
X167.357Y-38.347
X167.357Y-80.347
X167.378Y-39.932
X167.378Y-81.932
X167.4Y-40.85
X167.4Y-82.85
X167.413Y-36.759
X167.413Y-78.759
X167.43Y-32.48
X167.43Y-74.48
X167.5Y-49.0
X167.5Y-91.0
X167.52Y-34.6
X167.52Y-76.6
X167.586Y-39.113
X167.586Y-81.113
X167.66Y-42.24
X167.66Y-84.24
X167.88Y-33.9
X167.88Y-75.9
X168.31Y-41.73
X168.31Y-83.73
X168.34Y-32.99
X168.34Y-74.99
X168.39Y-34.89
X168.39Y-76.89
X168.42Y-40.82
X168.42Y-82.82
X168.47Y-48.95
X168.47Y-90.95
X168.51Y-39.8
X168.51Y-81.8
X168.54Y-37.81
X168.54Y-79.81
X168.59Y-36.88
X168.59Y-38.81
X168.59Y-78.88
X168.59Y-80.81
X169.0Y-52.5
X169.0Y-55.0
X169.0Y-94.5
X169.0Y-97.0
X169.1Y-33.9
X169.1Y-75.9
X169.14Y-61.75
X169.14Y-103.75
X169.25Y-48.75
X169.25Y-90.75
X169.33Y-32.99
X169.33Y-74.99
X169.36Y-34.83
X169.36Y-76.83
X169.5Y-51.75
X169.5Y-93.75
X169.98Y-36.73
X169.98Y-78.73
X170.0Y-47.92
X170.0Y-89.92
X170.25Y-41.0
X170.25Y-42.0
X170.25Y-83.0
X170.25Y-84.0
X170.32Y-34.83
X170.32Y-76.83
X170.5Y-39.5
X170.5Y-40.25
X170.5Y-55.25
X170.5Y-81.5
X170.5Y-82.25
X170.5Y-97.25
X170.597Y-38.728
X170.597Y-80.728
X170.75Y-42.75
X170.75Y-84.75
X171.0Y-61.76
X171.0Y-103.76
X171.06Y-36.73
X171.06Y-78.73
X171.25Y-47.5
X171.25Y-89.5
X171.46Y-34.83
X171.46Y-76.83
X171.5Y-38.0
X171.5Y-55.0
X171.5Y-80.0
X171.5Y-97.0
X171.75Y-43.25
X171.75Y-85.25
X172.11Y-36.71
X172.11Y-78.71
X172.2Y-32.4
X172.2Y-74.4
X172.25Y-38.0
X172.25Y-80.0
X172.54Y-34.81
X172.54Y-76.81
X172.66Y-61.83
X172.66Y-103.83
X172.75Y-43.0
X172.75Y-47.5
X172.75Y-85.0
X172.75Y-89.5
X173.0Y-38.0
X173.0Y-43.75
X173.0Y-80.0
X173.0Y-85.75
X173.25Y-36.71
X173.25Y-56.5
X173.25Y-78.71
X173.25Y-98.5
X173.42Y-34.83
X173.42Y-76.83
X173.75Y-38.0
X173.75Y-43.25
X173.75Y-80.0
X173.75Y-85.25
X174.0Y-55.75
X174.0Y-97.75
X174.1Y-32.34
X174.1Y-74.34
X174.15Y-36.76
X174.15Y-78.76
X174.25Y-47.5
X174.25Y-89.5
X174.27Y-34.81
X174.27Y-76.81
X174.5Y-38.0
X174.5Y-80.0
X174.75Y-43.0
X174.75Y-85.0
X175.0Y-56.5
X175.0Y-98.5
X175.03Y-36.76
X175.03Y-78.76
X175.17Y-34.81
X175.17Y-76.81
X175.5Y-38.5
X175.5Y-39.25
X175.5Y-40.0
X175.5Y-41.0
X175.5Y-41.75
X175.5Y-42.5
X175.5Y-80.5
X175.5Y-81.25
X175.5Y-82.0
X175.5Y-83.0
X175.5Y-83.75
X175.5Y-84.5
X175.75Y-47.5
X175.75Y-89.5
X175.91Y-36.79
X175.91Y-78.79
X176.11Y-34.75
X176.11Y-76.75
X176.45Y-32.34
X176.45Y-74.34
X176.5Y-53.0
X176.5Y-56.5
X176.5Y-95.0
X176.5Y-98.5
X176.75Y-55.0
X176.75Y-97.0
X176.99Y-34.78
X176.99Y-76.78
X177.05Y-36.79
X177.05Y-78.79
X177.19Y-47.41
X177.19Y-89.41
X177.25Y-60.75
X177.25Y-61.5
X177.25Y-102.75
X177.25Y-103.5
X177.94Y-34.83
X177.94Y-76.83
X178.14Y-46.81
X178.14Y-88.81
X178.25Y-55.25
X178.25Y-97.25
X178.5Y-61.5
X178.5Y-103.5
X178.81Y-46.12
X178.81Y-88.12
X178.82Y-34.84
X178.82Y-76.84
X179.25Y-45.25
X179.25Y-49.0
X179.25Y-54.75
X179.25Y-61.5
X179.25Y-87.25
X179.25Y-91.0
X179.25Y-96.75
X179.25Y-103.5
X179.32Y-33.26
X179.32Y-75.26
X179.5Y-59.0
X179.5Y-101.0
X180.0Y-48.25
X180.0Y-90.25
X180.25Y-49.0
X180.25Y-55.25
X180.25Y-60.25
X180.25Y-91.0
X180.25Y-97.25
X180.25Y-102.25
X180.38Y-31.93
X180.38Y-73.93
X180.5Y-59.25
X180.5Y-61.25
X180.5Y-101.25
X180.5Y-103.25
X180.75Y-48.25
X180.75Y-58.0
X180.75Y-90.25
X180.75Y-100.0
X181.0Y-47.5
X181.0Y-89.5
X181.25Y-49.0
X181.25Y-51.75
X181.25Y-91.0
X181.25Y-93.75
X181.5Y-32.5
X181.5Y-33.5
X181.5Y-34.5
X181.5Y-60.25
X181.5Y-74.5
X181.5Y-75.5
X181.5Y-76.5
X181.5Y-102.25
X181.56Y-42.69
X181.56Y-84.69
X181.75Y-56.5
X181.75Y-61.25
X181.75Y-98.5
X181.75Y-103.25
X182.0Y-52.25
X182.0Y-57.5
X182.0Y-58.75
X182.0Y-94.25
X182.0Y-99.5
X182.0Y-100.75
X182.5Y-31.75
X182.5Y-50.75
X182.5Y-51.5
X182.5Y-73.75
X182.5Y-92.75
X182.5Y-93.5
X183.0Y-61.5
X183.0Y-103.5
X183.25Y-31.5
X183.25Y-73.5
X183.5Y-58.25
X183.5Y-100.25
X184.0Y-31.75
X184.0Y-61.5
X184.0Y-73.75
X184.0Y-103.5
X185.0Y-32.5
X185.0Y-33.5
X185.0Y-34.5
X185.0Y-60.0
X185.0Y-61.0
X185.0Y-74.5
X185.0Y-75.5
X185.0Y-76.5
X185.0Y-102.0
X185.0Y-103.0
X185.25Y-56.0
X185.25Y-98.0
T3
X137.375Y-33.225
X137.375Y-34.495
X137.375Y-35.765
X137.375Y-37.035
X137.375Y-38.305
X137.375Y-39.575
X137.375Y-75.225
X137.375Y-76.495
X137.375Y-77.765
X137.375Y-79.035
X137.375Y-80.305
X137.375Y-81.575
X180.375Y-33.225
X180.375Y-34.495
X180.375Y-35.765
X180.375Y-37.035
X180.375Y-38.305
X180.375Y-39.575
X180.375Y-75.225
X180.375Y-76.495
X180.375Y-77.765
X180.375Y-79.035
X180.375Y-80.305
X180.375Y-81.575
T4
X122.125Y-53.675
X122.125Y-95.675
X124.665Y-53.675
X124.665Y-95.675
X127.205Y-53.675
X127.205Y-95.675
X129.745Y-53.675
X129.745Y-95.675
X132.285Y-53.675
X132.285Y-95.675
X134.825Y-53.675
X134.825Y-95.675
X137.365Y-53.675
X137.365Y-95.675
X139.905Y-53.675
X139.905Y-95.675
X165.125Y-53.675
X165.125Y-95.675
X167.665Y-53.675
X167.665Y-95.675
X170.205Y-53.675
X170.205Y-95.675
X172.745Y-53.675
X172.745Y-95.675
X175.285Y-53.675
X175.285Y-95.675
X177.825Y-53.675
X177.825Y-95.675
X180.365Y-53.675
X180.365Y-95.675
X182.905Y-53.675
X182.905Y-95.675
T2
X114.09Y-46.48G85X113.49Y-46.48
G05
X114.09Y-55.12G85X113.49Y-55.12
G05
X114.09Y-88.48G85X113.49Y-88.48
G05
X114.09Y-97.12G85X113.49Y-97.12
G05
X118.52Y-46.48G85X117.42Y-46.48
G05
X118.52Y-55.12G85X117.42Y-55.12
G05
X118.52Y-88.48G85X117.42Y-88.48
G05
X118.52Y-97.12G85X117.42Y-97.12
G05
X157.09Y-46.48G85X156.49Y-46.48
G05
X157.09Y-55.12G85X156.49Y-55.12
G05
X157.09Y-88.48G85X156.49Y-88.48
G05
X157.09Y-97.12G85X156.49Y-97.12
G05
X161.52Y-46.48G85X160.42Y-46.48
G05
X161.52Y-55.12G85X160.42Y-55.12
G05
X161.52Y-88.48G85X160.42Y-88.48
G05
X161.52Y-97.12G85X160.42Y-97.12
G05
T0
M30
