G04 #@! TF.GenerationSoftware,KiCad,Pcbnew,6.0.11-2627ca5db0~126~ubuntu22.04.1*
G04 #@! TF.CreationDate,2023-02-05T22:44:53+11:00*
G04 #@! TF.ProjectId,panel,70616e65-6c2e-46b6-9963-61645f706362,rev?*
G04 #@! TF.SameCoordinates,Original*
G04 #@! TF.FileFunction,Soldermask,Bot*
G04 #@! TF.FilePolarity,Negative*
%FSLAX46Y46*%
G04 Gerber Fmt 4.6, Leading zero omitted, Abs format (unit mm)*
G04 Created by KiCad (PCBNEW 6.0.11-2627ca5db0~126~ubuntu22.04.1) date 2023-02-05 22:44:53*
%MOMM*%
%LPD*%
G01*
G04 APERTURE LIST*
%ADD10R,1.700000X1.700000*%
%ADD11O,1.700000X1.700000*%
%ADD12C,0.650000*%
%ADD13O,2.100000X1.000000*%
%ADD14O,1.600000X1.000000*%
%ADD15C,3.000000*%
%ADD16R,1.000000X1.000000*%
%ADD17O,1.000000X1.000000*%
%ADD18R,3.000000X0.350000*%
%ADD19C,1.000000*%
G04 APERTURE END LIST*
D10*
X122125000Y-53675000D03*
D11*
X124665000Y-53675000D03*
X127205000Y-53675000D03*
X129745000Y-53675000D03*
X132285000Y-53675000D03*
X134825000Y-53675000D03*
X137365000Y-53675000D03*
X139905000Y-53675000D03*
D10*
X122125000Y-95675000D03*
D11*
X124665000Y-95675000D03*
X127205000Y-95675000D03*
X129745000Y-95675000D03*
X132285000Y-95675000D03*
X134825000Y-95675000D03*
X137365000Y-95675000D03*
X139905000Y-95675000D03*
D12*
X117440000Y-53690000D03*
X117440000Y-47910000D03*
D13*
X117970000Y-46480000D03*
X117970000Y-55120000D03*
D14*
X113790000Y-46480000D03*
X113790000Y-55120000D03*
D15*
X102500000Y-25000000D03*
D10*
X165125000Y-53675000D03*
D11*
X167665000Y-53675000D03*
X170205000Y-53675000D03*
X172745000Y-53675000D03*
X175285000Y-53675000D03*
X177825000Y-53675000D03*
X180365000Y-53675000D03*
X182905000Y-53675000D03*
D15*
X102500000Y-111000000D03*
D10*
X165125000Y-95675000D03*
D11*
X167665000Y-95675000D03*
X170205000Y-95675000D03*
X172745000Y-95675000D03*
X175285000Y-95675000D03*
X177825000Y-95675000D03*
X180365000Y-95675000D03*
X182905000Y-95675000D03*
D12*
X160440000Y-53690000D03*
X160440000Y-47910000D03*
D13*
X160970000Y-46480000D03*
D14*
X156790000Y-55120000D03*
X156790000Y-46480000D03*
D13*
X160970000Y-55120000D03*
D16*
X137375000Y-39575000D03*
D17*
X137375000Y-38305000D03*
X137375000Y-37035000D03*
X137375000Y-35765000D03*
X137375000Y-34495000D03*
X137375000Y-33225000D03*
D15*
X194500000Y-25000000D03*
D12*
X117440000Y-95690000D03*
X117440000Y-89910000D03*
D13*
X117970000Y-88480000D03*
D14*
X113790000Y-88480000D03*
D13*
X117970000Y-97120000D03*
D14*
X113790000Y-97120000D03*
D16*
X180375000Y-39575000D03*
D17*
X180375000Y-38305000D03*
X180375000Y-37035000D03*
X180375000Y-35765000D03*
X180375000Y-34495000D03*
X180375000Y-33225000D03*
D16*
X180375000Y-81575000D03*
D17*
X180375000Y-80305000D03*
X180375000Y-79035000D03*
X180375000Y-77765000D03*
X180375000Y-76495000D03*
X180375000Y-75225000D03*
D15*
X194500000Y-111000000D03*
D16*
X137375000Y-81575000D03*
D17*
X137375000Y-80305000D03*
X137375000Y-79035000D03*
X137375000Y-77765000D03*
X137375000Y-76495000D03*
X137375000Y-75225000D03*
D12*
X160440000Y-95690000D03*
X160440000Y-89910000D03*
D13*
X160970000Y-97120000D03*
D14*
X156790000Y-88480000D03*
X156790000Y-97120000D03*
D13*
X160970000Y-88480000D03*
D18*
X165300000Y-43850000D03*
X165300000Y-43150000D03*
X165300000Y-42450000D03*
X165300000Y-41750000D03*
X165300000Y-41050000D03*
X165300000Y-40350000D03*
X165300000Y-39650000D03*
X165300000Y-38950000D03*
X165300000Y-38250000D03*
X165300000Y-37550000D03*
X165300000Y-36850000D03*
X165300000Y-36150000D03*
X165300000Y-85850000D03*
X165300000Y-85150000D03*
X165300000Y-84450000D03*
X165300000Y-83750000D03*
X165300000Y-83050000D03*
X165300000Y-82350000D03*
X165300000Y-81650000D03*
X165300000Y-80950000D03*
X165300000Y-80250000D03*
X165300000Y-79550000D03*
X165300000Y-78850000D03*
X165300000Y-78150000D03*
D19*
X191500000Y-24000000D03*
X105500000Y-112000000D03*
D18*
X122300000Y-43850000D03*
X122300000Y-43150000D03*
X122300000Y-42450000D03*
X122300000Y-41750000D03*
X122300000Y-41050000D03*
X122300000Y-40350000D03*
X122300000Y-39650000D03*
X122300000Y-38950000D03*
X122300000Y-38250000D03*
X122300000Y-37550000D03*
X122300000Y-36850000D03*
X122300000Y-36150000D03*
D19*
X105500000Y-24000000D03*
D18*
X122300000Y-85850000D03*
X122300000Y-85150000D03*
X122300000Y-84450000D03*
X122300000Y-83750000D03*
X122300000Y-83050000D03*
X122300000Y-82350000D03*
X122300000Y-81650000D03*
X122300000Y-80950000D03*
X122300000Y-80250000D03*
X122300000Y-79550000D03*
X122300000Y-78850000D03*
X122300000Y-78150000D03*
D19*
X191500000Y-112000000D03*
M02*
