G04 #@! TF.GenerationSoftware,KiCad,Pcbnew,6.0.11-2627ca5db0~126~ubuntu22.04.1*
G04 #@! TF.CreationDate,2023-02-05T22:44:53+11:00*
G04 #@! TF.ProjectId,panel,70616e65-6c2e-46b6-9963-61645f706362,rev?*
G04 #@! TF.SameCoordinates,Original*
G04 #@! TF.FileFunction,Paste,Bot*
G04 #@! TF.FilePolarity,Positive*
%FSLAX46Y46*%
G04 Gerber Fmt 4.6, Leading zero omitted, Abs format (unit mm)*
G04 Created by KiCad (PCBNEW 6.0.11-2627ca5db0~126~ubuntu22.04.1) date 2023-02-05 22:44:53*
%MOMM*%
%LPD*%
G01*
G04 APERTURE LIST*
%ADD10R,3.000000X0.350000*%
G04 APERTURE END LIST*
D10*
X165300000Y-43850000D03*
X165300000Y-43150000D03*
X165300000Y-42450000D03*
X165300000Y-41750000D03*
X165300000Y-41050000D03*
X165300000Y-40350000D03*
X165300000Y-39650000D03*
X165300000Y-38950000D03*
X165300000Y-38250000D03*
X165300000Y-37550000D03*
X165300000Y-36850000D03*
X165300000Y-36150000D03*
X165300000Y-85850000D03*
X165300000Y-85150000D03*
X165300000Y-84450000D03*
X165300000Y-83750000D03*
X165300000Y-83050000D03*
X165300000Y-82350000D03*
X165300000Y-81650000D03*
X165300000Y-80950000D03*
X165300000Y-80250000D03*
X165300000Y-79550000D03*
X165300000Y-78850000D03*
X165300000Y-78150000D03*
X122300000Y-43850000D03*
X122300000Y-43150000D03*
X122300000Y-42450000D03*
X122300000Y-41750000D03*
X122300000Y-41050000D03*
X122300000Y-40350000D03*
X122300000Y-39650000D03*
X122300000Y-38950000D03*
X122300000Y-38250000D03*
X122300000Y-37550000D03*
X122300000Y-36850000D03*
X122300000Y-36150000D03*
X122300000Y-85850000D03*
X122300000Y-85150000D03*
X122300000Y-84450000D03*
X122300000Y-83750000D03*
X122300000Y-83050000D03*
X122300000Y-82350000D03*
X122300000Y-81650000D03*
X122300000Y-80950000D03*
X122300000Y-80250000D03*
X122300000Y-79550000D03*
X122300000Y-78850000D03*
X122300000Y-78150000D03*
M02*
