G04 #@! TF.GenerationSoftware,KiCad,Pcbnew,6.0.11-2627ca5db0~126~ubuntu22.04.1*
G04 #@! TF.CreationDate,2023-02-05T22:44:53+11:00*
G04 #@! TF.ProjectId,panel,70616e65-6c2e-46b6-9963-61645f706362,rev?*
G04 #@! TF.SameCoordinates,Original*
G04 #@! TF.FileFunction,Paste,Top*
G04 #@! TF.FilePolarity,Positive*
%FSLAX46Y46*%
G04 Gerber Fmt 4.6, Leading zero omitted, Abs format (unit mm)*
G04 Created by KiCad (PCBNEW 6.0.11-2627ca5db0~126~ubuntu22.04.1) date 2023-02-05 22:44:53*
%MOMM*%
%LPD*%
G01*
G04 APERTURE LIST*
G04 Aperture macros list*
%AMRoundRect*
0 Rectangle with rounded corners*
0 $1 Rounding radius*
0 $2 $3 $4 $5 $6 $7 $8 $9 X,Y pos of 4 corners*
0 Add a 4 corners polygon primitive as box body*
4,1,4,$2,$3,$4,$5,$6,$7,$8,$9,$2,$3,0*
0 Add four circle primitives for the rounded corners*
1,1,$1+$1,$2,$3*
1,1,$1+$1,$4,$5*
1,1,$1+$1,$6,$7*
1,1,$1+$1,$8,$9*
0 Add four rect primitives between the rounded corners*
20,1,$1+$1,$2,$3,$4,$5,0*
20,1,$1+$1,$4,$5,$6,$7,0*
20,1,$1+$1,$6,$7,$8,$9,0*
20,1,$1+$1,$8,$9,$2,$3,0*%
%AMFreePoly0*
4,1,9,5.362500,-0.866500,1.237500,-0.866500,1.237500,-0.450000,-1.237500,-0.450000,-1.237500,0.450000,1.237500,0.450000,1.237500,0.866500,5.362500,0.866500,5.362500,-0.866500,5.362500,-0.866500,$1*%
G04 Aperture macros list end*
%ADD10R,1.500000X0.900000*%
%ADD11R,0.900000X1.500000*%
%ADD12R,0.900000X0.900000*%
%ADD13RoundRect,0.150000X0.587500X0.150000X-0.587500X0.150000X-0.587500X-0.150000X0.587500X-0.150000X0*%
%ADD14RoundRect,0.237500X0.237500X-0.300000X0.237500X0.300000X-0.237500X0.300000X-0.237500X-0.300000X0*%
%ADD15RoundRect,0.237500X0.250000X0.237500X-0.250000X0.237500X-0.250000X-0.237500X0.250000X-0.237500X0*%
%ADD16RoundRect,0.237500X0.300000X0.237500X-0.300000X0.237500X-0.300000X-0.237500X0.300000X-0.237500X0*%
%ADD17R,1.450000X0.600000*%
%ADD18R,1.450000X0.300000*%
%ADD19RoundRect,0.237500X0.237500X-0.250000X0.237500X0.250000X-0.237500X0.250000X-0.237500X-0.250000X0*%
%ADD20RoundRect,0.237500X-0.250000X-0.237500X0.250000X-0.237500X0.250000X0.237500X-0.250000X0.237500X0*%
%ADD21RoundRect,0.237500X-0.300000X-0.237500X0.300000X-0.237500X0.300000X0.237500X-0.300000X0.237500X0*%
%ADD22R,2.300000X0.900000*%
%ADD23FreePoly0,0.000000*%
G04 APERTURE END LIST*
D10*
X122715000Y-74715000D03*
X122715000Y-75985000D03*
X122715000Y-77255000D03*
X122715000Y-78525000D03*
X122715000Y-79795000D03*
X122715000Y-81065000D03*
X122715000Y-82335000D03*
X122715000Y-83605000D03*
X122715000Y-84875000D03*
X122715000Y-86145000D03*
X122715000Y-87415000D03*
X122715000Y-88685000D03*
X122715000Y-89955000D03*
X122715000Y-91225000D03*
D11*
X124480000Y-92475000D03*
X125750000Y-92475000D03*
X127020000Y-92475000D03*
X128290000Y-92475000D03*
X129560000Y-92475000D03*
X130830000Y-92475000D03*
X132100000Y-92475000D03*
X133370000Y-92475000D03*
X134640000Y-92475000D03*
X135910000Y-92475000D03*
X137180000Y-92475000D03*
X138450000Y-92475000D03*
D10*
X140215000Y-91225000D03*
X140215000Y-89955000D03*
X140215000Y-88685000D03*
X140215000Y-87415000D03*
X140215000Y-86145000D03*
X140215000Y-84875000D03*
X140215000Y-83605000D03*
X140215000Y-82335000D03*
X140215000Y-81065000D03*
X140215000Y-79795000D03*
X140215000Y-78525000D03*
X140215000Y-77255000D03*
X140215000Y-75985000D03*
X140215000Y-74715000D03*
D12*
X128565000Y-82435000D03*
X129965000Y-82435000D03*
X129965000Y-83835000D03*
X131365000Y-83835000D03*
X128565000Y-83835000D03*
X129965000Y-81035000D03*
X128565000Y-81035000D03*
X131365000Y-81035000D03*
X131365000Y-82435000D03*
D13*
X118937500Y-83550000D03*
X118937500Y-81650000D03*
X117062500Y-82600000D03*
D14*
X164990000Y-59762500D03*
X164990000Y-58037500D03*
X119100000Y-76162500D03*
X119100000Y-74437500D03*
X121990000Y-101762500D03*
X121990000Y-100037500D03*
D15*
X163712500Y-78130000D03*
X161887500Y-78130000D03*
D14*
X168900000Y-58112500D03*
X168900000Y-56387500D03*
D15*
X156872500Y-44590000D03*
X155047500Y-44590000D03*
D16*
X162162500Y-85100000D03*
X160437500Y-85100000D03*
D14*
X162100000Y-76162500D03*
X162100000Y-74437500D03*
D17*
X118885000Y-47550000D03*
X118885000Y-48350000D03*
D18*
X118885000Y-49550000D03*
X118885000Y-50550000D03*
X118885000Y-51050000D03*
X118885000Y-52050000D03*
D17*
X118885000Y-53250000D03*
X118885000Y-54050000D03*
X118885000Y-54050000D03*
X118885000Y-53250000D03*
D18*
X118885000Y-52550000D03*
X118885000Y-51550000D03*
X118885000Y-50050000D03*
X118885000Y-49050000D03*
D17*
X118885000Y-48350000D03*
X118885000Y-47550000D03*
D10*
X135450000Y-98750000D03*
X135450000Y-102050000D03*
X140350000Y-102050000D03*
X140350000Y-98750000D03*
D19*
X163800000Y-83512500D03*
X163800000Y-81687500D03*
D14*
X125900000Y-58112500D03*
X125900000Y-56387500D03*
D20*
X118887500Y-80100000D03*
X120712500Y-80100000D03*
D10*
X178450000Y-98750000D03*
X178450000Y-102050000D03*
X183350000Y-102050000D03*
X183350000Y-98750000D03*
D14*
X167150000Y-100112500D03*
X167150000Y-98387500D03*
D15*
X156872500Y-86590000D03*
X155047500Y-86590000D03*
X158822500Y-57070000D03*
X156997500Y-57070000D03*
X120712500Y-36130000D03*
X118887500Y-36130000D03*
D16*
X119292500Y-57090000D03*
X117567500Y-57090000D03*
D15*
X163712500Y-36130000D03*
X161887500Y-36130000D03*
X119212500Y-86650000D03*
X117387500Y-86650000D03*
D14*
X125900000Y-100112500D03*
X125900000Y-98387500D03*
D15*
X113872500Y-44590000D03*
X112047500Y-44590000D03*
D10*
X135450000Y-56750000D03*
X135450000Y-60050000D03*
X140350000Y-60050000D03*
X140350000Y-56750000D03*
D15*
X115822500Y-57070000D03*
X113997500Y-57070000D03*
D21*
X111977500Y-41220000D03*
X113702500Y-41220000D03*
X154977500Y-83220000D03*
X156702500Y-83220000D03*
D22*
X171250000Y-98600000D03*
D23*
X171337500Y-100100000D03*
D22*
X171250000Y-101600000D03*
D15*
X115822500Y-99070000D03*
X113997500Y-99070000D03*
D16*
X162292500Y-99090000D03*
X160567500Y-99090000D03*
D14*
X124150000Y-58112500D03*
X124150000Y-56387500D03*
X163700000Y-76162500D03*
X163700000Y-74437500D03*
D13*
X118937500Y-41550000D03*
X118937500Y-39650000D03*
X117062500Y-40600000D03*
D20*
X118887500Y-38100000D03*
X120712500Y-38100000D03*
X161887500Y-80100000D03*
X163712500Y-80100000D03*
D14*
X168900000Y-100112500D03*
X168900000Y-98387500D03*
D22*
X128250000Y-98600000D03*
D23*
X128337500Y-100100000D03*
D22*
X128250000Y-101600000D03*
D15*
X162212500Y-44650000D03*
X160387500Y-44650000D03*
D14*
X164990000Y-101762500D03*
X164990000Y-100037500D03*
D15*
X113872500Y-86590000D03*
X112047500Y-86590000D03*
D14*
X162100000Y-34162500D03*
X162100000Y-32437500D03*
X124150000Y-100112500D03*
X124150000Y-98387500D03*
D15*
X120712500Y-78130000D03*
X118887500Y-78130000D03*
D14*
X163700000Y-34162500D03*
X163700000Y-32437500D03*
D15*
X119212500Y-44650000D03*
X117387500Y-44650000D03*
D10*
X165715000Y-32715000D03*
X165715000Y-33985000D03*
X165715000Y-35255000D03*
X165715000Y-36525000D03*
X165715000Y-37795000D03*
X165715000Y-39065000D03*
X165715000Y-40335000D03*
X165715000Y-41605000D03*
X165715000Y-42875000D03*
X165715000Y-44145000D03*
X165715000Y-45415000D03*
X165715000Y-46685000D03*
X165715000Y-47955000D03*
X165715000Y-49225000D03*
D11*
X167480000Y-50475000D03*
X168750000Y-50475000D03*
X170020000Y-50475000D03*
X171290000Y-50475000D03*
X172560000Y-50475000D03*
X173830000Y-50475000D03*
X175100000Y-50475000D03*
X176370000Y-50475000D03*
X177640000Y-50475000D03*
X178910000Y-50475000D03*
X180180000Y-50475000D03*
X181450000Y-50475000D03*
D10*
X183215000Y-49225000D03*
X183215000Y-47955000D03*
X183215000Y-46685000D03*
X183215000Y-45415000D03*
X183215000Y-44145000D03*
X183215000Y-42875000D03*
X183215000Y-41605000D03*
X183215000Y-40335000D03*
X183215000Y-39065000D03*
X183215000Y-37795000D03*
X183215000Y-36525000D03*
X183215000Y-35255000D03*
X183215000Y-33985000D03*
X183215000Y-32715000D03*
D12*
X172965000Y-39035000D03*
X172965000Y-40435000D03*
X174365000Y-39035000D03*
X171565000Y-39035000D03*
X172965000Y-41835000D03*
X171565000Y-41835000D03*
X174365000Y-41835000D03*
X174365000Y-40435000D03*
X171565000Y-40435000D03*
D16*
X119162500Y-43100000D03*
X117437500Y-43100000D03*
X162162500Y-43100000D03*
X160437500Y-43100000D03*
D10*
X165715000Y-74715000D03*
X165715000Y-75985000D03*
X165715000Y-77255000D03*
X165715000Y-78525000D03*
X165715000Y-79795000D03*
X165715000Y-81065000D03*
X165715000Y-82335000D03*
X165715000Y-83605000D03*
X165715000Y-84875000D03*
X165715000Y-86145000D03*
X165715000Y-87415000D03*
X165715000Y-88685000D03*
X165715000Y-89955000D03*
X165715000Y-91225000D03*
D11*
X167480000Y-92475000D03*
X168750000Y-92475000D03*
X170020000Y-92475000D03*
X171290000Y-92475000D03*
X172560000Y-92475000D03*
X173830000Y-92475000D03*
X175100000Y-92475000D03*
X176370000Y-92475000D03*
X177640000Y-92475000D03*
X178910000Y-92475000D03*
X180180000Y-92475000D03*
X181450000Y-92475000D03*
D10*
X183215000Y-91225000D03*
X183215000Y-89955000D03*
X183215000Y-88685000D03*
X183215000Y-87415000D03*
X183215000Y-86145000D03*
X183215000Y-84875000D03*
X183215000Y-83605000D03*
X183215000Y-82335000D03*
X183215000Y-81065000D03*
X183215000Y-79795000D03*
X183215000Y-78525000D03*
X183215000Y-77255000D03*
X183215000Y-75985000D03*
X183215000Y-74715000D03*
D12*
X171565000Y-82435000D03*
X172965000Y-83835000D03*
X174365000Y-83835000D03*
X174365000Y-82435000D03*
X172965000Y-82435000D03*
X171565000Y-81035000D03*
X172965000Y-81035000D03*
X174365000Y-81035000D03*
X171565000Y-83835000D03*
D19*
X120800000Y-83512500D03*
X120800000Y-81687500D03*
D15*
X162212500Y-86650000D03*
X160387500Y-86650000D03*
D21*
X154977500Y-41220000D03*
X156702500Y-41220000D03*
D15*
X158822500Y-99070000D03*
X156997500Y-99070000D03*
D16*
X119162500Y-85100000D03*
X117437500Y-85100000D03*
D14*
X120700000Y-76162500D03*
X120700000Y-74437500D03*
D10*
X122715000Y-32715000D03*
X122715000Y-33985000D03*
X122715000Y-35255000D03*
X122715000Y-36525000D03*
X122715000Y-37795000D03*
X122715000Y-39065000D03*
X122715000Y-40335000D03*
X122715000Y-41605000D03*
X122715000Y-42875000D03*
X122715000Y-44145000D03*
X122715000Y-45415000D03*
X122715000Y-46685000D03*
X122715000Y-47955000D03*
X122715000Y-49225000D03*
D11*
X124480000Y-50475000D03*
X125750000Y-50475000D03*
X127020000Y-50475000D03*
X128290000Y-50475000D03*
X129560000Y-50475000D03*
X130830000Y-50475000D03*
X132100000Y-50475000D03*
X133370000Y-50475000D03*
X134640000Y-50475000D03*
X135910000Y-50475000D03*
X137180000Y-50475000D03*
X138450000Y-50475000D03*
D10*
X140215000Y-49225000D03*
X140215000Y-47955000D03*
X140215000Y-46685000D03*
X140215000Y-45415000D03*
X140215000Y-44145000D03*
X140215000Y-42875000D03*
X140215000Y-41605000D03*
X140215000Y-40335000D03*
X140215000Y-39065000D03*
X140215000Y-37795000D03*
X140215000Y-36525000D03*
X140215000Y-35255000D03*
X140215000Y-33985000D03*
X140215000Y-32715000D03*
D12*
X128565000Y-41835000D03*
X131365000Y-39035000D03*
X128565000Y-39035000D03*
X129965000Y-40435000D03*
X131365000Y-40435000D03*
X128565000Y-40435000D03*
X131365000Y-41835000D03*
X129965000Y-41835000D03*
X129965000Y-39035000D03*
D17*
X161885000Y-47550000D03*
X161885000Y-48350000D03*
D18*
X161885000Y-49550000D03*
X161885000Y-50550000D03*
X161885000Y-51050000D03*
X161885000Y-52050000D03*
D17*
X161885000Y-53250000D03*
X161885000Y-54050000D03*
X161885000Y-54050000D03*
X161885000Y-53250000D03*
D18*
X161885000Y-52550000D03*
X161885000Y-51550000D03*
X161885000Y-50050000D03*
X161885000Y-49050000D03*
D17*
X161885000Y-48350000D03*
X161885000Y-47550000D03*
D22*
X128250000Y-56600000D03*
D23*
X128337500Y-58100000D03*
D22*
X128250000Y-59600000D03*
D19*
X120800000Y-41512500D03*
X120800000Y-39687500D03*
D14*
X167150000Y-58112500D03*
X167150000Y-56387500D03*
D17*
X118885000Y-89550000D03*
X118885000Y-90350000D03*
D18*
X118885000Y-91550000D03*
X118885000Y-92550000D03*
X118885000Y-93050000D03*
X118885000Y-94050000D03*
D17*
X118885000Y-95250000D03*
X118885000Y-96050000D03*
X118885000Y-96050000D03*
X118885000Y-95250000D03*
D18*
X118885000Y-94550000D03*
X118885000Y-93550000D03*
X118885000Y-92050000D03*
X118885000Y-91050000D03*
D17*
X118885000Y-90350000D03*
X118885000Y-89550000D03*
D10*
X178450000Y-56750000D03*
X178450000Y-60050000D03*
X183350000Y-60050000D03*
X183350000Y-56750000D03*
D21*
X111977500Y-83220000D03*
X113702500Y-83220000D03*
D14*
X119100000Y-34162500D03*
X119100000Y-32437500D03*
X120700000Y-34162500D03*
X120700000Y-32437500D03*
D20*
X161887500Y-38100000D03*
X163712500Y-38100000D03*
D22*
X171250000Y-56600000D03*
D23*
X171337500Y-58100000D03*
D22*
X171250000Y-59600000D03*
D16*
X119292500Y-99090000D03*
X117567500Y-99090000D03*
D13*
X161937500Y-41550000D03*
X161937500Y-39650000D03*
X160062500Y-40600000D03*
D14*
X121990000Y-59762500D03*
X121990000Y-58037500D03*
D16*
X162292500Y-57090000D03*
X160567500Y-57090000D03*
D13*
X161937500Y-83550000D03*
X161937500Y-81650000D03*
X160062500Y-82600000D03*
D19*
X163800000Y-41512500D03*
X163800000Y-39687500D03*
D17*
X161885000Y-89550000D03*
X161885000Y-90350000D03*
D18*
X161885000Y-91550000D03*
X161885000Y-92550000D03*
X161885000Y-93050000D03*
X161885000Y-94050000D03*
D17*
X161885000Y-95250000D03*
X161885000Y-96050000D03*
X161885000Y-96050000D03*
X161885000Y-95250000D03*
D18*
X161885000Y-94550000D03*
X161885000Y-93550000D03*
X161885000Y-92050000D03*
X161885000Y-91050000D03*
D17*
X161885000Y-90350000D03*
X161885000Y-89550000D03*
M02*
