M48
; DRILL file {KiCad 6.0.11-2627ca5db0~126~ubuntu22.04.1} date Sun 05 Feb 2023 22:47:43
; FORMAT={-:-/ absolute / metric / decimal}
; #@! TF.CreationDate,2023-02-05T22:47:43+11:00
; #@! TF.GenerationSoftware,Kicad,Pcbnew,6.0.11-2627ca5db0~126~ubuntu22.04.1
; #@! TF.FileFunction,Plated,1,2,PTH
FMAT,2
METRIC
; #@! TA.AperFunction,Plated,PTH,ViaDrill
T1C0.300
; #@! TA.AperFunction,Plated,PTH,ComponentDrill
T2C1.000
%
G90
G05
T1
X108.99Y-36.34
X108.99Y-60.34
X108.99Y-84.34
X109.05Y-43.82
X109.05Y-67.82
X109.05Y-91.82
X109.07Y-38.91
X109.07Y-62.91
X109.07Y-86.91
X109.09Y-48.9
X109.09Y-72.9
X109.09Y-96.9
X109.15Y-41.42
X109.15Y-46.43
X109.15Y-65.42
X109.15Y-70.43
X109.15Y-89.42
X109.15Y-94.43
X109.25Y-30.81
X109.25Y-54.81
X109.25Y-78.81
X111.9Y-29.99
X111.9Y-53.99
X111.9Y-77.99
X112.63Y-41.18
X112.63Y-65.18
X112.63Y-89.18
X112.73Y-30.83
X112.73Y-54.83
X112.73Y-78.83
X112.79Y-29.97
X112.79Y-53.97
X112.79Y-77.97
X114.25Y-40.16
X114.25Y-64.16
X114.25Y-88.16
X114.46Y-36.26
X114.46Y-60.26
X114.46Y-84.26
X114.48Y-37.02
X114.48Y-61.02
X114.48Y-85.02
X114.88Y-46.37
X114.88Y-70.37
X114.88Y-94.37
X114.94Y-44.94
X114.94Y-68.94
X114.94Y-92.94
X115.26Y-47.65
X115.26Y-71.65
X115.26Y-95.65
X116.05Y-44.55
X116.05Y-68.55
X116.05Y-92.55
X116.18Y-39.29
X116.18Y-63.29
X116.18Y-87.29
X116.34Y-30.13
X116.34Y-54.13
X116.34Y-78.13
X116.8Y-42.6
X116.8Y-66.6
X116.8Y-90.6
X117.09Y-30.13
X117.09Y-54.13
X117.09Y-78.13
X117.3Y-43.5
X117.3Y-67.5
X117.3Y-91.5
X117.93Y-30.13
X117.93Y-54.13
X117.93Y-78.13
X118.3Y-41.4
X118.3Y-65.4
X118.3Y-89.4
X118.43Y-30.73
X118.43Y-54.73
X118.43Y-78.73
X118.47Y-50.29
X118.47Y-74.29
X118.47Y-98.29
X118.68Y-38.59
X118.68Y-62.59
X118.68Y-86.59
X118.7Y-31.48
X118.7Y-55.48
X118.7Y-79.48
X118.8Y-45.5
X118.8Y-46.6
X118.8Y-69.5
X118.8Y-70.6
X118.8Y-93.5
X118.8Y-94.6
X119.08Y-47.92
X119.08Y-71.92
X119.08Y-95.92
X119.54Y-31.44
X119.54Y-55.44
X119.54Y-79.44
X119.6Y-40.5
X119.6Y-64.5
X119.6Y-88.5
X120.0Y-37.08
X120.0Y-61.08
X120.0Y-85.08
X120.18Y-39.19
X120.18Y-63.19
X120.18Y-87.19
X120.2Y-38.23
X120.2Y-62.23
X120.2Y-86.23
X120.3Y-40.5
X120.3Y-64.5
X120.3Y-88.5
X120.7Y-44.637
X120.7Y-68.638
X120.7Y-92.638
X120.73Y-37.2
X120.73Y-61.2
X120.73Y-85.2
X120.89Y-35.13
X120.89Y-59.13
X120.89Y-83.13
X120.9Y-39.8
X120.9Y-63.8
X120.9Y-87.8
X120.99Y-31.52
X120.99Y-55.52
X120.99Y-79.52
X121.1Y-40.6
X121.1Y-42.7
X121.1Y-64.6
X121.1Y-66.7
X121.1Y-88.6
X121.1Y-90.7
X121.17Y-38.51
X121.17Y-62.51
X121.17Y-86.51
X121.4Y-44.2
X121.4Y-68.2
X121.4Y-92.2
X121.85Y-31.58
X121.85Y-55.58
X121.85Y-79.58
X121.87Y-37.71
X121.87Y-61.71
X121.87Y-85.71
X121.99Y-34.91
X121.99Y-58.91
X121.99Y-82.91
X122.2Y-46.8
X122.2Y-70.8
X122.2Y-94.8
X122.4Y-44.21
X122.4Y-68.21
X122.4Y-92.21
X122.78Y-31.72
X122.78Y-48.04
X122.78Y-55.72
X122.78Y-72.04
X122.78Y-79.72
X122.78Y-96.04
X122.86Y-34.83
X122.86Y-58.83
X122.86Y-82.83
X122.94Y-35.94
X122.94Y-59.94
X122.94Y-83.94
X123.0Y-45.6
X123.0Y-46.4
X123.0Y-69.6
X123.0Y-70.4
X123.0Y-93.6
X123.0Y-94.4
X123.02Y-37.24
X123.02Y-61.24
X123.02Y-85.24
X123.3Y-41.8
X123.3Y-65.8
X123.3Y-89.8
X123.4Y-39.7
X123.4Y-43.9
X123.4Y-63.7
X123.4Y-67.9
X123.4Y-87.7
X123.4Y-91.9
X123.51Y-38.19
X123.51Y-62.19
X123.51Y-86.19
X123.7Y-48.94
X123.7Y-72.94
X123.7Y-96.94
X123.8Y-46.1
X123.8Y-70.1
X123.8Y-94.1
X123.92Y-47.43
X123.92Y-71.43
X123.92Y-95.43
X124.5Y-45.7
X124.5Y-69.7
X124.5Y-93.7
X124.9Y-41.7
X124.9Y-65.7
X124.9Y-89.7
X124.97Y-48.42
X124.97Y-72.42
X124.97Y-96.42
X125.1Y-46.4
X125.1Y-70.4
X125.1Y-94.4
X125.5Y-45.7
X125.5Y-69.7
X125.5Y-93.7
X125.91Y-49.12
X125.91Y-73.12
X125.91Y-97.12
X126.11Y-37.93
X126.11Y-61.93
X126.11Y-85.93
X126.25Y-38.74
X126.25Y-62.74
X126.25Y-86.74
X126.3Y-39.6
X126.3Y-63.6
X126.3Y-87.6
X126.4Y-43.9
X126.4Y-67.9
X126.4Y-91.9
X126.43Y-47.21
X126.43Y-71.21
X126.43Y-95.21
X126.49Y-32.3
X126.49Y-56.3
X126.49Y-80.3
X126.51Y-33.0
X126.51Y-34.49
X126.51Y-57.0
X126.51Y-58.49
X126.51Y-81.0
X126.51Y-82.49
X126.53Y-33.75
X126.53Y-57.75
X126.53Y-81.75
X126.8Y-41.8
X126.8Y-65.8
X126.8Y-89.8
X127.38Y-33.28
X127.38Y-57.28
X127.38Y-81.28
X127.42Y-32.5
X127.42Y-56.5
X127.42Y-80.5
X127.5Y-41.3
X127.5Y-42.3
X127.5Y-65.3
X127.5Y-66.3
X127.5Y-89.3
X127.5Y-90.3
X128.1Y-40.7
X128.1Y-64.7
X128.1Y-88.7
X128.16Y-32.66
X128.16Y-56.66
X128.16Y-80.66
X128.2Y-41.7
X128.2Y-42.8
X128.2Y-65.7
X128.2Y-66.8
X128.2Y-89.7
X128.2Y-90.8
X128.325Y-38.925
X128.325Y-62.925
X128.325Y-86.925
X128.6Y-38.2
X128.6Y-44.75
X128.6Y-46.0
X128.6Y-47.1
X128.6Y-48.3
X128.6Y-62.2
X128.6Y-68.75
X128.6Y-70.0
X128.6Y-71.1
X128.6Y-72.3
X128.6Y-86.2
X128.6Y-92.75
X128.6Y-94.0
X128.6Y-95.1
X128.6Y-96.3
X128.88Y-32.66
X128.88Y-56.66
X128.88Y-80.66
X128.9Y-40.4
X128.9Y-41.3
X128.9Y-42.2
X128.9Y-43.0
X128.9Y-64.4
X128.9Y-65.3
X128.9Y-66.2
X128.9Y-67.0
X128.9Y-88.4
X128.9Y-89.3
X128.9Y-90.2
X128.9Y-91.0
X128.925Y-36.075
X128.925Y-60.075
X128.925Y-84.075
X129.63Y-32.68
X129.63Y-56.68
X129.63Y-80.68
X129.7Y-40.1
X129.7Y-40.9
X129.7Y-41.7
X129.7Y-42.5
X129.7Y-43.3
X129.7Y-64.1
X129.7Y-64.9
X129.7Y-65.7
X129.7Y-66.5
X129.7Y-67.3
X129.7Y-88.1
X129.7Y-88.9
X129.7Y-89.7
X129.7Y-90.5
X129.7Y-91.3
X130.2Y-46.1
X130.2Y-70.1
X130.2Y-94.1
X130.3Y-46.8
X130.3Y-47.7
X130.3Y-70.8
X130.3Y-71.7
X130.3Y-94.8
X130.3Y-95.7
X130.5Y-40.0
X130.5Y-40.8
X130.5Y-41.6
X130.5Y-42.3
X130.5Y-43.1
X130.5Y-64.0
X130.5Y-64.8
X130.5Y-65.6
X130.5Y-66.3
X130.5Y-67.1
X130.5Y-88.0
X130.5Y-88.8
X130.5Y-89.6
X130.5Y-90.3
X130.5Y-91.1
X131.465Y-36.265
X131.465Y-60.265
X131.465Y-84.265
X132.15Y-36.95
X132.15Y-60.95
X132.15Y-84.95
X132.2Y-38.0
X132.2Y-39.1
X132.2Y-40.1
X132.2Y-41.1
X132.2Y-42.2
X132.2Y-43.1
X132.2Y-44.1
X132.2Y-45.0
X132.2Y-46.0
X132.2Y-46.9
X132.2Y-47.8
X132.2Y-62.0
X132.2Y-63.1
X132.2Y-64.1
X132.2Y-65.1
X132.2Y-66.2
X132.2Y-67.1
X132.2Y-68.1
X132.2Y-69.0
X132.2Y-70.0
X132.2Y-70.9
X132.2Y-71.8
X132.2Y-86.0
X132.2Y-87.1
X132.2Y-88.1
X132.2Y-89.1
X132.2Y-90.2
X132.2Y-91.1
X132.2Y-92.1
X132.2Y-93.0
X132.2Y-94.0
X132.2Y-94.9
X132.2Y-95.8
X132.3Y-48.6
X132.3Y-72.6
X132.3Y-96.6
X133.76Y-29.94
X133.76Y-53.94
X133.76Y-77.94
X133.85Y-32.64
X133.85Y-51.15
X133.85Y-56.64
X133.85Y-75.15
X133.85Y-80.64
X133.85Y-99.15
X133.87Y-40.81
X133.87Y-43.5
X133.87Y-44.3
X133.87Y-64.81
X133.87Y-67.5
X133.87Y-68.3
X133.87Y-88.81
X133.87Y-91.5
X133.87Y-92.3
X133.88Y-41.61
X133.88Y-42.64
X133.88Y-65.61
X133.88Y-66.64
X133.88Y-89.61
X133.88Y-90.64
X133.89Y-45.16
X133.89Y-69.16
X133.89Y-93.16
X133.9Y-46.96
X133.9Y-70.96
X133.9Y-94.96
X133.93Y-46.05
X133.93Y-70.05
X133.93Y-94.05
X135.99Y-36.34
X135.99Y-60.34
X135.99Y-84.34
X136.05Y-43.82
X136.05Y-67.82
X136.05Y-91.82
X136.07Y-38.91
X136.07Y-62.91
X136.07Y-86.91
X136.09Y-48.9
X136.09Y-72.9
X136.09Y-96.9
X136.15Y-41.42
X136.15Y-46.43
X136.15Y-65.42
X136.15Y-70.43
X136.15Y-89.42
X136.15Y-94.43
X136.25Y-30.81
X136.25Y-54.81
X136.25Y-78.81
X138.9Y-29.99
X138.9Y-53.99
X138.9Y-77.99
X139.63Y-41.18
X139.63Y-65.18
X139.63Y-89.18
X139.73Y-30.83
X139.73Y-54.83
X139.73Y-78.83
X139.79Y-29.97
X139.79Y-53.97
X139.79Y-77.97
X141.25Y-40.16
X141.25Y-64.16
X141.25Y-88.16
X141.46Y-36.26
X141.46Y-60.26
X141.46Y-84.26
X141.48Y-37.02
X141.48Y-61.02
X141.48Y-85.02
X141.88Y-46.37
X141.88Y-70.37
X141.88Y-94.37
X141.94Y-44.94
X141.94Y-68.94
X141.94Y-92.94
X142.26Y-47.65
X142.26Y-71.65
X142.26Y-95.65
X143.05Y-44.55
X143.05Y-68.55
X143.05Y-92.55
X143.18Y-39.29
X143.18Y-63.29
X143.18Y-87.29
X143.34Y-30.13
X143.34Y-54.13
X143.34Y-78.13
X143.8Y-42.6
X143.8Y-66.6
X143.8Y-90.6
X144.09Y-30.13
X144.09Y-54.13
X144.09Y-78.13
X144.3Y-43.5
X144.3Y-67.5
X144.3Y-91.5
X144.93Y-30.13
X144.93Y-54.13
X144.93Y-78.13
X145.3Y-41.4
X145.3Y-65.4
X145.3Y-89.4
X145.43Y-30.73
X145.43Y-54.73
X145.43Y-78.73
X145.47Y-50.29
X145.47Y-74.29
X145.47Y-98.29
X145.68Y-38.59
X145.68Y-62.59
X145.68Y-86.59
X145.7Y-31.48
X145.7Y-55.48
X145.7Y-79.48
X145.8Y-45.5
X145.8Y-46.6
X145.8Y-69.5
X145.8Y-70.6
X145.8Y-93.5
X145.8Y-94.6
X146.08Y-47.92
X146.08Y-71.92
X146.08Y-95.92
X146.54Y-31.44
X146.54Y-55.44
X146.54Y-79.44
X146.6Y-40.5
X146.6Y-64.5
X146.6Y-88.5
X147.0Y-37.08
X147.0Y-61.08
X147.0Y-85.08
X147.18Y-39.19
X147.18Y-63.19
X147.18Y-87.19
X147.2Y-38.23
X147.2Y-62.23
X147.2Y-86.23
X147.3Y-40.5
X147.3Y-64.5
X147.3Y-88.5
X147.7Y-44.637
X147.7Y-68.638
X147.7Y-92.638
X147.73Y-37.2
X147.73Y-61.2
X147.73Y-85.2
X147.89Y-35.13
X147.89Y-59.13
X147.89Y-83.13
X147.9Y-39.8
X147.9Y-63.8
X147.9Y-87.8
X147.99Y-31.52
X147.99Y-55.52
X147.99Y-79.52
X148.1Y-40.6
X148.1Y-42.7
X148.1Y-64.6
X148.1Y-66.7
X148.1Y-88.6
X148.1Y-90.7
X148.17Y-38.51
X148.17Y-62.51
X148.17Y-86.51
X148.4Y-44.2
X148.4Y-68.2
X148.4Y-92.2
X148.85Y-31.58
X148.85Y-55.58
X148.85Y-79.58
X148.87Y-37.71
X148.87Y-61.71
X148.87Y-85.71
X148.99Y-34.91
X148.99Y-58.91
X148.99Y-82.91
X149.2Y-46.8
X149.2Y-70.8
X149.2Y-94.8
X149.4Y-44.21
X149.4Y-68.21
X149.4Y-92.21
X149.78Y-31.72
X149.78Y-48.04
X149.78Y-55.72
X149.78Y-72.04
X149.78Y-79.72
X149.78Y-96.04
X149.86Y-34.83
X149.86Y-58.83
X149.86Y-82.83
X149.94Y-35.94
X149.94Y-59.94
X149.94Y-83.94
X150.0Y-45.6
X150.0Y-46.4
X150.0Y-69.6
X150.0Y-70.4
X150.0Y-93.6
X150.0Y-94.4
X150.02Y-37.24
X150.02Y-61.24
X150.02Y-85.24
X150.3Y-41.8
X150.3Y-65.8
X150.3Y-89.8
X150.4Y-39.7
X150.4Y-43.9
X150.4Y-63.7
X150.4Y-67.9
X150.4Y-87.7
X150.4Y-91.9
X150.51Y-38.19
X150.51Y-62.19
X150.51Y-86.19
X150.7Y-48.94
X150.7Y-72.94
X150.7Y-96.94
X150.8Y-46.1
X150.8Y-70.1
X150.8Y-94.1
X150.92Y-47.43
X150.92Y-71.43
X150.92Y-95.43
X151.5Y-45.7
X151.5Y-69.7
X151.5Y-93.7
X151.9Y-41.7
X151.9Y-65.7
X151.9Y-89.7
X151.97Y-48.42
X151.97Y-72.42
X151.97Y-96.42
X152.1Y-46.4
X152.1Y-70.4
X152.1Y-94.4
X152.5Y-45.7
X152.5Y-69.7
X152.5Y-93.7
X152.91Y-49.12
X152.91Y-73.12
X152.91Y-97.12
X153.11Y-37.93
X153.11Y-61.93
X153.11Y-85.93
X153.25Y-38.74
X153.25Y-62.74
X153.25Y-86.74
X153.3Y-39.6
X153.3Y-63.6
X153.3Y-87.6
X153.4Y-43.9
X153.4Y-67.9
X153.4Y-91.9
X153.43Y-47.21
X153.43Y-71.21
X153.43Y-95.21
X153.49Y-32.3
X153.49Y-56.3
X153.49Y-80.3
X153.51Y-33.0
X153.51Y-34.49
X153.51Y-57.0
X153.51Y-58.49
X153.51Y-81.0
X153.51Y-82.49
X153.53Y-33.75
X153.53Y-57.75
X153.53Y-81.75
X153.8Y-41.8
X153.8Y-65.8
X153.8Y-89.8
X154.38Y-33.28
X154.38Y-57.28
X154.38Y-81.28
X154.42Y-32.5
X154.42Y-56.5
X154.42Y-80.5
X154.5Y-41.3
X154.5Y-42.3
X154.5Y-65.3
X154.5Y-66.3
X154.5Y-89.3
X154.5Y-90.3
X155.1Y-40.7
X155.1Y-64.7
X155.1Y-88.7
X155.16Y-32.66
X155.16Y-56.66
X155.16Y-80.66
X155.2Y-41.7
X155.2Y-42.8
X155.2Y-65.7
X155.2Y-66.8
X155.2Y-89.7
X155.2Y-90.8
X155.325Y-38.925
X155.325Y-62.925
X155.325Y-86.925
X155.6Y-38.2
X155.6Y-44.75
X155.6Y-46.0
X155.6Y-47.1
X155.6Y-48.3
X155.6Y-62.2
X155.6Y-68.75
X155.6Y-70.0
X155.6Y-71.1
X155.6Y-72.3
X155.6Y-86.2
X155.6Y-92.75
X155.6Y-94.0
X155.6Y-95.1
X155.6Y-96.3
X155.88Y-32.66
X155.88Y-56.66
X155.88Y-80.66
X155.9Y-40.4
X155.9Y-41.3
X155.9Y-42.2
X155.9Y-43.0
X155.9Y-64.4
X155.9Y-65.3
X155.9Y-66.2
X155.9Y-67.0
X155.9Y-88.4
X155.9Y-89.3
X155.9Y-90.2
X155.9Y-91.0
X155.925Y-36.075
X155.925Y-60.075
X155.925Y-84.075
X156.63Y-32.68
X156.63Y-56.68
X156.63Y-80.68
X156.7Y-40.1
X156.7Y-40.9
X156.7Y-41.7
X156.7Y-42.5
X156.7Y-43.3
X156.7Y-64.1
X156.7Y-64.9
X156.7Y-65.7
X156.7Y-66.5
X156.7Y-67.3
X156.7Y-88.1
X156.7Y-88.9
X156.7Y-89.7
X156.7Y-90.5
X156.7Y-91.3
X157.2Y-46.1
X157.2Y-70.1
X157.2Y-94.1
X157.3Y-46.8
X157.3Y-47.7
X157.3Y-70.8
X157.3Y-71.7
X157.3Y-94.8
X157.3Y-95.7
X157.5Y-40.0
X157.5Y-40.8
X157.5Y-41.6
X157.5Y-42.3
X157.5Y-43.1
X157.5Y-64.0
X157.5Y-64.8
X157.5Y-65.6
X157.5Y-66.3
X157.5Y-67.1
X157.5Y-88.0
X157.5Y-88.8
X157.5Y-89.6
X157.5Y-90.3
X157.5Y-91.1
X158.465Y-36.265
X158.465Y-60.265
X158.465Y-84.265
X159.15Y-36.95
X159.15Y-60.95
X159.15Y-84.95
X159.2Y-38.0
X159.2Y-39.1
X159.2Y-40.1
X159.2Y-41.1
X159.2Y-42.2
X159.2Y-43.1
X159.2Y-44.1
X159.2Y-45.0
X159.2Y-46.0
X159.2Y-46.9
X159.2Y-47.8
X159.2Y-62.0
X159.2Y-63.1
X159.2Y-64.1
X159.2Y-65.1
X159.2Y-66.2
X159.2Y-67.1
X159.2Y-68.1
X159.2Y-69.0
X159.2Y-70.0
X159.2Y-70.9
X159.2Y-71.8
X159.2Y-86.0
X159.2Y-87.1
X159.2Y-88.1
X159.2Y-89.1
X159.2Y-90.2
X159.2Y-91.1
X159.2Y-92.1
X159.2Y-93.0
X159.2Y-94.0
X159.2Y-94.9
X159.2Y-95.8
X159.3Y-48.6
X159.3Y-72.6
X159.3Y-96.6
X160.76Y-29.94
X160.76Y-53.94
X160.76Y-77.94
X160.85Y-32.64
X160.85Y-51.15
X160.85Y-56.64
X160.85Y-75.15
X160.85Y-80.64
X160.85Y-99.15
X160.87Y-40.81
X160.87Y-43.5
X160.87Y-44.3
X160.87Y-64.81
X160.87Y-67.5
X160.87Y-68.3
X160.87Y-88.81
X160.87Y-91.5
X160.87Y-92.3
X160.88Y-41.61
X160.88Y-42.64
X160.88Y-65.61
X160.88Y-66.64
X160.88Y-89.61
X160.88Y-90.64
X160.89Y-45.16
X160.89Y-69.16
X160.89Y-93.16
X160.9Y-46.96
X160.9Y-70.96
X160.9Y-94.96
X160.93Y-46.05
X160.93Y-70.05
X160.93Y-94.05
X162.99Y-36.34
X162.99Y-60.34
X162.99Y-84.34
X163.05Y-43.82
X163.05Y-67.82
X163.05Y-91.82
X163.07Y-38.91
X163.07Y-62.91
X163.07Y-86.91
X163.09Y-48.9
X163.09Y-72.9
X163.09Y-96.9
X163.15Y-41.42
X163.15Y-46.43
X163.15Y-65.42
X163.15Y-70.43
X163.15Y-89.42
X163.15Y-94.43
X163.25Y-30.81
X163.25Y-54.81
X163.25Y-78.81
X165.9Y-29.99
X165.9Y-53.99
X165.9Y-77.99
X166.63Y-41.18
X166.63Y-65.18
X166.63Y-89.18
X166.73Y-30.83
X166.73Y-54.83
X166.73Y-78.83
X166.79Y-29.97
X166.79Y-53.97
X166.79Y-77.97
X168.25Y-40.16
X168.25Y-64.16
X168.25Y-88.16
X168.46Y-36.26
X168.46Y-60.26
X168.46Y-84.26
X168.48Y-37.02
X168.48Y-61.02
X168.48Y-85.02
X168.88Y-46.37
X168.88Y-70.37
X168.88Y-94.37
X168.94Y-44.94
X168.94Y-68.94
X168.94Y-92.94
X169.26Y-47.65
X169.26Y-71.65
X169.26Y-95.65
X170.05Y-44.55
X170.05Y-68.55
X170.05Y-92.55
X170.18Y-39.29
X170.18Y-63.29
X170.18Y-87.29
X170.34Y-30.13
X170.34Y-54.13
X170.34Y-78.13
X170.8Y-42.6
X170.8Y-66.6
X170.8Y-90.6
X171.09Y-30.13
X171.09Y-54.13
X171.09Y-78.13
X171.3Y-43.5
X171.3Y-67.5
X171.3Y-91.5
X171.93Y-30.13
X171.93Y-54.13
X171.93Y-78.13
X172.3Y-41.4
X172.3Y-65.4
X172.3Y-89.4
X172.43Y-30.73
X172.43Y-54.73
X172.43Y-78.73
X172.47Y-50.29
X172.47Y-74.29
X172.47Y-98.29
X172.68Y-38.59
X172.68Y-62.59
X172.68Y-86.59
X172.7Y-31.48
X172.7Y-55.48
X172.7Y-79.48
X172.8Y-45.5
X172.8Y-46.6
X172.8Y-69.5
X172.8Y-70.6
X172.8Y-93.5
X172.8Y-94.6
X173.08Y-47.92
X173.08Y-71.92
X173.08Y-95.92
X173.54Y-31.44
X173.54Y-55.44
X173.54Y-79.44
X173.6Y-40.5
X173.6Y-64.5
X173.6Y-88.5
X174.0Y-37.08
X174.0Y-61.08
X174.0Y-85.08
X174.18Y-39.19
X174.18Y-63.19
X174.18Y-87.19
X174.2Y-38.23
X174.2Y-62.23
X174.2Y-86.23
X174.3Y-40.5
X174.3Y-64.5
X174.3Y-88.5
X174.7Y-44.637
X174.7Y-68.638
X174.7Y-92.638
X174.73Y-37.2
X174.73Y-61.2
X174.73Y-85.2
X174.89Y-35.13
X174.89Y-59.13
X174.89Y-83.13
X174.9Y-39.8
X174.9Y-63.8
X174.9Y-87.8
X174.99Y-31.52
X174.99Y-55.52
X174.99Y-79.52
X175.1Y-40.6
X175.1Y-42.7
X175.1Y-64.6
X175.1Y-66.7
X175.1Y-88.6
X175.1Y-90.7
X175.17Y-38.51
X175.17Y-62.51
X175.17Y-86.51
X175.4Y-44.2
X175.4Y-68.2
X175.4Y-92.2
X175.85Y-31.58
X175.85Y-55.58
X175.85Y-79.58
X175.87Y-37.71
X175.87Y-61.71
X175.87Y-85.71
X175.99Y-34.91
X175.99Y-58.91
X175.99Y-82.91
X176.2Y-46.8
X176.2Y-70.8
X176.2Y-94.8
X176.4Y-44.21
X176.4Y-68.21
X176.4Y-92.21
X176.78Y-31.72
X176.78Y-48.04
X176.78Y-55.72
X176.78Y-72.04
X176.78Y-79.72
X176.78Y-96.04
X176.86Y-34.83
X176.86Y-58.83
X176.86Y-82.83
X176.94Y-35.94
X176.94Y-59.94
X176.94Y-83.94
X177.0Y-45.6
X177.0Y-46.4
X177.0Y-69.6
X177.0Y-70.4
X177.0Y-93.6
X177.0Y-94.4
X177.02Y-37.24
X177.02Y-61.24
X177.02Y-85.24
X177.3Y-41.8
X177.3Y-65.8
X177.3Y-89.8
X177.4Y-39.7
X177.4Y-43.9
X177.4Y-63.7
X177.4Y-67.9
X177.4Y-87.7
X177.4Y-91.9
X177.51Y-38.19
X177.51Y-62.19
X177.51Y-86.19
X177.7Y-48.94
X177.7Y-72.94
X177.7Y-96.94
X177.8Y-46.1
X177.8Y-70.1
X177.8Y-94.1
X177.92Y-47.43
X177.92Y-71.43
X177.92Y-95.43
X178.5Y-45.7
X178.5Y-69.7
X178.5Y-93.7
X178.9Y-41.7
X178.9Y-65.7
X178.9Y-89.7
X178.97Y-48.42
X178.97Y-72.42
X178.97Y-96.42
X179.1Y-46.4
X179.1Y-70.4
X179.1Y-94.4
X179.5Y-45.7
X179.5Y-69.7
X179.5Y-93.7
X179.91Y-49.12
X179.91Y-73.12
X179.91Y-97.12
X180.11Y-37.93
X180.11Y-61.93
X180.11Y-85.93
X180.25Y-38.74
X180.25Y-62.74
X180.25Y-86.74
X180.3Y-39.6
X180.3Y-63.6
X180.3Y-87.6
X180.4Y-43.9
X180.4Y-67.9
X180.4Y-91.9
X180.43Y-47.21
X180.43Y-71.21
X180.43Y-95.21
X180.49Y-32.3
X180.49Y-56.3
X180.49Y-80.3
X180.51Y-33.0
X180.51Y-34.49
X180.51Y-57.0
X180.51Y-58.49
X180.51Y-81.0
X180.51Y-82.49
X180.53Y-33.75
X180.53Y-57.75
X180.53Y-81.75
X180.8Y-41.8
X180.8Y-65.8
X180.8Y-89.8
X181.38Y-33.28
X181.38Y-57.28
X181.38Y-81.28
X181.42Y-32.5
X181.42Y-56.5
X181.42Y-80.5
X181.5Y-41.3
X181.5Y-42.3
X181.5Y-65.3
X181.5Y-66.3
X181.5Y-89.3
X181.5Y-90.3
X182.1Y-40.7
X182.1Y-64.7
X182.1Y-88.7
X182.16Y-32.66
X182.16Y-56.66
X182.16Y-80.66
X182.2Y-41.7
X182.2Y-42.8
X182.2Y-65.7
X182.2Y-66.8
X182.2Y-89.7
X182.2Y-90.8
X182.325Y-38.925
X182.325Y-62.925
X182.325Y-86.925
X182.6Y-38.2
X182.6Y-44.75
X182.6Y-46.0
X182.6Y-47.1
X182.6Y-48.3
X182.6Y-62.2
X182.6Y-68.75
X182.6Y-70.0
X182.6Y-71.1
X182.6Y-72.3
X182.6Y-86.2
X182.6Y-92.75
X182.6Y-94.0
X182.6Y-95.1
X182.6Y-96.3
X182.88Y-32.66
X182.88Y-56.66
X182.88Y-80.66
X182.9Y-40.4
X182.9Y-41.3
X182.9Y-42.2
X182.9Y-43.0
X182.9Y-64.4
X182.9Y-65.3
X182.9Y-66.2
X182.9Y-67.0
X182.9Y-88.4
X182.9Y-89.3
X182.9Y-90.2
X182.9Y-91.0
X182.925Y-36.075
X182.925Y-60.075
X182.925Y-84.075
X183.63Y-32.68
X183.63Y-56.68
X183.63Y-80.68
X183.7Y-40.1
X183.7Y-40.9
X183.7Y-41.7
X183.7Y-42.5
X183.7Y-43.3
X183.7Y-64.1
X183.7Y-64.9
X183.7Y-65.7
X183.7Y-66.5
X183.7Y-67.3
X183.7Y-88.1
X183.7Y-88.9
X183.7Y-89.7
X183.7Y-90.5
X183.7Y-91.3
X184.2Y-46.1
X184.2Y-70.1
X184.2Y-94.1
X184.3Y-46.8
X184.3Y-47.7
X184.3Y-70.8
X184.3Y-71.7
X184.3Y-94.8
X184.3Y-95.7
X184.5Y-40.0
X184.5Y-40.8
X184.5Y-41.6
X184.5Y-42.3
X184.5Y-43.1
X184.5Y-64.0
X184.5Y-64.8
X184.5Y-65.6
X184.5Y-66.3
X184.5Y-67.1
X184.5Y-88.0
X184.5Y-88.8
X184.5Y-89.6
X184.5Y-90.3
X184.5Y-91.1
X185.465Y-36.265
X185.465Y-60.265
X185.465Y-84.265
X186.15Y-36.95
X186.15Y-60.95
X186.15Y-84.95
X186.2Y-38.0
X186.2Y-39.1
X186.2Y-40.1
X186.2Y-41.1
X186.2Y-42.2
X186.2Y-43.1
X186.2Y-44.1
X186.2Y-45.0
X186.2Y-46.0
X186.2Y-46.9
X186.2Y-47.8
X186.2Y-62.0
X186.2Y-63.1
X186.2Y-64.1
X186.2Y-65.1
X186.2Y-66.2
X186.2Y-67.1
X186.2Y-68.1
X186.2Y-69.0
X186.2Y-70.0
X186.2Y-70.9
X186.2Y-71.8
X186.2Y-86.0
X186.2Y-87.1
X186.2Y-88.1
X186.2Y-89.1
X186.2Y-90.2
X186.2Y-91.1
X186.2Y-92.1
X186.2Y-93.0
X186.2Y-94.0
X186.2Y-94.9
X186.2Y-95.8
X186.3Y-48.6
X186.3Y-72.6
X186.3Y-96.6
X187.76Y-29.94
X187.76Y-53.94
X187.76Y-77.94
X187.85Y-32.64
X187.85Y-51.15
X187.85Y-56.64
X187.85Y-75.15
X187.85Y-80.64
X187.85Y-99.15
X187.87Y-40.81
X187.87Y-43.5
X187.87Y-44.3
X187.87Y-64.81
X187.87Y-67.5
X187.87Y-68.3
X187.87Y-88.81
X187.87Y-91.5
X187.87Y-92.3
X187.88Y-41.61
X187.88Y-42.64
X187.88Y-65.61
X187.88Y-66.64
X187.88Y-89.61
X187.88Y-90.64
X187.89Y-45.16
X187.89Y-69.16
X187.89Y-93.16
X187.9Y-46.96
X187.9Y-70.96
X187.9Y-94.96
X187.93Y-46.05
X187.93Y-70.05
X187.93Y-94.05
T2
X110.3Y-32.455
X110.3Y-34.995
X110.3Y-37.535
X110.3Y-40.075
X110.3Y-42.615
X110.3Y-45.155
X110.3Y-47.695
X110.3Y-50.235
X110.3Y-56.455
X110.3Y-58.995
X110.3Y-61.535
X110.3Y-64.075
X110.3Y-66.615
X110.3Y-69.155
X110.3Y-71.695
X110.3Y-74.235
X110.3Y-80.455
X110.3Y-82.995
X110.3Y-85.535
X110.3Y-88.075
X110.3Y-90.615
X110.3Y-93.155
X110.3Y-95.695
X110.3Y-98.235
X124.725Y-33.42
X124.725Y-35.96
X124.725Y-57.42
X124.725Y-59.96
X124.725Y-81.42
X124.725Y-83.96
X128.925Y-34.5
X128.925Y-58.5
X128.925Y-82.5
X128.94Y-49.8
X128.94Y-73.8
X128.94Y-97.8
X128.96Y-30.77
X128.96Y-54.77
X128.96Y-78.77
X131.465Y-34.5
X131.465Y-58.5
X131.465Y-82.5
X131.48Y-49.8
X131.48Y-73.8
X131.48Y-97.8
X131.5Y-30.77
X131.5Y-54.77
X131.5Y-78.77
X137.3Y-32.455
X137.3Y-34.995
X137.3Y-37.535
X137.3Y-40.075
X137.3Y-42.615
X137.3Y-45.155
X137.3Y-47.695
X137.3Y-50.235
X137.3Y-56.455
X137.3Y-58.995
X137.3Y-61.535
X137.3Y-64.075
X137.3Y-66.615
X137.3Y-69.155
X137.3Y-71.695
X137.3Y-74.235
X137.3Y-80.455
X137.3Y-82.995
X137.3Y-85.535
X137.3Y-88.075
X137.3Y-90.615
X137.3Y-93.155
X137.3Y-95.695
X137.3Y-98.235
X151.725Y-33.42
X151.725Y-35.96
X151.725Y-57.42
X151.725Y-59.96
X151.725Y-81.42
X151.725Y-83.96
X155.925Y-34.5
X155.925Y-58.5
X155.925Y-82.5
X155.94Y-49.8
X155.94Y-73.8
X155.94Y-97.8
X155.96Y-30.77
X155.96Y-54.77
X155.96Y-78.77
X158.465Y-34.5
X158.465Y-58.5
X158.465Y-82.5
X158.48Y-49.8
X158.48Y-73.8
X158.48Y-97.8
X158.5Y-30.77
X158.5Y-54.77
X158.5Y-78.77
X164.3Y-32.455
X164.3Y-34.995
X164.3Y-37.535
X164.3Y-40.075
X164.3Y-42.615
X164.3Y-45.155
X164.3Y-47.695
X164.3Y-50.235
X164.3Y-56.455
X164.3Y-58.995
X164.3Y-61.535
X164.3Y-64.075
X164.3Y-66.615
X164.3Y-69.155
X164.3Y-71.695
X164.3Y-74.235
X164.3Y-80.455
X164.3Y-82.995
X164.3Y-85.535
X164.3Y-88.075
X164.3Y-90.615
X164.3Y-93.155
X164.3Y-95.695
X164.3Y-98.235
X178.725Y-33.42
X178.725Y-35.96
X178.725Y-57.42
X178.725Y-59.96
X178.725Y-81.42
X178.725Y-83.96
X182.925Y-34.5
X182.925Y-58.5
X182.925Y-82.5
X182.94Y-49.8
X182.94Y-73.8
X182.94Y-97.8
X182.96Y-30.77
X182.96Y-54.77
X182.96Y-78.77
X185.465Y-34.5
X185.465Y-58.5
X185.465Y-82.5
X185.48Y-49.8
X185.48Y-73.8
X185.48Y-97.8
X185.5Y-30.77
X185.5Y-54.77
X185.5Y-78.77
T0
M30
