G04 #@! TF.GenerationSoftware,KiCad,Pcbnew,6.0.11-2627ca5db0~126~ubuntu22.04.1*
G04 #@! TF.CreationDate,2023-02-05T22:47:26+11:00*
G04 #@! TF.ProjectId,panel,70616e65-6c2e-46b6-9963-61645f706362,rev?*
G04 #@! TF.SameCoordinates,Original*
G04 #@! TF.FileFunction,Legend,Top*
G04 #@! TF.FilePolarity,Positive*
%FSLAX46Y46*%
G04 Gerber Fmt 4.6, Leading zero omitted, Abs format (unit mm)*
G04 Created by KiCad (PCBNEW 6.0.11-2627ca5db0~126~ubuntu22.04.1) date 2023-02-05 22:47:26*
%MOMM*%
%LPD*%
G01*
G04 APERTURE LIST*
G04 Aperture macros list*
%AMRoundRect*
0 Rectangle with rounded corners*
0 $1 Rounding radius*
0 $2 $3 $4 $5 $6 $7 $8 $9 X,Y pos of 4 corners*
0 Add a 4 corners polygon primitive as box body*
4,1,4,$2,$3,$4,$5,$6,$7,$8,$9,$2,$3,0*
0 Add four circle primitives for the rounded corners*
1,1,$1+$1,$2,$3*
1,1,$1+$1,$4,$5*
1,1,$1+$1,$6,$7*
1,1,$1+$1,$8,$9*
0 Add four rect primitives between the rounded corners*
20,1,$1+$1,$2,$3,$4,$5,0*
20,1,$1+$1,$4,$5,$6,$7,0*
20,1,$1+$1,$6,$7,$8,$9,0*
20,1,$1+$1,$8,$9,$2,$3,0*%
%AMFreePoly0*
4,1,9,5.362500,-0.866500,1.237500,-0.866500,1.237500,-0.450000,-1.237500,-0.450000,-1.237500,0.450000,1.237500,0.450000,1.237500,0.866500,5.362500,0.866500,5.362500,-0.866500,5.362500,-0.866500,$1*%
G04 Aperture macros list end*
%ADD10C,0.156000*%
%ADD11C,0.150000*%
%ADD12C,0.120000*%
%ADD13RoundRect,0.237500X-0.250000X-0.237500X0.250000X-0.237500X0.250000X0.237500X-0.250000X0.237500X0*%
%ADD14C,3.000000*%
%ADD15RoundRect,0.237500X-0.300000X-0.237500X0.300000X-0.237500X0.300000X0.237500X-0.300000X0.237500X0*%
%ADD16R,1.700000X1.700000*%
%ADD17O,1.700000X1.700000*%
%ADD18RoundRect,0.237500X0.237500X-0.300000X0.237500X0.300000X-0.237500X0.300000X-0.237500X-0.300000X0*%
%ADD19RoundRect,0.237500X0.250000X0.237500X-0.250000X0.237500X-0.250000X-0.237500X0.250000X-0.237500X0*%
%ADD20RoundRect,0.237500X-0.237500X0.300000X-0.237500X-0.300000X0.237500X-0.300000X0.237500X0.300000X0*%
%ADD21R,2.300000X0.900000*%
%ADD22FreePoly0,0.000000*%
%ADD23RoundRect,0.075000X-0.650000X-0.075000X0.650000X-0.075000X0.650000X0.075000X-0.650000X0.075000X0*%
%ADD24RoundRect,0.237500X0.300000X0.237500X-0.300000X0.237500X-0.300000X-0.237500X0.300000X-0.237500X0*%
%ADD25C,1.000000*%
%ADD26RoundRect,0.249999X1.425001X-0.450001X1.425001X0.450001X-1.425001X0.450001X-1.425001X-0.450001X0*%
G04 APERTURE END LIST*
D10*
X115832857Y-49647380D02*
X115832857Y-48647380D01*
X116166190Y-49361666D01*
X116499523Y-48647380D01*
X116499523Y-49647380D01*
X116975714Y-49647380D02*
X116975714Y-48980714D01*
X116975714Y-48647380D02*
X116928095Y-48695000D01*
X116975714Y-48742619D01*
X117023333Y-48695000D01*
X116975714Y-48647380D01*
X116975714Y-48742619D01*
X117594761Y-49647380D02*
X117499523Y-49599761D01*
X117451904Y-49504523D01*
X117451904Y-48647380D01*
X118118571Y-49647380D02*
X118023333Y-49599761D01*
X117975714Y-49504523D01*
X117975714Y-48647380D01*
X118499523Y-49647380D02*
X118499523Y-48980714D01*
X118499523Y-48647380D02*
X118451904Y-48695000D01*
X118499523Y-48742619D01*
X118547142Y-48695000D01*
X118499523Y-48647380D01*
X118499523Y-48742619D01*
X118975714Y-49647380D02*
X118975714Y-48647380D01*
X119309047Y-49361666D01*
X119642380Y-48647380D01*
X119642380Y-49647380D01*
X120499523Y-49599761D02*
X120404285Y-49647380D01*
X120213809Y-49647380D01*
X120118571Y-49599761D01*
X120070952Y-49504523D01*
X120070952Y-49123571D01*
X120118571Y-49028333D01*
X120213809Y-48980714D01*
X120404285Y-48980714D01*
X120499523Y-49028333D01*
X120547142Y-49123571D01*
X120547142Y-49218809D01*
X120070952Y-49314047D01*
X120832857Y-48980714D02*
X121213809Y-48980714D01*
X120975714Y-48647380D02*
X120975714Y-49504523D01*
X121023333Y-49599761D01*
X121118571Y-49647380D01*
X121213809Y-49647380D01*
X121928095Y-49599761D02*
X121832857Y-49647380D01*
X121642380Y-49647380D01*
X121547142Y-49599761D01*
X121499523Y-49504523D01*
X121499523Y-49123571D01*
X121547142Y-49028333D01*
X121642380Y-48980714D01*
X121832857Y-48980714D01*
X121928095Y-49028333D01*
X121975714Y-49123571D01*
X121975714Y-49218809D01*
X121499523Y-49314047D01*
X122404285Y-49647380D02*
X122404285Y-48980714D01*
X122404285Y-49171190D02*
X122451904Y-49075952D01*
X122499523Y-49028333D01*
X122594761Y-48980714D01*
X122690000Y-48980714D01*
X115404285Y-50971666D02*
X115880476Y-50971666D01*
X115309047Y-51257380D02*
X115642380Y-50257380D01*
X115975714Y-51257380D01*
X116309047Y-51257380D02*
X116309047Y-50257380D01*
X116547142Y-50257380D01*
X116690000Y-50305000D01*
X116785238Y-50400238D01*
X116832857Y-50495476D01*
X116880476Y-50685952D01*
X116880476Y-50828809D01*
X116832857Y-51019285D01*
X116785238Y-51114523D01*
X116690000Y-51209761D01*
X116547142Y-51257380D01*
X116309047Y-51257380D01*
X117880476Y-51162142D02*
X117832857Y-51209761D01*
X117690000Y-51257380D01*
X117594761Y-51257380D01*
X117451904Y-51209761D01*
X117356666Y-51114523D01*
X117309047Y-51019285D01*
X117261428Y-50828809D01*
X117261428Y-50685952D01*
X117309047Y-50495476D01*
X117356666Y-50400238D01*
X117451904Y-50305000D01*
X117594761Y-50257380D01*
X117690000Y-50257380D01*
X117832857Y-50305000D01*
X117880476Y-50352619D01*
X119404285Y-50733571D02*
X119547142Y-50781190D01*
X119594761Y-50828809D01*
X119642380Y-50924047D01*
X119642380Y-51066904D01*
X119594761Y-51162142D01*
X119547142Y-51209761D01*
X119451904Y-51257380D01*
X119070952Y-51257380D01*
X119070952Y-50257380D01*
X119404285Y-50257380D01*
X119499523Y-50305000D01*
X119547142Y-50352619D01*
X119594761Y-50447857D01*
X119594761Y-50543095D01*
X119547142Y-50638333D01*
X119499523Y-50685952D01*
X119404285Y-50733571D01*
X119070952Y-50733571D01*
X120213809Y-51257380D02*
X120118571Y-51209761D01*
X120070952Y-51162142D01*
X120023333Y-51066904D01*
X120023333Y-50781190D01*
X120070952Y-50685952D01*
X120118571Y-50638333D01*
X120213809Y-50590714D01*
X120356666Y-50590714D01*
X120451904Y-50638333D01*
X120499523Y-50685952D01*
X120547142Y-50781190D01*
X120547142Y-51066904D01*
X120499523Y-51162142D01*
X120451904Y-51209761D01*
X120356666Y-51257380D01*
X120213809Y-51257380D01*
X121404285Y-51257380D02*
X121404285Y-50733571D01*
X121356666Y-50638333D01*
X121261428Y-50590714D01*
X121070952Y-50590714D01*
X120975714Y-50638333D01*
X121404285Y-51209761D02*
X121309047Y-51257380D01*
X121070952Y-51257380D01*
X120975714Y-51209761D01*
X120928095Y-51114523D01*
X120928095Y-51019285D01*
X120975714Y-50924047D01*
X121070952Y-50876428D01*
X121309047Y-50876428D01*
X121404285Y-50828809D01*
X121880476Y-51257380D02*
X121880476Y-50590714D01*
X121880476Y-50781190D02*
X121928095Y-50685952D01*
X121975714Y-50638333D01*
X122070952Y-50590714D01*
X122166190Y-50590714D01*
X122928095Y-51257380D02*
X122928095Y-50257380D01*
X122928095Y-51209761D02*
X122832857Y-51257380D01*
X122642380Y-51257380D01*
X122547142Y-51209761D01*
X122499523Y-51162142D01*
X122451904Y-51066904D01*
X122451904Y-50781190D01*
X122499523Y-50685952D01*
X122547142Y-50638333D01*
X122642380Y-50590714D01*
X122832857Y-50590714D01*
X122928095Y-50638333D01*
X142832857Y-49647380D02*
X142832857Y-48647380D01*
X143166190Y-49361666D01*
X143499523Y-48647380D01*
X143499523Y-49647380D01*
X143975714Y-49647380D02*
X143975714Y-48980714D01*
X143975714Y-48647380D02*
X143928095Y-48695000D01*
X143975714Y-48742619D01*
X144023333Y-48695000D01*
X143975714Y-48647380D01*
X143975714Y-48742619D01*
X144594761Y-49647380D02*
X144499523Y-49599761D01*
X144451904Y-49504523D01*
X144451904Y-48647380D01*
X145118571Y-49647380D02*
X145023333Y-49599761D01*
X144975714Y-49504523D01*
X144975714Y-48647380D01*
X145499523Y-49647380D02*
X145499523Y-48980714D01*
X145499523Y-48647380D02*
X145451904Y-48695000D01*
X145499523Y-48742619D01*
X145547142Y-48695000D01*
X145499523Y-48647380D01*
X145499523Y-48742619D01*
X145975714Y-49647380D02*
X145975714Y-48647380D01*
X146309047Y-49361666D01*
X146642380Y-48647380D01*
X146642380Y-49647380D01*
X147499523Y-49599761D02*
X147404285Y-49647380D01*
X147213809Y-49647380D01*
X147118571Y-49599761D01*
X147070952Y-49504523D01*
X147070952Y-49123571D01*
X147118571Y-49028333D01*
X147213809Y-48980714D01*
X147404285Y-48980714D01*
X147499523Y-49028333D01*
X147547142Y-49123571D01*
X147547142Y-49218809D01*
X147070952Y-49314047D01*
X147832857Y-48980714D02*
X148213809Y-48980714D01*
X147975714Y-48647380D02*
X147975714Y-49504523D01*
X148023333Y-49599761D01*
X148118571Y-49647380D01*
X148213809Y-49647380D01*
X148928095Y-49599761D02*
X148832857Y-49647380D01*
X148642380Y-49647380D01*
X148547142Y-49599761D01*
X148499523Y-49504523D01*
X148499523Y-49123571D01*
X148547142Y-49028333D01*
X148642380Y-48980714D01*
X148832857Y-48980714D01*
X148928095Y-49028333D01*
X148975714Y-49123571D01*
X148975714Y-49218809D01*
X148499523Y-49314047D01*
X149404285Y-49647380D02*
X149404285Y-48980714D01*
X149404285Y-49171190D02*
X149451904Y-49075952D01*
X149499523Y-49028333D01*
X149594761Y-48980714D01*
X149690000Y-48980714D01*
X142404285Y-50971666D02*
X142880476Y-50971666D01*
X142309047Y-51257380D02*
X142642380Y-50257380D01*
X142975714Y-51257380D01*
X143309047Y-51257380D02*
X143309047Y-50257380D01*
X143547142Y-50257380D01*
X143690000Y-50305000D01*
X143785238Y-50400238D01*
X143832857Y-50495476D01*
X143880476Y-50685952D01*
X143880476Y-50828809D01*
X143832857Y-51019285D01*
X143785238Y-51114523D01*
X143690000Y-51209761D01*
X143547142Y-51257380D01*
X143309047Y-51257380D01*
X144880476Y-51162142D02*
X144832857Y-51209761D01*
X144690000Y-51257380D01*
X144594761Y-51257380D01*
X144451904Y-51209761D01*
X144356666Y-51114523D01*
X144309047Y-51019285D01*
X144261428Y-50828809D01*
X144261428Y-50685952D01*
X144309047Y-50495476D01*
X144356666Y-50400238D01*
X144451904Y-50305000D01*
X144594761Y-50257380D01*
X144690000Y-50257380D01*
X144832857Y-50305000D01*
X144880476Y-50352619D01*
X146404285Y-50733571D02*
X146547142Y-50781190D01*
X146594761Y-50828809D01*
X146642380Y-50924047D01*
X146642380Y-51066904D01*
X146594761Y-51162142D01*
X146547142Y-51209761D01*
X146451904Y-51257380D01*
X146070952Y-51257380D01*
X146070952Y-50257380D01*
X146404285Y-50257380D01*
X146499523Y-50305000D01*
X146547142Y-50352619D01*
X146594761Y-50447857D01*
X146594761Y-50543095D01*
X146547142Y-50638333D01*
X146499523Y-50685952D01*
X146404285Y-50733571D01*
X146070952Y-50733571D01*
X147213809Y-51257380D02*
X147118571Y-51209761D01*
X147070952Y-51162142D01*
X147023333Y-51066904D01*
X147023333Y-50781190D01*
X147070952Y-50685952D01*
X147118571Y-50638333D01*
X147213809Y-50590714D01*
X147356666Y-50590714D01*
X147451904Y-50638333D01*
X147499523Y-50685952D01*
X147547142Y-50781190D01*
X147547142Y-51066904D01*
X147499523Y-51162142D01*
X147451904Y-51209761D01*
X147356666Y-51257380D01*
X147213809Y-51257380D01*
X148404285Y-51257380D02*
X148404285Y-50733571D01*
X148356666Y-50638333D01*
X148261428Y-50590714D01*
X148070952Y-50590714D01*
X147975714Y-50638333D01*
X148404285Y-51209761D02*
X148309047Y-51257380D01*
X148070952Y-51257380D01*
X147975714Y-51209761D01*
X147928095Y-51114523D01*
X147928095Y-51019285D01*
X147975714Y-50924047D01*
X148070952Y-50876428D01*
X148309047Y-50876428D01*
X148404285Y-50828809D01*
X148880476Y-51257380D02*
X148880476Y-50590714D01*
X148880476Y-50781190D02*
X148928095Y-50685952D01*
X148975714Y-50638333D01*
X149070952Y-50590714D01*
X149166190Y-50590714D01*
X149928095Y-51257380D02*
X149928095Y-50257380D01*
X149928095Y-51209761D02*
X149832857Y-51257380D01*
X149642380Y-51257380D01*
X149547142Y-51209761D01*
X149499523Y-51162142D01*
X149451904Y-51066904D01*
X149451904Y-50781190D01*
X149499523Y-50685952D01*
X149547142Y-50638333D01*
X149642380Y-50590714D01*
X149832857Y-50590714D01*
X149928095Y-50638333D01*
X169832857Y-49647380D02*
X169832857Y-48647380D01*
X170166190Y-49361666D01*
X170499523Y-48647380D01*
X170499523Y-49647380D01*
X170975714Y-49647380D02*
X170975714Y-48980714D01*
X170975714Y-48647380D02*
X170928095Y-48695000D01*
X170975714Y-48742619D01*
X171023333Y-48695000D01*
X170975714Y-48647380D01*
X170975714Y-48742619D01*
X171594761Y-49647380D02*
X171499523Y-49599761D01*
X171451904Y-49504523D01*
X171451904Y-48647380D01*
X172118571Y-49647380D02*
X172023333Y-49599761D01*
X171975714Y-49504523D01*
X171975714Y-48647380D01*
X172499523Y-49647380D02*
X172499523Y-48980714D01*
X172499523Y-48647380D02*
X172451904Y-48695000D01*
X172499523Y-48742619D01*
X172547142Y-48695000D01*
X172499523Y-48647380D01*
X172499523Y-48742619D01*
X172975714Y-49647380D02*
X172975714Y-48647380D01*
X173309047Y-49361666D01*
X173642380Y-48647380D01*
X173642380Y-49647380D01*
X174499523Y-49599761D02*
X174404285Y-49647380D01*
X174213809Y-49647380D01*
X174118571Y-49599761D01*
X174070952Y-49504523D01*
X174070952Y-49123571D01*
X174118571Y-49028333D01*
X174213809Y-48980714D01*
X174404285Y-48980714D01*
X174499523Y-49028333D01*
X174547142Y-49123571D01*
X174547142Y-49218809D01*
X174070952Y-49314047D01*
X174832857Y-48980714D02*
X175213809Y-48980714D01*
X174975714Y-48647380D02*
X174975714Y-49504523D01*
X175023333Y-49599761D01*
X175118571Y-49647380D01*
X175213809Y-49647380D01*
X175928095Y-49599761D02*
X175832857Y-49647380D01*
X175642380Y-49647380D01*
X175547142Y-49599761D01*
X175499523Y-49504523D01*
X175499523Y-49123571D01*
X175547142Y-49028333D01*
X175642380Y-48980714D01*
X175832857Y-48980714D01*
X175928095Y-49028333D01*
X175975714Y-49123571D01*
X175975714Y-49218809D01*
X175499523Y-49314047D01*
X176404285Y-49647380D02*
X176404285Y-48980714D01*
X176404285Y-49171190D02*
X176451904Y-49075952D01*
X176499523Y-49028333D01*
X176594761Y-48980714D01*
X176690000Y-48980714D01*
X169404285Y-50971666D02*
X169880476Y-50971666D01*
X169309047Y-51257380D02*
X169642380Y-50257380D01*
X169975714Y-51257380D01*
X170309047Y-51257380D02*
X170309047Y-50257380D01*
X170547142Y-50257380D01*
X170690000Y-50305000D01*
X170785238Y-50400238D01*
X170832857Y-50495476D01*
X170880476Y-50685952D01*
X170880476Y-50828809D01*
X170832857Y-51019285D01*
X170785238Y-51114523D01*
X170690000Y-51209761D01*
X170547142Y-51257380D01*
X170309047Y-51257380D01*
X171880476Y-51162142D02*
X171832857Y-51209761D01*
X171690000Y-51257380D01*
X171594761Y-51257380D01*
X171451904Y-51209761D01*
X171356666Y-51114523D01*
X171309047Y-51019285D01*
X171261428Y-50828809D01*
X171261428Y-50685952D01*
X171309047Y-50495476D01*
X171356666Y-50400238D01*
X171451904Y-50305000D01*
X171594761Y-50257380D01*
X171690000Y-50257380D01*
X171832857Y-50305000D01*
X171880476Y-50352619D01*
X173404285Y-50733571D02*
X173547142Y-50781190D01*
X173594761Y-50828809D01*
X173642380Y-50924047D01*
X173642380Y-51066904D01*
X173594761Y-51162142D01*
X173547142Y-51209761D01*
X173451904Y-51257380D01*
X173070952Y-51257380D01*
X173070952Y-50257380D01*
X173404285Y-50257380D01*
X173499523Y-50305000D01*
X173547142Y-50352619D01*
X173594761Y-50447857D01*
X173594761Y-50543095D01*
X173547142Y-50638333D01*
X173499523Y-50685952D01*
X173404285Y-50733571D01*
X173070952Y-50733571D01*
X174213809Y-51257380D02*
X174118571Y-51209761D01*
X174070952Y-51162142D01*
X174023333Y-51066904D01*
X174023333Y-50781190D01*
X174070952Y-50685952D01*
X174118571Y-50638333D01*
X174213809Y-50590714D01*
X174356666Y-50590714D01*
X174451904Y-50638333D01*
X174499523Y-50685952D01*
X174547142Y-50781190D01*
X174547142Y-51066904D01*
X174499523Y-51162142D01*
X174451904Y-51209761D01*
X174356666Y-51257380D01*
X174213809Y-51257380D01*
X175404285Y-51257380D02*
X175404285Y-50733571D01*
X175356666Y-50638333D01*
X175261428Y-50590714D01*
X175070952Y-50590714D01*
X174975714Y-50638333D01*
X175404285Y-51209761D02*
X175309047Y-51257380D01*
X175070952Y-51257380D01*
X174975714Y-51209761D01*
X174928095Y-51114523D01*
X174928095Y-51019285D01*
X174975714Y-50924047D01*
X175070952Y-50876428D01*
X175309047Y-50876428D01*
X175404285Y-50828809D01*
X175880476Y-51257380D02*
X175880476Y-50590714D01*
X175880476Y-50781190D02*
X175928095Y-50685952D01*
X175975714Y-50638333D01*
X176070952Y-50590714D01*
X176166190Y-50590714D01*
X176928095Y-51257380D02*
X176928095Y-50257380D01*
X176928095Y-51209761D02*
X176832857Y-51257380D01*
X176642380Y-51257380D01*
X176547142Y-51209761D01*
X176499523Y-51162142D01*
X176451904Y-51066904D01*
X176451904Y-50781190D01*
X176499523Y-50685952D01*
X176547142Y-50638333D01*
X176642380Y-50590714D01*
X176832857Y-50590714D01*
X176928095Y-50638333D01*
X115832857Y-73647380D02*
X115832857Y-72647380D01*
X116166190Y-73361666D01*
X116499523Y-72647380D01*
X116499523Y-73647380D01*
X116975714Y-73647380D02*
X116975714Y-72980714D01*
X116975714Y-72647380D02*
X116928095Y-72695000D01*
X116975714Y-72742619D01*
X117023333Y-72695000D01*
X116975714Y-72647380D01*
X116975714Y-72742619D01*
X117594761Y-73647380D02*
X117499523Y-73599761D01*
X117451904Y-73504523D01*
X117451904Y-72647380D01*
X118118571Y-73647380D02*
X118023333Y-73599761D01*
X117975714Y-73504523D01*
X117975714Y-72647380D01*
X118499523Y-73647380D02*
X118499523Y-72980714D01*
X118499523Y-72647380D02*
X118451904Y-72695000D01*
X118499523Y-72742619D01*
X118547142Y-72695000D01*
X118499523Y-72647380D01*
X118499523Y-72742619D01*
X118975714Y-73647380D02*
X118975714Y-72647380D01*
X119309047Y-73361666D01*
X119642380Y-72647380D01*
X119642380Y-73647380D01*
X120499523Y-73599761D02*
X120404285Y-73647380D01*
X120213809Y-73647380D01*
X120118571Y-73599761D01*
X120070952Y-73504523D01*
X120070952Y-73123571D01*
X120118571Y-73028333D01*
X120213809Y-72980714D01*
X120404285Y-72980714D01*
X120499523Y-73028333D01*
X120547142Y-73123571D01*
X120547142Y-73218809D01*
X120070952Y-73314047D01*
X120832857Y-72980714D02*
X121213809Y-72980714D01*
X120975714Y-72647380D02*
X120975714Y-73504523D01*
X121023333Y-73599761D01*
X121118571Y-73647380D01*
X121213809Y-73647380D01*
X121928095Y-73599761D02*
X121832857Y-73647380D01*
X121642380Y-73647380D01*
X121547142Y-73599761D01*
X121499523Y-73504523D01*
X121499523Y-73123571D01*
X121547142Y-73028333D01*
X121642380Y-72980714D01*
X121832857Y-72980714D01*
X121928095Y-73028333D01*
X121975714Y-73123571D01*
X121975714Y-73218809D01*
X121499523Y-73314047D01*
X122404285Y-73647380D02*
X122404285Y-72980714D01*
X122404285Y-73171190D02*
X122451904Y-73075952D01*
X122499523Y-73028333D01*
X122594761Y-72980714D01*
X122690000Y-72980714D01*
X115404285Y-74971666D02*
X115880476Y-74971666D01*
X115309047Y-75257380D02*
X115642380Y-74257380D01*
X115975714Y-75257380D01*
X116309047Y-75257380D02*
X116309047Y-74257380D01*
X116547142Y-74257380D01*
X116690000Y-74305000D01*
X116785238Y-74400238D01*
X116832857Y-74495476D01*
X116880476Y-74685952D01*
X116880476Y-74828809D01*
X116832857Y-75019285D01*
X116785238Y-75114523D01*
X116690000Y-75209761D01*
X116547142Y-75257380D01*
X116309047Y-75257380D01*
X117880476Y-75162142D02*
X117832857Y-75209761D01*
X117690000Y-75257380D01*
X117594761Y-75257380D01*
X117451904Y-75209761D01*
X117356666Y-75114523D01*
X117309047Y-75019285D01*
X117261428Y-74828809D01*
X117261428Y-74685952D01*
X117309047Y-74495476D01*
X117356666Y-74400238D01*
X117451904Y-74305000D01*
X117594761Y-74257380D01*
X117690000Y-74257380D01*
X117832857Y-74305000D01*
X117880476Y-74352619D01*
X119404285Y-74733571D02*
X119547142Y-74781190D01*
X119594761Y-74828809D01*
X119642380Y-74924047D01*
X119642380Y-75066904D01*
X119594761Y-75162142D01*
X119547142Y-75209761D01*
X119451904Y-75257380D01*
X119070952Y-75257380D01*
X119070952Y-74257380D01*
X119404285Y-74257380D01*
X119499523Y-74305000D01*
X119547142Y-74352619D01*
X119594761Y-74447857D01*
X119594761Y-74543095D01*
X119547142Y-74638333D01*
X119499523Y-74685952D01*
X119404285Y-74733571D01*
X119070952Y-74733571D01*
X120213809Y-75257380D02*
X120118571Y-75209761D01*
X120070952Y-75162142D01*
X120023333Y-75066904D01*
X120023333Y-74781190D01*
X120070952Y-74685952D01*
X120118571Y-74638333D01*
X120213809Y-74590714D01*
X120356666Y-74590714D01*
X120451904Y-74638333D01*
X120499523Y-74685952D01*
X120547142Y-74781190D01*
X120547142Y-75066904D01*
X120499523Y-75162142D01*
X120451904Y-75209761D01*
X120356666Y-75257380D01*
X120213809Y-75257380D01*
X121404285Y-75257380D02*
X121404285Y-74733571D01*
X121356666Y-74638333D01*
X121261428Y-74590714D01*
X121070952Y-74590714D01*
X120975714Y-74638333D01*
X121404285Y-75209761D02*
X121309047Y-75257380D01*
X121070952Y-75257380D01*
X120975714Y-75209761D01*
X120928095Y-75114523D01*
X120928095Y-75019285D01*
X120975714Y-74924047D01*
X121070952Y-74876428D01*
X121309047Y-74876428D01*
X121404285Y-74828809D01*
X121880476Y-75257380D02*
X121880476Y-74590714D01*
X121880476Y-74781190D02*
X121928095Y-74685952D01*
X121975714Y-74638333D01*
X122070952Y-74590714D01*
X122166190Y-74590714D01*
X122928095Y-75257380D02*
X122928095Y-74257380D01*
X122928095Y-75209761D02*
X122832857Y-75257380D01*
X122642380Y-75257380D01*
X122547142Y-75209761D01*
X122499523Y-75162142D01*
X122451904Y-75066904D01*
X122451904Y-74781190D01*
X122499523Y-74685952D01*
X122547142Y-74638333D01*
X122642380Y-74590714D01*
X122832857Y-74590714D01*
X122928095Y-74638333D01*
X142832857Y-73647380D02*
X142832857Y-72647380D01*
X143166190Y-73361666D01*
X143499523Y-72647380D01*
X143499523Y-73647380D01*
X143975714Y-73647380D02*
X143975714Y-72980714D01*
X143975714Y-72647380D02*
X143928095Y-72695000D01*
X143975714Y-72742619D01*
X144023333Y-72695000D01*
X143975714Y-72647380D01*
X143975714Y-72742619D01*
X144594761Y-73647380D02*
X144499523Y-73599761D01*
X144451904Y-73504523D01*
X144451904Y-72647380D01*
X145118571Y-73647380D02*
X145023333Y-73599761D01*
X144975714Y-73504523D01*
X144975714Y-72647380D01*
X145499523Y-73647380D02*
X145499523Y-72980714D01*
X145499523Y-72647380D02*
X145451904Y-72695000D01*
X145499523Y-72742619D01*
X145547142Y-72695000D01*
X145499523Y-72647380D01*
X145499523Y-72742619D01*
X145975714Y-73647380D02*
X145975714Y-72647380D01*
X146309047Y-73361666D01*
X146642380Y-72647380D01*
X146642380Y-73647380D01*
X147499523Y-73599761D02*
X147404285Y-73647380D01*
X147213809Y-73647380D01*
X147118571Y-73599761D01*
X147070952Y-73504523D01*
X147070952Y-73123571D01*
X147118571Y-73028333D01*
X147213809Y-72980714D01*
X147404285Y-72980714D01*
X147499523Y-73028333D01*
X147547142Y-73123571D01*
X147547142Y-73218809D01*
X147070952Y-73314047D01*
X147832857Y-72980714D02*
X148213809Y-72980714D01*
X147975714Y-72647380D02*
X147975714Y-73504523D01*
X148023333Y-73599761D01*
X148118571Y-73647380D01*
X148213809Y-73647380D01*
X148928095Y-73599761D02*
X148832857Y-73647380D01*
X148642380Y-73647380D01*
X148547142Y-73599761D01*
X148499523Y-73504523D01*
X148499523Y-73123571D01*
X148547142Y-73028333D01*
X148642380Y-72980714D01*
X148832857Y-72980714D01*
X148928095Y-73028333D01*
X148975714Y-73123571D01*
X148975714Y-73218809D01*
X148499523Y-73314047D01*
X149404285Y-73647380D02*
X149404285Y-72980714D01*
X149404285Y-73171190D02*
X149451904Y-73075952D01*
X149499523Y-73028333D01*
X149594761Y-72980714D01*
X149690000Y-72980714D01*
X142404285Y-74971666D02*
X142880476Y-74971666D01*
X142309047Y-75257380D02*
X142642380Y-74257380D01*
X142975714Y-75257380D01*
X143309047Y-75257380D02*
X143309047Y-74257380D01*
X143547142Y-74257380D01*
X143690000Y-74305000D01*
X143785238Y-74400238D01*
X143832857Y-74495476D01*
X143880476Y-74685952D01*
X143880476Y-74828809D01*
X143832857Y-75019285D01*
X143785238Y-75114523D01*
X143690000Y-75209761D01*
X143547142Y-75257380D01*
X143309047Y-75257380D01*
X144880476Y-75162142D02*
X144832857Y-75209761D01*
X144690000Y-75257380D01*
X144594761Y-75257380D01*
X144451904Y-75209761D01*
X144356666Y-75114523D01*
X144309047Y-75019285D01*
X144261428Y-74828809D01*
X144261428Y-74685952D01*
X144309047Y-74495476D01*
X144356666Y-74400238D01*
X144451904Y-74305000D01*
X144594761Y-74257380D01*
X144690000Y-74257380D01*
X144832857Y-74305000D01*
X144880476Y-74352619D01*
X146404285Y-74733571D02*
X146547142Y-74781190D01*
X146594761Y-74828809D01*
X146642380Y-74924047D01*
X146642380Y-75066904D01*
X146594761Y-75162142D01*
X146547142Y-75209761D01*
X146451904Y-75257380D01*
X146070952Y-75257380D01*
X146070952Y-74257380D01*
X146404285Y-74257380D01*
X146499523Y-74305000D01*
X146547142Y-74352619D01*
X146594761Y-74447857D01*
X146594761Y-74543095D01*
X146547142Y-74638333D01*
X146499523Y-74685952D01*
X146404285Y-74733571D01*
X146070952Y-74733571D01*
X147213809Y-75257380D02*
X147118571Y-75209761D01*
X147070952Y-75162142D01*
X147023333Y-75066904D01*
X147023333Y-74781190D01*
X147070952Y-74685952D01*
X147118571Y-74638333D01*
X147213809Y-74590714D01*
X147356666Y-74590714D01*
X147451904Y-74638333D01*
X147499523Y-74685952D01*
X147547142Y-74781190D01*
X147547142Y-75066904D01*
X147499523Y-75162142D01*
X147451904Y-75209761D01*
X147356666Y-75257380D01*
X147213809Y-75257380D01*
X148404285Y-75257380D02*
X148404285Y-74733571D01*
X148356666Y-74638333D01*
X148261428Y-74590714D01*
X148070952Y-74590714D01*
X147975714Y-74638333D01*
X148404285Y-75209761D02*
X148309047Y-75257380D01*
X148070952Y-75257380D01*
X147975714Y-75209761D01*
X147928095Y-75114523D01*
X147928095Y-75019285D01*
X147975714Y-74924047D01*
X148070952Y-74876428D01*
X148309047Y-74876428D01*
X148404285Y-74828809D01*
X148880476Y-75257380D02*
X148880476Y-74590714D01*
X148880476Y-74781190D02*
X148928095Y-74685952D01*
X148975714Y-74638333D01*
X149070952Y-74590714D01*
X149166190Y-74590714D01*
X149928095Y-75257380D02*
X149928095Y-74257380D01*
X149928095Y-75209761D02*
X149832857Y-75257380D01*
X149642380Y-75257380D01*
X149547142Y-75209761D01*
X149499523Y-75162142D01*
X149451904Y-75066904D01*
X149451904Y-74781190D01*
X149499523Y-74685952D01*
X149547142Y-74638333D01*
X149642380Y-74590714D01*
X149832857Y-74590714D01*
X149928095Y-74638333D01*
X169832857Y-73647380D02*
X169832857Y-72647380D01*
X170166190Y-73361666D01*
X170499523Y-72647380D01*
X170499523Y-73647380D01*
X170975714Y-73647380D02*
X170975714Y-72980714D01*
X170975714Y-72647380D02*
X170928095Y-72695000D01*
X170975714Y-72742619D01*
X171023333Y-72695000D01*
X170975714Y-72647380D01*
X170975714Y-72742619D01*
X171594761Y-73647380D02*
X171499523Y-73599761D01*
X171451904Y-73504523D01*
X171451904Y-72647380D01*
X172118571Y-73647380D02*
X172023333Y-73599761D01*
X171975714Y-73504523D01*
X171975714Y-72647380D01*
X172499523Y-73647380D02*
X172499523Y-72980714D01*
X172499523Y-72647380D02*
X172451904Y-72695000D01*
X172499523Y-72742619D01*
X172547142Y-72695000D01*
X172499523Y-72647380D01*
X172499523Y-72742619D01*
X172975714Y-73647380D02*
X172975714Y-72647380D01*
X173309047Y-73361666D01*
X173642380Y-72647380D01*
X173642380Y-73647380D01*
X174499523Y-73599761D02*
X174404285Y-73647380D01*
X174213809Y-73647380D01*
X174118571Y-73599761D01*
X174070952Y-73504523D01*
X174070952Y-73123571D01*
X174118571Y-73028333D01*
X174213809Y-72980714D01*
X174404285Y-72980714D01*
X174499523Y-73028333D01*
X174547142Y-73123571D01*
X174547142Y-73218809D01*
X174070952Y-73314047D01*
X174832857Y-72980714D02*
X175213809Y-72980714D01*
X174975714Y-72647380D02*
X174975714Y-73504523D01*
X175023333Y-73599761D01*
X175118571Y-73647380D01*
X175213809Y-73647380D01*
X175928095Y-73599761D02*
X175832857Y-73647380D01*
X175642380Y-73647380D01*
X175547142Y-73599761D01*
X175499523Y-73504523D01*
X175499523Y-73123571D01*
X175547142Y-73028333D01*
X175642380Y-72980714D01*
X175832857Y-72980714D01*
X175928095Y-73028333D01*
X175975714Y-73123571D01*
X175975714Y-73218809D01*
X175499523Y-73314047D01*
X176404285Y-73647380D02*
X176404285Y-72980714D01*
X176404285Y-73171190D02*
X176451904Y-73075952D01*
X176499523Y-73028333D01*
X176594761Y-72980714D01*
X176690000Y-72980714D01*
X169404285Y-74971666D02*
X169880476Y-74971666D01*
X169309047Y-75257380D02*
X169642380Y-74257380D01*
X169975714Y-75257380D01*
X170309047Y-75257380D02*
X170309047Y-74257380D01*
X170547142Y-74257380D01*
X170690000Y-74305000D01*
X170785238Y-74400238D01*
X170832857Y-74495476D01*
X170880476Y-74685952D01*
X170880476Y-74828809D01*
X170832857Y-75019285D01*
X170785238Y-75114523D01*
X170690000Y-75209761D01*
X170547142Y-75257380D01*
X170309047Y-75257380D01*
X171880476Y-75162142D02*
X171832857Y-75209761D01*
X171690000Y-75257380D01*
X171594761Y-75257380D01*
X171451904Y-75209761D01*
X171356666Y-75114523D01*
X171309047Y-75019285D01*
X171261428Y-74828809D01*
X171261428Y-74685952D01*
X171309047Y-74495476D01*
X171356666Y-74400238D01*
X171451904Y-74305000D01*
X171594761Y-74257380D01*
X171690000Y-74257380D01*
X171832857Y-74305000D01*
X171880476Y-74352619D01*
X173404285Y-74733571D02*
X173547142Y-74781190D01*
X173594761Y-74828809D01*
X173642380Y-74924047D01*
X173642380Y-75066904D01*
X173594761Y-75162142D01*
X173547142Y-75209761D01*
X173451904Y-75257380D01*
X173070952Y-75257380D01*
X173070952Y-74257380D01*
X173404285Y-74257380D01*
X173499523Y-74305000D01*
X173547142Y-74352619D01*
X173594761Y-74447857D01*
X173594761Y-74543095D01*
X173547142Y-74638333D01*
X173499523Y-74685952D01*
X173404285Y-74733571D01*
X173070952Y-74733571D01*
X174213809Y-75257380D02*
X174118571Y-75209761D01*
X174070952Y-75162142D01*
X174023333Y-75066904D01*
X174023333Y-74781190D01*
X174070952Y-74685952D01*
X174118571Y-74638333D01*
X174213809Y-74590714D01*
X174356666Y-74590714D01*
X174451904Y-74638333D01*
X174499523Y-74685952D01*
X174547142Y-74781190D01*
X174547142Y-75066904D01*
X174499523Y-75162142D01*
X174451904Y-75209761D01*
X174356666Y-75257380D01*
X174213809Y-75257380D01*
X175404285Y-75257380D02*
X175404285Y-74733571D01*
X175356666Y-74638333D01*
X175261428Y-74590714D01*
X175070952Y-74590714D01*
X174975714Y-74638333D01*
X175404285Y-75209761D02*
X175309047Y-75257380D01*
X175070952Y-75257380D01*
X174975714Y-75209761D01*
X174928095Y-75114523D01*
X174928095Y-75019285D01*
X174975714Y-74924047D01*
X175070952Y-74876428D01*
X175309047Y-74876428D01*
X175404285Y-74828809D01*
X175880476Y-75257380D02*
X175880476Y-74590714D01*
X175880476Y-74781190D02*
X175928095Y-74685952D01*
X175975714Y-74638333D01*
X176070952Y-74590714D01*
X176166190Y-74590714D01*
X176928095Y-75257380D02*
X176928095Y-74257380D01*
X176928095Y-75209761D02*
X176832857Y-75257380D01*
X176642380Y-75257380D01*
X176547142Y-75209761D01*
X176499523Y-75162142D01*
X176451904Y-75066904D01*
X176451904Y-74781190D01*
X176499523Y-74685952D01*
X176547142Y-74638333D01*
X176642380Y-74590714D01*
X176832857Y-74590714D01*
X176928095Y-74638333D01*
X115832857Y-97647380D02*
X115832857Y-96647380D01*
X116166190Y-97361666D01*
X116499523Y-96647380D01*
X116499523Y-97647380D01*
X116975714Y-97647380D02*
X116975714Y-96980714D01*
X116975714Y-96647380D02*
X116928095Y-96695000D01*
X116975714Y-96742619D01*
X117023333Y-96695000D01*
X116975714Y-96647380D01*
X116975714Y-96742619D01*
X117594761Y-97647380D02*
X117499523Y-97599761D01*
X117451904Y-97504523D01*
X117451904Y-96647380D01*
X118118571Y-97647380D02*
X118023333Y-97599761D01*
X117975714Y-97504523D01*
X117975714Y-96647380D01*
X118499523Y-97647380D02*
X118499523Y-96980714D01*
X118499523Y-96647380D02*
X118451904Y-96695000D01*
X118499523Y-96742619D01*
X118547142Y-96695000D01*
X118499523Y-96647380D01*
X118499523Y-96742619D01*
X118975714Y-97647380D02*
X118975714Y-96647380D01*
X119309047Y-97361666D01*
X119642380Y-96647380D01*
X119642380Y-97647380D01*
X120499523Y-97599761D02*
X120404285Y-97647380D01*
X120213809Y-97647380D01*
X120118571Y-97599761D01*
X120070952Y-97504523D01*
X120070952Y-97123571D01*
X120118571Y-97028333D01*
X120213809Y-96980714D01*
X120404285Y-96980714D01*
X120499523Y-97028333D01*
X120547142Y-97123571D01*
X120547142Y-97218809D01*
X120070952Y-97314047D01*
X120832857Y-96980714D02*
X121213809Y-96980714D01*
X120975714Y-96647380D02*
X120975714Y-97504523D01*
X121023333Y-97599761D01*
X121118571Y-97647380D01*
X121213809Y-97647380D01*
X121928095Y-97599761D02*
X121832857Y-97647380D01*
X121642380Y-97647380D01*
X121547142Y-97599761D01*
X121499523Y-97504523D01*
X121499523Y-97123571D01*
X121547142Y-97028333D01*
X121642380Y-96980714D01*
X121832857Y-96980714D01*
X121928095Y-97028333D01*
X121975714Y-97123571D01*
X121975714Y-97218809D01*
X121499523Y-97314047D01*
X122404285Y-97647380D02*
X122404285Y-96980714D01*
X122404285Y-97171190D02*
X122451904Y-97075952D01*
X122499523Y-97028333D01*
X122594761Y-96980714D01*
X122690000Y-96980714D01*
X115404285Y-98971666D02*
X115880476Y-98971666D01*
X115309047Y-99257380D02*
X115642380Y-98257380D01*
X115975714Y-99257380D01*
X116309047Y-99257380D02*
X116309047Y-98257380D01*
X116547142Y-98257380D01*
X116690000Y-98305000D01*
X116785238Y-98400238D01*
X116832857Y-98495476D01*
X116880476Y-98685952D01*
X116880476Y-98828809D01*
X116832857Y-99019285D01*
X116785238Y-99114523D01*
X116690000Y-99209761D01*
X116547142Y-99257380D01*
X116309047Y-99257380D01*
X117880476Y-99162142D02*
X117832857Y-99209761D01*
X117690000Y-99257380D01*
X117594761Y-99257380D01*
X117451904Y-99209761D01*
X117356666Y-99114523D01*
X117309047Y-99019285D01*
X117261428Y-98828809D01*
X117261428Y-98685952D01*
X117309047Y-98495476D01*
X117356666Y-98400238D01*
X117451904Y-98305000D01*
X117594761Y-98257380D01*
X117690000Y-98257380D01*
X117832857Y-98305000D01*
X117880476Y-98352619D01*
X119404285Y-98733571D02*
X119547142Y-98781190D01*
X119594761Y-98828809D01*
X119642380Y-98924047D01*
X119642380Y-99066904D01*
X119594761Y-99162142D01*
X119547142Y-99209761D01*
X119451904Y-99257380D01*
X119070952Y-99257380D01*
X119070952Y-98257380D01*
X119404285Y-98257380D01*
X119499523Y-98305000D01*
X119547142Y-98352619D01*
X119594761Y-98447857D01*
X119594761Y-98543095D01*
X119547142Y-98638333D01*
X119499523Y-98685952D01*
X119404285Y-98733571D01*
X119070952Y-98733571D01*
X120213809Y-99257380D02*
X120118571Y-99209761D01*
X120070952Y-99162142D01*
X120023333Y-99066904D01*
X120023333Y-98781190D01*
X120070952Y-98685952D01*
X120118571Y-98638333D01*
X120213809Y-98590714D01*
X120356666Y-98590714D01*
X120451904Y-98638333D01*
X120499523Y-98685952D01*
X120547142Y-98781190D01*
X120547142Y-99066904D01*
X120499523Y-99162142D01*
X120451904Y-99209761D01*
X120356666Y-99257380D01*
X120213809Y-99257380D01*
X121404285Y-99257380D02*
X121404285Y-98733571D01*
X121356666Y-98638333D01*
X121261428Y-98590714D01*
X121070952Y-98590714D01*
X120975714Y-98638333D01*
X121404285Y-99209761D02*
X121309047Y-99257380D01*
X121070952Y-99257380D01*
X120975714Y-99209761D01*
X120928095Y-99114523D01*
X120928095Y-99019285D01*
X120975714Y-98924047D01*
X121070952Y-98876428D01*
X121309047Y-98876428D01*
X121404285Y-98828809D01*
X121880476Y-99257380D02*
X121880476Y-98590714D01*
X121880476Y-98781190D02*
X121928095Y-98685952D01*
X121975714Y-98638333D01*
X122070952Y-98590714D01*
X122166190Y-98590714D01*
X122928095Y-99257380D02*
X122928095Y-98257380D01*
X122928095Y-99209761D02*
X122832857Y-99257380D01*
X122642380Y-99257380D01*
X122547142Y-99209761D01*
X122499523Y-99162142D01*
X122451904Y-99066904D01*
X122451904Y-98781190D01*
X122499523Y-98685952D01*
X122547142Y-98638333D01*
X122642380Y-98590714D01*
X122832857Y-98590714D01*
X122928095Y-98638333D01*
X142832857Y-97647380D02*
X142832857Y-96647380D01*
X143166190Y-97361666D01*
X143499523Y-96647380D01*
X143499523Y-97647380D01*
X143975714Y-97647380D02*
X143975714Y-96980714D01*
X143975714Y-96647380D02*
X143928095Y-96695000D01*
X143975714Y-96742619D01*
X144023333Y-96695000D01*
X143975714Y-96647380D01*
X143975714Y-96742619D01*
X144594761Y-97647380D02*
X144499523Y-97599761D01*
X144451904Y-97504523D01*
X144451904Y-96647380D01*
X145118571Y-97647380D02*
X145023333Y-97599761D01*
X144975714Y-97504523D01*
X144975714Y-96647380D01*
X145499523Y-97647380D02*
X145499523Y-96980714D01*
X145499523Y-96647380D02*
X145451904Y-96695000D01*
X145499523Y-96742619D01*
X145547142Y-96695000D01*
X145499523Y-96647380D01*
X145499523Y-96742619D01*
X145975714Y-97647380D02*
X145975714Y-96647380D01*
X146309047Y-97361666D01*
X146642380Y-96647380D01*
X146642380Y-97647380D01*
X147499523Y-97599761D02*
X147404285Y-97647380D01*
X147213809Y-97647380D01*
X147118571Y-97599761D01*
X147070952Y-97504523D01*
X147070952Y-97123571D01*
X147118571Y-97028333D01*
X147213809Y-96980714D01*
X147404285Y-96980714D01*
X147499523Y-97028333D01*
X147547142Y-97123571D01*
X147547142Y-97218809D01*
X147070952Y-97314047D01*
X147832857Y-96980714D02*
X148213809Y-96980714D01*
X147975714Y-96647380D02*
X147975714Y-97504523D01*
X148023333Y-97599761D01*
X148118571Y-97647380D01*
X148213809Y-97647380D01*
X148928095Y-97599761D02*
X148832857Y-97647380D01*
X148642380Y-97647380D01*
X148547142Y-97599761D01*
X148499523Y-97504523D01*
X148499523Y-97123571D01*
X148547142Y-97028333D01*
X148642380Y-96980714D01*
X148832857Y-96980714D01*
X148928095Y-97028333D01*
X148975714Y-97123571D01*
X148975714Y-97218809D01*
X148499523Y-97314047D01*
X149404285Y-97647380D02*
X149404285Y-96980714D01*
X149404285Y-97171190D02*
X149451904Y-97075952D01*
X149499523Y-97028333D01*
X149594761Y-96980714D01*
X149690000Y-96980714D01*
X142404285Y-98971666D02*
X142880476Y-98971666D01*
X142309047Y-99257380D02*
X142642380Y-98257380D01*
X142975714Y-99257380D01*
X143309047Y-99257380D02*
X143309047Y-98257380D01*
X143547142Y-98257380D01*
X143690000Y-98305000D01*
X143785238Y-98400238D01*
X143832857Y-98495476D01*
X143880476Y-98685952D01*
X143880476Y-98828809D01*
X143832857Y-99019285D01*
X143785238Y-99114523D01*
X143690000Y-99209761D01*
X143547142Y-99257380D01*
X143309047Y-99257380D01*
X144880476Y-99162142D02*
X144832857Y-99209761D01*
X144690000Y-99257380D01*
X144594761Y-99257380D01*
X144451904Y-99209761D01*
X144356666Y-99114523D01*
X144309047Y-99019285D01*
X144261428Y-98828809D01*
X144261428Y-98685952D01*
X144309047Y-98495476D01*
X144356666Y-98400238D01*
X144451904Y-98305000D01*
X144594761Y-98257380D01*
X144690000Y-98257380D01*
X144832857Y-98305000D01*
X144880476Y-98352619D01*
X146404285Y-98733571D02*
X146547142Y-98781190D01*
X146594761Y-98828809D01*
X146642380Y-98924047D01*
X146642380Y-99066904D01*
X146594761Y-99162142D01*
X146547142Y-99209761D01*
X146451904Y-99257380D01*
X146070952Y-99257380D01*
X146070952Y-98257380D01*
X146404285Y-98257380D01*
X146499523Y-98305000D01*
X146547142Y-98352619D01*
X146594761Y-98447857D01*
X146594761Y-98543095D01*
X146547142Y-98638333D01*
X146499523Y-98685952D01*
X146404285Y-98733571D01*
X146070952Y-98733571D01*
X147213809Y-99257380D02*
X147118571Y-99209761D01*
X147070952Y-99162142D01*
X147023333Y-99066904D01*
X147023333Y-98781190D01*
X147070952Y-98685952D01*
X147118571Y-98638333D01*
X147213809Y-98590714D01*
X147356666Y-98590714D01*
X147451904Y-98638333D01*
X147499523Y-98685952D01*
X147547142Y-98781190D01*
X147547142Y-99066904D01*
X147499523Y-99162142D01*
X147451904Y-99209761D01*
X147356666Y-99257380D01*
X147213809Y-99257380D01*
X148404285Y-99257380D02*
X148404285Y-98733571D01*
X148356666Y-98638333D01*
X148261428Y-98590714D01*
X148070952Y-98590714D01*
X147975714Y-98638333D01*
X148404285Y-99209761D02*
X148309047Y-99257380D01*
X148070952Y-99257380D01*
X147975714Y-99209761D01*
X147928095Y-99114523D01*
X147928095Y-99019285D01*
X147975714Y-98924047D01*
X148070952Y-98876428D01*
X148309047Y-98876428D01*
X148404285Y-98828809D01*
X148880476Y-99257380D02*
X148880476Y-98590714D01*
X148880476Y-98781190D02*
X148928095Y-98685952D01*
X148975714Y-98638333D01*
X149070952Y-98590714D01*
X149166190Y-98590714D01*
X149928095Y-99257380D02*
X149928095Y-98257380D01*
X149928095Y-99209761D02*
X149832857Y-99257380D01*
X149642380Y-99257380D01*
X149547142Y-99209761D01*
X149499523Y-99162142D01*
X149451904Y-99066904D01*
X149451904Y-98781190D01*
X149499523Y-98685952D01*
X149547142Y-98638333D01*
X149642380Y-98590714D01*
X149832857Y-98590714D01*
X149928095Y-98638333D01*
X169832857Y-97647380D02*
X169832857Y-96647380D01*
X170166190Y-97361666D01*
X170499523Y-96647380D01*
X170499523Y-97647380D01*
X170975714Y-97647380D02*
X170975714Y-96980714D01*
X170975714Y-96647380D02*
X170928095Y-96695000D01*
X170975714Y-96742619D01*
X171023333Y-96695000D01*
X170975714Y-96647380D01*
X170975714Y-96742619D01*
X171594761Y-97647380D02*
X171499523Y-97599761D01*
X171451904Y-97504523D01*
X171451904Y-96647380D01*
X172118571Y-97647380D02*
X172023333Y-97599761D01*
X171975714Y-97504523D01*
X171975714Y-96647380D01*
X172499523Y-97647380D02*
X172499523Y-96980714D01*
X172499523Y-96647380D02*
X172451904Y-96695000D01*
X172499523Y-96742619D01*
X172547142Y-96695000D01*
X172499523Y-96647380D01*
X172499523Y-96742619D01*
X172975714Y-97647380D02*
X172975714Y-96647380D01*
X173309047Y-97361666D01*
X173642380Y-96647380D01*
X173642380Y-97647380D01*
X174499523Y-97599761D02*
X174404285Y-97647380D01*
X174213809Y-97647380D01*
X174118571Y-97599761D01*
X174070952Y-97504523D01*
X174070952Y-97123571D01*
X174118571Y-97028333D01*
X174213809Y-96980714D01*
X174404285Y-96980714D01*
X174499523Y-97028333D01*
X174547142Y-97123571D01*
X174547142Y-97218809D01*
X174070952Y-97314047D01*
X174832857Y-96980714D02*
X175213809Y-96980714D01*
X174975714Y-96647380D02*
X174975714Y-97504523D01*
X175023333Y-97599761D01*
X175118571Y-97647380D01*
X175213809Y-97647380D01*
X175928095Y-97599761D02*
X175832857Y-97647380D01*
X175642380Y-97647380D01*
X175547142Y-97599761D01*
X175499523Y-97504523D01*
X175499523Y-97123571D01*
X175547142Y-97028333D01*
X175642380Y-96980714D01*
X175832857Y-96980714D01*
X175928095Y-97028333D01*
X175975714Y-97123571D01*
X175975714Y-97218809D01*
X175499523Y-97314047D01*
X176404285Y-97647380D02*
X176404285Y-96980714D01*
X176404285Y-97171190D02*
X176451904Y-97075952D01*
X176499523Y-97028333D01*
X176594761Y-96980714D01*
X176690000Y-96980714D01*
X169404285Y-98971666D02*
X169880476Y-98971666D01*
X169309047Y-99257380D02*
X169642380Y-98257380D01*
X169975714Y-99257380D01*
X170309047Y-99257380D02*
X170309047Y-98257380D01*
X170547142Y-98257380D01*
X170690000Y-98305000D01*
X170785238Y-98400238D01*
X170832857Y-98495476D01*
X170880476Y-98685952D01*
X170880476Y-98828809D01*
X170832857Y-99019285D01*
X170785238Y-99114523D01*
X170690000Y-99209761D01*
X170547142Y-99257380D01*
X170309047Y-99257380D01*
X171880476Y-99162142D02*
X171832857Y-99209761D01*
X171690000Y-99257380D01*
X171594761Y-99257380D01*
X171451904Y-99209761D01*
X171356666Y-99114523D01*
X171309047Y-99019285D01*
X171261428Y-98828809D01*
X171261428Y-98685952D01*
X171309047Y-98495476D01*
X171356666Y-98400238D01*
X171451904Y-98305000D01*
X171594761Y-98257380D01*
X171690000Y-98257380D01*
X171832857Y-98305000D01*
X171880476Y-98352619D01*
X173404285Y-98733571D02*
X173547142Y-98781190D01*
X173594761Y-98828809D01*
X173642380Y-98924047D01*
X173642380Y-99066904D01*
X173594761Y-99162142D01*
X173547142Y-99209761D01*
X173451904Y-99257380D01*
X173070952Y-99257380D01*
X173070952Y-98257380D01*
X173404285Y-98257380D01*
X173499523Y-98305000D01*
X173547142Y-98352619D01*
X173594761Y-98447857D01*
X173594761Y-98543095D01*
X173547142Y-98638333D01*
X173499523Y-98685952D01*
X173404285Y-98733571D01*
X173070952Y-98733571D01*
X174213809Y-99257380D02*
X174118571Y-99209761D01*
X174070952Y-99162142D01*
X174023333Y-99066904D01*
X174023333Y-98781190D01*
X174070952Y-98685952D01*
X174118571Y-98638333D01*
X174213809Y-98590714D01*
X174356666Y-98590714D01*
X174451904Y-98638333D01*
X174499523Y-98685952D01*
X174547142Y-98781190D01*
X174547142Y-99066904D01*
X174499523Y-99162142D01*
X174451904Y-99209761D01*
X174356666Y-99257380D01*
X174213809Y-99257380D01*
X175404285Y-99257380D02*
X175404285Y-98733571D01*
X175356666Y-98638333D01*
X175261428Y-98590714D01*
X175070952Y-98590714D01*
X174975714Y-98638333D01*
X175404285Y-99209761D02*
X175309047Y-99257380D01*
X175070952Y-99257380D01*
X174975714Y-99209761D01*
X174928095Y-99114523D01*
X174928095Y-99019285D01*
X174975714Y-98924047D01*
X175070952Y-98876428D01*
X175309047Y-98876428D01*
X175404285Y-98828809D01*
X175880476Y-99257380D02*
X175880476Y-98590714D01*
X175880476Y-98781190D02*
X175928095Y-98685952D01*
X175975714Y-98638333D01*
X176070952Y-98590714D01*
X176166190Y-98590714D01*
X176928095Y-99257380D02*
X176928095Y-98257380D01*
X176928095Y-99209761D02*
X176832857Y-99257380D01*
X176642380Y-99257380D01*
X176547142Y-99209761D01*
X176499523Y-99162142D01*
X176451904Y-99066904D01*
X176451904Y-98781190D01*
X176499523Y-98685952D01*
X176547142Y-98638333D01*
X176642380Y-98590714D01*
X176832857Y-98590714D01*
X176928095Y-98638333D01*
D11*
X151733333Y-44852380D02*
X151400000Y-44376190D01*
X151161904Y-44852380D02*
X151161904Y-43852380D01*
X151542857Y-43852380D01*
X151638095Y-43900000D01*
X151685714Y-43947619D01*
X151733333Y-44042857D01*
X151733333Y-44185714D01*
X151685714Y-44280952D01*
X151638095Y-44328571D01*
X151542857Y-44376190D01*
X151161904Y-44376190D01*
X152590476Y-44185714D02*
X152590476Y-44852380D01*
X152352380Y-43804761D02*
X152114285Y-44519047D01*
X152733333Y-44519047D01*
X169843333Y-38617142D02*
X169795714Y-38664761D01*
X169652857Y-38712380D01*
X169557619Y-38712380D01*
X169414761Y-38664761D01*
X169319523Y-38569523D01*
X169271904Y-38474285D01*
X169224285Y-38283809D01*
X169224285Y-38140952D01*
X169271904Y-37950476D01*
X169319523Y-37855238D01*
X169414761Y-37760000D01*
X169557619Y-37712380D01*
X169652857Y-37712380D01*
X169795714Y-37760000D01*
X169843333Y-37807619D01*
X170700476Y-38045714D02*
X170700476Y-38712380D01*
X170462380Y-37664761D02*
X170224285Y-38379047D01*
X170843333Y-38379047D01*
X160492380Y-55423333D02*
X161206666Y-55423333D01*
X161349523Y-55470952D01*
X161444761Y-55566190D01*
X161492380Y-55709047D01*
X161492380Y-55804285D01*
X160825714Y-54518571D02*
X161492380Y-54518571D01*
X160444761Y-54756666D02*
X161159047Y-54994761D01*
X161159047Y-54375714D01*
X112673333Y-60557142D02*
X112625714Y-60604761D01*
X112482857Y-60652380D01*
X112387619Y-60652380D01*
X112244761Y-60604761D01*
X112149523Y-60509523D01*
X112101904Y-60414285D01*
X112054285Y-60223809D01*
X112054285Y-60080952D01*
X112101904Y-59890476D01*
X112149523Y-59795238D01*
X112244761Y-59700000D01*
X112387619Y-59652380D01*
X112482857Y-59652380D01*
X112625714Y-59700000D01*
X112673333Y-59747619D01*
X113006666Y-59652380D02*
X113625714Y-59652380D01*
X113292380Y-60033333D01*
X113435238Y-60033333D01*
X113530476Y-60080952D01*
X113578095Y-60128571D01*
X113625714Y-60223809D01*
X113625714Y-60461904D01*
X113578095Y-60557142D01*
X113530476Y-60604761D01*
X113435238Y-60652380D01*
X113149523Y-60652380D01*
X113054285Y-60604761D01*
X113006666Y-60557142D01*
X168203333Y-78317142D02*
X168155714Y-78364761D01*
X168012857Y-78412380D01*
X167917619Y-78412380D01*
X167774761Y-78364761D01*
X167679523Y-78269523D01*
X167631904Y-78174285D01*
X167584285Y-77983809D01*
X167584285Y-77840952D01*
X167631904Y-77650476D01*
X167679523Y-77555238D01*
X167774761Y-77460000D01*
X167917619Y-77412380D01*
X168012857Y-77412380D01*
X168155714Y-77460000D01*
X168203333Y-77507619D01*
X169108095Y-77412380D02*
X168631904Y-77412380D01*
X168584285Y-77888571D01*
X168631904Y-77840952D01*
X168727142Y-77793333D01*
X168965238Y-77793333D01*
X169060476Y-77840952D01*
X169108095Y-77888571D01*
X169155714Y-77983809D01*
X169155714Y-78221904D01*
X169108095Y-78317142D01*
X169060476Y-78364761D01*
X168965238Y-78412380D01*
X168727142Y-78412380D01*
X168631904Y-78364761D01*
X168584285Y-78317142D01*
X116833333Y-95482380D02*
X116500000Y-95006190D01*
X116261904Y-95482380D02*
X116261904Y-94482380D01*
X116642857Y-94482380D01*
X116738095Y-94530000D01*
X116785714Y-94577619D01*
X116833333Y-94672857D01*
X116833333Y-94815714D01*
X116785714Y-94910952D01*
X116738095Y-94958571D01*
X116642857Y-95006190D01*
X116261904Y-95006190D01*
X117785714Y-95482380D02*
X117214285Y-95482380D01*
X117500000Y-95482380D02*
X117500000Y-94482380D01*
X117404761Y-94625238D01*
X117309523Y-94720476D01*
X117214285Y-94768095D01*
X187262380Y-98133333D02*
X187976666Y-98133333D01*
X188119523Y-98180952D01*
X188214761Y-98276190D01*
X188262380Y-98419047D01*
X188262380Y-98514285D01*
X187262380Y-97752380D02*
X187262380Y-97133333D01*
X187643333Y-97466666D01*
X187643333Y-97323809D01*
X187690952Y-97228571D01*
X187738571Y-97180952D01*
X187833809Y-97133333D01*
X188071904Y-97133333D01*
X188167142Y-97180952D01*
X188214761Y-97228571D01*
X188262380Y-97323809D01*
X188262380Y-97609523D01*
X188214761Y-97704761D01*
X188167142Y-97752380D01*
X170833333Y-47482380D02*
X170500000Y-47006190D01*
X170261904Y-47482380D02*
X170261904Y-46482380D01*
X170642857Y-46482380D01*
X170738095Y-46530000D01*
X170785714Y-46577619D01*
X170833333Y-46672857D01*
X170833333Y-46815714D01*
X170785714Y-46910952D01*
X170738095Y-46958571D01*
X170642857Y-47006190D01*
X170261904Y-47006190D01*
X171785714Y-47482380D02*
X171214285Y-47482380D01*
X171500000Y-47482380D02*
X171500000Y-46482380D01*
X171404761Y-46625238D01*
X171309523Y-46720476D01*
X171214285Y-46768095D01*
X149667142Y-39306666D02*
X149714761Y-39354285D01*
X149762380Y-39497142D01*
X149762380Y-39592380D01*
X149714761Y-39735238D01*
X149619523Y-39830476D01*
X149524285Y-39878095D01*
X149333809Y-39925714D01*
X149190952Y-39925714D01*
X149000476Y-39878095D01*
X148905238Y-39830476D01*
X148810000Y-39735238D01*
X148762380Y-39592380D01*
X148762380Y-39497142D01*
X148810000Y-39354285D01*
X148857619Y-39306666D01*
X148857619Y-38925714D02*
X148810000Y-38878095D01*
X148762380Y-38782857D01*
X148762380Y-38544761D01*
X148810000Y-38449523D01*
X148857619Y-38401904D01*
X148952857Y-38354285D01*
X149048095Y-38354285D01*
X149190952Y-38401904D01*
X149762380Y-38973333D01*
X149762380Y-38354285D01*
X116833333Y-47482380D02*
X116500000Y-47006190D01*
X116261904Y-47482380D02*
X116261904Y-46482380D01*
X116642857Y-46482380D01*
X116738095Y-46530000D01*
X116785714Y-46577619D01*
X116833333Y-46672857D01*
X116833333Y-46815714D01*
X116785714Y-46910952D01*
X116738095Y-46958571D01*
X116642857Y-47006190D01*
X116261904Y-47006190D01*
X117785714Y-47482380D02*
X117214285Y-47482380D01*
X117500000Y-47482380D02*
X117500000Y-46482380D01*
X117404761Y-46625238D01*
X117309523Y-46720476D01*
X117214285Y-46768095D01*
X187492380Y-79423333D02*
X188206666Y-79423333D01*
X188349523Y-79470952D01*
X188444761Y-79566190D01*
X188492380Y-79709047D01*
X188492380Y-79804285D01*
X187825714Y-78518571D02*
X188492380Y-78518571D01*
X187444761Y-78756666D02*
X188159047Y-78994761D01*
X188159047Y-78375714D01*
X145778095Y-29312380D02*
X145778095Y-30121904D01*
X145825714Y-30217142D01*
X145873333Y-30264761D01*
X145968571Y-30312380D01*
X146159047Y-30312380D01*
X146254285Y-30264761D01*
X146301904Y-30217142D01*
X146349523Y-30121904D01*
X146349523Y-29312380D01*
X146778095Y-29407619D02*
X146825714Y-29360000D01*
X146920952Y-29312380D01*
X147159047Y-29312380D01*
X147254285Y-29360000D01*
X147301904Y-29407619D01*
X147349523Y-29502857D01*
X147349523Y-29598095D01*
X147301904Y-29740952D01*
X146730476Y-30312380D01*
X147349523Y-30312380D01*
X149667142Y-63306666D02*
X149714761Y-63354285D01*
X149762380Y-63497142D01*
X149762380Y-63592380D01*
X149714761Y-63735238D01*
X149619523Y-63830476D01*
X149524285Y-63878095D01*
X149333809Y-63925714D01*
X149190952Y-63925714D01*
X149000476Y-63878095D01*
X148905238Y-63830476D01*
X148810000Y-63735238D01*
X148762380Y-63592380D01*
X148762380Y-63497142D01*
X148810000Y-63354285D01*
X148857619Y-63306666D01*
X148857619Y-62925714D02*
X148810000Y-62878095D01*
X148762380Y-62782857D01*
X148762380Y-62544761D01*
X148810000Y-62449523D01*
X148857619Y-62401904D01*
X148952857Y-62354285D01*
X149048095Y-62354285D01*
X149190952Y-62401904D01*
X149762380Y-62973333D01*
X149762380Y-62354285D01*
X166673333Y-84557142D02*
X166625714Y-84604761D01*
X166482857Y-84652380D01*
X166387619Y-84652380D01*
X166244761Y-84604761D01*
X166149523Y-84509523D01*
X166101904Y-84414285D01*
X166054285Y-84223809D01*
X166054285Y-84080952D01*
X166101904Y-83890476D01*
X166149523Y-83795238D01*
X166244761Y-83700000D01*
X166387619Y-83652380D01*
X166482857Y-83652380D01*
X166625714Y-83700000D01*
X166673333Y-83747619D01*
X167006666Y-83652380D02*
X167625714Y-83652380D01*
X167292380Y-84033333D01*
X167435238Y-84033333D01*
X167530476Y-84080952D01*
X167578095Y-84128571D01*
X167625714Y-84223809D01*
X167625714Y-84461904D01*
X167578095Y-84557142D01*
X167530476Y-84604761D01*
X167435238Y-84652380D01*
X167149523Y-84652380D01*
X167054285Y-84604761D01*
X167006666Y-84557142D01*
X116638095Y-39502380D02*
X116638095Y-40311904D01*
X116685714Y-40407142D01*
X116733333Y-40454761D01*
X116828571Y-40502380D01*
X117019047Y-40502380D01*
X117114285Y-40454761D01*
X117161904Y-40407142D01*
X117209523Y-40311904D01*
X117209523Y-39502380D01*
X118209523Y-40502380D02*
X117638095Y-40502380D01*
X117923809Y-40502380D02*
X117923809Y-39502380D01*
X117828571Y-39645238D01*
X117733333Y-39740476D01*
X117638095Y-39788095D01*
X160262380Y-98133333D02*
X160976666Y-98133333D01*
X161119523Y-98180952D01*
X161214761Y-98276190D01*
X161262380Y-98419047D01*
X161262380Y-98514285D01*
X160262380Y-97752380D02*
X160262380Y-97133333D01*
X160643333Y-97466666D01*
X160643333Y-97323809D01*
X160690952Y-97228571D01*
X160738571Y-97180952D01*
X160833809Y-97133333D01*
X161071904Y-97133333D01*
X161167142Y-97180952D01*
X161214761Y-97228571D01*
X161262380Y-97323809D01*
X161262380Y-97609523D01*
X161214761Y-97704761D01*
X161167142Y-97752380D01*
X143833333Y-71482380D02*
X143500000Y-71006190D01*
X143261904Y-71482380D02*
X143261904Y-70482380D01*
X143642857Y-70482380D01*
X143738095Y-70530000D01*
X143785714Y-70577619D01*
X143833333Y-70672857D01*
X143833333Y-70815714D01*
X143785714Y-70910952D01*
X143738095Y-70958571D01*
X143642857Y-71006190D01*
X143261904Y-71006190D01*
X144785714Y-71482380D02*
X144214285Y-71482380D01*
X144500000Y-71482380D02*
X144500000Y-70482380D01*
X144404761Y-70625238D01*
X144309523Y-70720476D01*
X144214285Y-70768095D01*
X148642380Y-60913333D02*
X149356666Y-60913333D01*
X149499523Y-60960952D01*
X149594761Y-61056190D01*
X149642380Y-61199047D01*
X149642380Y-61294285D01*
X148642380Y-59960952D02*
X148642380Y-60437142D01*
X149118571Y-60484761D01*
X149070952Y-60437142D01*
X149023333Y-60341904D01*
X149023333Y-60103809D01*
X149070952Y-60008571D01*
X149118571Y-59960952D01*
X149213809Y-59913333D01*
X149451904Y-59913333D01*
X149547142Y-59960952D01*
X149594761Y-60008571D01*
X149642380Y-60103809D01*
X149642380Y-60341904D01*
X149594761Y-60437142D01*
X149547142Y-60484761D01*
X121642380Y-36913333D02*
X122356666Y-36913333D01*
X122499523Y-36960952D01*
X122594761Y-37056190D01*
X122642380Y-37199047D01*
X122642380Y-37294285D01*
X121642380Y-35960952D02*
X121642380Y-36437142D01*
X122118571Y-36484761D01*
X122070952Y-36437142D01*
X122023333Y-36341904D01*
X122023333Y-36103809D01*
X122070952Y-36008571D01*
X122118571Y-35960952D01*
X122213809Y-35913333D01*
X122451904Y-35913333D01*
X122547142Y-35960952D01*
X122594761Y-36008571D01*
X122642380Y-36103809D01*
X122642380Y-36341904D01*
X122594761Y-36437142D01*
X122547142Y-36484761D01*
X160262380Y-50133333D02*
X160976666Y-50133333D01*
X161119523Y-50180952D01*
X161214761Y-50276190D01*
X161262380Y-50419047D01*
X161262380Y-50514285D01*
X160262380Y-49752380D02*
X160262380Y-49133333D01*
X160643333Y-49466666D01*
X160643333Y-49323809D01*
X160690952Y-49228571D01*
X160738571Y-49180952D01*
X160833809Y-49133333D01*
X161071904Y-49133333D01*
X161167142Y-49180952D01*
X161214761Y-49228571D01*
X161262380Y-49323809D01*
X161262380Y-49609523D01*
X161214761Y-49704761D01*
X161167142Y-49752380D01*
X147633333Y-71387142D02*
X147585714Y-71434761D01*
X147442857Y-71482380D01*
X147347619Y-71482380D01*
X147204761Y-71434761D01*
X147109523Y-71339523D01*
X147061904Y-71244285D01*
X147014285Y-71053809D01*
X147014285Y-70910952D01*
X147061904Y-70720476D01*
X147109523Y-70625238D01*
X147204761Y-70530000D01*
X147347619Y-70482380D01*
X147442857Y-70482380D01*
X147585714Y-70530000D01*
X147633333Y-70577619D01*
X148585714Y-71482380D02*
X148014285Y-71482380D01*
X148300000Y-71482380D02*
X148300000Y-70482380D01*
X148204761Y-70625238D01*
X148109523Y-70720476D01*
X148014285Y-70768095D01*
X114203333Y-78317142D02*
X114155714Y-78364761D01*
X114012857Y-78412380D01*
X113917619Y-78412380D01*
X113774761Y-78364761D01*
X113679523Y-78269523D01*
X113631904Y-78174285D01*
X113584285Y-77983809D01*
X113584285Y-77840952D01*
X113631904Y-77650476D01*
X113679523Y-77555238D01*
X113774761Y-77460000D01*
X113917619Y-77412380D01*
X114012857Y-77412380D01*
X114155714Y-77460000D01*
X114203333Y-77507619D01*
X115108095Y-77412380D02*
X114631904Y-77412380D01*
X114584285Y-77888571D01*
X114631904Y-77840952D01*
X114727142Y-77793333D01*
X114965238Y-77793333D01*
X115060476Y-77840952D01*
X115108095Y-77888571D01*
X115155714Y-77983809D01*
X115155714Y-78221904D01*
X115108095Y-78317142D01*
X115060476Y-78364761D01*
X114965238Y-78412380D01*
X114727142Y-78412380D01*
X114631904Y-78364761D01*
X114584285Y-78317142D01*
X150337142Y-54356666D02*
X150384761Y-54404285D01*
X150432380Y-54547142D01*
X150432380Y-54642380D01*
X150384761Y-54785238D01*
X150289523Y-54880476D01*
X150194285Y-54928095D01*
X150003809Y-54975714D01*
X149860952Y-54975714D01*
X149670476Y-54928095D01*
X149575238Y-54880476D01*
X149480000Y-54785238D01*
X149432380Y-54642380D01*
X149432380Y-54547142D01*
X149480000Y-54404285D01*
X149527619Y-54356666D01*
X149432380Y-53499523D02*
X149432380Y-53690000D01*
X149480000Y-53785238D01*
X149527619Y-53832857D01*
X149670476Y-53928095D01*
X149860952Y-53975714D01*
X150241904Y-53975714D01*
X150337142Y-53928095D01*
X150384761Y-53880476D01*
X150432380Y-53785238D01*
X150432380Y-53594761D01*
X150384761Y-53499523D01*
X150337142Y-53451904D01*
X150241904Y-53404285D01*
X150003809Y-53404285D01*
X149908571Y-53451904D01*
X149860952Y-53499523D01*
X149813333Y-53594761D01*
X149813333Y-53785238D01*
X149860952Y-53880476D01*
X149908571Y-53928095D01*
X150003809Y-53975714D01*
X172778095Y-29312380D02*
X172778095Y-30121904D01*
X172825714Y-30217142D01*
X172873333Y-30264761D01*
X172968571Y-30312380D01*
X173159047Y-30312380D01*
X173254285Y-30264761D01*
X173301904Y-30217142D01*
X173349523Y-30121904D01*
X173349523Y-29312380D01*
X173778095Y-29407619D02*
X173825714Y-29360000D01*
X173920952Y-29312380D01*
X174159047Y-29312380D01*
X174254285Y-29360000D01*
X174301904Y-29407619D01*
X174349523Y-29502857D01*
X174349523Y-29598095D01*
X174301904Y-29740952D01*
X173730476Y-30312380D01*
X174349523Y-30312380D01*
X147633333Y-95387142D02*
X147585714Y-95434761D01*
X147442857Y-95482380D01*
X147347619Y-95482380D01*
X147204761Y-95434761D01*
X147109523Y-95339523D01*
X147061904Y-95244285D01*
X147014285Y-95053809D01*
X147014285Y-94910952D01*
X147061904Y-94720476D01*
X147109523Y-94625238D01*
X147204761Y-94530000D01*
X147347619Y-94482380D01*
X147442857Y-94482380D01*
X147585714Y-94530000D01*
X147633333Y-94577619D01*
X148585714Y-95482380D02*
X148014285Y-95482380D01*
X148300000Y-95482380D02*
X148300000Y-94482380D01*
X148204761Y-94625238D01*
X148109523Y-94720476D01*
X148014285Y-94768095D01*
X133252380Y-83033333D02*
X133966666Y-83033333D01*
X134109523Y-83080952D01*
X134204761Y-83176190D01*
X134252380Y-83319047D01*
X134252380Y-83414285D01*
X133347619Y-82604761D02*
X133300000Y-82557142D01*
X133252380Y-82461904D01*
X133252380Y-82223809D01*
X133300000Y-82128571D01*
X133347619Y-82080952D01*
X133442857Y-82033333D01*
X133538095Y-82033333D01*
X133680952Y-82080952D01*
X134252380Y-82652380D01*
X134252380Y-82033333D01*
X175642380Y-36913333D02*
X176356666Y-36913333D01*
X176499523Y-36960952D01*
X176594761Y-37056190D01*
X176642380Y-37199047D01*
X176642380Y-37294285D01*
X175642380Y-35960952D02*
X175642380Y-36437142D01*
X176118571Y-36484761D01*
X176070952Y-36437142D01*
X176023333Y-36341904D01*
X176023333Y-36103809D01*
X176070952Y-36008571D01*
X176118571Y-35960952D01*
X176213809Y-35913333D01*
X176451904Y-35913333D01*
X176547142Y-35960952D01*
X176594761Y-36008571D01*
X176642380Y-36103809D01*
X176642380Y-36341904D01*
X176594761Y-36437142D01*
X176547142Y-36484761D01*
X176667142Y-63306666D02*
X176714761Y-63354285D01*
X176762380Y-63497142D01*
X176762380Y-63592380D01*
X176714761Y-63735238D01*
X176619523Y-63830476D01*
X176524285Y-63878095D01*
X176333809Y-63925714D01*
X176190952Y-63925714D01*
X176000476Y-63878095D01*
X175905238Y-63830476D01*
X175810000Y-63735238D01*
X175762380Y-63592380D01*
X175762380Y-63497142D01*
X175810000Y-63354285D01*
X175857619Y-63306666D01*
X175857619Y-62925714D02*
X175810000Y-62878095D01*
X175762380Y-62782857D01*
X175762380Y-62544761D01*
X175810000Y-62449523D01*
X175857619Y-62401904D01*
X175952857Y-62354285D01*
X176048095Y-62354285D01*
X176190952Y-62401904D01*
X176762380Y-62973333D01*
X176762380Y-62354285D01*
X166673333Y-36557142D02*
X166625714Y-36604761D01*
X166482857Y-36652380D01*
X166387619Y-36652380D01*
X166244761Y-36604761D01*
X166149523Y-36509523D01*
X166101904Y-36414285D01*
X166054285Y-36223809D01*
X166054285Y-36080952D01*
X166101904Y-35890476D01*
X166149523Y-35795238D01*
X166244761Y-35700000D01*
X166387619Y-35652380D01*
X166482857Y-35652380D01*
X166625714Y-35700000D01*
X166673333Y-35747619D01*
X167006666Y-35652380D02*
X167625714Y-35652380D01*
X167292380Y-36033333D01*
X167435238Y-36033333D01*
X167530476Y-36080952D01*
X167578095Y-36128571D01*
X167625714Y-36223809D01*
X167625714Y-36461904D01*
X167578095Y-36557142D01*
X167530476Y-36604761D01*
X167435238Y-36652380D01*
X167149523Y-36652380D01*
X167054285Y-36604761D01*
X167006666Y-36557142D01*
X123337142Y-78356666D02*
X123384761Y-78404285D01*
X123432380Y-78547142D01*
X123432380Y-78642380D01*
X123384761Y-78785238D01*
X123289523Y-78880476D01*
X123194285Y-78928095D01*
X123003809Y-78975714D01*
X122860952Y-78975714D01*
X122670476Y-78928095D01*
X122575238Y-78880476D01*
X122480000Y-78785238D01*
X122432380Y-78642380D01*
X122432380Y-78547142D01*
X122480000Y-78404285D01*
X122527619Y-78356666D01*
X122432380Y-77499523D02*
X122432380Y-77690000D01*
X122480000Y-77785238D01*
X122527619Y-77832857D01*
X122670476Y-77928095D01*
X122860952Y-77975714D01*
X123241904Y-77975714D01*
X123337142Y-77928095D01*
X123384761Y-77880476D01*
X123432380Y-77785238D01*
X123432380Y-77594761D01*
X123384761Y-77499523D01*
X123337142Y-77451904D01*
X123241904Y-77404285D01*
X123003809Y-77404285D01*
X122908571Y-77451904D01*
X122860952Y-77499523D01*
X122813333Y-77594761D01*
X122813333Y-77785238D01*
X122860952Y-77880476D01*
X122908571Y-77928095D01*
X123003809Y-77975714D01*
X151733333Y-63822380D02*
X151400000Y-63346190D01*
X151161904Y-63822380D02*
X151161904Y-62822380D01*
X151542857Y-62822380D01*
X151638095Y-62870000D01*
X151685714Y-62917619D01*
X151733333Y-63012857D01*
X151733333Y-63155714D01*
X151685714Y-63250952D01*
X151638095Y-63298571D01*
X151542857Y-63346190D01*
X151161904Y-63346190D01*
X152066666Y-62822380D02*
X152685714Y-62822380D01*
X152352380Y-63203333D01*
X152495238Y-63203333D01*
X152590476Y-63250952D01*
X152638095Y-63298571D01*
X152685714Y-63393809D01*
X152685714Y-63631904D01*
X152638095Y-63727142D01*
X152590476Y-63774761D01*
X152495238Y-63822380D01*
X152209523Y-63822380D01*
X152114285Y-63774761D01*
X152066666Y-63727142D01*
X160262380Y-74133333D02*
X160976666Y-74133333D01*
X161119523Y-74180952D01*
X161214761Y-74276190D01*
X161262380Y-74419047D01*
X161262380Y-74514285D01*
X160262380Y-73752380D02*
X160262380Y-73133333D01*
X160643333Y-73466666D01*
X160643333Y-73323809D01*
X160690952Y-73228571D01*
X160738571Y-73180952D01*
X160833809Y-73133333D01*
X161071904Y-73133333D01*
X161167142Y-73180952D01*
X161214761Y-73228571D01*
X161262380Y-73323809D01*
X161262380Y-73609523D01*
X161214761Y-73704761D01*
X161167142Y-73752380D01*
X166673333Y-60557142D02*
X166625714Y-60604761D01*
X166482857Y-60652380D01*
X166387619Y-60652380D01*
X166244761Y-60604761D01*
X166149523Y-60509523D01*
X166101904Y-60414285D01*
X166054285Y-60223809D01*
X166054285Y-60080952D01*
X166101904Y-59890476D01*
X166149523Y-59795238D01*
X166244761Y-59700000D01*
X166387619Y-59652380D01*
X166482857Y-59652380D01*
X166625714Y-59700000D01*
X166673333Y-59747619D01*
X167006666Y-59652380D02*
X167625714Y-59652380D01*
X167292380Y-60033333D01*
X167435238Y-60033333D01*
X167530476Y-60080952D01*
X167578095Y-60128571D01*
X167625714Y-60223809D01*
X167625714Y-60461904D01*
X167578095Y-60557142D01*
X167530476Y-60604761D01*
X167435238Y-60652380D01*
X167149523Y-60652380D01*
X167054285Y-60604761D01*
X167006666Y-60557142D01*
X121642380Y-84913333D02*
X122356666Y-84913333D01*
X122499523Y-84960952D01*
X122594761Y-85056190D01*
X122642380Y-85199047D01*
X122642380Y-85294285D01*
X121642380Y-83960952D02*
X121642380Y-84437142D01*
X122118571Y-84484761D01*
X122070952Y-84437142D01*
X122023333Y-84341904D01*
X122023333Y-84103809D01*
X122070952Y-84008571D01*
X122118571Y-83960952D01*
X122213809Y-83913333D01*
X122451904Y-83913333D01*
X122547142Y-83960952D01*
X122594761Y-84008571D01*
X122642380Y-84103809D01*
X122642380Y-84341904D01*
X122594761Y-84437142D01*
X122547142Y-84484761D01*
X148642380Y-84913333D02*
X149356666Y-84913333D01*
X149499523Y-84960952D01*
X149594761Y-85056190D01*
X149642380Y-85199047D01*
X149642380Y-85294285D01*
X148642380Y-83960952D02*
X148642380Y-84437142D01*
X149118571Y-84484761D01*
X149070952Y-84437142D01*
X149023333Y-84341904D01*
X149023333Y-84103809D01*
X149070952Y-84008571D01*
X149118571Y-83960952D01*
X149213809Y-83913333D01*
X149451904Y-83913333D01*
X149547142Y-83960952D01*
X149594761Y-84008571D01*
X149642380Y-84103809D01*
X149642380Y-84341904D01*
X149594761Y-84437142D01*
X149547142Y-84484761D01*
X178733333Y-92852380D02*
X178400000Y-92376190D01*
X178161904Y-92852380D02*
X178161904Y-91852380D01*
X178542857Y-91852380D01*
X178638095Y-91900000D01*
X178685714Y-91947619D01*
X178733333Y-92042857D01*
X178733333Y-92185714D01*
X178685714Y-92280952D01*
X178638095Y-92328571D01*
X178542857Y-92376190D01*
X178161904Y-92376190D01*
X179590476Y-92185714D02*
X179590476Y-92852380D01*
X179352380Y-91804761D02*
X179114285Y-92519047D01*
X179733333Y-92519047D01*
X185952380Y-89766666D02*
X185476190Y-90100000D01*
X185952380Y-90338095D02*
X184952380Y-90338095D01*
X184952380Y-89957142D01*
X185000000Y-89861904D01*
X185047619Y-89814285D01*
X185142857Y-89766666D01*
X185285714Y-89766666D01*
X185380952Y-89814285D01*
X185428571Y-89861904D01*
X185476190Y-89957142D01*
X185476190Y-90338095D01*
X185047619Y-89385714D02*
X185000000Y-89338095D01*
X184952380Y-89242857D01*
X184952380Y-89004761D01*
X185000000Y-88909523D01*
X185047619Y-88861904D01*
X185142857Y-88814285D01*
X185238095Y-88814285D01*
X185380952Y-88861904D01*
X185952380Y-89433333D01*
X185952380Y-88814285D01*
X170833333Y-95482380D02*
X170500000Y-95006190D01*
X170261904Y-95482380D02*
X170261904Y-94482380D01*
X170642857Y-94482380D01*
X170738095Y-94530000D01*
X170785714Y-94577619D01*
X170833333Y-94672857D01*
X170833333Y-94815714D01*
X170785714Y-94910952D01*
X170738095Y-94958571D01*
X170642857Y-95006190D01*
X170261904Y-95006190D01*
X171785714Y-95482380D02*
X171214285Y-95482380D01*
X171500000Y-95482380D02*
X171500000Y-94482380D01*
X171404761Y-94625238D01*
X171309523Y-94720476D01*
X171214285Y-94768095D01*
X185952380Y-65766666D02*
X185476190Y-66100000D01*
X185952380Y-66338095D02*
X184952380Y-66338095D01*
X184952380Y-65957142D01*
X185000000Y-65861904D01*
X185047619Y-65814285D01*
X185142857Y-65766666D01*
X185285714Y-65766666D01*
X185380952Y-65814285D01*
X185428571Y-65861904D01*
X185476190Y-65957142D01*
X185476190Y-66338095D01*
X185047619Y-65385714D02*
X185000000Y-65338095D01*
X184952380Y-65242857D01*
X184952380Y-65004761D01*
X185000000Y-64909523D01*
X185047619Y-64861904D01*
X185142857Y-64814285D01*
X185238095Y-64814285D01*
X185380952Y-64861904D01*
X185952380Y-65433333D01*
X185952380Y-64814285D01*
X172778095Y-77312380D02*
X172778095Y-78121904D01*
X172825714Y-78217142D01*
X172873333Y-78264761D01*
X172968571Y-78312380D01*
X173159047Y-78312380D01*
X173254285Y-78264761D01*
X173301904Y-78217142D01*
X173349523Y-78121904D01*
X173349523Y-77312380D01*
X173778095Y-77407619D02*
X173825714Y-77360000D01*
X173920952Y-77312380D01*
X174159047Y-77312380D01*
X174254285Y-77360000D01*
X174301904Y-77407619D01*
X174349523Y-77502857D01*
X174349523Y-77598095D01*
X174301904Y-77740952D01*
X173730476Y-78312380D01*
X174349523Y-78312380D01*
X175642380Y-60913333D02*
X176356666Y-60913333D01*
X176499523Y-60960952D01*
X176594761Y-61056190D01*
X176642380Y-61199047D01*
X176642380Y-61294285D01*
X175642380Y-59960952D02*
X175642380Y-60437142D01*
X176118571Y-60484761D01*
X176070952Y-60437142D01*
X176023333Y-60341904D01*
X176023333Y-60103809D01*
X176070952Y-60008571D01*
X176118571Y-59960952D01*
X176213809Y-59913333D01*
X176451904Y-59913333D01*
X176547142Y-59960952D01*
X176594761Y-60008571D01*
X176642380Y-60103809D01*
X176642380Y-60341904D01*
X176594761Y-60437142D01*
X176547142Y-60484761D01*
X124733333Y-63822380D02*
X124400000Y-63346190D01*
X124161904Y-63822380D02*
X124161904Y-62822380D01*
X124542857Y-62822380D01*
X124638095Y-62870000D01*
X124685714Y-62917619D01*
X124733333Y-63012857D01*
X124733333Y-63155714D01*
X124685714Y-63250952D01*
X124638095Y-63298571D01*
X124542857Y-63346190D01*
X124161904Y-63346190D01*
X125066666Y-62822380D02*
X125685714Y-62822380D01*
X125352380Y-63203333D01*
X125495238Y-63203333D01*
X125590476Y-63250952D01*
X125638095Y-63298571D01*
X125685714Y-63393809D01*
X125685714Y-63631904D01*
X125638095Y-63727142D01*
X125590476Y-63774761D01*
X125495238Y-63822380D01*
X125209523Y-63822380D01*
X125114285Y-63774761D01*
X125066666Y-63727142D01*
X131952380Y-89766666D02*
X131476190Y-90100000D01*
X131952380Y-90338095D02*
X130952380Y-90338095D01*
X130952380Y-89957142D01*
X131000000Y-89861904D01*
X131047619Y-89814285D01*
X131142857Y-89766666D01*
X131285714Y-89766666D01*
X131380952Y-89814285D01*
X131428571Y-89861904D01*
X131476190Y-89957142D01*
X131476190Y-90338095D01*
X131047619Y-89385714D02*
X131000000Y-89338095D01*
X130952380Y-89242857D01*
X130952380Y-89004761D01*
X131000000Y-88909523D01*
X131047619Y-88861904D01*
X131142857Y-88814285D01*
X131238095Y-88814285D01*
X131380952Y-88861904D01*
X131952380Y-89433333D01*
X131952380Y-88814285D01*
X151733333Y-92852380D02*
X151400000Y-92376190D01*
X151161904Y-92852380D02*
X151161904Y-91852380D01*
X151542857Y-91852380D01*
X151638095Y-91900000D01*
X151685714Y-91947619D01*
X151733333Y-92042857D01*
X151733333Y-92185714D01*
X151685714Y-92280952D01*
X151638095Y-92328571D01*
X151542857Y-92376190D01*
X151161904Y-92376190D01*
X152590476Y-92185714D02*
X152590476Y-92852380D01*
X152352380Y-91804761D02*
X152114285Y-92519047D01*
X152733333Y-92519047D01*
X120633333Y-47387142D02*
X120585714Y-47434761D01*
X120442857Y-47482380D01*
X120347619Y-47482380D01*
X120204761Y-47434761D01*
X120109523Y-47339523D01*
X120061904Y-47244285D01*
X120014285Y-47053809D01*
X120014285Y-46910952D01*
X120061904Y-46720476D01*
X120109523Y-46625238D01*
X120204761Y-46530000D01*
X120347619Y-46482380D01*
X120442857Y-46482380D01*
X120585714Y-46530000D01*
X120633333Y-46577619D01*
X121585714Y-47482380D02*
X121014285Y-47482380D01*
X121300000Y-47482380D02*
X121300000Y-46482380D01*
X121204761Y-46625238D01*
X121109523Y-46720476D01*
X121014285Y-46768095D01*
X143638095Y-63502380D02*
X143638095Y-64311904D01*
X143685714Y-64407142D01*
X143733333Y-64454761D01*
X143828571Y-64502380D01*
X144019047Y-64502380D01*
X144114285Y-64454761D01*
X144161904Y-64407142D01*
X144209523Y-64311904D01*
X144209523Y-63502380D01*
X145209523Y-64502380D02*
X144638095Y-64502380D01*
X144923809Y-64502380D02*
X144923809Y-63502380D01*
X144828571Y-63645238D01*
X144733333Y-63740476D01*
X144638095Y-63788095D01*
X174633333Y-47387142D02*
X174585714Y-47434761D01*
X174442857Y-47482380D01*
X174347619Y-47482380D01*
X174204761Y-47434761D01*
X174109523Y-47339523D01*
X174061904Y-47244285D01*
X174014285Y-47053809D01*
X174014285Y-46910952D01*
X174061904Y-46720476D01*
X174109523Y-46625238D01*
X174204761Y-46530000D01*
X174347619Y-46482380D01*
X174442857Y-46482380D01*
X174585714Y-46530000D01*
X174633333Y-46577619D01*
X175585714Y-47482380D02*
X175014285Y-47482380D01*
X175300000Y-47482380D02*
X175300000Y-46482380D01*
X175204761Y-46625238D01*
X175109523Y-46720476D01*
X175014285Y-46768095D01*
X170833333Y-71482380D02*
X170500000Y-71006190D01*
X170261904Y-71482380D02*
X170261904Y-70482380D01*
X170642857Y-70482380D01*
X170738095Y-70530000D01*
X170785714Y-70577619D01*
X170833333Y-70672857D01*
X170833333Y-70815714D01*
X170785714Y-70910952D01*
X170738095Y-70958571D01*
X170642857Y-71006190D01*
X170261904Y-71006190D01*
X171785714Y-71482380D02*
X171214285Y-71482380D01*
X171500000Y-71482380D02*
X171500000Y-70482380D01*
X171404761Y-70625238D01*
X171309523Y-70720476D01*
X171214285Y-70768095D01*
X169843333Y-62617142D02*
X169795714Y-62664761D01*
X169652857Y-62712380D01*
X169557619Y-62712380D01*
X169414761Y-62664761D01*
X169319523Y-62569523D01*
X169271904Y-62474285D01*
X169224285Y-62283809D01*
X169224285Y-62140952D01*
X169271904Y-61950476D01*
X169319523Y-61855238D01*
X169414761Y-61760000D01*
X169557619Y-61712380D01*
X169652857Y-61712380D01*
X169795714Y-61760000D01*
X169843333Y-61807619D01*
X170700476Y-62045714D02*
X170700476Y-62712380D01*
X170462380Y-61664761D02*
X170224285Y-62379047D01*
X170843333Y-62379047D01*
X187262380Y-50133333D02*
X187976666Y-50133333D01*
X188119523Y-50180952D01*
X188214761Y-50276190D01*
X188262380Y-50419047D01*
X188262380Y-50514285D01*
X187262380Y-49752380D02*
X187262380Y-49133333D01*
X187643333Y-49466666D01*
X187643333Y-49323809D01*
X187690952Y-49228571D01*
X187738571Y-49180952D01*
X187833809Y-49133333D01*
X188071904Y-49133333D01*
X188167142Y-49180952D01*
X188214761Y-49228571D01*
X188262380Y-49323809D01*
X188262380Y-49609523D01*
X188214761Y-49704761D01*
X188167142Y-49752380D01*
X177337142Y-78356666D02*
X177384761Y-78404285D01*
X177432380Y-78547142D01*
X177432380Y-78642380D01*
X177384761Y-78785238D01*
X177289523Y-78880476D01*
X177194285Y-78928095D01*
X177003809Y-78975714D01*
X176860952Y-78975714D01*
X176670476Y-78928095D01*
X176575238Y-78880476D01*
X176480000Y-78785238D01*
X176432380Y-78642380D01*
X176432380Y-78547142D01*
X176480000Y-78404285D01*
X176527619Y-78356666D01*
X176432380Y-77499523D02*
X176432380Y-77690000D01*
X176480000Y-77785238D01*
X176527619Y-77832857D01*
X176670476Y-77928095D01*
X176860952Y-77975714D01*
X177241904Y-77975714D01*
X177337142Y-77928095D01*
X177384761Y-77880476D01*
X177432380Y-77785238D01*
X177432380Y-77594761D01*
X177384761Y-77499523D01*
X177337142Y-77451904D01*
X177241904Y-77404285D01*
X177003809Y-77404285D01*
X176908571Y-77451904D01*
X176860952Y-77499523D01*
X176813333Y-77594761D01*
X176813333Y-77785238D01*
X176860952Y-77880476D01*
X176908571Y-77928095D01*
X177003809Y-77975714D01*
X175642380Y-84913333D02*
X176356666Y-84913333D01*
X176499523Y-84960952D01*
X176594761Y-85056190D01*
X176642380Y-85199047D01*
X176642380Y-85294285D01*
X175642380Y-83960952D02*
X175642380Y-84437142D01*
X176118571Y-84484761D01*
X176070952Y-84437142D01*
X176023333Y-84341904D01*
X176023333Y-84103809D01*
X176070952Y-84008571D01*
X176118571Y-83960952D01*
X176213809Y-83913333D01*
X176451904Y-83913333D01*
X176547142Y-83960952D01*
X176594761Y-84008571D01*
X176642380Y-84103809D01*
X176642380Y-84341904D01*
X176594761Y-84437142D01*
X176547142Y-84484761D01*
X170638095Y-39502380D02*
X170638095Y-40311904D01*
X170685714Y-40407142D01*
X170733333Y-40454761D01*
X170828571Y-40502380D01*
X171019047Y-40502380D01*
X171114285Y-40454761D01*
X171161904Y-40407142D01*
X171209523Y-40311904D01*
X171209523Y-39502380D01*
X172209523Y-40502380D02*
X171638095Y-40502380D01*
X171923809Y-40502380D02*
X171923809Y-39502380D01*
X171828571Y-39645238D01*
X171733333Y-39740476D01*
X171638095Y-39788095D01*
X151733333Y-68852380D02*
X151400000Y-68376190D01*
X151161904Y-68852380D02*
X151161904Y-67852380D01*
X151542857Y-67852380D01*
X151638095Y-67900000D01*
X151685714Y-67947619D01*
X151733333Y-68042857D01*
X151733333Y-68185714D01*
X151685714Y-68280952D01*
X151638095Y-68328571D01*
X151542857Y-68376190D01*
X151161904Y-68376190D01*
X152590476Y-68185714D02*
X152590476Y-68852380D01*
X152352380Y-67804761D02*
X152114285Y-68519047D01*
X152733333Y-68519047D01*
X168203333Y-54317142D02*
X168155714Y-54364761D01*
X168012857Y-54412380D01*
X167917619Y-54412380D01*
X167774761Y-54364761D01*
X167679523Y-54269523D01*
X167631904Y-54174285D01*
X167584285Y-53983809D01*
X167584285Y-53840952D01*
X167631904Y-53650476D01*
X167679523Y-53555238D01*
X167774761Y-53460000D01*
X167917619Y-53412380D01*
X168012857Y-53412380D01*
X168155714Y-53460000D01*
X168203333Y-53507619D01*
X169108095Y-53412380D02*
X168631904Y-53412380D01*
X168584285Y-53888571D01*
X168631904Y-53840952D01*
X168727142Y-53793333D01*
X168965238Y-53793333D01*
X169060476Y-53840952D01*
X169108095Y-53888571D01*
X169155714Y-53983809D01*
X169155714Y-54221904D01*
X169108095Y-54317142D01*
X169060476Y-54364761D01*
X168965238Y-54412380D01*
X168727142Y-54412380D01*
X168631904Y-54364761D01*
X168584285Y-54317142D01*
X121642380Y-60913333D02*
X122356666Y-60913333D01*
X122499523Y-60960952D01*
X122594761Y-61056190D01*
X122642380Y-61199047D01*
X122642380Y-61294285D01*
X121642380Y-59960952D02*
X121642380Y-60437142D01*
X122118571Y-60484761D01*
X122070952Y-60437142D01*
X122023333Y-60341904D01*
X122023333Y-60103809D01*
X122070952Y-60008571D01*
X122118571Y-59960952D01*
X122213809Y-59913333D01*
X122451904Y-59913333D01*
X122547142Y-59960952D01*
X122594761Y-60008571D01*
X122642380Y-60103809D01*
X122642380Y-60341904D01*
X122594761Y-60437142D01*
X122547142Y-60484761D01*
X120633333Y-95387142D02*
X120585714Y-95434761D01*
X120442857Y-95482380D01*
X120347619Y-95482380D01*
X120204761Y-95434761D01*
X120109523Y-95339523D01*
X120061904Y-95244285D01*
X120014285Y-95053809D01*
X120014285Y-94910952D01*
X120061904Y-94720476D01*
X120109523Y-94625238D01*
X120204761Y-94530000D01*
X120347619Y-94482380D01*
X120442857Y-94482380D01*
X120585714Y-94530000D01*
X120633333Y-94577619D01*
X121585714Y-95482380D02*
X121014285Y-95482380D01*
X121300000Y-95482380D02*
X121300000Y-94482380D01*
X121204761Y-94625238D01*
X121109523Y-94720476D01*
X121014285Y-94768095D01*
X118778095Y-53312380D02*
X118778095Y-54121904D01*
X118825714Y-54217142D01*
X118873333Y-54264761D01*
X118968571Y-54312380D01*
X119159047Y-54312380D01*
X119254285Y-54264761D01*
X119301904Y-54217142D01*
X119349523Y-54121904D01*
X119349523Y-53312380D01*
X119778095Y-53407619D02*
X119825714Y-53360000D01*
X119920952Y-53312380D01*
X120159047Y-53312380D01*
X120254285Y-53360000D01*
X120301904Y-53407619D01*
X120349523Y-53502857D01*
X120349523Y-53598095D01*
X120301904Y-53740952D01*
X119730476Y-54312380D01*
X120349523Y-54312380D01*
X187252380Y-35033333D02*
X187966666Y-35033333D01*
X188109523Y-35080952D01*
X188204761Y-35176190D01*
X188252380Y-35319047D01*
X188252380Y-35414285D01*
X187347619Y-34604761D02*
X187300000Y-34557142D01*
X187252380Y-34461904D01*
X187252380Y-34223809D01*
X187300000Y-34128571D01*
X187347619Y-34080952D01*
X187442857Y-34033333D01*
X187538095Y-34033333D01*
X187680952Y-34080952D01*
X188252380Y-34652380D01*
X188252380Y-34033333D01*
X133492380Y-55423333D02*
X134206666Y-55423333D01*
X134349523Y-55470952D01*
X134444761Y-55566190D01*
X134492380Y-55709047D01*
X134492380Y-55804285D01*
X133825714Y-54518571D02*
X134492380Y-54518571D01*
X133444761Y-54756666D02*
X134159047Y-54994761D01*
X134159047Y-54375714D01*
X118778095Y-29312380D02*
X118778095Y-30121904D01*
X118825714Y-30217142D01*
X118873333Y-30264761D01*
X118968571Y-30312380D01*
X119159047Y-30312380D01*
X119254285Y-30264761D01*
X119301904Y-30217142D01*
X119349523Y-30121904D01*
X119349523Y-29312380D01*
X119778095Y-29407619D02*
X119825714Y-29360000D01*
X119920952Y-29312380D01*
X120159047Y-29312380D01*
X120254285Y-29360000D01*
X120301904Y-29407619D01*
X120349523Y-29502857D01*
X120349523Y-29598095D01*
X120301904Y-29740952D01*
X119730476Y-30312380D01*
X120349523Y-30312380D01*
X122667142Y-39306666D02*
X122714761Y-39354285D01*
X122762380Y-39497142D01*
X122762380Y-39592380D01*
X122714761Y-39735238D01*
X122619523Y-39830476D01*
X122524285Y-39878095D01*
X122333809Y-39925714D01*
X122190952Y-39925714D01*
X122000476Y-39878095D01*
X121905238Y-39830476D01*
X121810000Y-39735238D01*
X121762380Y-39592380D01*
X121762380Y-39497142D01*
X121810000Y-39354285D01*
X121857619Y-39306666D01*
X121857619Y-38925714D02*
X121810000Y-38878095D01*
X121762380Y-38782857D01*
X121762380Y-38544761D01*
X121810000Y-38449523D01*
X121857619Y-38401904D01*
X121952857Y-38354285D01*
X122048095Y-38354285D01*
X122190952Y-38401904D01*
X122762380Y-38973333D01*
X122762380Y-38354285D01*
X133492380Y-31423333D02*
X134206666Y-31423333D01*
X134349523Y-31470952D01*
X134444761Y-31566190D01*
X134492380Y-31709047D01*
X134492380Y-31804285D01*
X133825714Y-30518571D02*
X134492380Y-30518571D01*
X133444761Y-30756666D02*
X134159047Y-30994761D01*
X134159047Y-30375714D01*
X151733333Y-87822380D02*
X151400000Y-87346190D01*
X151161904Y-87822380D02*
X151161904Y-86822380D01*
X151542857Y-86822380D01*
X151638095Y-86870000D01*
X151685714Y-86917619D01*
X151733333Y-87012857D01*
X151733333Y-87155714D01*
X151685714Y-87250952D01*
X151638095Y-87298571D01*
X151542857Y-87346190D01*
X151161904Y-87346190D01*
X152066666Y-86822380D02*
X152685714Y-86822380D01*
X152352380Y-87203333D01*
X152495238Y-87203333D01*
X152590476Y-87250952D01*
X152638095Y-87298571D01*
X152685714Y-87393809D01*
X152685714Y-87631904D01*
X152638095Y-87727142D01*
X152590476Y-87774761D01*
X152495238Y-87822380D01*
X152209523Y-87822380D01*
X152114285Y-87774761D01*
X152066666Y-87727142D01*
X136956666Y-53332380D02*
X136956666Y-54046666D01*
X136909047Y-54189523D01*
X136813809Y-54284761D01*
X136670952Y-54332380D01*
X136575714Y-54332380D01*
X137956666Y-54332380D02*
X137385238Y-54332380D01*
X137670952Y-54332380D02*
X137670952Y-53332380D01*
X137575714Y-53475238D01*
X137480476Y-53570476D01*
X137385238Y-53618095D01*
X141203333Y-54317142D02*
X141155714Y-54364761D01*
X141012857Y-54412380D01*
X140917619Y-54412380D01*
X140774761Y-54364761D01*
X140679523Y-54269523D01*
X140631904Y-54174285D01*
X140584285Y-53983809D01*
X140584285Y-53840952D01*
X140631904Y-53650476D01*
X140679523Y-53555238D01*
X140774761Y-53460000D01*
X140917619Y-53412380D01*
X141012857Y-53412380D01*
X141155714Y-53460000D01*
X141203333Y-53507619D01*
X142108095Y-53412380D02*
X141631904Y-53412380D01*
X141584285Y-53888571D01*
X141631904Y-53840952D01*
X141727142Y-53793333D01*
X141965238Y-53793333D01*
X142060476Y-53840952D01*
X142108095Y-53888571D01*
X142155714Y-53983809D01*
X142155714Y-54221904D01*
X142108095Y-54317142D01*
X142060476Y-54364761D01*
X141965238Y-54412380D01*
X141727142Y-54412380D01*
X141631904Y-54364761D01*
X141584285Y-54317142D01*
X160492380Y-31423333D02*
X161206666Y-31423333D01*
X161349523Y-31470952D01*
X161444761Y-31566190D01*
X161492380Y-31709047D01*
X161492380Y-31804285D01*
X160825714Y-30518571D02*
X161492380Y-30518571D01*
X160444761Y-30756666D02*
X161159047Y-30994761D01*
X161159047Y-30375714D01*
X174633333Y-71387142D02*
X174585714Y-71434761D01*
X174442857Y-71482380D01*
X174347619Y-71482380D01*
X174204761Y-71434761D01*
X174109523Y-71339523D01*
X174061904Y-71244285D01*
X174014285Y-71053809D01*
X174014285Y-70910952D01*
X174061904Y-70720476D01*
X174109523Y-70625238D01*
X174204761Y-70530000D01*
X174347619Y-70482380D01*
X174442857Y-70482380D01*
X174585714Y-70530000D01*
X174633333Y-70577619D01*
X175585714Y-71482380D02*
X175014285Y-71482380D01*
X175300000Y-71482380D02*
X175300000Y-70482380D01*
X175204761Y-70625238D01*
X175109523Y-70720476D01*
X175014285Y-70768095D01*
X174633333Y-95387142D02*
X174585714Y-95434761D01*
X174442857Y-95482380D01*
X174347619Y-95482380D01*
X174204761Y-95434761D01*
X174109523Y-95339523D01*
X174061904Y-95244285D01*
X174014285Y-95053809D01*
X174014285Y-94910952D01*
X174061904Y-94720476D01*
X174109523Y-94625238D01*
X174204761Y-94530000D01*
X174347619Y-94482380D01*
X174442857Y-94482380D01*
X174585714Y-94530000D01*
X174633333Y-94577619D01*
X175585714Y-95482380D02*
X175014285Y-95482380D01*
X175300000Y-95482380D02*
X175300000Y-94482380D01*
X175204761Y-94625238D01*
X175109523Y-94720476D01*
X175014285Y-94768095D01*
X114203333Y-54317142D02*
X114155714Y-54364761D01*
X114012857Y-54412380D01*
X113917619Y-54412380D01*
X113774761Y-54364761D01*
X113679523Y-54269523D01*
X113631904Y-54174285D01*
X113584285Y-53983809D01*
X113584285Y-53840952D01*
X113631904Y-53650476D01*
X113679523Y-53555238D01*
X113774761Y-53460000D01*
X113917619Y-53412380D01*
X114012857Y-53412380D01*
X114155714Y-53460000D01*
X114203333Y-53507619D01*
X115108095Y-53412380D02*
X114631904Y-53412380D01*
X114584285Y-53888571D01*
X114631904Y-53840952D01*
X114727142Y-53793333D01*
X114965238Y-53793333D01*
X115060476Y-53840952D01*
X115108095Y-53888571D01*
X115155714Y-53983809D01*
X115155714Y-54221904D01*
X115108095Y-54317142D01*
X115060476Y-54364761D01*
X114965238Y-54412380D01*
X114727142Y-54412380D01*
X114631904Y-54364761D01*
X114584285Y-54317142D01*
X124733333Y-68852380D02*
X124400000Y-68376190D01*
X124161904Y-68852380D02*
X124161904Y-67852380D01*
X124542857Y-67852380D01*
X124638095Y-67900000D01*
X124685714Y-67947619D01*
X124733333Y-68042857D01*
X124733333Y-68185714D01*
X124685714Y-68280952D01*
X124638095Y-68328571D01*
X124542857Y-68376190D01*
X124161904Y-68376190D01*
X125590476Y-68185714D02*
X125590476Y-68852380D01*
X125352380Y-67804761D02*
X125114285Y-68519047D01*
X125733333Y-68519047D01*
X118778095Y-77312380D02*
X118778095Y-78121904D01*
X118825714Y-78217142D01*
X118873333Y-78264761D01*
X118968571Y-78312380D01*
X119159047Y-78312380D01*
X119254285Y-78264761D01*
X119301904Y-78217142D01*
X119349523Y-78121904D01*
X119349523Y-77312380D01*
X119778095Y-77407619D02*
X119825714Y-77360000D01*
X119920952Y-77312380D01*
X120159047Y-77312380D01*
X120254285Y-77360000D01*
X120301904Y-77407619D01*
X120349523Y-77502857D01*
X120349523Y-77598095D01*
X120301904Y-77740952D01*
X119730476Y-78312380D01*
X120349523Y-78312380D01*
X133262380Y-74133333D02*
X133976666Y-74133333D01*
X134119523Y-74180952D01*
X134214761Y-74276190D01*
X134262380Y-74419047D01*
X134262380Y-74514285D01*
X133262380Y-73752380D02*
X133262380Y-73133333D01*
X133643333Y-73466666D01*
X133643333Y-73323809D01*
X133690952Y-73228571D01*
X133738571Y-73180952D01*
X133833809Y-73133333D01*
X134071904Y-73133333D01*
X134167142Y-73180952D01*
X134214761Y-73228571D01*
X134262380Y-73323809D01*
X134262380Y-73609523D01*
X134214761Y-73704761D01*
X134167142Y-73752380D01*
X178733333Y-39822380D02*
X178400000Y-39346190D01*
X178161904Y-39822380D02*
X178161904Y-38822380D01*
X178542857Y-38822380D01*
X178638095Y-38870000D01*
X178685714Y-38917619D01*
X178733333Y-39012857D01*
X178733333Y-39155714D01*
X178685714Y-39250952D01*
X178638095Y-39298571D01*
X178542857Y-39346190D01*
X178161904Y-39346190D01*
X179066666Y-38822380D02*
X179685714Y-38822380D01*
X179352380Y-39203333D01*
X179495238Y-39203333D01*
X179590476Y-39250952D01*
X179638095Y-39298571D01*
X179685714Y-39393809D01*
X179685714Y-39631904D01*
X179638095Y-39727142D01*
X179590476Y-39774761D01*
X179495238Y-39822380D01*
X179209523Y-39822380D01*
X179114285Y-39774761D01*
X179066666Y-39727142D01*
X160252380Y-83033333D02*
X160966666Y-83033333D01*
X161109523Y-83080952D01*
X161204761Y-83176190D01*
X161252380Y-83319047D01*
X161252380Y-83414285D01*
X160347619Y-82604761D02*
X160300000Y-82557142D01*
X160252380Y-82461904D01*
X160252380Y-82223809D01*
X160300000Y-82128571D01*
X160347619Y-82080952D01*
X160442857Y-82033333D01*
X160538095Y-82033333D01*
X160680952Y-82080952D01*
X161252380Y-82652380D01*
X161252380Y-82033333D01*
X145778095Y-77312380D02*
X145778095Y-78121904D01*
X145825714Y-78217142D01*
X145873333Y-78264761D01*
X145968571Y-78312380D01*
X146159047Y-78312380D01*
X146254285Y-78264761D01*
X146301904Y-78217142D01*
X146349523Y-78121904D01*
X146349523Y-77312380D01*
X146778095Y-77407619D02*
X146825714Y-77360000D01*
X146920952Y-77312380D01*
X147159047Y-77312380D01*
X147254285Y-77360000D01*
X147301904Y-77407619D01*
X147349523Y-77502857D01*
X147349523Y-77598095D01*
X147301904Y-77740952D01*
X146730476Y-78312380D01*
X147349523Y-78312380D01*
X143833333Y-95482380D02*
X143500000Y-95006190D01*
X143261904Y-95482380D02*
X143261904Y-94482380D01*
X143642857Y-94482380D01*
X143738095Y-94530000D01*
X143785714Y-94577619D01*
X143833333Y-94672857D01*
X143833333Y-94815714D01*
X143785714Y-94910952D01*
X143738095Y-94958571D01*
X143642857Y-95006190D01*
X143261904Y-95006190D01*
X144785714Y-95482380D02*
X144214285Y-95482380D01*
X144500000Y-95482380D02*
X144500000Y-94482380D01*
X144404761Y-94625238D01*
X144309523Y-94720476D01*
X144214285Y-94768095D01*
X109956666Y-29332380D02*
X109956666Y-30046666D01*
X109909047Y-30189523D01*
X109813809Y-30284761D01*
X109670952Y-30332380D01*
X109575714Y-30332380D01*
X110956666Y-30332380D02*
X110385238Y-30332380D01*
X110670952Y-30332380D02*
X110670952Y-29332380D01*
X110575714Y-29475238D01*
X110480476Y-29570476D01*
X110385238Y-29618095D01*
X131952380Y-41766666D02*
X131476190Y-42100000D01*
X131952380Y-42338095D02*
X130952380Y-42338095D01*
X130952380Y-41957142D01*
X131000000Y-41861904D01*
X131047619Y-41814285D01*
X131142857Y-41766666D01*
X131285714Y-41766666D01*
X131380952Y-41814285D01*
X131428571Y-41861904D01*
X131476190Y-41957142D01*
X131476190Y-42338095D01*
X131047619Y-41385714D02*
X131000000Y-41338095D01*
X130952380Y-41242857D01*
X130952380Y-41004761D01*
X131000000Y-40909523D01*
X131047619Y-40861904D01*
X131142857Y-40814285D01*
X131238095Y-40814285D01*
X131380952Y-40861904D01*
X131952380Y-41433333D01*
X131952380Y-40814285D01*
X109956666Y-77332380D02*
X109956666Y-78046666D01*
X109909047Y-78189523D01*
X109813809Y-78284761D01*
X109670952Y-78332380D01*
X109575714Y-78332380D01*
X110956666Y-78332380D02*
X110385238Y-78332380D01*
X110670952Y-78332380D02*
X110670952Y-77332380D01*
X110575714Y-77475238D01*
X110480476Y-77570476D01*
X110385238Y-77618095D01*
X187262380Y-74133333D02*
X187976666Y-74133333D01*
X188119523Y-74180952D01*
X188214761Y-74276190D01*
X188262380Y-74419047D01*
X188262380Y-74514285D01*
X187262380Y-73752380D02*
X187262380Y-73133333D01*
X187643333Y-73466666D01*
X187643333Y-73323809D01*
X187690952Y-73228571D01*
X187738571Y-73180952D01*
X187833809Y-73133333D01*
X188071904Y-73133333D01*
X188167142Y-73180952D01*
X188214761Y-73228571D01*
X188262380Y-73323809D01*
X188262380Y-73609523D01*
X188214761Y-73704761D01*
X188167142Y-73752380D01*
X116638095Y-63502380D02*
X116638095Y-64311904D01*
X116685714Y-64407142D01*
X116733333Y-64454761D01*
X116828571Y-64502380D01*
X117019047Y-64502380D01*
X117114285Y-64454761D01*
X117161904Y-64407142D01*
X117209523Y-64311904D01*
X117209523Y-63502380D01*
X118209523Y-64502380D02*
X117638095Y-64502380D01*
X117923809Y-64502380D02*
X117923809Y-63502380D01*
X117828571Y-63645238D01*
X117733333Y-63740476D01*
X117638095Y-63788095D01*
X150337142Y-78356666D02*
X150384761Y-78404285D01*
X150432380Y-78547142D01*
X150432380Y-78642380D01*
X150384761Y-78785238D01*
X150289523Y-78880476D01*
X150194285Y-78928095D01*
X150003809Y-78975714D01*
X149860952Y-78975714D01*
X149670476Y-78928095D01*
X149575238Y-78880476D01*
X149480000Y-78785238D01*
X149432380Y-78642380D01*
X149432380Y-78547142D01*
X149480000Y-78404285D01*
X149527619Y-78356666D01*
X149432380Y-77499523D02*
X149432380Y-77690000D01*
X149480000Y-77785238D01*
X149527619Y-77832857D01*
X149670476Y-77928095D01*
X149860952Y-77975714D01*
X150241904Y-77975714D01*
X150337142Y-77928095D01*
X150384761Y-77880476D01*
X150432380Y-77785238D01*
X150432380Y-77594761D01*
X150384761Y-77499523D01*
X150337142Y-77451904D01*
X150241904Y-77404285D01*
X150003809Y-77404285D01*
X149908571Y-77451904D01*
X149860952Y-77499523D01*
X149813333Y-77594761D01*
X149813333Y-77785238D01*
X149860952Y-77880476D01*
X149908571Y-77928095D01*
X150003809Y-77975714D01*
X147633333Y-47387142D02*
X147585714Y-47434761D01*
X147442857Y-47482380D01*
X147347619Y-47482380D01*
X147204761Y-47434761D01*
X147109523Y-47339523D01*
X147061904Y-47244285D01*
X147014285Y-47053809D01*
X147014285Y-46910952D01*
X147061904Y-46720476D01*
X147109523Y-46625238D01*
X147204761Y-46530000D01*
X147347619Y-46482380D01*
X147442857Y-46482380D01*
X147585714Y-46530000D01*
X147633333Y-46577619D01*
X148585714Y-47482380D02*
X148014285Y-47482380D01*
X148300000Y-47482380D02*
X148300000Y-46482380D01*
X148204761Y-46625238D01*
X148109523Y-46720476D01*
X148014285Y-46768095D01*
X115843333Y-38617142D02*
X115795714Y-38664761D01*
X115652857Y-38712380D01*
X115557619Y-38712380D01*
X115414761Y-38664761D01*
X115319523Y-38569523D01*
X115271904Y-38474285D01*
X115224285Y-38283809D01*
X115224285Y-38140952D01*
X115271904Y-37950476D01*
X115319523Y-37855238D01*
X115414761Y-37760000D01*
X115557619Y-37712380D01*
X115652857Y-37712380D01*
X115795714Y-37760000D01*
X115843333Y-37807619D01*
X116700476Y-38045714D02*
X116700476Y-38712380D01*
X116462380Y-37664761D02*
X116224285Y-38379047D01*
X116843333Y-38379047D01*
X116833333Y-71482380D02*
X116500000Y-71006190D01*
X116261904Y-71482380D02*
X116261904Y-70482380D01*
X116642857Y-70482380D01*
X116738095Y-70530000D01*
X116785714Y-70577619D01*
X116833333Y-70672857D01*
X116833333Y-70815714D01*
X116785714Y-70910952D01*
X116738095Y-70958571D01*
X116642857Y-71006190D01*
X116261904Y-71006190D01*
X117785714Y-71482380D02*
X117214285Y-71482380D01*
X117500000Y-71482380D02*
X117500000Y-70482380D01*
X117404761Y-70625238D01*
X117309523Y-70720476D01*
X117214285Y-70768095D01*
X124733333Y-87822380D02*
X124400000Y-87346190D01*
X124161904Y-87822380D02*
X124161904Y-86822380D01*
X124542857Y-86822380D01*
X124638095Y-86870000D01*
X124685714Y-86917619D01*
X124733333Y-87012857D01*
X124733333Y-87155714D01*
X124685714Y-87250952D01*
X124638095Y-87298571D01*
X124542857Y-87346190D01*
X124161904Y-87346190D01*
X125066666Y-86822380D02*
X125685714Y-86822380D01*
X125352380Y-87203333D01*
X125495238Y-87203333D01*
X125590476Y-87250952D01*
X125638095Y-87298571D01*
X125685714Y-87393809D01*
X125685714Y-87631904D01*
X125638095Y-87727142D01*
X125590476Y-87774761D01*
X125495238Y-87822380D01*
X125209523Y-87822380D01*
X125114285Y-87774761D01*
X125066666Y-87727142D01*
X133262380Y-98133333D02*
X133976666Y-98133333D01*
X134119523Y-98180952D01*
X134214761Y-98276190D01*
X134262380Y-98419047D01*
X134262380Y-98514285D01*
X133262380Y-97752380D02*
X133262380Y-97133333D01*
X133643333Y-97466666D01*
X133643333Y-97323809D01*
X133690952Y-97228571D01*
X133738571Y-97180952D01*
X133833809Y-97133333D01*
X134071904Y-97133333D01*
X134167142Y-97180952D01*
X134214761Y-97228571D01*
X134262380Y-97323809D01*
X134262380Y-97609523D01*
X134214761Y-97704761D01*
X134167142Y-97752380D01*
X172778095Y-53312380D02*
X172778095Y-54121904D01*
X172825714Y-54217142D01*
X172873333Y-54264761D01*
X172968571Y-54312380D01*
X173159047Y-54312380D01*
X173254285Y-54264761D01*
X173301904Y-54217142D01*
X173349523Y-54121904D01*
X173349523Y-53312380D01*
X173778095Y-53407619D02*
X173825714Y-53360000D01*
X173920952Y-53312380D01*
X174159047Y-53312380D01*
X174254285Y-53360000D01*
X174301904Y-53407619D01*
X174349523Y-53502857D01*
X174349523Y-53598095D01*
X174301904Y-53740952D01*
X173730476Y-54312380D01*
X174349523Y-54312380D01*
X136956666Y-29332380D02*
X136956666Y-30046666D01*
X136909047Y-30189523D01*
X136813809Y-30284761D01*
X136670952Y-30332380D01*
X136575714Y-30332380D01*
X137956666Y-30332380D02*
X137385238Y-30332380D01*
X137670952Y-30332380D02*
X137670952Y-29332380D01*
X137575714Y-29475238D01*
X137480476Y-29570476D01*
X137385238Y-29618095D01*
X160252380Y-35033333D02*
X160966666Y-35033333D01*
X161109523Y-35080952D01*
X161204761Y-35176190D01*
X161252380Y-35319047D01*
X161252380Y-35414285D01*
X160347619Y-34604761D02*
X160300000Y-34557142D01*
X160252380Y-34461904D01*
X160252380Y-34223809D01*
X160300000Y-34128571D01*
X160347619Y-34080952D01*
X160442857Y-34033333D01*
X160538095Y-34033333D01*
X160680952Y-34080952D01*
X161252380Y-34652380D01*
X161252380Y-34033333D01*
X122667142Y-63306666D02*
X122714761Y-63354285D01*
X122762380Y-63497142D01*
X122762380Y-63592380D01*
X122714761Y-63735238D01*
X122619523Y-63830476D01*
X122524285Y-63878095D01*
X122333809Y-63925714D01*
X122190952Y-63925714D01*
X122000476Y-63878095D01*
X121905238Y-63830476D01*
X121810000Y-63735238D01*
X121762380Y-63592380D01*
X121762380Y-63497142D01*
X121810000Y-63354285D01*
X121857619Y-63306666D01*
X121857619Y-62925714D02*
X121810000Y-62878095D01*
X121762380Y-62782857D01*
X121762380Y-62544761D01*
X121810000Y-62449523D01*
X121857619Y-62401904D01*
X121952857Y-62354285D01*
X122048095Y-62354285D01*
X122190952Y-62401904D01*
X122762380Y-62973333D01*
X122762380Y-62354285D01*
X168203333Y-30317142D02*
X168155714Y-30364761D01*
X168012857Y-30412380D01*
X167917619Y-30412380D01*
X167774761Y-30364761D01*
X167679523Y-30269523D01*
X167631904Y-30174285D01*
X167584285Y-29983809D01*
X167584285Y-29840952D01*
X167631904Y-29650476D01*
X167679523Y-29555238D01*
X167774761Y-29460000D01*
X167917619Y-29412380D01*
X168012857Y-29412380D01*
X168155714Y-29460000D01*
X168203333Y-29507619D01*
X169108095Y-29412380D02*
X168631904Y-29412380D01*
X168584285Y-29888571D01*
X168631904Y-29840952D01*
X168727142Y-29793333D01*
X168965238Y-29793333D01*
X169060476Y-29840952D01*
X169108095Y-29888571D01*
X169155714Y-29983809D01*
X169155714Y-30221904D01*
X169108095Y-30317142D01*
X169060476Y-30364761D01*
X168965238Y-30412380D01*
X168727142Y-30412380D01*
X168631904Y-30364761D01*
X168584285Y-30317142D01*
X109956666Y-53332380D02*
X109956666Y-54046666D01*
X109909047Y-54189523D01*
X109813809Y-54284761D01*
X109670952Y-54332380D01*
X109575714Y-54332380D01*
X110956666Y-54332380D02*
X110385238Y-54332380D01*
X110670952Y-54332380D02*
X110670952Y-53332380D01*
X110575714Y-53475238D01*
X110480476Y-53570476D01*
X110385238Y-53618095D01*
X141203333Y-30317142D02*
X141155714Y-30364761D01*
X141012857Y-30412380D01*
X140917619Y-30412380D01*
X140774761Y-30364761D01*
X140679523Y-30269523D01*
X140631904Y-30174285D01*
X140584285Y-29983809D01*
X140584285Y-29840952D01*
X140631904Y-29650476D01*
X140679523Y-29555238D01*
X140774761Y-29460000D01*
X140917619Y-29412380D01*
X141012857Y-29412380D01*
X141155714Y-29460000D01*
X141203333Y-29507619D01*
X142108095Y-29412380D02*
X141631904Y-29412380D01*
X141584285Y-29888571D01*
X141631904Y-29840952D01*
X141727142Y-29793333D01*
X141965238Y-29793333D01*
X142060476Y-29840952D01*
X142108095Y-29888571D01*
X142155714Y-29983809D01*
X142155714Y-30221904D01*
X142108095Y-30317142D01*
X142060476Y-30364761D01*
X141965238Y-30412380D01*
X141727142Y-30412380D01*
X141631904Y-30364761D01*
X141584285Y-30317142D01*
X158952380Y-89766666D02*
X158476190Y-90100000D01*
X158952380Y-90338095D02*
X157952380Y-90338095D01*
X157952380Y-89957142D01*
X158000000Y-89861904D01*
X158047619Y-89814285D01*
X158142857Y-89766666D01*
X158285714Y-89766666D01*
X158380952Y-89814285D01*
X158428571Y-89861904D01*
X158476190Y-89957142D01*
X158476190Y-90338095D01*
X158047619Y-89385714D02*
X158000000Y-89338095D01*
X157952380Y-89242857D01*
X157952380Y-89004761D01*
X158000000Y-88909523D01*
X158047619Y-88861904D01*
X158142857Y-88814285D01*
X158238095Y-88814285D01*
X158380952Y-88861904D01*
X158952380Y-89433333D01*
X158952380Y-88814285D01*
X187492380Y-55423333D02*
X188206666Y-55423333D01*
X188349523Y-55470952D01*
X188444761Y-55566190D01*
X188492380Y-55709047D01*
X188492380Y-55804285D01*
X187825714Y-54518571D02*
X188492380Y-54518571D01*
X187444761Y-54756666D02*
X188159047Y-54994761D01*
X188159047Y-54375714D01*
X141203333Y-78317142D02*
X141155714Y-78364761D01*
X141012857Y-78412380D01*
X140917619Y-78412380D01*
X140774761Y-78364761D01*
X140679523Y-78269523D01*
X140631904Y-78174285D01*
X140584285Y-77983809D01*
X140584285Y-77840952D01*
X140631904Y-77650476D01*
X140679523Y-77555238D01*
X140774761Y-77460000D01*
X140917619Y-77412380D01*
X141012857Y-77412380D01*
X141155714Y-77460000D01*
X141203333Y-77507619D01*
X142108095Y-77412380D02*
X141631904Y-77412380D01*
X141584285Y-77888571D01*
X141631904Y-77840952D01*
X141727142Y-77793333D01*
X141965238Y-77793333D01*
X142060476Y-77840952D01*
X142108095Y-77888571D01*
X142155714Y-77983809D01*
X142155714Y-78221904D01*
X142108095Y-78317142D01*
X142060476Y-78364761D01*
X141965238Y-78412380D01*
X141727142Y-78412380D01*
X141631904Y-78364761D01*
X141584285Y-78317142D01*
X178733333Y-63822380D02*
X178400000Y-63346190D01*
X178161904Y-63822380D02*
X178161904Y-62822380D01*
X178542857Y-62822380D01*
X178638095Y-62870000D01*
X178685714Y-62917619D01*
X178733333Y-63012857D01*
X178733333Y-63155714D01*
X178685714Y-63250952D01*
X178638095Y-63298571D01*
X178542857Y-63346190D01*
X178161904Y-63346190D01*
X179066666Y-62822380D02*
X179685714Y-62822380D01*
X179352380Y-63203333D01*
X179495238Y-63203333D01*
X179590476Y-63250952D01*
X179638095Y-63298571D01*
X179685714Y-63393809D01*
X179685714Y-63631904D01*
X179638095Y-63727142D01*
X179590476Y-63774761D01*
X179495238Y-63822380D01*
X179209523Y-63822380D01*
X179114285Y-63774761D01*
X179066666Y-63727142D01*
X177337142Y-30356666D02*
X177384761Y-30404285D01*
X177432380Y-30547142D01*
X177432380Y-30642380D01*
X177384761Y-30785238D01*
X177289523Y-30880476D01*
X177194285Y-30928095D01*
X177003809Y-30975714D01*
X176860952Y-30975714D01*
X176670476Y-30928095D01*
X176575238Y-30880476D01*
X176480000Y-30785238D01*
X176432380Y-30642380D01*
X176432380Y-30547142D01*
X176480000Y-30404285D01*
X176527619Y-30356666D01*
X176432380Y-29499523D02*
X176432380Y-29690000D01*
X176480000Y-29785238D01*
X176527619Y-29832857D01*
X176670476Y-29928095D01*
X176860952Y-29975714D01*
X177241904Y-29975714D01*
X177337142Y-29928095D01*
X177384761Y-29880476D01*
X177432380Y-29785238D01*
X177432380Y-29594761D01*
X177384761Y-29499523D01*
X177337142Y-29451904D01*
X177241904Y-29404285D01*
X177003809Y-29404285D01*
X176908571Y-29451904D01*
X176860952Y-29499523D01*
X176813333Y-29594761D01*
X176813333Y-29785238D01*
X176860952Y-29880476D01*
X176908571Y-29928095D01*
X177003809Y-29975714D01*
X142843333Y-62617142D02*
X142795714Y-62664761D01*
X142652857Y-62712380D01*
X142557619Y-62712380D01*
X142414761Y-62664761D01*
X142319523Y-62569523D01*
X142271904Y-62474285D01*
X142224285Y-62283809D01*
X142224285Y-62140952D01*
X142271904Y-61950476D01*
X142319523Y-61855238D01*
X142414761Y-61760000D01*
X142557619Y-61712380D01*
X142652857Y-61712380D01*
X142795714Y-61760000D01*
X142843333Y-61807619D01*
X143700476Y-62045714D02*
X143700476Y-62712380D01*
X143462380Y-61664761D02*
X143224285Y-62379047D01*
X143843333Y-62379047D01*
X158952380Y-65766666D02*
X158476190Y-66100000D01*
X158952380Y-66338095D02*
X157952380Y-66338095D01*
X157952380Y-65957142D01*
X158000000Y-65861904D01*
X158047619Y-65814285D01*
X158142857Y-65766666D01*
X158285714Y-65766666D01*
X158380952Y-65814285D01*
X158428571Y-65861904D01*
X158476190Y-65957142D01*
X158476190Y-66338095D01*
X158047619Y-65385714D02*
X158000000Y-65338095D01*
X157952380Y-65242857D01*
X157952380Y-65004761D01*
X158000000Y-64909523D01*
X158047619Y-64861904D01*
X158142857Y-64814285D01*
X158238095Y-64814285D01*
X158380952Y-64861904D01*
X158952380Y-65433333D01*
X158952380Y-64814285D01*
X187252380Y-59033333D02*
X187966666Y-59033333D01*
X188109523Y-59080952D01*
X188204761Y-59176190D01*
X188252380Y-59319047D01*
X188252380Y-59414285D01*
X187347619Y-58604761D02*
X187300000Y-58557142D01*
X187252380Y-58461904D01*
X187252380Y-58223809D01*
X187300000Y-58128571D01*
X187347619Y-58080952D01*
X187442857Y-58033333D01*
X187538095Y-58033333D01*
X187680952Y-58080952D01*
X188252380Y-58652380D01*
X188252380Y-58033333D01*
X151733333Y-39822380D02*
X151400000Y-39346190D01*
X151161904Y-39822380D02*
X151161904Y-38822380D01*
X151542857Y-38822380D01*
X151638095Y-38870000D01*
X151685714Y-38917619D01*
X151733333Y-39012857D01*
X151733333Y-39155714D01*
X151685714Y-39250952D01*
X151638095Y-39298571D01*
X151542857Y-39346190D01*
X151161904Y-39346190D01*
X152066666Y-38822380D02*
X152685714Y-38822380D01*
X152352380Y-39203333D01*
X152495238Y-39203333D01*
X152590476Y-39250952D01*
X152638095Y-39298571D01*
X152685714Y-39393809D01*
X152685714Y-39631904D01*
X152638095Y-39727142D01*
X152590476Y-39774761D01*
X152495238Y-39822380D01*
X152209523Y-39822380D01*
X152114285Y-39774761D01*
X152066666Y-39727142D01*
X123337142Y-30356666D02*
X123384761Y-30404285D01*
X123432380Y-30547142D01*
X123432380Y-30642380D01*
X123384761Y-30785238D01*
X123289523Y-30880476D01*
X123194285Y-30928095D01*
X123003809Y-30975714D01*
X122860952Y-30975714D01*
X122670476Y-30928095D01*
X122575238Y-30880476D01*
X122480000Y-30785238D01*
X122432380Y-30642380D01*
X122432380Y-30547142D01*
X122480000Y-30404285D01*
X122527619Y-30356666D01*
X122432380Y-29499523D02*
X122432380Y-29690000D01*
X122480000Y-29785238D01*
X122527619Y-29832857D01*
X122670476Y-29928095D01*
X122860952Y-29975714D01*
X123241904Y-29975714D01*
X123337142Y-29928095D01*
X123384761Y-29880476D01*
X123432380Y-29785238D01*
X123432380Y-29594761D01*
X123384761Y-29499523D01*
X123337142Y-29451904D01*
X123241904Y-29404285D01*
X123003809Y-29404285D01*
X122908571Y-29451904D01*
X122860952Y-29499523D01*
X122813333Y-29594761D01*
X122813333Y-29785238D01*
X122860952Y-29880476D01*
X122908571Y-29928095D01*
X123003809Y-29975714D01*
X178733333Y-87822380D02*
X178400000Y-87346190D01*
X178161904Y-87822380D02*
X178161904Y-86822380D01*
X178542857Y-86822380D01*
X178638095Y-86870000D01*
X178685714Y-86917619D01*
X178733333Y-87012857D01*
X178733333Y-87155714D01*
X178685714Y-87250952D01*
X178638095Y-87298571D01*
X178542857Y-87346190D01*
X178161904Y-87346190D01*
X179066666Y-86822380D02*
X179685714Y-86822380D01*
X179352380Y-87203333D01*
X179495238Y-87203333D01*
X179590476Y-87250952D01*
X179638095Y-87298571D01*
X179685714Y-87393809D01*
X179685714Y-87631904D01*
X179638095Y-87727142D01*
X179590476Y-87774761D01*
X179495238Y-87822380D01*
X179209523Y-87822380D01*
X179114285Y-87774761D01*
X179066666Y-87727142D01*
X115843333Y-62617142D02*
X115795714Y-62664761D01*
X115652857Y-62712380D01*
X115557619Y-62712380D01*
X115414761Y-62664761D01*
X115319523Y-62569523D01*
X115271904Y-62474285D01*
X115224285Y-62283809D01*
X115224285Y-62140952D01*
X115271904Y-61950476D01*
X115319523Y-61855238D01*
X115414761Y-61760000D01*
X115557619Y-61712380D01*
X115652857Y-61712380D01*
X115795714Y-61760000D01*
X115843333Y-61807619D01*
X116700476Y-62045714D02*
X116700476Y-62712380D01*
X116462380Y-61664761D02*
X116224285Y-62379047D01*
X116843333Y-62379047D01*
X160492380Y-79423333D02*
X161206666Y-79423333D01*
X161349523Y-79470952D01*
X161444761Y-79566190D01*
X161492380Y-79709047D01*
X161492380Y-79804285D01*
X160825714Y-78518571D02*
X161492380Y-78518571D01*
X160444761Y-78756666D02*
X161159047Y-78994761D01*
X161159047Y-78375714D01*
X142843333Y-86617142D02*
X142795714Y-86664761D01*
X142652857Y-86712380D01*
X142557619Y-86712380D01*
X142414761Y-86664761D01*
X142319523Y-86569523D01*
X142271904Y-86474285D01*
X142224285Y-86283809D01*
X142224285Y-86140952D01*
X142271904Y-85950476D01*
X142319523Y-85855238D01*
X142414761Y-85760000D01*
X142557619Y-85712380D01*
X142652857Y-85712380D01*
X142795714Y-85760000D01*
X142843333Y-85807619D01*
X143700476Y-86045714D02*
X143700476Y-86712380D01*
X143462380Y-85664761D02*
X143224285Y-86379047D01*
X143843333Y-86379047D01*
X133252380Y-59033333D02*
X133966666Y-59033333D01*
X134109523Y-59080952D01*
X134204761Y-59176190D01*
X134252380Y-59319047D01*
X134252380Y-59414285D01*
X133347619Y-58604761D02*
X133300000Y-58557142D01*
X133252380Y-58461904D01*
X133252380Y-58223809D01*
X133300000Y-58128571D01*
X133347619Y-58080952D01*
X133442857Y-58033333D01*
X133538095Y-58033333D01*
X133680952Y-58080952D01*
X134252380Y-58652380D01*
X134252380Y-58033333D01*
X131952380Y-65766666D02*
X131476190Y-66100000D01*
X131952380Y-66338095D02*
X130952380Y-66338095D01*
X130952380Y-65957142D01*
X131000000Y-65861904D01*
X131047619Y-65814285D01*
X131142857Y-65766666D01*
X131285714Y-65766666D01*
X131380952Y-65814285D01*
X131428571Y-65861904D01*
X131476190Y-65957142D01*
X131476190Y-66338095D01*
X131047619Y-65385714D02*
X131000000Y-65338095D01*
X130952380Y-65242857D01*
X130952380Y-65004761D01*
X131000000Y-64909523D01*
X131047619Y-64861904D01*
X131142857Y-64814285D01*
X131238095Y-64814285D01*
X131380952Y-64861904D01*
X131952380Y-65433333D01*
X131952380Y-64814285D01*
X163956666Y-53332380D02*
X163956666Y-54046666D01*
X163909047Y-54189523D01*
X163813809Y-54284761D01*
X163670952Y-54332380D01*
X163575714Y-54332380D01*
X164956666Y-54332380D02*
X164385238Y-54332380D01*
X164670952Y-54332380D02*
X164670952Y-53332380D01*
X164575714Y-53475238D01*
X164480476Y-53570476D01*
X164385238Y-53618095D01*
X178733333Y-68852380D02*
X178400000Y-68376190D01*
X178161904Y-68852380D02*
X178161904Y-67852380D01*
X178542857Y-67852380D01*
X178638095Y-67900000D01*
X178685714Y-67947619D01*
X178733333Y-68042857D01*
X178733333Y-68185714D01*
X178685714Y-68280952D01*
X178638095Y-68328571D01*
X178542857Y-68376190D01*
X178161904Y-68376190D01*
X179590476Y-68185714D02*
X179590476Y-68852380D01*
X179352380Y-67804761D02*
X179114285Y-68519047D01*
X179733333Y-68519047D01*
X187252380Y-83033333D02*
X187966666Y-83033333D01*
X188109523Y-83080952D01*
X188204761Y-83176190D01*
X188252380Y-83319047D01*
X188252380Y-83414285D01*
X187347619Y-82604761D02*
X187300000Y-82557142D01*
X187252380Y-82461904D01*
X187252380Y-82223809D01*
X187300000Y-82128571D01*
X187347619Y-82080952D01*
X187442857Y-82033333D01*
X187538095Y-82033333D01*
X187680952Y-82080952D01*
X188252380Y-82652380D01*
X188252380Y-82033333D01*
X139673333Y-84557142D02*
X139625714Y-84604761D01*
X139482857Y-84652380D01*
X139387619Y-84652380D01*
X139244761Y-84604761D01*
X139149523Y-84509523D01*
X139101904Y-84414285D01*
X139054285Y-84223809D01*
X139054285Y-84080952D01*
X139101904Y-83890476D01*
X139149523Y-83795238D01*
X139244761Y-83700000D01*
X139387619Y-83652380D01*
X139482857Y-83652380D01*
X139625714Y-83700000D01*
X139673333Y-83747619D01*
X140006666Y-83652380D02*
X140625714Y-83652380D01*
X140292380Y-84033333D01*
X140435238Y-84033333D01*
X140530476Y-84080952D01*
X140578095Y-84128571D01*
X140625714Y-84223809D01*
X140625714Y-84461904D01*
X140578095Y-84557142D01*
X140530476Y-84604761D01*
X140435238Y-84652380D01*
X140149523Y-84652380D01*
X140054285Y-84604761D01*
X140006666Y-84557142D01*
X112673333Y-84557142D02*
X112625714Y-84604761D01*
X112482857Y-84652380D01*
X112387619Y-84652380D01*
X112244761Y-84604761D01*
X112149523Y-84509523D01*
X112101904Y-84414285D01*
X112054285Y-84223809D01*
X112054285Y-84080952D01*
X112101904Y-83890476D01*
X112149523Y-83795238D01*
X112244761Y-83700000D01*
X112387619Y-83652380D01*
X112482857Y-83652380D01*
X112625714Y-83700000D01*
X112673333Y-83747619D01*
X113006666Y-83652380D02*
X113625714Y-83652380D01*
X113292380Y-84033333D01*
X113435238Y-84033333D01*
X113530476Y-84080952D01*
X113578095Y-84128571D01*
X113625714Y-84223809D01*
X113625714Y-84461904D01*
X113578095Y-84557142D01*
X113530476Y-84604761D01*
X113435238Y-84652380D01*
X113149523Y-84652380D01*
X113054285Y-84604761D01*
X113006666Y-84557142D01*
X114203333Y-30317142D02*
X114155714Y-30364761D01*
X114012857Y-30412380D01*
X113917619Y-30412380D01*
X113774761Y-30364761D01*
X113679523Y-30269523D01*
X113631904Y-30174285D01*
X113584285Y-29983809D01*
X113584285Y-29840952D01*
X113631904Y-29650476D01*
X113679523Y-29555238D01*
X113774761Y-29460000D01*
X113917619Y-29412380D01*
X114012857Y-29412380D01*
X114155714Y-29460000D01*
X114203333Y-29507619D01*
X115108095Y-29412380D02*
X114631904Y-29412380D01*
X114584285Y-29888571D01*
X114631904Y-29840952D01*
X114727142Y-29793333D01*
X114965238Y-29793333D01*
X115060476Y-29840952D01*
X115108095Y-29888571D01*
X115155714Y-29983809D01*
X115155714Y-30221904D01*
X115108095Y-30317142D01*
X115060476Y-30364761D01*
X114965238Y-30412380D01*
X114727142Y-30412380D01*
X114631904Y-30364761D01*
X114584285Y-30317142D01*
X124733333Y-44852380D02*
X124400000Y-44376190D01*
X124161904Y-44852380D02*
X124161904Y-43852380D01*
X124542857Y-43852380D01*
X124638095Y-43900000D01*
X124685714Y-43947619D01*
X124733333Y-44042857D01*
X124733333Y-44185714D01*
X124685714Y-44280952D01*
X124638095Y-44328571D01*
X124542857Y-44376190D01*
X124161904Y-44376190D01*
X125590476Y-44185714D02*
X125590476Y-44852380D01*
X125352380Y-43804761D02*
X125114285Y-44519047D01*
X125733333Y-44519047D01*
X122667142Y-87306666D02*
X122714761Y-87354285D01*
X122762380Y-87497142D01*
X122762380Y-87592380D01*
X122714761Y-87735238D01*
X122619523Y-87830476D01*
X122524285Y-87878095D01*
X122333809Y-87925714D01*
X122190952Y-87925714D01*
X122000476Y-87878095D01*
X121905238Y-87830476D01*
X121810000Y-87735238D01*
X121762380Y-87592380D01*
X121762380Y-87497142D01*
X121810000Y-87354285D01*
X121857619Y-87306666D01*
X121857619Y-86925714D02*
X121810000Y-86878095D01*
X121762380Y-86782857D01*
X121762380Y-86544761D01*
X121810000Y-86449523D01*
X121857619Y-86401904D01*
X121952857Y-86354285D01*
X122048095Y-86354285D01*
X122190952Y-86401904D01*
X122762380Y-86973333D01*
X122762380Y-86354285D01*
X112673333Y-36557142D02*
X112625714Y-36604761D01*
X112482857Y-36652380D01*
X112387619Y-36652380D01*
X112244761Y-36604761D01*
X112149523Y-36509523D01*
X112101904Y-36414285D01*
X112054285Y-36223809D01*
X112054285Y-36080952D01*
X112101904Y-35890476D01*
X112149523Y-35795238D01*
X112244761Y-35700000D01*
X112387619Y-35652380D01*
X112482857Y-35652380D01*
X112625714Y-35700000D01*
X112673333Y-35747619D01*
X113006666Y-35652380D02*
X113625714Y-35652380D01*
X113292380Y-36033333D01*
X113435238Y-36033333D01*
X113530476Y-36080952D01*
X113578095Y-36128571D01*
X113625714Y-36223809D01*
X113625714Y-36461904D01*
X113578095Y-36557142D01*
X113530476Y-36604761D01*
X113435238Y-36652380D01*
X113149523Y-36652380D01*
X113054285Y-36604761D01*
X113006666Y-36557142D01*
X143833333Y-47482380D02*
X143500000Y-47006190D01*
X143261904Y-47482380D02*
X143261904Y-46482380D01*
X143642857Y-46482380D01*
X143738095Y-46530000D01*
X143785714Y-46577619D01*
X143833333Y-46672857D01*
X143833333Y-46815714D01*
X143785714Y-46910952D01*
X143738095Y-46958571D01*
X143642857Y-47006190D01*
X143261904Y-47006190D01*
X144785714Y-47482380D02*
X144214285Y-47482380D01*
X144500000Y-47482380D02*
X144500000Y-46482380D01*
X144404761Y-46625238D01*
X144309523Y-46720476D01*
X144214285Y-46768095D01*
X123337142Y-54356666D02*
X123384761Y-54404285D01*
X123432380Y-54547142D01*
X123432380Y-54642380D01*
X123384761Y-54785238D01*
X123289523Y-54880476D01*
X123194285Y-54928095D01*
X123003809Y-54975714D01*
X122860952Y-54975714D01*
X122670476Y-54928095D01*
X122575238Y-54880476D01*
X122480000Y-54785238D01*
X122432380Y-54642380D01*
X122432380Y-54547142D01*
X122480000Y-54404285D01*
X122527619Y-54356666D01*
X122432380Y-53499523D02*
X122432380Y-53690000D01*
X122480000Y-53785238D01*
X122527619Y-53832857D01*
X122670476Y-53928095D01*
X122860952Y-53975714D01*
X123241904Y-53975714D01*
X123337142Y-53928095D01*
X123384761Y-53880476D01*
X123432380Y-53785238D01*
X123432380Y-53594761D01*
X123384761Y-53499523D01*
X123337142Y-53451904D01*
X123241904Y-53404285D01*
X123003809Y-53404285D01*
X122908571Y-53451904D01*
X122860952Y-53499523D01*
X122813333Y-53594761D01*
X122813333Y-53785238D01*
X122860952Y-53880476D01*
X122908571Y-53928095D01*
X123003809Y-53975714D01*
X139673333Y-60557142D02*
X139625714Y-60604761D01*
X139482857Y-60652380D01*
X139387619Y-60652380D01*
X139244761Y-60604761D01*
X139149523Y-60509523D01*
X139101904Y-60414285D01*
X139054285Y-60223809D01*
X139054285Y-60080952D01*
X139101904Y-59890476D01*
X139149523Y-59795238D01*
X139244761Y-59700000D01*
X139387619Y-59652380D01*
X139482857Y-59652380D01*
X139625714Y-59700000D01*
X139673333Y-59747619D01*
X140006666Y-59652380D02*
X140625714Y-59652380D01*
X140292380Y-60033333D01*
X140435238Y-60033333D01*
X140530476Y-60080952D01*
X140578095Y-60128571D01*
X140625714Y-60223809D01*
X140625714Y-60461904D01*
X140578095Y-60557142D01*
X140530476Y-60604761D01*
X140435238Y-60652380D01*
X140149523Y-60652380D01*
X140054285Y-60604761D01*
X140006666Y-60557142D01*
X178733333Y-44852380D02*
X178400000Y-44376190D01*
X178161904Y-44852380D02*
X178161904Y-43852380D01*
X178542857Y-43852380D01*
X178638095Y-43900000D01*
X178685714Y-43947619D01*
X178733333Y-44042857D01*
X178733333Y-44185714D01*
X178685714Y-44280952D01*
X178638095Y-44328571D01*
X178542857Y-44376190D01*
X178161904Y-44376190D01*
X179590476Y-44185714D02*
X179590476Y-44852380D01*
X179352380Y-43804761D02*
X179114285Y-44519047D01*
X179733333Y-44519047D01*
X176667142Y-39306666D02*
X176714761Y-39354285D01*
X176762380Y-39497142D01*
X176762380Y-39592380D01*
X176714761Y-39735238D01*
X176619523Y-39830476D01*
X176524285Y-39878095D01*
X176333809Y-39925714D01*
X176190952Y-39925714D01*
X176000476Y-39878095D01*
X175905238Y-39830476D01*
X175810000Y-39735238D01*
X175762380Y-39592380D01*
X175762380Y-39497142D01*
X175810000Y-39354285D01*
X175857619Y-39306666D01*
X175857619Y-38925714D02*
X175810000Y-38878095D01*
X175762380Y-38782857D01*
X175762380Y-38544761D01*
X175810000Y-38449523D01*
X175857619Y-38401904D01*
X175952857Y-38354285D01*
X176048095Y-38354285D01*
X176190952Y-38401904D01*
X176762380Y-38973333D01*
X176762380Y-38354285D01*
X143638095Y-39502380D02*
X143638095Y-40311904D01*
X143685714Y-40407142D01*
X143733333Y-40454761D01*
X143828571Y-40502380D01*
X144019047Y-40502380D01*
X144114285Y-40454761D01*
X144161904Y-40407142D01*
X144209523Y-40311904D01*
X144209523Y-39502380D01*
X145209523Y-40502380D02*
X144638095Y-40502380D01*
X144923809Y-40502380D02*
X144923809Y-39502380D01*
X144828571Y-39645238D01*
X144733333Y-39740476D01*
X144638095Y-39788095D01*
X133492380Y-79423333D02*
X134206666Y-79423333D01*
X134349523Y-79470952D01*
X134444761Y-79566190D01*
X134492380Y-79709047D01*
X134492380Y-79804285D01*
X133825714Y-78518571D02*
X134492380Y-78518571D01*
X133444761Y-78756666D02*
X134159047Y-78994761D01*
X134159047Y-78375714D01*
X124733333Y-92852380D02*
X124400000Y-92376190D01*
X124161904Y-92852380D02*
X124161904Y-91852380D01*
X124542857Y-91852380D01*
X124638095Y-91900000D01*
X124685714Y-91947619D01*
X124733333Y-92042857D01*
X124733333Y-92185714D01*
X124685714Y-92280952D01*
X124638095Y-92328571D01*
X124542857Y-92376190D01*
X124161904Y-92376190D01*
X125590476Y-92185714D02*
X125590476Y-92852380D01*
X125352380Y-91804761D02*
X125114285Y-92519047D01*
X125733333Y-92519047D01*
X145778095Y-53312380D02*
X145778095Y-54121904D01*
X145825714Y-54217142D01*
X145873333Y-54264761D01*
X145968571Y-54312380D01*
X146159047Y-54312380D01*
X146254285Y-54264761D01*
X146301904Y-54217142D01*
X146349523Y-54121904D01*
X146349523Y-53312380D01*
X146778095Y-53407619D02*
X146825714Y-53360000D01*
X146920952Y-53312380D01*
X147159047Y-53312380D01*
X147254285Y-53360000D01*
X147301904Y-53407619D01*
X147349523Y-53502857D01*
X147349523Y-53598095D01*
X147301904Y-53740952D01*
X146730476Y-54312380D01*
X147349523Y-54312380D01*
X149667142Y-87306666D02*
X149714761Y-87354285D01*
X149762380Y-87497142D01*
X149762380Y-87592380D01*
X149714761Y-87735238D01*
X149619523Y-87830476D01*
X149524285Y-87878095D01*
X149333809Y-87925714D01*
X149190952Y-87925714D01*
X149000476Y-87878095D01*
X148905238Y-87830476D01*
X148810000Y-87735238D01*
X148762380Y-87592380D01*
X148762380Y-87497142D01*
X148810000Y-87354285D01*
X148857619Y-87306666D01*
X148857619Y-86925714D02*
X148810000Y-86878095D01*
X148762380Y-86782857D01*
X148762380Y-86544761D01*
X148810000Y-86449523D01*
X148857619Y-86401904D01*
X148952857Y-86354285D01*
X149048095Y-86354285D01*
X149190952Y-86401904D01*
X149762380Y-86973333D01*
X149762380Y-86354285D01*
X177337142Y-54356666D02*
X177384761Y-54404285D01*
X177432380Y-54547142D01*
X177432380Y-54642380D01*
X177384761Y-54785238D01*
X177289523Y-54880476D01*
X177194285Y-54928095D01*
X177003809Y-54975714D01*
X176860952Y-54975714D01*
X176670476Y-54928095D01*
X176575238Y-54880476D01*
X176480000Y-54785238D01*
X176432380Y-54642380D01*
X176432380Y-54547142D01*
X176480000Y-54404285D01*
X176527619Y-54356666D01*
X176432380Y-53499523D02*
X176432380Y-53690000D01*
X176480000Y-53785238D01*
X176527619Y-53832857D01*
X176670476Y-53928095D01*
X176860952Y-53975714D01*
X177241904Y-53975714D01*
X177337142Y-53928095D01*
X177384761Y-53880476D01*
X177432380Y-53785238D01*
X177432380Y-53594761D01*
X177384761Y-53499523D01*
X177337142Y-53451904D01*
X177241904Y-53404285D01*
X177003809Y-53404285D01*
X176908571Y-53451904D01*
X176860952Y-53499523D01*
X176813333Y-53594761D01*
X176813333Y-53785238D01*
X176860952Y-53880476D01*
X176908571Y-53928095D01*
X177003809Y-53975714D01*
X185952380Y-41766666D02*
X185476190Y-42100000D01*
X185952380Y-42338095D02*
X184952380Y-42338095D01*
X184952380Y-41957142D01*
X185000000Y-41861904D01*
X185047619Y-41814285D01*
X185142857Y-41766666D01*
X185285714Y-41766666D01*
X185380952Y-41814285D01*
X185428571Y-41861904D01*
X185476190Y-41957142D01*
X185476190Y-42338095D01*
X185047619Y-41385714D02*
X185000000Y-41338095D01*
X184952380Y-41242857D01*
X184952380Y-41004761D01*
X185000000Y-40909523D01*
X185047619Y-40861904D01*
X185142857Y-40814285D01*
X185238095Y-40814285D01*
X185380952Y-40861904D01*
X185952380Y-41433333D01*
X185952380Y-40814285D01*
X115843333Y-86617142D02*
X115795714Y-86664761D01*
X115652857Y-86712380D01*
X115557619Y-86712380D01*
X115414761Y-86664761D01*
X115319523Y-86569523D01*
X115271904Y-86474285D01*
X115224285Y-86283809D01*
X115224285Y-86140952D01*
X115271904Y-85950476D01*
X115319523Y-85855238D01*
X115414761Y-85760000D01*
X115557619Y-85712380D01*
X115652857Y-85712380D01*
X115795714Y-85760000D01*
X115843333Y-85807619D01*
X116700476Y-86045714D02*
X116700476Y-86712380D01*
X116462380Y-85664761D02*
X116224285Y-86379047D01*
X116843333Y-86379047D01*
X148642380Y-36913333D02*
X149356666Y-36913333D01*
X149499523Y-36960952D01*
X149594761Y-37056190D01*
X149642380Y-37199047D01*
X149642380Y-37294285D01*
X148642380Y-35960952D02*
X148642380Y-36437142D01*
X149118571Y-36484761D01*
X149070952Y-36437142D01*
X149023333Y-36341904D01*
X149023333Y-36103809D01*
X149070952Y-36008571D01*
X149118571Y-35960952D01*
X149213809Y-35913333D01*
X149451904Y-35913333D01*
X149547142Y-35960952D01*
X149594761Y-36008571D01*
X149642380Y-36103809D01*
X149642380Y-36341904D01*
X149594761Y-36437142D01*
X149547142Y-36484761D01*
X160252380Y-59033333D02*
X160966666Y-59033333D01*
X161109523Y-59080952D01*
X161204761Y-59176190D01*
X161252380Y-59319047D01*
X161252380Y-59414285D01*
X160347619Y-58604761D02*
X160300000Y-58557142D01*
X160252380Y-58461904D01*
X160252380Y-58223809D01*
X160300000Y-58128571D01*
X160347619Y-58080952D01*
X160442857Y-58033333D01*
X160538095Y-58033333D01*
X160680952Y-58080952D01*
X161252380Y-58652380D01*
X161252380Y-58033333D01*
X124733333Y-39822380D02*
X124400000Y-39346190D01*
X124161904Y-39822380D02*
X124161904Y-38822380D01*
X124542857Y-38822380D01*
X124638095Y-38870000D01*
X124685714Y-38917619D01*
X124733333Y-39012857D01*
X124733333Y-39155714D01*
X124685714Y-39250952D01*
X124638095Y-39298571D01*
X124542857Y-39346190D01*
X124161904Y-39346190D01*
X125066666Y-38822380D02*
X125685714Y-38822380D01*
X125352380Y-39203333D01*
X125495238Y-39203333D01*
X125590476Y-39250952D01*
X125638095Y-39298571D01*
X125685714Y-39393809D01*
X125685714Y-39631904D01*
X125638095Y-39727142D01*
X125590476Y-39774761D01*
X125495238Y-39822380D01*
X125209523Y-39822380D01*
X125114285Y-39774761D01*
X125066666Y-39727142D01*
X143638095Y-87502380D02*
X143638095Y-88311904D01*
X143685714Y-88407142D01*
X143733333Y-88454761D01*
X143828571Y-88502380D01*
X144019047Y-88502380D01*
X144114285Y-88454761D01*
X144161904Y-88407142D01*
X144209523Y-88311904D01*
X144209523Y-87502380D01*
X145209523Y-88502380D02*
X144638095Y-88502380D01*
X144923809Y-88502380D02*
X144923809Y-87502380D01*
X144828571Y-87645238D01*
X144733333Y-87740476D01*
X144638095Y-87788095D01*
X133252380Y-35033333D02*
X133966666Y-35033333D01*
X134109523Y-35080952D01*
X134204761Y-35176190D01*
X134252380Y-35319047D01*
X134252380Y-35414285D01*
X133347619Y-34604761D02*
X133300000Y-34557142D01*
X133252380Y-34461904D01*
X133252380Y-34223809D01*
X133300000Y-34128571D01*
X133347619Y-34080952D01*
X133442857Y-34033333D01*
X133538095Y-34033333D01*
X133680952Y-34080952D01*
X134252380Y-34652380D01*
X134252380Y-34033333D01*
X136956666Y-77332380D02*
X136956666Y-78046666D01*
X136909047Y-78189523D01*
X136813809Y-78284761D01*
X136670952Y-78332380D01*
X136575714Y-78332380D01*
X137956666Y-78332380D02*
X137385238Y-78332380D01*
X137670952Y-78332380D02*
X137670952Y-77332380D01*
X137575714Y-77475238D01*
X137480476Y-77570476D01*
X137385238Y-77618095D01*
X163956666Y-29332380D02*
X163956666Y-30046666D01*
X163909047Y-30189523D01*
X163813809Y-30284761D01*
X163670952Y-30332380D01*
X163575714Y-30332380D01*
X164956666Y-30332380D02*
X164385238Y-30332380D01*
X164670952Y-30332380D02*
X164670952Y-29332380D01*
X164575714Y-29475238D01*
X164480476Y-29570476D01*
X164385238Y-29618095D01*
X176667142Y-87306666D02*
X176714761Y-87354285D01*
X176762380Y-87497142D01*
X176762380Y-87592380D01*
X176714761Y-87735238D01*
X176619523Y-87830476D01*
X176524285Y-87878095D01*
X176333809Y-87925714D01*
X176190952Y-87925714D01*
X176000476Y-87878095D01*
X175905238Y-87830476D01*
X175810000Y-87735238D01*
X175762380Y-87592380D01*
X175762380Y-87497142D01*
X175810000Y-87354285D01*
X175857619Y-87306666D01*
X175857619Y-86925714D02*
X175810000Y-86878095D01*
X175762380Y-86782857D01*
X175762380Y-86544761D01*
X175810000Y-86449523D01*
X175857619Y-86401904D01*
X175952857Y-86354285D01*
X176048095Y-86354285D01*
X176190952Y-86401904D01*
X176762380Y-86973333D01*
X176762380Y-86354285D01*
X187492380Y-31423333D02*
X188206666Y-31423333D01*
X188349523Y-31470952D01*
X188444761Y-31566190D01*
X188492380Y-31709047D01*
X188492380Y-31804285D01*
X187825714Y-30518571D02*
X188492380Y-30518571D01*
X187444761Y-30756666D02*
X188159047Y-30994761D01*
X188159047Y-30375714D01*
X120633333Y-71387142D02*
X120585714Y-71434761D01*
X120442857Y-71482380D01*
X120347619Y-71482380D01*
X120204761Y-71434761D01*
X120109523Y-71339523D01*
X120061904Y-71244285D01*
X120014285Y-71053809D01*
X120014285Y-70910952D01*
X120061904Y-70720476D01*
X120109523Y-70625238D01*
X120204761Y-70530000D01*
X120347619Y-70482380D01*
X120442857Y-70482380D01*
X120585714Y-70530000D01*
X120633333Y-70577619D01*
X121585714Y-71482380D02*
X121014285Y-71482380D01*
X121300000Y-71482380D02*
X121300000Y-70482380D01*
X121204761Y-70625238D01*
X121109523Y-70720476D01*
X121014285Y-70768095D01*
X170638095Y-63502380D02*
X170638095Y-64311904D01*
X170685714Y-64407142D01*
X170733333Y-64454761D01*
X170828571Y-64502380D01*
X171019047Y-64502380D01*
X171114285Y-64454761D01*
X171161904Y-64407142D01*
X171209523Y-64311904D01*
X171209523Y-63502380D01*
X172209523Y-64502380D02*
X171638095Y-64502380D01*
X171923809Y-64502380D02*
X171923809Y-63502380D01*
X171828571Y-63645238D01*
X171733333Y-63740476D01*
X171638095Y-63788095D01*
X133262380Y-50133333D02*
X133976666Y-50133333D01*
X134119523Y-50180952D01*
X134214761Y-50276190D01*
X134262380Y-50419047D01*
X134262380Y-50514285D01*
X133262380Y-49752380D02*
X133262380Y-49133333D01*
X133643333Y-49466666D01*
X133643333Y-49323809D01*
X133690952Y-49228571D01*
X133738571Y-49180952D01*
X133833809Y-49133333D01*
X134071904Y-49133333D01*
X134167142Y-49180952D01*
X134214761Y-49228571D01*
X134262380Y-49323809D01*
X134262380Y-49609523D01*
X134214761Y-49704761D01*
X134167142Y-49752380D01*
X163956666Y-77332380D02*
X163956666Y-78046666D01*
X163909047Y-78189523D01*
X163813809Y-78284761D01*
X163670952Y-78332380D01*
X163575714Y-78332380D01*
X164956666Y-78332380D02*
X164385238Y-78332380D01*
X164670952Y-78332380D02*
X164670952Y-77332380D01*
X164575714Y-77475238D01*
X164480476Y-77570476D01*
X164385238Y-77618095D01*
X158952380Y-41766666D02*
X158476190Y-42100000D01*
X158952380Y-42338095D02*
X157952380Y-42338095D01*
X157952380Y-41957142D01*
X158000000Y-41861904D01*
X158047619Y-41814285D01*
X158142857Y-41766666D01*
X158285714Y-41766666D01*
X158380952Y-41814285D01*
X158428571Y-41861904D01*
X158476190Y-41957142D01*
X158476190Y-42338095D01*
X158047619Y-41385714D02*
X158000000Y-41338095D01*
X157952380Y-41242857D01*
X157952380Y-41004761D01*
X158000000Y-40909523D01*
X158047619Y-40861904D01*
X158142857Y-40814285D01*
X158238095Y-40814285D01*
X158380952Y-40861904D01*
X158952380Y-41433333D01*
X158952380Y-40814285D01*
X170638095Y-87502380D02*
X170638095Y-88311904D01*
X170685714Y-88407142D01*
X170733333Y-88454761D01*
X170828571Y-88502380D01*
X171019047Y-88502380D01*
X171114285Y-88454761D01*
X171161904Y-88407142D01*
X171209523Y-88311904D01*
X171209523Y-87502380D01*
X172209523Y-88502380D02*
X171638095Y-88502380D01*
X171923809Y-88502380D02*
X171923809Y-87502380D01*
X171828571Y-87645238D01*
X171733333Y-87740476D01*
X171638095Y-87788095D01*
X116638095Y-87502380D02*
X116638095Y-88311904D01*
X116685714Y-88407142D01*
X116733333Y-88454761D01*
X116828571Y-88502380D01*
X117019047Y-88502380D01*
X117114285Y-88454761D01*
X117161904Y-88407142D01*
X117209523Y-88311904D01*
X117209523Y-87502380D01*
X118209523Y-88502380D02*
X117638095Y-88502380D01*
X117923809Y-88502380D02*
X117923809Y-87502380D01*
X117828571Y-87645238D01*
X117733333Y-87740476D01*
X117638095Y-87788095D01*
X139673333Y-36557142D02*
X139625714Y-36604761D01*
X139482857Y-36652380D01*
X139387619Y-36652380D01*
X139244761Y-36604761D01*
X139149523Y-36509523D01*
X139101904Y-36414285D01*
X139054285Y-36223809D01*
X139054285Y-36080952D01*
X139101904Y-35890476D01*
X139149523Y-35795238D01*
X139244761Y-35700000D01*
X139387619Y-35652380D01*
X139482857Y-35652380D01*
X139625714Y-35700000D01*
X139673333Y-35747619D01*
X140006666Y-35652380D02*
X140625714Y-35652380D01*
X140292380Y-36033333D01*
X140435238Y-36033333D01*
X140530476Y-36080952D01*
X140578095Y-36128571D01*
X140625714Y-36223809D01*
X140625714Y-36461904D01*
X140578095Y-36557142D01*
X140530476Y-36604761D01*
X140435238Y-36652380D01*
X140149523Y-36652380D01*
X140054285Y-36604761D01*
X140006666Y-36557142D01*
X150337142Y-30356666D02*
X150384761Y-30404285D01*
X150432380Y-30547142D01*
X150432380Y-30642380D01*
X150384761Y-30785238D01*
X150289523Y-30880476D01*
X150194285Y-30928095D01*
X150003809Y-30975714D01*
X149860952Y-30975714D01*
X149670476Y-30928095D01*
X149575238Y-30880476D01*
X149480000Y-30785238D01*
X149432380Y-30642380D01*
X149432380Y-30547142D01*
X149480000Y-30404285D01*
X149527619Y-30356666D01*
X149432380Y-29499523D02*
X149432380Y-29690000D01*
X149480000Y-29785238D01*
X149527619Y-29832857D01*
X149670476Y-29928095D01*
X149860952Y-29975714D01*
X150241904Y-29975714D01*
X150337142Y-29928095D01*
X150384761Y-29880476D01*
X150432380Y-29785238D01*
X150432380Y-29594761D01*
X150384761Y-29499523D01*
X150337142Y-29451904D01*
X150241904Y-29404285D01*
X150003809Y-29404285D01*
X149908571Y-29451904D01*
X149860952Y-29499523D01*
X149813333Y-29594761D01*
X149813333Y-29785238D01*
X149860952Y-29880476D01*
X149908571Y-29928095D01*
X150003809Y-29975714D01*
X142843333Y-38617142D02*
X142795714Y-38664761D01*
X142652857Y-38712380D01*
X142557619Y-38712380D01*
X142414761Y-38664761D01*
X142319523Y-38569523D01*
X142271904Y-38474285D01*
X142224285Y-38283809D01*
X142224285Y-38140952D01*
X142271904Y-37950476D01*
X142319523Y-37855238D01*
X142414761Y-37760000D01*
X142557619Y-37712380D01*
X142652857Y-37712380D01*
X142795714Y-37760000D01*
X142843333Y-37807619D01*
X143700476Y-38045714D02*
X143700476Y-38712380D01*
X143462380Y-37664761D02*
X143224285Y-38379047D01*
X143843333Y-38379047D01*
X169843333Y-86617142D02*
X169795714Y-86664761D01*
X169652857Y-86712380D01*
X169557619Y-86712380D01*
X169414761Y-86664761D01*
X169319523Y-86569523D01*
X169271904Y-86474285D01*
X169224285Y-86283809D01*
X169224285Y-86140952D01*
X169271904Y-85950476D01*
X169319523Y-85855238D01*
X169414761Y-85760000D01*
X169557619Y-85712380D01*
X169652857Y-85712380D01*
X169795714Y-85760000D01*
X169843333Y-85807619D01*
X170700476Y-86045714D02*
X170700476Y-86712380D01*
X170462380Y-85664761D02*
X170224285Y-86379047D01*
X170843333Y-86379047D01*
D12*
X151645276Y-43222500D02*
X152154724Y-43222500D01*
X151645276Y-42177500D02*
X152154724Y-42177500D01*
X170513733Y-37290000D02*
X170806267Y-37290000D01*
X170513733Y-36270000D02*
X170806267Y-36270000D01*
X154630000Y-53440000D02*
X155960000Y-53440000D01*
X154630000Y-54770000D02*
X154630000Y-53440000D01*
X157230000Y-53440000D02*
X159830000Y-53440000D01*
X157230000Y-56100000D02*
X157230000Y-53440000D01*
X159830000Y-56100000D02*
X159830000Y-53440000D01*
X157230000Y-56100000D02*
X159830000Y-56100000D01*
X113350000Y-57926267D02*
X113350000Y-57633733D01*
X112330000Y-57926267D02*
X112330000Y-57633733D01*
X167870000Y-80438767D02*
X167870000Y-80146233D01*
X168890000Y-80438767D02*
X168890000Y-80146233D01*
X117254724Y-93077500D02*
X116745276Y-93077500D01*
X117254724Y-94122500D02*
X116745276Y-94122500D01*
X184210000Y-96470000D02*
X184210000Y-99130000D01*
X184210000Y-96470000D02*
X181610000Y-96470000D01*
X185480000Y-96470000D02*
X186810000Y-96470000D01*
X184210000Y-99130000D02*
X181610000Y-99130000D01*
X181610000Y-96470000D02*
X181610000Y-99130000D01*
X186810000Y-96470000D02*
X186810000Y-97800000D01*
X171254724Y-46122500D02*
X170745276Y-46122500D01*
X171254724Y-45077500D02*
X170745276Y-45077500D01*
X149910000Y-41616233D02*
X149910000Y-41908767D01*
X148890000Y-41616233D02*
X148890000Y-41908767D01*
X117254724Y-46122500D02*
X116745276Y-46122500D01*
X117254724Y-45077500D02*
X116745276Y-45077500D01*
X186830000Y-80100000D02*
X186830000Y-77440000D01*
X184230000Y-77440000D02*
X186830000Y-77440000D01*
X181630000Y-78770000D02*
X181630000Y-77440000D01*
X184230000Y-80100000D02*
X184230000Y-77440000D01*
X184230000Y-80100000D02*
X186830000Y-80100000D01*
X181630000Y-77440000D02*
X182960000Y-77440000D01*
X144710000Y-35530000D02*
X144710000Y-35300000D01*
X144710000Y-30810000D02*
X144710000Y-31040000D01*
X147430000Y-34220000D02*
X147430000Y-35530000D01*
X144710000Y-30810000D02*
X147430000Y-30810000D01*
X147430000Y-35530000D02*
X144710000Y-35530000D01*
X143570000Y-31040000D02*
X144710000Y-31040000D01*
X147430000Y-30810000D02*
X147430000Y-32120000D01*
X148890000Y-65616233D02*
X148890000Y-65908767D01*
X149910000Y-65616233D02*
X149910000Y-65908767D01*
X166330000Y-81926267D02*
X166330000Y-81633733D01*
X167350000Y-81926267D02*
X167350000Y-81633733D01*
X117400000Y-44110000D02*
X118900000Y-44110000D01*
X117400000Y-40890000D02*
X114475000Y-40890000D01*
X117400000Y-44110000D02*
X115900000Y-44110000D01*
X117400000Y-40890000D02*
X118900000Y-40890000D01*
X159810000Y-96470000D02*
X159810000Y-97800000D01*
X158480000Y-96470000D02*
X159810000Y-96470000D01*
X157210000Y-96470000D02*
X157210000Y-99130000D01*
X157210000Y-96470000D02*
X154610000Y-96470000D01*
X157210000Y-99130000D02*
X154610000Y-99130000D01*
X154610000Y-96470000D02*
X154610000Y-99130000D01*
X144254724Y-69077500D02*
X143745276Y-69077500D01*
X144254724Y-70122500D02*
X143745276Y-70122500D01*
X153055000Y-56090000D02*
X150395000Y-56090000D01*
X150395000Y-58690000D02*
X150395000Y-56090000D01*
X153055000Y-58690000D02*
X150395000Y-58690000D01*
X150395000Y-61290000D02*
X150395000Y-59960000D01*
X153055000Y-58690000D02*
X153055000Y-56090000D01*
X151725000Y-61290000D02*
X150395000Y-61290000D01*
X126055000Y-34690000D02*
X126055000Y-32090000D01*
X123395000Y-34690000D02*
X123395000Y-32090000D01*
X124725000Y-37290000D02*
X123395000Y-37290000D01*
X126055000Y-32090000D02*
X123395000Y-32090000D01*
X126055000Y-34690000D02*
X123395000Y-34690000D01*
X123395000Y-37290000D02*
X123395000Y-35960000D01*
X157210000Y-51130000D02*
X154610000Y-51130000D01*
X157210000Y-48470000D02*
X154610000Y-48470000D01*
X157210000Y-48470000D02*
X157210000Y-51130000D01*
X158480000Y-48470000D02*
X159810000Y-48470000D01*
X159810000Y-48470000D02*
X159810000Y-49800000D01*
X154610000Y-48470000D02*
X154610000Y-51130000D01*
X147946267Y-69090000D02*
X147653733Y-69090000D01*
X147946267Y-70110000D02*
X147653733Y-70110000D01*
X113870000Y-80438767D02*
X113870000Y-80146233D01*
X114890000Y-80438767D02*
X114890000Y-80146233D01*
X152153733Y-55270000D02*
X152446267Y-55270000D01*
X152153733Y-54250000D02*
X152446267Y-54250000D01*
X174430000Y-35530000D02*
X171710000Y-35530000D01*
X171710000Y-35530000D02*
X171710000Y-35300000D01*
X174430000Y-34220000D02*
X174430000Y-35530000D01*
X170570000Y-31040000D02*
X171710000Y-31040000D01*
X171710000Y-30810000D02*
X171710000Y-31040000D01*
X171710000Y-30810000D02*
X174430000Y-30810000D01*
X174430000Y-30810000D02*
X174430000Y-32120000D01*
X147946267Y-93090000D02*
X147653733Y-93090000D01*
X147946267Y-94110000D02*
X147653733Y-94110000D01*
X130195000Y-83830000D02*
X132795000Y-83830000D01*
X130195000Y-81170000D02*
X132795000Y-81170000D01*
X130195000Y-83830000D02*
X130195000Y-81170000D01*
X132795000Y-83830000D02*
X132795000Y-81170000D01*
X127595000Y-83830000D02*
X127595000Y-82500000D01*
X128925000Y-83830000D02*
X127595000Y-83830000D01*
X177395000Y-37290000D02*
X177395000Y-35960000D01*
X180055000Y-34690000D02*
X180055000Y-32090000D01*
X180055000Y-34690000D02*
X177395000Y-34690000D01*
X180055000Y-32090000D02*
X177395000Y-32090000D01*
X177395000Y-34690000D02*
X177395000Y-32090000D01*
X178725000Y-37290000D02*
X177395000Y-37290000D01*
X175890000Y-65616233D02*
X175890000Y-65908767D01*
X176910000Y-65616233D02*
X176910000Y-65908767D01*
X166330000Y-33926267D02*
X166330000Y-33633733D01*
X167350000Y-33926267D02*
X167350000Y-33633733D01*
X125153733Y-78250000D02*
X125446267Y-78250000D01*
X125153733Y-79270000D02*
X125446267Y-79270000D01*
X151645276Y-64277500D02*
X152154724Y-64277500D01*
X151645276Y-65322500D02*
X152154724Y-65322500D01*
X157210000Y-75130000D02*
X154610000Y-75130000D01*
X157210000Y-72470000D02*
X154610000Y-72470000D01*
X157210000Y-72470000D02*
X157210000Y-75130000D01*
X154610000Y-72470000D02*
X154610000Y-75130000D01*
X159810000Y-72470000D02*
X159810000Y-73800000D01*
X158480000Y-72470000D02*
X159810000Y-72470000D01*
X167350000Y-57926267D02*
X167350000Y-57633733D01*
X166330000Y-57926267D02*
X166330000Y-57633733D01*
X126055000Y-80090000D02*
X123395000Y-80090000D01*
X123395000Y-85290000D02*
X123395000Y-83960000D01*
X126055000Y-82690000D02*
X126055000Y-80090000D01*
X126055000Y-82690000D02*
X123395000Y-82690000D01*
X123395000Y-82690000D02*
X123395000Y-80090000D01*
X124725000Y-85290000D02*
X123395000Y-85290000D01*
X150395000Y-82690000D02*
X150395000Y-80090000D01*
X153055000Y-82690000D02*
X153055000Y-80090000D01*
X151725000Y-85290000D02*
X150395000Y-85290000D01*
X153055000Y-82690000D02*
X150395000Y-82690000D01*
X150395000Y-85290000D02*
X150395000Y-83960000D01*
X153055000Y-80090000D02*
X150395000Y-80090000D01*
X178645276Y-90177500D02*
X179154724Y-90177500D01*
X178645276Y-91222500D02*
X179154724Y-91222500D01*
X184310000Y-91877064D02*
X184310000Y-87522936D01*
X180890000Y-91877064D02*
X180890000Y-87522936D01*
X171254724Y-93077500D02*
X170745276Y-93077500D01*
X171254724Y-94122500D02*
X170745276Y-94122500D01*
X180890000Y-67877064D02*
X180890000Y-63522936D01*
X184310000Y-67877064D02*
X184310000Y-63522936D01*
X174430000Y-78810000D02*
X174430000Y-80120000D01*
X171710000Y-78810000D02*
X171710000Y-79040000D01*
X171710000Y-78810000D02*
X174430000Y-78810000D01*
X171710000Y-83530000D02*
X171710000Y-83300000D01*
X170570000Y-79040000D02*
X171710000Y-79040000D01*
X174430000Y-82220000D02*
X174430000Y-83530000D01*
X174430000Y-83530000D02*
X171710000Y-83530000D01*
X177395000Y-58690000D02*
X177395000Y-56090000D01*
X180055000Y-58690000D02*
X177395000Y-58690000D01*
X180055000Y-56090000D02*
X177395000Y-56090000D01*
X178725000Y-61290000D02*
X177395000Y-61290000D01*
X177395000Y-61290000D02*
X177395000Y-59960000D01*
X180055000Y-58690000D02*
X180055000Y-56090000D01*
X124645276Y-65322500D02*
X125154724Y-65322500D01*
X124645276Y-64277500D02*
X125154724Y-64277500D01*
X126890000Y-91877064D02*
X126890000Y-87522936D01*
X130310000Y-91877064D02*
X130310000Y-87522936D01*
X151645276Y-91222500D02*
X152154724Y-91222500D01*
X151645276Y-90177500D02*
X152154724Y-90177500D01*
X120946267Y-45090000D02*
X120653733Y-45090000D01*
X120946267Y-46110000D02*
X120653733Y-46110000D01*
X144400000Y-68110000D02*
X145900000Y-68110000D01*
X144400000Y-64890000D02*
X145900000Y-64890000D01*
X144400000Y-68110000D02*
X142900000Y-68110000D01*
X144400000Y-64890000D02*
X141475000Y-64890000D01*
X174946267Y-45090000D02*
X174653733Y-45090000D01*
X174946267Y-46110000D02*
X174653733Y-46110000D01*
X171254724Y-69077500D02*
X170745276Y-69077500D01*
X171254724Y-70122500D02*
X170745276Y-70122500D01*
X170513733Y-61290000D02*
X170806267Y-61290000D01*
X170513733Y-60270000D02*
X170806267Y-60270000D01*
X185480000Y-48470000D02*
X186810000Y-48470000D01*
X184210000Y-48470000D02*
X184210000Y-51130000D01*
X181610000Y-48470000D02*
X181610000Y-51130000D01*
X184210000Y-51130000D02*
X181610000Y-51130000D01*
X186810000Y-48470000D02*
X186810000Y-49800000D01*
X184210000Y-48470000D02*
X181610000Y-48470000D01*
X179153733Y-79270000D02*
X179446267Y-79270000D01*
X179153733Y-78250000D02*
X179446267Y-78250000D01*
X178725000Y-85290000D02*
X177395000Y-85290000D01*
X180055000Y-82690000D02*
X177395000Y-82690000D01*
X177395000Y-85290000D02*
X177395000Y-83960000D01*
X180055000Y-82690000D02*
X180055000Y-80090000D01*
X177395000Y-82690000D02*
X177395000Y-80090000D01*
X180055000Y-80090000D02*
X177395000Y-80090000D01*
X171400000Y-40890000D02*
X172900000Y-40890000D01*
X171400000Y-44110000D02*
X169900000Y-44110000D01*
X171400000Y-40890000D02*
X168475000Y-40890000D01*
X171400000Y-44110000D02*
X172900000Y-44110000D01*
X151645276Y-67222500D02*
X152154724Y-67222500D01*
X151645276Y-66177500D02*
X152154724Y-66177500D01*
X167870000Y-56438767D02*
X167870000Y-56146233D01*
X168890000Y-56438767D02*
X168890000Y-56146233D01*
X126055000Y-58690000D02*
X126055000Y-56090000D01*
X124725000Y-61290000D02*
X123395000Y-61290000D01*
X123395000Y-61290000D02*
X123395000Y-59960000D01*
X126055000Y-58690000D02*
X123395000Y-58690000D01*
X126055000Y-56090000D02*
X123395000Y-56090000D01*
X123395000Y-58690000D02*
X123395000Y-56090000D01*
X120946267Y-94110000D02*
X120653733Y-94110000D01*
X120946267Y-93090000D02*
X120653733Y-93090000D01*
X120430000Y-54810000D02*
X120430000Y-56120000D01*
X120430000Y-58220000D02*
X120430000Y-59530000D01*
X117710000Y-59530000D02*
X117710000Y-59300000D01*
X120430000Y-59530000D02*
X117710000Y-59530000D01*
X116570000Y-55040000D02*
X117710000Y-55040000D01*
X117710000Y-54810000D02*
X120430000Y-54810000D01*
X117710000Y-54810000D02*
X117710000Y-55040000D01*
X182925000Y-35830000D02*
X181595000Y-35830000D01*
X186795000Y-35830000D02*
X186795000Y-33170000D01*
X184195000Y-35830000D02*
X186795000Y-35830000D01*
X184195000Y-35830000D02*
X184195000Y-33170000D01*
X181595000Y-35830000D02*
X181595000Y-34500000D01*
X184195000Y-33170000D02*
X186795000Y-33170000D01*
X127630000Y-54770000D02*
X127630000Y-53440000D01*
X130230000Y-56100000D02*
X130230000Y-53440000D01*
X130230000Y-53440000D02*
X132830000Y-53440000D01*
X132830000Y-56100000D02*
X132830000Y-53440000D01*
X130230000Y-56100000D02*
X132830000Y-56100000D01*
X127630000Y-53440000D02*
X128960000Y-53440000D01*
X117710000Y-35530000D02*
X117710000Y-35300000D01*
X120430000Y-34220000D02*
X120430000Y-35530000D01*
X120430000Y-35530000D02*
X117710000Y-35530000D01*
X116570000Y-31040000D02*
X117710000Y-31040000D01*
X117710000Y-30810000D02*
X120430000Y-30810000D01*
X117710000Y-30810000D02*
X117710000Y-31040000D01*
X120430000Y-30810000D02*
X120430000Y-32120000D01*
X122910000Y-41616233D02*
X122910000Y-41908767D01*
X121890000Y-41616233D02*
X121890000Y-41908767D01*
X130230000Y-29440000D02*
X132830000Y-29440000D01*
X127630000Y-30770000D02*
X127630000Y-29440000D01*
X127630000Y-29440000D02*
X128960000Y-29440000D01*
X132830000Y-32100000D02*
X132830000Y-29440000D01*
X130230000Y-32100000D02*
X132830000Y-32100000D01*
X130230000Y-32100000D02*
X130230000Y-29440000D01*
X151645276Y-88277500D02*
X152154724Y-88277500D01*
X151645276Y-89322500D02*
X152154724Y-89322500D01*
X135970000Y-57725000D02*
X138630000Y-57725000D01*
X135970000Y-57725000D02*
X135970000Y-75565000D01*
X138630000Y-55125000D02*
X138630000Y-56455000D01*
X137300000Y-55125000D02*
X138630000Y-55125000D01*
X138630000Y-57725000D02*
X138630000Y-75565000D01*
X135970000Y-75565000D02*
X138630000Y-75565000D01*
X141890000Y-56438767D02*
X141890000Y-56146233D01*
X140870000Y-56438767D02*
X140870000Y-56146233D01*
X154630000Y-29440000D02*
X155960000Y-29440000D01*
X157230000Y-29440000D02*
X159830000Y-29440000D01*
X157230000Y-32100000D02*
X159830000Y-32100000D01*
X159830000Y-32100000D02*
X159830000Y-29440000D01*
X154630000Y-30770000D02*
X154630000Y-29440000D01*
X157230000Y-32100000D02*
X157230000Y-29440000D01*
X174946267Y-69090000D02*
X174653733Y-69090000D01*
X174946267Y-70110000D02*
X174653733Y-70110000D01*
X174946267Y-94110000D02*
X174653733Y-94110000D01*
X174946267Y-93090000D02*
X174653733Y-93090000D01*
X114890000Y-56438767D02*
X114890000Y-56146233D01*
X113870000Y-56438767D02*
X113870000Y-56146233D01*
X124645276Y-67222500D02*
X125154724Y-67222500D01*
X124645276Y-66177500D02*
X125154724Y-66177500D01*
X120430000Y-78810000D02*
X120430000Y-80120000D01*
X120430000Y-83530000D02*
X117710000Y-83530000D01*
X117710000Y-78810000D02*
X117710000Y-79040000D01*
X117710000Y-78810000D02*
X120430000Y-78810000D01*
X116570000Y-79040000D02*
X117710000Y-79040000D01*
X120430000Y-82220000D02*
X120430000Y-83530000D01*
X117710000Y-83530000D02*
X117710000Y-83300000D01*
X130210000Y-72470000D02*
X130210000Y-75130000D01*
X131480000Y-72470000D02*
X132810000Y-72470000D01*
X127610000Y-72470000D02*
X127610000Y-75130000D01*
X132810000Y-72470000D02*
X132810000Y-73800000D01*
X130210000Y-72470000D02*
X127610000Y-72470000D01*
X130210000Y-75130000D02*
X127610000Y-75130000D01*
X178645276Y-41322500D02*
X179154724Y-41322500D01*
X178645276Y-40277500D02*
X179154724Y-40277500D01*
X154595000Y-83830000D02*
X154595000Y-82500000D01*
X157195000Y-81170000D02*
X159795000Y-81170000D01*
X157195000Y-83830000D02*
X157195000Y-81170000D01*
X157195000Y-83830000D02*
X159795000Y-83830000D01*
X155925000Y-83830000D02*
X154595000Y-83830000D01*
X159795000Y-83830000D02*
X159795000Y-81170000D01*
X143570000Y-79040000D02*
X144710000Y-79040000D01*
X144710000Y-78810000D02*
X144710000Y-79040000D01*
X147430000Y-78810000D02*
X147430000Y-80120000D01*
X147430000Y-82220000D02*
X147430000Y-83530000D01*
X144710000Y-78810000D02*
X147430000Y-78810000D01*
X144710000Y-83530000D02*
X144710000Y-83300000D01*
X147430000Y-83530000D02*
X144710000Y-83530000D01*
X144254724Y-93077500D02*
X143745276Y-93077500D01*
X144254724Y-94122500D02*
X143745276Y-94122500D01*
X108970000Y-33725000D02*
X108970000Y-51565000D01*
X110300000Y-31125000D02*
X111630000Y-31125000D01*
X108970000Y-33725000D02*
X111630000Y-33725000D01*
X108970000Y-51565000D02*
X111630000Y-51565000D01*
X111630000Y-33725000D02*
X111630000Y-51565000D01*
X111630000Y-31125000D02*
X111630000Y-32455000D01*
X130310000Y-43877064D02*
X130310000Y-39522936D01*
X126890000Y-43877064D02*
X126890000Y-39522936D01*
X111630000Y-81725000D02*
X111630000Y-99565000D01*
X108970000Y-81725000D02*
X111630000Y-81725000D01*
X111630000Y-79125000D02*
X111630000Y-80455000D01*
X110300000Y-79125000D02*
X111630000Y-79125000D01*
X108970000Y-81725000D02*
X108970000Y-99565000D01*
X108970000Y-99565000D02*
X111630000Y-99565000D01*
X184210000Y-75130000D02*
X181610000Y-75130000D01*
X184210000Y-72470000D02*
X184210000Y-75130000D01*
X181610000Y-72470000D02*
X181610000Y-75130000D01*
X185480000Y-72470000D02*
X186810000Y-72470000D01*
X184210000Y-72470000D02*
X181610000Y-72470000D01*
X186810000Y-72470000D02*
X186810000Y-73800000D01*
X117400000Y-68110000D02*
X118900000Y-68110000D01*
X117400000Y-64890000D02*
X114475000Y-64890000D01*
X117400000Y-68110000D02*
X115900000Y-68110000D01*
X117400000Y-64890000D02*
X118900000Y-64890000D01*
X152153733Y-78250000D02*
X152446267Y-78250000D01*
X152153733Y-79270000D02*
X152446267Y-79270000D01*
X147946267Y-45090000D02*
X147653733Y-45090000D01*
X147946267Y-46110000D02*
X147653733Y-46110000D01*
X116513733Y-37290000D02*
X116806267Y-37290000D01*
X116513733Y-36270000D02*
X116806267Y-36270000D01*
X117254724Y-69077500D02*
X116745276Y-69077500D01*
X117254724Y-70122500D02*
X116745276Y-70122500D01*
X124645276Y-89322500D02*
X125154724Y-89322500D01*
X124645276Y-88277500D02*
X125154724Y-88277500D01*
X130210000Y-96470000D02*
X130210000Y-99130000D01*
X130210000Y-96470000D02*
X127610000Y-96470000D01*
X130210000Y-99130000D02*
X127610000Y-99130000D01*
X131480000Y-96470000D02*
X132810000Y-96470000D01*
X132810000Y-96470000D02*
X132810000Y-97800000D01*
X127610000Y-96470000D02*
X127610000Y-99130000D01*
X174430000Y-58220000D02*
X174430000Y-59530000D01*
X171710000Y-54810000D02*
X171710000Y-55040000D01*
X171710000Y-59530000D02*
X171710000Y-59300000D01*
X170570000Y-55040000D02*
X171710000Y-55040000D01*
X174430000Y-54810000D02*
X174430000Y-56120000D01*
X171710000Y-54810000D02*
X174430000Y-54810000D01*
X174430000Y-59530000D02*
X171710000Y-59530000D01*
X135970000Y-51565000D02*
X138630000Y-51565000D01*
X137300000Y-31125000D02*
X138630000Y-31125000D01*
X135970000Y-33725000D02*
X135970000Y-51565000D01*
X138630000Y-33725000D02*
X138630000Y-51565000D01*
X138630000Y-31125000D02*
X138630000Y-32455000D01*
X135970000Y-33725000D02*
X138630000Y-33725000D01*
X157195000Y-33170000D02*
X159795000Y-33170000D01*
X155925000Y-35830000D02*
X154595000Y-35830000D01*
X159795000Y-35830000D02*
X159795000Y-33170000D01*
X157195000Y-35830000D02*
X159795000Y-35830000D01*
X157195000Y-35830000D02*
X157195000Y-33170000D01*
X154595000Y-35830000D02*
X154595000Y-34500000D01*
X122910000Y-65616233D02*
X122910000Y-65908767D01*
X121890000Y-65616233D02*
X121890000Y-65908767D01*
X167870000Y-32438767D02*
X167870000Y-32146233D01*
X168890000Y-32438767D02*
X168890000Y-32146233D01*
X110300000Y-55125000D02*
X111630000Y-55125000D01*
X111630000Y-57725000D02*
X111630000Y-75565000D01*
X108970000Y-57725000D02*
X111630000Y-57725000D01*
X108970000Y-75565000D02*
X111630000Y-75565000D01*
X111630000Y-55125000D02*
X111630000Y-56455000D01*
X108970000Y-57725000D02*
X108970000Y-75565000D01*
X141890000Y-32438767D02*
X141890000Y-32146233D01*
X140870000Y-32438767D02*
X140870000Y-32146233D01*
X153890000Y-91877064D02*
X153890000Y-87522936D01*
X157310000Y-91877064D02*
X157310000Y-87522936D01*
X181630000Y-54770000D02*
X181630000Y-53440000D01*
X181630000Y-53440000D02*
X182960000Y-53440000D01*
X184230000Y-56100000D02*
X184230000Y-53440000D01*
X186830000Y-56100000D02*
X186830000Y-53440000D01*
X184230000Y-53440000D02*
X186830000Y-53440000D01*
X184230000Y-56100000D02*
X186830000Y-56100000D01*
X140870000Y-80438767D02*
X140870000Y-80146233D01*
X141890000Y-80438767D02*
X141890000Y-80146233D01*
X178645276Y-64277500D02*
X179154724Y-64277500D01*
X178645276Y-65322500D02*
X179154724Y-65322500D01*
X179153733Y-31270000D02*
X179446267Y-31270000D01*
X179153733Y-30250000D02*
X179446267Y-30250000D01*
X143513733Y-60270000D02*
X143806267Y-60270000D01*
X143513733Y-61290000D02*
X143806267Y-61290000D01*
X157310000Y-67877064D02*
X157310000Y-63522936D01*
X153890000Y-67877064D02*
X153890000Y-63522936D01*
X184195000Y-57170000D02*
X186795000Y-57170000D01*
X182925000Y-59830000D02*
X181595000Y-59830000D01*
X186795000Y-59830000D02*
X186795000Y-57170000D01*
X181595000Y-59830000D02*
X181595000Y-58500000D01*
X184195000Y-59830000D02*
X184195000Y-57170000D01*
X184195000Y-59830000D02*
X186795000Y-59830000D01*
X151645276Y-41322500D02*
X152154724Y-41322500D01*
X151645276Y-40277500D02*
X152154724Y-40277500D01*
X125153733Y-31270000D02*
X125446267Y-31270000D01*
X125153733Y-30250000D02*
X125446267Y-30250000D01*
X178645276Y-88277500D02*
X179154724Y-88277500D01*
X178645276Y-89322500D02*
X179154724Y-89322500D01*
X116513733Y-60270000D02*
X116806267Y-60270000D01*
X116513733Y-61290000D02*
X116806267Y-61290000D01*
X157230000Y-77440000D02*
X159830000Y-77440000D01*
X154630000Y-78770000D02*
X154630000Y-77440000D01*
X157230000Y-80100000D02*
X157230000Y-77440000D01*
X157230000Y-80100000D02*
X159830000Y-80100000D01*
X154630000Y-77440000D02*
X155960000Y-77440000D01*
X159830000Y-80100000D02*
X159830000Y-77440000D01*
X143513733Y-84270000D02*
X143806267Y-84270000D01*
X143513733Y-85290000D02*
X143806267Y-85290000D01*
X130195000Y-57170000D02*
X132795000Y-57170000D01*
X130195000Y-59830000D02*
X132795000Y-59830000D01*
X130195000Y-59830000D02*
X130195000Y-57170000D01*
X132795000Y-59830000D02*
X132795000Y-57170000D01*
X128925000Y-59830000D02*
X127595000Y-59830000D01*
X127595000Y-59830000D02*
X127595000Y-58500000D01*
X126890000Y-67877064D02*
X126890000Y-63522936D01*
X130310000Y-67877064D02*
X130310000Y-63522936D01*
X165630000Y-57725000D02*
X165630000Y-75565000D01*
X165630000Y-55125000D02*
X165630000Y-56455000D01*
X162970000Y-75565000D02*
X165630000Y-75565000D01*
X164300000Y-55125000D02*
X165630000Y-55125000D01*
X162970000Y-57725000D02*
X162970000Y-75565000D01*
X162970000Y-57725000D02*
X165630000Y-57725000D01*
X178645276Y-67222500D02*
X179154724Y-67222500D01*
X178645276Y-66177500D02*
X179154724Y-66177500D01*
X186795000Y-83830000D02*
X186795000Y-81170000D01*
X182925000Y-83830000D02*
X181595000Y-83830000D01*
X181595000Y-83830000D02*
X181595000Y-82500000D01*
X184195000Y-81170000D02*
X186795000Y-81170000D01*
X184195000Y-83830000D02*
X184195000Y-81170000D01*
X184195000Y-83830000D02*
X186795000Y-83830000D01*
X140350000Y-81926267D02*
X140350000Y-81633733D01*
X139330000Y-81926267D02*
X139330000Y-81633733D01*
X112330000Y-81926267D02*
X112330000Y-81633733D01*
X113350000Y-81926267D02*
X113350000Y-81633733D01*
X114890000Y-32438767D02*
X114890000Y-32146233D01*
X113870000Y-32438767D02*
X113870000Y-32146233D01*
X124645276Y-43222500D02*
X125154724Y-43222500D01*
X124645276Y-42177500D02*
X125154724Y-42177500D01*
X122910000Y-89616233D02*
X122910000Y-89908767D01*
X121890000Y-89616233D02*
X121890000Y-89908767D01*
X112330000Y-33926267D02*
X112330000Y-33633733D01*
X113350000Y-33926267D02*
X113350000Y-33633733D01*
X144254724Y-45077500D02*
X143745276Y-45077500D01*
X144254724Y-46122500D02*
X143745276Y-46122500D01*
X125153733Y-54250000D02*
X125446267Y-54250000D01*
X125153733Y-55270000D02*
X125446267Y-55270000D01*
X139330000Y-57926267D02*
X139330000Y-57633733D01*
X140350000Y-57926267D02*
X140350000Y-57633733D01*
X178645276Y-43222500D02*
X179154724Y-43222500D01*
X178645276Y-42177500D02*
X179154724Y-42177500D01*
X175890000Y-41616233D02*
X175890000Y-41908767D01*
X176910000Y-41616233D02*
X176910000Y-41908767D01*
X144400000Y-40890000D02*
X141475000Y-40890000D01*
X144400000Y-44110000D02*
X142900000Y-44110000D01*
X144400000Y-40890000D02*
X145900000Y-40890000D01*
X144400000Y-44110000D02*
X145900000Y-44110000D01*
X130230000Y-80100000D02*
X130230000Y-77440000D01*
X132830000Y-80100000D02*
X132830000Y-77440000D01*
X130230000Y-77440000D02*
X132830000Y-77440000D01*
X127630000Y-77440000D02*
X128960000Y-77440000D01*
X127630000Y-78770000D02*
X127630000Y-77440000D01*
X130230000Y-80100000D02*
X132830000Y-80100000D01*
X124645276Y-90177500D02*
X125154724Y-90177500D01*
X124645276Y-91222500D02*
X125154724Y-91222500D01*
X147430000Y-59530000D02*
X144710000Y-59530000D01*
X147430000Y-54810000D02*
X147430000Y-56120000D01*
X144710000Y-54810000D02*
X144710000Y-55040000D01*
X144710000Y-54810000D02*
X147430000Y-54810000D01*
X143570000Y-55040000D02*
X144710000Y-55040000D01*
X147430000Y-58220000D02*
X147430000Y-59530000D01*
X144710000Y-59530000D02*
X144710000Y-59300000D01*
X149910000Y-89616233D02*
X149910000Y-89908767D01*
X148890000Y-89616233D02*
X148890000Y-89908767D01*
X179153733Y-55270000D02*
X179446267Y-55270000D01*
X179153733Y-54250000D02*
X179446267Y-54250000D01*
X180890000Y-43877064D02*
X180890000Y-39522936D01*
X184310000Y-43877064D02*
X184310000Y-39522936D01*
X116513733Y-84270000D02*
X116806267Y-84270000D01*
X116513733Y-85290000D02*
X116806267Y-85290000D01*
X153055000Y-34690000D02*
X153055000Y-32090000D01*
X150395000Y-37290000D02*
X150395000Y-35960000D01*
X153055000Y-34690000D02*
X150395000Y-34690000D01*
X150395000Y-34690000D02*
X150395000Y-32090000D01*
X151725000Y-37290000D02*
X150395000Y-37290000D01*
X153055000Y-32090000D02*
X150395000Y-32090000D01*
X155925000Y-59830000D02*
X154595000Y-59830000D01*
X154595000Y-59830000D02*
X154595000Y-58500000D01*
X157195000Y-57170000D02*
X159795000Y-57170000D01*
X159795000Y-59830000D02*
X159795000Y-57170000D01*
X157195000Y-59830000D02*
X157195000Y-57170000D01*
X157195000Y-59830000D02*
X159795000Y-59830000D01*
X124645276Y-41322500D02*
X125154724Y-41322500D01*
X124645276Y-40277500D02*
X125154724Y-40277500D01*
X144400000Y-92110000D02*
X145900000Y-92110000D01*
X144400000Y-88890000D02*
X141475000Y-88890000D01*
X144400000Y-92110000D02*
X142900000Y-92110000D01*
X144400000Y-88890000D02*
X145900000Y-88890000D01*
X127595000Y-35830000D02*
X127595000Y-34500000D01*
X128925000Y-35830000D02*
X127595000Y-35830000D01*
X130195000Y-33170000D02*
X132795000Y-33170000D01*
X132795000Y-35830000D02*
X132795000Y-33170000D01*
X130195000Y-35830000D02*
X130195000Y-33170000D01*
X130195000Y-35830000D02*
X132795000Y-35830000D01*
X135970000Y-99565000D02*
X138630000Y-99565000D01*
X137300000Y-79125000D02*
X138630000Y-79125000D01*
X135970000Y-81725000D02*
X135970000Y-99565000D01*
X138630000Y-81725000D02*
X138630000Y-99565000D01*
X138630000Y-79125000D02*
X138630000Y-80455000D01*
X135970000Y-81725000D02*
X138630000Y-81725000D01*
X162970000Y-51565000D02*
X165630000Y-51565000D01*
X162970000Y-33725000D02*
X165630000Y-33725000D01*
X164300000Y-31125000D02*
X165630000Y-31125000D01*
X162970000Y-33725000D02*
X162970000Y-51565000D01*
X165630000Y-33725000D02*
X165630000Y-51565000D01*
X165630000Y-31125000D02*
X165630000Y-32455000D01*
X176910000Y-89616233D02*
X176910000Y-89908767D01*
X175890000Y-89616233D02*
X175890000Y-89908767D01*
X184230000Y-32100000D02*
X184230000Y-29440000D01*
X184230000Y-32100000D02*
X186830000Y-32100000D01*
X181630000Y-30770000D02*
X181630000Y-29440000D01*
X184230000Y-29440000D02*
X186830000Y-29440000D01*
X186830000Y-32100000D02*
X186830000Y-29440000D01*
X181630000Y-29440000D02*
X182960000Y-29440000D01*
X120946267Y-69090000D02*
X120653733Y-69090000D01*
X120946267Y-70110000D02*
X120653733Y-70110000D01*
X171400000Y-68110000D02*
X172900000Y-68110000D01*
X171400000Y-64890000D02*
X168475000Y-64890000D01*
X171400000Y-64890000D02*
X172900000Y-64890000D01*
X171400000Y-68110000D02*
X169900000Y-68110000D01*
X130210000Y-51130000D02*
X127610000Y-51130000D01*
X127610000Y-48470000D02*
X127610000Y-51130000D01*
X131480000Y-48470000D02*
X132810000Y-48470000D01*
X132810000Y-48470000D02*
X132810000Y-49800000D01*
X130210000Y-48470000D02*
X130210000Y-51130000D01*
X130210000Y-48470000D02*
X127610000Y-48470000D01*
X162970000Y-81725000D02*
X165630000Y-81725000D01*
X162970000Y-99565000D02*
X165630000Y-99565000D01*
X165630000Y-81725000D02*
X165630000Y-99565000D01*
X162970000Y-81725000D02*
X162970000Y-99565000D01*
X164300000Y-79125000D02*
X165630000Y-79125000D01*
X165630000Y-79125000D02*
X165630000Y-80455000D01*
X157310000Y-43877064D02*
X157310000Y-39522936D01*
X153890000Y-43877064D02*
X153890000Y-39522936D01*
X171400000Y-88890000D02*
X172900000Y-88890000D01*
X171400000Y-92110000D02*
X169900000Y-92110000D01*
X171400000Y-88890000D02*
X168475000Y-88890000D01*
X171400000Y-92110000D02*
X172900000Y-92110000D01*
X117400000Y-92110000D02*
X115900000Y-92110000D01*
X117400000Y-92110000D02*
X118900000Y-92110000D01*
X117400000Y-88890000D02*
X118900000Y-88890000D01*
X117400000Y-88890000D02*
X114475000Y-88890000D01*
X139330000Y-33926267D02*
X139330000Y-33633733D01*
X140350000Y-33926267D02*
X140350000Y-33633733D01*
X152153733Y-30250000D02*
X152446267Y-30250000D01*
X152153733Y-31270000D02*
X152446267Y-31270000D01*
X143513733Y-37290000D02*
X143806267Y-37290000D01*
X143513733Y-36270000D02*
X143806267Y-36270000D01*
X170513733Y-85290000D02*
X170806267Y-85290000D01*
X170513733Y-84270000D02*
X170806267Y-84270000D01*
%LPC*%
D13*
X150987500Y-42700000D03*
X152812500Y-42700000D03*
D14*
X195000000Y-105000000D03*
D15*
X169797500Y-36780000D03*
X171522500Y-36780000D03*
D16*
X155960000Y-54770000D03*
D17*
X158500000Y-54770000D03*
D18*
X112840000Y-58642500D03*
X112840000Y-56917500D03*
X168380000Y-81155000D03*
X168380000Y-79430000D03*
D19*
X117912500Y-93600000D03*
X116087500Y-93600000D03*
D16*
X185480000Y-97800000D03*
D17*
X182940000Y-97800000D03*
D19*
X171912500Y-45600000D03*
X170087500Y-45600000D03*
D20*
X149400000Y-40900000D03*
X149400000Y-42625000D03*
D19*
X117912500Y-45600000D03*
X116087500Y-45600000D03*
D16*
X182960000Y-78770000D03*
D17*
X185500000Y-78770000D03*
D21*
X143620000Y-31670000D03*
D22*
X143707500Y-33170000D03*
D21*
X143620000Y-34670000D03*
D20*
X149400000Y-64900000D03*
X149400000Y-66625000D03*
D18*
X166840000Y-82642500D03*
X166840000Y-80917500D03*
D23*
X115200000Y-41500000D03*
X115200000Y-42000000D03*
X115200000Y-42500000D03*
X115200000Y-43000000D03*
X115200000Y-43500000D03*
X119600000Y-43500000D03*
X119600000Y-43000000D03*
X119600000Y-42500000D03*
X119600000Y-42000000D03*
X119600000Y-41500000D03*
D16*
X158480000Y-97800000D03*
D17*
X155940000Y-97800000D03*
D19*
X144912500Y-69600000D03*
X143087500Y-69600000D03*
D16*
X151725000Y-59960000D03*
D17*
X151725000Y-57420000D03*
D16*
X124725000Y-35960000D03*
D17*
X124725000Y-33420000D03*
D16*
X158480000Y-49800000D03*
D17*
X155940000Y-49800000D03*
D24*
X148662500Y-69600000D03*
X146937500Y-69600000D03*
D18*
X114380000Y-81155000D03*
X114380000Y-79430000D03*
D15*
X151437500Y-54760000D03*
X153162500Y-54760000D03*
D21*
X170620000Y-31670000D03*
D22*
X170707500Y-33170000D03*
D21*
X170620000Y-34670000D03*
D14*
X195000000Y-25000000D03*
D24*
X148662500Y-93600000D03*
X146937500Y-93600000D03*
D16*
X128925000Y-82500000D03*
D17*
X131465000Y-82500000D03*
D16*
X178725000Y-35960000D03*
D17*
X178725000Y-33420000D03*
D20*
X176400000Y-64900000D03*
X176400000Y-66625000D03*
D18*
X166840000Y-34642500D03*
X166840000Y-32917500D03*
D15*
X124437500Y-78760000D03*
X126162500Y-78760000D03*
D13*
X150987500Y-64800000D03*
X152812500Y-64800000D03*
D16*
X158480000Y-73800000D03*
D17*
X155940000Y-73800000D03*
D18*
X166840000Y-58642500D03*
X166840000Y-56917500D03*
D16*
X124725000Y-83960000D03*
D17*
X124725000Y-81420000D03*
D16*
X151725000Y-83960000D03*
D17*
X151725000Y-81420000D03*
D25*
X192000000Y-106000000D03*
D13*
X177987500Y-90700000D03*
X179812500Y-90700000D03*
D26*
X182600000Y-92750000D03*
X182600000Y-86650000D03*
D19*
X171912500Y-93600000D03*
X170087500Y-93600000D03*
D26*
X182600000Y-68750000D03*
X182600000Y-62650000D03*
D21*
X170620000Y-79670000D03*
D22*
X170707500Y-81170000D03*
D21*
X170620000Y-82670000D03*
D16*
X178725000Y-59960000D03*
D17*
X178725000Y-57420000D03*
D13*
X123987500Y-64800000D03*
X125812500Y-64800000D03*
D26*
X128600000Y-92750000D03*
X128600000Y-86650000D03*
D13*
X150987500Y-90700000D03*
X152812500Y-90700000D03*
D24*
X121662500Y-45600000D03*
X119937500Y-45600000D03*
D14*
X102000000Y-25000000D03*
D23*
X142200000Y-65500000D03*
X142200000Y-66000000D03*
X142200000Y-66500000D03*
X142200000Y-67000000D03*
X142200000Y-67500000D03*
X146600000Y-67500000D03*
X146600000Y-67000000D03*
X146600000Y-66500000D03*
X146600000Y-66000000D03*
X146600000Y-65500000D03*
D24*
X175662500Y-45600000D03*
X173937500Y-45600000D03*
D19*
X171912500Y-69600000D03*
X170087500Y-69600000D03*
D15*
X169797500Y-60780000D03*
X171522500Y-60780000D03*
D16*
X185480000Y-49800000D03*
D17*
X182940000Y-49800000D03*
D15*
X178437500Y-78760000D03*
X180162500Y-78760000D03*
D16*
X178725000Y-83960000D03*
D17*
X178725000Y-81420000D03*
D23*
X169200000Y-41500000D03*
X169200000Y-42000000D03*
X169200000Y-42500000D03*
X169200000Y-43000000D03*
X169200000Y-43500000D03*
X173600000Y-43500000D03*
X173600000Y-43000000D03*
X173600000Y-42500000D03*
X173600000Y-42000000D03*
X173600000Y-41500000D03*
D13*
X150987500Y-66700000D03*
X152812500Y-66700000D03*
D18*
X168380000Y-57155000D03*
X168380000Y-55430000D03*
D16*
X124725000Y-59960000D03*
D17*
X124725000Y-57420000D03*
D24*
X121662500Y-93600000D03*
X119937500Y-93600000D03*
D21*
X116620000Y-55670000D03*
D22*
X116707500Y-57170000D03*
D21*
X116620000Y-58670000D03*
D16*
X182925000Y-34500000D03*
D17*
X185465000Y-34500000D03*
D16*
X128960000Y-54770000D03*
D17*
X131500000Y-54770000D03*
D21*
X116620000Y-31670000D03*
D22*
X116707500Y-33170000D03*
D21*
X116620000Y-34670000D03*
D20*
X122400000Y-40900000D03*
X122400000Y-42625000D03*
D16*
X128960000Y-30770000D03*
D17*
X131500000Y-30770000D03*
D13*
X150987500Y-88800000D03*
X152812500Y-88800000D03*
D16*
X137300000Y-56455000D03*
D17*
X137300000Y-58995000D03*
X137300000Y-61535000D03*
X137300000Y-64075000D03*
X137300000Y-66615000D03*
X137300000Y-69155000D03*
X137300000Y-71695000D03*
X137300000Y-74235000D03*
D18*
X141380000Y-57155000D03*
X141380000Y-55430000D03*
D16*
X155960000Y-30770000D03*
D17*
X158500000Y-30770000D03*
D24*
X175662500Y-69600000D03*
X173937500Y-69600000D03*
X175662500Y-93600000D03*
X173937500Y-93600000D03*
D18*
X114380000Y-57155000D03*
X114380000Y-55430000D03*
D13*
X123987500Y-66700000D03*
X125812500Y-66700000D03*
D21*
X116620000Y-79670000D03*
D22*
X116707500Y-81170000D03*
D21*
X116620000Y-82670000D03*
D16*
X131480000Y-73800000D03*
D17*
X128940000Y-73800000D03*
D13*
X177987500Y-40800000D03*
X179812500Y-40800000D03*
D16*
X155925000Y-82500000D03*
D17*
X158465000Y-82500000D03*
D21*
X143620000Y-79670000D03*
D22*
X143707500Y-81170000D03*
D21*
X143620000Y-82670000D03*
D19*
X144912500Y-93600000D03*
X143087500Y-93600000D03*
D16*
X110300000Y-32455000D03*
D17*
X110300000Y-34995000D03*
X110300000Y-37535000D03*
X110300000Y-40075000D03*
X110300000Y-42615000D03*
X110300000Y-45155000D03*
X110300000Y-47695000D03*
X110300000Y-50235000D03*
D26*
X128600000Y-44750000D03*
X128600000Y-38650000D03*
D16*
X110300000Y-80455000D03*
D17*
X110300000Y-82995000D03*
X110300000Y-85535000D03*
X110300000Y-88075000D03*
X110300000Y-90615000D03*
X110300000Y-93155000D03*
X110300000Y-95695000D03*
X110300000Y-98235000D03*
D16*
X185480000Y-73800000D03*
D17*
X182940000Y-73800000D03*
D23*
X115200000Y-65500000D03*
X115200000Y-66000000D03*
X115200000Y-66500000D03*
X115200000Y-67000000D03*
X115200000Y-67500000D03*
X119600000Y-67500000D03*
X119600000Y-67000000D03*
X119600000Y-66500000D03*
X119600000Y-66000000D03*
X119600000Y-65500000D03*
D15*
X151437500Y-78760000D03*
X153162500Y-78760000D03*
D24*
X148662500Y-45600000D03*
X146937500Y-45600000D03*
D15*
X115797500Y-36780000D03*
X117522500Y-36780000D03*
D19*
X117912500Y-69600000D03*
X116087500Y-69600000D03*
D13*
X123987500Y-88800000D03*
X125812500Y-88800000D03*
D16*
X131480000Y-97800000D03*
D17*
X128940000Y-97800000D03*
D21*
X170620000Y-55670000D03*
D22*
X170707500Y-57170000D03*
D21*
X170620000Y-58670000D03*
D16*
X137300000Y-32455000D03*
D17*
X137300000Y-34995000D03*
X137300000Y-37535000D03*
X137300000Y-40075000D03*
X137300000Y-42615000D03*
X137300000Y-45155000D03*
X137300000Y-47695000D03*
X137300000Y-50235000D03*
D16*
X155925000Y-34500000D03*
D17*
X158465000Y-34500000D03*
D20*
X122400000Y-64900000D03*
X122400000Y-66625000D03*
D18*
X168380000Y-33155000D03*
X168380000Y-31430000D03*
D16*
X110300000Y-56455000D03*
D17*
X110300000Y-58995000D03*
X110300000Y-61535000D03*
X110300000Y-64075000D03*
X110300000Y-66615000D03*
X110300000Y-69155000D03*
X110300000Y-71695000D03*
X110300000Y-74235000D03*
D18*
X141380000Y-33155000D03*
X141380000Y-31430000D03*
D26*
X155600000Y-92750000D03*
X155600000Y-86650000D03*
D16*
X182960000Y-54770000D03*
D17*
X185500000Y-54770000D03*
D18*
X141380000Y-81155000D03*
X141380000Y-79430000D03*
D13*
X177987500Y-64800000D03*
X179812500Y-64800000D03*
D25*
X105000000Y-106000000D03*
D15*
X178437500Y-30760000D03*
X180162500Y-30760000D03*
X142797500Y-60780000D03*
X144522500Y-60780000D03*
D26*
X155600000Y-68750000D03*
X155600000Y-62650000D03*
D16*
X182925000Y-58500000D03*
D17*
X185465000Y-58500000D03*
D13*
X150987500Y-40800000D03*
X152812500Y-40800000D03*
D15*
X124437500Y-30760000D03*
X126162500Y-30760000D03*
D13*
X177987500Y-88800000D03*
X179812500Y-88800000D03*
D15*
X115797500Y-60780000D03*
X117522500Y-60780000D03*
D16*
X155960000Y-78770000D03*
D17*
X158500000Y-78770000D03*
D15*
X142797500Y-84780000D03*
X144522500Y-84780000D03*
D25*
X192000000Y-24000000D03*
D16*
X128925000Y-58500000D03*
D17*
X131465000Y-58500000D03*
D26*
X128600000Y-68750000D03*
X128600000Y-62650000D03*
D14*
X102000000Y-105000000D03*
D16*
X164300000Y-56455000D03*
D17*
X164300000Y-58995000D03*
X164300000Y-61535000D03*
X164300000Y-64075000D03*
X164300000Y-66615000D03*
X164300000Y-69155000D03*
X164300000Y-71695000D03*
X164300000Y-74235000D03*
D13*
X177987500Y-66700000D03*
X179812500Y-66700000D03*
D16*
X182925000Y-82500000D03*
D17*
X185465000Y-82500000D03*
D18*
X139840000Y-82642500D03*
X139840000Y-80917500D03*
X112840000Y-82642500D03*
X112840000Y-80917500D03*
X114380000Y-33155000D03*
X114380000Y-31430000D03*
D13*
X123987500Y-42700000D03*
X125812500Y-42700000D03*
D20*
X122400000Y-88900000D03*
X122400000Y-90625000D03*
D18*
X112840000Y-34642500D03*
X112840000Y-32917500D03*
D19*
X144912500Y-45600000D03*
X143087500Y-45600000D03*
D15*
X124437500Y-54760000D03*
X126162500Y-54760000D03*
D18*
X139840000Y-58642500D03*
X139840000Y-56917500D03*
D13*
X177987500Y-42700000D03*
X179812500Y-42700000D03*
D20*
X176400000Y-40900000D03*
X176400000Y-42625000D03*
D23*
X142200000Y-41500000D03*
X142200000Y-42000000D03*
X142200000Y-42500000D03*
X142200000Y-43000000D03*
X142200000Y-43500000D03*
X146600000Y-43500000D03*
X146600000Y-43000000D03*
X146600000Y-42500000D03*
X146600000Y-42000000D03*
X146600000Y-41500000D03*
D16*
X128960000Y-78770000D03*
D17*
X131500000Y-78770000D03*
D13*
X123987500Y-90700000D03*
X125812500Y-90700000D03*
D21*
X143620000Y-55670000D03*
D22*
X143707500Y-57170000D03*
D21*
X143620000Y-58670000D03*
D20*
X149400000Y-88900000D03*
X149400000Y-90625000D03*
D15*
X178437500Y-54760000D03*
X180162500Y-54760000D03*
D25*
X105000000Y-24000000D03*
D26*
X182600000Y-44750000D03*
X182600000Y-38650000D03*
D15*
X115797500Y-84780000D03*
X117522500Y-84780000D03*
D16*
X151725000Y-35960000D03*
D17*
X151725000Y-33420000D03*
D16*
X155925000Y-58500000D03*
D17*
X158465000Y-58500000D03*
D13*
X123987500Y-40800000D03*
X125812500Y-40800000D03*
D23*
X142200000Y-89500000D03*
X142200000Y-90000000D03*
X142200000Y-90500000D03*
X142200000Y-91000000D03*
X142200000Y-91500000D03*
X146600000Y-91500000D03*
X146600000Y-91000000D03*
X146600000Y-90500000D03*
X146600000Y-90000000D03*
X146600000Y-89500000D03*
D16*
X128925000Y-34500000D03*
D17*
X131465000Y-34500000D03*
D16*
X137300000Y-80455000D03*
D17*
X137300000Y-82995000D03*
X137300000Y-85535000D03*
X137300000Y-88075000D03*
X137300000Y-90615000D03*
X137300000Y-93155000D03*
X137300000Y-95695000D03*
X137300000Y-98235000D03*
D16*
X164300000Y-32455000D03*
D17*
X164300000Y-34995000D03*
X164300000Y-37535000D03*
X164300000Y-40075000D03*
X164300000Y-42615000D03*
X164300000Y-45155000D03*
X164300000Y-47695000D03*
X164300000Y-50235000D03*
D20*
X176400000Y-88900000D03*
X176400000Y-90625000D03*
D16*
X182960000Y-30770000D03*
D17*
X185500000Y-30770000D03*
D24*
X121662500Y-69600000D03*
X119937500Y-69600000D03*
D23*
X169200000Y-65500000D03*
X169200000Y-66000000D03*
X169200000Y-66500000D03*
X169200000Y-67000000D03*
X169200000Y-67500000D03*
X173600000Y-67500000D03*
X173600000Y-67000000D03*
X173600000Y-66500000D03*
X173600000Y-66000000D03*
X173600000Y-65500000D03*
D16*
X131480000Y-49800000D03*
D17*
X128940000Y-49800000D03*
D16*
X164300000Y-80455000D03*
D17*
X164300000Y-82995000D03*
X164300000Y-85535000D03*
X164300000Y-88075000D03*
X164300000Y-90615000D03*
X164300000Y-93155000D03*
X164300000Y-95695000D03*
X164300000Y-98235000D03*
D26*
X155600000Y-44750000D03*
X155600000Y-38650000D03*
D23*
X169200000Y-89500000D03*
X169200000Y-90000000D03*
X169200000Y-90500000D03*
X169200000Y-91000000D03*
X169200000Y-91500000D03*
X173600000Y-91500000D03*
X173600000Y-91000000D03*
X173600000Y-90500000D03*
X173600000Y-90000000D03*
X173600000Y-89500000D03*
X115200000Y-89500000D03*
X115200000Y-90000000D03*
X115200000Y-90500000D03*
X115200000Y-91000000D03*
X115200000Y-91500000D03*
X119600000Y-91500000D03*
X119600000Y-91000000D03*
X119600000Y-90500000D03*
X119600000Y-90000000D03*
X119600000Y-89500000D03*
D18*
X139840000Y-34642500D03*
X139840000Y-32917500D03*
D15*
X151437500Y-30760000D03*
X153162500Y-30760000D03*
X142797500Y-36780000D03*
X144522500Y-36780000D03*
X169797500Y-84780000D03*
X171522500Y-84780000D03*
M02*
