G04 #@! TF.GenerationSoftware,KiCad,Pcbnew,6.0.11-2627ca5db0~126~ubuntu22.04.1*
G04 #@! TF.CreationDate,2023-02-05T22:47:26+11:00*
G04 #@! TF.ProjectId,panel,70616e65-6c2e-46b6-9963-61645f706362,rev?*
G04 #@! TF.SameCoordinates,Original*
G04 #@! TF.FileFunction,Paste,Top*
G04 #@! TF.FilePolarity,Positive*
%FSLAX46Y46*%
G04 Gerber Fmt 4.6, Leading zero omitted, Abs format (unit mm)*
G04 Created by KiCad (PCBNEW 6.0.11-2627ca5db0~126~ubuntu22.04.1) date 2023-02-05 22:47:26*
%MOMM*%
%LPD*%
G01*
G04 APERTURE LIST*
G04 Aperture macros list*
%AMRoundRect*
0 Rectangle with rounded corners*
0 $1 Rounding radius*
0 $2 $3 $4 $5 $6 $7 $8 $9 X,Y pos of 4 corners*
0 Add a 4 corners polygon primitive as box body*
4,1,4,$2,$3,$4,$5,$6,$7,$8,$9,$2,$3,0*
0 Add four circle primitives for the rounded corners*
1,1,$1+$1,$2,$3*
1,1,$1+$1,$4,$5*
1,1,$1+$1,$6,$7*
1,1,$1+$1,$8,$9*
0 Add four rect primitives between the rounded corners*
20,1,$1+$1,$2,$3,$4,$5,0*
20,1,$1+$1,$4,$5,$6,$7,0*
20,1,$1+$1,$6,$7,$8,$9,0*
20,1,$1+$1,$8,$9,$2,$3,0*%
%AMFreePoly0*
4,1,9,5.362500,-0.866500,1.237500,-0.866500,1.237500,-0.450000,-1.237500,-0.450000,-1.237500,0.450000,1.237500,0.450000,1.237500,0.866500,5.362500,0.866500,5.362500,-0.866500,5.362500,-0.866500,$1*%
G04 Aperture macros list end*
%ADD10RoundRect,0.237500X-0.250000X-0.237500X0.250000X-0.237500X0.250000X0.237500X-0.250000X0.237500X0*%
%ADD11RoundRect,0.237500X-0.300000X-0.237500X0.300000X-0.237500X0.300000X0.237500X-0.300000X0.237500X0*%
%ADD12RoundRect,0.237500X0.237500X-0.300000X0.237500X0.300000X-0.237500X0.300000X-0.237500X-0.300000X0*%
%ADD13RoundRect,0.237500X0.250000X0.237500X-0.250000X0.237500X-0.250000X-0.237500X0.250000X-0.237500X0*%
%ADD14RoundRect,0.237500X-0.237500X0.300000X-0.237500X-0.300000X0.237500X-0.300000X0.237500X0.300000X0*%
%ADD15R,2.300000X0.900000*%
%ADD16FreePoly0,0.000000*%
%ADD17RoundRect,0.075000X-0.650000X-0.075000X0.650000X-0.075000X0.650000X0.075000X-0.650000X0.075000X0*%
%ADD18RoundRect,0.237500X0.300000X0.237500X-0.300000X0.237500X-0.300000X-0.237500X0.300000X-0.237500X0*%
%ADD19RoundRect,0.249999X1.425001X-0.450001X1.425001X0.450001X-1.425001X0.450001X-1.425001X-0.450001X0*%
G04 APERTURE END LIST*
D10*
X150987500Y-42700000D03*
X152812500Y-42700000D03*
D11*
X169797500Y-36780000D03*
X171522500Y-36780000D03*
D12*
X112840000Y-58642500D03*
X112840000Y-56917500D03*
X168380000Y-81155000D03*
X168380000Y-79430000D03*
D13*
X117912500Y-93600000D03*
X116087500Y-93600000D03*
X171912500Y-45600000D03*
X170087500Y-45600000D03*
D14*
X149400000Y-40900000D03*
X149400000Y-42625000D03*
D13*
X117912500Y-45600000D03*
X116087500Y-45600000D03*
D15*
X143620000Y-31670000D03*
D16*
X143707500Y-33170000D03*
D15*
X143620000Y-34670000D03*
D14*
X149400000Y-64900000D03*
X149400000Y-66625000D03*
D12*
X166840000Y-82642500D03*
X166840000Y-80917500D03*
D17*
X115200000Y-41500000D03*
X115200000Y-42000000D03*
X115200000Y-42500000D03*
X115200000Y-43000000D03*
X115200000Y-43500000D03*
X119600000Y-43500000D03*
X119600000Y-43000000D03*
X119600000Y-42500000D03*
X119600000Y-42000000D03*
X119600000Y-41500000D03*
D13*
X144912500Y-69600000D03*
X143087500Y-69600000D03*
D18*
X148662500Y-69600000D03*
X146937500Y-69600000D03*
D12*
X114380000Y-81155000D03*
X114380000Y-79430000D03*
D11*
X151437500Y-54760000D03*
X153162500Y-54760000D03*
D15*
X170620000Y-31670000D03*
D16*
X170707500Y-33170000D03*
D15*
X170620000Y-34670000D03*
D18*
X148662500Y-93600000D03*
X146937500Y-93600000D03*
D14*
X176400000Y-64900000D03*
X176400000Y-66625000D03*
D12*
X166840000Y-34642500D03*
X166840000Y-32917500D03*
D11*
X124437500Y-78760000D03*
X126162500Y-78760000D03*
D10*
X150987500Y-64800000D03*
X152812500Y-64800000D03*
D12*
X166840000Y-58642500D03*
X166840000Y-56917500D03*
D10*
X177987500Y-90700000D03*
X179812500Y-90700000D03*
D19*
X182600000Y-92750000D03*
X182600000Y-86650000D03*
D13*
X171912500Y-93600000D03*
X170087500Y-93600000D03*
D19*
X182600000Y-68750000D03*
X182600000Y-62650000D03*
D15*
X170620000Y-79670000D03*
D16*
X170707500Y-81170000D03*
D15*
X170620000Y-82670000D03*
D10*
X123987500Y-64800000D03*
X125812500Y-64800000D03*
D19*
X128600000Y-92750000D03*
X128600000Y-86650000D03*
D10*
X150987500Y-90700000D03*
X152812500Y-90700000D03*
D18*
X121662500Y-45600000D03*
X119937500Y-45600000D03*
D17*
X142200000Y-65500000D03*
X142200000Y-66000000D03*
X142200000Y-66500000D03*
X142200000Y-67000000D03*
X142200000Y-67500000D03*
X146600000Y-67500000D03*
X146600000Y-67000000D03*
X146600000Y-66500000D03*
X146600000Y-66000000D03*
X146600000Y-65500000D03*
D18*
X175662500Y-45600000D03*
X173937500Y-45600000D03*
D13*
X171912500Y-69600000D03*
X170087500Y-69600000D03*
D11*
X169797500Y-60780000D03*
X171522500Y-60780000D03*
X178437500Y-78760000D03*
X180162500Y-78760000D03*
D17*
X169200000Y-41500000D03*
X169200000Y-42000000D03*
X169200000Y-42500000D03*
X169200000Y-43000000D03*
X169200000Y-43500000D03*
X173600000Y-43500000D03*
X173600000Y-43000000D03*
X173600000Y-42500000D03*
X173600000Y-42000000D03*
X173600000Y-41500000D03*
D10*
X150987500Y-66700000D03*
X152812500Y-66700000D03*
D12*
X168380000Y-57155000D03*
X168380000Y-55430000D03*
D18*
X121662500Y-93600000D03*
X119937500Y-93600000D03*
D15*
X116620000Y-55670000D03*
D16*
X116707500Y-57170000D03*
D15*
X116620000Y-58670000D03*
X116620000Y-31670000D03*
D16*
X116707500Y-33170000D03*
D15*
X116620000Y-34670000D03*
D14*
X122400000Y-40900000D03*
X122400000Y-42625000D03*
D10*
X150987500Y-88800000D03*
X152812500Y-88800000D03*
D12*
X141380000Y-57155000D03*
X141380000Y-55430000D03*
D18*
X175662500Y-69600000D03*
X173937500Y-69600000D03*
X175662500Y-93600000D03*
X173937500Y-93600000D03*
D12*
X114380000Y-57155000D03*
X114380000Y-55430000D03*
D10*
X123987500Y-66700000D03*
X125812500Y-66700000D03*
D15*
X116620000Y-79670000D03*
D16*
X116707500Y-81170000D03*
D15*
X116620000Y-82670000D03*
D10*
X177987500Y-40800000D03*
X179812500Y-40800000D03*
D15*
X143620000Y-79670000D03*
D16*
X143707500Y-81170000D03*
D15*
X143620000Y-82670000D03*
D13*
X144912500Y-93600000D03*
X143087500Y-93600000D03*
D19*
X128600000Y-44750000D03*
X128600000Y-38650000D03*
D17*
X115200000Y-65500000D03*
X115200000Y-66000000D03*
X115200000Y-66500000D03*
X115200000Y-67000000D03*
X115200000Y-67500000D03*
X119600000Y-67500000D03*
X119600000Y-67000000D03*
X119600000Y-66500000D03*
X119600000Y-66000000D03*
X119600000Y-65500000D03*
D11*
X151437500Y-78760000D03*
X153162500Y-78760000D03*
D18*
X148662500Y-45600000D03*
X146937500Y-45600000D03*
D11*
X115797500Y-36780000D03*
X117522500Y-36780000D03*
D13*
X117912500Y-69600000D03*
X116087500Y-69600000D03*
D10*
X123987500Y-88800000D03*
X125812500Y-88800000D03*
D15*
X170620000Y-55670000D03*
D16*
X170707500Y-57170000D03*
D15*
X170620000Y-58670000D03*
D14*
X122400000Y-64900000D03*
X122400000Y-66625000D03*
D12*
X168380000Y-33155000D03*
X168380000Y-31430000D03*
X141380000Y-33155000D03*
X141380000Y-31430000D03*
D19*
X155600000Y-92750000D03*
X155600000Y-86650000D03*
D12*
X141380000Y-81155000D03*
X141380000Y-79430000D03*
D10*
X177987500Y-64800000D03*
X179812500Y-64800000D03*
D11*
X178437500Y-30760000D03*
X180162500Y-30760000D03*
X142797500Y-60780000D03*
X144522500Y-60780000D03*
D19*
X155600000Y-68750000D03*
X155600000Y-62650000D03*
D10*
X150987500Y-40800000D03*
X152812500Y-40800000D03*
D11*
X124437500Y-30760000D03*
X126162500Y-30760000D03*
D10*
X177987500Y-88800000D03*
X179812500Y-88800000D03*
D11*
X115797500Y-60780000D03*
X117522500Y-60780000D03*
X142797500Y-84780000D03*
X144522500Y-84780000D03*
D19*
X128600000Y-68750000D03*
X128600000Y-62650000D03*
D10*
X177987500Y-66700000D03*
X179812500Y-66700000D03*
D12*
X139840000Y-82642500D03*
X139840000Y-80917500D03*
X112840000Y-82642500D03*
X112840000Y-80917500D03*
X114380000Y-33155000D03*
X114380000Y-31430000D03*
D10*
X123987500Y-42700000D03*
X125812500Y-42700000D03*
D14*
X122400000Y-88900000D03*
X122400000Y-90625000D03*
D12*
X112840000Y-34642500D03*
X112840000Y-32917500D03*
D13*
X144912500Y-45600000D03*
X143087500Y-45600000D03*
D11*
X124437500Y-54760000D03*
X126162500Y-54760000D03*
D12*
X139840000Y-58642500D03*
X139840000Y-56917500D03*
D10*
X177987500Y-42700000D03*
X179812500Y-42700000D03*
D14*
X176400000Y-40900000D03*
X176400000Y-42625000D03*
D17*
X142200000Y-41500000D03*
X142200000Y-42000000D03*
X142200000Y-42500000D03*
X142200000Y-43000000D03*
X142200000Y-43500000D03*
X146600000Y-43500000D03*
X146600000Y-43000000D03*
X146600000Y-42500000D03*
X146600000Y-42000000D03*
X146600000Y-41500000D03*
D10*
X123987500Y-90700000D03*
X125812500Y-90700000D03*
D15*
X143620000Y-55670000D03*
D16*
X143707500Y-57170000D03*
D15*
X143620000Y-58670000D03*
D14*
X149400000Y-88900000D03*
X149400000Y-90625000D03*
D11*
X178437500Y-54760000D03*
X180162500Y-54760000D03*
D19*
X182600000Y-44750000D03*
X182600000Y-38650000D03*
D11*
X115797500Y-84780000D03*
X117522500Y-84780000D03*
D10*
X123987500Y-40800000D03*
X125812500Y-40800000D03*
D17*
X142200000Y-89500000D03*
X142200000Y-90000000D03*
X142200000Y-90500000D03*
X142200000Y-91000000D03*
X142200000Y-91500000D03*
X146600000Y-91500000D03*
X146600000Y-91000000D03*
X146600000Y-90500000D03*
X146600000Y-90000000D03*
X146600000Y-89500000D03*
D14*
X176400000Y-88900000D03*
X176400000Y-90625000D03*
D18*
X121662500Y-69600000D03*
X119937500Y-69600000D03*
D17*
X169200000Y-65500000D03*
X169200000Y-66000000D03*
X169200000Y-66500000D03*
X169200000Y-67000000D03*
X169200000Y-67500000D03*
X173600000Y-67500000D03*
X173600000Y-67000000D03*
X173600000Y-66500000D03*
X173600000Y-66000000D03*
X173600000Y-65500000D03*
D19*
X155600000Y-44750000D03*
X155600000Y-38650000D03*
D17*
X169200000Y-89500000D03*
X169200000Y-90000000D03*
X169200000Y-90500000D03*
X169200000Y-91000000D03*
X169200000Y-91500000D03*
X173600000Y-91500000D03*
X173600000Y-91000000D03*
X173600000Y-90500000D03*
X173600000Y-90000000D03*
X173600000Y-89500000D03*
X115200000Y-89500000D03*
X115200000Y-90000000D03*
X115200000Y-90500000D03*
X115200000Y-91000000D03*
X115200000Y-91500000D03*
X119600000Y-91500000D03*
X119600000Y-91000000D03*
X119600000Y-90500000D03*
X119600000Y-90000000D03*
X119600000Y-89500000D03*
D12*
X139840000Y-34642500D03*
X139840000Y-32917500D03*
D11*
X151437500Y-30760000D03*
X153162500Y-30760000D03*
X142797500Y-36780000D03*
X144522500Y-36780000D03*
X169797500Y-84780000D03*
X171522500Y-84780000D03*
M02*
