G04 #@! TF.GenerationSoftware,KiCad,Pcbnew,6.0.11-2627ca5db0~126~ubuntu22.04.1*
G04 #@! TF.CreationDate,2023-02-05T22:47:26+11:00*
G04 #@! TF.ProjectId,panel,70616e65-6c2e-46b6-9963-61645f706362,rev?*
G04 #@! TF.SameCoordinates,Original*
G04 #@! TF.FileFunction,Legend,Bot*
G04 #@! TF.FilePolarity,Positive*
%FSLAX46Y46*%
G04 Gerber Fmt 4.6, Leading zero omitted, Abs format (unit mm)*
G04 Created by KiCad (PCBNEW 6.0.11-2627ca5db0~126~ubuntu22.04.1) date 2023-02-05 22:47:26*
%MOMM*%
%LPD*%
G01*
G04 APERTURE LIST*
%ADD10C,0.200000*%
%ADD11C,0.150000*%
%ADD12C,0.170000*%
%ADD13C,3.000000*%
%ADD14R,1.700000X1.700000*%
%ADD15O,1.700000X1.700000*%
%ADD16C,1.000000*%
G04 APERTURE END LIST*
D10*
X141740000Y-55417809D02*
X141406666Y-57017809D01*
X141073333Y-55417809D01*
X140359047Y-56941619D02*
X140454285Y-57017809D01*
X140644761Y-57017809D01*
X140740000Y-56941619D01*
X140787619Y-56789238D01*
X140787619Y-56179714D01*
X140740000Y-56027333D01*
X140644761Y-55951142D01*
X140454285Y-55951142D01*
X140359047Y-56027333D01*
X140311428Y-56179714D01*
X140311428Y-56332095D01*
X140787619Y-56484476D01*
X139978095Y-57017809D02*
X139454285Y-55951142D01*
X139978095Y-55951142D02*
X139454285Y-57017809D01*
X139216190Y-55951142D02*
X138835238Y-55951142D01*
X139073333Y-55417809D02*
X139073333Y-56789238D01*
X139025714Y-56941619D01*
X138930476Y-57017809D01*
X138835238Y-57017809D01*
X141263809Y-57993809D02*
X140644761Y-57993809D01*
X140978095Y-58603333D01*
X140835238Y-58603333D01*
X140740000Y-58679523D01*
X140692380Y-58755714D01*
X140644761Y-58908095D01*
X140644761Y-59289047D01*
X140692380Y-59441428D01*
X140740000Y-59517619D01*
X140835238Y-59593809D01*
X141120952Y-59593809D01*
X141216190Y-59517619D01*
X141263809Y-59441428D01*
X140311428Y-58527142D02*
X140073333Y-59593809D01*
X139835238Y-58527142D01*
X139549523Y-57993809D02*
X138930476Y-57993809D01*
X139263809Y-58603333D01*
X139120952Y-58603333D01*
X139025714Y-58679523D01*
X138978095Y-58755714D01*
X138930476Y-58908095D01*
X138930476Y-59289047D01*
X138978095Y-59441428D01*
X139025714Y-59517619D01*
X139120952Y-59593809D01*
X139406666Y-59593809D01*
X139501904Y-59517619D01*
X139549523Y-59441428D01*
X140359047Y-61712666D02*
X139882857Y-61712666D01*
X140454285Y-62169809D02*
X140120952Y-60569809D01*
X139787619Y-62169809D01*
X138930476Y-62169809D02*
X139501904Y-62169809D01*
X139216190Y-62169809D02*
X139216190Y-60569809D01*
X139311428Y-60798380D01*
X139406666Y-60950761D01*
X139501904Y-61026952D01*
X140359047Y-64288666D02*
X139882857Y-64288666D01*
X140454285Y-64745809D02*
X140120952Y-63145809D01*
X139787619Y-64745809D01*
X139263809Y-63145809D02*
X139168571Y-63145809D01*
X139073333Y-63222000D01*
X139025714Y-63298190D01*
X138978095Y-63450571D01*
X138930476Y-63755333D01*
X138930476Y-64136285D01*
X138978095Y-64441047D01*
X139025714Y-64593428D01*
X139073333Y-64669619D01*
X139168571Y-64745809D01*
X139263809Y-64745809D01*
X139359047Y-64669619D01*
X139406666Y-64593428D01*
X139454285Y-64441047D01*
X139501904Y-64136285D01*
X139501904Y-63755333D01*
X139454285Y-63450571D01*
X139406666Y-63298190D01*
X139359047Y-63222000D01*
X139263809Y-63145809D01*
X142882857Y-66864666D02*
X142406666Y-66864666D01*
X142978095Y-67321809D02*
X142644761Y-65721809D01*
X142311428Y-67321809D01*
X141501904Y-67321809D02*
X141978095Y-67321809D01*
X141978095Y-65721809D01*
X141168571Y-66483714D02*
X140835238Y-66483714D01*
X140692380Y-67321809D02*
X141168571Y-67321809D01*
X141168571Y-65721809D01*
X140692380Y-65721809D01*
X139692380Y-67321809D02*
X140025714Y-66559904D01*
X140263809Y-67321809D02*
X140263809Y-65721809D01*
X139882857Y-65721809D01*
X139787619Y-65798000D01*
X139740000Y-65874190D01*
X139692380Y-66026571D01*
X139692380Y-66255142D01*
X139740000Y-66407523D01*
X139787619Y-66483714D01*
X139882857Y-66559904D01*
X140263809Y-66559904D01*
X139406666Y-65721809D02*
X138835238Y-65721809D01*
X139120952Y-67321809D02*
X139120952Y-65721809D01*
X141359047Y-69821619D02*
X141216190Y-69897809D01*
X140978095Y-69897809D01*
X140882857Y-69821619D01*
X140835238Y-69745428D01*
X140787619Y-69593047D01*
X140787619Y-69440666D01*
X140835238Y-69288285D01*
X140882857Y-69212095D01*
X140978095Y-69135904D01*
X141168571Y-69059714D01*
X141263809Y-68983523D01*
X141311428Y-68907333D01*
X141359047Y-68754952D01*
X141359047Y-68602571D01*
X141311428Y-68450190D01*
X141263809Y-68374000D01*
X141168571Y-68297809D01*
X140930476Y-68297809D01*
X140787619Y-68374000D01*
X140359047Y-69897809D02*
X140359047Y-68297809D01*
X140120952Y-68297809D01*
X139978095Y-68374000D01*
X139882857Y-68526380D01*
X139835238Y-68678761D01*
X139787619Y-68983523D01*
X139787619Y-69212095D01*
X139835238Y-69516857D01*
X139882857Y-69669238D01*
X139978095Y-69821619D01*
X140120952Y-69897809D01*
X140359047Y-69897809D01*
X139406666Y-69440666D02*
X138930476Y-69440666D01*
X139501904Y-69897809D02*
X139168571Y-68297809D01*
X138835238Y-69897809D01*
X141311428Y-72397619D02*
X141168571Y-72473809D01*
X140930476Y-72473809D01*
X140835238Y-72397619D01*
X140787619Y-72321428D01*
X140740000Y-72169047D01*
X140740000Y-72016666D01*
X140787619Y-71864285D01*
X140835238Y-71788095D01*
X140930476Y-71711904D01*
X141120952Y-71635714D01*
X141216190Y-71559523D01*
X141263809Y-71483333D01*
X141311428Y-71330952D01*
X141311428Y-71178571D01*
X141263809Y-71026190D01*
X141216190Y-70950000D01*
X141120952Y-70873809D01*
X140882857Y-70873809D01*
X140740000Y-70950000D01*
X139740000Y-72321428D02*
X139787619Y-72397619D01*
X139930476Y-72473809D01*
X140025714Y-72473809D01*
X140168571Y-72397619D01*
X140263809Y-72245238D01*
X140311428Y-72092857D01*
X140359047Y-71788095D01*
X140359047Y-71559523D01*
X140311428Y-71254761D01*
X140263809Y-71102380D01*
X140168571Y-70950000D01*
X140025714Y-70873809D01*
X139930476Y-70873809D01*
X139787619Y-70950000D01*
X139740000Y-71026190D01*
X138835238Y-72473809D02*
X139311428Y-72473809D01*
X139311428Y-70873809D01*
X141025714Y-73526000D02*
X141120952Y-73449809D01*
X141263809Y-73449809D01*
X141406666Y-73526000D01*
X141501904Y-73678380D01*
X141549523Y-73830761D01*
X141597142Y-74135523D01*
X141597142Y-74364095D01*
X141549523Y-74668857D01*
X141501904Y-74821238D01*
X141406666Y-74973619D01*
X141263809Y-75049809D01*
X141168571Y-75049809D01*
X141025714Y-74973619D01*
X140978095Y-74897428D01*
X140978095Y-74364095D01*
X141168571Y-74364095D01*
X140549523Y-75049809D02*
X140549523Y-73449809D01*
X139978095Y-75049809D01*
X139978095Y-73449809D01*
X139501904Y-75049809D02*
X139501904Y-73449809D01*
X139263809Y-73449809D01*
X139120952Y-73526000D01*
X139025714Y-73678380D01*
X138978095Y-73830761D01*
X138930476Y-74135523D01*
X138930476Y-74364095D01*
X138978095Y-74668857D01*
X139025714Y-74821238D01*
X139120952Y-74973619D01*
X139263809Y-75049809D01*
X139501904Y-75049809D01*
X168740000Y-55417809D02*
X168406666Y-57017809D01*
X168073333Y-55417809D01*
X167359047Y-56941619D02*
X167454285Y-57017809D01*
X167644761Y-57017809D01*
X167740000Y-56941619D01*
X167787619Y-56789238D01*
X167787619Y-56179714D01*
X167740000Y-56027333D01*
X167644761Y-55951142D01*
X167454285Y-55951142D01*
X167359047Y-56027333D01*
X167311428Y-56179714D01*
X167311428Y-56332095D01*
X167787619Y-56484476D01*
X166978095Y-57017809D02*
X166454285Y-55951142D01*
X166978095Y-55951142D02*
X166454285Y-57017809D01*
X166216190Y-55951142D02*
X165835238Y-55951142D01*
X166073333Y-55417809D02*
X166073333Y-56789238D01*
X166025714Y-56941619D01*
X165930476Y-57017809D01*
X165835238Y-57017809D01*
X168263809Y-57993809D02*
X167644761Y-57993809D01*
X167978095Y-58603333D01*
X167835238Y-58603333D01*
X167740000Y-58679523D01*
X167692380Y-58755714D01*
X167644761Y-58908095D01*
X167644761Y-59289047D01*
X167692380Y-59441428D01*
X167740000Y-59517619D01*
X167835238Y-59593809D01*
X168120952Y-59593809D01*
X168216190Y-59517619D01*
X168263809Y-59441428D01*
X167311428Y-58527142D02*
X167073333Y-59593809D01*
X166835238Y-58527142D01*
X166549523Y-57993809D02*
X165930476Y-57993809D01*
X166263809Y-58603333D01*
X166120952Y-58603333D01*
X166025714Y-58679523D01*
X165978095Y-58755714D01*
X165930476Y-58908095D01*
X165930476Y-59289047D01*
X165978095Y-59441428D01*
X166025714Y-59517619D01*
X166120952Y-59593809D01*
X166406666Y-59593809D01*
X166501904Y-59517619D01*
X166549523Y-59441428D01*
X167359047Y-61712666D02*
X166882857Y-61712666D01*
X167454285Y-62169809D02*
X167120952Y-60569809D01*
X166787619Y-62169809D01*
X165930476Y-62169809D02*
X166501904Y-62169809D01*
X166216190Y-62169809D02*
X166216190Y-60569809D01*
X166311428Y-60798380D01*
X166406666Y-60950761D01*
X166501904Y-61026952D01*
X167359047Y-64288666D02*
X166882857Y-64288666D01*
X167454285Y-64745809D02*
X167120952Y-63145809D01*
X166787619Y-64745809D01*
X166263809Y-63145809D02*
X166168571Y-63145809D01*
X166073333Y-63222000D01*
X166025714Y-63298190D01*
X165978095Y-63450571D01*
X165930476Y-63755333D01*
X165930476Y-64136285D01*
X165978095Y-64441047D01*
X166025714Y-64593428D01*
X166073333Y-64669619D01*
X166168571Y-64745809D01*
X166263809Y-64745809D01*
X166359047Y-64669619D01*
X166406666Y-64593428D01*
X166454285Y-64441047D01*
X166501904Y-64136285D01*
X166501904Y-63755333D01*
X166454285Y-63450571D01*
X166406666Y-63298190D01*
X166359047Y-63222000D01*
X166263809Y-63145809D01*
X169882857Y-66864666D02*
X169406666Y-66864666D01*
X169978095Y-67321809D02*
X169644761Y-65721809D01*
X169311428Y-67321809D01*
X168501904Y-67321809D02*
X168978095Y-67321809D01*
X168978095Y-65721809D01*
X168168571Y-66483714D02*
X167835238Y-66483714D01*
X167692380Y-67321809D02*
X168168571Y-67321809D01*
X168168571Y-65721809D01*
X167692380Y-65721809D01*
X166692380Y-67321809D02*
X167025714Y-66559904D01*
X167263809Y-67321809D02*
X167263809Y-65721809D01*
X166882857Y-65721809D01*
X166787619Y-65798000D01*
X166740000Y-65874190D01*
X166692380Y-66026571D01*
X166692380Y-66255142D01*
X166740000Y-66407523D01*
X166787619Y-66483714D01*
X166882857Y-66559904D01*
X167263809Y-66559904D01*
X166406666Y-65721809D02*
X165835238Y-65721809D01*
X166120952Y-67321809D02*
X166120952Y-65721809D01*
X168359047Y-69821619D02*
X168216190Y-69897809D01*
X167978095Y-69897809D01*
X167882857Y-69821619D01*
X167835238Y-69745428D01*
X167787619Y-69593047D01*
X167787619Y-69440666D01*
X167835238Y-69288285D01*
X167882857Y-69212095D01*
X167978095Y-69135904D01*
X168168571Y-69059714D01*
X168263809Y-68983523D01*
X168311428Y-68907333D01*
X168359047Y-68754952D01*
X168359047Y-68602571D01*
X168311428Y-68450190D01*
X168263809Y-68374000D01*
X168168571Y-68297809D01*
X167930476Y-68297809D01*
X167787619Y-68374000D01*
X167359047Y-69897809D02*
X167359047Y-68297809D01*
X167120952Y-68297809D01*
X166978095Y-68374000D01*
X166882857Y-68526380D01*
X166835238Y-68678761D01*
X166787619Y-68983523D01*
X166787619Y-69212095D01*
X166835238Y-69516857D01*
X166882857Y-69669238D01*
X166978095Y-69821619D01*
X167120952Y-69897809D01*
X167359047Y-69897809D01*
X166406666Y-69440666D02*
X165930476Y-69440666D01*
X166501904Y-69897809D02*
X166168571Y-68297809D01*
X165835238Y-69897809D01*
X168311428Y-72397619D02*
X168168571Y-72473809D01*
X167930476Y-72473809D01*
X167835238Y-72397619D01*
X167787619Y-72321428D01*
X167740000Y-72169047D01*
X167740000Y-72016666D01*
X167787619Y-71864285D01*
X167835238Y-71788095D01*
X167930476Y-71711904D01*
X168120952Y-71635714D01*
X168216190Y-71559523D01*
X168263809Y-71483333D01*
X168311428Y-71330952D01*
X168311428Y-71178571D01*
X168263809Y-71026190D01*
X168216190Y-70950000D01*
X168120952Y-70873809D01*
X167882857Y-70873809D01*
X167740000Y-70950000D01*
X166740000Y-72321428D02*
X166787619Y-72397619D01*
X166930476Y-72473809D01*
X167025714Y-72473809D01*
X167168571Y-72397619D01*
X167263809Y-72245238D01*
X167311428Y-72092857D01*
X167359047Y-71788095D01*
X167359047Y-71559523D01*
X167311428Y-71254761D01*
X167263809Y-71102380D01*
X167168571Y-70950000D01*
X167025714Y-70873809D01*
X166930476Y-70873809D01*
X166787619Y-70950000D01*
X166740000Y-71026190D01*
X165835238Y-72473809D02*
X166311428Y-72473809D01*
X166311428Y-70873809D01*
X168025714Y-73526000D02*
X168120952Y-73449809D01*
X168263809Y-73449809D01*
X168406666Y-73526000D01*
X168501904Y-73678380D01*
X168549523Y-73830761D01*
X168597142Y-74135523D01*
X168597142Y-74364095D01*
X168549523Y-74668857D01*
X168501904Y-74821238D01*
X168406666Y-74973619D01*
X168263809Y-75049809D01*
X168168571Y-75049809D01*
X168025714Y-74973619D01*
X167978095Y-74897428D01*
X167978095Y-74364095D01*
X168168571Y-74364095D01*
X167549523Y-75049809D02*
X167549523Y-73449809D01*
X166978095Y-75049809D01*
X166978095Y-73449809D01*
X166501904Y-75049809D02*
X166501904Y-73449809D01*
X166263809Y-73449809D01*
X166120952Y-73526000D01*
X166025714Y-73678380D01*
X165978095Y-73830761D01*
X165930476Y-74135523D01*
X165930476Y-74364095D01*
X165978095Y-74668857D01*
X166025714Y-74821238D01*
X166120952Y-74973619D01*
X166263809Y-75049809D01*
X166501904Y-75049809D01*
X168740000Y-31417809D02*
X168406666Y-33017809D01*
X168073333Y-31417809D01*
X167359047Y-32941619D02*
X167454285Y-33017809D01*
X167644761Y-33017809D01*
X167740000Y-32941619D01*
X167787619Y-32789238D01*
X167787619Y-32179714D01*
X167740000Y-32027333D01*
X167644761Y-31951142D01*
X167454285Y-31951142D01*
X167359047Y-32027333D01*
X167311428Y-32179714D01*
X167311428Y-32332095D01*
X167787619Y-32484476D01*
X166978095Y-33017809D02*
X166454285Y-31951142D01*
X166978095Y-31951142D02*
X166454285Y-33017809D01*
X166216190Y-31951142D02*
X165835238Y-31951142D01*
X166073333Y-31417809D02*
X166073333Y-32789238D01*
X166025714Y-32941619D01*
X165930476Y-33017809D01*
X165835238Y-33017809D01*
X168263809Y-33993809D02*
X167644761Y-33993809D01*
X167978095Y-34603333D01*
X167835238Y-34603333D01*
X167740000Y-34679523D01*
X167692380Y-34755714D01*
X167644761Y-34908095D01*
X167644761Y-35289047D01*
X167692380Y-35441428D01*
X167740000Y-35517619D01*
X167835238Y-35593809D01*
X168120952Y-35593809D01*
X168216190Y-35517619D01*
X168263809Y-35441428D01*
X167311428Y-34527142D02*
X167073333Y-35593809D01*
X166835238Y-34527142D01*
X166549523Y-33993809D02*
X165930476Y-33993809D01*
X166263809Y-34603333D01*
X166120952Y-34603333D01*
X166025714Y-34679523D01*
X165978095Y-34755714D01*
X165930476Y-34908095D01*
X165930476Y-35289047D01*
X165978095Y-35441428D01*
X166025714Y-35517619D01*
X166120952Y-35593809D01*
X166406666Y-35593809D01*
X166501904Y-35517619D01*
X166549523Y-35441428D01*
X167359047Y-37712666D02*
X166882857Y-37712666D01*
X167454285Y-38169809D02*
X167120952Y-36569809D01*
X166787619Y-38169809D01*
X165930476Y-38169809D02*
X166501904Y-38169809D01*
X166216190Y-38169809D02*
X166216190Y-36569809D01*
X166311428Y-36798380D01*
X166406666Y-36950761D01*
X166501904Y-37026952D01*
X167359047Y-40288666D02*
X166882857Y-40288666D01*
X167454285Y-40745809D02*
X167120952Y-39145809D01*
X166787619Y-40745809D01*
X166263809Y-39145809D02*
X166168571Y-39145809D01*
X166073333Y-39222000D01*
X166025714Y-39298190D01*
X165978095Y-39450571D01*
X165930476Y-39755333D01*
X165930476Y-40136285D01*
X165978095Y-40441047D01*
X166025714Y-40593428D01*
X166073333Y-40669619D01*
X166168571Y-40745809D01*
X166263809Y-40745809D01*
X166359047Y-40669619D01*
X166406666Y-40593428D01*
X166454285Y-40441047D01*
X166501904Y-40136285D01*
X166501904Y-39755333D01*
X166454285Y-39450571D01*
X166406666Y-39298190D01*
X166359047Y-39222000D01*
X166263809Y-39145809D01*
X169882857Y-42864666D02*
X169406666Y-42864666D01*
X169978095Y-43321809D02*
X169644761Y-41721809D01*
X169311428Y-43321809D01*
X168501904Y-43321809D02*
X168978095Y-43321809D01*
X168978095Y-41721809D01*
X168168571Y-42483714D02*
X167835238Y-42483714D01*
X167692380Y-43321809D02*
X168168571Y-43321809D01*
X168168571Y-41721809D01*
X167692380Y-41721809D01*
X166692380Y-43321809D02*
X167025714Y-42559904D01*
X167263809Y-43321809D02*
X167263809Y-41721809D01*
X166882857Y-41721809D01*
X166787619Y-41798000D01*
X166740000Y-41874190D01*
X166692380Y-42026571D01*
X166692380Y-42255142D01*
X166740000Y-42407523D01*
X166787619Y-42483714D01*
X166882857Y-42559904D01*
X167263809Y-42559904D01*
X166406666Y-41721809D02*
X165835238Y-41721809D01*
X166120952Y-43321809D02*
X166120952Y-41721809D01*
X168359047Y-45821619D02*
X168216190Y-45897809D01*
X167978095Y-45897809D01*
X167882857Y-45821619D01*
X167835238Y-45745428D01*
X167787619Y-45593047D01*
X167787619Y-45440666D01*
X167835238Y-45288285D01*
X167882857Y-45212095D01*
X167978095Y-45135904D01*
X168168571Y-45059714D01*
X168263809Y-44983523D01*
X168311428Y-44907333D01*
X168359047Y-44754952D01*
X168359047Y-44602571D01*
X168311428Y-44450190D01*
X168263809Y-44374000D01*
X168168571Y-44297809D01*
X167930476Y-44297809D01*
X167787619Y-44374000D01*
X167359047Y-45897809D02*
X167359047Y-44297809D01*
X167120952Y-44297809D01*
X166978095Y-44374000D01*
X166882857Y-44526380D01*
X166835238Y-44678761D01*
X166787619Y-44983523D01*
X166787619Y-45212095D01*
X166835238Y-45516857D01*
X166882857Y-45669238D01*
X166978095Y-45821619D01*
X167120952Y-45897809D01*
X167359047Y-45897809D01*
X166406666Y-45440666D02*
X165930476Y-45440666D01*
X166501904Y-45897809D02*
X166168571Y-44297809D01*
X165835238Y-45897809D01*
X168311428Y-48397619D02*
X168168571Y-48473809D01*
X167930476Y-48473809D01*
X167835238Y-48397619D01*
X167787619Y-48321428D01*
X167740000Y-48169047D01*
X167740000Y-48016666D01*
X167787619Y-47864285D01*
X167835238Y-47788095D01*
X167930476Y-47711904D01*
X168120952Y-47635714D01*
X168216190Y-47559523D01*
X168263809Y-47483333D01*
X168311428Y-47330952D01*
X168311428Y-47178571D01*
X168263809Y-47026190D01*
X168216190Y-46950000D01*
X168120952Y-46873809D01*
X167882857Y-46873809D01*
X167740000Y-46950000D01*
X166740000Y-48321428D02*
X166787619Y-48397619D01*
X166930476Y-48473809D01*
X167025714Y-48473809D01*
X167168571Y-48397619D01*
X167263809Y-48245238D01*
X167311428Y-48092857D01*
X167359047Y-47788095D01*
X167359047Y-47559523D01*
X167311428Y-47254761D01*
X167263809Y-47102380D01*
X167168571Y-46950000D01*
X167025714Y-46873809D01*
X166930476Y-46873809D01*
X166787619Y-46950000D01*
X166740000Y-47026190D01*
X165835238Y-48473809D02*
X166311428Y-48473809D01*
X166311428Y-46873809D01*
X168025714Y-49526000D02*
X168120952Y-49449809D01*
X168263809Y-49449809D01*
X168406666Y-49526000D01*
X168501904Y-49678380D01*
X168549523Y-49830761D01*
X168597142Y-50135523D01*
X168597142Y-50364095D01*
X168549523Y-50668857D01*
X168501904Y-50821238D01*
X168406666Y-50973619D01*
X168263809Y-51049809D01*
X168168571Y-51049809D01*
X168025714Y-50973619D01*
X167978095Y-50897428D01*
X167978095Y-50364095D01*
X168168571Y-50364095D01*
X167549523Y-51049809D02*
X167549523Y-49449809D01*
X166978095Y-51049809D01*
X166978095Y-49449809D01*
X166501904Y-51049809D02*
X166501904Y-49449809D01*
X166263809Y-49449809D01*
X166120952Y-49526000D01*
X166025714Y-49678380D01*
X165978095Y-49830761D01*
X165930476Y-50135523D01*
X165930476Y-50364095D01*
X165978095Y-50668857D01*
X166025714Y-50821238D01*
X166120952Y-50973619D01*
X166263809Y-51049809D01*
X166501904Y-51049809D01*
X114740000Y-31417809D02*
X114406666Y-33017809D01*
X114073333Y-31417809D01*
X113359047Y-32941619D02*
X113454285Y-33017809D01*
X113644761Y-33017809D01*
X113740000Y-32941619D01*
X113787619Y-32789238D01*
X113787619Y-32179714D01*
X113740000Y-32027333D01*
X113644761Y-31951142D01*
X113454285Y-31951142D01*
X113359047Y-32027333D01*
X113311428Y-32179714D01*
X113311428Y-32332095D01*
X113787619Y-32484476D01*
X112978095Y-33017809D02*
X112454285Y-31951142D01*
X112978095Y-31951142D02*
X112454285Y-33017809D01*
X112216190Y-31951142D02*
X111835238Y-31951142D01*
X112073333Y-31417809D02*
X112073333Y-32789238D01*
X112025714Y-32941619D01*
X111930476Y-33017809D01*
X111835238Y-33017809D01*
X114263809Y-33993809D02*
X113644761Y-33993809D01*
X113978095Y-34603333D01*
X113835238Y-34603333D01*
X113740000Y-34679523D01*
X113692380Y-34755714D01*
X113644761Y-34908095D01*
X113644761Y-35289047D01*
X113692380Y-35441428D01*
X113740000Y-35517619D01*
X113835238Y-35593809D01*
X114120952Y-35593809D01*
X114216190Y-35517619D01*
X114263809Y-35441428D01*
X113311428Y-34527142D02*
X113073333Y-35593809D01*
X112835238Y-34527142D01*
X112549523Y-33993809D02*
X111930476Y-33993809D01*
X112263809Y-34603333D01*
X112120952Y-34603333D01*
X112025714Y-34679523D01*
X111978095Y-34755714D01*
X111930476Y-34908095D01*
X111930476Y-35289047D01*
X111978095Y-35441428D01*
X112025714Y-35517619D01*
X112120952Y-35593809D01*
X112406666Y-35593809D01*
X112501904Y-35517619D01*
X112549523Y-35441428D01*
X113359047Y-37712666D02*
X112882857Y-37712666D01*
X113454285Y-38169809D02*
X113120952Y-36569809D01*
X112787619Y-38169809D01*
X111930476Y-38169809D02*
X112501904Y-38169809D01*
X112216190Y-38169809D02*
X112216190Y-36569809D01*
X112311428Y-36798380D01*
X112406666Y-36950761D01*
X112501904Y-37026952D01*
X113359047Y-40288666D02*
X112882857Y-40288666D01*
X113454285Y-40745809D02*
X113120952Y-39145809D01*
X112787619Y-40745809D01*
X112263809Y-39145809D02*
X112168571Y-39145809D01*
X112073333Y-39222000D01*
X112025714Y-39298190D01*
X111978095Y-39450571D01*
X111930476Y-39755333D01*
X111930476Y-40136285D01*
X111978095Y-40441047D01*
X112025714Y-40593428D01*
X112073333Y-40669619D01*
X112168571Y-40745809D01*
X112263809Y-40745809D01*
X112359047Y-40669619D01*
X112406666Y-40593428D01*
X112454285Y-40441047D01*
X112501904Y-40136285D01*
X112501904Y-39755333D01*
X112454285Y-39450571D01*
X112406666Y-39298190D01*
X112359047Y-39222000D01*
X112263809Y-39145809D01*
X115882857Y-42864666D02*
X115406666Y-42864666D01*
X115978095Y-43321809D02*
X115644761Y-41721809D01*
X115311428Y-43321809D01*
X114501904Y-43321809D02*
X114978095Y-43321809D01*
X114978095Y-41721809D01*
X114168571Y-42483714D02*
X113835238Y-42483714D01*
X113692380Y-43321809D02*
X114168571Y-43321809D01*
X114168571Y-41721809D01*
X113692380Y-41721809D01*
X112692380Y-43321809D02*
X113025714Y-42559904D01*
X113263809Y-43321809D02*
X113263809Y-41721809D01*
X112882857Y-41721809D01*
X112787619Y-41798000D01*
X112740000Y-41874190D01*
X112692380Y-42026571D01*
X112692380Y-42255142D01*
X112740000Y-42407523D01*
X112787619Y-42483714D01*
X112882857Y-42559904D01*
X113263809Y-42559904D01*
X112406666Y-41721809D02*
X111835238Y-41721809D01*
X112120952Y-43321809D02*
X112120952Y-41721809D01*
X114359047Y-45821619D02*
X114216190Y-45897809D01*
X113978095Y-45897809D01*
X113882857Y-45821619D01*
X113835238Y-45745428D01*
X113787619Y-45593047D01*
X113787619Y-45440666D01*
X113835238Y-45288285D01*
X113882857Y-45212095D01*
X113978095Y-45135904D01*
X114168571Y-45059714D01*
X114263809Y-44983523D01*
X114311428Y-44907333D01*
X114359047Y-44754952D01*
X114359047Y-44602571D01*
X114311428Y-44450190D01*
X114263809Y-44374000D01*
X114168571Y-44297809D01*
X113930476Y-44297809D01*
X113787619Y-44374000D01*
X113359047Y-45897809D02*
X113359047Y-44297809D01*
X113120952Y-44297809D01*
X112978095Y-44374000D01*
X112882857Y-44526380D01*
X112835238Y-44678761D01*
X112787619Y-44983523D01*
X112787619Y-45212095D01*
X112835238Y-45516857D01*
X112882857Y-45669238D01*
X112978095Y-45821619D01*
X113120952Y-45897809D01*
X113359047Y-45897809D01*
X112406666Y-45440666D02*
X111930476Y-45440666D01*
X112501904Y-45897809D02*
X112168571Y-44297809D01*
X111835238Y-45897809D01*
X114311428Y-48397619D02*
X114168571Y-48473809D01*
X113930476Y-48473809D01*
X113835238Y-48397619D01*
X113787619Y-48321428D01*
X113740000Y-48169047D01*
X113740000Y-48016666D01*
X113787619Y-47864285D01*
X113835238Y-47788095D01*
X113930476Y-47711904D01*
X114120952Y-47635714D01*
X114216190Y-47559523D01*
X114263809Y-47483333D01*
X114311428Y-47330952D01*
X114311428Y-47178571D01*
X114263809Y-47026190D01*
X114216190Y-46950000D01*
X114120952Y-46873809D01*
X113882857Y-46873809D01*
X113740000Y-46950000D01*
X112740000Y-48321428D02*
X112787619Y-48397619D01*
X112930476Y-48473809D01*
X113025714Y-48473809D01*
X113168571Y-48397619D01*
X113263809Y-48245238D01*
X113311428Y-48092857D01*
X113359047Y-47788095D01*
X113359047Y-47559523D01*
X113311428Y-47254761D01*
X113263809Y-47102380D01*
X113168571Y-46950000D01*
X113025714Y-46873809D01*
X112930476Y-46873809D01*
X112787619Y-46950000D01*
X112740000Y-47026190D01*
X111835238Y-48473809D02*
X112311428Y-48473809D01*
X112311428Y-46873809D01*
X114025714Y-49526000D02*
X114120952Y-49449809D01*
X114263809Y-49449809D01*
X114406666Y-49526000D01*
X114501904Y-49678380D01*
X114549523Y-49830761D01*
X114597142Y-50135523D01*
X114597142Y-50364095D01*
X114549523Y-50668857D01*
X114501904Y-50821238D01*
X114406666Y-50973619D01*
X114263809Y-51049809D01*
X114168571Y-51049809D01*
X114025714Y-50973619D01*
X113978095Y-50897428D01*
X113978095Y-50364095D01*
X114168571Y-50364095D01*
X113549523Y-51049809D02*
X113549523Y-49449809D01*
X112978095Y-51049809D01*
X112978095Y-49449809D01*
X112501904Y-51049809D02*
X112501904Y-49449809D01*
X112263809Y-49449809D01*
X112120952Y-49526000D01*
X112025714Y-49678380D01*
X111978095Y-49830761D01*
X111930476Y-50135523D01*
X111930476Y-50364095D01*
X111978095Y-50668857D01*
X112025714Y-50821238D01*
X112120952Y-50973619D01*
X112263809Y-51049809D01*
X112501904Y-51049809D01*
X141740000Y-31417809D02*
X141406666Y-33017809D01*
X141073333Y-31417809D01*
X140359047Y-32941619D02*
X140454285Y-33017809D01*
X140644761Y-33017809D01*
X140740000Y-32941619D01*
X140787619Y-32789238D01*
X140787619Y-32179714D01*
X140740000Y-32027333D01*
X140644761Y-31951142D01*
X140454285Y-31951142D01*
X140359047Y-32027333D01*
X140311428Y-32179714D01*
X140311428Y-32332095D01*
X140787619Y-32484476D01*
X139978095Y-33017809D02*
X139454285Y-31951142D01*
X139978095Y-31951142D02*
X139454285Y-33017809D01*
X139216190Y-31951142D02*
X138835238Y-31951142D01*
X139073333Y-31417809D02*
X139073333Y-32789238D01*
X139025714Y-32941619D01*
X138930476Y-33017809D01*
X138835238Y-33017809D01*
X141263809Y-33993809D02*
X140644761Y-33993809D01*
X140978095Y-34603333D01*
X140835238Y-34603333D01*
X140740000Y-34679523D01*
X140692380Y-34755714D01*
X140644761Y-34908095D01*
X140644761Y-35289047D01*
X140692380Y-35441428D01*
X140740000Y-35517619D01*
X140835238Y-35593809D01*
X141120952Y-35593809D01*
X141216190Y-35517619D01*
X141263809Y-35441428D01*
X140311428Y-34527142D02*
X140073333Y-35593809D01*
X139835238Y-34527142D01*
X139549523Y-33993809D02*
X138930476Y-33993809D01*
X139263809Y-34603333D01*
X139120952Y-34603333D01*
X139025714Y-34679523D01*
X138978095Y-34755714D01*
X138930476Y-34908095D01*
X138930476Y-35289047D01*
X138978095Y-35441428D01*
X139025714Y-35517619D01*
X139120952Y-35593809D01*
X139406666Y-35593809D01*
X139501904Y-35517619D01*
X139549523Y-35441428D01*
X140359047Y-37712666D02*
X139882857Y-37712666D01*
X140454285Y-38169809D02*
X140120952Y-36569809D01*
X139787619Y-38169809D01*
X138930476Y-38169809D02*
X139501904Y-38169809D01*
X139216190Y-38169809D02*
X139216190Y-36569809D01*
X139311428Y-36798380D01*
X139406666Y-36950761D01*
X139501904Y-37026952D01*
X140359047Y-40288666D02*
X139882857Y-40288666D01*
X140454285Y-40745809D02*
X140120952Y-39145809D01*
X139787619Y-40745809D01*
X139263809Y-39145809D02*
X139168571Y-39145809D01*
X139073333Y-39222000D01*
X139025714Y-39298190D01*
X138978095Y-39450571D01*
X138930476Y-39755333D01*
X138930476Y-40136285D01*
X138978095Y-40441047D01*
X139025714Y-40593428D01*
X139073333Y-40669619D01*
X139168571Y-40745809D01*
X139263809Y-40745809D01*
X139359047Y-40669619D01*
X139406666Y-40593428D01*
X139454285Y-40441047D01*
X139501904Y-40136285D01*
X139501904Y-39755333D01*
X139454285Y-39450571D01*
X139406666Y-39298190D01*
X139359047Y-39222000D01*
X139263809Y-39145809D01*
X142882857Y-42864666D02*
X142406666Y-42864666D01*
X142978095Y-43321809D02*
X142644761Y-41721809D01*
X142311428Y-43321809D01*
X141501904Y-43321809D02*
X141978095Y-43321809D01*
X141978095Y-41721809D01*
X141168571Y-42483714D02*
X140835238Y-42483714D01*
X140692380Y-43321809D02*
X141168571Y-43321809D01*
X141168571Y-41721809D01*
X140692380Y-41721809D01*
X139692380Y-43321809D02*
X140025714Y-42559904D01*
X140263809Y-43321809D02*
X140263809Y-41721809D01*
X139882857Y-41721809D01*
X139787619Y-41798000D01*
X139740000Y-41874190D01*
X139692380Y-42026571D01*
X139692380Y-42255142D01*
X139740000Y-42407523D01*
X139787619Y-42483714D01*
X139882857Y-42559904D01*
X140263809Y-42559904D01*
X139406666Y-41721809D02*
X138835238Y-41721809D01*
X139120952Y-43321809D02*
X139120952Y-41721809D01*
X141359047Y-45821619D02*
X141216190Y-45897809D01*
X140978095Y-45897809D01*
X140882857Y-45821619D01*
X140835238Y-45745428D01*
X140787619Y-45593047D01*
X140787619Y-45440666D01*
X140835238Y-45288285D01*
X140882857Y-45212095D01*
X140978095Y-45135904D01*
X141168571Y-45059714D01*
X141263809Y-44983523D01*
X141311428Y-44907333D01*
X141359047Y-44754952D01*
X141359047Y-44602571D01*
X141311428Y-44450190D01*
X141263809Y-44374000D01*
X141168571Y-44297809D01*
X140930476Y-44297809D01*
X140787619Y-44374000D01*
X140359047Y-45897809D02*
X140359047Y-44297809D01*
X140120952Y-44297809D01*
X139978095Y-44374000D01*
X139882857Y-44526380D01*
X139835238Y-44678761D01*
X139787619Y-44983523D01*
X139787619Y-45212095D01*
X139835238Y-45516857D01*
X139882857Y-45669238D01*
X139978095Y-45821619D01*
X140120952Y-45897809D01*
X140359047Y-45897809D01*
X139406666Y-45440666D02*
X138930476Y-45440666D01*
X139501904Y-45897809D02*
X139168571Y-44297809D01*
X138835238Y-45897809D01*
X141311428Y-48397619D02*
X141168571Y-48473809D01*
X140930476Y-48473809D01*
X140835238Y-48397619D01*
X140787619Y-48321428D01*
X140740000Y-48169047D01*
X140740000Y-48016666D01*
X140787619Y-47864285D01*
X140835238Y-47788095D01*
X140930476Y-47711904D01*
X141120952Y-47635714D01*
X141216190Y-47559523D01*
X141263809Y-47483333D01*
X141311428Y-47330952D01*
X141311428Y-47178571D01*
X141263809Y-47026190D01*
X141216190Y-46950000D01*
X141120952Y-46873809D01*
X140882857Y-46873809D01*
X140740000Y-46950000D01*
X139740000Y-48321428D02*
X139787619Y-48397619D01*
X139930476Y-48473809D01*
X140025714Y-48473809D01*
X140168571Y-48397619D01*
X140263809Y-48245238D01*
X140311428Y-48092857D01*
X140359047Y-47788095D01*
X140359047Y-47559523D01*
X140311428Y-47254761D01*
X140263809Y-47102380D01*
X140168571Y-46950000D01*
X140025714Y-46873809D01*
X139930476Y-46873809D01*
X139787619Y-46950000D01*
X139740000Y-47026190D01*
X138835238Y-48473809D02*
X139311428Y-48473809D01*
X139311428Y-46873809D01*
X141025714Y-49526000D02*
X141120952Y-49449809D01*
X141263809Y-49449809D01*
X141406666Y-49526000D01*
X141501904Y-49678380D01*
X141549523Y-49830761D01*
X141597142Y-50135523D01*
X141597142Y-50364095D01*
X141549523Y-50668857D01*
X141501904Y-50821238D01*
X141406666Y-50973619D01*
X141263809Y-51049809D01*
X141168571Y-51049809D01*
X141025714Y-50973619D01*
X140978095Y-50897428D01*
X140978095Y-50364095D01*
X141168571Y-50364095D01*
X140549523Y-51049809D02*
X140549523Y-49449809D01*
X139978095Y-51049809D01*
X139978095Y-49449809D01*
X139501904Y-51049809D02*
X139501904Y-49449809D01*
X139263809Y-49449809D01*
X139120952Y-49526000D01*
X139025714Y-49678380D01*
X138978095Y-49830761D01*
X138930476Y-50135523D01*
X138930476Y-50364095D01*
X138978095Y-50668857D01*
X139025714Y-50821238D01*
X139120952Y-50973619D01*
X139263809Y-51049809D01*
X139501904Y-51049809D01*
X114740000Y-55417809D02*
X114406666Y-57017809D01*
X114073333Y-55417809D01*
X113359047Y-56941619D02*
X113454285Y-57017809D01*
X113644761Y-57017809D01*
X113740000Y-56941619D01*
X113787619Y-56789238D01*
X113787619Y-56179714D01*
X113740000Y-56027333D01*
X113644761Y-55951142D01*
X113454285Y-55951142D01*
X113359047Y-56027333D01*
X113311428Y-56179714D01*
X113311428Y-56332095D01*
X113787619Y-56484476D01*
X112978095Y-57017809D02*
X112454285Y-55951142D01*
X112978095Y-55951142D02*
X112454285Y-57017809D01*
X112216190Y-55951142D02*
X111835238Y-55951142D01*
X112073333Y-55417809D02*
X112073333Y-56789238D01*
X112025714Y-56941619D01*
X111930476Y-57017809D01*
X111835238Y-57017809D01*
X114263809Y-57993809D02*
X113644761Y-57993809D01*
X113978095Y-58603333D01*
X113835238Y-58603333D01*
X113740000Y-58679523D01*
X113692380Y-58755714D01*
X113644761Y-58908095D01*
X113644761Y-59289047D01*
X113692380Y-59441428D01*
X113740000Y-59517619D01*
X113835238Y-59593809D01*
X114120952Y-59593809D01*
X114216190Y-59517619D01*
X114263809Y-59441428D01*
X113311428Y-58527142D02*
X113073333Y-59593809D01*
X112835238Y-58527142D01*
X112549523Y-57993809D02*
X111930476Y-57993809D01*
X112263809Y-58603333D01*
X112120952Y-58603333D01*
X112025714Y-58679523D01*
X111978095Y-58755714D01*
X111930476Y-58908095D01*
X111930476Y-59289047D01*
X111978095Y-59441428D01*
X112025714Y-59517619D01*
X112120952Y-59593809D01*
X112406666Y-59593809D01*
X112501904Y-59517619D01*
X112549523Y-59441428D01*
X113359047Y-61712666D02*
X112882857Y-61712666D01*
X113454285Y-62169809D02*
X113120952Y-60569809D01*
X112787619Y-62169809D01*
X111930476Y-62169809D02*
X112501904Y-62169809D01*
X112216190Y-62169809D02*
X112216190Y-60569809D01*
X112311428Y-60798380D01*
X112406666Y-60950761D01*
X112501904Y-61026952D01*
X113359047Y-64288666D02*
X112882857Y-64288666D01*
X113454285Y-64745809D02*
X113120952Y-63145809D01*
X112787619Y-64745809D01*
X112263809Y-63145809D02*
X112168571Y-63145809D01*
X112073333Y-63222000D01*
X112025714Y-63298190D01*
X111978095Y-63450571D01*
X111930476Y-63755333D01*
X111930476Y-64136285D01*
X111978095Y-64441047D01*
X112025714Y-64593428D01*
X112073333Y-64669619D01*
X112168571Y-64745809D01*
X112263809Y-64745809D01*
X112359047Y-64669619D01*
X112406666Y-64593428D01*
X112454285Y-64441047D01*
X112501904Y-64136285D01*
X112501904Y-63755333D01*
X112454285Y-63450571D01*
X112406666Y-63298190D01*
X112359047Y-63222000D01*
X112263809Y-63145809D01*
X115882857Y-66864666D02*
X115406666Y-66864666D01*
X115978095Y-67321809D02*
X115644761Y-65721809D01*
X115311428Y-67321809D01*
X114501904Y-67321809D02*
X114978095Y-67321809D01*
X114978095Y-65721809D01*
X114168571Y-66483714D02*
X113835238Y-66483714D01*
X113692380Y-67321809D02*
X114168571Y-67321809D01*
X114168571Y-65721809D01*
X113692380Y-65721809D01*
X112692380Y-67321809D02*
X113025714Y-66559904D01*
X113263809Y-67321809D02*
X113263809Y-65721809D01*
X112882857Y-65721809D01*
X112787619Y-65798000D01*
X112740000Y-65874190D01*
X112692380Y-66026571D01*
X112692380Y-66255142D01*
X112740000Y-66407523D01*
X112787619Y-66483714D01*
X112882857Y-66559904D01*
X113263809Y-66559904D01*
X112406666Y-65721809D02*
X111835238Y-65721809D01*
X112120952Y-67321809D02*
X112120952Y-65721809D01*
X114359047Y-69821619D02*
X114216190Y-69897809D01*
X113978095Y-69897809D01*
X113882857Y-69821619D01*
X113835238Y-69745428D01*
X113787619Y-69593047D01*
X113787619Y-69440666D01*
X113835238Y-69288285D01*
X113882857Y-69212095D01*
X113978095Y-69135904D01*
X114168571Y-69059714D01*
X114263809Y-68983523D01*
X114311428Y-68907333D01*
X114359047Y-68754952D01*
X114359047Y-68602571D01*
X114311428Y-68450190D01*
X114263809Y-68374000D01*
X114168571Y-68297809D01*
X113930476Y-68297809D01*
X113787619Y-68374000D01*
X113359047Y-69897809D02*
X113359047Y-68297809D01*
X113120952Y-68297809D01*
X112978095Y-68374000D01*
X112882857Y-68526380D01*
X112835238Y-68678761D01*
X112787619Y-68983523D01*
X112787619Y-69212095D01*
X112835238Y-69516857D01*
X112882857Y-69669238D01*
X112978095Y-69821619D01*
X113120952Y-69897809D01*
X113359047Y-69897809D01*
X112406666Y-69440666D02*
X111930476Y-69440666D01*
X112501904Y-69897809D02*
X112168571Y-68297809D01*
X111835238Y-69897809D01*
X114311428Y-72397619D02*
X114168571Y-72473809D01*
X113930476Y-72473809D01*
X113835238Y-72397619D01*
X113787619Y-72321428D01*
X113740000Y-72169047D01*
X113740000Y-72016666D01*
X113787619Y-71864285D01*
X113835238Y-71788095D01*
X113930476Y-71711904D01*
X114120952Y-71635714D01*
X114216190Y-71559523D01*
X114263809Y-71483333D01*
X114311428Y-71330952D01*
X114311428Y-71178571D01*
X114263809Y-71026190D01*
X114216190Y-70950000D01*
X114120952Y-70873809D01*
X113882857Y-70873809D01*
X113740000Y-70950000D01*
X112740000Y-72321428D02*
X112787619Y-72397619D01*
X112930476Y-72473809D01*
X113025714Y-72473809D01*
X113168571Y-72397619D01*
X113263809Y-72245238D01*
X113311428Y-72092857D01*
X113359047Y-71788095D01*
X113359047Y-71559523D01*
X113311428Y-71254761D01*
X113263809Y-71102380D01*
X113168571Y-70950000D01*
X113025714Y-70873809D01*
X112930476Y-70873809D01*
X112787619Y-70950000D01*
X112740000Y-71026190D01*
X111835238Y-72473809D02*
X112311428Y-72473809D01*
X112311428Y-70873809D01*
X114025714Y-73526000D02*
X114120952Y-73449809D01*
X114263809Y-73449809D01*
X114406666Y-73526000D01*
X114501904Y-73678380D01*
X114549523Y-73830761D01*
X114597142Y-74135523D01*
X114597142Y-74364095D01*
X114549523Y-74668857D01*
X114501904Y-74821238D01*
X114406666Y-74973619D01*
X114263809Y-75049809D01*
X114168571Y-75049809D01*
X114025714Y-74973619D01*
X113978095Y-74897428D01*
X113978095Y-74364095D01*
X114168571Y-74364095D01*
X113549523Y-75049809D02*
X113549523Y-73449809D01*
X112978095Y-75049809D01*
X112978095Y-73449809D01*
X112501904Y-75049809D02*
X112501904Y-73449809D01*
X112263809Y-73449809D01*
X112120952Y-73526000D01*
X112025714Y-73678380D01*
X111978095Y-73830761D01*
X111930476Y-74135523D01*
X111930476Y-74364095D01*
X111978095Y-74668857D01*
X112025714Y-74821238D01*
X112120952Y-74973619D01*
X112263809Y-75049809D01*
X112501904Y-75049809D01*
X114740000Y-79417809D02*
X114406666Y-81017809D01*
X114073333Y-79417809D01*
X113359047Y-80941619D02*
X113454285Y-81017809D01*
X113644761Y-81017809D01*
X113740000Y-80941619D01*
X113787619Y-80789238D01*
X113787619Y-80179714D01*
X113740000Y-80027333D01*
X113644761Y-79951142D01*
X113454285Y-79951142D01*
X113359047Y-80027333D01*
X113311428Y-80179714D01*
X113311428Y-80332095D01*
X113787619Y-80484476D01*
X112978095Y-81017809D02*
X112454285Y-79951142D01*
X112978095Y-79951142D02*
X112454285Y-81017809D01*
X112216190Y-79951142D02*
X111835238Y-79951142D01*
X112073333Y-79417809D02*
X112073333Y-80789238D01*
X112025714Y-80941619D01*
X111930476Y-81017809D01*
X111835238Y-81017809D01*
X114263809Y-81993809D02*
X113644761Y-81993809D01*
X113978095Y-82603333D01*
X113835238Y-82603333D01*
X113740000Y-82679523D01*
X113692380Y-82755714D01*
X113644761Y-82908095D01*
X113644761Y-83289047D01*
X113692380Y-83441428D01*
X113740000Y-83517619D01*
X113835238Y-83593809D01*
X114120952Y-83593809D01*
X114216190Y-83517619D01*
X114263809Y-83441428D01*
X113311428Y-82527142D02*
X113073333Y-83593809D01*
X112835238Y-82527142D01*
X112549523Y-81993809D02*
X111930476Y-81993809D01*
X112263809Y-82603333D01*
X112120952Y-82603333D01*
X112025714Y-82679523D01*
X111978095Y-82755714D01*
X111930476Y-82908095D01*
X111930476Y-83289047D01*
X111978095Y-83441428D01*
X112025714Y-83517619D01*
X112120952Y-83593809D01*
X112406666Y-83593809D01*
X112501904Y-83517619D01*
X112549523Y-83441428D01*
X113359047Y-85712666D02*
X112882857Y-85712666D01*
X113454285Y-86169809D02*
X113120952Y-84569809D01*
X112787619Y-86169809D01*
X111930476Y-86169809D02*
X112501904Y-86169809D01*
X112216190Y-86169809D02*
X112216190Y-84569809D01*
X112311428Y-84798380D01*
X112406666Y-84950761D01*
X112501904Y-85026952D01*
X113359047Y-88288666D02*
X112882857Y-88288666D01*
X113454285Y-88745809D02*
X113120952Y-87145809D01*
X112787619Y-88745809D01*
X112263809Y-87145809D02*
X112168571Y-87145809D01*
X112073333Y-87222000D01*
X112025714Y-87298190D01*
X111978095Y-87450571D01*
X111930476Y-87755333D01*
X111930476Y-88136285D01*
X111978095Y-88441047D01*
X112025714Y-88593428D01*
X112073333Y-88669619D01*
X112168571Y-88745809D01*
X112263809Y-88745809D01*
X112359047Y-88669619D01*
X112406666Y-88593428D01*
X112454285Y-88441047D01*
X112501904Y-88136285D01*
X112501904Y-87755333D01*
X112454285Y-87450571D01*
X112406666Y-87298190D01*
X112359047Y-87222000D01*
X112263809Y-87145809D01*
X115882857Y-90864666D02*
X115406666Y-90864666D01*
X115978095Y-91321809D02*
X115644761Y-89721809D01*
X115311428Y-91321809D01*
X114501904Y-91321809D02*
X114978095Y-91321809D01*
X114978095Y-89721809D01*
X114168571Y-90483714D02*
X113835238Y-90483714D01*
X113692380Y-91321809D02*
X114168571Y-91321809D01*
X114168571Y-89721809D01*
X113692380Y-89721809D01*
X112692380Y-91321809D02*
X113025714Y-90559904D01*
X113263809Y-91321809D02*
X113263809Y-89721809D01*
X112882857Y-89721809D01*
X112787619Y-89798000D01*
X112740000Y-89874190D01*
X112692380Y-90026571D01*
X112692380Y-90255142D01*
X112740000Y-90407523D01*
X112787619Y-90483714D01*
X112882857Y-90559904D01*
X113263809Y-90559904D01*
X112406666Y-89721809D02*
X111835238Y-89721809D01*
X112120952Y-91321809D02*
X112120952Y-89721809D01*
X114359047Y-93821619D02*
X114216190Y-93897809D01*
X113978095Y-93897809D01*
X113882857Y-93821619D01*
X113835238Y-93745428D01*
X113787619Y-93593047D01*
X113787619Y-93440666D01*
X113835238Y-93288285D01*
X113882857Y-93212095D01*
X113978095Y-93135904D01*
X114168571Y-93059714D01*
X114263809Y-92983523D01*
X114311428Y-92907333D01*
X114359047Y-92754952D01*
X114359047Y-92602571D01*
X114311428Y-92450190D01*
X114263809Y-92374000D01*
X114168571Y-92297809D01*
X113930476Y-92297809D01*
X113787619Y-92374000D01*
X113359047Y-93897809D02*
X113359047Y-92297809D01*
X113120952Y-92297809D01*
X112978095Y-92374000D01*
X112882857Y-92526380D01*
X112835238Y-92678761D01*
X112787619Y-92983523D01*
X112787619Y-93212095D01*
X112835238Y-93516857D01*
X112882857Y-93669238D01*
X112978095Y-93821619D01*
X113120952Y-93897809D01*
X113359047Y-93897809D01*
X112406666Y-93440666D02*
X111930476Y-93440666D01*
X112501904Y-93897809D02*
X112168571Y-92297809D01*
X111835238Y-93897809D01*
X114311428Y-96397619D02*
X114168571Y-96473809D01*
X113930476Y-96473809D01*
X113835238Y-96397619D01*
X113787619Y-96321428D01*
X113740000Y-96169047D01*
X113740000Y-96016666D01*
X113787619Y-95864285D01*
X113835238Y-95788095D01*
X113930476Y-95711904D01*
X114120952Y-95635714D01*
X114216190Y-95559523D01*
X114263809Y-95483333D01*
X114311428Y-95330952D01*
X114311428Y-95178571D01*
X114263809Y-95026190D01*
X114216190Y-94950000D01*
X114120952Y-94873809D01*
X113882857Y-94873809D01*
X113740000Y-94950000D01*
X112740000Y-96321428D02*
X112787619Y-96397619D01*
X112930476Y-96473809D01*
X113025714Y-96473809D01*
X113168571Y-96397619D01*
X113263809Y-96245238D01*
X113311428Y-96092857D01*
X113359047Y-95788095D01*
X113359047Y-95559523D01*
X113311428Y-95254761D01*
X113263809Y-95102380D01*
X113168571Y-94950000D01*
X113025714Y-94873809D01*
X112930476Y-94873809D01*
X112787619Y-94950000D01*
X112740000Y-95026190D01*
X111835238Y-96473809D02*
X112311428Y-96473809D01*
X112311428Y-94873809D01*
X114025714Y-97526000D02*
X114120952Y-97449809D01*
X114263809Y-97449809D01*
X114406666Y-97526000D01*
X114501904Y-97678380D01*
X114549523Y-97830761D01*
X114597142Y-98135523D01*
X114597142Y-98364095D01*
X114549523Y-98668857D01*
X114501904Y-98821238D01*
X114406666Y-98973619D01*
X114263809Y-99049809D01*
X114168571Y-99049809D01*
X114025714Y-98973619D01*
X113978095Y-98897428D01*
X113978095Y-98364095D01*
X114168571Y-98364095D01*
X113549523Y-99049809D02*
X113549523Y-97449809D01*
X112978095Y-99049809D01*
X112978095Y-97449809D01*
X112501904Y-99049809D02*
X112501904Y-97449809D01*
X112263809Y-97449809D01*
X112120952Y-97526000D01*
X112025714Y-97678380D01*
X111978095Y-97830761D01*
X111930476Y-98135523D01*
X111930476Y-98364095D01*
X111978095Y-98668857D01*
X112025714Y-98821238D01*
X112120952Y-98973619D01*
X112263809Y-99049809D01*
X112501904Y-99049809D01*
X141740000Y-79417809D02*
X141406666Y-81017809D01*
X141073333Y-79417809D01*
X140359047Y-80941619D02*
X140454285Y-81017809D01*
X140644761Y-81017809D01*
X140740000Y-80941619D01*
X140787619Y-80789238D01*
X140787619Y-80179714D01*
X140740000Y-80027333D01*
X140644761Y-79951142D01*
X140454285Y-79951142D01*
X140359047Y-80027333D01*
X140311428Y-80179714D01*
X140311428Y-80332095D01*
X140787619Y-80484476D01*
X139978095Y-81017809D02*
X139454285Y-79951142D01*
X139978095Y-79951142D02*
X139454285Y-81017809D01*
X139216190Y-79951142D02*
X138835238Y-79951142D01*
X139073333Y-79417809D02*
X139073333Y-80789238D01*
X139025714Y-80941619D01*
X138930476Y-81017809D01*
X138835238Y-81017809D01*
X141263809Y-81993809D02*
X140644761Y-81993809D01*
X140978095Y-82603333D01*
X140835238Y-82603333D01*
X140740000Y-82679523D01*
X140692380Y-82755714D01*
X140644761Y-82908095D01*
X140644761Y-83289047D01*
X140692380Y-83441428D01*
X140740000Y-83517619D01*
X140835238Y-83593809D01*
X141120952Y-83593809D01*
X141216190Y-83517619D01*
X141263809Y-83441428D01*
X140311428Y-82527142D02*
X140073333Y-83593809D01*
X139835238Y-82527142D01*
X139549523Y-81993809D02*
X138930476Y-81993809D01*
X139263809Y-82603333D01*
X139120952Y-82603333D01*
X139025714Y-82679523D01*
X138978095Y-82755714D01*
X138930476Y-82908095D01*
X138930476Y-83289047D01*
X138978095Y-83441428D01*
X139025714Y-83517619D01*
X139120952Y-83593809D01*
X139406666Y-83593809D01*
X139501904Y-83517619D01*
X139549523Y-83441428D01*
X140359047Y-85712666D02*
X139882857Y-85712666D01*
X140454285Y-86169809D02*
X140120952Y-84569809D01*
X139787619Y-86169809D01*
X138930476Y-86169809D02*
X139501904Y-86169809D01*
X139216190Y-86169809D02*
X139216190Y-84569809D01*
X139311428Y-84798380D01*
X139406666Y-84950761D01*
X139501904Y-85026952D01*
X140359047Y-88288666D02*
X139882857Y-88288666D01*
X140454285Y-88745809D02*
X140120952Y-87145809D01*
X139787619Y-88745809D01*
X139263809Y-87145809D02*
X139168571Y-87145809D01*
X139073333Y-87222000D01*
X139025714Y-87298190D01*
X138978095Y-87450571D01*
X138930476Y-87755333D01*
X138930476Y-88136285D01*
X138978095Y-88441047D01*
X139025714Y-88593428D01*
X139073333Y-88669619D01*
X139168571Y-88745809D01*
X139263809Y-88745809D01*
X139359047Y-88669619D01*
X139406666Y-88593428D01*
X139454285Y-88441047D01*
X139501904Y-88136285D01*
X139501904Y-87755333D01*
X139454285Y-87450571D01*
X139406666Y-87298190D01*
X139359047Y-87222000D01*
X139263809Y-87145809D01*
X142882857Y-90864666D02*
X142406666Y-90864666D01*
X142978095Y-91321809D02*
X142644761Y-89721809D01*
X142311428Y-91321809D01*
X141501904Y-91321809D02*
X141978095Y-91321809D01*
X141978095Y-89721809D01*
X141168571Y-90483714D02*
X140835238Y-90483714D01*
X140692380Y-91321809D02*
X141168571Y-91321809D01*
X141168571Y-89721809D01*
X140692380Y-89721809D01*
X139692380Y-91321809D02*
X140025714Y-90559904D01*
X140263809Y-91321809D02*
X140263809Y-89721809D01*
X139882857Y-89721809D01*
X139787619Y-89798000D01*
X139740000Y-89874190D01*
X139692380Y-90026571D01*
X139692380Y-90255142D01*
X139740000Y-90407523D01*
X139787619Y-90483714D01*
X139882857Y-90559904D01*
X140263809Y-90559904D01*
X139406666Y-89721809D02*
X138835238Y-89721809D01*
X139120952Y-91321809D02*
X139120952Y-89721809D01*
X141359047Y-93821619D02*
X141216190Y-93897809D01*
X140978095Y-93897809D01*
X140882857Y-93821619D01*
X140835238Y-93745428D01*
X140787619Y-93593047D01*
X140787619Y-93440666D01*
X140835238Y-93288285D01*
X140882857Y-93212095D01*
X140978095Y-93135904D01*
X141168571Y-93059714D01*
X141263809Y-92983523D01*
X141311428Y-92907333D01*
X141359047Y-92754952D01*
X141359047Y-92602571D01*
X141311428Y-92450190D01*
X141263809Y-92374000D01*
X141168571Y-92297809D01*
X140930476Y-92297809D01*
X140787619Y-92374000D01*
X140359047Y-93897809D02*
X140359047Y-92297809D01*
X140120952Y-92297809D01*
X139978095Y-92374000D01*
X139882857Y-92526380D01*
X139835238Y-92678761D01*
X139787619Y-92983523D01*
X139787619Y-93212095D01*
X139835238Y-93516857D01*
X139882857Y-93669238D01*
X139978095Y-93821619D01*
X140120952Y-93897809D01*
X140359047Y-93897809D01*
X139406666Y-93440666D02*
X138930476Y-93440666D01*
X139501904Y-93897809D02*
X139168571Y-92297809D01*
X138835238Y-93897809D01*
X141311428Y-96397619D02*
X141168571Y-96473809D01*
X140930476Y-96473809D01*
X140835238Y-96397619D01*
X140787619Y-96321428D01*
X140740000Y-96169047D01*
X140740000Y-96016666D01*
X140787619Y-95864285D01*
X140835238Y-95788095D01*
X140930476Y-95711904D01*
X141120952Y-95635714D01*
X141216190Y-95559523D01*
X141263809Y-95483333D01*
X141311428Y-95330952D01*
X141311428Y-95178571D01*
X141263809Y-95026190D01*
X141216190Y-94950000D01*
X141120952Y-94873809D01*
X140882857Y-94873809D01*
X140740000Y-94950000D01*
X139740000Y-96321428D02*
X139787619Y-96397619D01*
X139930476Y-96473809D01*
X140025714Y-96473809D01*
X140168571Y-96397619D01*
X140263809Y-96245238D01*
X140311428Y-96092857D01*
X140359047Y-95788095D01*
X140359047Y-95559523D01*
X140311428Y-95254761D01*
X140263809Y-95102380D01*
X140168571Y-94950000D01*
X140025714Y-94873809D01*
X139930476Y-94873809D01*
X139787619Y-94950000D01*
X139740000Y-95026190D01*
X138835238Y-96473809D02*
X139311428Y-96473809D01*
X139311428Y-94873809D01*
X141025714Y-97526000D02*
X141120952Y-97449809D01*
X141263809Y-97449809D01*
X141406666Y-97526000D01*
X141501904Y-97678380D01*
X141549523Y-97830761D01*
X141597142Y-98135523D01*
X141597142Y-98364095D01*
X141549523Y-98668857D01*
X141501904Y-98821238D01*
X141406666Y-98973619D01*
X141263809Y-99049809D01*
X141168571Y-99049809D01*
X141025714Y-98973619D01*
X140978095Y-98897428D01*
X140978095Y-98364095D01*
X141168571Y-98364095D01*
X140549523Y-99049809D02*
X140549523Y-97449809D01*
X139978095Y-99049809D01*
X139978095Y-97449809D01*
X139501904Y-99049809D02*
X139501904Y-97449809D01*
X139263809Y-97449809D01*
X139120952Y-97526000D01*
X139025714Y-97678380D01*
X138978095Y-97830761D01*
X138930476Y-98135523D01*
X138930476Y-98364095D01*
X138978095Y-98668857D01*
X139025714Y-98821238D01*
X139120952Y-98973619D01*
X139263809Y-99049809D01*
X139501904Y-99049809D01*
X168740000Y-79417809D02*
X168406666Y-81017809D01*
X168073333Y-79417809D01*
X167359047Y-80941619D02*
X167454285Y-81017809D01*
X167644761Y-81017809D01*
X167740000Y-80941619D01*
X167787619Y-80789238D01*
X167787619Y-80179714D01*
X167740000Y-80027333D01*
X167644761Y-79951142D01*
X167454285Y-79951142D01*
X167359047Y-80027333D01*
X167311428Y-80179714D01*
X167311428Y-80332095D01*
X167787619Y-80484476D01*
X166978095Y-81017809D02*
X166454285Y-79951142D01*
X166978095Y-79951142D02*
X166454285Y-81017809D01*
X166216190Y-79951142D02*
X165835238Y-79951142D01*
X166073333Y-79417809D02*
X166073333Y-80789238D01*
X166025714Y-80941619D01*
X165930476Y-81017809D01*
X165835238Y-81017809D01*
X168263809Y-81993809D02*
X167644761Y-81993809D01*
X167978095Y-82603333D01*
X167835238Y-82603333D01*
X167740000Y-82679523D01*
X167692380Y-82755714D01*
X167644761Y-82908095D01*
X167644761Y-83289047D01*
X167692380Y-83441428D01*
X167740000Y-83517619D01*
X167835238Y-83593809D01*
X168120952Y-83593809D01*
X168216190Y-83517619D01*
X168263809Y-83441428D01*
X167311428Y-82527142D02*
X167073333Y-83593809D01*
X166835238Y-82527142D01*
X166549523Y-81993809D02*
X165930476Y-81993809D01*
X166263809Y-82603333D01*
X166120952Y-82603333D01*
X166025714Y-82679523D01*
X165978095Y-82755714D01*
X165930476Y-82908095D01*
X165930476Y-83289047D01*
X165978095Y-83441428D01*
X166025714Y-83517619D01*
X166120952Y-83593809D01*
X166406666Y-83593809D01*
X166501904Y-83517619D01*
X166549523Y-83441428D01*
X167359047Y-85712666D02*
X166882857Y-85712666D01*
X167454285Y-86169809D02*
X167120952Y-84569809D01*
X166787619Y-86169809D01*
X165930476Y-86169809D02*
X166501904Y-86169809D01*
X166216190Y-86169809D02*
X166216190Y-84569809D01*
X166311428Y-84798380D01*
X166406666Y-84950761D01*
X166501904Y-85026952D01*
X167359047Y-88288666D02*
X166882857Y-88288666D01*
X167454285Y-88745809D02*
X167120952Y-87145809D01*
X166787619Y-88745809D01*
X166263809Y-87145809D02*
X166168571Y-87145809D01*
X166073333Y-87222000D01*
X166025714Y-87298190D01*
X165978095Y-87450571D01*
X165930476Y-87755333D01*
X165930476Y-88136285D01*
X165978095Y-88441047D01*
X166025714Y-88593428D01*
X166073333Y-88669619D01*
X166168571Y-88745809D01*
X166263809Y-88745809D01*
X166359047Y-88669619D01*
X166406666Y-88593428D01*
X166454285Y-88441047D01*
X166501904Y-88136285D01*
X166501904Y-87755333D01*
X166454285Y-87450571D01*
X166406666Y-87298190D01*
X166359047Y-87222000D01*
X166263809Y-87145809D01*
X169882857Y-90864666D02*
X169406666Y-90864666D01*
X169978095Y-91321809D02*
X169644761Y-89721809D01*
X169311428Y-91321809D01*
X168501904Y-91321809D02*
X168978095Y-91321809D01*
X168978095Y-89721809D01*
X168168571Y-90483714D02*
X167835238Y-90483714D01*
X167692380Y-91321809D02*
X168168571Y-91321809D01*
X168168571Y-89721809D01*
X167692380Y-89721809D01*
X166692380Y-91321809D02*
X167025714Y-90559904D01*
X167263809Y-91321809D02*
X167263809Y-89721809D01*
X166882857Y-89721809D01*
X166787619Y-89798000D01*
X166740000Y-89874190D01*
X166692380Y-90026571D01*
X166692380Y-90255142D01*
X166740000Y-90407523D01*
X166787619Y-90483714D01*
X166882857Y-90559904D01*
X167263809Y-90559904D01*
X166406666Y-89721809D02*
X165835238Y-89721809D01*
X166120952Y-91321809D02*
X166120952Y-89721809D01*
X168359047Y-93821619D02*
X168216190Y-93897809D01*
X167978095Y-93897809D01*
X167882857Y-93821619D01*
X167835238Y-93745428D01*
X167787619Y-93593047D01*
X167787619Y-93440666D01*
X167835238Y-93288285D01*
X167882857Y-93212095D01*
X167978095Y-93135904D01*
X168168571Y-93059714D01*
X168263809Y-92983523D01*
X168311428Y-92907333D01*
X168359047Y-92754952D01*
X168359047Y-92602571D01*
X168311428Y-92450190D01*
X168263809Y-92374000D01*
X168168571Y-92297809D01*
X167930476Y-92297809D01*
X167787619Y-92374000D01*
X167359047Y-93897809D02*
X167359047Y-92297809D01*
X167120952Y-92297809D01*
X166978095Y-92374000D01*
X166882857Y-92526380D01*
X166835238Y-92678761D01*
X166787619Y-92983523D01*
X166787619Y-93212095D01*
X166835238Y-93516857D01*
X166882857Y-93669238D01*
X166978095Y-93821619D01*
X167120952Y-93897809D01*
X167359047Y-93897809D01*
X166406666Y-93440666D02*
X165930476Y-93440666D01*
X166501904Y-93897809D02*
X166168571Y-92297809D01*
X165835238Y-93897809D01*
X168311428Y-96397619D02*
X168168571Y-96473809D01*
X167930476Y-96473809D01*
X167835238Y-96397619D01*
X167787619Y-96321428D01*
X167740000Y-96169047D01*
X167740000Y-96016666D01*
X167787619Y-95864285D01*
X167835238Y-95788095D01*
X167930476Y-95711904D01*
X168120952Y-95635714D01*
X168216190Y-95559523D01*
X168263809Y-95483333D01*
X168311428Y-95330952D01*
X168311428Y-95178571D01*
X168263809Y-95026190D01*
X168216190Y-94950000D01*
X168120952Y-94873809D01*
X167882857Y-94873809D01*
X167740000Y-94950000D01*
X166740000Y-96321428D02*
X166787619Y-96397619D01*
X166930476Y-96473809D01*
X167025714Y-96473809D01*
X167168571Y-96397619D01*
X167263809Y-96245238D01*
X167311428Y-96092857D01*
X167359047Y-95788095D01*
X167359047Y-95559523D01*
X167311428Y-95254761D01*
X167263809Y-95102380D01*
X167168571Y-94950000D01*
X167025714Y-94873809D01*
X166930476Y-94873809D01*
X166787619Y-94950000D01*
X166740000Y-95026190D01*
X165835238Y-96473809D02*
X166311428Y-96473809D01*
X166311428Y-94873809D01*
X168025714Y-97526000D02*
X168120952Y-97449809D01*
X168263809Y-97449809D01*
X168406666Y-97526000D01*
X168501904Y-97678380D01*
X168549523Y-97830761D01*
X168597142Y-98135523D01*
X168597142Y-98364095D01*
X168549523Y-98668857D01*
X168501904Y-98821238D01*
X168406666Y-98973619D01*
X168263809Y-99049809D01*
X168168571Y-99049809D01*
X168025714Y-98973619D01*
X167978095Y-98897428D01*
X167978095Y-98364095D01*
X168168571Y-98364095D01*
X167549523Y-99049809D02*
X167549523Y-97449809D01*
X166978095Y-99049809D01*
X166978095Y-97449809D01*
X166501904Y-99049809D02*
X166501904Y-97449809D01*
X166263809Y-97449809D01*
X166120952Y-97526000D01*
X166025714Y-97678380D01*
X165978095Y-97830761D01*
X165930476Y-98135523D01*
X165930476Y-98364095D01*
X165978095Y-98668857D01*
X166025714Y-98821238D01*
X166120952Y-98973619D01*
X166263809Y-99049809D01*
X166501904Y-99049809D01*
D11*
X121780952Y-29987619D02*
X121304761Y-29987619D01*
X121304761Y-30987619D01*
X122114285Y-29987619D02*
X122114285Y-30987619D01*
X122352380Y-30987619D01*
X122495238Y-30940000D01*
X122590476Y-30844761D01*
X122638095Y-30749523D01*
X122685714Y-30559047D01*
X122685714Y-30416190D01*
X122638095Y-30225714D01*
X122590476Y-30130476D01*
X122495238Y-30035238D01*
X122352380Y-29987619D01*
X122114285Y-29987619D01*
X123304761Y-30987619D02*
X123495238Y-30987619D01*
X123590476Y-30940000D01*
X123685714Y-30844761D01*
X123733333Y-30654285D01*
X123733333Y-30320952D01*
X123685714Y-30130476D01*
X123590476Y-30035238D01*
X123495238Y-29987619D01*
X123304761Y-29987619D01*
X123209523Y-30035238D01*
X123114285Y-30130476D01*
X123066666Y-30320952D01*
X123066666Y-30654285D01*
X123114285Y-30844761D01*
X123209523Y-30940000D01*
X123304761Y-30987619D01*
X123923809Y-29892380D02*
X124685714Y-29892380D01*
X125447619Y-30940000D02*
X125352380Y-30987619D01*
X125209523Y-30987619D01*
X125066666Y-30940000D01*
X124971428Y-30844761D01*
X124923809Y-30749523D01*
X124876190Y-30559047D01*
X124876190Y-30416190D01*
X124923809Y-30225714D01*
X124971428Y-30130476D01*
X125066666Y-30035238D01*
X125209523Y-29987619D01*
X125304761Y-29987619D01*
X125447619Y-30035238D01*
X125495238Y-30082857D01*
X125495238Y-30416190D01*
X125304761Y-30416190D01*
X125923809Y-29987619D02*
X125923809Y-30987619D01*
X126495238Y-29987619D01*
X126495238Y-30987619D01*
X126971428Y-29987619D02*
X126971428Y-30987619D01*
X127209523Y-30987619D01*
X127352380Y-30940000D01*
X127447619Y-30844761D01*
X127495238Y-30749523D01*
X127542857Y-30559047D01*
X127542857Y-30416190D01*
X127495238Y-30225714D01*
X127447619Y-30130476D01*
X127352380Y-30035238D01*
X127209523Y-29987619D01*
X126971428Y-29987619D01*
X148780952Y-29987619D02*
X148304761Y-29987619D01*
X148304761Y-30987619D01*
X149114285Y-29987619D02*
X149114285Y-30987619D01*
X149352380Y-30987619D01*
X149495238Y-30940000D01*
X149590476Y-30844761D01*
X149638095Y-30749523D01*
X149685714Y-30559047D01*
X149685714Y-30416190D01*
X149638095Y-30225714D01*
X149590476Y-30130476D01*
X149495238Y-30035238D01*
X149352380Y-29987619D01*
X149114285Y-29987619D01*
X150304761Y-30987619D02*
X150495238Y-30987619D01*
X150590476Y-30940000D01*
X150685714Y-30844761D01*
X150733333Y-30654285D01*
X150733333Y-30320952D01*
X150685714Y-30130476D01*
X150590476Y-30035238D01*
X150495238Y-29987619D01*
X150304761Y-29987619D01*
X150209523Y-30035238D01*
X150114285Y-30130476D01*
X150066666Y-30320952D01*
X150066666Y-30654285D01*
X150114285Y-30844761D01*
X150209523Y-30940000D01*
X150304761Y-30987619D01*
X150923809Y-29892380D02*
X151685714Y-29892380D01*
X152447619Y-30940000D02*
X152352380Y-30987619D01*
X152209523Y-30987619D01*
X152066666Y-30940000D01*
X151971428Y-30844761D01*
X151923809Y-30749523D01*
X151876190Y-30559047D01*
X151876190Y-30416190D01*
X151923809Y-30225714D01*
X151971428Y-30130476D01*
X152066666Y-30035238D01*
X152209523Y-29987619D01*
X152304761Y-29987619D01*
X152447619Y-30035238D01*
X152495238Y-30082857D01*
X152495238Y-30416190D01*
X152304761Y-30416190D01*
X152923809Y-29987619D02*
X152923809Y-30987619D01*
X153495238Y-29987619D01*
X153495238Y-30987619D01*
X153971428Y-29987619D02*
X153971428Y-30987619D01*
X154209523Y-30987619D01*
X154352380Y-30940000D01*
X154447619Y-30844761D01*
X154495238Y-30749523D01*
X154542857Y-30559047D01*
X154542857Y-30416190D01*
X154495238Y-30225714D01*
X154447619Y-30130476D01*
X154352380Y-30035238D01*
X154209523Y-29987619D01*
X153971428Y-29987619D01*
X175780952Y-29987619D02*
X175304761Y-29987619D01*
X175304761Y-30987619D01*
X176114285Y-29987619D02*
X176114285Y-30987619D01*
X176352380Y-30987619D01*
X176495238Y-30940000D01*
X176590476Y-30844761D01*
X176638095Y-30749523D01*
X176685714Y-30559047D01*
X176685714Y-30416190D01*
X176638095Y-30225714D01*
X176590476Y-30130476D01*
X176495238Y-30035238D01*
X176352380Y-29987619D01*
X176114285Y-29987619D01*
X177304761Y-30987619D02*
X177495238Y-30987619D01*
X177590476Y-30940000D01*
X177685714Y-30844761D01*
X177733333Y-30654285D01*
X177733333Y-30320952D01*
X177685714Y-30130476D01*
X177590476Y-30035238D01*
X177495238Y-29987619D01*
X177304761Y-29987619D01*
X177209523Y-30035238D01*
X177114285Y-30130476D01*
X177066666Y-30320952D01*
X177066666Y-30654285D01*
X177114285Y-30844761D01*
X177209523Y-30940000D01*
X177304761Y-30987619D01*
X177923809Y-29892380D02*
X178685714Y-29892380D01*
X179447619Y-30940000D02*
X179352380Y-30987619D01*
X179209523Y-30987619D01*
X179066666Y-30940000D01*
X178971428Y-30844761D01*
X178923809Y-30749523D01*
X178876190Y-30559047D01*
X178876190Y-30416190D01*
X178923809Y-30225714D01*
X178971428Y-30130476D01*
X179066666Y-30035238D01*
X179209523Y-29987619D01*
X179304761Y-29987619D01*
X179447619Y-30035238D01*
X179495238Y-30082857D01*
X179495238Y-30416190D01*
X179304761Y-30416190D01*
X179923809Y-29987619D02*
X179923809Y-30987619D01*
X180495238Y-29987619D01*
X180495238Y-30987619D01*
X180971428Y-29987619D02*
X180971428Y-30987619D01*
X181209523Y-30987619D01*
X181352380Y-30940000D01*
X181447619Y-30844761D01*
X181495238Y-30749523D01*
X181542857Y-30559047D01*
X181542857Y-30416190D01*
X181495238Y-30225714D01*
X181447619Y-30130476D01*
X181352380Y-30035238D01*
X181209523Y-29987619D01*
X180971428Y-29987619D01*
X121780952Y-53987619D02*
X121304761Y-53987619D01*
X121304761Y-54987619D01*
X122114285Y-53987619D02*
X122114285Y-54987619D01*
X122352380Y-54987619D01*
X122495238Y-54940000D01*
X122590476Y-54844761D01*
X122638095Y-54749523D01*
X122685714Y-54559047D01*
X122685714Y-54416190D01*
X122638095Y-54225714D01*
X122590476Y-54130476D01*
X122495238Y-54035238D01*
X122352380Y-53987619D01*
X122114285Y-53987619D01*
X123304761Y-54987619D02*
X123495238Y-54987619D01*
X123590476Y-54940000D01*
X123685714Y-54844761D01*
X123733333Y-54654285D01*
X123733333Y-54320952D01*
X123685714Y-54130476D01*
X123590476Y-54035238D01*
X123495238Y-53987619D01*
X123304761Y-53987619D01*
X123209523Y-54035238D01*
X123114285Y-54130476D01*
X123066666Y-54320952D01*
X123066666Y-54654285D01*
X123114285Y-54844761D01*
X123209523Y-54940000D01*
X123304761Y-54987619D01*
X123923809Y-53892380D02*
X124685714Y-53892380D01*
X125447619Y-54940000D02*
X125352380Y-54987619D01*
X125209523Y-54987619D01*
X125066666Y-54940000D01*
X124971428Y-54844761D01*
X124923809Y-54749523D01*
X124876190Y-54559047D01*
X124876190Y-54416190D01*
X124923809Y-54225714D01*
X124971428Y-54130476D01*
X125066666Y-54035238D01*
X125209523Y-53987619D01*
X125304761Y-53987619D01*
X125447619Y-54035238D01*
X125495238Y-54082857D01*
X125495238Y-54416190D01*
X125304761Y-54416190D01*
X125923809Y-53987619D02*
X125923809Y-54987619D01*
X126495238Y-53987619D01*
X126495238Y-54987619D01*
X126971428Y-53987619D02*
X126971428Y-54987619D01*
X127209523Y-54987619D01*
X127352380Y-54940000D01*
X127447619Y-54844761D01*
X127495238Y-54749523D01*
X127542857Y-54559047D01*
X127542857Y-54416190D01*
X127495238Y-54225714D01*
X127447619Y-54130476D01*
X127352380Y-54035238D01*
X127209523Y-53987619D01*
X126971428Y-53987619D01*
X148780952Y-53987619D02*
X148304761Y-53987619D01*
X148304761Y-54987619D01*
X149114285Y-53987619D02*
X149114285Y-54987619D01*
X149352380Y-54987619D01*
X149495238Y-54940000D01*
X149590476Y-54844761D01*
X149638095Y-54749523D01*
X149685714Y-54559047D01*
X149685714Y-54416190D01*
X149638095Y-54225714D01*
X149590476Y-54130476D01*
X149495238Y-54035238D01*
X149352380Y-53987619D01*
X149114285Y-53987619D01*
X150304761Y-54987619D02*
X150495238Y-54987619D01*
X150590476Y-54940000D01*
X150685714Y-54844761D01*
X150733333Y-54654285D01*
X150733333Y-54320952D01*
X150685714Y-54130476D01*
X150590476Y-54035238D01*
X150495238Y-53987619D01*
X150304761Y-53987619D01*
X150209523Y-54035238D01*
X150114285Y-54130476D01*
X150066666Y-54320952D01*
X150066666Y-54654285D01*
X150114285Y-54844761D01*
X150209523Y-54940000D01*
X150304761Y-54987619D01*
X150923809Y-53892380D02*
X151685714Y-53892380D01*
X152447619Y-54940000D02*
X152352380Y-54987619D01*
X152209523Y-54987619D01*
X152066666Y-54940000D01*
X151971428Y-54844761D01*
X151923809Y-54749523D01*
X151876190Y-54559047D01*
X151876190Y-54416190D01*
X151923809Y-54225714D01*
X151971428Y-54130476D01*
X152066666Y-54035238D01*
X152209523Y-53987619D01*
X152304761Y-53987619D01*
X152447619Y-54035238D01*
X152495238Y-54082857D01*
X152495238Y-54416190D01*
X152304761Y-54416190D01*
X152923809Y-53987619D02*
X152923809Y-54987619D01*
X153495238Y-53987619D01*
X153495238Y-54987619D01*
X153971428Y-53987619D02*
X153971428Y-54987619D01*
X154209523Y-54987619D01*
X154352380Y-54940000D01*
X154447619Y-54844761D01*
X154495238Y-54749523D01*
X154542857Y-54559047D01*
X154542857Y-54416190D01*
X154495238Y-54225714D01*
X154447619Y-54130476D01*
X154352380Y-54035238D01*
X154209523Y-53987619D01*
X153971428Y-53987619D01*
X175780952Y-53987619D02*
X175304761Y-53987619D01*
X175304761Y-54987619D01*
X176114285Y-53987619D02*
X176114285Y-54987619D01*
X176352380Y-54987619D01*
X176495238Y-54940000D01*
X176590476Y-54844761D01*
X176638095Y-54749523D01*
X176685714Y-54559047D01*
X176685714Y-54416190D01*
X176638095Y-54225714D01*
X176590476Y-54130476D01*
X176495238Y-54035238D01*
X176352380Y-53987619D01*
X176114285Y-53987619D01*
X177304761Y-54987619D02*
X177495238Y-54987619D01*
X177590476Y-54940000D01*
X177685714Y-54844761D01*
X177733333Y-54654285D01*
X177733333Y-54320952D01*
X177685714Y-54130476D01*
X177590476Y-54035238D01*
X177495238Y-53987619D01*
X177304761Y-53987619D01*
X177209523Y-54035238D01*
X177114285Y-54130476D01*
X177066666Y-54320952D01*
X177066666Y-54654285D01*
X177114285Y-54844761D01*
X177209523Y-54940000D01*
X177304761Y-54987619D01*
X177923809Y-53892380D02*
X178685714Y-53892380D01*
X179447619Y-54940000D02*
X179352380Y-54987619D01*
X179209523Y-54987619D01*
X179066666Y-54940000D01*
X178971428Y-54844761D01*
X178923809Y-54749523D01*
X178876190Y-54559047D01*
X178876190Y-54416190D01*
X178923809Y-54225714D01*
X178971428Y-54130476D01*
X179066666Y-54035238D01*
X179209523Y-53987619D01*
X179304761Y-53987619D01*
X179447619Y-54035238D01*
X179495238Y-54082857D01*
X179495238Y-54416190D01*
X179304761Y-54416190D01*
X179923809Y-53987619D02*
X179923809Y-54987619D01*
X180495238Y-53987619D01*
X180495238Y-54987619D01*
X180971428Y-53987619D02*
X180971428Y-54987619D01*
X181209523Y-54987619D01*
X181352380Y-54940000D01*
X181447619Y-54844761D01*
X181495238Y-54749523D01*
X181542857Y-54559047D01*
X181542857Y-54416190D01*
X181495238Y-54225714D01*
X181447619Y-54130476D01*
X181352380Y-54035238D01*
X181209523Y-53987619D01*
X180971428Y-53987619D01*
X121780952Y-77987619D02*
X121304761Y-77987619D01*
X121304761Y-78987619D01*
X122114285Y-77987619D02*
X122114285Y-78987619D01*
X122352380Y-78987619D01*
X122495238Y-78940000D01*
X122590476Y-78844761D01*
X122638095Y-78749523D01*
X122685714Y-78559047D01*
X122685714Y-78416190D01*
X122638095Y-78225714D01*
X122590476Y-78130476D01*
X122495238Y-78035238D01*
X122352380Y-77987619D01*
X122114285Y-77987619D01*
X123304761Y-78987619D02*
X123495238Y-78987619D01*
X123590476Y-78940000D01*
X123685714Y-78844761D01*
X123733333Y-78654285D01*
X123733333Y-78320952D01*
X123685714Y-78130476D01*
X123590476Y-78035238D01*
X123495238Y-77987619D01*
X123304761Y-77987619D01*
X123209523Y-78035238D01*
X123114285Y-78130476D01*
X123066666Y-78320952D01*
X123066666Y-78654285D01*
X123114285Y-78844761D01*
X123209523Y-78940000D01*
X123304761Y-78987619D01*
X123923809Y-77892380D02*
X124685714Y-77892380D01*
X125447619Y-78940000D02*
X125352380Y-78987619D01*
X125209523Y-78987619D01*
X125066666Y-78940000D01*
X124971428Y-78844761D01*
X124923809Y-78749523D01*
X124876190Y-78559047D01*
X124876190Y-78416190D01*
X124923809Y-78225714D01*
X124971428Y-78130476D01*
X125066666Y-78035238D01*
X125209523Y-77987619D01*
X125304761Y-77987619D01*
X125447619Y-78035238D01*
X125495238Y-78082857D01*
X125495238Y-78416190D01*
X125304761Y-78416190D01*
X125923809Y-77987619D02*
X125923809Y-78987619D01*
X126495238Y-77987619D01*
X126495238Y-78987619D01*
X126971428Y-77987619D02*
X126971428Y-78987619D01*
X127209523Y-78987619D01*
X127352380Y-78940000D01*
X127447619Y-78844761D01*
X127495238Y-78749523D01*
X127542857Y-78559047D01*
X127542857Y-78416190D01*
X127495238Y-78225714D01*
X127447619Y-78130476D01*
X127352380Y-78035238D01*
X127209523Y-77987619D01*
X126971428Y-77987619D01*
X148780952Y-77987619D02*
X148304761Y-77987619D01*
X148304761Y-78987619D01*
X149114285Y-77987619D02*
X149114285Y-78987619D01*
X149352380Y-78987619D01*
X149495238Y-78940000D01*
X149590476Y-78844761D01*
X149638095Y-78749523D01*
X149685714Y-78559047D01*
X149685714Y-78416190D01*
X149638095Y-78225714D01*
X149590476Y-78130476D01*
X149495238Y-78035238D01*
X149352380Y-77987619D01*
X149114285Y-77987619D01*
X150304761Y-78987619D02*
X150495238Y-78987619D01*
X150590476Y-78940000D01*
X150685714Y-78844761D01*
X150733333Y-78654285D01*
X150733333Y-78320952D01*
X150685714Y-78130476D01*
X150590476Y-78035238D01*
X150495238Y-77987619D01*
X150304761Y-77987619D01*
X150209523Y-78035238D01*
X150114285Y-78130476D01*
X150066666Y-78320952D01*
X150066666Y-78654285D01*
X150114285Y-78844761D01*
X150209523Y-78940000D01*
X150304761Y-78987619D01*
X150923809Y-77892380D02*
X151685714Y-77892380D01*
X152447619Y-78940000D02*
X152352380Y-78987619D01*
X152209523Y-78987619D01*
X152066666Y-78940000D01*
X151971428Y-78844761D01*
X151923809Y-78749523D01*
X151876190Y-78559047D01*
X151876190Y-78416190D01*
X151923809Y-78225714D01*
X151971428Y-78130476D01*
X152066666Y-78035238D01*
X152209523Y-77987619D01*
X152304761Y-77987619D01*
X152447619Y-78035238D01*
X152495238Y-78082857D01*
X152495238Y-78416190D01*
X152304761Y-78416190D01*
X152923809Y-77987619D02*
X152923809Y-78987619D01*
X153495238Y-77987619D01*
X153495238Y-78987619D01*
X153971428Y-77987619D02*
X153971428Y-78987619D01*
X154209523Y-78987619D01*
X154352380Y-78940000D01*
X154447619Y-78844761D01*
X154495238Y-78749523D01*
X154542857Y-78559047D01*
X154542857Y-78416190D01*
X154495238Y-78225714D01*
X154447619Y-78130476D01*
X154352380Y-78035238D01*
X154209523Y-77987619D01*
X153971428Y-77987619D01*
X175780952Y-77987619D02*
X175304761Y-77987619D01*
X175304761Y-78987619D01*
X176114285Y-77987619D02*
X176114285Y-78987619D01*
X176352380Y-78987619D01*
X176495238Y-78940000D01*
X176590476Y-78844761D01*
X176638095Y-78749523D01*
X176685714Y-78559047D01*
X176685714Y-78416190D01*
X176638095Y-78225714D01*
X176590476Y-78130476D01*
X176495238Y-78035238D01*
X176352380Y-77987619D01*
X176114285Y-77987619D01*
X177304761Y-78987619D02*
X177495238Y-78987619D01*
X177590476Y-78940000D01*
X177685714Y-78844761D01*
X177733333Y-78654285D01*
X177733333Y-78320952D01*
X177685714Y-78130476D01*
X177590476Y-78035238D01*
X177495238Y-77987619D01*
X177304761Y-77987619D01*
X177209523Y-78035238D01*
X177114285Y-78130476D01*
X177066666Y-78320952D01*
X177066666Y-78654285D01*
X177114285Y-78844761D01*
X177209523Y-78940000D01*
X177304761Y-78987619D01*
X177923809Y-77892380D02*
X178685714Y-77892380D01*
X179447619Y-78940000D02*
X179352380Y-78987619D01*
X179209523Y-78987619D01*
X179066666Y-78940000D01*
X178971428Y-78844761D01*
X178923809Y-78749523D01*
X178876190Y-78559047D01*
X178876190Y-78416190D01*
X178923809Y-78225714D01*
X178971428Y-78130476D01*
X179066666Y-78035238D01*
X179209523Y-77987619D01*
X179304761Y-77987619D01*
X179447619Y-78035238D01*
X179495238Y-78082857D01*
X179495238Y-78416190D01*
X179304761Y-78416190D01*
X179923809Y-77987619D02*
X179923809Y-78987619D01*
X180495238Y-77987619D01*
X180495238Y-78987619D01*
X180971428Y-77987619D02*
X180971428Y-78987619D01*
X181209523Y-78987619D01*
X181352380Y-78940000D01*
X181447619Y-78844761D01*
X181495238Y-78749523D01*
X181542857Y-78559047D01*
X181542857Y-78416190D01*
X181495238Y-78225714D01*
X181447619Y-78130476D01*
X181352380Y-78035238D01*
X181209523Y-77987619D01*
X180971428Y-77987619D01*
X123929047Y-50145238D02*
X124071904Y-50097619D01*
X124310000Y-50097619D01*
X124405238Y-50145238D01*
X124452857Y-50192857D01*
X124500476Y-50288095D01*
X124500476Y-50383333D01*
X124452857Y-50478571D01*
X124405238Y-50526190D01*
X124310000Y-50573809D01*
X124119523Y-50621428D01*
X124024285Y-50669047D01*
X123976666Y-50716666D01*
X123929047Y-50811904D01*
X123929047Y-50907142D01*
X123976666Y-51002380D01*
X124024285Y-51050000D01*
X124119523Y-51097619D01*
X124357619Y-51097619D01*
X124500476Y-51050000D01*
X124929047Y-50097619D02*
X124929047Y-50764285D01*
X124929047Y-51097619D02*
X124881428Y-51050000D01*
X124929047Y-51002380D01*
X124976666Y-51050000D01*
X124929047Y-51097619D01*
X124929047Y-51002380D01*
X125405238Y-50764285D02*
X125405238Y-50097619D01*
X125405238Y-50669047D02*
X125452857Y-50716666D01*
X125548095Y-50764285D01*
X125690952Y-50764285D01*
X125786190Y-50716666D01*
X125833809Y-50621428D01*
X125833809Y-50097619D01*
X126310000Y-50097619D02*
X126310000Y-51097619D01*
X126405238Y-50478571D02*
X126690952Y-50097619D01*
X126690952Y-50764285D02*
X126310000Y-50383333D01*
X150929047Y-50145238D02*
X151071904Y-50097619D01*
X151310000Y-50097619D01*
X151405238Y-50145238D01*
X151452857Y-50192857D01*
X151500476Y-50288095D01*
X151500476Y-50383333D01*
X151452857Y-50478571D01*
X151405238Y-50526190D01*
X151310000Y-50573809D01*
X151119523Y-50621428D01*
X151024285Y-50669047D01*
X150976666Y-50716666D01*
X150929047Y-50811904D01*
X150929047Y-50907142D01*
X150976666Y-51002380D01*
X151024285Y-51050000D01*
X151119523Y-51097619D01*
X151357619Y-51097619D01*
X151500476Y-51050000D01*
X151929047Y-50097619D02*
X151929047Y-50764285D01*
X151929047Y-51097619D02*
X151881428Y-51050000D01*
X151929047Y-51002380D01*
X151976666Y-51050000D01*
X151929047Y-51097619D01*
X151929047Y-51002380D01*
X152405238Y-50764285D02*
X152405238Y-50097619D01*
X152405238Y-50669047D02*
X152452857Y-50716666D01*
X152548095Y-50764285D01*
X152690952Y-50764285D01*
X152786190Y-50716666D01*
X152833809Y-50621428D01*
X152833809Y-50097619D01*
X153310000Y-50097619D02*
X153310000Y-51097619D01*
X153405238Y-50478571D02*
X153690952Y-50097619D01*
X153690952Y-50764285D02*
X153310000Y-50383333D01*
X177929047Y-50145238D02*
X178071904Y-50097619D01*
X178310000Y-50097619D01*
X178405238Y-50145238D01*
X178452857Y-50192857D01*
X178500476Y-50288095D01*
X178500476Y-50383333D01*
X178452857Y-50478571D01*
X178405238Y-50526190D01*
X178310000Y-50573809D01*
X178119523Y-50621428D01*
X178024285Y-50669047D01*
X177976666Y-50716666D01*
X177929047Y-50811904D01*
X177929047Y-50907142D01*
X177976666Y-51002380D01*
X178024285Y-51050000D01*
X178119523Y-51097619D01*
X178357619Y-51097619D01*
X178500476Y-51050000D01*
X178929047Y-50097619D02*
X178929047Y-50764285D01*
X178929047Y-51097619D02*
X178881428Y-51050000D01*
X178929047Y-51002380D01*
X178976666Y-51050000D01*
X178929047Y-51097619D01*
X178929047Y-51002380D01*
X179405238Y-50764285D02*
X179405238Y-50097619D01*
X179405238Y-50669047D02*
X179452857Y-50716666D01*
X179548095Y-50764285D01*
X179690952Y-50764285D01*
X179786190Y-50716666D01*
X179833809Y-50621428D01*
X179833809Y-50097619D01*
X180310000Y-50097619D02*
X180310000Y-51097619D01*
X180405238Y-50478571D02*
X180690952Y-50097619D01*
X180690952Y-50764285D02*
X180310000Y-50383333D01*
X123929047Y-74145238D02*
X124071904Y-74097619D01*
X124310000Y-74097619D01*
X124405238Y-74145238D01*
X124452857Y-74192857D01*
X124500476Y-74288095D01*
X124500476Y-74383333D01*
X124452857Y-74478571D01*
X124405238Y-74526190D01*
X124310000Y-74573809D01*
X124119523Y-74621428D01*
X124024285Y-74669047D01*
X123976666Y-74716666D01*
X123929047Y-74811904D01*
X123929047Y-74907142D01*
X123976666Y-75002380D01*
X124024285Y-75050000D01*
X124119523Y-75097619D01*
X124357619Y-75097619D01*
X124500476Y-75050000D01*
X124929047Y-74097619D02*
X124929047Y-74764285D01*
X124929047Y-75097619D02*
X124881428Y-75050000D01*
X124929047Y-75002380D01*
X124976666Y-75050000D01*
X124929047Y-75097619D01*
X124929047Y-75002380D01*
X125405238Y-74764285D02*
X125405238Y-74097619D01*
X125405238Y-74669047D02*
X125452857Y-74716666D01*
X125548095Y-74764285D01*
X125690952Y-74764285D01*
X125786190Y-74716666D01*
X125833809Y-74621428D01*
X125833809Y-74097619D01*
X126310000Y-74097619D02*
X126310000Y-75097619D01*
X126405238Y-74478571D02*
X126690952Y-74097619D01*
X126690952Y-74764285D02*
X126310000Y-74383333D01*
X150929047Y-74145238D02*
X151071904Y-74097619D01*
X151310000Y-74097619D01*
X151405238Y-74145238D01*
X151452857Y-74192857D01*
X151500476Y-74288095D01*
X151500476Y-74383333D01*
X151452857Y-74478571D01*
X151405238Y-74526190D01*
X151310000Y-74573809D01*
X151119523Y-74621428D01*
X151024285Y-74669047D01*
X150976666Y-74716666D01*
X150929047Y-74811904D01*
X150929047Y-74907142D01*
X150976666Y-75002380D01*
X151024285Y-75050000D01*
X151119523Y-75097619D01*
X151357619Y-75097619D01*
X151500476Y-75050000D01*
X151929047Y-74097619D02*
X151929047Y-74764285D01*
X151929047Y-75097619D02*
X151881428Y-75050000D01*
X151929047Y-75002380D01*
X151976666Y-75050000D01*
X151929047Y-75097619D01*
X151929047Y-75002380D01*
X152405238Y-74764285D02*
X152405238Y-74097619D01*
X152405238Y-74669047D02*
X152452857Y-74716666D01*
X152548095Y-74764285D01*
X152690952Y-74764285D01*
X152786190Y-74716666D01*
X152833809Y-74621428D01*
X152833809Y-74097619D01*
X153310000Y-74097619D02*
X153310000Y-75097619D01*
X153405238Y-74478571D02*
X153690952Y-74097619D01*
X153690952Y-74764285D02*
X153310000Y-74383333D01*
X177929047Y-74145238D02*
X178071904Y-74097619D01*
X178310000Y-74097619D01*
X178405238Y-74145238D01*
X178452857Y-74192857D01*
X178500476Y-74288095D01*
X178500476Y-74383333D01*
X178452857Y-74478571D01*
X178405238Y-74526190D01*
X178310000Y-74573809D01*
X178119523Y-74621428D01*
X178024285Y-74669047D01*
X177976666Y-74716666D01*
X177929047Y-74811904D01*
X177929047Y-74907142D01*
X177976666Y-75002380D01*
X178024285Y-75050000D01*
X178119523Y-75097619D01*
X178357619Y-75097619D01*
X178500476Y-75050000D01*
X178929047Y-74097619D02*
X178929047Y-74764285D01*
X178929047Y-75097619D02*
X178881428Y-75050000D01*
X178929047Y-75002380D01*
X178976666Y-75050000D01*
X178929047Y-75097619D01*
X178929047Y-75002380D01*
X179405238Y-74764285D02*
X179405238Y-74097619D01*
X179405238Y-74669047D02*
X179452857Y-74716666D01*
X179548095Y-74764285D01*
X179690952Y-74764285D01*
X179786190Y-74716666D01*
X179833809Y-74621428D01*
X179833809Y-74097619D01*
X180310000Y-74097619D02*
X180310000Y-75097619D01*
X180405238Y-74478571D02*
X180690952Y-74097619D01*
X180690952Y-74764285D02*
X180310000Y-74383333D01*
X123929047Y-98145238D02*
X124071904Y-98097619D01*
X124310000Y-98097619D01*
X124405238Y-98145238D01*
X124452857Y-98192857D01*
X124500476Y-98288095D01*
X124500476Y-98383333D01*
X124452857Y-98478571D01*
X124405238Y-98526190D01*
X124310000Y-98573809D01*
X124119523Y-98621428D01*
X124024285Y-98669047D01*
X123976666Y-98716666D01*
X123929047Y-98811904D01*
X123929047Y-98907142D01*
X123976666Y-99002380D01*
X124024285Y-99050000D01*
X124119523Y-99097619D01*
X124357619Y-99097619D01*
X124500476Y-99050000D01*
X124929047Y-98097619D02*
X124929047Y-98764285D01*
X124929047Y-99097619D02*
X124881428Y-99050000D01*
X124929047Y-99002380D01*
X124976666Y-99050000D01*
X124929047Y-99097619D01*
X124929047Y-99002380D01*
X125405238Y-98764285D02*
X125405238Y-98097619D01*
X125405238Y-98669047D02*
X125452857Y-98716666D01*
X125548095Y-98764285D01*
X125690952Y-98764285D01*
X125786190Y-98716666D01*
X125833809Y-98621428D01*
X125833809Y-98097619D01*
X126310000Y-98097619D02*
X126310000Y-99097619D01*
X126405238Y-98478571D02*
X126690952Y-98097619D01*
X126690952Y-98764285D02*
X126310000Y-98383333D01*
X150929047Y-98145238D02*
X151071904Y-98097619D01*
X151310000Y-98097619D01*
X151405238Y-98145238D01*
X151452857Y-98192857D01*
X151500476Y-98288095D01*
X151500476Y-98383333D01*
X151452857Y-98478571D01*
X151405238Y-98526190D01*
X151310000Y-98573809D01*
X151119523Y-98621428D01*
X151024285Y-98669047D01*
X150976666Y-98716666D01*
X150929047Y-98811904D01*
X150929047Y-98907142D01*
X150976666Y-99002380D01*
X151024285Y-99050000D01*
X151119523Y-99097619D01*
X151357619Y-99097619D01*
X151500476Y-99050000D01*
X151929047Y-98097619D02*
X151929047Y-98764285D01*
X151929047Y-99097619D02*
X151881428Y-99050000D01*
X151929047Y-99002380D01*
X151976666Y-99050000D01*
X151929047Y-99097619D01*
X151929047Y-99002380D01*
X152405238Y-98764285D02*
X152405238Y-98097619D01*
X152405238Y-98669047D02*
X152452857Y-98716666D01*
X152548095Y-98764285D01*
X152690952Y-98764285D01*
X152786190Y-98716666D01*
X152833809Y-98621428D01*
X152833809Y-98097619D01*
X153310000Y-98097619D02*
X153310000Y-99097619D01*
X153405238Y-98478571D02*
X153690952Y-98097619D01*
X153690952Y-98764285D02*
X153310000Y-98383333D01*
X177929047Y-98145238D02*
X178071904Y-98097619D01*
X178310000Y-98097619D01*
X178405238Y-98145238D01*
X178452857Y-98192857D01*
X178500476Y-98288095D01*
X178500476Y-98383333D01*
X178452857Y-98478571D01*
X178405238Y-98526190D01*
X178310000Y-98573809D01*
X178119523Y-98621428D01*
X178024285Y-98669047D01*
X177976666Y-98716666D01*
X177929047Y-98811904D01*
X177929047Y-98907142D01*
X177976666Y-99002380D01*
X178024285Y-99050000D01*
X178119523Y-99097619D01*
X178357619Y-99097619D01*
X178500476Y-99050000D01*
X178929047Y-98097619D02*
X178929047Y-98764285D01*
X178929047Y-99097619D02*
X178881428Y-99050000D01*
X178929047Y-99002380D01*
X178976666Y-99050000D01*
X178929047Y-99097619D01*
X178929047Y-99002380D01*
X179405238Y-98764285D02*
X179405238Y-98097619D01*
X179405238Y-98669047D02*
X179452857Y-98716666D01*
X179548095Y-98764285D01*
X179690952Y-98764285D01*
X179786190Y-98716666D01*
X179833809Y-98621428D01*
X179833809Y-98097619D01*
X180310000Y-98097619D02*
X180310000Y-99097619D01*
X180405238Y-98478571D02*
X180690952Y-98097619D01*
X180690952Y-98764285D02*
X180310000Y-98383333D01*
X128829047Y-36998571D02*
X129590952Y-36998571D01*
X129210000Y-36617619D02*
X129210000Y-37379523D01*
X130829047Y-36998571D02*
X131590952Y-36998571D01*
X155829047Y-36998571D02*
X156590952Y-36998571D01*
X156210000Y-36617619D02*
X156210000Y-37379523D01*
X157829047Y-36998571D02*
X158590952Y-36998571D01*
X182829047Y-36998571D02*
X183590952Y-36998571D01*
X183210000Y-36617619D02*
X183210000Y-37379523D01*
X184829047Y-36998571D02*
X185590952Y-36998571D01*
X128829047Y-60998571D02*
X129590952Y-60998571D01*
X129210000Y-60617619D02*
X129210000Y-61379523D01*
X130829047Y-60998571D02*
X131590952Y-60998571D01*
X155829047Y-60998571D02*
X156590952Y-60998571D01*
X156210000Y-60617619D02*
X156210000Y-61379523D01*
X157829047Y-60998571D02*
X158590952Y-60998571D01*
X182829047Y-60998571D02*
X183590952Y-60998571D01*
X183210000Y-60617619D02*
X183210000Y-61379523D01*
X184829047Y-60998571D02*
X185590952Y-60998571D01*
X128829047Y-84998571D02*
X129590952Y-84998571D01*
X129210000Y-84617619D02*
X129210000Y-85379523D01*
X130829047Y-84998571D02*
X131590952Y-84998571D01*
X155829047Y-84998571D02*
X156590952Y-84998571D01*
X156210000Y-84617619D02*
X156210000Y-85379523D01*
X157829047Y-84998571D02*
X158590952Y-84998571D01*
X182829047Y-84998571D02*
X183590952Y-84998571D01*
X183210000Y-84617619D02*
X183210000Y-85379523D01*
X184829047Y-84998571D02*
X185590952Y-84998571D01*
X131454285Y-46612380D02*
X131168571Y-47374285D01*
X130882857Y-46612380D01*
X131454285Y-45374285D02*
X131168571Y-46136190D01*
X130882857Y-45374285D01*
X131454285Y-44136190D02*
X131168571Y-44898095D01*
X130882857Y-44136190D01*
X131454285Y-42898095D02*
X131168571Y-43660000D01*
X130882857Y-42898095D01*
X131454285Y-41660000D02*
X131168571Y-42421904D01*
X130882857Y-41660000D01*
X131454285Y-40421904D02*
X131168571Y-41183809D01*
X130882857Y-40421904D01*
X131454285Y-39183809D02*
X131168571Y-39945714D01*
X130882857Y-39183809D01*
X131454285Y-37945714D02*
X131168571Y-38707619D01*
X130882857Y-37945714D01*
X158454285Y-46612380D02*
X158168571Y-47374285D01*
X157882857Y-46612380D01*
X158454285Y-45374285D02*
X158168571Y-46136190D01*
X157882857Y-45374285D01*
X158454285Y-44136190D02*
X158168571Y-44898095D01*
X157882857Y-44136190D01*
X158454285Y-42898095D02*
X158168571Y-43660000D01*
X157882857Y-42898095D01*
X158454285Y-41660000D02*
X158168571Y-42421904D01*
X157882857Y-41660000D01*
X158454285Y-40421904D02*
X158168571Y-41183809D01*
X157882857Y-40421904D01*
X158454285Y-39183809D02*
X158168571Y-39945714D01*
X157882857Y-39183809D01*
X158454285Y-37945714D02*
X158168571Y-38707619D01*
X157882857Y-37945714D01*
X185454285Y-46612380D02*
X185168571Y-47374285D01*
X184882857Y-46612380D01*
X185454285Y-45374285D02*
X185168571Y-46136190D01*
X184882857Y-45374285D01*
X185454285Y-44136190D02*
X185168571Y-44898095D01*
X184882857Y-44136190D01*
X185454285Y-42898095D02*
X185168571Y-43660000D01*
X184882857Y-42898095D01*
X185454285Y-41660000D02*
X185168571Y-42421904D01*
X184882857Y-41660000D01*
X185454285Y-40421904D02*
X185168571Y-41183809D01*
X184882857Y-40421904D01*
X185454285Y-39183809D02*
X185168571Y-39945714D01*
X184882857Y-39183809D01*
X185454285Y-37945714D02*
X185168571Y-38707619D01*
X184882857Y-37945714D01*
X131454285Y-70612380D02*
X131168571Y-71374285D01*
X130882857Y-70612380D01*
X131454285Y-69374285D02*
X131168571Y-70136190D01*
X130882857Y-69374285D01*
X131454285Y-68136190D02*
X131168571Y-68898095D01*
X130882857Y-68136190D01*
X131454285Y-66898095D02*
X131168571Y-67660000D01*
X130882857Y-66898095D01*
X131454285Y-65660000D02*
X131168571Y-66421904D01*
X130882857Y-65660000D01*
X131454285Y-64421904D02*
X131168571Y-65183809D01*
X130882857Y-64421904D01*
X131454285Y-63183809D02*
X131168571Y-63945714D01*
X130882857Y-63183809D01*
X131454285Y-61945714D02*
X131168571Y-62707619D01*
X130882857Y-61945714D01*
X158454285Y-70612380D02*
X158168571Y-71374285D01*
X157882857Y-70612380D01*
X158454285Y-69374285D02*
X158168571Y-70136190D01*
X157882857Y-69374285D01*
X158454285Y-68136190D02*
X158168571Y-68898095D01*
X157882857Y-68136190D01*
X158454285Y-66898095D02*
X158168571Y-67660000D01*
X157882857Y-66898095D01*
X158454285Y-65660000D02*
X158168571Y-66421904D01*
X157882857Y-65660000D01*
X158454285Y-64421904D02*
X158168571Y-65183809D01*
X157882857Y-64421904D01*
X158454285Y-63183809D02*
X158168571Y-63945714D01*
X157882857Y-63183809D01*
X158454285Y-61945714D02*
X158168571Y-62707619D01*
X157882857Y-61945714D01*
X185454285Y-70612380D02*
X185168571Y-71374285D01*
X184882857Y-70612380D01*
X185454285Y-69374285D02*
X185168571Y-70136190D01*
X184882857Y-69374285D01*
X185454285Y-68136190D02*
X185168571Y-68898095D01*
X184882857Y-68136190D01*
X185454285Y-66898095D02*
X185168571Y-67660000D01*
X184882857Y-66898095D01*
X185454285Y-65660000D02*
X185168571Y-66421904D01*
X184882857Y-65660000D01*
X185454285Y-64421904D02*
X185168571Y-65183809D01*
X184882857Y-64421904D01*
X185454285Y-63183809D02*
X185168571Y-63945714D01*
X184882857Y-63183809D01*
X185454285Y-61945714D02*
X185168571Y-62707619D01*
X184882857Y-61945714D01*
X131454285Y-94612380D02*
X131168571Y-95374285D01*
X130882857Y-94612380D01*
X131454285Y-93374285D02*
X131168571Y-94136190D01*
X130882857Y-93374285D01*
X131454285Y-92136190D02*
X131168571Y-92898095D01*
X130882857Y-92136190D01*
X131454285Y-90898095D02*
X131168571Y-91660000D01*
X130882857Y-90898095D01*
X131454285Y-89660000D02*
X131168571Y-90421904D01*
X130882857Y-89660000D01*
X131454285Y-88421904D02*
X131168571Y-89183809D01*
X130882857Y-88421904D01*
X131454285Y-87183809D02*
X131168571Y-87945714D01*
X130882857Y-87183809D01*
X131454285Y-85945714D02*
X131168571Y-86707619D01*
X130882857Y-85945714D01*
X158454285Y-94612380D02*
X158168571Y-95374285D01*
X157882857Y-94612380D01*
X158454285Y-93374285D02*
X158168571Y-94136190D01*
X157882857Y-93374285D01*
X158454285Y-92136190D02*
X158168571Y-92898095D01*
X157882857Y-92136190D01*
X158454285Y-90898095D02*
X158168571Y-91660000D01*
X157882857Y-90898095D01*
X158454285Y-89660000D02*
X158168571Y-90421904D01*
X157882857Y-89660000D01*
X158454285Y-88421904D02*
X158168571Y-89183809D01*
X157882857Y-88421904D01*
X158454285Y-87183809D02*
X158168571Y-87945714D01*
X157882857Y-87183809D01*
X158454285Y-85945714D02*
X158168571Y-86707619D01*
X157882857Y-85945714D01*
X185454285Y-94612380D02*
X185168571Y-95374285D01*
X184882857Y-94612380D01*
X185454285Y-93374285D02*
X185168571Y-94136190D01*
X184882857Y-93374285D01*
X185454285Y-92136190D02*
X185168571Y-92898095D01*
X184882857Y-92136190D01*
X185454285Y-90898095D02*
X185168571Y-91660000D01*
X184882857Y-90898095D01*
X185454285Y-89660000D02*
X185168571Y-90421904D01*
X184882857Y-89660000D01*
X185454285Y-88421904D02*
X185168571Y-89183809D01*
X184882857Y-88421904D01*
X185454285Y-87183809D02*
X185168571Y-87945714D01*
X184882857Y-87183809D01*
X185454285Y-85945714D02*
X185168571Y-86707619D01*
X184882857Y-85945714D01*
X128819047Y-51428571D02*
X129580952Y-51428571D01*
X129200000Y-51047619D02*
X129200000Y-51809523D01*
X130819047Y-51428571D02*
X131580952Y-51428571D01*
X155819047Y-51428571D02*
X156580952Y-51428571D01*
X156200000Y-51047619D02*
X156200000Y-51809523D01*
X157819047Y-51428571D02*
X158580952Y-51428571D01*
X182819047Y-51428571D02*
X183580952Y-51428571D01*
X183200000Y-51047619D02*
X183200000Y-51809523D01*
X184819047Y-51428571D02*
X185580952Y-51428571D01*
X128819047Y-75428571D02*
X129580952Y-75428571D01*
X129200000Y-75047619D02*
X129200000Y-75809523D01*
X130819047Y-75428571D02*
X131580952Y-75428571D01*
X155819047Y-75428571D02*
X156580952Y-75428571D01*
X156200000Y-75047619D02*
X156200000Y-75809523D01*
X157819047Y-75428571D02*
X158580952Y-75428571D01*
X182819047Y-75428571D02*
X183580952Y-75428571D01*
X183200000Y-75047619D02*
X183200000Y-75809523D01*
X184819047Y-75428571D02*
X185580952Y-75428571D01*
X128819047Y-99428571D02*
X129580952Y-99428571D01*
X129200000Y-99047619D02*
X129200000Y-99809523D01*
X130819047Y-99428571D02*
X131580952Y-99428571D01*
X155819047Y-99428571D02*
X156580952Y-99428571D01*
X156200000Y-99047619D02*
X156200000Y-99809523D01*
X157819047Y-99428571D02*
X158580952Y-99428571D01*
X182819047Y-99428571D02*
X183580952Y-99428571D01*
X183200000Y-99047619D02*
X183200000Y-99809523D01*
X184819047Y-99428571D02*
X185580952Y-99428571D01*
X125022380Y-37967142D02*
X125022380Y-37490952D01*
X124022380Y-37490952D01*
X125022380Y-38300476D02*
X124022380Y-38300476D01*
X124022380Y-38538571D01*
X124070000Y-38681428D01*
X124165238Y-38776666D01*
X124260476Y-38824285D01*
X124450952Y-38871904D01*
X124593809Y-38871904D01*
X124784285Y-38824285D01*
X124879523Y-38776666D01*
X124974761Y-38681428D01*
X125022380Y-38538571D01*
X125022380Y-38300476D01*
X124022380Y-39490952D02*
X124022380Y-39681428D01*
X124070000Y-39776666D01*
X124165238Y-39871904D01*
X124355714Y-39919523D01*
X124689047Y-39919523D01*
X124879523Y-39871904D01*
X124974761Y-39776666D01*
X125022380Y-39681428D01*
X125022380Y-39490952D01*
X124974761Y-39395714D01*
X124879523Y-39300476D01*
X124689047Y-39252857D01*
X124355714Y-39252857D01*
X124165238Y-39300476D01*
X124070000Y-39395714D01*
X124022380Y-39490952D01*
X125117619Y-40110000D02*
X125117619Y-40871904D01*
X124022380Y-40967142D02*
X125022380Y-41300476D01*
X124022380Y-41633809D01*
X124974761Y-42348095D02*
X125022380Y-42252857D01*
X125022380Y-42062380D01*
X124974761Y-41967142D01*
X124879523Y-41919523D01*
X124498571Y-41919523D01*
X124403333Y-41967142D01*
X124355714Y-42062380D01*
X124355714Y-42252857D01*
X124403333Y-42348095D01*
X124498571Y-42395714D01*
X124593809Y-42395714D01*
X124689047Y-41919523D01*
X125022380Y-42729047D02*
X124355714Y-43252857D01*
X124355714Y-42729047D02*
X125022380Y-43252857D01*
X124355714Y-43490952D02*
X124355714Y-43871904D01*
X124022380Y-43633809D02*
X124879523Y-43633809D01*
X124974761Y-43681428D01*
X125022380Y-43776666D01*
X125022380Y-43871904D01*
X152022380Y-37967142D02*
X152022380Y-37490952D01*
X151022380Y-37490952D01*
X152022380Y-38300476D02*
X151022380Y-38300476D01*
X151022380Y-38538571D01*
X151070000Y-38681428D01*
X151165238Y-38776666D01*
X151260476Y-38824285D01*
X151450952Y-38871904D01*
X151593809Y-38871904D01*
X151784285Y-38824285D01*
X151879523Y-38776666D01*
X151974761Y-38681428D01*
X152022380Y-38538571D01*
X152022380Y-38300476D01*
X151022380Y-39490952D02*
X151022380Y-39681428D01*
X151070000Y-39776666D01*
X151165238Y-39871904D01*
X151355714Y-39919523D01*
X151689047Y-39919523D01*
X151879523Y-39871904D01*
X151974761Y-39776666D01*
X152022380Y-39681428D01*
X152022380Y-39490952D01*
X151974761Y-39395714D01*
X151879523Y-39300476D01*
X151689047Y-39252857D01*
X151355714Y-39252857D01*
X151165238Y-39300476D01*
X151070000Y-39395714D01*
X151022380Y-39490952D01*
X152117619Y-40110000D02*
X152117619Y-40871904D01*
X151022380Y-40967142D02*
X152022380Y-41300476D01*
X151022380Y-41633809D01*
X151974761Y-42348095D02*
X152022380Y-42252857D01*
X152022380Y-42062380D01*
X151974761Y-41967142D01*
X151879523Y-41919523D01*
X151498571Y-41919523D01*
X151403333Y-41967142D01*
X151355714Y-42062380D01*
X151355714Y-42252857D01*
X151403333Y-42348095D01*
X151498571Y-42395714D01*
X151593809Y-42395714D01*
X151689047Y-41919523D01*
X152022380Y-42729047D02*
X151355714Y-43252857D01*
X151355714Y-42729047D02*
X152022380Y-43252857D01*
X151355714Y-43490952D02*
X151355714Y-43871904D01*
X151022380Y-43633809D02*
X151879523Y-43633809D01*
X151974761Y-43681428D01*
X152022380Y-43776666D01*
X152022380Y-43871904D01*
X179022380Y-37967142D02*
X179022380Y-37490952D01*
X178022380Y-37490952D01*
X179022380Y-38300476D02*
X178022380Y-38300476D01*
X178022380Y-38538571D01*
X178070000Y-38681428D01*
X178165238Y-38776666D01*
X178260476Y-38824285D01*
X178450952Y-38871904D01*
X178593809Y-38871904D01*
X178784285Y-38824285D01*
X178879523Y-38776666D01*
X178974761Y-38681428D01*
X179022380Y-38538571D01*
X179022380Y-38300476D01*
X178022380Y-39490952D02*
X178022380Y-39681428D01*
X178070000Y-39776666D01*
X178165238Y-39871904D01*
X178355714Y-39919523D01*
X178689047Y-39919523D01*
X178879523Y-39871904D01*
X178974761Y-39776666D01*
X179022380Y-39681428D01*
X179022380Y-39490952D01*
X178974761Y-39395714D01*
X178879523Y-39300476D01*
X178689047Y-39252857D01*
X178355714Y-39252857D01*
X178165238Y-39300476D01*
X178070000Y-39395714D01*
X178022380Y-39490952D01*
X179117619Y-40110000D02*
X179117619Y-40871904D01*
X178022380Y-40967142D02*
X179022380Y-41300476D01*
X178022380Y-41633809D01*
X178974761Y-42348095D02*
X179022380Y-42252857D01*
X179022380Y-42062380D01*
X178974761Y-41967142D01*
X178879523Y-41919523D01*
X178498571Y-41919523D01*
X178403333Y-41967142D01*
X178355714Y-42062380D01*
X178355714Y-42252857D01*
X178403333Y-42348095D01*
X178498571Y-42395714D01*
X178593809Y-42395714D01*
X178689047Y-41919523D01*
X179022380Y-42729047D02*
X178355714Y-43252857D01*
X178355714Y-42729047D02*
X179022380Y-43252857D01*
X178355714Y-43490952D02*
X178355714Y-43871904D01*
X178022380Y-43633809D02*
X178879523Y-43633809D01*
X178974761Y-43681428D01*
X179022380Y-43776666D01*
X179022380Y-43871904D01*
X125022380Y-61967142D02*
X125022380Y-61490952D01*
X124022380Y-61490952D01*
X125022380Y-62300476D02*
X124022380Y-62300476D01*
X124022380Y-62538571D01*
X124070000Y-62681428D01*
X124165238Y-62776666D01*
X124260476Y-62824285D01*
X124450952Y-62871904D01*
X124593809Y-62871904D01*
X124784285Y-62824285D01*
X124879523Y-62776666D01*
X124974761Y-62681428D01*
X125022380Y-62538571D01*
X125022380Y-62300476D01*
X124022380Y-63490952D02*
X124022380Y-63681428D01*
X124070000Y-63776666D01*
X124165238Y-63871904D01*
X124355714Y-63919523D01*
X124689047Y-63919523D01*
X124879523Y-63871904D01*
X124974761Y-63776666D01*
X125022380Y-63681428D01*
X125022380Y-63490952D01*
X124974761Y-63395714D01*
X124879523Y-63300476D01*
X124689047Y-63252857D01*
X124355714Y-63252857D01*
X124165238Y-63300476D01*
X124070000Y-63395714D01*
X124022380Y-63490952D01*
X125117619Y-64110000D02*
X125117619Y-64871904D01*
X124022380Y-64967142D02*
X125022380Y-65300476D01*
X124022380Y-65633809D01*
X124974761Y-66348095D02*
X125022380Y-66252857D01*
X125022380Y-66062380D01*
X124974761Y-65967142D01*
X124879523Y-65919523D01*
X124498571Y-65919523D01*
X124403333Y-65967142D01*
X124355714Y-66062380D01*
X124355714Y-66252857D01*
X124403333Y-66348095D01*
X124498571Y-66395714D01*
X124593809Y-66395714D01*
X124689047Y-65919523D01*
X125022380Y-66729047D02*
X124355714Y-67252857D01*
X124355714Y-66729047D02*
X125022380Y-67252857D01*
X124355714Y-67490952D02*
X124355714Y-67871904D01*
X124022380Y-67633809D02*
X124879523Y-67633809D01*
X124974761Y-67681428D01*
X125022380Y-67776666D01*
X125022380Y-67871904D01*
X152022380Y-61967142D02*
X152022380Y-61490952D01*
X151022380Y-61490952D01*
X152022380Y-62300476D02*
X151022380Y-62300476D01*
X151022380Y-62538571D01*
X151070000Y-62681428D01*
X151165238Y-62776666D01*
X151260476Y-62824285D01*
X151450952Y-62871904D01*
X151593809Y-62871904D01*
X151784285Y-62824285D01*
X151879523Y-62776666D01*
X151974761Y-62681428D01*
X152022380Y-62538571D01*
X152022380Y-62300476D01*
X151022380Y-63490952D02*
X151022380Y-63681428D01*
X151070000Y-63776666D01*
X151165238Y-63871904D01*
X151355714Y-63919523D01*
X151689047Y-63919523D01*
X151879523Y-63871904D01*
X151974761Y-63776666D01*
X152022380Y-63681428D01*
X152022380Y-63490952D01*
X151974761Y-63395714D01*
X151879523Y-63300476D01*
X151689047Y-63252857D01*
X151355714Y-63252857D01*
X151165238Y-63300476D01*
X151070000Y-63395714D01*
X151022380Y-63490952D01*
X152117619Y-64110000D02*
X152117619Y-64871904D01*
X151022380Y-64967142D02*
X152022380Y-65300476D01*
X151022380Y-65633809D01*
X151974761Y-66348095D02*
X152022380Y-66252857D01*
X152022380Y-66062380D01*
X151974761Y-65967142D01*
X151879523Y-65919523D01*
X151498571Y-65919523D01*
X151403333Y-65967142D01*
X151355714Y-66062380D01*
X151355714Y-66252857D01*
X151403333Y-66348095D01*
X151498571Y-66395714D01*
X151593809Y-66395714D01*
X151689047Y-65919523D01*
X152022380Y-66729047D02*
X151355714Y-67252857D01*
X151355714Y-66729047D02*
X152022380Y-67252857D01*
X151355714Y-67490952D02*
X151355714Y-67871904D01*
X151022380Y-67633809D02*
X151879523Y-67633809D01*
X151974761Y-67681428D01*
X152022380Y-67776666D01*
X152022380Y-67871904D01*
X179022380Y-61967142D02*
X179022380Y-61490952D01*
X178022380Y-61490952D01*
X179022380Y-62300476D02*
X178022380Y-62300476D01*
X178022380Y-62538571D01*
X178070000Y-62681428D01*
X178165238Y-62776666D01*
X178260476Y-62824285D01*
X178450952Y-62871904D01*
X178593809Y-62871904D01*
X178784285Y-62824285D01*
X178879523Y-62776666D01*
X178974761Y-62681428D01*
X179022380Y-62538571D01*
X179022380Y-62300476D01*
X178022380Y-63490952D02*
X178022380Y-63681428D01*
X178070000Y-63776666D01*
X178165238Y-63871904D01*
X178355714Y-63919523D01*
X178689047Y-63919523D01*
X178879523Y-63871904D01*
X178974761Y-63776666D01*
X179022380Y-63681428D01*
X179022380Y-63490952D01*
X178974761Y-63395714D01*
X178879523Y-63300476D01*
X178689047Y-63252857D01*
X178355714Y-63252857D01*
X178165238Y-63300476D01*
X178070000Y-63395714D01*
X178022380Y-63490952D01*
X179117619Y-64110000D02*
X179117619Y-64871904D01*
X178022380Y-64967142D02*
X179022380Y-65300476D01*
X178022380Y-65633809D01*
X178974761Y-66348095D02*
X179022380Y-66252857D01*
X179022380Y-66062380D01*
X178974761Y-65967142D01*
X178879523Y-65919523D01*
X178498571Y-65919523D01*
X178403333Y-65967142D01*
X178355714Y-66062380D01*
X178355714Y-66252857D01*
X178403333Y-66348095D01*
X178498571Y-66395714D01*
X178593809Y-66395714D01*
X178689047Y-65919523D01*
X179022380Y-66729047D02*
X178355714Y-67252857D01*
X178355714Y-66729047D02*
X179022380Y-67252857D01*
X178355714Y-67490952D02*
X178355714Y-67871904D01*
X178022380Y-67633809D02*
X178879523Y-67633809D01*
X178974761Y-67681428D01*
X179022380Y-67776666D01*
X179022380Y-67871904D01*
X125022380Y-85967142D02*
X125022380Y-85490952D01*
X124022380Y-85490952D01*
X125022380Y-86300476D02*
X124022380Y-86300476D01*
X124022380Y-86538571D01*
X124070000Y-86681428D01*
X124165238Y-86776666D01*
X124260476Y-86824285D01*
X124450952Y-86871904D01*
X124593809Y-86871904D01*
X124784285Y-86824285D01*
X124879523Y-86776666D01*
X124974761Y-86681428D01*
X125022380Y-86538571D01*
X125022380Y-86300476D01*
X124022380Y-87490952D02*
X124022380Y-87681428D01*
X124070000Y-87776666D01*
X124165238Y-87871904D01*
X124355714Y-87919523D01*
X124689047Y-87919523D01*
X124879523Y-87871904D01*
X124974761Y-87776666D01*
X125022380Y-87681428D01*
X125022380Y-87490952D01*
X124974761Y-87395714D01*
X124879523Y-87300476D01*
X124689047Y-87252857D01*
X124355714Y-87252857D01*
X124165238Y-87300476D01*
X124070000Y-87395714D01*
X124022380Y-87490952D01*
X125117619Y-88110000D02*
X125117619Y-88871904D01*
X124022380Y-88967142D02*
X125022380Y-89300476D01*
X124022380Y-89633809D01*
X124974761Y-90348095D02*
X125022380Y-90252857D01*
X125022380Y-90062380D01*
X124974761Y-89967142D01*
X124879523Y-89919523D01*
X124498571Y-89919523D01*
X124403333Y-89967142D01*
X124355714Y-90062380D01*
X124355714Y-90252857D01*
X124403333Y-90348095D01*
X124498571Y-90395714D01*
X124593809Y-90395714D01*
X124689047Y-89919523D01*
X125022380Y-90729047D02*
X124355714Y-91252857D01*
X124355714Y-90729047D02*
X125022380Y-91252857D01*
X124355714Y-91490952D02*
X124355714Y-91871904D01*
X124022380Y-91633809D02*
X124879523Y-91633809D01*
X124974761Y-91681428D01*
X125022380Y-91776666D01*
X125022380Y-91871904D01*
X152022380Y-85967142D02*
X152022380Y-85490952D01*
X151022380Y-85490952D01*
X152022380Y-86300476D02*
X151022380Y-86300476D01*
X151022380Y-86538571D01*
X151070000Y-86681428D01*
X151165238Y-86776666D01*
X151260476Y-86824285D01*
X151450952Y-86871904D01*
X151593809Y-86871904D01*
X151784285Y-86824285D01*
X151879523Y-86776666D01*
X151974761Y-86681428D01*
X152022380Y-86538571D01*
X152022380Y-86300476D01*
X151022380Y-87490952D02*
X151022380Y-87681428D01*
X151070000Y-87776666D01*
X151165238Y-87871904D01*
X151355714Y-87919523D01*
X151689047Y-87919523D01*
X151879523Y-87871904D01*
X151974761Y-87776666D01*
X152022380Y-87681428D01*
X152022380Y-87490952D01*
X151974761Y-87395714D01*
X151879523Y-87300476D01*
X151689047Y-87252857D01*
X151355714Y-87252857D01*
X151165238Y-87300476D01*
X151070000Y-87395714D01*
X151022380Y-87490952D01*
X152117619Y-88110000D02*
X152117619Y-88871904D01*
X151022380Y-88967142D02*
X152022380Y-89300476D01*
X151022380Y-89633809D01*
X151974761Y-90348095D02*
X152022380Y-90252857D01*
X152022380Y-90062380D01*
X151974761Y-89967142D01*
X151879523Y-89919523D01*
X151498571Y-89919523D01*
X151403333Y-89967142D01*
X151355714Y-90062380D01*
X151355714Y-90252857D01*
X151403333Y-90348095D01*
X151498571Y-90395714D01*
X151593809Y-90395714D01*
X151689047Y-89919523D01*
X152022380Y-90729047D02*
X151355714Y-91252857D01*
X151355714Y-90729047D02*
X152022380Y-91252857D01*
X151355714Y-91490952D02*
X151355714Y-91871904D01*
X151022380Y-91633809D02*
X151879523Y-91633809D01*
X151974761Y-91681428D01*
X152022380Y-91776666D01*
X152022380Y-91871904D01*
X179022380Y-85967142D02*
X179022380Y-85490952D01*
X178022380Y-85490952D01*
X179022380Y-86300476D02*
X178022380Y-86300476D01*
X178022380Y-86538571D01*
X178070000Y-86681428D01*
X178165238Y-86776666D01*
X178260476Y-86824285D01*
X178450952Y-86871904D01*
X178593809Y-86871904D01*
X178784285Y-86824285D01*
X178879523Y-86776666D01*
X178974761Y-86681428D01*
X179022380Y-86538571D01*
X179022380Y-86300476D01*
X178022380Y-87490952D02*
X178022380Y-87681428D01*
X178070000Y-87776666D01*
X178165238Y-87871904D01*
X178355714Y-87919523D01*
X178689047Y-87919523D01*
X178879523Y-87871904D01*
X178974761Y-87776666D01*
X179022380Y-87681428D01*
X179022380Y-87490952D01*
X178974761Y-87395714D01*
X178879523Y-87300476D01*
X178689047Y-87252857D01*
X178355714Y-87252857D01*
X178165238Y-87300476D01*
X178070000Y-87395714D01*
X178022380Y-87490952D01*
X179117619Y-88110000D02*
X179117619Y-88871904D01*
X178022380Y-88967142D02*
X179022380Y-89300476D01*
X178022380Y-89633809D01*
X178974761Y-90348095D02*
X179022380Y-90252857D01*
X179022380Y-90062380D01*
X178974761Y-89967142D01*
X178879523Y-89919523D01*
X178498571Y-89919523D01*
X178403333Y-89967142D01*
X178355714Y-90062380D01*
X178355714Y-90252857D01*
X178403333Y-90348095D01*
X178498571Y-90395714D01*
X178593809Y-90395714D01*
X178689047Y-89919523D01*
X179022380Y-90729047D02*
X178355714Y-91252857D01*
X178355714Y-90729047D02*
X179022380Y-91252857D01*
X178355714Y-91490952D02*
X178355714Y-91871904D01*
X178022380Y-91633809D02*
X178879523Y-91633809D01*
X178974761Y-91681428D01*
X179022380Y-91776666D01*
X179022380Y-91871904D01*
X134154761Y-33672857D02*
X134202380Y-33815714D01*
X134202380Y-34053809D01*
X134154761Y-34149047D01*
X134107142Y-34196666D01*
X134011904Y-34244285D01*
X133916666Y-34244285D01*
X133821428Y-34196666D01*
X133773809Y-34149047D01*
X133726190Y-34053809D01*
X133678571Y-33863333D01*
X133630952Y-33768095D01*
X133583333Y-33720476D01*
X133488095Y-33672857D01*
X133392857Y-33672857D01*
X133297619Y-33720476D01*
X133250000Y-33768095D01*
X133202380Y-33863333D01*
X133202380Y-34101428D01*
X133250000Y-34244285D01*
X134202380Y-34815714D02*
X134154761Y-34720476D01*
X134107142Y-34672857D01*
X134011904Y-34625238D01*
X133726190Y-34625238D01*
X133630952Y-34672857D01*
X133583333Y-34720476D01*
X133535714Y-34815714D01*
X133535714Y-34958571D01*
X133583333Y-35053809D01*
X133630952Y-35101428D01*
X133726190Y-35149047D01*
X134011904Y-35149047D01*
X134107142Y-35101428D01*
X134154761Y-35053809D01*
X134202380Y-34958571D01*
X134202380Y-34815714D01*
X133535714Y-36006190D02*
X134202380Y-36006190D01*
X133535714Y-35577619D02*
X134059523Y-35577619D01*
X134154761Y-35625238D01*
X134202380Y-35720476D01*
X134202380Y-35863333D01*
X134154761Y-35958571D01*
X134107142Y-36006190D01*
X134202380Y-36482380D02*
X133535714Y-36482380D01*
X133726190Y-36482380D02*
X133630952Y-36530000D01*
X133583333Y-36577619D01*
X133535714Y-36672857D01*
X133535714Y-36768095D01*
X134154761Y-37530000D02*
X134202380Y-37434761D01*
X134202380Y-37244285D01*
X134154761Y-37149047D01*
X134107142Y-37101428D01*
X134011904Y-37053809D01*
X133726190Y-37053809D01*
X133630952Y-37101428D01*
X133583333Y-37149047D01*
X133535714Y-37244285D01*
X133535714Y-37434761D01*
X133583333Y-37530000D01*
X134154761Y-38339523D02*
X134202380Y-38244285D01*
X134202380Y-38053809D01*
X134154761Y-37958571D01*
X134059523Y-37910952D01*
X133678571Y-37910952D01*
X133583333Y-37958571D01*
X133535714Y-38053809D01*
X133535714Y-38244285D01*
X133583333Y-38339523D01*
X133678571Y-38387142D01*
X133773809Y-38387142D01*
X133869047Y-37910952D01*
X161154761Y-33672857D02*
X161202380Y-33815714D01*
X161202380Y-34053809D01*
X161154761Y-34149047D01*
X161107142Y-34196666D01*
X161011904Y-34244285D01*
X160916666Y-34244285D01*
X160821428Y-34196666D01*
X160773809Y-34149047D01*
X160726190Y-34053809D01*
X160678571Y-33863333D01*
X160630952Y-33768095D01*
X160583333Y-33720476D01*
X160488095Y-33672857D01*
X160392857Y-33672857D01*
X160297619Y-33720476D01*
X160250000Y-33768095D01*
X160202380Y-33863333D01*
X160202380Y-34101428D01*
X160250000Y-34244285D01*
X161202380Y-34815714D02*
X161154761Y-34720476D01*
X161107142Y-34672857D01*
X161011904Y-34625238D01*
X160726190Y-34625238D01*
X160630952Y-34672857D01*
X160583333Y-34720476D01*
X160535714Y-34815714D01*
X160535714Y-34958571D01*
X160583333Y-35053809D01*
X160630952Y-35101428D01*
X160726190Y-35149047D01*
X161011904Y-35149047D01*
X161107142Y-35101428D01*
X161154761Y-35053809D01*
X161202380Y-34958571D01*
X161202380Y-34815714D01*
X160535714Y-36006190D02*
X161202380Y-36006190D01*
X160535714Y-35577619D02*
X161059523Y-35577619D01*
X161154761Y-35625238D01*
X161202380Y-35720476D01*
X161202380Y-35863333D01*
X161154761Y-35958571D01*
X161107142Y-36006190D01*
X161202380Y-36482380D02*
X160535714Y-36482380D01*
X160726190Y-36482380D02*
X160630952Y-36530000D01*
X160583333Y-36577619D01*
X160535714Y-36672857D01*
X160535714Y-36768095D01*
X161154761Y-37530000D02*
X161202380Y-37434761D01*
X161202380Y-37244285D01*
X161154761Y-37149047D01*
X161107142Y-37101428D01*
X161011904Y-37053809D01*
X160726190Y-37053809D01*
X160630952Y-37101428D01*
X160583333Y-37149047D01*
X160535714Y-37244285D01*
X160535714Y-37434761D01*
X160583333Y-37530000D01*
X161154761Y-38339523D02*
X161202380Y-38244285D01*
X161202380Y-38053809D01*
X161154761Y-37958571D01*
X161059523Y-37910952D01*
X160678571Y-37910952D01*
X160583333Y-37958571D01*
X160535714Y-38053809D01*
X160535714Y-38244285D01*
X160583333Y-38339523D01*
X160678571Y-38387142D01*
X160773809Y-38387142D01*
X160869047Y-37910952D01*
X188154761Y-33672857D02*
X188202380Y-33815714D01*
X188202380Y-34053809D01*
X188154761Y-34149047D01*
X188107142Y-34196666D01*
X188011904Y-34244285D01*
X187916666Y-34244285D01*
X187821428Y-34196666D01*
X187773809Y-34149047D01*
X187726190Y-34053809D01*
X187678571Y-33863333D01*
X187630952Y-33768095D01*
X187583333Y-33720476D01*
X187488095Y-33672857D01*
X187392857Y-33672857D01*
X187297619Y-33720476D01*
X187250000Y-33768095D01*
X187202380Y-33863333D01*
X187202380Y-34101428D01*
X187250000Y-34244285D01*
X188202380Y-34815714D02*
X188154761Y-34720476D01*
X188107142Y-34672857D01*
X188011904Y-34625238D01*
X187726190Y-34625238D01*
X187630952Y-34672857D01*
X187583333Y-34720476D01*
X187535714Y-34815714D01*
X187535714Y-34958571D01*
X187583333Y-35053809D01*
X187630952Y-35101428D01*
X187726190Y-35149047D01*
X188011904Y-35149047D01*
X188107142Y-35101428D01*
X188154761Y-35053809D01*
X188202380Y-34958571D01*
X188202380Y-34815714D01*
X187535714Y-36006190D02*
X188202380Y-36006190D01*
X187535714Y-35577619D02*
X188059523Y-35577619D01*
X188154761Y-35625238D01*
X188202380Y-35720476D01*
X188202380Y-35863333D01*
X188154761Y-35958571D01*
X188107142Y-36006190D01*
X188202380Y-36482380D02*
X187535714Y-36482380D01*
X187726190Y-36482380D02*
X187630952Y-36530000D01*
X187583333Y-36577619D01*
X187535714Y-36672857D01*
X187535714Y-36768095D01*
X188154761Y-37530000D02*
X188202380Y-37434761D01*
X188202380Y-37244285D01*
X188154761Y-37149047D01*
X188107142Y-37101428D01*
X188011904Y-37053809D01*
X187726190Y-37053809D01*
X187630952Y-37101428D01*
X187583333Y-37149047D01*
X187535714Y-37244285D01*
X187535714Y-37434761D01*
X187583333Y-37530000D01*
X188154761Y-38339523D02*
X188202380Y-38244285D01*
X188202380Y-38053809D01*
X188154761Y-37958571D01*
X188059523Y-37910952D01*
X187678571Y-37910952D01*
X187583333Y-37958571D01*
X187535714Y-38053809D01*
X187535714Y-38244285D01*
X187583333Y-38339523D01*
X187678571Y-38387142D01*
X187773809Y-38387142D01*
X187869047Y-37910952D01*
X134154761Y-57672857D02*
X134202380Y-57815714D01*
X134202380Y-58053809D01*
X134154761Y-58149047D01*
X134107142Y-58196666D01*
X134011904Y-58244285D01*
X133916666Y-58244285D01*
X133821428Y-58196666D01*
X133773809Y-58149047D01*
X133726190Y-58053809D01*
X133678571Y-57863333D01*
X133630952Y-57768095D01*
X133583333Y-57720476D01*
X133488095Y-57672857D01*
X133392857Y-57672857D01*
X133297619Y-57720476D01*
X133250000Y-57768095D01*
X133202380Y-57863333D01*
X133202380Y-58101428D01*
X133250000Y-58244285D01*
X134202380Y-58815714D02*
X134154761Y-58720476D01*
X134107142Y-58672857D01*
X134011904Y-58625238D01*
X133726190Y-58625238D01*
X133630952Y-58672857D01*
X133583333Y-58720476D01*
X133535714Y-58815714D01*
X133535714Y-58958571D01*
X133583333Y-59053809D01*
X133630952Y-59101428D01*
X133726190Y-59149047D01*
X134011904Y-59149047D01*
X134107142Y-59101428D01*
X134154761Y-59053809D01*
X134202380Y-58958571D01*
X134202380Y-58815714D01*
X133535714Y-60006190D02*
X134202380Y-60006190D01*
X133535714Y-59577619D02*
X134059523Y-59577619D01*
X134154761Y-59625238D01*
X134202380Y-59720476D01*
X134202380Y-59863333D01*
X134154761Y-59958571D01*
X134107142Y-60006190D01*
X134202380Y-60482380D02*
X133535714Y-60482380D01*
X133726190Y-60482380D02*
X133630952Y-60530000D01*
X133583333Y-60577619D01*
X133535714Y-60672857D01*
X133535714Y-60768095D01*
X134154761Y-61530000D02*
X134202380Y-61434761D01*
X134202380Y-61244285D01*
X134154761Y-61149047D01*
X134107142Y-61101428D01*
X134011904Y-61053809D01*
X133726190Y-61053809D01*
X133630952Y-61101428D01*
X133583333Y-61149047D01*
X133535714Y-61244285D01*
X133535714Y-61434761D01*
X133583333Y-61530000D01*
X134154761Y-62339523D02*
X134202380Y-62244285D01*
X134202380Y-62053809D01*
X134154761Y-61958571D01*
X134059523Y-61910952D01*
X133678571Y-61910952D01*
X133583333Y-61958571D01*
X133535714Y-62053809D01*
X133535714Y-62244285D01*
X133583333Y-62339523D01*
X133678571Y-62387142D01*
X133773809Y-62387142D01*
X133869047Y-61910952D01*
X161154761Y-57672857D02*
X161202380Y-57815714D01*
X161202380Y-58053809D01*
X161154761Y-58149047D01*
X161107142Y-58196666D01*
X161011904Y-58244285D01*
X160916666Y-58244285D01*
X160821428Y-58196666D01*
X160773809Y-58149047D01*
X160726190Y-58053809D01*
X160678571Y-57863333D01*
X160630952Y-57768095D01*
X160583333Y-57720476D01*
X160488095Y-57672857D01*
X160392857Y-57672857D01*
X160297619Y-57720476D01*
X160250000Y-57768095D01*
X160202380Y-57863333D01*
X160202380Y-58101428D01*
X160250000Y-58244285D01*
X161202380Y-58815714D02*
X161154761Y-58720476D01*
X161107142Y-58672857D01*
X161011904Y-58625238D01*
X160726190Y-58625238D01*
X160630952Y-58672857D01*
X160583333Y-58720476D01*
X160535714Y-58815714D01*
X160535714Y-58958571D01*
X160583333Y-59053809D01*
X160630952Y-59101428D01*
X160726190Y-59149047D01*
X161011904Y-59149047D01*
X161107142Y-59101428D01*
X161154761Y-59053809D01*
X161202380Y-58958571D01*
X161202380Y-58815714D01*
X160535714Y-60006190D02*
X161202380Y-60006190D01*
X160535714Y-59577619D02*
X161059523Y-59577619D01*
X161154761Y-59625238D01*
X161202380Y-59720476D01*
X161202380Y-59863333D01*
X161154761Y-59958571D01*
X161107142Y-60006190D01*
X161202380Y-60482380D02*
X160535714Y-60482380D01*
X160726190Y-60482380D02*
X160630952Y-60530000D01*
X160583333Y-60577619D01*
X160535714Y-60672857D01*
X160535714Y-60768095D01*
X161154761Y-61530000D02*
X161202380Y-61434761D01*
X161202380Y-61244285D01*
X161154761Y-61149047D01*
X161107142Y-61101428D01*
X161011904Y-61053809D01*
X160726190Y-61053809D01*
X160630952Y-61101428D01*
X160583333Y-61149047D01*
X160535714Y-61244285D01*
X160535714Y-61434761D01*
X160583333Y-61530000D01*
X161154761Y-62339523D02*
X161202380Y-62244285D01*
X161202380Y-62053809D01*
X161154761Y-61958571D01*
X161059523Y-61910952D01*
X160678571Y-61910952D01*
X160583333Y-61958571D01*
X160535714Y-62053809D01*
X160535714Y-62244285D01*
X160583333Y-62339523D01*
X160678571Y-62387142D01*
X160773809Y-62387142D01*
X160869047Y-61910952D01*
X188154761Y-57672857D02*
X188202380Y-57815714D01*
X188202380Y-58053809D01*
X188154761Y-58149047D01*
X188107142Y-58196666D01*
X188011904Y-58244285D01*
X187916666Y-58244285D01*
X187821428Y-58196666D01*
X187773809Y-58149047D01*
X187726190Y-58053809D01*
X187678571Y-57863333D01*
X187630952Y-57768095D01*
X187583333Y-57720476D01*
X187488095Y-57672857D01*
X187392857Y-57672857D01*
X187297619Y-57720476D01*
X187250000Y-57768095D01*
X187202380Y-57863333D01*
X187202380Y-58101428D01*
X187250000Y-58244285D01*
X188202380Y-58815714D02*
X188154761Y-58720476D01*
X188107142Y-58672857D01*
X188011904Y-58625238D01*
X187726190Y-58625238D01*
X187630952Y-58672857D01*
X187583333Y-58720476D01*
X187535714Y-58815714D01*
X187535714Y-58958571D01*
X187583333Y-59053809D01*
X187630952Y-59101428D01*
X187726190Y-59149047D01*
X188011904Y-59149047D01*
X188107142Y-59101428D01*
X188154761Y-59053809D01*
X188202380Y-58958571D01*
X188202380Y-58815714D01*
X187535714Y-60006190D02*
X188202380Y-60006190D01*
X187535714Y-59577619D02*
X188059523Y-59577619D01*
X188154761Y-59625238D01*
X188202380Y-59720476D01*
X188202380Y-59863333D01*
X188154761Y-59958571D01*
X188107142Y-60006190D01*
X188202380Y-60482380D02*
X187535714Y-60482380D01*
X187726190Y-60482380D02*
X187630952Y-60530000D01*
X187583333Y-60577619D01*
X187535714Y-60672857D01*
X187535714Y-60768095D01*
X188154761Y-61530000D02*
X188202380Y-61434761D01*
X188202380Y-61244285D01*
X188154761Y-61149047D01*
X188107142Y-61101428D01*
X188011904Y-61053809D01*
X187726190Y-61053809D01*
X187630952Y-61101428D01*
X187583333Y-61149047D01*
X187535714Y-61244285D01*
X187535714Y-61434761D01*
X187583333Y-61530000D01*
X188154761Y-62339523D02*
X188202380Y-62244285D01*
X188202380Y-62053809D01*
X188154761Y-61958571D01*
X188059523Y-61910952D01*
X187678571Y-61910952D01*
X187583333Y-61958571D01*
X187535714Y-62053809D01*
X187535714Y-62244285D01*
X187583333Y-62339523D01*
X187678571Y-62387142D01*
X187773809Y-62387142D01*
X187869047Y-61910952D01*
X134154761Y-81672857D02*
X134202380Y-81815714D01*
X134202380Y-82053809D01*
X134154761Y-82149047D01*
X134107142Y-82196666D01*
X134011904Y-82244285D01*
X133916666Y-82244285D01*
X133821428Y-82196666D01*
X133773809Y-82149047D01*
X133726190Y-82053809D01*
X133678571Y-81863333D01*
X133630952Y-81768095D01*
X133583333Y-81720476D01*
X133488095Y-81672857D01*
X133392857Y-81672857D01*
X133297619Y-81720476D01*
X133250000Y-81768095D01*
X133202380Y-81863333D01*
X133202380Y-82101428D01*
X133250000Y-82244285D01*
X134202380Y-82815714D02*
X134154761Y-82720476D01*
X134107142Y-82672857D01*
X134011904Y-82625238D01*
X133726190Y-82625238D01*
X133630952Y-82672857D01*
X133583333Y-82720476D01*
X133535714Y-82815714D01*
X133535714Y-82958571D01*
X133583333Y-83053809D01*
X133630952Y-83101428D01*
X133726190Y-83149047D01*
X134011904Y-83149047D01*
X134107142Y-83101428D01*
X134154761Y-83053809D01*
X134202380Y-82958571D01*
X134202380Y-82815714D01*
X133535714Y-84006190D02*
X134202380Y-84006190D01*
X133535714Y-83577619D02*
X134059523Y-83577619D01*
X134154761Y-83625238D01*
X134202380Y-83720476D01*
X134202380Y-83863333D01*
X134154761Y-83958571D01*
X134107142Y-84006190D01*
X134202380Y-84482380D02*
X133535714Y-84482380D01*
X133726190Y-84482380D02*
X133630952Y-84530000D01*
X133583333Y-84577619D01*
X133535714Y-84672857D01*
X133535714Y-84768095D01*
X134154761Y-85530000D02*
X134202380Y-85434761D01*
X134202380Y-85244285D01*
X134154761Y-85149047D01*
X134107142Y-85101428D01*
X134011904Y-85053809D01*
X133726190Y-85053809D01*
X133630952Y-85101428D01*
X133583333Y-85149047D01*
X133535714Y-85244285D01*
X133535714Y-85434761D01*
X133583333Y-85530000D01*
X134154761Y-86339523D02*
X134202380Y-86244285D01*
X134202380Y-86053809D01*
X134154761Y-85958571D01*
X134059523Y-85910952D01*
X133678571Y-85910952D01*
X133583333Y-85958571D01*
X133535714Y-86053809D01*
X133535714Y-86244285D01*
X133583333Y-86339523D01*
X133678571Y-86387142D01*
X133773809Y-86387142D01*
X133869047Y-85910952D01*
X161154761Y-81672857D02*
X161202380Y-81815714D01*
X161202380Y-82053809D01*
X161154761Y-82149047D01*
X161107142Y-82196666D01*
X161011904Y-82244285D01*
X160916666Y-82244285D01*
X160821428Y-82196666D01*
X160773809Y-82149047D01*
X160726190Y-82053809D01*
X160678571Y-81863333D01*
X160630952Y-81768095D01*
X160583333Y-81720476D01*
X160488095Y-81672857D01*
X160392857Y-81672857D01*
X160297619Y-81720476D01*
X160250000Y-81768095D01*
X160202380Y-81863333D01*
X160202380Y-82101428D01*
X160250000Y-82244285D01*
X161202380Y-82815714D02*
X161154761Y-82720476D01*
X161107142Y-82672857D01*
X161011904Y-82625238D01*
X160726190Y-82625238D01*
X160630952Y-82672857D01*
X160583333Y-82720476D01*
X160535714Y-82815714D01*
X160535714Y-82958571D01*
X160583333Y-83053809D01*
X160630952Y-83101428D01*
X160726190Y-83149047D01*
X161011904Y-83149047D01*
X161107142Y-83101428D01*
X161154761Y-83053809D01*
X161202380Y-82958571D01*
X161202380Y-82815714D01*
X160535714Y-84006190D02*
X161202380Y-84006190D01*
X160535714Y-83577619D02*
X161059523Y-83577619D01*
X161154761Y-83625238D01*
X161202380Y-83720476D01*
X161202380Y-83863333D01*
X161154761Y-83958571D01*
X161107142Y-84006190D01*
X161202380Y-84482380D02*
X160535714Y-84482380D01*
X160726190Y-84482380D02*
X160630952Y-84530000D01*
X160583333Y-84577619D01*
X160535714Y-84672857D01*
X160535714Y-84768095D01*
X161154761Y-85530000D02*
X161202380Y-85434761D01*
X161202380Y-85244285D01*
X161154761Y-85149047D01*
X161107142Y-85101428D01*
X161011904Y-85053809D01*
X160726190Y-85053809D01*
X160630952Y-85101428D01*
X160583333Y-85149047D01*
X160535714Y-85244285D01*
X160535714Y-85434761D01*
X160583333Y-85530000D01*
X161154761Y-86339523D02*
X161202380Y-86244285D01*
X161202380Y-86053809D01*
X161154761Y-85958571D01*
X161059523Y-85910952D01*
X160678571Y-85910952D01*
X160583333Y-85958571D01*
X160535714Y-86053809D01*
X160535714Y-86244285D01*
X160583333Y-86339523D01*
X160678571Y-86387142D01*
X160773809Y-86387142D01*
X160869047Y-85910952D01*
X188154761Y-81672857D02*
X188202380Y-81815714D01*
X188202380Y-82053809D01*
X188154761Y-82149047D01*
X188107142Y-82196666D01*
X188011904Y-82244285D01*
X187916666Y-82244285D01*
X187821428Y-82196666D01*
X187773809Y-82149047D01*
X187726190Y-82053809D01*
X187678571Y-81863333D01*
X187630952Y-81768095D01*
X187583333Y-81720476D01*
X187488095Y-81672857D01*
X187392857Y-81672857D01*
X187297619Y-81720476D01*
X187250000Y-81768095D01*
X187202380Y-81863333D01*
X187202380Y-82101428D01*
X187250000Y-82244285D01*
X188202380Y-82815714D02*
X188154761Y-82720476D01*
X188107142Y-82672857D01*
X188011904Y-82625238D01*
X187726190Y-82625238D01*
X187630952Y-82672857D01*
X187583333Y-82720476D01*
X187535714Y-82815714D01*
X187535714Y-82958571D01*
X187583333Y-83053809D01*
X187630952Y-83101428D01*
X187726190Y-83149047D01*
X188011904Y-83149047D01*
X188107142Y-83101428D01*
X188154761Y-83053809D01*
X188202380Y-82958571D01*
X188202380Y-82815714D01*
X187535714Y-84006190D02*
X188202380Y-84006190D01*
X187535714Y-83577619D02*
X188059523Y-83577619D01*
X188154761Y-83625238D01*
X188202380Y-83720476D01*
X188202380Y-83863333D01*
X188154761Y-83958571D01*
X188107142Y-84006190D01*
X188202380Y-84482380D02*
X187535714Y-84482380D01*
X187726190Y-84482380D02*
X187630952Y-84530000D01*
X187583333Y-84577619D01*
X187535714Y-84672857D01*
X187535714Y-84768095D01*
X188154761Y-85530000D02*
X188202380Y-85434761D01*
X188202380Y-85244285D01*
X188154761Y-85149047D01*
X188107142Y-85101428D01*
X188011904Y-85053809D01*
X187726190Y-85053809D01*
X187630952Y-85101428D01*
X187583333Y-85149047D01*
X187535714Y-85244285D01*
X187535714Y-85434761D01*
X187583333Y-85530000D01*
X188154761Y-86339523D02*
X188202380Y-86244285D01*
X188202380Y-86053809D01*
X188154761Y-85958571D01*
X188059523Y-85910952D01*
X187678571Y-85910952D01*
X187583333Y-85958571D01*
X187535714Y-86053809D01*
X187535714Y-86244285D01*
X187583333Y-86339523D01*
X187678571Y-86387142D01*
X187773809Y-86387142D01*
X187869047Y-85910952D01*
D12*
X117787142Y-33090023D02*
X117834761Y-33042404D01*
X117882380Y-32899547D01*
X117882380Y-32804309D01*
X117834761Y-32661452D01*
X117739523Y-32566214D01*
X117644285Y-32518595D01*
X117453809Y-32470976D01*
X117310952Y-32470976D01*
X117120476Y-32518595D01*
X117025238Y-32566214D01*
X116930000Y-32661452D01*
X116882380Y-32804309D01*
X116882380Y-32899547D01*
X116930000Y-33042404D01*
X116977619Y-33090023D01*
X117882380Y-33661452D02*
X117834761Y-33566214D01*
X117787142Y-33518595D01*
X117691904Y-33470976D01*
X117406190Y-33470976D01*
X117310952Y-33518595D01*
X117263333Y-33566214D01*
X117215714Y-33661452D01*
X117215714Y-33804309D01*
X117263333Y-33899547D01*
X117310952Y-33947166D01*
X117406190Y-33994785D01*
X117691904Y-33994785D01*
X117787142Y-33947166D01*
X117834761Y-33899547D01*
X117882380Y-33804309D01*
X117882380Y-33661452D01*
X117215714Y-34423357D02*
X118215714Y-34423357D01*
X117263333Y-34423357D02*
X117215714Y-34518595D01*
X117215714Y-34709071D01*
X117263333Y-34804309D01*
X117310952Y-34851928D01*
X117406190Y-34899547D01*
X117691904Y-34899547D01*
X117787142Y-34851928D01*
X117834761Y-34804309D01*
X117882380Y-34709071D01*
X117882380Y-34518595D01*
X117834761Y-34423357D01*
X117215714Y-35232880D02*
X117882380Y-35470976D01*
X117215714Y-35709071D02*
X117882380Y-35470976D01*
X118120476Y-35375738D01*
X118168095Y-35328119D01*
X118215714Y-35232880D01*
X117882380Y-36090023D02*
X117215714Y-36090023D01*
X117406190Y-36090023D02*
X117310952Y-36137642D01*
X117263333Y-36185261D01*
X117215714Y-36280500D01*
X117215714Y-36375738D01*
X117882380Y-36709071D02*
X117215714Y-36709071D01*
X116882380Y-36709071D02*
X116930000Y-36661452D01*
X116977619Y-36709071D01*
X116930000Y-36756690D01*
X116882380Y-36709071D01*
X116977619Y-36709071D01*
X117215714Y-37613833D02*
X118025238Y-37613833D01*
X118120476Y-37566214D01*
X118168095Y-37518595D01*
X118215714Y-37423357D01*
X118215714Y-37280500D01*
X118168095Y-37185261D01*
X117834761Y-37613833D02*
X117882380Y-37518595D01*
X117882380Y-37328119D01*
X117834761Y-37232880D01*
X117787142Y-37185261D01*
X117691904Y-37137642D01*
X117406190Y-37137642D01*
X117310952Y-37185261D01*
X117263333Y-37232880D01*
X117215714Y-37328119D01*
X117215714Y-37518595D01*
X117263333Y-37613833D01*
X117882380Y-38090023D02*
X116882380Y-38090023D01*
X117882380Y-38518595D02*
X117358571Y-38518595D01*
X117263333Y-38470976D01*
X117215714Y-38375738D01*
X117215714Y-38232880D01*
X117263333Y-38137642D01*
X117310952Y-38090023D01*
X117215714Y-38851928D02*
X117215714Y-39232880D01*
X116882380Y-38994785D02*
X117739523Y-38994785D01*
X117834761Y-39042404D01*
X117882380Y-39137642D01*
X117882380Y-39232880D01*
X118263333Y-40613833D02*
X118215714Y-40566214D01*
X118072857Y-40470976D01*
X117977619Y-40423357D01*
X117834761Y-40375738D01*
X117596666Y-40328119D01*
X117406190Y-40328119D01*
X117168095Y-40375738D01*
X117025238Y-40423357D01*
X116930000Y-40470976D01*
X116787142Y-40566214D01*
X116739523Y-40613833D01*
X117787142Y-41566214D02*
X117834761Y-41518595D01*
X117882380Y-41375738D01*
X117882380Y-41280500D01*
X117834761Y-41137642D01*
X117739523Y-41042404D01*
X117644285Y-40994785D01*
X117453809Y-40947166D01*
X117310952Y-40947166D01*
X117120476Y-40994785D01*
X117025238Y-41042404D01*
X116930000Y-41137642D01*
X116882380Y-41280500D01*
X116882380Y-41375738D01*
X116930000Y-41518595D01*
X116977619Y-41566214D01*
X118263333Y-41899547D02*
X118215714Y-41947166D01*
X118072857Y-42042404D01*
X117977619Y-42090023D01*
X117834761Y-42137642D01*
X117596666Y-42185261D01*
X117406190Y-42185261D01*
X117168095Y-42137642D01*
X117025238Y-42090023D01*
X116930000Y-42042404D01*
X116787142Y-41947166D01*
X116739523Y-41899547D01*
X116977619Y-43375738D02*
X116930000Y-43423357D01*
X116882380Y-43518595D01*
X116882380Y-43756690D01*
X116930000Y-43851928D01*
X116977619Y-43899547D01*
X117072857Y-43947166D01*
X117168095Y-43947166D01*
X117310952Y-43899547D01*
X117882380Y-43328119D01*
X117882380Y-43947166D01*
X116882380Y-44566214D02*
X116882380Y-44661452D01*
X116930000Y-44756690D01*
X116977619Y-44804309D01*
X117072857Y-44851928D01*
X117263333Y-44899547D01*
X117501428Y-44899547D01*
X117691904Y-44851928D01*
X117787142Y-44804309D01*
X117834761Y-44756690D01*
X117882380Y-44661452D01*
X117882380Y-44566214D01*
X117834761Y-44470976D01*
X117787142Y-44423357D01*
X117691904Y-44375738D01*
X117501428Y-44328119D01*
X117263333Y-44328119D01*
X117072857Y-44375738D01*
X116977619Y-44423357D01*
X116930000Y-44470976D01*
X116882380Y-44566214D01*
X116977619Y-45280500D02*
X116930000Y-45328119D01*
X116882380Y-45423357D01*
X116882380Y-45661452D01*
X116930000Y-45756690D01*
X116977619Y-45804309D01*
X117072857Y-45851928D01*
X117168095Y-45851928D01*
X117310952Y-45804309D01*
X117882380Y-45232880D01*
X117882380Y-45851928D01*
X116882380Y-46185261D02*
X116882380Y-46804309D01*
X117263333Y-46470976D01*
X117263333Y-46613833D01*
X117310952Y-46709071D01*
X117358571Y-46756690D01*
X117453809Y-46804309D01*
X117691904Y-46804309D01*
X117787142Y-46756690D01*
X117834761Y-46709071D01*
X117882380Y-46613833D01*
X117882380Y-46328119D01*
X117834761Y-46232880D01*
X117787142Y-46185261D01*
X118492380Y-32804309D02*
X119206666Y-32804309D01*
X119349523Y-32756690D01*
X119444761Y-32661452D01*
X119492380Y-32518595D01*
X119492380Y-32423357D01*
X119492380Y-33709071D02*
X118968571Y-33709071D01*
X118873333Y-33661452D01*
X118825714Y-33566214D01*
X118825714Y-33375738D01*
X118873333Y-33280500D01*
X119444761Y-33709071D02*
X119492380Y-33613833D01*
X119492380Y-33375738D01*
X119444761Y-33280500D01*
X119349523Y-33232880D01*
X119254285Y-33232880D01*
X119159047Y-33280500D01*
X119111428Y-33375738D01*
X119111428Y-33613833D01*
X119063809Y-33709071D01*
X119444761Y-34613833D02*
X119492380Y-34518595D01*
X119492380Y-34328119D01*
X119444761Y-34232880D01*
X119397142Y-34185261D01*
X119301904Y-34137642D01*
X119016190Y-34137642D01*
X118920952Y-34185261D01*
X118873333Y-34232880D01*
X118825714Y-34328119D01*
X118825714Y-34518595D01*
X118873333Y-34613833D01*
X119492380Y-35042404D02*
X118492380Y-35042404D01*
X119111428Y-35137642D02*
X119492380Y-35423357D01*
X118825714Y-35423357D02*
X119206666Y-35042404D01*
X119444761Y-35804309D02*
X119492380Y-35899547D01*
X119492380Y-36090023D01*
X119444761Y-36185261D01*
X119349523Y-36232880D01*
X119301904Y-36232880D01*
X119206666Y-36185261D01*
X119159047Y-36090023D01*
X119159047Y-35947166D01*
X119111428Y-35851928D01*
X119016190Y-35804309D01*
X118968571Y-35804309D01*
X118873333Y-35851928D01*
X118825714Y-35947166D01*
X118825714Y-36090023D01*
X118873333Y-36185261D01*
X119492380Y-36804309D02*
X119444761Y-36709071D01*
X119397142Y-36661452D01*
X119301904Y-36613833D01*
X119016190Y-36613833D01*
X118920952Y-36661452D01*
X118873333Y-36709071D01*
X118825714Y-36804309D01*
X118825714Y-36947166D01*
X118873333Y-37042404D01*
X118920952Y-37090023D01*
X119016190Y-37137642D01*
X119301904Y-37137642D01*
X119397142Y-37090023D01*
X119444761Y-37042404D01*
X119492380Y-36947166D01*
X119492380Y-36804309D01*
X118825714Y-37566214D02*
X119492380Y-37566214D01*
X118920952Y-37566214D02*
X118873333Y-37613833D01*
X118825714Y-37709071D01*
X118825714Y-37851928D01*
X118873333Y-37947166D01*
X118968571Y-37994785D01*
X119492380Y-37994785D01*
X119492380Y-39232880D02*
X118492380Y-39232880D01*
X119206666Y-39566214D01*
X118492380Y-39899547D01*
X119492380Y-39899547D01*
X119492380Y-41137642D02*
X118492380Y-41137642D01*
X118968571Y-41137642D02*
X118968571Y-41709071D01*
X119492380Y-41709071D02*
X118492380Y-41709071D01*
X118825714Y-42613833D02*
X119492380Y-42613833D01*
X118825714Y-42185261D02*
X119349523Y-42185261D01*
X119444761Y-42232880D01*
X119492380Y-42328119D01*
X119492380Y-42470976D01*
X119444761Y-42566214D01*
X119397142Y-42613833D01*
X121102380Y-33090023D02*
X120626190Y-32756690D01*
X121102380Y-32518595D02*
X120102380Y-32518595D01*
X120102380Y-32899547D01*
X120150000Y-32994785D01*
X120197619Y-33042404D01*
X120292857Y-33090023D01*
X120435714Y-33090023D01*
X120530952Y-33042404D01*
X120578571Y-32994785D01*
X120626190Y-32899547D01*
X120626190Y-32518595D01*
X121054761Y-33899547D02*
X121102380Y-33804309D01*
X121102380Y-33613833D01*
X121054761Y-33518595D01*
X120959523Y-33470976D01*
X120578571Y-33470976D01*
X120483333Y-33518595D01*
X120435714Y-33613833D01*
X120435714Y-33804309D01*
X120483333Y-33899547D01*
X120578571Y-33947166D01*
X120673809Y-33947166D01*
X120769047Y-33470976D01*
X120435714Y-34280500D02*
X121102380Y-34518595D01*
X120435714Y-34756690D01*
X121102380Y-36423357D02*
X121102380Y-35851928D01*
X121102380Y-36137642D02*
X120102380Y-36137642D01*
X120245238Y-36042404D01*
X120340476Y-35947166D01*
X120388095Y-35851928D01*
X144787142Y-33090023D02*
X144834761Y-33042404D01*
X144882380Y-32899547D01*
X144882380Y-32804309D01*
X144834761Y-32661452D01*
X144739523Y-32566214D01*
X144644285Y-32518595D01*
X144453809Y-32470976D01*
X144310952Y-32470976D01*
X144120476Y-32518595D01*
X144025238Y-32566214D01*
X143930000Y-32661452D01*
X143882380Y-32804309D01*
X143882380Y-32899547D01*
X143930000Y-33042404D01*
X143977619Y-33090023D01*
X144882380Y-33661452D02*
X144834761Y-33566214D01*
X144787142Y-33518595D01*
X144691904Y-33470976D01*
X144406190Y-33470976D01*
X144310952Y-33518595D01*
X144263333Y-33566214D01*
X144215714Y-33661452D01*
X144215714Y-33804309D01*
X144263333Y-33899547D01*
X144310952Y-33947166D01*
X144406190Y-33994785D01*
X144691904Y-33994785D01*
X144787142Y-33947166D01*
X144834761Y-33899547D01*
X144882380Y-33804309D01*
X144882380Y-33661452D01*
X144215714Y-34423357D02*
X145215714Y-34423357D01*
X144263333Y-34423357D02*
X144215714Y-34518595D01*
X144215714Y-34709071D01*
X144263333Y-34804309D01*
X144310952Y-34851928D01*
X144406190Y-34899547D01*
X144691904Y-34899547D01*
X144787142Y-34851928D01*
X144834761Y-34804309D01*
X144882380Y-34709071D01*
X144882380Y-34518595D01*
X144834761Y-34423357D01*
X144215714Y-35232880D02*
X144882380Y-35470976D01*
X144215714Y-35709071D02*
X144882380Y-35470976D01*
X145120476Y-35375738D01*
X145168095Y-35328119D01*
X145215714Y-35232880D01*
X144882380Y-36090023D02*
X144215714Y-36090023D01*
X144406190Y-36090023D02*
X144310952Y-36137642D01*
X144263333Y-36185261D01*
X144215714Y-36280500D01*
X144215714Y-36375738D01*
X144882380Y-36709071D02*
X144215714Y-36709071D01*
X143882380Y-36709071D02*
X143930000Y-36661452D01*
X143977619Y-36709071D01*
X143930000Y-36756690D01*
X143882380Y-36709071D01*
X143977619Y-36709071D01*
X144215714Y-37613833D02*
X145025238Y-37613833D01*
X145120476Y-37566214D01*
X145168095Y-37518595D01*
X145215714Y-37423357D01*
X145215714Y-37280500D01*
X145168095Y-37185261D01*
X144834761Y-37613833D02*
X144882380Y-37518595D01*
X144882380Y-37328119D01*
X144834761Y-37232880D01*
X144787142Y-37185261D01*
X144691904Y-37137642D01*
X144406190Y-37137642D01*
X144310952Y-37185261D01*
X144263333Y-37232880D01*
X144215714Y-37328119D01*
X144215714Y-37518595D01*
X144263333Y-37613833D01*
X144882380Y-38090023D02*
X143882380Y-38090023D01*
X144882380Y-38518595D02*
X144358571Y-38518595D01*
X144263333Y-38470976D01*
X144215714Y-38375738D01*
X144215714Y-38232880D01*
X144263333Y-38137642D01*
X144310952Y-38090023D01*
X144215714Y-38851928D02*
X144215714Y-39232880D01*
X143882380Y-38994785D02*
X144739523Y-38994785D01*
X144834761Y-39042404D01*
X144882380Y-39137642D01*
X144882380Y-39232880D01*
X145263333Y-40613833D02*
X145215714Y-40566214D01*
X145072857Y-40470976D01*
X144977619Y-40423357D01*
X144834761Y-40375738D01*
X144596666Y-40328119D01*
X144406190Y-40328119D01*
X144168095Y-40375738D01*
X144025238Y-40423357D01*
X143930000Y-40470976D01*
X143787142Y-40566214D01*
X143739523Y-40613833D01*
X144787142Y-41566214D02*
X144834761Y-41518595D01*
X144882380Y-41375738D01*
X144882380Y-41280500D01*
X144834761Y-41137642D01*
X144739523Y-41042404D01*
X144644285Y-40994785D01*
X144453809Y-40947166D01*
X144310952Y-40947166D01*
X144120476Y-40994785D01*
X144025238Y-41042404D01*
X143930000Y-41137642D01*
X143882380Y-41280500D01*
X143882380Y-41375738D01*
X143930000Y-41518595D01*
X143977619Y-41566214D01*
X145263333Y-41899547D02*
X145215714Y-41947166D01*
X145072857Y-42042404D01*
X144977619Y-42090023D01*
X144834761Y-42137642D01*
X144596666Y-42185261D01*
X144406190Y-42185261D01*
X144168095Y-42137642D01*
X144025238Y-42090023D01*
X143930000Y-42042404D01*
X143787142Y-41947166D01*
X143739523Y-41899547D01*
X143977619Y-43375738D02*
X143930000Y-43423357D01*
X143882380Y-43518595D01*
X143882380Y-43756690D01*
X143930000Y-43851928D01*
X143977619Y-43899547D01*
X144072857Y-43947166D01*
X144168095Y-43947166D01*
X144310952Y-43899547D01*
X144882380Y-43328119D01*
X144882380Y-43947166D01*
X143882380Y-44566214D02*
X143882380Y-44661452D01*
X143930000Y-44756690D01*
X143977619Y-44804309D01*
X144072857Y-44851928D01*
X144263333Y-44899547D01*
X144501428Y-44899547D01*
X144691904Y-44851928D01*
X144787142Y-44804309D01*
X144834761Y-44756690D01*
X144882380Y-44661452D01*
X144882380Y-44566214D01*
X144834761Y-44470976D01*
X144787142Y-44423357D01*
X144691904Y-44375738D01*
X144501428Y-44328119D01*
X144263333Y-44328119D01*
X144072857Y-44375738D01*
X143977619Y-44423357D01*
X143930000Y-44470976D01*
X143882380Y-44566214D01*
X143977619Y-45280500D02*
X143930000Y-45328119D01*
X143882380Y-45423357D01*
X143882380Y-45661452D01*
X143930000Y-45756690D01*
X143977619Y-45804309D01*
X144072857Y-45851928D01*
X144168095Y-45851928D01*
X144310952Y-45804309D01*
X144882380Y-45232880D01*
X144882380Y-45851928D01*
X143882380Y-46185261D02*
X143882380Y-46804309D01*
X144263333Y-46470976D01*
X144263333Y-46613833D01*
X144310952Y-46709071D01*
X144358571Y-46756690D01*
X144453809Y-46804309D01*
X144691904Y-46804309D01*
X144787142Y-46756690D01*
X144834761Y-46709071D01*
X144882380Y-46613833D01*
X144882380Y-46328119D01*
X144834761Y-46232880D01*
X144787142Y-46185261D01*
X145492380Y-32804309D02*
X146206666Y-32804309D01*
X146349523Y-32756690D01*
X146444761Y-32661452D01*
X146492380Y-32518595D01*
X146492380Y-32423357D01*
X146492380Y-33709071D02*
X145968571Y-33709071D01*
X145873333Y-33661452D01*
X145825714Y-33566214D01*
X145825714Y-33375738D01*
X145873333Y-33280500D01*
X146444761Y-33709071D02*
X146492380Y-33613833D01*
X146492380Y-33375738D01*
X146444761Y-33280500D01*
X146349523Y-33232880D01*
X146254285Y-33232880D01*
X146159047Y-33280500D01*
X146111428Y-33375738D01*
X146111428Y-33613833D01*
X146063809Y-33709071D01*
X146444761Y-34613833D02*
X146492380Y-34518595D01*
X146492380Y-34328119D01*
X146444761Y-34232880D01*
X146397142Y-34185261D01*
X146301904Y-34137642D01*
X146016190Y-34137642D01*
X145920952Y-34185261D01*
X145873333Y-34232880D01*
X145825714Y-34328119D01*
X145825714Y-34518595D01*
X145873333Y-34613833D01*
X146492380Y-35042404D02*
X145492380Y-35042404D01*
X146111428Y-35137642D02*
X146492380Y-35423357D01*
X145825714Y-35423357D02*
X146206666Y-35042404D01*
X146444761Y-35804309D02*
X146492380Y-35899547D01*
X146492380Y-36090023D01*
X146444761Y-36185261D01*
X146349523Y-36232880D01*
X146301904Y-36232880D01*
X146206666Y-36185261D01*
X146159047Y-36090023D01*
X146159047Y-35947166D01*
X146111428Y-35851928D01*
X146016190Y-35804309D01*
X145968571Y-35804309D01*
X145873333Y-35851928D01*
X145825714Y-35947166D01*
X145825714Y-36090023D01*
X145873333Y-36185261D01*
X146492380Y-36804309D02*
X146444761Y-36709071D01*
X146397142Y-36661452D01*
X146301904Y-36613833D01*
X146016190Y-36613833D01*
X145920952Y-36661452D01*
X145873333Y-36709071D01*
X145825714Y-36804309D01*
X145825714Y-36947166D01*
X145873333Y-37042404D01*
X145920952Y-37090023D01*
X146016190Y-37137642D01*
X146301904Y-37137642D01*
X146397142Y-37090023D01*
X146444761Y-37042404D01*
X146492380Y-36947166D01*
X146492380Y-36804309D01*
X145825714Y-37566214D02*
X146492380Y-37566214D01*
X145920952Y-37566214D02*
X145873333Y-37613833D01*
X145825714Y-37709071D01*
X145825714Y-37851928D01*
X145873333Y-37947166D01*
X145968571Y-37994785D01*
X146492380Y-37994785D01*
X146492380Y-39232880D02*
X145492380Y-39232880D01*
X146206666Y-39566214D01*
X145492380Y-39899547D01*
X146492380Y-39899547D01*
X146492380Y-41137642D02*
X145492380Y-41137642D01*
X145968571Y-41137642D02*
X145968571Y-41709071D01*
X146492380Y-41709071D02*
X145492380Y-41709071D01*
X145825714Y-42613833D02*
X146492380Y-42613833D01*
X145825714Y-42185261D02*
X146349523Y-42185261D01*
X146444761Y-42232880D01*
X146492380Y-42328119D01*
X146492380Y-42470976D01*
X146444761Y-42566214D01*
X146397142Y-42613833D01*
X148102380Y-33090023D02*
X147626190Y-32756690D01*
X148102380Y-32518595D02*
X147102380Y-32518595D01*
X147102380Y-32899547D01*
X147150000Y-32994785D01*
X147197619Y-33042404D01*
X147292857Y-33090023D01*
X147435714Y-33090023D01*
X147530952Y-33042404D01*
X147578571Y-32994785D01*
X147626190Y-32899547D01*
X147626190Y-32518595D01*
X148054761Y-33899547D02*
X148102380Y-33804309D01*
X148102380Y-33613833D01*
X148054761Y-33518595D01*
X147959523Y-33470976D01*
X147578571Y-33470976D01*
X147483333Y-33518595D01*
X147435714Y-33613833D01*
X147435714Y-33804309D01*
X147483333Y-33899547D01*
X147578571Y-33947166D01*
X147673809Y-33947166D01*
X147769047Y-33470976D01*
X147435714Y-34280500D02*
X148102380Y-34518595D01*
X147435714Y-34756690D01*
X148102380Y-36423357D02*
X148102380Y-35851928D01*
X148102380Y-36137642D02*
X147102380Y-36137642D01*
X147245238Y-36042404D01*
X147340476Y-35947166D01*
X147388095Y-35851928D01*
X171787142Y-33090023D02*
X171834761Y-33042404D01*
X171882380Y-32899547D01*
X171882380Y-32804309D01*
X171834761Y-32661452D01*
X171739523Y-32566214D01*
X171644285Y-32518595D01*
X171453809Y-32470976D01*
X171310952Y-32470976D01*
X171120476Y-32518595D01*
X171025238Y-32566214D01*
X170930000Y-32661452D01*
X170882380Y-32804309D01*
X170882380Y-32899547D01*
X170930000Y-33042404D01*
X170977619Y-33090023D01*
X171882380Y-33661452D02*
X171834761Y-33566214D01*
X171787142Y-33518595D01*
X171691904Y-33470976D01*
X171406190Y-33470976D01*
X171310952Y-33518595D01*
X171263333Y-33566214D01*
X171215714Y-33661452D01*
X171215714Y-33804309D01*
X171263333Y-33899547D01*
X171310952Y-33947166D01*
X171406190Y-33994785D01*
X171691904Y-33994785D01*
X171787142Y-33947166D01*
X171834761Y-33899547D01*
X171882380Y-33804309D01*
X171882380Y-33661452D01*
X171215714Y-34423357D02*
X172215714Y-34423357D01*
X171263333Y-34423357D02*
X171215714Y-34518595D01*
X171215714Y-34709071D01*
X171263333Y-34804309D01*
X171310952Y-34851928D01*
X171406190Y-34899547D01*
X171691904Y-34899547D01*
X171787142Y-34851928D01*
X171834761Y-34804309D01*
X171882380Y-34709071D01*
X171882380Y-34518595D01*
X171834761Y-34423357D01*
X171215714Y-35232880D02*
X171882380Y-35470976D01*
X171215714Y-35709071D02*
X171882380Y-35470976D01*
X172120476Y-35375738D01*
X172168095Y-35328119D01*
X172215714Y-35232880D01*
X171882380Y-36090023D02*
X171215714Y-36090023D01*
X171406190Y-36090023D02*
X171310952Y-36137642D01*
X171263333Y-36185261D01*
X171215714Y-36280500D01*
X171215714Y-36375738D01*
X171882380Y-36709071D02*
X171215714Y-36709071D01*
X170882380Y-36709071D02*
X170930000Y-36661452D01*
X170977619Y-36709071D01*
X170930000Y-36756690D01*
X170882380Y-36709071D01*
X170977619Y-36709071D01*
X171215714Y-37613833D02*
X172025238Y-37613833D01*
X172120476Y-37566214D01*
X172168095Y-37518595D01*
X172215714Y-37423357D01*
X172215714Y-37280500D01*
X172168095Y-37185261D01*
X171834761Y-37613833D02*
X171882380Y-37518595D01*
X171882380Y-37328119D01*
X171834761Y-37232880D01*
X171787142Y-37185261D01*
X171691904Y-37137642D01*
X171406190Y-37137642D01*
X171310952Y-37185261D01*
X171263333Y-37232880D01*
X171215714Y-37328119D01*
X171215714Y-37518595D01*
X171263333Y-37613833D01*
X171882380Y-38090023D02*
X170882380Y-38090023D01*
X171882380Y-38518595D02*
X171358571Y-38518595D01*
X171263333Y-38470976D01*
X171215714Y-38375738D01*
X171215714Y-38232880D01*
X171263333Y-38137642D01*
X171310952Y-38090023D01*
X171215714Y-38851928D02*
X171215714Y-39232880D01*
X170882380Y-38994785D02*
X171739523Y-38994785D01*
X171834761Y-39042404D01*
X171882380Y-39137642D01*
X171882380Y-39232880D01*
X172263333Y-40613833D02*
X172215714Y-40566214D01*
X172072857Y-40470976D01*
X171977619Y-40423357D01*
X171834761Y-40375738D01*
X171596666Y-40328119D01*
X171406190Y-40328119D01*
X171168095Y-40375738D01*
X171025238Y-40423357D01*
X170930000Y-40470976D01*
X170787142Y-40566214D01*
X170739523Y-40613833D01*
X171787142Y-41566214D02*
X171834761Y-41518595D01*
X171882380Y-41375738D01*
X171882380Y-41280500D01*
X171834761Y-41137642D01*
X171739523Y-41042404D01*
X171644285Y-40994785D01*
X171453809Y-40947166D01*
X171310952Y-40947166D01*
X171120476Y-40994785D01*
X171025238Y-41042404D01*
X170930000Y-41137642D01*
X170882380Y-41280500D01*
X170882380Y-41375738D01*
X170930000Y-41518595D01*
X170977619Y-41566214D01*
X172263333Y-41899547D02*
X172215714Y-41947166D01*
X172072857Y-42042404D01*
X171977619Y-42090023D01*
X171834761Y-42137642D01*
X171596666Y-42185261D01*
X171406190Y-42185261D01*
X171168095Y-42137642D01*
X171025238Y-42090023D01*
X170930000Y-42042404D01*
X170787142Y-41947166D01*
X170739523Y-41899547D01*
X170977619Y-43375738D02*
X170930000Y-43423357D01*
X170882380Y-43518595D01*
X170882380Y-43756690D01*
X170930000Y-43851928D01*
X170977619Y-43899547D01*
X171072857Y-43947166D01*
X171168095Y-43947166D01*
X171310952Y-43899547D01*
X171882380Y-43328119D01*
X171882380Y-43947166D01*
X170882380Y-44566214D02*
X170882380Y-44661452D01*
X170930000Y-44756690D01*
X170977619Y-44804309D01*
X171072857Y-44851928D01*
X171263333Y-44899547D01*
X171501428Y-44899547D01*
X171691904Y-44851928D01*
X171787142Y-44804309D01*
X171834761Y-44756690D01*
X171882380Y-44661452D01*
X171882380Y-44566214D01*
X171834761Y-44470976D01*
X171787142Y-44423357D01*
X171691904Y-44375738D01*
X171501428Y-44328119D01*
X171263333Y-44328119D01*
X171072857Y-44375738D01*
X170977619Y-44423357D01*
X170930000Y-44470976D01*
X170882380Y-44566214D01*
X170977619Y-45280500D02*
X170930000Y-45328119D01*
X170882380Y-45423357D01*
X170882380Y-45661452D01*
X170930000Y-45756690D01*
X170977619Y-45804309D01*
X171072857Y-45851928D01*
X171168095Y-45851928D01*
X171310952Y-45804309D01*
X171882380Y-45232880D01*
X171882380Y-45851928D01*
X170882380Y-46185261D02*
X170882380Y-46804309D01*
X171263333Y-46470976D01*
X171263333Y-46613833D01*
X171310952Y-46709071D01*
X171358571Y-46756690D01*
X171453809Y-46804309D01*
X171691904Y-46804309D01*
X171787142Y-46756690D01*
X171834761Y-46709071D01*
X171882380Y-46613833D01*
X171882380Y-46328119D01*
X171834761Y-46232880D01*
X171787142Y-46185261D01*
X172492380Y-32804309D02*
X173206666Y-32804309D01*
X173349523Y-32756690D01*
X173444761Y-32661452D01*
X173492380Y-32518595D01*
X173492380Y-32423357D01*
X173492380Y-33709071D02*
X172968571Y-33709071D01*
X172873333Y-33661452D01*
X172825714Y-33566214D01*
X172825714Y-33375738D01*
X172873333Y-33280500D01*
X173444761Y-33709071D02*
X173492380Y-33613833D01*
X173492380Y-33375738D01*
X173444761Y-33280500D01*
X173349523Y-33232880D01*
X173254285Y-33232880D01*
X173159047Y-33280500D01*
X173111428Y-33375738D01*
X173111428Y-33613833D01*
X173063809Y-33709071D01*
X173444761Y-34613833D02*
X173492380Y-34518595D01*
X173492380Y-34328119D01*
X173444761Y-34232880D01*
X173397142Y-34185261D01*
X173301904Y-34137642D01*
X173016190Y-34137642D01*
X172920952Y-34185261D01*
X172873333Y-34232880D01*
X172825714Y-34328119D01*
X172825714Y-34518595D01*
X172873333Y-34613833D01*
X173492380Y-35042404D02*
X172492380Y-35042404D01*
X173111428Y-35137642D02*
X173492380Y-35423357D01*
X172825714Y-35423357D02*
X173206666Y-35042404D01*
X173444761Y-35804309D02*
X173492380Y-35899547D01*
X173492380Y-36090023D01*
X173444761Y-36185261D01*
X173349523Y-36232880D01*
X173301904Y-36232880D01*
X173206666Y-36185261D01*
X173159047Y-36090023D01*
X173159047Y-35947166D01*
X173111428Y-35851928D01*
X173016190Y-35804309D01*
X172968571Y-35804309D01*
X172873333Y-35851928D01*
X172825714Y-35947166D01*
X172825714Y-36090023D01*
X172873333Y-36185261D01*
X173492380Y-36804309D02*
X173444761Y-36709071D01*
X173397142Y-36661452D01*
X173301904Y-36613833D01*
X173016190Y-36613833D01*
X172920952Y-36661452D01*
X172873333Y-36709071D01*
X172825714Y-36804309D01*
X172825714Y-36947166D01*
X172873333Y-37042404D01*
X172920952Y-37090023D01*
X173016190Y-37137642D01*
X173301904Y-37137642D01*
X173397142Y-37090023D01*
X173444761Y-37042404D01*
X173492380Y-36947166D01*
X173492380Y-36804309D01*
X172825714Y-37566214D02*
X173492380Y-37566214D01*
X172920952Y-37566214D02*
X172873333Y-37613833D01*
X172825714Y-37709071D01*
X172825714Y-37851928D01*
X172873333Y-37947166D01*
X172968571Y-37994785D01*
X173492380Y-37994785D01*
X173492380Y-39232880D02*
X172492380Y-39232880D01*
X173206666Y-39566214D01*
X172492380Y-39899547D01*
X173492380Y-39899547D01*
X173492380Y-41137642D02*
X172492380Y-41137642D01*
X172968571Y-41137642D02*
X172968571Y-41709071D01*
X173492380Y-41709071D02*
X172492380Y-41709071D01*
X172825714Y-42613833D02*
X173492380Y-42613833D01*
X172825714Y-42185261D02*
X173349523Y-42185261D01*
X173444761Y-42232880D01*
X173492380Y-42328119D01*
X173492380Y-42470976D01*
X173444761Y-42566214D01*
X173397142Y-42613833D01*
X175102380Y-33090023D02*
X174626190Y-32756690D01*
X175102380Y-32518595D02*
X174102380Y-32518595D01*
X174102380Y-32899547D01*
X174150000Y-32994785D01*
X174197619Y-33042404D01*
X174292857Y-33090023D01*
X174435714Y-33090023D01*
X174530952Y-33042404D01*
X174578571Y-32994785D01*
X174626190Y-32899547D01*
X174626190Y-32518595D01*
X175054761Y-33899547D02*
X175102380Y-33804309D01*
X175102380Y-33613833D01*
X175054761Y-33518595D01*
X174959523Y-33470976D01*
X174578571Y-33470976D01*
X174483333Y-33518595D01*
X174435714Y-33613833D01*
X174435714Y-33804309D01*
X174483333Y-33899547D01*
X174578571Y-33947166D01*
X174673809Y-33947166D01*
X174769047Y-33470976D01*
X174435714Y-34280500D02*
X175102380Y-34518595D01*
X174435714Y-34756690D01*
X175102380Y-36423357D02*
X175102380Y-35851928D01*
X175102380Y-36137642D02*
X174102380Y-36137642D01*
X174245238Y-36042404D01*
X174340476Y-35947166D01*
X174388095Y-35851928D01*
X117787142Y-57090023D02*
X117834761Y-57042404D01*
X117882380Y-56899547D01*
X117882380Y-56804309D01*
X117834761Y-56661452D01*
X117739523Y-56566214D01*
X117644285Y-56518595D01*
X117453809Y-56470976D01*
X117310952Y-56470976D01*
X117120476Y-56518595D01*
X117025238Y-56566214D01*
X116930000Y-56661452D01*
X116882380Y-56804309D01*
X116882380Y-56899547D01*
X116930000Y-57042404D01*
X116977619Y-57090023D01*
X117882380Y-57661452D02*
X117834761Y-57566214D01*
X117787142Y-57518595D01*
X117691904Y-57470976D01*
X117406190Y-57470976D01*
X117310952Y-57518595D01*
X117263333Y-57566214D01*
X117215714Y-57661452D01*
X117215714Y-57804309D01*
X117263333Y-57899547D01*
X117310952Y-57947166D01*
X117406190Y-57994785D01*
X117691904Y-57994785D01*
X117787142Y-57947166D01*
X117834761Y-57899547D01*
X117882380Y-57804309D01*
X117882380Y-57661452D01*
X117215714Y-58423357D02*
X118215714Y-58423357D01*
X117263333Y-58423357D02*
X117215714Y-58518595D01*
X117215714Y-58709071D01*
X117263333Y-58804309D01*
X117310952Y-58851928D01*
X117406190Y-58899547D01*
X117691904Y-58899547D01*
X117787142Y-58851928D01*
X117834761Y-58804309D01*
X117882380Y-58709071D01*
X117882380Y-58518595D01*
X117834761Y-58423357D01*
X117215714Y-59232880D02*
X117882380Y-59470976D01*
X117215714Y-59709071D02*
X117882380Y-59470976D01*
X118120476Y-59375738D01*
X118168095Y-59328119D01*
X118215714Y-59232880D01*
X117882380Y-60090023D02*
X117215714Y-60090023D01*
X117406190Y-60090023D02*
X117310952Y-60137642D01*
X117263333Y-60185261D01*
X117215714Y-60280500D01*
X117215714Y-60375738D01*
X117882380Y-60709071D02*
X117215714Y-60709071D01*
X116882380Y-60709071D02*
X116930000Y-60661452D01*
X116977619Y-60709071D01*
X116930000Y-60756690D01*
X116882380Y-60709071D01*
X116977619Y-60709071D01*
X117215714Y-61613833D02*
X118025238Y-61613833D01*
X118120476Y-61566214D01*
X118168095Y-61518595D01*
X118215714Y-61423357D01*
X118215714Y-61280500D01*
X118168095Y-61185261D01*
X117834761Y-61613833D02*
X117882380Y-61518595D01*
X117882380Y-61328119D01*
X117834761Y-61232880D01*
X117787142Y-61185261D01*
X117691904Y-61137642D01*
X117406190Y-61137642D01*
X117310952Y-61185261D01*
X117263333Y-61232880D01*
X117215714Y-61328119D01*
X117215714Y-61518595D01*
X117263333Y-61613833D01*
X117882380Y-62090023D02*
X116882380Y-62090023D01*
X117882380Y-62518595D02*
X117358571Y-62518595D01*
X117263333Y-62470976D01*
X117215714Y-62375738D01*
X117215714Y-62232880D01*
X117263333Y-62137642D01*
X117310952Y-62090023D01*
X117215714Y-62851928D02*
X117215714Y-63232880D01*
X116882380Y-62994785D02*
X117739523Y-62994785D01*
X117834761Y-63042404D01*
X117882380Y-63137642D01*
X117882380Y-63232880D01*
X118263333Y-64613833D02*
X118215714Y-64566214D01*
X118072857Y-64470976D01*
X117977619Y-64423357D01*
X117834761Y-64375738D01*
X117596666Y-64328119D01*
X117406190Y-64328119D01*
X117168095Y-64375738D01*
X117025238Y-64423357D01*
X116930000Y-64470976D01*
X116787142Y-64566214D01*
X116739523Y-64613833D01*
X117787142Y-65566214D02*
X117834761Y-65518595D01*
X117882380Y-65375738D01*
X117882380Y-65280500D01*
X117834761Y-65137642D01*
X117739523Y-65042404D01*
X117644285Y-64994785D01*
X117453809Y-64947166D01*
X117310952Y-64947166D01*
X117120476Y-64994785D01*
X117025238Y-65042404D01*
X116930000Y-65137642D01*
X116882380Y-65280500D01*
X116882380Y-65375738D01*
X116930000Y-65518595D01*
X116977619Y-65566214D01*
X118263333Y-65899547D02*
X118215714Y-65947166D01*
X118072857Y-66042404D01*
X117977619Y-66090023D01*
X117834761Y-66137642D01*
X117596666Y-66185261D01*
X117406190Y-66185261D01*
X117168095Y-66137642D01*
X117025238Y-66090023D01*
X116930000Y-66042404D01*
X116787142Y-65947166D01*
X116739523Y-65899547D01*
X116977619Y-67375738D02*
X116930000Y-67423357D01*
X116882380Y-67518595D01*
X116882380Y-67756690D01*
X116930000Y-67851928D01*
X116977619Y-67899547D01*
X117072857Y-67947166D01*
X117168095Y-67947166D01*
X117310952Y-67899547D01*
X117882380Y-67328119D01*
X117882380Y-67947166D01*
X116882380Y-68566214D02*
X116882380Y-68661452D01*
X116930000Y-68756690D01*
X116977619Y-68804309D01*
X117072857Y-68851928D01*
X117263333Y-68899547D01*
X117501428Y-68899547D01*
X117691904Y-68851928D01*
X117787142Y-68804309D01*
X117834761Y-68756690D01*
X117882380Y-68661452D01*
X117882380Y-68566214D01*
X117834761Y-68470976D01*
X117787142Y-68423357D01*
X117691904Y-68375738D01*
X117501428Y-68328119D01*
X117263333Y-68328119D01*
X117072857Y-68375738D01*
X116977619Y-68423357D01*
X116930000Y-68470976D01*
X116882380Y-68566214D01*
X116977619Y-69280500D02*
X116930000Y-69328119D01*
X116882380Y-69423357D01*
X116882380Y-69661452D01*
X116930000Y-69756690D01*
X116977619Y-69804309D01*
X117072857Y-69851928D01*
X117168095Y-69851928D01*
X117310952Y-69804309D01*
X117882380Y-69232880D01*
X117882380Y-69851928D01*
X116882380Y-70185261D02*
X116882380Y-70804309D01*
X117263333Y-70470976D01*
X117263333Y-70613833D01*
X117310952Y-70709071D01*
X117358571Y-70756690D01*
X117453809Y-70804309D01*
X117691904Y-70804309D01*
X117787142Y-70756690D01*
X117834761Y-70709071D01*
X117882380Y-70613833D01*
X117882380Y-70328119D01*
X117834761Y-70232880D01*
X117787142Y-70185261D01*
X118492380Y-56804309D02*
X119206666Y-56804309D01*
X119349523Y-56756690D01*
X119444761Y-56661452D01*
X119492380Y-56518595D01*
X119492380Y-56423357D01*
X119492380Y-57709071D02*
X118968571Y-57709071D01*
X118873333Y-57661452D01*
X118825714Y-57566214D01*
X118825714Y-57375738D01*
X118873333Y-57280500D01*
X119444761Y-57709071D02*
X119492380Y-57613833D01*
X119492380Y-57375738D01*
X119444761Y-57280500D01*
X119349523Y-57232880D01*
X119254285Y-57232880D01*
X119159047Y-57280500D01*
X119111428Y-57375738D01*
X119111428Y-57613833D01*
X119063809Y-57709071D01*
X119444761Y-58613833D02*
X119492380Y-58518595D01*
X119492380Y-58328119D01*
X119444761Y-58232880D01*
X119397142Y-58185261D01*
X119301904Y-58137642D01*
X119016190Y-58137642D01*
X118920952Y-58185261D01*
X118873333Y-58232880D01*
X118825714Y-58328119D01*
X118825714Y-58518595D01*
X118873333Y-58613833D01*
X119492380Y-59042404D02*
X118492380Y-59042404D01*
X119111428Y-59137642D02*
X119492380Y-59423357D01*
X118825714Y-59423357D02*
X119206666Y-59042404D01*
X119444761Y-59804309D02*
X119492380Y-59899547D01*
X119492380Y-60090023D01*
X119444761Y-60185261D01*
X119349523Y-60232880D01*
X119301904Y-60232880D01*
X119206666Y-60185261D01*
X119159047Y-60090023D01*
X119159047Y-59947166D01*
X119111428Y-59851928D01*
X119016190Y-59804309D01*
X118968571Y-59804309D01*
X118873333Y-59851928D01*
X118825714Y-59947166D01*
X118825714Y-60090023D01*
X118873333Y-60185261D01*
X119492380Y-60804309D02*
X119444761Y-60709071D01*
X119397142Y-60661452D01*
X119301904Y-60613833D01*
X119016190Y-60613833D01*
X118920952Y-60661452D01*
X118873333Y-60709071D01*
X118825714Y-60804309D01*
X118825714Y-60947166D01*
X118873333Y-61042404D01*
X118920952Y-61090023D01*
X119016190Y-61137642D01*
X119301904Y-61137642D01*
X119397142Y-61090023D01*
X119444761Y-61042404D01*
X119492380Y-60947166D01*
X119492380Y-60804309D01*
X118825714Y-61566214D02*
X119492380Y-61566214D01*
X118920952Y-61566214D02*
X118873333Y-61613833D01*
X118825714Y-61709071D01*
X118825714Y-61851928D01*
X118873333Y-61947166D01*
X118968571Y-61994785D01*
X119492380Y-61994785D01*
X119492380Y-63232880D02*
X118492380Y-63232880D01*
X119206666Y-63566214D01*
X118492380Y-63899547D01*
X119492380Y-63899547D01*
X119492380Y-65137642D02*
X118492380Y-65137642D01*
X118968571Y-65137642D02*
X118968571Y-65709071D01*
X119492380Y-65709071D02*
X118492380Y-65709071D01*
X118825714Y-66613833D02*
X119492380Y-66613833D01*
X118825714Y-66185261D02*
X119349523Y-66185261D01*
X119444761Y-66232880D01*
X119492380Y-66328119D01*
X119492380Y-66470976D01*
X119444761Y-66566214D01*
X119397142Y-66613833D01*
X121102380Y-57090023D02*
X120626190Y-56756690D01*
X121102380Y-56518595D02*
X120102380Y-56518595D01*
X120102380Y-56899547D01*
X120150000Y-56994785D01*
X120197619Y-57042404D01*
X120292857Y-57090023D01*
X120435714Y-57090023D01*
X120530952Y-57042404D01*
X120578571Y-56994785D01*
X120626190Y-56899547D01*
X120626190Y-56518595D01*
X121054761Y-57899547D02*
X121102380Y-57804309D01*
X121102380Y-57613833D01*
X121054761Y-57518595D01*
X120959523Y-57470976D01*
X120578571Y-57470976D01*
X120483333Y-57518595D01*
X120435714Y-57613833D01*
X120435714Y-57804309D01*
X120483333Y-57899547D01*
X120578571Y-57947166D01*
X120673809Y-57947166D01*
X120769047Y-57470976D01*
X120435714Y-58280500D02*
X121102380Y-58518595D01*
X120435714Y-58756690D01*
X121102380Y-60423357D02*
X121102380Y-59851928D01*
X121102380Y-60137642D02*
X120102380Y-60137642D01*
X120245238Y-60042404D01*
X120340476Y-59947166D01*
X120388095Y-59851928D01*
X144787142Y-57090023D02*
X144834761Y-57042404D01*
X144882380Y-56899547D01*
X144882380Y-56804309D01*
X144834761Y-56661452D01*
X144739523Y-56566214D01*
X144644285Y-56518595D01*
X144453809Y-56470976D01*
X144310952Y-56470976D01*
X144120476Y-56518595D01*
X144025238Y-56566214D01*
X143930000Y-56661452D01*
X143882380Y-56804309D01*
X143882380Y-56899547D01*
X143930000Y-57042404D01*
X143977619Y-57090023D01*
X144882380Y-57661452D02*
X144834761Y-57566214D01*
X144787142Y-57518595D01*
X144691904Y-57470976D01*
X144406190Y-57470976D01*
X144310952Y-57518595D01*
X144263333Y-57566214D01*
X144215714Y-57661452D01*
X144215714Y-57804309D01*
X144263333Y-57899547D01*
X144310952Y-57947166D01*
X144406190Y-57994785D01*
X144691904Y-57994785D01*
X144787142Y-57947166D01*
X144834761Y-57899547D01*
X144882380Y-57804309D01*
X144882380Y-57661452D01*
X144215714Y-58423357D02*
X145215714Y-58423357D01*
X144263333Y-58423357D02*
X144215714Y-58518595D01*
X144215714Y-58709071D01*
X144263333Y-58804309D01*
X144310952Y-58851928D01*
X144406190Y-58899547D01*
X144691904Y-58899547D01*
X144787142Y-58851928D01*
X144834761Y-58804309D01*
X144882380Y-58709071D01*
X144882380Y-58518595D01*
X144834761Y-58423357D01*
X144215714Y-59232880D02*
X144882380Y-59470976D01*
X144215714Y-59709071D02*
X144882380Y-59470976D01*
X145120476Y-59375738D01*
X145168095Y-59328119D01*
X145215714Y-59232880D01*
X144882380Y-60090023D02*
X144215714Y-60090023D01*
X144406190Y-60090023D02*
X144310952Y-60137642D01*
X144263333Y-60185261D01*
X144215714Y-60280500D01*
X144215714Y-60375738D01*
X144882380Y-60709071D02*
X144215714Y-60709071D01*
X143882380Y-60709071D02*
X143930000Y-60661452D01*
X143977619Y-60709071D01*
X143930000Y-60756690D01*
X143882380Y-60709071D01*
X143977619Y-60709071D01*
X144215714Y-61613833D02*
X145025238Y-61613833D01*
X145120476Y-61566214D01*
X145168095Y-61518595D01*
X145215714Y-61423357D01*
X145215714Y-61280500D01*
X145168095Y-61185261D01*
X144834761Y-61613833D02*
X144882380Y-61518595D01*
X144882380Y-61328119D01*
X144834761Y-61232880D01*
X144787142Y-61185261D01*
X144691904Y-61137642D01*
X144406190Y-61137642D01*
X144310952Y-61185261D01*
X144263333Y-61232880D01*
X144215714Y-61328119D01*
X144215714Y-61518595D01*
X144263333Y-61613833D01*
X144882380Y-62090023D02*
X143882380Y-62090023D01*
X144882380Y-62518595D02*
X144358571Y-62518595D01*
X144263333Y-62470976D01*
X144215714Y-62375738D01*
X144215714Y-62232880D01*
X144263333Y-62137642D01*
X144310952Y-62090023D01*
X144215714Y-62851928D02*
X144215714Y-63232880D01*
X143882380Y-62994785D02*
X144739523Y-62994785D01*
X144834761Y-63042404D01*
X144882380Y-63137642D01*
X144882380Y-63232880D01*
X145263333Y-64613833D02*
X145215714Y-64566214D01*
X145072857Y-64470976D01*
X144977619Y-64423357D01*
X144834761Y-64375738D01*
X144596666Y-64328119D01*
X144406190Y-64328119D01*
X144168095Y-64375738D01*
X144025238Y-64423357D01*
X143930000Y-64470976D01*
X143787142Y-64566214D01*
X143739523Y-64613833D01*
X144787142Y-65566214D02*
X144834761Y-65518595D01*
X144882380Y-65375738D01*
X144882380Y-65280500D01*
X144834761Y-65137642D01*
X144739523Y-65042404D01*
X144644285Y-64994785D01*
X144453809Y-64947166D01*
X144310952Y-64947166D01*
X144120476Y-64994785D01*
X144025238Y-65042404D01*
X143930000Y-65137642D01*
X143882380Y-65280500D01*
X143882380Y-65375738D01*
X143930000Y-65518595D01*
X143977619Y-65566214D01*
X145263333Y-65899547D02*
X145215714Y-65947166D01*
X145072857Y-66042404D01*
X144977619Y-66090023D01*
X144834761Y-66137642D01*
X144596666Y-66185261D01*
X144406190Y-66185261D01*
X144168095Y-66137642D01*
X144025238Y-66090023D01*
X143930000Y-66042404D01*
X143787142Y-65947166D01*
X143739523Y-65899547D01*
X143977619Y-67375738D02*
X143930000Y-67423357D01*
X143882380Y-67518595D01*
X143882380Y-67756690D01*
X143930000Y-67851928D01*
X143977619Y-67899547D01*
X144072857Y-67947166D01*
X144168095Y-67947166D01*
X144310952Y-67899547D01*
X144882380Y-67328119D01*
X144882380Y-67947166D01*
X143882380Y-68566214D02*
X143882380Y-68661452D01*
X143930000Y-68756690D01*
X143977619Y-68804309D01*
X144072857Y-68851928D01*
X144263333Y-68899547D01*
X144501428Y-68899547D01*
X144691904Y-68851928D01*
X144787142Y-68804309D01*
X144834761Y-68756690D01*
X144882380Y-68661452D01*
X144882380Y-68566214D01*
X144834761Y-68470976D01*
X144787142Y-68423357D01*
X144691904Y-68375738D01*
X144501428Y-68328119D01*
X144263333Y-68328119D01*
X144072857Y-68375738D01*
X143977619Y-68423357D01*
X143930000Y-68470976D01*
X143882380Y-68566214D01*
X143977619Y-69280500D02*
X143930000Y-69328119D01*
X143882380Y-69423357D01*
X143882380Y-69661452D01*
X143930000Y-69756690D01*
X143977619Y-69804309D01*
X144072857Y-69851928D01*
X144168095Y-69851928D01*
X144310952Y-69804309D01*
X144882380Y-69232880D01*
X144882380Y-69851928D01*
X143882380Y-70185261D02*
X143882380Y-70804309D01*
X144263333Y-70470976D01*
X144263333Y-70613833D01*
X144310952Y-70709071D01*
X144358571Y-70756690D01*
X144453809Y-70804309D01*
X144691904Y-70804309D01*
X144787142Y-70756690D01*
X144834761Y-70709071D01*
X144882380Y-70613833D01*
X144882380Y-70328119D01*
X144834761Y-70232880D01*
X144787142Y-70185261D01*
X145492380Y-56804309D02*
X146206666Y-56804309D01*
X146349523Y-56756690D01*
X146444761Y-56661452D01*
X146492380Y-56518595D01*
X146492380Y-56423357D01*
X146492380Y-57709071D02*
X145968571Y-57709071D01*
X145873333Y-57661452D01*
X145825714Y-57566214D01*
X145825714Y-57375738D01*
X145873333Y-57280500D01*
X146444761Y-57709071D02*
X146492380Y-57613833D01*
X146492380Y-57375738D01*
X146444761Y-57280500D01*
X146349523Y-57232880D01*
X146254285Y-57232880D01*
X146159047Y-57280500D01*
X146111428Y-57375738D01*
X146111428Y-57613833D01*
X146063809Y-57709071D01*
X146444761Y-58613833D02*
X146492380Y-58518595D01*
X146492380Y-58328119D01*
X146444761Y-58232880D01*
X146397142Y-58185261D01*
X146301904Y-58137642D01*
X146016190Y-58137642D01*
X145920952Y-58185261D01*
X145873333Y-58232880D01*
X145825714Y-58328119D01*
X145825714Y-58518595D01*
X145873333Y-58613833D01*
X146492380Y-59042404D02*
X145492380Y-59042404D01*
X146111428Y-59137642D02*
X146492380Y-59423357D01*
X145825714Y-59423357D02*
X146206666Y-59042404D01*
X146444761Y-59804309D02*
X146492380Y-59899547D01*
X146492380Y-60090023D01*
X146444761Y-60185261D01*
X146349523Y-60232880D01*
X146301904Y-60232880D01*
X146206666Y-60185261D01*
X146159047Y-60090023D01*
X146159047Y-59947166D01*
X146111428Y-59851928D01*
X146016190Y-59804309D01*
X145968571Y-59804309D01*
X145873333Y-59851928D01*
X145825714Y-59947166D01*
X145825714Y-60090023D01*
X145873333Y-60185261D01*
X146492380Y-60804309D02*
X146444761Y-60709071D01*
X146397142Y-60661452D01*
X146301904Y-60613833D01*
X146016190Y-60613833D01*
X145920952Y-60661452D01*
X145873333Y-60709071D01*
X145825714Y-60804309D01*
X145825714Y-60947166D01*
X145873333Y-61042404D01*
X145920952Y-61090023D01*
X146016190Y-61137642D01*
X146301904Y-61137642D01*
X146397142Y-61090023D01*
X146444761Y-61042404D01*
X146492380Y-60947166D01*
X146492380Y-60804309D01*
X145825714Y-61566214D02*
X146492380Y-61566214D01*
X145920952Y-61566214D02*
X145873333Y-61613833D01*
X145825714Y-61709071D01*
X145825714Y-61851928D01*
X145873333Y-61947166D01*
X145968571Y-61994785D01*
X146492380Y-61994785D01*
X146492380Y-63232880D02*
X145492380Y-63232880D01*
X146206666Y-63566214D01*
X145492380Y-63899547D01*
X146492380Y-63899547D01*
X146492380Y-65137642D02*
X145492380Y-65137642D01*
X145968571Y-65137642D02*
X145968571Y-65709071D01*
X146492380Y-65709071D02*
X145492380Y-65709071D01*
X145825714Y-66613833D02*
X146492380Y-66613833D01*
X145825714Y-66185261D02*
X146349523Y-66185261D01*
X146444761Y-66232880D01*
X146492380Y-66328119D01*
X146492380Y-66470976D01*
X146444761Y-66566214D01*
X146397142Y-66613833D01*
X148102380Y-57090023D02*
X147626190Y-56756690D01*
X148102380Y-56518595D02*
X147102380Y-56518595D01*
X147102380Y-56899547D01*
X147150000Y-56994785D01*
X147197619Y-57042404D01*
X147292857Y-57090023D01*
X147435714Y-57090023D01*
X147530952Y-57042404D01*
X147578571Y-56994785D01*
X147626190Y-56899547D01*
X147626190Y-56518595D01*
X148054761Y-57899547D02*
X148102380Y-57804309D01*
X148102380Y-57613833D01*
X148054761Y-57518595D01*
X147959523Y-57470976D01*
X147578571Y-57470976D01*
X147483333Y-57518595D01*
X147435714Y-57613833D01*
X147435714Y-57804309D01*
X147483333Y-57899547D01*
X147578571Y-57947166D01*
X147673809Y-57947166D01*
X147769047Y-57470976D01*
X147435714Y-58280500D02*
X148102380Y-58518595D01*
X147435714Y-58756690D01*
X148102380Y-60423357D02*
X148102380Y-59851928D01*
X148102380Y-60137642D02*
X147102380Y-60137642D01*
X147245238Y-60042404D01*
X147340476Y-59947166D01*
X147388095Y-59851928D01*
X171787142Y-57090023D02*
X171834761Y-57042404D01*
X171882380Y-56899547D01*
X171882380Y-56804309D01*
X171834761Y-56661452D01*
X171739523Y-56566214D01*
X171644285Y-56518595D01*
X171453809Y-56470976D01*
X171310952Y-56470976D01*
X171120476Y-56518595D01*
X171025238Y-56566214D01*
X170930000Y-56661452D01*
X170882380Y-56804309D01*
X170882380Y-56899547D01*
X170930000Y-57042404D01*
X170977619Y-57090023D01*
X171882380Y-57661452D02*
X171834761Y-57566214D01*
X171787142Y-57518595D01*
X171691904Y-57470976D01*
X171406190Y-57470976D01*
X171310952Y-57518595D01*
X171263333Y-57566214D01*
X171215714Y-57661452D01*
X171215714Y-57804309D01*
X171263333Y-57899547D01*
X171310952Y-57947166D01*
X171406190Y-57994785D01*
X171691904Y-57994785D01*
X171787142Y-57947166D01*
X171834761Y-57899547D01*
X171882380Y-57804309D01*
X171882380Y-57661452D01*
X171215714Y-58423357D02*
X172215714Y-58423357D01*
X171263333Y-58423357D02*
X171215714Y-58518595D01*
X171215714Y-58709071D01*
X171263333Y-58804309D01*
X171310952Y-58851928D01*
X171406190Y-58899547D01*
X171691904Y-58899547D01*
X171787142Y-58851928D01*
X171834761Y-58804309D01*
X171882380Y-58709071D01*
X171882380Y-58518595D01*
X171834761Y-58423357D01*
X171215714Y-59232880D02*
X171882380Y-59470976D01*
X171215714Y-59709071D02*
X171882380Y-59470976D01*
X172120476Y-59375738D01*
X172168095Y-59328119D01*
X172215714Y-59232880D01*
X171882380Y-60090023D02*
X171215714Y-60090023D01*
X171406190Y-60090023D02*
X171310952Y-60137642D01*
X171263333Y-60185261D01*
X171215714Y-60280500D01*
X171215714Y-60375738D01*
X171882380Y-60709071D02*
X171215714Y-60709071D01*
X170882380Y-60709071D02*
X170930000Y-60661452D01*
X170977619Y-60709071D01*
X170930000Y-60756690D01*
X170882380Y-60709071D01*
X170977619Y-60709071D01*
X171215714Y-61613833D02*
X172025238Y-61613833D01*
X172120476Y-61566214D01*
X172168095Y-61518595D01*
X172215714Y-61423357D01*
X172215714Y-61280500D01*
X172168095Y-61185261D01*
X171834761Y-61613833D02*
X171882380Y-61518595D01*
X171882380Y-61328119D01*
X171834761Y-61232880D01*
X171787142Y-61185261D01*
X171691904Y-61137642D01*
X171406190Y-61137642D01*
X171310952Y-61185261D01*
X171263333Y-61232880D01*
X171215714Y-61328119D01*
X171215714Y-61518595D01*
X171263333Y-61613833D01*
X171882380Y-62090023D02*
X170882380Y-62090023D01*
X171882380Y-62518595D02*
X171358571Y-62518595D01*
X171263333Y-62470976D01*
X171215714Y-62375738D01*
X171215714Y-62232880D01*
X171263333Y-62137642D01*
X171310952Y-62090023D01*
X171215714Y-62851928D02*
X171215714Y-63232880D01*
X170882380Y-62994785D02*
X171739523Y-62994785D01*
X171834761Y-63042404D01*
X171882380Y-63137642D01*
X171882380Y-63232880D01*
X172263333Y-64613833D02*
X172215714Y-64566214D01*
X172072857Y-64470976D01*
X171977619Y-64423357D01*
X171834761Y-64375738D01*
X171596666Y-64328119D01*
X171406190Y-64328119D01*
X171168095Y-64375738D01*
X171025238Y-64423357D01*
X170930000Y-64470976D01*
X170787142Y-64566214D01*
X170739523Y-64613833D01*
X171787142Y-65566214D02*
X171834761Y-65518595D01*
X171882380Y-65375738D01*
X171882380Y-65280500D01*
X171834761Y-65137642D01*
X171739523Y-65042404D01*
X171644285Y-64994785D01*
X171453809Y-64947166D01*
X171310952Y-64947166D01*
X171120476Y-64994785D01*
X171025238Y-65042404D01*
X170930000Y-65137642D01*
X170882380Y-65280500D01*
X170882380Y-65375738D01*
X170930000Y-65518595D01*
X170977619Y-65566214D01*
X172263333Y-65899547D02*
X172215714Y-65947166D01*
X172072857Y-66042404D01*
X171977619Y-66090023D01*
X171834761Y-66137642D01*
X171596666Y-66185261D01*
X171406190Y-66185261D01*
X171168095Y-66137642D01*
X171025238Y-66090023D01*
X170930000Y-66042404D01*
X170787142Y-65947166D01*
X170739523Y-65899547D01*
X170977619Y-67375738D02*
X170930000Y-67423357D01*
X170882380Y-67518595D01*
X170882380Y-67756690D01*
X170930000Y-67851928D01*
X170977619Y-67899547D01*
X171072857Y-67947166D01*
X171168095Y-67947166D01*
X171310952Y-67899547D01*
X171882380Y-67328119D01*
X171882380Y-67947166D01*
X170882380Y-68566214D02*
X170882380Y-68661452D01*
X170930000Y-68756690D01*
X170977619Y-68804309D01*
X171072857Y-68851928D01*
X171263333Y-68899547D01*
X171501428Y-68899547D01*
X171691904Y-68851928D01*
X171787142Y-68804309D01*
X171834761Y-68756690D01*
X171882380Y-68661452D01*
X171882380Y-68566214D01*
X171834761Y-68470976D01*
X171787142Y-68423357D01*
X171691904Y-68375738D01*
X171501428Y-68328119D01*
X171263333Y-68328119D01*
X171072857Y-68375738D01*
X170977619Y-68423357D01*
X170930000Y-68470976D01*
X170882380Y-68566214D01*
X170977619Y-69280500D02*
X170930000Y-69328119D01*
X170882380Y-69423357D01*
X170882380Y-69661452D01*
X170930000Y-69756690D01*
X170977619Y-69804309D01*
X171072857Y-69851928D01*
X171168095Y-69851928D01*
X171310952Y-69804309D01*
X171882380Y-69232880D01*
X171882380Y-69851928D01*
X170882380Y-70185261D02*
X170882380Y-70804309D01*
X171263333Y-70470976D01*
X171263333Y-70613833D01*
X171310952Y-70709071D01*
X171358571Y-70756690D01*
X171453809Y-70804309D01*
X171691904Y-70804309D01*
X171787142Y-70756690D01*
X171834761Y-70709071D01*
X171882380Y-70613833D01*
X171882380Y-70328119D01*
X171834761Y-70232880D01*
X171787142Y-70185261D01*
X172492380Y-56804309D02*
X173206666Y-56804309D01*
X173349523Y-56756690D01*
X173444761Y-56661452D01*
X173492380Y-56518595D01*
X173492380Y-56423357D01*
X173492380Y-57709071D02*
X172968571Y-57709071D01*
X172873333Y-57661452D01*
X172825714Y-57566214D01*
X172825714Y-57375738D01*
X172873333Y-57280500D01*
X173444761Y-57709071D02*
X173492380Y-57613833D01*
X173492380Y-57375738D01*
X173444761Y-57280500D01*
X173349523Y-57232880D01*
X173254285Y-57232880D01*
X173159047Y-57280500D01*
X173111428Y-57375738D01*
X173111428Y-57613833D01*
X173063809Y-57709071D01*
X173444761Y-58613833D02*
X173492380Y-58518595D01*
X173492380Y-58328119D01*
X173444761Y-58232880D01*
X173397142Y-58185261D01*
X173301904Y-58137642D01*
X173016190Y-58137642D01*
X172920952Y-58185261D01*
X172873333Y-58232880D01*
X172825714Y-58328119D01*
X172825714Y-58518595D01*
X172873333Y-58613833D01*
X173492380Y-59042404D02*
X172492380Y-59042404D01*
X173111428Y-59137642D02*
X173492380Y-59423357D01*
X172825714Y-59423357D02*
X173206666Y-59042404D01*
X173444761Y-59804309D02*
X173492380Y-59899547D01*
X173492380Y-60090023D01*
X173444761Y-60185261D01*
X173349523Y-60232880D01*
X173301904Y-60232880D01*
X173206666Y-60185261D01*
X173159047Y-60090023D01*
X173159047Y-59947166D01*
X173111428Y-59851928D01*
X173016190Y-59804309D01*
X172968571Y-59804309D01*
X172873333Y-59851928D01*
X172825714Y-59947166D01*
X172825714Y-60090023D01*
X172873333Y-60185261D01*
X173492380Y-60804309D02*
X173444761Y-60709071D01*
X173397142Y-60661452D01*
X173301904Y-60613833D01*
X173016190Y-60613833D01*
X172920952Y-60661452D01*
X172873333Y-60709071D01*
X172825714Y-60804309D01*
X172825714Y-60947166D01*
X172873333Y-61042404D01*
X172920952Y-61090023D01*
X173016190Y-61137642D01*
X173301904Y-61137642D01*
X173397142Y-61090023D01*
X173444761Y-61042404D01*
X173492380Y-60947166D01*
X173492380Y-60804309D01*
X172825714Y-61566214D02*
X173492380Y-61566214D01*
X172920952Y-61566214D02*
X172873333Y-61613833D01*
X172825714Y-61709071D01*
X172825714Y-61851928D01*
X172873333Y-61947166D01*
X172968571Y-61994785D01*
X173492380Y-61994785D01*
X173492380Y-63232880D02*
X172492380Y-63232880D01*
X173206666Y-63566214D01*
X172492380Y-63899547D01*
X173492380Y-63899547D01*
X173492380Y-65137642D02*
X172492380Y-65137642D01*
X172968571Y-65137642D02*
X172968571Y-65709071D01*
X173492380Y-65709071D02*
X172492380Y-65709071D01*
X172825714Y-66613833D02*
X173492380Y-66613833D01*
X172825714Y-66185261D02*
X173349523Y-66185261D01*
X173444761Y-66232880D01*
X173492380Y-66328119D01*
X173492380Y-66470976D01*
X173444761Y-66566214D01*
X173397142Y-66613833D01*
X175102380Y-57090023D02*
X174626190Y-56756690D01*
X175102380Y-56518595D02*
X174102380Y-56518595D01*
X174102380Y-56899547D01*
X174150000Y-56994785D01*
X174197619Y-57042404D01*
X174292857Y-57090023D01*
X174435714Y-57090023D01*
X174530952Y-57042404D01*
X174578571Y-56994785D01*
X174626190Y-56899547D01*
X174626190Y-56518595D01*
X175054761Y-57899547D02*
X175102380Y-57804309D01*
X175102380Y-57613833D01*
X175054761Y-57518595D01*
X174959523Y-57470976D01*
X174578571Y-57470976D01*
X174483333Y-57518595D01*
X174435714Y-57613833D01*
X174435714Y-57804309D01*
X174483333Y-57899547D01*
X174578571Y-57947166D01*
X174673809Y-57947166D01*
X174769047Y-57470976D01*
X174435714Y-58280500D02*
X175102380Y-58518595D01*
X174435714Y-58756690D01*
X175102380Y-60423357D02*
X175102380Y-59851928D01*
X175102380Y-60137642D02*
X174102380Y-60137642D01*
X174245238Y-60042404D01*
X174340476Y-59947166D01*
X174388095Y-59851928D01*
X117787142Y-81090023D02*
X117834761Y-81042404D01*
X117882380Y-80899547D01*
X117882380Y-80804309D01*
X117834761Y-80661452D01*
X117739523Y-80566214D01*
X117644285Y-80518595D01*
X117453809Y-80470976D01*
X117310952Y-80470976D01*
X117120476Y-80518595D01*
X117025238Y-80566214D01*
X116930000Y-80661452D01*
X116882380Y-80804309D01*
X116882380Y-80899547D01*
X116930000Y-81042404D01*
X116977619Y-81090023D01*
X117882380Y-81661452D02*
X117834761Y-81566214D01*
X117787142Y-81518595D01*
X117691904Y-81470976D01*
X117406190Y-81470976D01*
X117310952Y-81518595D01*
X117263333Y-81566214D01*
X117215714Y-81661452D01*
X117215714Y-81804309D01*
X117263333Y-81899547D01*
X117310952Y-81947166D01*
X117406190Y-81994785D01*
X117691904Y-81994785D01*
X117787142Y-81947166D01*
X117834761Y-81899547D01*
X117882380Y-81804309D01*
X117882380Y-81661452D01*
X117215714Y-82423357D02*
X118215714Y-82423357D01*
X117263333Y-82423357D02*
X117215714Y-82518595D01*
X117215714Y-82709071D01*
X117263333Y-82804309D01*
X117310952Y-82851928D01*
X117406190Y-82899547D01*
X117691904Y-82899547D01*
X117787142Y-82851928D01*
X117834761Y-82804309D01*
X117882380Y-82709071D01*
X117882380Y-82518595D01*
X117834761Y-82423357D01*
X117215714Y-83232880D02*
X117882380Y-83470976D01*
X117215714Y-83709071D02*
X117882380Y-83470976D01*
X118120476Y-83375738D01*
X118168095Y-83328119D01*
X118215714Y-83232880D01*
X117882380Y-84090023D02*
X117215714Y-84090023D01*
X117406190Y-84090023D02*
X117310952Y-84137642D01*
X117263333Y-84185261D01*
X117215714Y-84280500D01*
X117215714Y-84375738D01*
X117882380Y-84709071D02*
X117215714Y-84709071D01*
X116882380Y-84709071D02*
X116930000Y-84661452D01*
X116977619Y-84709071D01*
X116930000Y-84756690D01*
X116882380Y-84709071D01*
X116977619Y-84709071D01*
X117215714Y-85613833D02*
X118025238Y-85613833D01*
X118120476Y-85566214D01*
X118168095Y-85518595D01*
X118215714Y-85423357D01*
X118215714Y-85280500D01*
X118168095Y-85185261D01*
X117834761Y-85613833D02*
X117882380Y-85518595D01*
X117882380Y-85328119D01*
X117834761Y-85232880D01*
X117787142Y-85185261D01*
X117691904Y-85137642D01*
X117406190Y-85137642D01*
X117310952Y-85185261D01*
X117263333Y-85232880D01*
X117215714Y-85328119D01*
X117215714Y-85518595D01*
X117263333Y-85613833D01*
X117882380Y-86090023D02*
X116882380Y-86090023D01*
X117882380Y-86518595D02*
X117358571Y-86518595D01*
X117263333Y-86470976D01*
X117215714Y-86375738D01*
X117215714Y-86232880D01*
X117263333Y-86137642D01*
X117310952Y-86090023D01*
X117215714Y-86851928D02*
X117215714Y-87232880D01*
X116882380Y-86994785D02*
X117739523Y-86994785D01*
X117834761Y-87042404D01*
X117882380Y-87137642D01*
X117882380Y-87232880D01*
X118263333Y-88613833D02*
X118215714Y-88566214D01*
X118072857Y-88470976D01*
X117977619Y-88423357D01*
X117834761Y-88375738D01*
X117596666Y-88328119D01*
X117406190Y-88328119D01*
X117168095Y-88375738D01*
X117025238Y-88423357D01*
X116930000Y-88470976D01*
X116787142Y-88566214D01*
X116739523Y-88613833D01*
X117787142Y-89566214D02*
X117834761Y-89518595D01*
X117882380Y-89375738D01*
X117882380Y-89280500D01*
X117834761Y-89137642D01*
X117739523Y-89042404D01*
X117644285Y-88994785D01*
X117453809Y-88947166D01*
X117310952Y-88947166D01*
X117120476Y-88994785D01*
X117025238Y-89042404D01*
X116930000Y-89137642D01*
X116882380Y-89280500D01*
X116882380Y-89375738D01*
X116930000Y-89518595D01*
X116977619Y-89566214D01*
X118263333Y-89899547D02*
X118215714Y-89947166D01*
X118072857Y-90042404D01*
X117977619Y-90090023D01*
X117834761Y-90137642D01*
X117596666Y-90185261D01*
X117406190Y-90185261D01*
X117168095Y-90137642D01*
X117025238Y-90090023D01*
X116930000Y-90042404D01*
X116787142Y-89947166D01*
X116739523Y-89899547D01*
X116977619Y-91375738D02*
X116930000Y-91423357D01*
X116882380Y-91518595D01*
X116882380Y-91756690D01*
X116930000Y-91851928D01*
X116977619Y-91899547D01*
X117072857Y-91947166D01*
X117168095Y-91947166D01*
X117310952Y-91899547D01*
X117882380Y-91328119D01*
X117882380Y-91947166D01*
X116882380Y-92566214D02*
X116882380Y-92661452D01*
X116930000Y-92756690D01*
X116977619Y-92804309D01*
X117072857Y-92851928D01*
X117263333Y-92899547D01*
X117501428Y-92899547D01*
X117691904Y-92851928D01*
X117787142Y-92804309D01*
X117834761Y-92756690D01*
X117882380Y-92661452D01*
X117882380Y-92566214D01*
X117834761Y-92470976D01*
X117787142Y-92423357D01*
X117691904Y-92375738D01*
X117501428Y-92328119D01*
X117263333Y-92328119D01*
X117072857Y-92375738D01*
X116977619Y-92423357D01*
X116930000Y-92470976D01*
X116882380Y-92566214D01*
X116977619Y-93280500D02*
X116930000Y-93328119D01*
X116882380Y-93423357D01*
X116882380Y-93661452D01*
X116930000Y-93756690D01*
X116977619Y-93804309D01*
X117072857Y-93851928D01*
X117168095Y-93851928D01*
X117310952Y-93804309D01*
X117882380Y-93232880D01*
X117882380Y-93851928D01*
X116882380Y-94185261D02*
X116882380Y-94804309D01*
X117263333Y-94470976D01*
X117263333Y-94613833D01*
X117310952Y-94709071D01*
X117358571Y-94756690D01*
X117453809Y-94804309D01*
X117691904Y-94804309D01*
X117787142Y-94756690D01*
X117834761Y-94709071D01*
X117882380Y-94613833D01*
X117882380Y-94328119D01*
X117834761Y-94232880D01*
X117787142Y-94185261D01*
X118492380Y-80804309D02*
X119206666Y-80804309D01*
X119349523Y-80756690D01*
X119444761Y-80661452D01*
X119492380Y-80518595D01*
X119492380Y-80423357D01*
X119492380Y-81709071D02*
X118968571Y-81709071D01*
X118873333Y-81661452D01*
X118825714Y-81566214D01*
X118825714Y-81375738D01*
X118873333Y-81280500D01*
X119444761Y-81709071D02*
X119492380Y-81613833D01*
X119492380Y-81375738D01*
X119444761Y-81280500D01*
X119349523Y-81232880D01*
X119254285Y-81232880D01*
X119159047Y-81280500D01*
X119111428Y-81375738D01*
X119111428Y-81613833D01*
X119063809Y-81709071D01*
X119444761Y-82613833D02*
X119492380Y-82518595D01*
X119492380Y-82328119D01*
X119444761Y-82232880D01*
X119397142Y-82185261D01*
X119301904Y-82137642D01*
X119016190Y-82137642D01*
X118920952Y-82185261D01*
X118873333Y-82232880D01*
X118825714Y-82328119D01*
X118825714Y-82518595D01*
X118873333Y-82613833D01*
X119492380Y-83042404D02*
X118492380Y-83042404D01*
X119111428Y-83137642D02*
X119492380Y-83423357D01*
X118825714Y-83423357D02*
X119206666Y-83042404D01*
X119444761Y-83804309D02*
X119492380Y-83899547D01*
X119492380Y-84090023D01*
X119444761Y-84185261D01*
X119349523Y-84232880D01*
X119301904Y-84232880D01*
X119206666Y-84185261D01*
X119159047Y-84090023D01*
X119159047Y-83947166D01*
X119111428Y-83851928D01*
X119016190Y-83804309D01*
X118968571Y-83804309D01*
X118873333Y-83851928D01*
X118825714Y-83947166D01*
X118825714Y-84090023D01*
X118873333Y-84185261D01*
X119492380Y-84804309D02*
X119444761Y-84709071D01*
X119397142Y-84661452D01*
X119301904Y-84613833D01*
X119016190Y-84613833D01*
X118920952Y-84661452D01*
X118873333Y-84709071D01*
X118825714Y-84804309D01*
X118825714Y-84947166D01*
X118873333Y-85042404D01*
X118920952Y-85090023D01*
X119016190Y-85137642D01*
X119301904Y-85137642D01*
X119397142Y-85090023D01*
X119444761Y-85042404D01*
X119492380Y-84947166D01*
X119492380Y-84804309D01*
X118825714Y-85566214D02*
X119492380Y-85566214D01*
X118920952Y-85566214D02*
X118873333Y-85613833D01*
X118825714Y-85709071D01*
X118825714Y-85851928D01*
X118873333Y-85947166D01*
X118968571Y-85994785D01*
X119492380Y-85994785D01*
X119492380Y-87232880D02*
X118492380Y-87232880D01*
X119206666Y-87566214D01*
X118492380Y-87899547D01*
X119492380Y-87899547D01*
X119492380Y-89137642D02*
X118492380Y-89137642D01*
X118968571Y-89137642D02*
X118968571Y-89709071D01*
X119492380Y-89709071D02*
X118492380Y-89709071D01*
X118825714Y-90613833D02*
X119492380Y-90613833D01*
X118825714Y-90185261D02*
X119349523Y-90185261D01*
X119444761Y-90232880D01*
X119492380Y-90328119D01*
X119492380Y-90470976D01*
X119444761Y-90566214D01*
X119397142Y-90613833D01*
X121102380Y-81090023D02*
X120626190Y-80756690D01*
X121102380Y-80518595D02*
X120102380Y-80518595D01*
X120102380Y-80899547D01*
X120150000Y-80994785D01*
X120197619Y-81042404D01*
X120292857Y-81090023D01*
X120435714Y-81090023D01*
X120530952Y-81042404D01*
X120578571Y-80994785D01*
X120626190Y-80899547D01*
X120626190Y-80518595D01*
X121054761Y-81899547D02*
X121102380Y-81804309D01*
X121102380Y-81613833D01*
X121054761Y-81518595D01*
X120959523Y-81470976D01*
X120578571Y-81470976D01*
X120483333Y-81518595D01*
X120435714Y-81613833D01*
X120435714Y-81804309D01*
X120483333Y-81899547D01*
X120578571Y-81947166D01*
X120673809Y-81947166D01*
X120769047Y-81470976D01*
X120435714Y-82280500D02*
X121102380Y-82518595D01*
X120435714Y-82756690D01*
X121102380Y-84423357D02*
X121102380Y-83851928D01*
X121102380Y-84137642D02*
X120102380Y-84137642D01*
X120245238Y-84042404D01*
X120340476Y-83947166D01*
X120388095Y-83851928D01*
X144787142Y-81090023D02*
X144834761Y-81042404D01*
X144882380Y-80899547D01*
X144882380Y-80804309D01*
X144834761Y-80661452D01*
X144739523Y-80566214D01*
X144644285Y-80518595D01*
X144453809Y-80470976D01*
X144310952Y-80470976D01*
X144120476Y-80518595D01*
X144025238Y-80566214D01*
X143930000Y-80661452D01*
X143882380Y-80804309D01*
X143882380Y-80899547D01*
X143930000Y-81042404D01*
X143977619Y-81090023D01*
X144882380Y-81661452D02*
X144834761Y-81566214D01*
X144787142Y-81518595D01*
X144691904Y-81470976D01*
X144406190Y-81470976D01*
X144310952Y-81518595D01*
X144263333Y-81566214D01*
X144215714Y-81661452D01*
X144215714Y-81804309D01*
X144263333Y-81899547D01*
X144310952Y-81947166D01*
X144406190Y-81994785D01*
X144691904Y-81994785D01*
X144787142Y-81947166D01*
X144834761Y-81899547D01*
X144882380Y-81804309D01*
X144882380Y-81661452D01*
X144215714Y-82423357D02*
X145215714Y-82423357D01*
X144263333Y-82423357D02*
X144215714Y-82518595D01*
X144215714Y-82709071D01*
X144263333Y-82804309D01*
X144310952Y-82851928D01*
X144406190Y-82899547D01*
X144691904Y-82899547D01*
X144787142Y-82851928D01*
X144834761Y-82804309D01*
X144882380Y-82709071D01*
X144882380Y-82518595D01*
X144834761Y-82423357D01*
X144215714Y-83232880D02*
X144882380Y-83470976D01*
X144215714Y-83709071D02*
X144882380Y-83470976D01*
X145120476Y-83375738D01*
X145168095Y-83328119D01*
X145215714Y-83232880D01*
X144882380Y-84090023D02*
X144215714Y-84090023D01*
X144406190Y-84090023D02*
X144310952Y-84137642D01*
X144263333Y-84185261D01*
X144215714Y-84280500D01*
X144215714Y-84375738D01*
X144882380Y-84709071D02*
X144215714Y-84709071D01*
X143882380Y-84709071D02*
X143930000Y-84661452D01*
X143977619Y-84709071D01*
X143930000Y-84756690D01*
X143882380Y-84709071D01*
X143977619Y-84709071D01*
X144215714Y-85613833D02*
X145025238Y-85613833D01*
X145120476Y-85566214D01*
X145168095Y-85518595D01*
X145215714Y-85423357D01*
X145215714Y-85280500D01*
X145168095Y-85185261D01*
X144834761Y-85613833D02*
X144882380Y-85518595D01*
X144882380Y-85328119D01*
X144834761Y-85232880D01*
X144787142Y-85185261D01*
X144691904Y-85137642D01*
X144406190Y-85137642D01*
X144310952Y-85185261D01*
X144263333Y-85232880D01*
X144215714Y-85328119D01*
X144215714Y-85518595D01*
X144263333Y-85613833D01*
X144882380Y-86090023D02*
X143882380Y-86090023D01*
X144882380Y-86518595D02*
X144358571Y-86518595D01*
X144263333Y-86470976D01*
X144215714Y-86375738D01*
X144215714Y-86232880D01*
X144263333Y-86137642D01*
X144310952Y-86090023D01*
X144215714Y-86851928D02*
X144215714Y-87232880D01*
X143882380Y-86994785D02*
X144739523Y-86994785D01*
X144834761Y-87042404D01*
X144882380Y-87137642D01*
X144882380Y-87232880D01*
X145263333Y-88613833D02*
X145215714Y-88566214D01*
X145072857Y-88470976D01*
X144977619Y-88423357D01*
X144834761Y-88375738D01*
X144596666Y-88328119D01*
X144406190Y-88328119D01*
X144168095Y-88375738D01*
X144025238Y-88423357D01*
X143930000Y-88470976D01*
X143787142Y-88566214D01*
X143739523Y-88613833D01*
X144787142Y-89566214D02*
X144834761Y-89518595D01*
X144882380Y-89375738D01*
X144882380Y-89280500D01*
X144834761Y-89137642D01*
X144739523Y-89042404D01*
X144644285Y-88994785D01*
X144453809Y-88947166D01*
X144310952Y-88947166D01*
X144120476Y-88994785D01*
X144025238Y-89042404D01*
X143930000Y-89137642D01*
X143882380Y-89280500D01*
X143882380Y-89375738D01*
X143930000Y-89518595D01*
X143977619Y-89566214D01*
X145263333Y-89899547D02*
X145215714Y-89947166D01*
X145072857Y-90042404D01*
X144977619Y-90090023D01*
X144834761Y-90137642D01*
X144596666Y-90185261D01*
X144406190Y-90185261D01*
X144168095Y-90137642D01*
X144025238Y-90090023D01*
X143930000Y-90042404D01*
X143787142Y-89947166D01*
X143739523Y-89899547D01*
X143977619Y-91375738D02*
X143930000Y-91423357D01*
X143882380Y-91518595D01*
X143882380Y-91756690D01*
X143930000Y-91851928D01*
X143977619Y-91899547D01*
X144072857Y-91947166D01*
X144168095Y-91947166D01*
X144310952Y-91899547D01*
X144882380Y-91328119D01*
X144882380Y-91947166D01*
X143882380Y-92566214D02*
X143882380Y-92661452D01*
X143930000Y-92756690D01*
X143977619Y-92804309D01*
X144072857Y-92851928D01*
X144263333Y-92899547D01*
X144501428Y-92899547D01*
X144691904Y-92851928D01*
X144787142Y-92804309D01*
X144834761Y-92756690D01*
X144882380Y-92661452D01*
X144882380Y-92566214D01*
X144834761Y-92470976D01*
X144787142Y-92423357D01*
X144691904Y-92375738D01*
X144501428Y-92328119D01*
X144263333Y-92328119D01*
X144072857Y-92375738D01*
X143977619Y-92423357D01*
X143930000Y-92470976D01*
X143882380Y-92566214D01*
X143977619Y-93280500D02*
X143930000Y-93328119D01*
X143882380Y-93423357D01*
X143882380Y-93661452D01*
X143930000Y-93756690D01*
X143977619Y-93804309D01*
X144072857Y-93851928D01*
X144168095Y-93851928D01*
X144310952Y-93804309D01*
X144882380Y-93232880D01*
X144882380Y-93851928D01*
X143882380Y-94185261D02*
X143882380Y-94804309D01*
X144263333Y-94470976D01*
X144263333Y-94613833D01*
X144310952Y-94709071D01*
X144358571Y-94756690D01*
X144453809Y-94804309D01*
X144691904Y-94804309D01*
X144787142Y-94756690D01*
X144834761Y-94709071D01*
X144882380Y-94613833D01*
X144882380Y-94328119D01*
X144834761Y-94232880D01*
X144787142Y-94185261D01*
X145492380Y-80804309D02*
X146206666Y-80804309D01*
X146349523Y-80756690D01*
X146444761Y-80661452D01*
X146492380Y-80518595D01*
X146492380Y-80423357D01*
X146492380Y-81709071D02*
X145968571Y-81709071D01*
X145873333Y-81661452D01*
X145825714Y-81566214D01*
X145825714Y-81375738D01*
X145873333Y-81280500D01*
X146444761Y-81709071D02*
X146492380Y-81613833D01*
X146492380Y-81375738D01*
X146444761Y-81280500D01*
X146349523Y-81232880D01*
X146254285Y-81232880D01*
X146159047Y-81280500D01*
X146111428Y-81375738D01*
X146111428Y-81613833D01*
X146063809Y-81709071D01*
X146444761Y-82613833D02*
X146492380Y-82518595D01*
X146492380Y-82328119D01*
X146444761Y-82232880D01*
X146397142Y-82185261D01*
X146301904Y-82137642D01*
X146016190Y-82137642D01*
X145920952Y-82185261D01*
X145873333Y-82232880D01*
X145825714Y-82328119D01*
X145825714Y-82518595D01*
X145873333Y-82613833D01*
X146492380Y-83042404D02*
X145492380Y-83042404D01*
X146111428Y-83137642D02*
X146492380Y-83423357D01*
X145825714Y-83423357D02*
X146206666Y-83042404D01*
X146444761Y-83804309D02*
X146492380Y-83899547D01*
X146492380Y-84090023D01*
X146444761Y-84185261D01*
X146349523Y-84232880D01*
X146301904Y-84232880D01*
X146206666Y-84185261D01*
X146159047Y-84090023D01*
X146159047Y-83947166D01*
X146111428Y-83851928D01*
X146016190Y-83804309D01*
X145968571Y-83804309D01*
X145873333Y-83851928D01*
X145825714Y-83947166D01*
X145825714Y-84090023D01*
X145873333Y-84185261D01*
X146492380Y-84804309D02*
X146444761Y-84709071D01*
X146397142Y-84661452D01*
X146301904Y-84613833D01*
X146016190Y-84613833D01*
X145920952Y-84661452D01*
X145873333Y-84709071D01*
X145825714Y-84804309D01*
X145825714Y-84947166D01*
X145873333Y-85042404D01*
X145920952Y-85090023D01*
X146016190Y-85137642D01*
X146301904Y-85137642D01*
X146397142Y-85090023D01*
X146444761Y-85042404D01*
X146492380Y-84947166D01*
X146492380Y-84804309D01*
X145825714Y-85566214D02*
X146492380Y-85566214D01*
X145920952Y-85566214D02*
X145873333Y-85613833D01*
X145825714Y-85709071D01*
X145825714Y-85851928D01*
X145873333Y-85947166D01*
X145968571Y-85994785D01*
X146492380Y-85994785D01*
X146492380Y-87232880D02*
X145492380Y-87232880D01*
X146206666Y-87566214D01*
X145492380Y-87899547D01*
X146492380Y-87899547D01*
X146492380Y-89137642D02*
X145492380Y-89137642D01*
X145968571Y-89137642D02*
X145968571Y-89709071D01*
X146492380Y-89709071D02*
X145492380Y-89709071D01*
X145825714Y-90613833D02*
X146492380Y-90613833D01*
X145825714Y-90185261D02*
X146349523Y-90185261D01*
X146444761Y-90232880D01*
X146492380Y-90328119D01*
X146492380Y-90470976D01*
X146444761Y-90566214D01*
X146397142Y-90613833D01*
X148102380Y-81090023D02*
X147626190Y-80756690D01*
X148102380Y-80518595D02*
X147102380Y-80518595D01*
X147102380Y-80899547D01*
X147150000Y-80994785D01*
X147197619Y-81042404D01*
X147292857Y-81090023D01*
X147435714Y-81090023D01*
X147530952Y-81042404D01*
X147578571Y-80994785D01*
X147626190Y-80899547D01*
X147626190Y-80518595D01*
X148054761Y-81899547D02*
X148102380Y-81804309D01*
X148102380Y-81613833D01*
X148054761Y-81518595D01*
X147959523Y-81470976D01*
X147578571Y-81470976D01*
X147483333Y-81518595D01*
X147435714Y-81613833D01*
X147435714Y-81804309D01*
X147483333Y-81899547D01*
X147578571Y-81947166D01*
X147673809Y-81947166D01*
X147769047Y-81470976D01*
X147435714Y-82280500D02*
X148102380Y-82518595D01*
X147435714Y-82756690D01*
X148102380Y-84423357D02*
X148102380Y-83851928D01*
X148102380Y-84137642D02*
X147102380Y-84137642D01*
X147245238Y-84042404D01*
X147340476Y-83947166D01*
X147388095Y-83851928D01*
X171787142Y-81090023D02*
X171834761Y-81042404D01*
X171882380Y-80899547D01*
X171882380Y-80804309D01*
X171834761Y-80661452D01*
X171739523Y-80566214D01*
X171644285Y-80518595D01*
X171453809Y-80470976D01*
X171310952Y-80470976D01*
X171120476Y-80518595D01*
X171025238Y-80566214D01*
X170930000Y-80661452D01*
X170882380Y-80804309D01*
X170882380Y-80899547D01*
X170930000Y-81042404D01*
X170977619Y-81090023D01*
X171882380Y-81661452D02*
X171834761Y-81566214D01*
X171787142Y-81518595D01*
X171691904Y-81470976D01*
X171406190Y-81470976D01*
X171310952Y-81518595D01*
X171263333Y-81566214D01*
X171215714Y-81661452D01*
X171215714Y-81804309D01*
X171263333Y-81899547D01*
X171310952Y-81947166D01*
X171406190Y-81994785D01*
X171691904Y-81994785D01*
X171787142Y-81947166D01*
X171834761Y-81899547D01*
X171882380Y-81804309D01*
X171882380Y-81661452D01*
X171215714Y-82423357D02*
X172215714Y-82423357D01*
X171263333Y-82423357D02*
X171215714Y-82518595D01*
X171215714Y-82709071D01*
X171263333Y-82804309D01*
X171310952Y-82851928D01*
X171406190Y-82899547D01*
X171691904Y-82899547D01*
X171787142Y-82851928D01*
X171834761Y-82804309D01*
X171882380Y-82709071D01*
X171882380Y-82518595D01*
X171834761Y-82423357D01*
X171215714Y-83232880D02*
X171882380Y-83470976D01*
X171215714Y-83709071D02*
X171882380Y-83470976D01*
X172120476Y-83375738D01*
X172168095Y-83328119D01*
X172215714Y-83232880D01*
X171882380Y-84090023D02*
X171215714Y-84090023D01*
X171406190Y-84090023D02*
X171310952Y-84137642D01*
X171263333Y-84185261D01*
X171215714Y-84280500D01*
X171215714Y-84375738D01*
X171882380Y-84709071D02*
X171215714Y-84709071D01*
X170882380Y-84709071D02*
X170930000Y-84661452D01*
X170977619Y-84709071D01*
X170930000Y-84756690D01*
X170882380Y-84709071D01*
X170977619Y-84709071D01*
X171215714Y-85613833D02*
X172025238Y-85613833D01*
X172120476Y-85566214D01*
X172168095Y-85518595D01*
X172215714Y-85423357D01*
X172215714Y-85280500D01*
X172168095Y-85185261D01*
X171834761Y-85613833D02*
X171882380Y-85518595D01*
X171882380Y-85328119D01*
X171834761Y-85232880D01*
X171787142Y-85185261D01*
X171691904Y-85137642D01*
X171406190Y-85137642D01*
X171310952Y-85185261D01*
X171263333Y-85232880D01*
X171215714Y-85328119D01*
X171215714Y-85518595D01*
X171263333Y-85613833D01*
X171882380Y-86090023D02*
X170882380Y-86090023D01*
X171882380Y-86518595D02*
X171358571Y-86518595D01*
X171263333Y-86470976D01*
X171215714Y-86375738D01*
X171215714Y-86232880D01*
X171263333Y-86137642D01*
X171310952Y-86090023D01*
X171215714Y-86851928D02*
X171215714Y-87232880D01*
X170882380Y-86994785D02*
X171739523Y-86994785D01*
X171834761Y-87042404D01*
X171882380Y-87137642D01*
X171882380Y-87232880D01*
X172263333Y-88613833D02*
X172215714Y-88566214D01*
X172072857Y-88470976D01*
X171977619Y-88423357D01*
X171834761Y-88375738D01*
X171596666Y-88328119D01*
X171406190Y-88328119D01*
X171168095Y-88375738D01*
X171025238Y-88423357D01*
X170930000Y-88470976D01*
X170787142Y-88566214D01*
X170739523Y-88613833D01*
X171787142Y-89566214D02*
X171834761Y-89518595D01*
X171882380Y-89375738D01*
X171882380Y-89280500D01*
X171834761Y-89137642D01*
X171739523Y-89042404D01*
X171644285Y-88994785D01*
X171453809Y-88947166D01*
X171310952Y-88947166D01*
X171120476Y-88994785D01*
X171025238Y-89042404D01*
X170930000Y-89137642D01*
X170882380Y-89280500D01*
X170882380Y-89375738D01*
X170930000Y-89518595D01*
X170977619Y-89566214D01*
X172263333Y-89899547D02*
X172215714Y-89947166D01*
X172072857Y-90042404D01*
X171977619Y-90090023D01*
X171834761Y-90137642D01*
X171596666Y-90185261D01*
X171406190Y-90185261D01*
X171168095Y-90137642D01*
X171025238Y-90090023D01*
X170930000Y-90042404D01*
X170787142Y-89947166D01*
X170739523Y-89899547D01*
X170977619Y-91375738D02*
X170930000Y-91423357D01*
X170882380Y-91518595D01*
X170882380Y-91756690D01*
X170930000Y-91851928D01*
X170977619Y-91899547D01*
X171072857Y-91947166D01*
X171168095Y-91947166D01*
X171310952Y-91899547D01*
X171882380Y-91328119D01*
X171882380Y-91947166D01*
X170882380Y-92566214D02*
X170882380Y-92661452D01*
X170930000Y-92756690D01*
X170977619Y-92804309D01*
X171072857Y-92851928D01*
X171263333Y-92899547D01*
X171501428Y-92899547D01*
X171691904Y-92851928D01*
X171787142Y-92804309D01*
X171834761Y-92756690D01*
X171882380Y-92661452D01*
X171882380Y-92566214D01*
X171834761Y-92470976D01*
X171787142Y-92423357D01*
X171691904Y-92375738D01*
X171501428Y-92328119D01*
X171263333Y-92328119D01*
X171072857Y-92375738D01*
X170977619Y-92423357D01*
X170930000Y-92470976D01*
X170882380Y-92566214D01*
X170977619Y-93280500D02*
X170930000Y-93328119D01*
X170882380Y-93423357D01*
X170882380Y-93661452D01*
X170930000Y-93756690D01*
X170977619Y-93804309D01*
X171072857Y-93851928D01*
X171168095Y-93851928D01*
X171310952Y-93804309D01*
X171882380Y-93232880D01*
X171882380Y-93851928D01*
X170882380Y-94185261D02*
X170882380Y-94804309D01*
X171263333Y-94470976D01*
X171263333Y-94613833D01*
X171310952Y-94709071D01*
X171358571Y-94756690D01*
X171453809Y-94804309D01*
X171691904Y-94804309D01*
X171787142Y-94756690D01*
X171834761Y-94709071D01*
X171882380Y-94613833D01*
X171882380Y-94328119D01*
X171834761Y-94232880D01*
X171787142Y-94185261D01*
X172492380Y-80804309D02*
X173206666Y-80804309D01*
X173349523Y-80756690D01*
X173444761Y-80661452D01*
X173492380Y-80518595D01*
X173492380Y-80423357D01*
X173492380Y-81709071D02*
X172968571Y-81709071D01*
X172873333Y-81661452D01*
X172825714Y-81566214D01*
X172825714Y-81375738D01*
X172873333Y-81280500D01*
X173444761Y-81709071D02*
X173492380Y-81613833D01*
X173492380Y-81375738D01*
X173444761Y-81280500D01*
X173349523Y-81232880D01*
X173254285Y-81232880D01*
X173159047Y-81280500D01*
X173111428Y-81375738D01*
X173111428Y-81613833D01*
X173063809Y-81709071D01*
X173444761Y-82613833D02*
X173492380Y-82518595D01*
X173492380Y-82328119D01*
X173444761Y-82232880D01*
X173397142Y-82185261D01*
X173301904Y-82137642D01*
X173016190Y-82137642D01*
X172920952Y-82185261D01*
X172873333Y-82232880D01*
X172825714Y-82328119D01*
X172825714Y-82518595D01*
X172873333Y-82613833D01*
X173492380Y-83042404D02*
X172492380Y-83042404D01*
X173111428Y-83137642D02*
X173492380Y-83423357D01*
X172825714Y-83423357D02*
X173206666Y-83042404D01*
X173444761Y-83804309D02*
X173492380Y-83899547D01*
X173492380Y-84090023D01*
X173444761Y-84185261D01*
X173349523Y-84232880D01*
X173301904Y-84232880D01*
X173206666Y-84185261D01*
X173159047Y-84090023D01*
X173159047Y-83947166D01*
X173111428Y-83851928D01*
X173016190Y-83804309D01*
X172968571Y-83804309D01*
X172873333Y-83851928D01*
X172825714Y-83947166D01*
X172825714Y-84090023D01*
X172873333Y-84185261D01*
X173492380Y-84804309D02*
X173444761Y-84709071D01*
X173397142Y-84661452D01*
X173301904Y-84613833D01*
X173016190Y-84613833D01*
X172920952Y-84661452D01*
X172873333Y-84709071D01*
X172825714Y-84804309D01*
X172825714Y-84947166D01*
X172873333Y-85042404D01*
X172920952Y-85090023D01*
X173016190Y-85137642D01*
X173301904Y-85137642D01*
X173397142Y-85090023D01*
X173444761Y-85042404D01*
X173492380Y-84947166D01*
X173492380Y-84804309D01*
X172825714Y-85566214D02*
X173492380Y-85566214D01*
X172920952Y-85566214D02*
X172873333Y-85613833D01*
X172825714Y-85709071D01*
X172825714Y-85851928D01*
X172873333Y-85947166D01*
X172968571Y-85994785D01*
X173492380Y-85994785D01*
X173492380Y-87232880D02*
X172492380Y-87232880D01*
X173206666Y-87566214D01*
X172492380Y-87899547D01*
X173492380Y-87899547D01*
X173492380Y-89137642D02*
X172492380Y-89137642D01*
X172968571Y-89137642D02*
X172968571Y-89709071D01*
X173492380Y-89709071D02*
X172492380Y-89709071D01*
X172825714Y-90613833D02*
X173492380Y-90613833D01*
X172825714Y-90185261D02*
X173349523Y-90185261D01*
X173444761Y-90232880D01*
X173492380Y-90328119D01*
X173492380Y-90470976D01*
X173444761Y-90566214D01*
X173397142Y-90613833D01*
X175102380Y-81090023D02*
X174626190Y-80756690D01*
X175102380Y-80518595D02*
X174102380Y-80518595D01*
X174102380Y-80899547D01*
X174150000Y-80994785D01*
X174197619Y-81042404D01*
X174292857Y-81090023D01*
X174435714Y-81090023D01*
X174530952Y-81042404D01*
X174578571Y-80994785D01*
X174626190Y-80899547D01*
X174626190Y-80518595D01*
X175054761Y-81899547D02*
X175102380Y-81804309D01*
X175102380Y-81613833D01*
X175054761Y-81518595D01*
X174959523Y-81470976D01*
X174578571Y-81470976D01*
X174483333Y-81518595D01*
X174435714Y-81613833D01*
X174435714Y-81804309D01*
X174483333Y-81899547D01*
X174578571Y-81947166D01*
X174673809Y-81947166D01*
X174769047Y-81470976D01*
X174435714Y-82280500D02*
X175102380Y-82518595D01*
X174435714Y-82756690D01*
X175102380Y-84423357D02*
X175102380Y-83851928D01*
X175102380Y-84137642D02*
X174102380Y-84137642D01*
X174245238Y-84042404D01*
X174340476Y-83947166D01*
X174388095Y-83851928D01*
%LPC*%
D13*
X195000000Y-105000000D03*
D14*
X155960000Y-54770000D03*
D15*
X158500000Y-54770000D03*
D14*
X185480000Y-97800000D03*
D15*
X182940000Y-97800000D03*
D14*
X182960000Y-78770000D03*
D15*
X185500000Y-78770000D03*
D14*
X158480000Y-97800000D03*
D15*
X155940000Y-97800000D03*
D14*
X151725000Y-59960000D03*
D15*
X151725000Y-57420000D03*
D14*
X124725000Y-35960000D03*
D15*
X124725000Y-33420000D03*
D14*
X158480000Y-49800000D03*
D15*
X155940000Y-49800000D03*
D13*
X195000000Y-25000000D03*
D14*
X128925000Y-82500000D03*
D15*
X131465000Y-82500000D03*
D14*
X178725000Y-35960000D03*
D15*
X178725000Y-33420000D03*
D14*
X158480000Y-73800000D03*
D15*
X155940000Y-73800000D03*
D14*
X124725000Y-83960000D03*
D15*
X124725000Y-81420000D03*
D14*
X151725000Y-83960000D03*
D15*
X151725000Y-81420000D03*
D14*
X178725000Y-59960000D03*
D15*
X178725000Y-57420000D03*
D13*
X102000000Y-25000000D03*
D14*
X185480000Y-49800000D03*
D15*
X182940000Y-49800000D03*
D14*
X178725000Y-83960000D03*
D15*
X178725000Y-81420000D03*
D14*
X124725000Y-59960000D03*
D15*
X124725000Y-57420000D03*
D14*
X182925000Y-34500000D03*
D15*
X185465000Y-34500000D03*
D14*
X128960000Y-54770000D03*
D15*
X131500000Y-54770000D03*
D14*
X128960000Y-30770000D03*
D15*
X131500000Y-30770000D03*
D14*
X137300000Y-56455000D03*
D15*
X137300000Y-58995000D03*
X137300000Y-61535000D03*
X137300000Y-64075000D03*
X137300000Y-66615000D03*
X137300000Y-69155000D03*
X137300000Y-71695000D03*
X137300000Y-74235000D03*
D14*
X155960000Y-30770000D03*
D15*
X158500000Y-30770000D03*
D14*
X131480000Y-73800000D03*
D15*
X128940000Y-73800000D03*
D14*
X155925000Y-82500000D03*
D15*
X158465000Y-82500000D03*
D14*
X110300000Y-32455000D03*
D15*
X110300000Y-34995000D03*
X110300000Y-37535000D03*
X110300000Y-40075000D03*
X110300000Y-42615000D03*
X110300000Y-45155000D03*
X110300000Y-47695000D03*
X110300000Y-50235000D03*
D14*
X110300000Y-80455000D03*
D15*
X110300000Y-82995000D03*
X110300000Y-85535000D03*
X110300000Y-88075000D03*
X110300000Y-90615000D03*
X110300000Y-93155000D03*
X110300000Y-95695000D03*
X110300000Y-98235000D03*
D14*
X185480000Y-73800000D03*
D15*
X182940000Y-73800000D03*
D14*
X131480000Y-97800000D03*
D15*
X128940000Y-97800000D03*
D14*
X137300000Y-32455000D03*
D15*
X137300000Y-34995000D03*
X137300000Y-37535000D03*
X137300000Y-40075000D03*
X137300000Y-42615000D03*
X137300000Y-45155000D03*
X137300000Y-47695000D03*
X137300000Y-50235000D03*
D14*
X155925000Y-34500000D03*
D15*
X158465000Y-34500000D03*
D14*
X110300000Y-56455000D03*
D15*
X110300000Y-58995000D03*
X110300000Y-61535000D03*
X110300000Y-64075000D03*
X110300000Y-66615000D03*
X110300000Y-69155000D03*
X110300000Y-71695000D03*
X110300000Y-74235000D03*
D14*
X182960000Y-54770000D03*
D15*
X185500000Y-54770000D03*
D14*
X182925000Y-58500000D03*
D15*
X185465000Y-58500000D03*
D14*
X155960000Y-78770000D03*
D15*
X158500000Y-78770000D03*
D14*
X128925000Y-58500000D03*
D15*
X131465000Y-58500000D03*
D13*
X102000000Y-105000000D03*
D14*
X164300000Y-56455000D03*
D15*
X164300000Y-58995000D03*
X164300000Y-61535000D03*
X164300000Y-64075000D03*
X164300000Y-66615000D03*
X164300000Y-69155000D03*
X164300000Y-71695000D03*
X164300000Y-74235000D03*
D14*
X182925000Y-82500000D03*
D15*
X185465000Y-82500000D03*
D14*
X128960000Y-78770000D03*
D15*
X131500000Y-78770000D03*
D14*
X151725000Y-35960000D03*
D15*
X151725000Y-33420000D03*
D14*
X155925000Y-58500000D03*
D15*
X158465000Y-58500000D03*
D14*
X128925000Y-34500000D03*
D15*
X131465000Y-34500000D03*
D14*
X137300000Y-80455000D03*
D15*
X137300000Y-82995000D03*
X137300000Y-85535000D03*
X137300000Y-88075000D03*
X137300000Y-90615000D03*
X137300000Y-93155000D03*
X137300000Y-95695000D03*
X137300000Y-98235000D03*
D14*
X164300000Y-32455000D03*
D15*
X164300000Y-34995000D03*
X164300000Y-37535000D03*
X164300000Y-40075000D03*
X164300000Y-42615000D03*
X164300000Y-45155000D03*
X164300000Y-47695000D03*
X164300000Y-50235000D03*
D14*
X182960000Y-30770000D03*
D15*
X185500000Y-30770000D03*
D14*
X131480000Y-49800000D03*
D15*
X128940000Y-49800000D03*
D14*
X164300000Y-80455000D03*
D15*
X164300000Y-82995000D03*
X164300000Y-85535000D03*
X164300000Y-88075000D03*
X164300000Y-90615000D03*
X164300000Y-93155000D03*
X164300000Y-95695000D03*
X164300000Y-98235000D03*
D16*
X192000000Y-24000000D03*
X105000000Y-24000000D03*
X192000000Y-106000000D03*
X105000000Y-106000000D03*
M02*
